<?xml version="1.0" standalone="no"?>
<!DOCTYPE svg PUBLIC "-//W3C//DTD SVG 1.1//EN" "http://www.w3.org/Graphics/SVG/1.1/DTD/svg11.dtd">
<svg width="90" height="100" viewBox="-45 -50 90 100" xmlns="http://www.w3.org/2000/svg" version="1.1">
<title>OpenSCAD Model</title>
<path d="
M 43.7654,49.8477 L 44.4142,49.4142 L 44.8477,48.7654 L 45,48 L 45,37.5 L 38,37.5
 L 38,37.4644 L 37.3206,37.4644 L 35.9914,37.1819 L 34.75,36.6292 L 33.6507,35.8304 L 32.7414,34.8206
 L 32.062,33.6438 L 31.642,32.3514 L 31.5,31 L 31.5,9 L 31.642,7.64857 L 32.062,6.35622
 L 32.7414,5.1794 L 33.6507,4.16957 L 34.75,3.37085 L 35.9914,2.81815 L 37.3206,2.53561 L 38,2.53561
 L 38,2.5 L 45,2.5 L 45,-42.9289 L 37.9289,-50 L -37.9289,-50 L -45,-42.9289
 L -45,2.5 L -38,2.5 L -38,2.53561 L -37.3206,2.53561 L -35.9914,2.81815 L -34.75,3.37085
 L -33.6507,4.16957 L -32.7414,5.1794 L -32.062,6.35622 L -31.642,7.64857 L -31.5,9 L -31.5,31
 L -31.642,32.3514 L -32.062,33.6438 L -32.7414,34.8206 L -33.6507,35.8304 L -34.75,36.6292 L -35.9914,37.1819
 L -37.3206,37.4644 L -38,37.4644 L -38,37.5 L -45,37.5 L -45,48 L -44.8477,48.7654
 L -44.4142,49.4142 L -43.7654,49.8477 L -43,50 L 43,50 z
M -41.3863,-38.8112 L -42.0113,-39.2653 L -42.25,-40 L -42.0113,-40.7347 L -41.3863,-41.1888 L -40.6137,-41.1888
 L -39.9887,-40.7347 L -39.75,-40 L -39.9887,-39.2653 L -40.6137,-38.8112 z
M -0.386261,-38.8112 L -1.01126,-39.2653 L -1.25,-40 L -1.01126,-40.7347 L -0.386261,-41.1888 L 0.386261,-41.1888
 L 1.01126,-40.7347 L 1.25,-40 L 1.01126,-39.2653 L 0.386261,-38.8112 z
M 40.6137,-38.8112 L 39.9887,-39.2653 L 39.75,-40 L 39.9887,-40.7347 L 40.6137,-41.1888 L 41.3863,-41.1888
 L 42.0113,-40.7347 L 42.25,-40 L 42.0113,-39.2653 L 41.3863,-38.8112 z
M 34.3206,-2.53561 L 32.9914,-2.81815 L 31.75,-3.37085 L 30.6507,-4.16957 L 29.7414,-5.1794 L 29.062,-6.35622
 L 28.642,-7.64857 L 28.5,-9.00002 L 28.5,-31 L 28.642,-32.3514 L 29.062,-33.6438 L 29.7414,-34.8206
 L 30.6507,-35.8304 L 31.75,-36.6292 L 32.9914,-37.1819 L 34.3206,-37.4644 L 35.6794,-37.4644 L 37.0086,-37.1819
 L 38.25,-36.6292 L 39.3493,-35.8304 L 40.2586,-34.8206 L 40.938,-33.6438 L 41.358,-32.3514 L 41.5,-31
 L 41.5,-9 L 41.358,-7.64857 L 40.938,-6.35622 L 40.2586,-5.1794 L 39.3493,-4.16957 L 38.25,-3.37085
 L 37.0086,-2.81815 L 35.6794,-2.53561 z
M -35.6794,-2.53561 L -37.0086,-2.81815 L -38.25,-3.37085 L -39.3493,-4.16957 L -40.2586,-5.1794 L -40.938,-6.35622
 L -41.358,-7.64857 L -41.5,-9 L -41.5,-31 L -41.358,-32.3514 L -40.938,-33.6438 L -40.2586,-34.8206
 L -39.3493,-35.8304 L -38.25,-36.6292 L -37.0086,-37.1819 L -35.6794,-37.4644 L -34.3206,-37.4644 L -32.9914,-37.1819
 L -31.75,-36.6292 L -30.6507,-35.8304 L -29.7414,-34.8206 L -29.062,-33.6438 L -28.642,-32.3514 L -28.5,-31
 L -28.5,-9.00002 L -28.642,-7.64857 L -29.062,-6.35622 L -29.7414,-5.1794 L -30.6507,-4.16957 L -31.75,-3.37085
 L -32.9914,-2.81815 L -34.3206,-2.53561 z
M 16.6137,-26.3112 L 15.9887,-26.7653 L 15.75,-27.5 L 15.9887,-28.2347 L 16.6137,-28.6888 L 17.3863,-28.6888
 L 18.0113,-28.2347 L 18.25,-27.5 L 18.0113,-26.7653 L 17.3863,-26.3112 z
M -11.3863,-26.3112 L -12.0113,-26.7653 L -12.25,-27.5 L -12.0113,-28.2347 L -11.3863,-28.6888 L -10.6137,-28.6888
 L -9.98874,-28.2347 L -9.75,-27.5 L -9.98874,-26.7653 L -10.6137,-26.3112 z
M -17.3863,-26.3112 L -18.0113,-26.7653 L -18.25,-27.5 L -18.0113,-28.2347 L -17.3863,-28.6888 L -16.6137,-28.6888
 L -15.9887,-28.2347 L -15.75,-27.5 L -15.9887,-26.7653 L -16.6137,-26.3112 z
M 10.6137,-26.3112 L 9.98874,-26.7653 L 9.75,-27.5 L 9.98874,-28.2347 L 10.6137,-28.6888 L 11.3863,-28.6888
 L 12.0113,-28.2347 L 12.25,-27.5 L 12.0113,-26.7653 L 11.3863,-26.3112 z
M 16.6137,-11.3112 L 15.9887,-11.7653 L 15.75,-12.5 L 15.9887,-13.2347 L 16.6137,-13.6888 L 17.3863,-13.6888
 L 18.0113,-13.2347 L 18.25,-12.5 L 18.0113,-11.7653 L 17.3863,-11.3112 z
M 10.6137,-11.3112 L 9.98874,-11.7653 L 9.75,-12.5 L 9.98874,-13.2347 L 10.6137,-13.6888 L 11.3863,-13.6888
 L 12.0113,-13.2347 L 12.25,-12.5 L 12.0113,-11.7653 L 11.3863,-11.3112 z
M -11.3863,-11.3112 L -12.0113,-11.7653 L -12.25,-12.5 L -12.0113,-13.2347 L -11.3863,-13.6888 L -10.6137,-13.6888
 L -9.98874,-13.2347 L -9.75,-12.5 L -9.98874,-11.7653 L -10.6137,-11.3112 z
M -17.3863,-11.3112 L -18.0113,-11.7653 L -18.25,-12.5 L -18.0113,-13.2347 L -17.3863,-13.6888 L -16.6137,-13.6888
 L -15.9887,-13.2347 L -15.75,-12.5 L -15.9887,-11.7653 L -16.6137,-11.3112 z
M 40.6137,0.688812 L 39.9887,0.234726 L 39.75,-0.5 L 39.9887,-1.23473 L 40.6137,-1.68881 L 41.3863,-1.68881
 L 42.0113,-1.23473 L 42.25,-0.5 L 42.0113,0.234726 L 41.3863,0.688812 z
M -0.386261,0.688812 L -1.01126,0.234726 L -1.25,-0.5 L -1.01126,-1.23473 L -0.386261,-1.68881 L 0.386261,-1.68881
 L 1.01126,-1.23473 L 1.25,-0.5 L 1.01126,0.234726 L 0.386261,0.688812 z
M -41.3863,0.688812 L -42.0113,0.234726 L -42.25,-0.5 L -42.0113,-1.23473 L -41.3863,-1.68881 L -40.6137,-1.68881
 L -39.9887,-1.23473 L -39.75,-0.5 L -39.9887,0.234726 L -40.6137,0.688812 z
M -20.3863,13.6888 L -21.0113,13.2347 L -21.25,12.5 L -21.0113,11.7653 L -20.3863,11.3112 L -19.6137,11.3112
 L -18.9887,11.7653 L -18.75,12.5 L -18.9887,13.2347 L -19.6137,13.6888 z
M -14.3863,13.6888 L -15.0113,13.2347 L -15.25,12.5 L -15.0113,11.7653 L -14.3863,11.3112 L -13.6137,11.3112
 L -12.9887,11.7653 L -12.75,12.5 L -12.9887,13.2347 L -13.6137,13.6888 z
M 19.6137,13.6888 L 18.9887,13.2347 L 18.75,12.5 L 18.9887,11.7653 L 19.6137,11.3112 L 20.3863,11.3112
 L 21.0113,11.7653 L 21.25,12.5 L 21.0113,13.2347 L 20.3863,13.6888 z
M 13.6137,13.6888 L 12.9887,13.2347 L 12.75,12.5 L 12.9887,11.7653 L 13.6137,11.3112 L 14.3863,11.3112
 L 15.0113,11.7653 L 15.25,12.5 L 15.0113,13.2347 L 14.3863,13.6888 z
M -20.3863,28.6888 L -21.0113,28.2347 L -21.25,27.5 L -21.0113,26.7653 L -20.3863,26.3112 L -19.6137,26.3112
 L -18.9887,26.7653 L -18.75,27.5 L -18.9887,28.2347 L -19.6137,28.6888 z
M -14.3863,28.6888 L -15.0113,28.2347 L -15.25,27.5 L -15.0113,26.7653 L -14.3863,26.3112 L -13.6137,26.3112
 L -12.9887,26.7653 L -12.75,27.5 L -12.9887,28.2347 L -13.6137,28.6888 z
M 19.6137,28.6888 L 18.9887,28.2347 L 18.75,27.5 L 18.9887,26.7653 L 19.6137,26.3112 L 20.3863,26.3112
 L 21.0113,26.7653 L 21.25,27.5 L 21.0113,28.2347 L 20.3863,28.6888 z
M 13.6137,28.6888 L 12.9887,28.2347 L 12.75,27.5 L 12.9887,26.7653 L 13.6137,26.3112 L 14.3863,26.3112
 L 15.0113,26.7653 L 15.25,27.5 L 15.0113,28.2347 L 14.3863,28.6888 z
M -41.3863,47.1888 L -42.0113,46.7347 L -42.25,46 L -42.0113,45.2653 L -41.3863,44.8112 L -40.6137,44.8112
 L -39.9887,45.2653 L -39.75,46 L -39.9887,46.7347 L -40.6137,47.1888 z
M -0.386261,47.1888 L -1.01126,46.7347 L -1.25,46 L -1.01126,45.2653 L -0.386261,44.8112 L 0.386261,44.8112
 L 1.01126,45.2653 L 1.25,46 L 1.01126,46.7347 L 0.386261,47.1888 z
M 40.6137,47.1888 L 39.9887,46.7347 L 39.75,46 L 39.9887,45.2653 L 40.6137,44.8112 L 41.3863,44.8112
 L 42.0113,45.2653 L 42.25,46 L 42.0113,46.7347 L 41.3863,47.1888 z
" stroke="black" fill="lightgray" stroke-width="0.5"/></svg>
