<?xml version="1.0" standalone="no"?>
<!DOCTYPE svg PUBLIC "-//W3C//DTD SVG 1.1//EN" "http://www.w3.org/Graphics/SVG/1.1/DTD/svg11.dtd">
<svg width="76mm" height="73mm" viewBox="-38 -31 76 73" xmlns="http://www.w3.org/2000/svg" version="1.1">
<title>OpenSCAD Model</title>
<path d="
M 13.5,40 L 37.3,40 L 37.3,-31 L 2.5,-31 L 2.5,30 L 2.41113,30.5895
 L 2.15247,31.1266 L 1.74698,31.5637 L 1.23067,31.8617 L 0.64946,31.9944 L -0.350525,31.9944 L -0.945038,31.9498
 L -1.5,31.732 L -1.96609,31.3603 L -2.30193,30.8678 L -2.47766,30.2981 L -2.47766,-31 L -37.3,-31
 L -37.3,40 L -13.5,40 L -13.5,41.75 L 13.5,41.75 z
M 34.3451,-9.24425 L 34.0405,-9.71826 L 34.0405,-10.2817 L 34.3451,-10.7557 L 34.8577,-10.9898 L 35.4154,-10.9096
 L 35.8412,-10.5406 L 36,-10 L 35.8412,-9.45935 L 35.4154,-9.09036 L 34.8577,-9.01018 z
M -35.4154,-9.09036 L -35.8412,-9.45935 L -36,-10 L -35.8412,-10.5406 L -35.4154,-10.9096 L -34.8577,-10.9898
 L -34.3451,-10.7557 L -34.0405,-10.2817 L -34.0405,-9.71826 L -34.3451,-9.24425 L -34.8577,-9.01018 z
M 4.34514,-7.74425 L 4.0405,-8.21826 L 4.0405,-8.78172 L 4.34514,-9.25574 L 4.85768,-9.48981 L 5.41541,-9.40962
 L 5.84125,-9.04063 L 6,-8.5 L 5.84125,-7.95935 L 5.41541,-7.59036 L 4.85768,-7.51018 z
M -5.41541,-7.59036 L -5.84125,-7.95935 L -6,-8.5 L -5.84125,-9.04063 L -5.41541,-9.40962 L -4.85768,-9.48981
 L -4.34514,-9.25574 L -4.0405,-8.78172 L -4.0405,-8.21826 L -4.34514,-7.74425 L -4.85768,-7.51018 z
M 34.3451,4.75574 L 34.0405,4.28172 L 34.0405,3.71826 L 34.3451,3.24425 L 34.8577,3.01018 L 35.4154,3.09036
 L 35.8412,3.45935 L 36,4 L 35.8412,4.54063 L 35.4154,4.90962 L 34.8577,4.98981 z
M -35.4154,4.90962 L -35.8412,4.54063 L -36,4 L -35.8412,3.45935 L -35.4154,3.09036 L -34.8577,3.01018
 L -34.3451,3.24425 L -34.0405,3.71826 L -34.0405,4.28172 L -34.3451,4.75574 L -34.8577,4.98981 z
M 4.34514,40.2557 L 4.0405,39.7817 L 4.0405,39.2183 L 4.34514,38.7442 L 4.85768,38.5102 L 5.41541,38.5904
 L 5.84125,38.9594 L 6,39.5 L 5.84125,40.0406 L 5.41541,40.4096 L 4.85768,40.4898 z
M -5.41541,40.4096 L -5.84125,40.0406 L -6,39.5 L -5.84125,38.9594 L -5.41541,38.5904 L -4.85768,38.5102
 L -4.34514,38.7442 L -4.0405,39.2183 L -4.0405,39.7817 L -4.34514,40.2557 L -4.85768,40.4898 z
" stroke="black" fill="lightgray" stroke-width="0.5"/></svg>
