  0
SECTION
  2
BLOCKS
  0
ENDSEC
  0
SECTION
  2
ENTITIES
  0
LINE
  8
0
 10
0
 20
-42
 11
16
 21
-42
  0
LINE
  8
0
 10
16
 20
-42
 11
16
 21
30
  0
LINE
  8
0
 10
16
 20
30
 11
0
 21
42
  0
LINE
  8
0
 10
0
 20
42
 11
0
 21
-42
  0
LINE
  8
0
 10
5.5
 20
-34
 11
5.56739
 21
-33.4235
  0
LINE
  8
0
 10
5.56739
 20
-33.4235
 11
5.76592
 21
-32.878
  0
LINE
  8
0
 10
5.76592
 20
-32.878
 11
6.08489
 21
-32.393
  0
LINE
  8
0
 10
6.08489
 20
-32.393
 11
6.5071
 21
-31.9947
  0
LINE
  8
0
 10
6.5071
 20
-31.9947
 11
7.0098
 21
-31.7045
  0
LINE
  8
0
 10
7.0098
 20
-31.7045
 11
7.56588
 21
-31.538
  0
LINE
  8
0
 10
7.56588
 20
-31.538
 11
8.14536
 21
-31.5042
  0
LINE
  8
0
 10
8.14536
 20
-31.5042
 11
8.71701
 21
-31.605
  0
LINE
  8
0
 10
8.71701
 20
-31.605
 11
9.25
 21
-31.8349
  0
LINE
  8
0
 10
9.25
 20
-31.8349
 11
9.7156
 21
-32.1816
  0
LINE
  8
0
 10
9.7156
 20
-32.1816
 11
10.0887
 21
-32.6262
  0
LINE
  8
0
 10
10.0887
 20
-32.6262
 11
10.3492
 21
-33.1449
  0
LINE
  8
0
 10
10.3492
 20
-33.1449
 11
10.4831
 21
-33.7098
  0
LINE
  8
0
 10
10.4831
 20
-33.7098
 11
10.4831
 21
-34.2902
  0
LINE
  8
0
 10
10.4831
 20
-34.2902
 11
10.3492
 21
-34.8551
  0
LINE
  8
0
 10
10.3492
 20
-34.8551
 11
10.0887
 21
-35.3738
  0
LINE
  8
0
 10
10.0887
 20
-35.3738
 11
9.7156
 21
-35.8184
  0
LINE
  8
0
 10
9.7156
 20
-35.8184
 11
9.25
 21
-36.1651
  0
LINE
  8
0
 10
9.25
 20
-36.1651
 11
8.71701
 21
-36.395
  0
LINE
  8
0
 10
8.71701
 20
-36.395
 11
8.14536
 21
-36.4958
  0
LINE
  8
0
 10
8.14536
 20
-36.4958
 11
7.56588
 21
-36.462
  0
LINE
  8
0
 10
7.56588
 20
-36.462
 11
7.0098
 21
-36.2955
  0
LINE
  8
0
 10
7.0098
 20
-36.2955
 11
6.5071
 21
-36.0053
  0
LINE
  8
0
 10
6.5071
 20
-36.0053
 11
6.08489
 21
-35.607
  0
LINE
  8
0
 10
6.08489
 20
-35.607
 11
5.76592
 21
-35.122
  0
LINE
  8
0
 10
5.76592
 20
-35.122
 11
5.56739
 21
-34.5765
  0
LINE
  8
0
 10
5.56739
 20
-34.5765
 11
5.5
 21
-34
  0
LINE
  8
0
 10
6.3
 20
-12
 11
6.40252
 21
-11.4186
  0
LINE
  8
0
 10
6.40252
 20
-11.4186
 11
6.69772
 21
-10.9073
  0
LINE
  8
0
 10
6.69772
 20
-10.9073
 11
7.15
 21
-10.5278
  0
LINE
  8
0
 10
7.15
 20
-10.5278
 11
7.7048
 21
-10.3258
  0
LINE
  8
0
 10
7.7048
 20
-10.3258
 11
8.2952
 21
-10.3258
  0
LINE
  8
0
 10
8.2952
 20
-10.3258
 11
8.85
 21
-10.5278
  0
LINE
  8
0
 10
8.85
 20
-10.5278
 11
9.30227
 21
-10.9073
  0
LINE
  8
0
 10
9.30227
 20
-10.9073
 11
9.59748
 21
-11.4186
  0
LINE
  8
0
 10
9.59748
 20
-11.4186
 11
9.7
 21
-12
  0
LINE
  8
0
 10
9.7
 20
-12
 11
9.59748
 21
-12.5814
  0
LINE
  8
0
 10
9.59748
 20
-12.5814
 11
9.30227
 21
-13.0927
  0
LINE
  8
0
 10
9.30227
 20
-13.0927
 11
8.85
 21
-13.4722
  0
LINE
  8
0
 10
8.85
 20
-13.4722
 11
8.2952
 21
-13.6742
  0
LINE
  8
0
 10
8.2952
 20
-13.6742
 11
7.7048
 21
-13.6742
  0
LINE
  8
0
 10
7.7048
 20
-13.6742
 11
7.15
 21
-13.4722
  0
LINE
  8
0
 10
7.15
 20
-13.4722
 11
6.69772
 21
-13.0927
  0
LINE
  8
0
 10
6.69772
 20
-13.0927
 11
6.40252
 21
-12.5814
  0
LINE
  8
0
 10
6.40252
 20
-12.5814
 11
6.3
 21
-12
  0
LINE
  8
0
 10
6.3
 20
2
 11
6.40252
 21
2.58143
  0
LINE
  8
0
 10
6.40252
 20
2.58143
 11
6.69772
 21
3.09274
  0
LINE
  8
0
 10
6.69772
 20
3.09274
 11
7.15
 21
3.47224
  0
LINE
  8
0
 10
7.15
 20
3.47224
 11
7.7048
 21
3.67417
  0
LINE
  8
0
 10
7.7048
 20
3.67417
 11
8.2952
 21
3.67417
  0
LINE
  8
0
 10
8.2952
 20
3.67417
 11
8.85
 21
3.47224
  0
LINE
  8
0
 10
8.85
 20
3.47224
 11
9.30227
 21
3.09274
  0
LINE
  8
0
 10
9.30227
 20
3.09274
 11
9.59748
 21
2.58143
  0
LINE
  8
0
 10
9.59748
 20
2.58143
 11
9.7
 21
2
  0
LINE
  8
0
 10
9.7
 20
2
 11
9.59748
 21
1.41857
  0
LINE
  8
0
 10
9.59748
 20
1.41857
 11
9.30227
 21
0.907261
  0
LINE
  8
0
 10
9.30227
 20
0.907261
 11
8.85
 21
0.527757
  0
LINE
  8
0
 10
8.85
 20
0.527757
 11
8.2952
 21
0.325827
  0
LINE
  8
0
 10
8.2952
 20
0.325827
 11
7.7048
 21
0.325827
  0
LINE
  8
0
 10
7.7048
 20
0.325827
 11
7.15
 21
0.527757
  0
LINE
  8
0
 10
7.15
 20
0.527757
 11
6.69772
 21
0.907261
  0
LINE
  8
0
 10
6.69772
 20
0.907261
 11
6.40252
 21
1.41857
  0
LINE
  8
0
 10
6.40252
 20
1.41857
 11
6.3
 21
2
  0
LINE
  8
0
 10
6.3
 20
24
 11
6.40252
 21
24.5814
  0
LINE
  8
0
 10
6.40252
 20
24.5814
 11
6.69772
 21
25.0927
  0
LINE
  8
0
 10
6.69772
 20
25.0927
 11
7.15
 21
25.4722
  0
LINE
  8
0
 10
7.15
 20
25.4722
 11
7.7048
 21
25.6742
  0
LINE
  8
0
 10
7.7048
 20
25.6742
 11
8.2952
 21
25.6742
  0
LINE
  8
0
 10
8.2952
 20
25.6742
 11
8.85
 21
25.4722
  0
LINE
  8
0
 10
8.85
 20
25.4722
 11
9.30227
 21
25.0927
  0
LINE
  8
0
 10
9.30227
 20
25.0927
 11
9.59748
 21
24.5814
  0
LINE
  8
0
 10
9.59748
 20
24.5814
 11
9.7
 21
24
  0
LINE
  8
0
 10
9.7
 20
24
 11
9.59748
 21
23.4186
  0
LINE
  8
0
 10
9.59748
 20
23.4186
 11
9.30227
 21
22.9073
  0
LINE
  8
0
 10
9.30227
 20
22.9073
 11
8.85
 21
22.5278
  0
LINE
  8
0
 10
8.85
 20
22.5278
 11
8.2952
 21
22.3258
  0
LINE
  8
0
 10
8.2952
 20
22.3258
 11
7.7048
 21
22.3258
  0
LINE
  8
0
 10
7.7048
 20
22.3258
 11
7.15
 21
22.5278
  0
LINE
  8
0
 10
7.15
 20
22.5278
 11
6.69772
 21
22.9073
  0
LINE
  8
0
 10
6.69772
 20
22.9073
 11
6.40252
 21
23.4186
  0
LINE
  8
0
 10
6.40252
 20
23.4186
 11
6.3
 21
24
  0
ENDSEC
  0
SECTION
  2
OBJECTS
  0
DICTIONARY
  0
ENDSEC
  0
EOF
