<?xml version="1.0" encoding="UTF-8" standalone="no"?>
<svg
   xmlns:dc="http://purl.org/dc/elements/1.1/"
   xmlns:cc="http://creativecommons.org/ns#"
   xmlns:rdf="http://www.w3.org/1999/02/22-rdf-syntax-ns#"
   xmlns:svg="http://www.w3.org/2000/svg"
   xmlns="http://www.w3.org/2000/svg"
   xmlns:sodipodi="http://sodipodi.sourceforge.net/DTD/sodipodi-0.dtd"
   xmlns:inkscape="http://www.inkscape.org/namespaces/inkscape"
   version="1.1"
   width="5.049520cm"
   height="7.216140cm"
   viewBox="0 0 50495200 72161400"
   id="svg294"
   sodipodi:docname="beetledouble-User_Eco1.svg"
   inkscape:version="0.92.3 (2405546, 2018-03-11)">
  <metadata
     id="metadata300">
    <rdf:RDF>
      <cc:Work
         rdf:about="">
        <dc:format>image/svg+xml</dc:format>
        <dc:type
           rdf:resource="http://purl.org/dc/dcmitype/StillImage" />
      </cc:Work>
    </rdf:RDF>
  </metadata>
  <defs
     id="defs298" />
  <sodipodi:namedview
     pagecolor="#ffffff"
     bordercolor="#666666"
     borderopacity="1"
     objecttolerance="10"
     gridtolerance="10"
     guidetolerance="10"
     inkscape:pageopacity="0"
     inkscape:pageshadow="2"
     inkscape:window-width="1280"
     inkscape:window-height="885"
     id="namedview296"
     showgrid="false"
     inkscape:measure-start="169.973,221.455"
     inkscape:measure-end="162.65,253.649"
     inkscape:zoom="2.447454"
     inkscape:cx="83.076408"
     inkscape:cy="156.89839"
     inkscape:window-x="0"
     inkscape:window-y="0"
     inkscape:window-maximized="1"
     inkscape:current-layer="svg294" />
  <title
     id="title2">SVG Picture created as beetledouble-User_Eco1.svg date 2021/11/18 21:23:43 </title>
  <desc
     id="desc4">Picture generated by PCBNEW </desc>
  <g
     style="fill:#000000;fill-opacity:1;stroke:#000000;stroke-opacity:1;stroke-linecap:round;stroke-linejoin:round"
     transform="translate(0 0) scale(1 1)"
     id="g6" />
  <g
     style="fill:#000000;fill-opacity:0;stroke:#000000;stroke-width:0;stroke-opacity:1;stroke-linecap:round;stroke-linejoin:round"
     id="g8" />
  <g
     style="fill:#B4DBD2;fill-opacity:0;stroke:#000000;stroke-width:0;stroke-opacity:1;stroke-linecap:round;stroke-linejoin:round"
     id="g10" />
  <g
     style="fill:#B4DBD2;fill-opacity:0;stroke:#000000;stroke-width:150000;stroke-opacity:1;stroke-linecap:round;stroke-linejoin:round"
     id="g108">
    <text
       x="27534524.000000"
       y="2800000.000000"
       textLength="28242619.000000"
       font-size="1333333.000000"
       lengthAdjust="spacingAndGlyphs"
       text-anchor="middle"
       opacity="0"
       id="text12"
       style="stroke:#000000">Layer User.Eco1 - laser cut test rig</text>
    <g
       class="stroked-text"
       id="g106"
       style="stroke:#000000">
      <desc
         id="desc14">Layer User.Eco1 - laser cut test rig</desc>
      <path
         d="M14225000 2752380 L13748809 2752380 L13748809 1752380 "
         id="path16"
         style="stroke:#000000" />
      <path
         d="M14986904 2752380 L14986904 2228571 L14939285 2133333 L14844047 2085714 L14653571 2085714 L14558333 2133333 "
         id="path18"
         style="stroke:#000000" />
      <path
         d="M14986904 2704761 L14891666 2752380 L14653571 2752380 L14558333 2704761 L14510714 2609523 L14510714 2514285 L14558333 2419047 L14653571 2371428 L14891666 2371428 L14986904 2323809 "
         id="path20"
         style="stroke:#000000" />
      <path
         d="M15367857 2085714 L15605952 2752380 "
         id="path22"
         style="stroke:#000000" />
      <path
         d="M15844047 2085714 L15605952 2752380 L15510714 2990476 L15463095 3038095 L15367857 3085714 "
         id="path24"
         style="stroke:#000000" />
      <path
         d="M16605952 2704761 L16510714 2752380 L16320238 2752380 L16225000 2704761 L16177381 2609523 L16177381 2228571 L16225000 2133333 L16320238 2085714 L16510714 2085714 L16605952 2133333 L16653571 2228571 L16653571 2323809 L16177381 2419047 "
         id="path26"
         style="stroke:#000000" />
      <path
         d="M17082143 2752380 L17082143 2085714 "
         id="path28"
         style="stroke:#000000" />
      <path
         d="M17082143 2276190 L17129762 2180952 L17177381 2133333 L17272619 2085714 L17367857 2085714 "
         id="path30"
         style="stroke:#000000" />
      <path
         d="M18463095 1752380 L18463095 2561904 L18510714 2657142 L18558333 2704761 L18653571 2752380 L18844047 2752380 L18939285 2704761 L18986904 2657142 L19034524 2561904 L19034524 1752380 "
         id="path32"
         style="stroke:#000000" />
      <path
         d="M19463095 2704761 L19558333 2752380 L19748809 2752380 L19844047 2704761 L19891666 2609523 L19891666 2561904 L19844047 2466666 L19748809 2419047 L19605952 2419047 L19510714 2371428 L19463095 2276190 L19463095 2228571 L19510714 2133333 L19605952 2085714 L19748809 2085714 L19844047 2133333 "
         id="path34"
         style="stroke:#000000" />
      <path
         d="M20701190 2704761 L20605952 2752380 L20415476 2752380 L20320238 2704761 L20272619 2609523 L20272619 2228571 L20320238 2133333 L20415476 2085714 L20605952 2085714 L20701190 2133333 L20748809 2228571 L20748809 2323809 L20272619 2419047 "
         id="path36"
         style="stroke:#000000" />
      <path
         d="M21177381 2752380 L21177381 2085714 "
         id="path38"
         style="stroke:#000000" />
      <path
         d="M21177381 2276190 L21225000 2180952 L21272619 2133333 L21367857 2085714 L21463095 2085714 "
         id="path40"
         style="stroke:#000000" />
      <path
         d="M21796428 2657142 L21844047 2704761 L21796428 2752380 L21748809 2704761 L21796428 2657142 L21796428 2752380 "
         id="path42"
         style="stroke:#000000" />
      <path
         d="M22272619 2228571 L22605952 2228571 "
         id="path44"
         style="stroke:#000000" />
      <path
         d="M22748809 2752380 L22272619 2752380 L22272619 1752380 L22748809 1752380 "
         id="path46"
         style="stroke:#000000" />
      <path
         d="M23605952 2704761 L23510714 2752380 L23320238 2752380 L23225000 2704761 L23177381 2657142 L23129762 2561904 L23129762 2276190 L23177381 2180952 L23225000 2133333 L23320238 2085714 L23510714 2085714 L23605952 2133333 "
         id="path48"
         style="stroke:#000000" />
      <path
         d="M24177381 2752380 L24082143 2704761 L24034524 2657142 L23986904 2561904 L23986904 2276190 L24034524 2180952 L24082143 2133333 L24177381 2085714 L24320238 2085714 L24415476 2133333 L24463095 2180952 L24510714 2276190 L24510714 2561904 L24463095 2657142 L24415476 2704761 L24320238 2752380 L24177381 2752380 "
         id="path50"
         style="stroke:#000000" />
      <path
         d="M25463095 2752380 L24891666 2752380 "
         id="path52"
         style="stroke:#000000" />
      <path
         d="M25177381 2752380 L25177381 1752380 L25082143 1895238 L24986904 1990476 L24891666 2038095 "
         id="path54"
         style="stroke:#000000" />
      <path
         d="M26653571 2371428 L27415476 2371428 "
         id="path56"
         style="stroke:#000000" />
      <path
         d="M28796428 2752380 L28701190 2704761 L28653571 2609523 L28653571 1752380 "
         id="path58"
         style="stroke:#000000" />
      <path
         d="M29605952 2752380 L29605952 2228571 L29558333 2133333 L29463095 2085714 L29272619 2085714 L29177381 2133333 "
         id="path60"
         style="stroke:#000000" />
      <path
         d="M29605952 2704761 L29510714 2752380 L29272619 2752380 L29177381 2704761 L29129762 2609523 L29129762 2514285 L29177381 2419047 L29272619 2371428 L29510714 2371428 L29605952 2323809 "
         id="path62"
         style="stroke:#000000" />
      <path
         d="M30034524 2704761 L30129762 2752380 L30320238 2752380 L30415476 2704761 L30463095 2609523 L30463095 2561904 L30415476 2466666 L30320238 2419047 L30177381 2419047 L30082143 2371428 L30034524 2276190 L30034524 2228571 L30082143 2133333 L30177381 2085714 L30320238 2085714 L30415476 2133333 "
         id="path64"
         style="stroke:#000000" />
      <path
         d="M31272619 2704761 L31177381 2752380 L30986904 2752380 L30891666 2704761 L30844047 2609523 L30844047 2228571 L30891666 2133333 L30986904 2085714 L31177381 2085714 L31272619 2133333 L31320238 2228571 L31320238 2323809 L30844047 2419047 "
         id="path66"
         style="stroke:#000000" />
      <path
         d="M31748809 2752380 L31748809 2085714 "
         id="path68"
         style="stroke:#000000" />
      <path
         d="M31748809 2276190 L31796428 2180952 L31844047 2133333 L31939285 2085714 L32034524 2085714 "
         id="path70"
         style="stroke:#000000" />
      <path
         d="M33558333 2704761 L33463095 2752380 L33272619 2752380 L33177381 2704761 L33129762 2657142 L33082143 2561904 L33082143 2276190 L33129762 2180952 L33177381 2133333 L33272619 2085714 L33463095 2085714 L33558333 2133333 "
         id="path72"
         style="stroke:#000000" />
      <path
         d="M34415476 2085714 L34415476 2752380 "
         id="path74"
         style="stroke:#000000" />
      <path
         d="M33986904 2085714 L33986904 2609523 L34034524 2704761 L34129762 2752380 L34272619 2752380 L34367857 2704761 L34415476 2657142 "
         id="path76"
         style="stroke:#000000" />
      <path
         d="M34748809 2085714 L35129762 2085714 "
         id="path78"
         style="stroke:#000000" />
      <path
         d="M34891666 1752380 L34891666 2609523 L34939285 2704761 L35034524 2752380 L35129762 2752380 "
         id="path80"
         style="stroke:#000000" />
      <path
         d="M36082143 2085714 L36463095 2085714 "
         id="path82"
         style="stroke:#000000" />
      <path
         d="M36225000 1752380 L36225000 2609523 L36272619 2704761 L36367857 2752380 L36463095 2752380 "
         id="path84"
         style="stroke:#000000" />
      <path
         d="M37177381 2704761 L37082143 2752380 L36891666 2752380 L36796428 2704761 L36748809 2609523 L36748809 2228571 L36796428 2133333 L36891666 2085714 L37082143 2085714 L37177381 2133333 L37225000 2228571 L37225000 2323809 L36748809 2419047 "
         id="path86"
         style="stroke:#000000" />
      <path
         d="M37605952 2704761 L37701190 2752380 L37891666 2752380 L37986904 2704761 L38034524 2609523 L38034524 2561904 L37986904 2466666 L37891666 2419047 L37748809 2419047 L37653571 2371428 L37605952 2276190 L37605952 2228571 L37653571 2133333 L37748809 2085714 L37891666 2085714 L37986904 2133333 "
         id="path88"
         style="stroke:#000000" />
      <path
         d="M38320238 2085714 L38701190 2085714 "
         id="path90"
         style="stroke:#000000" />
      <path
         d="M38463095 1752380 L38463095 2609523 L38510714 2704761 L38605952 2752380 L38701190 2752380 "
         id="path92"
         style="stroke:#000000" />
      <path
         d="M39796428 2752380 L39796428 2085714 "
         id="path94"
         style="stroke:#000000" />
      <path
         d="M39796428 2276190 L39844047 2180952 L39891666 2133333 L39986904 2085714 L40082143 2085714 "
         id="path96"
         style="stroke:#000000" />
      <path
         d="M40415476 2752380 L40415476 2085714 "
         id="path98"
         style="stroke:#000000" />
      <path
         d="M40415476 1752380 L40367857 1800000 L40415476 1847619 L40463095 1800000 L40415476 1752380 L40415476 1847619 "
         id="path100"
         style="stroke:#000000" />
      <path
         d="M41320238 2085714 L41320238 2895238 L41272619 2990476 L41225000 3038095 L41129762 3085714 L40986904 3085714 L40891666 3038095 "
         id="path102"
         style="stroke:#000000" />
      <path
         d="M41320238 2704761 L41225000 2752380 L41034524 2752380 L40939285 2704761 L40891666 2657142 L40844047 2561904 L40844047 2276190 L40891666 2180952 L40939285 2133333 L41034524 2085714 L41225000 2085714 L41320238 2133333 "
         id="path104"
         style="stroke:#000000" />
    </g>
  </g>
  <g
     style="fill:#B4DBD2;fill-opacity:0;stroke:#000000;stroke-width:100000;stroke-opacity:1;stroke-linecap:round;stroke-linejoin:round"
     id="g292">
    <circle
       cx="25034524.000000"
       cy="50800000.000000"
       r="500000.000000"
       id="circle110"
       style="stroke:#000000" />
    <circle
       cx="35534524.000000"
       cy="50800000.000000"
       r="500000.000000"
       id="circle112"
       style="stroke:#000000" />
    <path
       d="M43034524 63050000 L11034524 63050000 "
       id="path114"
       style="stroke:#000000" />
    <path
       d="M43034524 5050000 L43034524 63050000 "
       id="path116"
       style="stroke:#000000" />
    <path
       d="M11034524 5050000 L43034524 5050000 "
       id="path118"
       style="stroke:#000000" />
    <path
       d="M11034524 31050000 L11034524 5050000 "
       id="path120"
       style="stroke:#000000" />
    <path
       d="M19034524 31050000 L11034524 31050000 "
       id="path122"
       style="stroke:#000000" />
    <path
       d="M19034524 44550000 L19034524 31050000 "
       id="path124"
       style="stroke:#000000" />
    <path
       d="M11034524 44550000 L19034524 44550000 "
       id="path126"
       style="stroke:#000000" />
    <path
       d="M11034524 63050000 L11034524 44550000 "
       id="path128"
       style="stroke:#000000" />
    <circle
       cx="13611524.000000"
       cy="55113000.000000"
       r="898026.000000"
       id="circle130"
       style="stroke:#000000" />
    <circle
       cx="16151524.000000"
       cy="55113000.000000"
       r="898026.000000"
       id="circle132"
       style="stroke:#000000" />
    <circle
       cx="16151524.000000"
       cy="52573000.000000"
       r="898026.000000"
       id="circle134"
       style="stroke:#000000" />
    <circle
       cx="13611524.000000"
       cy="52573000.000000"
       r="898026.000000"
       id="circle136"
       style="stroke:#000000" />
    <circle
       cx="16151524.000000"
       cy="50033000.000000"
       r="898026.000000"
       id="circle138"
       style="stroke:#000000" />
    <circle
       cx="13611524.000000"
       cy="50033000.000000"
       r="898026.000000"
       id="circle140"
       style="stroke:#000000" />
    <circle
       cx="27534524.000000"
       cy="54050000.000000"
       r="500000.000000"
       id="circle142"
       style="stroke:#000000" />
    <circle
       cx="32534524.000000"
       cy="54050000.000000"
       r="500000.000000"
       id="circle144"
       style="stroke:#000000" />
    <circle
       cx="40034524.000000"
       cy="8050000.000000"
       r="1414214.000000"
       id="circle146"
       style="stroke:#000000" />
    <circle
       cx="14034524.000000"
       cy="8050000.000000"
       r="1414214.000000"
       id="circle148"
       style="stroke:#000000" />
    <circle
       cx="14034524.000000"
       cy="60050000.000000"
       r="1414214.000000"
       id="circle150"
       style="stroke:#000000" />
    <circle
       cx="40034524.000000"
       cy="60050000.000000"
       r="1414214.000000"
       id="circle152"
       style="stroke:#000000" />
    <g
       id="g154"
       style="stroke:#000000" />
    <g
       id="g156"
       style="stroke:#000000" />
    <g
       id="g158"
       style="stroke:#000000" />
    <g
       id="g160"
       style="stroke:#000000" />
    <g
       id="g162"
       style="stroke:#000000" />
    <g
       id="g164"
       style="stroke:#000000" />
    <g
       id="g166"
       style="stroke:#000000" />
    <g
       id="g168"
       style="stroke:#000000" />
    <g
       id="g170"
       style="stroke:#000000" />
    <g
       id="g172"
       style="stroke:#000000" />
    <g
       id="g174"
       style="stroke:#000000" />
    <g
       id="g176"
       style="stroke:#000000" />
    <g
       id="g178"
       style="stroke:#000000" />
    <g
       id="g180"
       style="stroke:#000000" />
    <g
       id="g182"
       style="stroke:#000000" />
    <g
       id="g184"
       style="stroke:#000000" />
    <g
       id="g186"
       style="stroke:#000000" />
    <g
       id="g188"
       style="stroke:#000000" />
    <g
       id="g190"
       style="stroke:#000000" />
    <g
       id="g192"
       style="stroke:#000000" />
    <g
       id="g194"
       style="stroke:#000000" />
    <g
       id="g196"
       style="stroke:#000000" />
    <g
       id="g198"
       style="stroke:#000000" />
    <g
       id="g200"
       style="stroke:#000000" />
    <g
       id="g202"
       style="stroke:#000000" />
    <g
       id="g204"
       style="stroke:#000000" />
    <g
       id="g206"
       style="stroke:#000000" />
    <g
       id="g208"
       style="stroke:#000000" />
    <g
       id="g210"
       style="stroke:#000000" />
    <g
       id="g212"
       style="stroke:#000000" />
    <g
       id="g214"
       style="stroke:#000000" />
    <g
       id="g216"
       style="stroke:#000000" />
    <g
       id="g218"
       style="stroke:#000000" />
    <g
       id="g220"
       style="stroke:#000000" />
    <g
       id="g222"
       style="stroke:#000000" />
    <g
       id="g224"
       style="stroke:#000000" />
    <g
       id="g226"
       style="stroke:#000000" />
    <g
       id="g228"
       style="stroke:#000000" />
    <g
       id="g230"
       style="stroke:#000000" />
    <g
       id="g232"
       style="stroke:#000000" />
    <g
       id="g234"
       style="stroke:#000000" />
    <g
       id="g236"
       style="stroke:#000000" />
    <g
       id="g238"
       style="stroke:#000000" />
    <g
       id="g240"
       style="stroke:#000000" />
    <g
       id="g242"
       style="stroke:#000000" />
    <g
       id="g244"
       style="stroke:#000000" />
    <g
       id="g246"
       style="stroke:#000000" />
    <g
       id="g248"
       style="stroke:#000000" />
    <g
       id="g250"
       style="stroke:#000000" />
    <g
       id="g252"
       style="stroke:#000000" />
    <g
       id="g254"
       style="stroke:#000000" />
    <g
       id="g256"
       style="stroke:#000000" />
    <g
       id="g258"
       style="stroke:#000000" />
    <g
       id="g260"
       style="stroke:#000000" />
    <g
       id="g262"
       style="stroke:#000000" />
    <g
       id="g264"
       style="stroke:#000000" />
    <g
       id="g266"
       style="stroke:#000000" />
    <g
       id="g268"
       style="stroke:#000000" />
    <g
       id="g270"
       style="stroke:#000000" />
    <g
       id="g272"
       style="stroke:#000000" />
    <g
       id="g274"
       style="stroke:#000000" />
    <g
       id="g276"
       style="stroke:#000000" />
    <g
       id="g278"
       style="stroke:#000000" />
    <g
       id="g280"
       style="stroke:#000000" />
    <g
       id="g282"
       style="stroke:#000000" />
    <g
       id="g284"
       style="stroke:#000000" />
    <g
       id="g286"
       style="stroke:#000000" />
    <g
       id="g288"
       style="stroke:#000000" />
    <g
       id="g290"
       style="stroke:#000000" />
  </g>
</svg>
