%TF.GenerationSoftware,KiCad,Pcbnew,5.99.0-unknown-e61b1f03b8~131~ubuntu20.04.1*%
%TF.CreationDate,2021-08-02T15:41:02+00:00*%
%TF.ProjectId,beetleback_cg,62656574-6c65-4626-9163-6b5f63672e6b,2*%
%TF.SameCoordinates,PX5573000PY89ce520*%
%TF.FileFunction,Profile,NP*%
%FSLAX46Y46*%
G04 Gerber Fmt 4.6, Leading zero omitted, Abs format (unit mm)*
G04 Created by KiCad (PCBNEW 5.99.0-unknown-e61b1f03b8~131~ubuntu20.04.1) date 2021-08-02 15:41:02*
%MOMM*%
%LPD*%
G01*
G04 APERTURE LIST*
%TA.AperFunction,Profile*%
%ADD10C,0.050000*%
%TD*%
G04 APERTURE END LIST*
D10*
X13000000Y29000000D02*
X13000000Y27000000D01*
X-15005000Y22000000D02*
G75*
G02*
X-13005000Y22000000I1000000J0D01*
G01*
X15000000Y22000000D02*
G75*
G03*
X13000000Y22000000I-1000000J0D01*
G01*
X-13000000Y29000000D02*
X-13005000Y27000000D01*
X-15005000Y29000000D02*
X-15005000Y27000000D01*
X-2000000Y0D02*
X2000000Y0D01*
X13000000Y22000000D02*
X13000000Y16000000D01*
X15000000Y16000000D02*
X15000000Y22000000D01*
X15000000Y29000000D02*
X19000000Y29000000D01*
X2000000Y0D02*
G75*
G03*
X13000000Y11000000I0J11000000D01*
G01*
X-13000000Y11000000D02*
G75*
G03*
X-2000000Y0I11000000J0D01*
G01*
X-15005000Y0D02*
X-15005000Y11000000D01*
X15000000Y29000000D02*
X15000000Y27000000D01*
X-15005000Y11000000D02*
G75*
G02*
X-13005000Y11000000I1000000J0D01*
G01*
X13000000Y27000000D02*
G75*
G03*
X15000000Y27000000I1000000J0D01*
G01*
X-15005000Y29000000D02*
X-19005000Y29000000D01*
X-13000000Y29000000D02*
X13000000Y29000000D01*
X3800000Y11000000D02*
G75*
G03*
X3800000Y11000000I-3800000J0D01*
G01*
X13000000Y16000000D02*
G75*
G03*
X15000000Y16000000I1000000J0D01*
G01*
X15000000Y11000000D02*
G75*
G03*
X13000000Y11000000I-1000000J0D01*
G01*
X19000000Y29000000D02*
X19000000Y0D01*
X-19005000Y29000000D02*
X-19005000Y0D01*
X-19005000Y0D02*
X-15005000Y0D01*
X-15005000Y16000000D02*
X-15005000Y22000000D01*
X-13005000Y22000000D02*
X-13005000Y16000000D01*
X-13005000Y16000000D02*
G75*
G02*
X-15005000Y16000000I-1000000J0D01*
G01*
X-13005000Y27000000D02*
G75*
G02*
X-15005000Y27000000I-1000000J0D01*
G01*
X15000000Y0D02*
X15000000Y11000000D01*
X19000000Y0D02*
X15000000Y0D01*
M02*
