%TF.GenerationSoftware,KiCad,Pcbnew,5.99.0-unknown-e61b1f03b8~131~ubuntu20.04.1*%
%TF.CreationDate,2021-08-02T15:41:01+00:00*%
%TF.ProjectId,beetleback_cg,62656574-6c65-4626-9163-6b5f63672e6b,2*%
%TF.SameCoordinates,PX5573000PY89ce520*%
%TF.FileFunction,Paste,Top*%
%TF.FilePolarity,Positive*%
%FSLAX46Y46*%
G04 Gerber Fmt 4.6, Leading zero omitted, Abs format (unit mm)*
G04 Created by KiCad (PCBNEW 5.99.0-unknown-e61b1f03b8~131~ubuntu20.04.1) date 2021-08-02 15:41:01*
%MOMM*%
%LPD*%
G01*
G04 APERTURE LIST*
G04 Aperture macros list*
%AMRoundRect*
0 Rectangle with rounded corners*
0 $1 Rounding radius*
0 $2 $3 $4 $5 $6 $7 $8 $9 X,Y pos of 4 corners*
0 Add a 4 corners polygon primitive as box body*
4,1,4,$2,$3,$4,$5,$6,$7,$8,$9,$2,$3,0*
0 Add four circle primitives for the rounded corners*
1,1,$1+$1,$2,$3*
1,1,$1+$1,$4,$5*
1,1,$1+$1,$6,$7*
1,1,$1+$1,$8,$9*
0 Add four rect primitives between the rounded corners*
20,1,$1+$1,$2,$3,$4,$5,0*
20,1,$1+$1,$4,$5,$6,$7,0*
20,1,$1+$1,$6,$7,$8,$9,0*
20,1,$1+$1,$8,$9,$2,$3,0*%
G04 Aperture macros list end*
%ADD10RoundRect,0.140000X0.140000X0.170000X-0.140000X0.170000X-0.140000X-0.170000X0.140000X-0.170000X0*%
%ADD11RoundRect,0.140000X-0.170000X0.140000X-0.170000X-0.140000X0.170000X-0.140000X0.170000X0.140000X0*%
%ADD12R,0.900000X1.200000*%
%ADD13RoundRect,0.135000X-0.185000X0.135000X-0.185000X-0.135000X0.185000X-0.135000X0.185000X0.135000X0*%
%ADD14RoundRect,0.250000X-0.325000X-0.650000X0.325000X-0.650000X0.325000X0.650000X-0.325000X0.650000X0*%
%ADD15RoundRect,0.150000X0.689429X-0.477297X-0.477297X0.689429X-0.689429X0.477297X0.477297X-0.689429X0*%
%ADD16RoundRect,0.150000X0.150000X-0.825000X0.150000X0.825000X-0.150000X0.825000X-0.150000X-0.825000X0*%
%ADD17RoundRect,0.218750X-0.218750X-0.256250X0.218750X-0.256250X0.218750X0.256250X-0.218750X0.256250X0*%
%ADD18RoundRect,0.150000X-0.477297X-0.689429X0.689429X0.477297X0.477297X0.689429X-0.689429X-0.477297X0*%
%ADD19RoundRect,0.135000X-0.135000X-0.185000X0.135000X-0.185000X0.135000X0.185000X-0.135000X0.185000X0*%
%ADD20RoundRect,0.140000X0.021213X-0.219203X0.219203X-0.021213X-0.021213X0.219203X-0.219203X0.021213X0*%
%ADD21RoundRect,0.150000X0.150000X-0.512500X0.150000X0.512500X-0.150000X0.512500X-0.150000X-0.512500X0*%
%ADD22RoundRect,0.135000X0.185000X-0.135000X0.185000X0.135000X-0.185000X0.135000X-0.185000X-0.135000X0*%
%ADD23RoundRect,0.150000X-0.150000X0.825000X-0.150000X-0.825000X0.150000X-0.825000X0.150000X0.825000X0*%
%ADD24RoundRect,0.140000X0.170000X-0.140000X0.170000X0.140000X-0.170000X0.140000X-0.170000X-0.140000X0*%
G04 APERTURE END LIST*
D10*
%TO.C,C1*%
X-5020000Y19500000D03*
X-5980000Y19500000D03*
%TD*%
D11*
%TO.C,C2*%
X12300000Y18480000D03*
X12300000Y17520000D03*
%TD*%
D12*
%TO.C,D1*%
X10650000Y23500000D03*
X7350000Y23500000D03*
%TD*%
D13*
%TO.C,R1*%
X7500000Y26510000D03*
X7500000Y25490000D03*
%TD*%
D14*
%TO.C,C5*%
X-11475000Y19250000D03*
X-8525000Y19250000D03*
%TD*%
D13*
%TO.C,R5*%
X11000000Y13510000D03*
X11000000Y12490000D03*
%TD*%
D15*
%TO.C,Q2*%
X-3596949Y1402872D03*
X-2698924Y2300898D03*
X-1800898Y3198924D03*
X-902872Y4096949D03*
X-4403051Y7597128D03*
X-5301076Y6699102D03*
X-6199102Y5801076D03*
X-7097128Y4903051D03*
%TD*%
D16*
%TO.C,U1*%
X1095000Y16025000D03*
X2365000Y16025000D03*
X3635000Y16025000D03*
X4905000Y16025000D03*
X4905000Y20975000D03*
X3635000Y20975000D03*
X2365000Y20975000D03*
X1095000Y20975000D03*
%TD*%
D10*
%TO.C,C4*%
X-1520000Y19500000D03*
X-2480000Y19500000D03*
%TD*%
D17*
%TO.C,D2*%
X9212500Y28000000D03*
X10787500Y28000000D03*
%TD*%
D18*
%TO.C,Q1*%
X2402872Y6096949D03*
X3300898Y5198924D03*
X4198924Y4300898D03*
X5096949Y3402872D03*
X8597128Y6903051D03*
X7699102Y7801076D03*
X6801076Y8699102D03*
X5903051Y9597128D03*
%TD*%
D14*
%TO.C,C6*%
X-11475000Y21500000D03*
X-8525000Y21500000D03*
%TD*%
D19*
%TO.C,R6*%
X2990000Y1500000D03*
X4010000Y1500000D03*
%TD*%
%TO.C,R4*%
X9490000Y26500000D03*
X10510000Y26500000D03*
%TD*%
D20*
%TO.C,C9*%
X8660589Y10660589D03*
X9339411Y11339411D03*
%TD*%
D11*
%TO.C,C3*%
X-6000000Y14460000D03*
X-6000000Y13500000D03*
%TD*%
D21*
%TO.C,U3*%
X-2950000Y21362500D03*
X-2000000Y21362500D03*
X-1050000Y21362500D03*
X-1050000Y23637500D03*
X-2950000Y23637500D03*
%TD*%
D22*
%TO.C,R3*%
X-12000000Y8490000D03*
X-12000000Y9510000D03*
%TD*%
D23*
%TO.C,U2*%
X10905000Y20475000D03*
X9635000Y20475000D03*
X8365000Y20475000D03*
X7095000Y20475000D03*
X7095000Y15525000D03*
X8365000Y15525000D03*
X9635000Y15525000D03*
X10905000Y15525000D03*
%TD*%
D12*
%TO.C,D3*%
X-6150000Y16500000D03*
X-2850000Y16500000D03*
%TD*%
D22*
%TO.C,R2*%
X-10700000Y8490000D03*
X-10700000Y9510000D03*
%TD*%
D24*
%TO.C,C8*%
X-9600000Y6520000D03*
X-9600000Y7480000D03*
%TD*%
D23*
%TO.C,U4*%
X-8095000Y16475000D03*
X-9365000Y16475000D03*
X-10635000Y16475000D03*
X-11905000Y16475000D03*
X-11905000Y11525000D03*
X-10635000Y11525000D03*
X-9365000Y11525000D03*
X-8095000Y11525000D03*
%TD*%
D14*
%TO.C,C7*%
X-11475000Y23750000D03*
X-8525000Y23750000D03*
%TD*%
D21*
%TO.C,U5*%
X-6450000Y21362500D03*
X-5500000Y21362500D03*
X-4550000Y21362500D03*
X-4550000Y23637500D03*
X-6450000Y23637500D03*
%TD*%
M02*
