%TF.GenerationSoftware,KiCad,Pcbnew,5.99.0-unknown-e61b1f03b8~131~ubuntu20.04.1*%
%TF.CreationDate,2021-08-02T15:41:01+00:00*%
%TF.ProjectId,beetleback_cg,62656574-6c65-4626-9163-6b5f63672e6b,2*%
%TF.SameCoordinates,PX5573000PY89ce520*%
%TF.FileFunction,Legend,Top*%
%TF.FilePolarity,Positive*%
%FSLAX46Y46*%
G04 Gerber Fmt 4.6, Leading zero omitted, Abs format (unit mm)*
G04 Created by KiCad (PCBNEW 5.99.0-unknown-e61b1f03b8~131~ubuntu20.04.1) date 2021-08-02 15:41:01*
%MOMM*%
%LPD*%
G01*
G04 APERTURE LIST*
%ADD10C,0.560000*%
%ADD11C,0.120000*%
%ADD12C,0.150000*%
G04 APERTURE END LIST*
D10*
X780000Y6500000D02*
G75*
G03*
X780000Y6500000I-280000J0D01*
G01*
D11*
X4000000Y11000000D02*
G75*
G03*
X4000000Y11000000I-4000000J0D01*
G01*
D10*
X-6720000Y18000000D02*
G75*
G03*
X-6720000Y18000000I-280000J0D01*
G01*
X-220000Y15500000D02*
G75*
G03*
X-220000Y15500000I-280000J0D01*
G01*
X12780000Y21000000D02*
G75*
G03*
X12780000Y21000000I-280000J0D01*
G01*
X-4720000Y1000000D02*
G75*
G03*
X-4720000Y1000000I-280000J0D01*
G01*
D12*
X-12571429Y25880953D02*
X-12571429Y25119048D01*
X-12952381Y25500000D02*
X-12190477Y25500000D01*
X-1809524Y24688096D02*
X-2190477Y24688096D01*
X-2228572Y24307143D01*
X-2190477Y24345239D01*
X-2114286Y24383334D01*
X-1923810Y24383334D01*
X-1847620Y24345239D01*
X-1809524Y24307143D01*
X-1771429Y24230953D01*
X-1771429Y24040477D01*
X-1809524Y23964286D01*
X-1847620Y23926191D01*
X-1923810Y23888096D01*
X-2114286Y23888096D01*
X-2190477Y23926191D01*
X-2228572Y23964286D01*
X-3071429Y25880953D02*
X-3071429Y25119048D01*
X71428Y24619048D02*
X71428Y25380953D01*
X-6571429Y25880953D02*
X-6571429Y25119048D01*
X12383333Y24959524D02*
X12383333Y25340477D01*
X12611904Y24883334D02*
X11811904Y25150000D01*
X12611904Y25416667D01*
X12535714Y26140477D02*
X12573809Y26102381D01*
X12611904Y25988096D01*
X12611904Y25911905D01*
X12573809Y25797620D01*
X12497619Y25721429D01*
X12421428Y25683334D01*
X12269047Y25645239D01*
X12154761Y25645239D01*
X12002380Y25683334D01*
X11926190Y25721429D01*
X11850000Y25797620D01*
X11811904Y25911905D01*
X11811904Y25988096D01*
X11850000Y26102381D01*
X11888095Y26140477D01*
X11811904Y26369048D02*
X11811904Y26826191D01*
X12611904Y26597620D02*
X11811904Y26597620D01*
X12611904Y27092858D02*
X11811904Y27092858D01*
X11811904Y27359524D02*
X12611904Y27626191D01*
X11811904Y27892858D01*
X12192857Y28159524D02*
X12192857Y28426191D01*
X12611904Y28540477D02*
X12611904Y28159524D01*
X11811904Y28159524D01*
X11811904Y28540477D01*
X-5652381Y23888096D02*
X-6109524Y23888096D01*
X-5880953Y23888096D02*
X-5880953Y24688096D01*
X-5957143Y24573810D01*
X-6033334Y24497620D01*
X-6109524Y24459524D01*
X-5347620Y24611905D02*
X-5309524Y24650000D01*
X-5233334Y24688096D01*
X-5042858Y24688096D01*
X-4966667Y24650000D01*
X-4928572Y24611905D01*
X-4890477Y24535715D01*
X-4890477Y24459524D01*
X-4928572Y24345239D01*
X-5385715Y23888096D01*
X-4890477Y23888096D01*
X-8071429Y28880953D02*
X-8071429Y28119048D01*
X-8452381Y28500000D02*
X-7690477Y28500000D01*
X-6571429Y28880953D02*
X-6571429Y28119048D01*
X4547619Y24592977D02*
X5023809Y24926310D01*
X4547619Y25164405D02*
X5547619Y25164405D01*
X5547619Y24783453D01*
X5500000Y24688215D01*
X5452380Y24640596D01*
X5357142Y24592977D01*
X5214285Y24592977D01*
X5119047Y24640596D01*
X5071428Y24688215D01*
X5023809Y24783453D01*
X5023809Y25164405D01*
X5547619Y24259643D02*
X4547619Y23592977D01*
X5547619Y23592977D02*
X4547619Y24259643D01*
X-8071429Y25880953D02*
X-8071429Y25119048D01*
X-8452381Y25500000D02*
X-7690477Y25500000D01*
X2428571Y25164405D02*
X2428571Y24402500D01*
X2047619Y24783453D02*
X2809523Y24783453D01*
X3047619Y23450120D02*
X3047619Y23926310D01*
X2571428Y23973929D01*
X2619047Y23926310D01*
X2666666Y23831072D01*
X2666666Y23592977D01*
X2619047Y23497739D01*
X2571428Y23450120D01*
X2476190Y23402500D01*
X2238095Y23402500D01*
X2142857Y23450120D01*
X2095238Y23497739D01*
X2047619Y23592977D01*
X2047619Y23831072D01*
X2095238Y23926310D01*
X2142857Y23973929D01*
X-3071429Y28880953D02*
X-3071429Y28119048D01*
X111904Y17664286D02*
X-688096Y17664286D01*
X-116667Y17930953D01*
X-688096Y18197620D01*
X111904Y18197620D01*
X35714Y19035715D02*
X73809Y18997620D01*
X111904Y18883334D01*
X111904Y18807143D01*
X73809Y18692858D01*
X-2381Y18616667D01*
X-78572Y18578572D01*
X-230953Y18540477D01*
X-345239Y18540477D01*
X-497620Y18578572D01*
X-573810Y18616667D01*
X-650000Y18692858D01*
X-688096Y18807143D01*
X-688096Y18883334D01*
X-650000Y18997620D01*
X-611905Y19035715D01*
X-688096Y19378572D02*
X-40477Y19378572D01*
X35714Y19416667D01*
X73809Y19454762D01*
X111904Y19530953D01*
X111904Y19683334D01*
X73809Y19759524D01*
X35714Y19797620D01*
X-40477Y19835715D01*
X-688096Y19835715D01*
X-12571429Y28880953D02*
X-12571429Y28119048D01*
X-12952381Y28500000D02*
X-12190477Y28500000D01*
X-17214286Y7595239D02*
X-17214286Y7976191D01*
X-17547620Y7738096D02*
X-16690477Y7738096D01*
X-16595239Y7785715D01*
X-16547620Y7880953D01*
X-16547620Y7976191D01*
X-16547620Y8452381D02*
X-16595239Y8357143D01*
X-16642858Y8309524D01*
X-16738096Y8261905D01*
X-17023810Y8261905D01*
X-17119048Y8309524D01*
X-17166667Y8357143D01*
X-17214286Y8452381D01*
X-17214286Y8595239D01*
X-17166667Y8690477D01*
X-17119048Y8738096D01*
X-17023810Y8785715D01*
X-16738096Y8785715D01*
X-16642858Y8738096D01*
X-16595239Y8690477D01*
X-16547620Y8595239D01*
X-16547620Y8452381D01*
X-16547620Y9357143D02*
X-16595239Y9261905D01*
X-16642858Y9214286D01*
X-16738096Y9166667D01*
X-17023810Y9166667D01*
X-17119048Y9214286D01*
X-17166667Y9261905D01*
X-17214286Y9357143D01*
X-17214286Y9500000D01*
X-17166667Y9595239D01*
X-17119048Y9642858D01*
X-17023810Y9690477D01*
X-16738096Y9690477D01*
X-16642858Y9642858D01*
X-16595239Y9595239D01*
X-16547620Y9500000D01*
X-16547620Y9357143D01*
X-16547620Y10261905D02*
X-16595239Y10166667D01*
X-16690477Y10119048D01*
X-17547620Y10119048D01*
X-16547620Y11404762D02*
X-17547620Y11404762D01*
X-16547620Y11833334D02*
X-17071429Y11833334D01*
X-17166667Y11785715D01*
X-17214286Y11690477D01*
X-17214286Y11547620D01*
X-17166667Y11452381D01*
X-17119048Y11404762D01*
X-16547620Y12452381D02*
X-16595239Y12357143D01*
X-16642858Y12309524D01*
X-16738096Y12261905D01*
X-17023810Y12261905D01*
X-17119048Y12309524D01*
X-17166667Y12357143D01*
X-17214286Y12452381D01*
X-17214286Y12595239D01*
X-17166667Y12690477D01*
X-17119048Y12738096D01*
X-17023810Y12785715D01*
X-16738096Y12785715D01*
X-16642858Y12738096D01*
X-16595239Y12690477D01*
X-16547620Y12595239D01*
X-16547620Y12452381D01*
X-16547620Y13357143D02*
X-16595239Y13261905D01*
X-16690477Y13214286D01*
X-17547620Y13214286D01*
X-16595239Y14119048D02*
X-16547620Y14023810D01*
X-16547620Y13833334D01*
X-16595239Y13738096D01*
X-16690477Y13690477D01*
X-17071429Y13690477D01*
X-17166667Y13738096D01*
X-17214286Y13833334D01*
X-17214286Y14023810D01*
X-17166667Y14119048D01*
X-17071429Y14166667D01*
X-16976191Y14166667D01*
X-16880953Y13690477D01*
X-16595239Y15309524D02*
X-16547620Y15404762D01*
X-16547620Y15595239D01*
X-16595239Y15690477D01*
X-16690477Y15738096D01*
X-16738096Y15738096D01*
X-16833334Y15690477D01*
X-16880953Y15595239D01*
X-16880953Y15452381D01*
X-16928572Y15357143D01*
X-17023810Y15309524D01*
X-17071429Y15309524D01*
X-17166667Y15357143D01*
X-17214286Y15452381D01*
X-17214286Y15595239D01*
X-17166667Y15690477D01*
X-17214286Y16023810D02*
X-17214286Y16404762D01*
X-17547620Y16166667D02*
X-16690477Y16166667D01*
X-16595239Y16214286D01*
X-16547620Y16309524D01*
X-16547620Y16404762D01*
X-16547620Y16738096D02*
X-17214286Y16738096D01*
X-17023810Y16738096D02*
X-17119048Y16785715D01*
X-17166667Y16833334D01*
X-17214286Y16928572D01*
X-17214286Y17023810D01*
X-16547620Y17357143D02*
X-17214286Y17357143D01*
X-17547620Y17357143D02*
X-17500000Y17309524D01*
X-17452381Y17357143D01*
X-17500000Y17404762D01*
X-17547620Y17357143D01*
X-17452381Y17357143D01*
X-17214286Y17833334D02*
X-16214286Y17833334D01*
X-17166667Y17833334D02*
X-17214286Y17928572D01*
X-17214286Y18119048D01*
X-17166667Y18214286D01*
X-17119048Y18261905D01*
X-17023810Y18309524D01*
X-16738096Y18309524D01*
X-16642858Y18261905D01*
X-16595239Y18214286D01*
X-16547620Y18119048D01*
X-16547620Y17928572D01*
X-16595239Y17833334D01*
D11*
%TO.C,C1*%
X-5392164Y19860000D02*
X-5607836Y19860000D01*
X-5392164Y19140000D02*
X-5607836Y19140000D01*
%TO.C,C2*%
X12660000Y18107836D02*
X12660000Y17892164D01*
X11940000Y18107836D02*
X11940000Y17892164D01*
%TO.C,D1*%
X11250000Y24500000D02*
X7350000Y24500000D01*
X11250000Y22500000D02*
X11250000Y24500000D01*
X11250000Y22500000D02*
X7350000Y22500000D01*
%TO.C,R1*%
X7880000Y26153641D02*
X7880000Y25846359D01*
X7120000Y26153641D02*
X7120000Y25846359D01*
%TO.C,C5*%
X-10711252Y20160000D02*
X-9288748Y20160000D01*
X-10711252Y18340000D02*
X-9288748Y18340000D01*
%TO.C,R5*%
X10620000Y13153641D02*
X10620000Y12846359D01*
X11380000Y13153641D02*
X11380000Y12846359D01*
%TO.C,Q2*%
X-5810193Y2689807D02*
X-3370675Y250288D01*
X-2189807Y6310193D02*
X-3568665Y7689052D01*
X-5810193Y2689807D02*
X-7189052Y4068665D01*
X-2189807Y6310193D02*
X-810948Y4931335D01*
%TO.C,U1*%
X5560000Y18500000D02*
X5560000Y16550000D01*
X5560000Y18500000D02*
X5560000Y20450000D01*
X440000Y18500000D02*
X440000Y15050000D01*
X440000Y18500000D02*
X440000Y20450000D01*
%TO.C,C4*%
X-1892164Y19140000D02*
X-2107836Y19140000D01*
X-1892164Y19860000D02*
X-2107836Y19860000D01*
%TO.C,D2*%
X8515000Y28735000D02*
X8515000Y27265000D01*
X8515000Y27265000D02*
X10800000Y27265000D01*
X10800000Y28735000D02*
X8515000Y28735000D01*
%TO.C,Q1*%
X3689807Y8310193D02*
X5068665Y9689052D01*
X3689807Y8310193D02*
X1250288Y5870675D01*
X7310193Y4689807D02*
X5931335Y3310948D01*
X7310193Y4689807D02*
X8689052Y6068665D01*
%TO.C,C6*%
X-10711252Y22410000D02*
X-9288748Y22410000D01*
X-10711252Y20590000D02*
X-9288748Y20590000D01*
%TO.C,R6*%
X3346359Y1880000D02*
X3653641Y1880000D01*
X3346359Y1120000D02*
X3653641Y1120000D01*
%TO.C,R4*%
X9846359Y26120000D02*
X10153641Y26120000D01*
X9846359Y26880000D02*
X10153641Y26880000D01*
%TO.C,C9*%
X9178307Y10669190D02*
X9330810Y10821693D01*
X8669190Y11178307D02*
X8821693Y11330810D01*
%TO.C,C3*%
X-5640000Y14087836D02*
X-5640000Y13872164D01*
X-6360000Y14087836D02*
X-6360000Y13872164D01*
%TO.C,U3*%
X-440000Y22500000D02*
X-440000Y23300000D01*
X-3560000Y22500000D02*
X-3560000Y20700000D01*
X-440000Y22500000D02*
X-440000Y21700000D01*
X-3560000Y22500000D02*
X-3560000Y23300000D01*
%TO.C,R3*%
X-12380000Y8846359D02*
X-12380000Y9153641D01*
X-11620000Y8846359D02*
X-11620000Y9153641D01*
%TO.C,J1*%
X3770000Y25670000D02*
X-1370000Y25670000D01*
X6370000Y28330000D02*
X6370000Y27000000D01*
X3770000Y28330000D02*
X-1370000Y28330000D01*
X3770000Y28330000D02*
X3770000Y25670000D01*
X5040000Y28330000D02*
X6370000Y28330000D01*
X-1370000Y28330000D02*
X-1370000Y25670000D01*
%TO.C,U2*%
X6440000Y18000000D02*
X6440000Y19950000D01*
X11560000Y18000000D02*
X11560000Y21450000D01*
X11560000Y18000000D02*
X11560000Y16050000D01*
X6440000Y18000000D02*
X6440000Y16050000D01*
%TO.C,D3*%
X-6750000Y17500000D02*
X-6750000Y15500000D01*
X-6750000Y17500000D02*
X-2850000Y17500000D01*
X-6750000Y15500000D02*
X-2850000Y15500000D01*
%TO.C,R2*%
X-10320000Y8846359D02*
X-10320000Y9153641D01*
X-11080000Y8846359D02*
X-11080000Y9153641D01*
%TO.C,C8*%
X-9960000Y6892164D02*
X-9960000Y7107836D01*
X-9240000Y6892164D02*
X-9240000Y7107836D01*
%TO.C,U4*%
X-12560000Y14000000D02*
X-12560000Y12050000D01*
X-7440000Y14000000D02*
X-7440000Y17450000D01*
X-12560000Y14000000D02*
X-12560000Y15950000D01*
X-7440000Y14000000D02*
X-7440000Y12050000D01*
%TO.C,C7*%
X-10711252Y22840000D02*
X-9288748Y22840000D01*
X-10711252Y24660000D02*
X-9288748Y24660000D01*
%TO.C,U5*%
X-3940000Y22500000D02*
X-3940000Y23300000D01*
X-3940000Y22500000D02*
X-3940000Y21700000D01*
X-7060000Y22500000D02*
X-7060000Y23300000D01*
X-7060000Y22500000D02*
X-7060000Y20700000D01*
%TD*%
M02*
