M48
; DRILL file {KiCad 5.99.0-unknown-e61b1f03b8~131~ubuntu20.04.1} date Mon Aug  2 15:41:04 2021
; FORMAT={-:-/ absolute / inch / decimal}
; #@! TF.CreationDate,2021-08-02T15:41:04+00:00
; #@! TF.GenerationSoftware,Kicad,Pcbnew,5.99.0-unknown-e61b1f03b8~131~ubuntu20.04.1
; #@! TF.FileFunction,NonPlated,1,4,NPTH
FMAT,2
INCH
; #@! TA.AperFunction,NonPlated,NPTH,ComponentDrill
T1C0.0157
; #@! TA.AperFunction,NonPlated,NPTH,ComponentDrill
T2C0.0600
%
G90
G05
T1
X-0.512Y1.0433
X-0.512Y1.0039
X-0.512Y0.9646
X-0.512Y0.9252
X-0.512Y0.8858
X-0.512Y0.6102
X-0.512Y0.5709
X-0.512Y0.5315
X-0.512Y0.4921
X-0.512Y0.4528
X0.5118Y1.0433
X0.5118Y1.0039
X0.5118Y0.9646
X0.5118Y0.9252
X0.5118Y0.8858
X0.5118Y0.6102
X0.5118Y0.5709
X0.5118Y0.5315
X0.5118Y0.4921
X0.5118Y0.4528
T2
X-0.6693Y1.063
X-0.6693Y0.0787
X0.6693Y1.063
X0.6693Y0.0787
T0
M30
