%TF.GenerationSoftware,KiCad,Pcbnew,5.99.0-unknown-e61b1f03b8~131~ubuntu20.04.1*%
%TF.CreationDate,2021-08-02T15:41:00+00:00*%
%TF.ProjectId,beetleback_cg,62656574-6c65-4626-9163-6b5f63672e6b,2*%
%TF.SameCoordinates,PX5573000PY89ce520*%
%TF.FileFunction,Copper,L1,Top*%
%TF.FilePolarity,Positive*%
%FSLAX46Y46*%
G04 Gerber Fmt 4.6, Leading zero omitted, Abs format (unit mm)*
G04 Created by KiCad (PCBNEW 5.99.0-unknown-e61b1f03b8~131~ubuntu20.04.1) date 2021-08-02 15:41:00*
%MOMM*%
%LPD*%
G01*
G04 APERTURE LIST*
G04 Aperture macros list*
%AMRoundRect*
0 Rectangle with rounded corners*
0 $1 Rounding radius*
0 $2 $3 $4 $5 $6 $7 $8 $9 X,Y pos of 4 corners*
0 Add a 4 corners polygon primitive as box body*
4,1,4,$2,$3,$4,$5,$6,$7,$8,$9,$2,$3,0*
0 Add four circle primitives for the rounded corners*
1,1,$1+$1,$2,$3*
1,1,$1+$1,$4,$5*
1,1,$1+$1,$6,$7*
1,1,$1+$1,$8,$9*
0 Add four rect primitives between the rounded corners*
20,1,$1+$1,$2,$3,$4,$5,0*
20,1,$1+$1,$4,$5,$6,$7,0*
20,1,$1+$1,$6,$7,$8,$9,0*
20,1,$1+$1,$8,$9,$2,$3,0*%
%AMHorizOval*
0 Thick line with rounded ends*
0 $1 width*
0 $2 $3 position (X,Y) of the first rounded end (center of the circle)*
0 $4 $5 position (X,Y) of the second rounded end (center of the circle)*
0 Add line between two ends*
20,1,$1,$2,$3,$4,$5,0*
0 Add two circle primitives to create the rounded ends*
1,1,$1,$2,$3*
1,1,$1,$4,$5*%
G04 Aperture macros list end*
%TA.AperFunction,SMDPad,CuDef*%
%ADD10RoundRect,0.140000X0.140000X0.170000X-0.140000X0.170000X-0.140000X-0.170000X0.140000X-0.170000X0*%
%TD*%
%TA.AperFunction,SMDPad,CuDef*%
%ADD11RoundRect,0.140000X-0.170000X0.140000X-0.170000X-0.140000X0.170000X-0.140000X0.170000X0.140000X0*%
%TD*%
%TA.AperFunction,ComponentPad*%
%ADD12HorizOval,1.800000X-0.441732X-0.085864X0.441732X0.085864X0*%
%TD*%
%TA.AperFunction,SMDPad,CuDef*%
%ADD13R,0.900000X1.200000*%
%TD*%
%TA.AperFunction,SMDPad,CuDef*%
%ADD14RoundRect,0.135000X-0.185000X0.135000X-0.185000X-0.135000X0.185000X-0.135000X0.185000X0.135000X0*%
%TD*%
%TA.AperFunction,SMDPad,CuDef*%
%ADD15RoundRect,0.250000X-0.325000X-0.650000X0.325000X-0.650000X0.325000X0.650000X-0.325000X0.650000X0*%
%TD*%
%TA.AperFunction,SMDPad,CuDef*%
%ADD16RoundRect,0.150000X0.689429X-0.477297X-0.477297X0.689429X-0.689429X0.477297X0.477297X-0.689429X0*%
%TD*%
%TA.AperFunction,SMDPad,CuDef*%
%ADD17RoundRect,0.150000X0.150000X-0.825000X0.150000X0.825000X-0.150000X0.825000X-0.150000X-0.825000X0*%
%TD*%
%TA.AperFunction,SMDPad,CuDef*%
%ADD18RoundRect,0.218750X-0.218750X-0.256250X0.218750X-0.256250X0.218750X0.256250X-0.218750X0.256250X0*%
%TD*%
%TA.AperFunction,SMDPad,CuDef*%
%ADD19RoundRect,0.150000X-0.477297X-0.689429X0.689429X0.477297X0.477297X0.689429X-0.689429X-0.477297X0*%
%TD*%
%TA.AperFunction,SMDPad,CuDef*%
%ADD20RoundRect,0.135000X-0.135000X-0.185000X0.135000X-0.185000X0.135000X0.185000X-0.135000X0.185000X0*%
%TD*%
%TA.AperFunction,ComponentPad*%
%ADD21RoundRect,0.250000X-1.125000X-1.125000X1.125000X-1.125000X1.125000X1.125000X-1.125000X1.125000X0*%
%TD*%
%TA.AperFunction,ComponentPad*%
%ADD22C,2.750000*%
%TD*%
%TA.AperFunction,SMDPad,CuDef*%
%ADD23RoundRect,0.140000X0.021213X-0.219203X0.219203X-0.021213X-0.021213X0.219203X-0.219203X0.021213X0*%
%TD*%
%TA.AperFunction,SMDPad,CuDef*%
%ADD24RoundRect,0.150000X0.150000X-0.512500X0.150000X0.512500X-0.150000X0.512500X-0.150000X-0.512500X0*%
%TD*%
%TA.AperFunction,SMDPad,CuDef*%
%ADD25RoundRect,0.135000X0.185000X-0.135000X0.185000X0.135000X-0.185000X0.135000X-0.185000X-0.135000X0*%
%TD*%
%TA.AperFunction,ComponentPad*%
%ADD26R,1.700000X1.700000*%
%TD*%
%TA.AperFunction,ComponentPad*%
%ADD27O,1.700000X1.700000*%
%TD*%
%TA.AperFunction,SMDPad,CuDef*%
%ADD28RoundRect,0.150000X-0.150000X0.825000X-0.150000X-0.825000X0.150000X-0.825000X0.150000X0.825000X0*%
%TD*%
%TA.AperFunction,SMDPad,CuDef*%
%ADD29RoundRect,0.140000X0.170000X-0.140000X0.170000X0.140000X-0.170000X0.140000X-0.170000X-0.140000X0*%
%TD*%
%TA.AperFunction,ViaPad*%
%ADD30C,0.400000*%
%TD*%
%TA.AperFunction,ViaPad*%
%ADD31C,0.800000*%
%TD*%
%TA.AperFunction,Conductor*%
%ADD32C,0.150000*%
%TD*%
%TA.AperFunction,Conductor*%
%ADD33C,0.300000*%
%TD*%
%TA.AperFunction,Conductor*%
%ADD34C,0.200000*%
%TD*%
%TA.AperFunction,Conductor*%
%ADD35C,0.800000*%
%TD*%
G04 APERTURE END LIST*
D10*
%TO.P,C1,1*%
%TO.N,+12V*%
X-5020000Y19500000D03*
%TO.P,C1,2*%
%TO.N,GND*%
X-5980000Y19500000D03*
%TD*%
D11*
%TO.P,C2,1*%
%TO.N,Net-(C2-Pad1)*%
X12300000Y18480000D03*
%TO.P,C2,2*%
%TO.N,/MOTOR_PAD_2*%
X12300000Y17520000D03*
%TD*%
D12*
%TO.P,J4,1,Pin_1*%
%TO.N,/MOTOR_PAD_2*%
X7500000Y13000000D03*
%TD*%
D13*
%TO.P,D1,1,K*%
%TO.N,Net-(C2-Pad1)*%
X10650000Y23500000D03*
%TO.P,D1,2,A*%
%TO.N,+12V*%
X7350000Y23500000D03*
%TD*%
D14*
%TO.P,R1,1*%
%TO.N,/PWMIN1*%
X7500000Y26510000D03*
%TO.P,R1,2*%
%TO.N,/PWMIN*%
X7500000Y25490000D03*
%TD*%
D15*
%TO.P,C5,1*%
%TO.N,/VBAT*%
X-11475000Y19250000D03*
%TO.P,C5,2*%
%TO.N,GND*%
X-8525000Y19250000D03*
%TD*%
D14*
%TO.P,R5,1*%
%TO.N,/GH1OUT*%
X11000000Y13510000D03*
%TO.P,R5,2*%
%TO.N,/GH1*%
X11000000Y12490000D03*
%TD*%
D16*
%TO.P,Q2,1,S*%
%TO.N,/MOTOR_PAD_1*%
X-3596949Y1402872D03*
%TO.P,Q2,2,G*%
%TO.N,/GH2*%
X-2698924Y2300898D03*
%TO.P,Q2,3,S*%
%TO.N,GND*%
X-1800898Y3198924D03*
%TO.P,Q2,4,G*%
%TO.N,/GL2*%
X-902872Y4096949D03*
%TO.P,Q2,5,D*%
%TO.N,/MOTOR_PAD_1*%
X-4403051Y7597128D03*
%TO.P,Q2,6,D*%
X-5301076Y6699102D03*
%TO.P,Q2,7,D*%
%TO.N,/VBAT*%
X-6199102Y5801076D03*
%TO.P,Q2,8,D*%
X-7097128Y4903051D03*
%TD*%
D17*
%TO.P,U1,1,~{RESET}/PB5*%
%TO.N,unconnected-(U1-Pad1)*%
X1095000Y16025000D03*
%TO.P,U1,2,PB3*%
%TO.N,/MOTOR_PWM_2*%
X2365000Y16025000D03*
%TO.P,U1,3,PB4*%
%TO.N,Net-(R4-Pad1)*%
X3635000Y16025000D03*
%TO.P,U1,4,GND*%
%TO.N,GND*%
X4905000Y16025000D03*
%TO.P,U1,5,PB0*%
%TO.N,/MOTOR_EN*%
X4905000Y20975000D03*
%TO.P,U1,6,PB1*%
%TO.N,/MOTOR_PWM_1*%
X3635000Y20975000D03*
%TO.P,U1,7,PB2*%
%TO.N,/PWMIN*%
X2365000Y20975000D03*
%TO.P,U1,8,VCC*%
%TO.N,+5V*%
X1095000Y20975000D03*
%TD*%
D10*
%TO.P,C4,1*%
%TO.N,+5V*%
X-1520000Y19500000D03*
%TO.P,C4,2*%
%TO.N,GND*%
X-2480000Y19500000D03*
%TD*%
D18*
%TO.P,D2,1,K*%
%TO.N,GND*%
X9212500Y28000000D03*
%TO.P,D2,2,A*%
%TO.N,Net-(D2-Pad2)*%
X10787500Y28000000D03*
%TD*%
D19*
%TO.P,Q1,1,S*%
%TO.N,/MOTOR_PAD_2*%
X2402872Y6096949D03*
%TO.P,Q1,2,G*%
%TO.N,/GH1*%
X3300898Y5198924D03*
%TO.P,Q1,3,S*%
%TO.N,GND*%
X4198924Y4300898D03*
%TO.P,Q1,4,G*%
%TO.N,/GL1*%
X5096949Y3402872D03*
%TO.P,Q1,5,D*%
%TO.N,/MOTOR_PAD_2*%
X8597128Y6903051D03*
%TO.P,Q1,6,D*%
X7699102Y7801076D03*
%TO.P,Q1,7,D*%
%TO.N,/VBAT*%
X6801076Y8699102D03*
%TO.P,Q1,8,D*%
X5903051Y9597128D03*
%TD*%
D15*
%TO.P,C6,1*%
%TO.N,/VBAT*%
X-11475000Y21500000D03*
%TO.P,C6,2*%
%TO.N,GND*%
X-8525000Y21500000D03*
%TD*%
D20*
%TO.P,R6,1*%
%TO.N,/GL1OUT*%
X2990000Y1500000D03*
%TO.P,R6,2*%
%TO.N,/GL1*%
X4010000Y1500000D03*
%TD*%
D21*
%TO.P,J2,1,Pin_1*%
%TO.N,/VBAT*%
X-10200000Y27000000D03*
D22*
%TO.P,J2,2,Pin_2*%
%TO.N,GND*%
X-4800000Y27000000D03*
%TD*%
D20*
%TO.P,R4,1*%
%TO.N,Net-(R4-Pad1)*%
X9490000Y26500000D03*
%TO.P,R4,2*%
%TO.N,Net-(D2-Pad2)*%
X10510000Y26500000D03*
%TD*%
D23*
%TO.P,C9,1*%
%TO.N,/VBAT*%
X8660589Y10660589D03*
%TO.P,C9,2*%
%TO.N,GND*%
X9339411Y11339411D03*
%TD*%
D11*
%TO.P,C3,1*%
%TO.N,Net-(C3-Pad1)*%
X-6000000Y14460000D03*
%TO.P,C3,2*%
%TO.N,/MOTOR_PAD_1*%
X-6000000Y13500000D03*
%TD*%
D24*
%TO.P,U3,1,GND*%
%TO.N,GND*%
X-2950000Y21362500D03*
%TO.P,U3,2,VIN*%
%TO.N,/VBAT*%
X-2000000Y21362500D03*
%TO.P,U3,3,VOUT*%
%TO.N,+5V*%
X-1050000Y21362500D03*
%TO.P,U3,4*%
%TO.N,N/C*%
X-1050000Y23637500D03*
%TO.P,U3,5*%
X-2950000Y23637500D03*
%TD*%
D25*
%TO.P,R3,1*%
%TO.N,/GL2*%
X-12000000Y8490000D03*
%TO.P,R3,2*%
%TO.N,/GL2OUT*%
X-12000000Y9510000D03*
%TD*%
D26*
%TO.P,J1,1,Pin_1*%
%TO.N,/PWMIN1*%
X5040000Y27000000D03*
D27*
%TO.P,J1,2,Pin_2*%
%TO.N,+5V*%
X2500000Y27000000D03*
%TO.P,J1,3,Pin_3*%
%TO.N,GND*%
X-40000Y27000000D03*
%TD*%
D28*
%TO.P,U2,1,BST*%
%TO.N,Net-(C2-Pad1)*%
X10905000Y20475000D03*
%TO.P,U2,2,PWM*%
%TO.N,/MOTOR_PWM_2*%
X9635000Y20475000D03*
%TO.P,U2,3,EN*%
%TO.N,/MOTOR_EN*%
X8365000Y20475000D03*
%TO.P,U2,4,VCC*%
%TO.N,+12V*%
X7095000Y20475000D03*
%TO.P,U2,5,DRVL*%
%TO.N,/GL1OUT*%
X7095000Y15525000D03*
%TO.P,U2,6,GND*%
%TO.N,GND*%
X8365000Y15525000D03*
%TO.P,U2,7,SW*%
%TO.N,/MOTOR_PAD_2*%
X9635000Y15525000D03*
%TO.P,U2,8,DRVH*%
%TO.N,/GH1OUT*%
X10905000Y15525000D03*
%TD*%
D13*
%TO.P,D3,1,K*%
%TO.N,Net-(C3-Pad1)*%
X-6150000Y16500000D03*
%TO.P,D3,2,A*%
%TO.N,+12V*%
X-2850000Y16500000D03*
%TD*%
D25*
%TO.P,R2,1*%
%TO.N,/GH2*%
X-10700000Y8490000D03*
%TO.P,R2,2*%
%TO.N,/GH2OUT*%
X-10700000Y9510000D03*
%TD*%
D29*
%TO.P,C8,1*%
%TO.N,/VBAT*%
X-9600000Y6520000D03*
%TO.P,C8,2*%
%TO.N,GND*%
X-9600000Y7480000D03*
%TD*%
D28*
%TO.P,U4,1,BST*%
%TO.N,Net-(C3-Pad1)*%
X-8095000Y16475000D03*
%TO.P,U4,2,PWM*%
%TO.N,/MOTOR_PWM_1*%
X-9365000Y16475000D03*
%TO.P,U4,3,EN*%
%TO.N,/MOTOR_EN*%
X-10635000Y16475000D03*
%TO.P,U4,4,VCC*%
%TO.N,+12V*%
X-11905000Y16475000D03*
%TO.P,U4,5,DRVL*%
%TO.N,/GL2OUT*%
X-11905000Y11525000D03*
%TO.P,U4,6,GND*%
%TO.N,GND*%
X-10635000Y11525000D03*
%TO.P,U4,7,SW*%
%TO.N,/MOTOR_PAD_1*%
X-9365000Y11525000D03*
%TO.P,U4,8,DRVH*%
%TO.N,/GH2OUT*%
X-8095000Y11525000D03*
%TD*%
D15*
%TO.P,C7,1*%
%TO.N,/VBAT*%
X-11475000Y23750000D03*
%TO.P,C7,2*%
%TO.N,GND*%
X-8525000Y23750000D03*
%TD*%
D12*
%TO.P,J3,1,Pin_1*%
%TO.N,/MOTOR_PAD_1*%
X-7500000Y8500000D03*
%TD*%
D24*
%TO.P,U5,1,GND*%
%TO.N,GND*%
X-6450000Y21362500D03*
%TO.P,U5,2,VIN*%
%TO.N,/VBAT*%
X-5500000Y21362500D03*
%TO.P,U5,3,VOUT*%
%TO.N,+12V*%
X-4550000Y21362500D03*
%TO.P,U5,4*%
%TO.N,N/C*%
X-4550000Y23637500D03*
%TO.P,U5,5*%
X-6450000Y23637500D03*
%TD*%
D30*
%TO.N,+12V*%
X-400000Y18800000D03*
X6000000Y19300000D03*
%TO.N,Net-(R4-Pad1)*%
X6000000Y17500000D03*
X5900000Y20500000D03*
%TO.N,/GH2*%
X-800000Y800000D03*
X-10900000Y7600000D03*
D31*
%TO.N,GND*%
X-10600000Y13300000D03*
X-9500000Y22600000D03*
X-9600000Y8400000D03*
X-3000000Y20100000D03*
X-2500000Y27000000D03*
X-2900000Y4200000D03*
X-9500000Y20400000D03*
X300000Y2600000D03*
X8400000Y16800000D03*
X-7200000Y19700000D03*
X8200000Y27900000D03*
X2900000Y3000000D03*
X8900000Y11900000D03*
X-7000000Y27000000D03*
X4900000Y17325500D03*
X5700000Y4900480D03*
D30*
%TO.N,/GL2*%
X1000000Y3399500D03*
X-9900000Y5300000D03*
%TO.N,/VBAT*%
X-4000000Y22500000D03*
D31*
X7100000Y10900000D03*
X-7500000Y6800000D03*
X-10300000Y23800000D03*
X4600000Y8400000D03*
X-7200000Y3200000D03*
D30*
X-3500000Y22500000D03*
D31*
X5700000Y7600000D03*
X-10300000Y19200000D03*
X7900000Y10000000D03*
X-5700000Y3100000D03*
X-8300000Y6200000D03*
X-10300000Y21500000D03*
D30*
%TO.N,/MOTOR_PWM_1*%
X-1500000Y15500000D03*
X-7500000Y14500000D03*
%TO.N,/MOTOR_EN*%
X4000000Y18549500D03*
X-4500000Y18000000D03*
%TO.N,/GL1OUT*%
X5500000Y1500000D03*
X11000000Y17500000D03*
%TD*%
D32*
%TO.N,+12V*%
X-11905000Y17595000D02*
X-11500000Y18000000D01*
D33*
X-4500000Y19500000D02*
X-2850000Y17850000D01*
X-4550000Y19970000D02*
X-5020000Y19500000D01*
X-1900000Y18800000D02*
X-400000Y18800000D01*
X-5020000Y19500000D02*
X-4500000Y19500000D01*
X-2850000Y17850000D02*
X-2850000Y16500000D01*
X7095000Y23245000D02*
X7350000Y23500000D01*
X-2850000Y17850000D02*
X-1900000Y18800000D01*
D32*
X-11500000Y18000000D02*
X-7900000Y18000000D01*
D33*
X6000000Y19380000D02*
X7095000Y20475000D01*
D32*
X-7200000Y18700000D02*
X-5820000Y18700000D01*
D33*
X6000000Y19300000D02*
X6000000Y19380000D01*
D32*
X-11905000Y16475000D02*
X-11905000Y17595000D01*
X-5820000Y18700000D02*
X-5020000Y19500000D01*
D33*
X7095000Y20475000D02*
X7095000Y23245000D01*
D32*
X-7900000Y18000000D02*
X-7200000Y18700000D01*
D33*
X-4550000Y21362500D02*
X-4550000Y19970000D01*
D34*
%TO.N,Net-(R4-Pad1)*%
X9490000Y26500000D02*
X9490000Y25990000D01*
X6000000Y15100000D02*
X5300000Y14400000D01*
X7100978Y24800000D02*
X5900000Y23599022D01*
X6000000Y17500000D02*
X6000000Y15100000D01*
X5900000Y23599022D02*
X5900000Y20500000D01*
X3635000Y14865000D02*
X3635000Y16025000D01*
X5300000Y14400000D02*
X4100000Y14400000D01*
X9490000Y25990000D02*
X8300000Y24800000D01*
X4100000Y14400000D02*
X3635000Y14865000D01*
X8300000Y24800000D02*
X7100978Y24800000D01*
%TO.N,/GH1*%
X6800000Y4900000D02*
X9600000Y4900000D01*
X3300898Y5198924D02*
X3701974Y5600000D01*
X9600000Y4900000D02*
X11000000Y6300000D01*
X6100000Y5600000D02*
X6800000Y4900000D01*
X11000000Y6300000D02*
X11000000Y12490000D01*
X3701974Y5600000D02*
X6100000Y5600000D01*
%TO.N,/GL1*%
X4010000Y2315923D02*
X5096949Y3402872D01*
X4010000Y1500000D02*
X4010000Y2315923D01*
%TO.N,/GH2*%
X-1198026Y800000D02*
X-2698924Y2300898D01*
X-10900000Y8290000D02*
X-10700000Y8490000D01*
X-10900000Y7600000D02*
X-10900000Y8290000D01*
X-800000Y800000D02*
X-1198026Y800000D01*
%TO.N,Net-(C2-Pad1)*%
X12300000Y18480000D02*
X12300000Y19080000D01*
X10650000Y23500000D02*
X10650000Y22200000D01*
X12300000Y19080000D02*
X10905000Y20475000D01*
X10650000Y22200000D02*
X10905000Y21945000D01*
X10905000Y21945000D02*
X10905000Y20475000D01*
D35*
%TO.N,GND*%
X-9475000Y22575000D02*
X-9500000Y22600000D01*
X-5275000Y27000000D02*
X-6762500Y25512500D01*
X4198924Y4298924D02*
X2500000Y2600000D01*
X-6450000Y21362500D02*
X-8387500Y21362500D01*
X2500000Y2600000D02*
X-1201974Y2600000D01*
X4798506Y4900480D02*
X5700000Y4900480D01*
X-8525000Y22575000D02*
X-8525000Y21500000D01*
D33*
X9339411Y11460589D02*
X8900000Y11900000D01*
D35*
X-8387500Y21362500D02*
X-8525000Y21500000D01*
D33*
X4905000Y16025000D02*
X4905000Y17320500D01*
X-10635000Y11525000D02*
X-10635000Y13265000D01*
D35*
X-6450000Y19970000D02*
X-6930000Y19970000D01*
D33*
X-9600000Y7480000D02*
X-9600000Y8400000D01*
D35*
X-1201974Y2600000D02*
X-1800898Y3198924D01*
D33*
X4905000Y17320500D02*
X4900000Y17325500D01*
X8365000Y16765000D02*
X8400000Y16800000D01*
D35*
X-6450000Y19970000D02*
X-6450000Y21362500D01*
X-6930000Y19970000D02*
X-7200000Y19700000D01*
D33*
X8365000Y15525000D02*
X8365000Y16765000D01*
D35*
X-8525000Y21500000D02*
X-8525000Y20375000D01*
X-8525000Y23750000D02*
X-8525000Y22575000D01*
X-5980000Y19500000D02*
X-6450000Y19970000D01*
X-8525000Y20375000D02*
X-9475000Y20375000D01*
X-8525000Y22575000D02*
X-9475000Y22575000D01*
X-8525000Y20375000D02*
X-8525000Y19250000D01*
X-9475000Y20375000D02*
X-9500000Y20400000D01*
X-4800000Y27000000D02*
X-5275000Y27000000D01*
X-1898924Y3198924D02*
X-2900000Y4200000D01*
X-7000000Y27000000D02*
X-4800000Y27000000D01*
D33*
X9339411Y11339411D02*
X9339411Y11460589D01*
D35*
X-2950000Y21362500D02*
X-2950000Y19970000D01*
D33*
X-10635000Y13265000D02*
X-10600000Y13300000D01*
D35*
X-1800898Y3198924D02*
X-1898924Y3198924D01*
X4198924Y4300898D02*
X4798506Y4900480D01*
X9212500Y28000000D02*
X8300000Y28000000D01*
X-4800000Y27000000D02*
X-2500000Y27000000D01*
X8300000Y28000000D02*
X8200000Y27900000D01*
X-6762500Y25512500D02*
X-8525000Y23750000D01*
X-2950000Y19970000D02*
X-2480000Y19500000D01*
X4198924Y4300898D02*
X4198924Y4298924D01*
D34*
%TO.N,/GL2*%
X1000000Y3399500D02*
X302551Y4096949D01*
X302551Y4096949D02*
X-902872Y4096949D01*
X-12000000Y7400000D02*
X-9900000Y5300000D01*
X-12000000Y8490000D02*
X-12000000Y7400000D01*
%TO.N,Net-(C3-Pad1)*%
X-6175000Y16475000D02*
X-6150000Y16500000D01*
X-6150000Y16500000D02*
X-6150000Y14610000D01*
X-6150000Y14610000D02*
X-6000000Y14460000D01*
X-8095000Y16475000D02*
X-6175000Y16475000D01*
D35*
%TO.N,/VBAT*%
X7100000Y10900000D02*
X7100000Y10800000D01*
X8000000Y10000000D02*
X8660589Y10660589D01*
D33*
X-5500000Y21362500D02*
X-5500000Y22025000D01*
X-4000000Y22500000D02*
X-3500000Y22500000D01*
D35*
X7100000Y10900000D02*
X7100000Y10794077D01*
X-10350000Y23750000D02*
X-10300000Y23800000D01*
D33*
X-5500000Y22025000D02*
X-5025000Y22500000D01*
D35*
X7900000Y9798026D02*
X6801076Y8699102D01*
X-9280000Y6200000D02*
X-9600000Y6520000D01*
X-7500000Y6800000D02*
X-7198026Y6800000D01*
X-10350000Y19250000D02*
X-10300000Y19200000D01*
X-11475000Y21500000D02*
X-10300000Y21500000D01*
X-11475000Y19250000D02*
X-10350000Y19250000D01*
X-6101076Y5801076D02*
X-5700000Y5400000D01*
X7900000Y10000000D02*
X7900000Y9798026D01*
X-10200000Y26050000D02*
X-11500000Y24750000D01*
X-11475000Y21500000D02*
X-11475000Y19250000D01*
X5903051Y9597128D02*
X6801076Y8699102D01*
X6801076Y8699102D02*
X6799102Y8699102D01*
X-10200000Y27000000D02*
X-10200000Y26050000D01*
X-7097128Y4903051D02*
X-7097128Y3302872D01*
X-11475000Y24725000D02*
X-11475000Y23750000D01*
X-7500000Y6800000D02*
X-7700000Y6800000D01*
X-11475000Y23750000D02*
X-11475000Y21500000D01*
X-7198026Y6800000D02*
X-6199102Y5801076D01*
X-5800000Y3200000D02*
X-5700000Y3100000D01*
D33*
X-3500000Y22500000D02*
X-2475000Y22500000D01*
X-2000000Y22025000D02*
X-2000000Y21362500D01*
D35*
X7100000Y10794077D02*
X5903051Y9597128D01*
X-5700000Y5400000D02*
X-5700000Y3100000D01*
X-7097128Y3302872D02*
X-7200000Y3200000D01*
X7900000Y10000000D02*
X8000000Y10000000D01*
X-7200000Y3200000D02*
X-5800000Y3200000D01*
X7100000Y10800000D02*
X7900000Y10000000D01*
X-6199102Y5801076D02*
X-7097128Y4903051D01*
X4705923Y8400000D02*
X5903051Y9597128D01*
X-11500000Y24750000D02*
X-11475000Y24725000D01*
X-7097128Y4903051D02*
X-7097128Y4997128D01*
X-6199102Y5801076D02*
X-6101076Y5801076D01*
X-11475000Y23750000D02*
X-10350000Y23750000D01*
D33*
X-5025000Y22500000D02*
X-4000000Y22500000D01*
D35*
X-7700000Y6800000D02*
X-8300000Y6200000D01*
X6799102Y8699102D02*
X5700000Y7600000D01*
X-7097128Y4997128D02*
X-8300000Y6200000D01*
X-8300000Y6200000D02*
X-9280000Y6200000D01*
X4600000Y8400000D02*
X4705923Y8400000D01*
D33*
X-2475000Y22500000D02*
X-2000000Y22025000D01*
%TO.N,/PWMIN*%
X4990000Y25490000D02*
X2365000Y22865000D01*
X2365000Y22865000D02*
X2365000Y20975000D01*
X7500000Y25490000D02*
X4990000Y25490000D01*
D32*
%TO.N,/MOTOR_PWM_2*%
X2365000Y17000000D02*
X3365000Y18000000D01*
X2365000Y16025000D02*
X2365000Y17000000D01*
X9635000Y19428572D02*
X9635000Y20475000D01*
X8206428Y18000000D02*
X9635000Y19428572D01*
X3365000Y18000000D02*
X8206428Y18000000D01*
%TO.N,/MOTOR_PWM_1*%
X-9365000Y14865000D02*
X-9365000Y16475000D01*
X-7500000Y14500000D02*
X-9000000Y14500000D01*
X-1000000Y18000000D02*
X-1500000Y17500000D01*
X3635000Y20975000D02*
X3635000Y19135000D01*
X2500000Y18000000D02*
X-1000000Y18000000D01*
X3635000Y19135000D02*
X2500000Y18000000D01*
X-1500000Y17500000D02*
X-1500000Y15500000D01*
X-9000000Y14500000D02*
X-9365000Y14865000D01*
D35*
%TO.N,/MOTOR_PAD_2*%
X9400000Y9500000D02*
X9400000Y7705923D01*
X6698026Y6000000D02*
X6298026Y6400000D01*
D34*
X12300000Y17520000D02*
X11960754Y17520000D01*
D35*
X8597128Y6897128D02*
X7700000Y6000000D01*
D34*
X9635000Y16435000D02*
X9635000Y15525000D01*
D35*
X8085000Y13000000D02*
X7500000Y13000000D01*
X8597128Y6903051D02*
X8597128Y6897128D01*
X7699102Y7801076D02*
X7701076Y7801076D01*
X9635000Y15525000D02*
X9635000Y14550000D01*
X2943822Y6637899D02*
X4862101Y6637899D01*
X9899511Y12314012D02*
X9899511Y12050489D01*
X7500000Y13000000D02*
X9213523Y13000000D01*
D34*
X11960754Y17520000D02*
X11240754Y16800000D01*
D35*
X9213523Y13000000D02*
X9899511Y12314012D01*
X7701076Y7801076D02*
X9400000Y9500000D01*
X5100000Y6400000D02*
X6298026Y6400000D01*
X10298158Y10398158D02*
X9400000Y9500000D01*
X9635000Y14550000D02*
X8085000Y13000000D01*
X2402872Y6096949D02*
X2943822Y6637899D01*
X10298158Y11651842D02*
X10298158Y10398158D01*
X9899511Y12050489D02*
X10298158Y11651842D01*
X7700000Y6000000D02*
X6698026Y6000000D01*
X4862101Y6637899D02*
X5100000Y6400000D01*
X9400000Y7705923D02*
X8597128Y6903051D01*
X6298026Y6400000D02*
X7699102Y7801076D01*
D34*
X11240754Y16800000D02*
X10000000Y16800000D01*
X10000000Y16800000D02*
X9635000Y16435000D01*
D33*
%TO.N,/MOTOR_PAD_1*%
X-9365000Y11525000D02*
X-9365000Y10365000D01*
D35*
X-4300000Y4500000D02*
X-4300000Y5698026D01*
X-4900000Y12500000D02*
X-4900000Y9841732D01*
X-3300000Y6300000D02*
X-3300000Y5500000D01*
X-7101974Y8500000D02*
X-5301076Y6699102D01*
X-3596949Y1402872D02*
X-4300000Y2105923D01*
X-5305923Y8500000D02*
X-4403051Y7597128D01*
X-4300000Y5698026D02*
X-5301076Y6699102D01*
X-6241732Y8500000D02*
X-7500000Y8500000D01*
X-4300000Y2105923D02*
X-4300000Y4500000D01*
X-4403051Y7597128D02*
X-4403051Y7403051D01*
X-4403051Y7403051D02*
X-3300000Y6300000D01*
D33*
X-9365000Y10365000D02*
X-7500000Y8500000D01*
D35*
X-3300000Y5500000D02*
X-4300000Y4500000D01*
X-7500000Y8500000D02*
X-7101974Y8500000D01*
X-4900000Y9841732D02*
X-6241732Y8500000D01*
X-7500000Y8500000D02*
X-5305923Y8500000D01*
X-6000000Y13500000D02*
X-5900000Y13500000D01*
X-5900000Y13500000D02*
X-4900000Y12500000D01*
D33*
%TO.N,+5V*%
X-1050000Y21362500D02*
X707500Y21362500D01*
X1095000Y25595000D02*
X2500000Y27000000D01*
X-1050000Y19970000D02*
X-1520000Y19500000D01*
X-1050000Y21362500D02*
X-1050000Y19970000D01*
X707500Y21362500D02*
X1095000Y20975000D01*
X1095000Y20975000D02*
X1095000Y25595000D01*
D34*
%TO.N,Net-(D2-Pad2)*%
X10787500Y28000000D02*
X10787500Y26777500D01*
X10787500Y26777500D02*
X10510000Y26500000D01*
D32*
%TO.N,/MOTOR_EN*%
X-6800000Y18000000D02*
X-6900000Y17900000D01*
X8000000Y18500000D02*
X8365000Y18865000D01*
X4905000Y20975000D02*
X4905000Y18595000D01*
X4049500Y18500000D02*
X4000000Y18549500D01*
X-10425454Y17674546D02*
X-10635000Y17465000D01*
X-4500000Y18000000D02*
X-6800000Y18000000D01*
X5000000Y18500000D02*
X4049500Y18500000D01*
X5000000Y18500000D02*
X8000000Y18500000D01*
X-6900000Y17900000D02*
X-7400000Y17900000D01*
X8365000Y18865000D02*
X8365000Y20475000D01*
X-10635000Y17465000D02*
X-10635000Y16475000D01*
X4905000Y18595000D02*
X5000000Y18500000D01*
X-7625454Y17674546D02*
X-10425454Y17674546D01*
X-7400000Y17900000D02*
X-7625454Y17674546D01*
D33*
%TO.N,/PWMIN1*%
X5040000Y27000000D02*
X7010000Y27000000D01*
X7010000Y27000000D02*
X7500000Y26510000D01*
D34*
%TO.N,/GH2OUT*%
X-8095000Y12395000D02*
X-8800000Y13100000D01*
X-9400754Y13100000D02*
X-10035454Y12465300D01*
X-8095000Y11525000D02*
X-8095000Y12395000D01*
X-10035454Y12465300D02*
X-10035454Y10174546D01*
X-8800000Y13100000D02*
X-9400754Y13100000D01*
X-10035454Y10174546D02*
X-10700000Y9510000D01*
%TO.N,/GL2OUT*%
X-11905000Y11525000D02*
X-11905000Y9605000D01*
X-11905000Y9605000D02*
X-12000000Y9510000D01*
D33*
%TO.N,/GH1OUT*%
X10905000Y15525000D02*
X10905000Y13605000D01*
X10905000Y13605000D02*
X11000000Y13510000D01*
D34*
%TO.N,/GL1OUT*%
X2990000Y1010000D02*
X2990000Y1500000D01*
X5500000Y1500000D02*
X4930456Y930456D01*
X4930456Y930456D02*
X3069544Y930456D01*
X7095000Y15525000D02*
X7095000Y17095000D01*
X7500000Y17500000D02*
X11000000Y17500000D01*
X3069544Y930456D02*
X2990000Y1010000D01*
X7095000Y17095000D02*
X7500000Y17500000D01*
%TD*%
%TA.AperFunction,Conductor*%
%TO.N,/MOTOR_PAD_2*%
G36*
X5926483Y13979998D02*
G01*
X5972976Y13926342D01*
X5983080Y13856068D01*
X5961132Y13801100D01*
X5843793Y13635684D01*
X5838396Y13626521D01*
X5739588Y13420752D01*
X5735806Y13410796D01*
X5673079Y13191321D01*
X5671031Y13180879D01*
X5646179Y12953961D01*
X5645920Y12943341D01*
X5647510Y12916961D01*
X5652369Y12903475D01*
X5666034Y12902268D01*
X7700868Y13297799D01*
X9235430Y13596088D01*
X9247952Y13602569D01*
X9247425Y13613275D01*
X9194945Y13737815D01*
X9190004Y13747225D01*
X9152356Y13806207D01*
X9132565Y13874390D01*
X9152777Y13942448D01*
X9206576Y13988775D01*
X9258564Y14000000D01*
X9874000Y14000000D01*
X9942121Y13979998D01*
X9988614Y13926342D01*
X10000000Y13874000D01*
X10000000Y11733252D01*
X9979998Y11665131D01*
X9926342Y11618638D01*
X9856068Y11608534D01*
X9791488Y11638028D01*
X9784905Y11644157D01*
X9589652Y11839410D01*
X9555626Y11901722D01*
X9553660Y11913368D01*
X9537275Y12048766D01*
X9536363Y12056306D01*
X9520982Y12097010D01*
X9483394Y12196486D01*
X9483393Y12196489D01*
X9480710Y12203588D01*
X9391531Y12333343D01*
X9287828Y12425740D01*
X9250272Y12485989D01*
X9251252Y12556979D01*
X9258063Y12574355D01*
X9260412Y12579247D01*
X9264194Y12589204D01*
X9326920Y12808677D01*
X9328969Y12819122D01*
X9353822Y13046039D01*
X9354081Y13056659D01*
X9352491Y13083039D01*
X9347632Y13096526D01*
X9333967Y13097733D01*
X7815580Y12802588D01*
X7801477Y12795289D01*
X7800559Y12793692D01*
X7800384Y12785834D01*
X8014537Y11684117D01*
X8021836Y11670013D01*
X8023433Y11669095D01*
X8031291Y11668920D01*
X8169087Y11695705D01*
X8239773Y11689069D01*
X8295649Y11645270D01*
X8311455Y11615320D01*
X8316143Y11602510D01*
X8320380Y11596204D01*
X8320382Y11596201D01*
X8354340Y11545667D01*
X8403958Y11471828D01*
X8409571Y11466720D01*
X8409575Y11466716D01*
X8415836Y11461020D01*
X8452761Y11400381D01*
X8451040Y11329405D01*
X8411220Y11270627D01*
X8395179Y11259369D01*
X8294281Y11199698D01*
X8258724Y11178670D01*
X8039095Y10959041D01*
X7976783Y10925015D01*
X7905968Y10930080D01*
X7860905Y10959041D01*
X7739223Y11080723D01*
X7711168Y11123429D01*
X7707818Y11131889D01*
X7707102Y11133742D01*
X7683396Y11196481D01*
X7683394Y11196485D01*
X7680710Y11203588D01*
X7678097Y11207389D01*
X7677485Y11208503D01*
X7674568Y11215871D01*
X7640811Y11262333D01*
X7632967Y11273130D01*
X7631063Y11275823D01*
X7620515Y11291171D01*
X7591531Y11333343D01*
X7586551Y11337779D01*
X7584038Y11340916D01*
X7582622Y11342424D01*
X7577963Y11348837D01*
X7557380Y11365865D01*
X7530186Y11388362D01*
X7490448Y11447195D01*
X7488827Y11518173D01*
X7501283Y11548272D01*
X7516566Y11574841D01*
X7516741Y11582701D01*
X7302588Y12684420D01*
X7295289Y12698523D01*
X7293692Y12699441D01*
X7285834Y12699616D01*
X5764572Y12403912D01*
X5752050Y12397431D01*
X5752577Y12386725D01*
X5805054Y12262191D01*
X5810000Y12252772D01*
X5932814Y12060361D01*
X5939276Y12051909D01*
X6092763Y11882932D01*
X6100546Y11875700D01*
X6280311Y11734999D01*
X6289206Y11729179D01*
X6490107Y11620779D01*
X6499849Y11616542D01*
X6603126Y11581686D01*
X6661273Y11540950D01*
X6688167Y11475244D01*
X6675267Y11405429D01*
X6654696Y11376063D01*
X6652503Y11373727D01*
X6643475Y11365023D01*
X6631030Y11354166D01*
X6618758Y11343461D01*
X6618756Y11343458D01*
X6613034Y11338467D01*
X6608666Y11332252D01*
X6608664Y11332250D01*
X6599248Y11318853D01*
X6588015Y11305055D01*
X6569552Y11285393D01*
X6565734Y11278448D01*
X6565731Y11278444D01*
X6550693Y11251090D01*
X6543366Y11239341D01*
X6526873Y11215873D01*
X6522501Y11209652D01*
X6519741Y11202572D01*
X6512303Y11183495D01*
X6505329Y11168573D01*
X6490373Y11141368D01*
X6488402Y11133691D01*
X6486173Y11125009D01*
X6453226Y11067249D01*
X5494984Y10109007D01*
X5476712Y10093890D01*
X5469449Y10088954D01*
X5464205Y10083006D01*
X5464204Y10083005D01*
X5431239Y10045613D01*
X5425820Y10039843D01*
X4434311Y9048334D01*
X4385255Y9020862D01*
X4386095Y9018602D01*
X4378969Y9015952D01*
X4371588Y9014180D01*
X4364844Y9010699D01*
X4335698Y8995656D01*
X4324295Y8990472D01*
X4291504Y8977489D01*
X4291497Y8977485D01*
X4284129Y8974568D01*
X4277716Y8969909D01*
X4277711Y8969906D01*
X4265604Y8961110D01*
X4249339Y8951084D01*
X4238431Y8945454D01*
X4238425Y8945450D01*
X4231679Y8941968D01*
X4225957Y8936976D01*
X4225955Y8936975D01*
X4198142Y8912712D01*
X4189377Y8905727D01*
X4151163Y8877963D01*
X4146110Y8871855D01*
X4139166Y8863461D01*
X4124910Y8848827D01*
X4113034Y8838467D01*
X4085066Y8798672D01*
X4079077Y8790826D01*
X4051453Y8757435D01*
X4051451Y8757431D01*
X4046400Y8751326D01*
X4043025Y8744153D01*
X4040124Y8737989D01*
X4029207Y8719193D01*
X4022501Y8709652D01*
X4003323Y8660463D01*
X3999959Y8652633D01*
X3976421Y8602613D01*
X3974425Y8592151D01*
X3968104Y8570179D01*
X3968067Y8570035D01*
X3965309Y8562961D01*
X3964318Y8555434D01*
X3957879Y8506526D01*
X3956727Y8499376D01*
X3945624Y8441170D01*
X3946122Y8433259D01*
X3945834Y8428680D01*
X3945606Y8421995D01*
X3945829Y8421993D01*
X3945750Y8414392D01*
X3944758Y8406862D01*
X3945592Y8399312D01*
X3951465Y8346111D01*
X3951977Y8340196D01*
X3955944Y8277140D01*
X3958393Y8269603D01*
X3958815Y8267390D01*
X3959843Y8263708D01*
X3961202Y8257913D01*
X3962035Y8250367D01*
X3964643Y8243241D01*
X3964644Y8243236D01*
X3984509Y8188953D01*
X3986016Y8184589D01*
X4006732Y8120829D01*
X4010977Y8114141D01*
X4011858Y8112268D01*
X4013851Y8108774D01*
X4016143Y8102510D01*
X4055087Y8044556D01*
X4056860Y8041840D01*
X4094798Y7982060D01*
X4100574Y7976636D01*
X4101390Y7975649D01*
X4103958Y7971828D01*
X4109576Y7966716D01*
X4109577Y7966715D01*
X4159184Y7921577D01*
X4160639Y7920232D01*
X4214607Y7869552D01*
X4219031Y7867120D01*
X4220410Y7865865D01*
X4224218Y7863797D01*
X4224220Y7863796D01*
X4293199Y7826343D01*
X4293778Y7826026D01*
X4351679Y7794194D01*
X4351688Y7794190D01*
X4358632Y7790373D01*
X4387636Y7782926D01*
X4430279Y7771977D01*
X4430917Y7771812D01*
X4471956Y7761046D01*
X4511069Y7750785D01*
X4512932Y7750756D01*
X4517823Y7749500D01*
X4591907Y7749500D01*
X4593886Y7749484D01*
X4597935Y7749420D01*
X4633485Y7748862D01*
X4638096Y7748608D01*
X4644219Y7747240D01*
X4714154Y7749438D01*
X4718111Y7749500D01*
X4746848Y7749500D01*
X4751119Y7750039D01*
X4762947Y7750971D01*
X4808492Y7752403D01*
X4816106Y7754615D01*
X4816111Y7754616D01*
X4828715Y7758278D01*
X4848079Y7762289D01*
X4868981Y7764929D01*
X4876355Y7767849D01*
X4884029Y7769819D01*
X4884420Y7768298D01*
X4946097Y7773955D01*
X5009080Y7741187D01*
X5044348Y7679570D01*
X5046017Y7636359D01*
X5046142Y7636355D01*
X5046086Y7634573D01*
X5046239Y7630614D01*
X5045893Y7628431D01*
X5045893Y7628422D01*
X5044653Y7620595D01*
X5045400Y7612699D01*
X5045360Y7611432D01*
X5044758Y7606862D01*
X5045592Y7599308D01*
X5052951Y7532655D01*
X5053149Y7530723D01*
X5060121Y7456971D01*
X5061830Y7452224D01*
X5062035Y7450367D01*
X5090613Y7372275D01*
X5090762Y7371862D01*
X5113107Y7309794D01*
X5113109Y7309790D01*
X5115794Y7302332D01*
X5120249Y7295776D01*
X5120251Y7295773D01*
X5157332Y7241212D01*
X5157703Y7240663D01*
X5201544Y7175419D01*
X5201548Y7175414D01*
X5203958Y7171828D01*
X5205338Y7170572D01*
X5208175Y7166398D01*
X5263799Y7117359D01*
X5265144Y7116154D01*
X5288954Y7094488D01*
X5307203Y7077883D01*
X5320410Y7065865D01*
X5324456Y7063668D01*
X5325514Y7062949D01*
X5331459Y7057708D01*
X5338519Y7054111D01*
X5338523Y7054108D01*
X5394547Y7025562D01*
X5397465Y7024027D01*
X5452099Y6994363D01*
X5452101Y6994362D01*
X5458776Y6990738D01*
X5465232Y6989044D01*
X5468896Y6987390D01*
X5470833Y6986692D01*
X5477900Y6983092D01*
X5485633Y6981364D01*
X5485637Y6981362D01*
X5519676Y6973754D01*
X5543385Y6968455D01*
X5547828Y6967376D01*
X5611069Y6950785D01*
X5618671Y6950666D01*
X5624546Y6949861D01*
X5628319Y6949182D01*
X5630554Y6948971D01*
X5638296Y6947240D01*
X5646222Y6947489D01*
X5701473Y6949225D01*
X5707408Y6949271D01*
X5760901Y6948431D01*
X5760903Y6948431D01*
X5768495Y6948312D01*
X5775895Y6950007D01*
X5783455Y6950801D01*
X5783478Y6950579D01*
X5790113Y6951435D01*
X5794652Y6952154D01*
X5802569Y6952403D01*
X5810176Y6954613D01*
X5810182Y6954614D01*
X5859459Y6968930D01*
X5866479Y6970753D01*
X5879581Y6973754D01*
X5921968Y6983462D01*
X5928755Y6986876D01*
X5928895Y6986926D01*
X5950168Y6995284D01*
X5960398Y6998256D01*
X5974709Y7006719D01*
X6003975Y7024027D01*
X6007971Y7026390D01*
X6015492Y7030499D01*
X6055836Y7050790D01*
X6055839Y7050792D01*
X6062625Y7054205D01*
X6071491Y7061777D01*
X6089174Y7074413D01*
X6095042Y7077883D01*
X6095047Y7077887D01*
X6101865Y7081919D01*
X6138110Y7118164D01*
X6145363Y7124870D01*
X6182348Y7156458D01*
X6191551Y7169265D01*
X6204772Y7184826D01*
X7194141Y8174195D01*
X7199729Y8179121D01*
X7202941Y8181021D01*
X7209143Y8187223D01*
X7227415Y8202340D01*
X7228124Y8202822D01*
X7234678Y8207276D01*
X7239867Y8213162D01*
X7240609Y8213756D01*
X7242901Y8215841D01*
X7243568Y8216529D01*
X7249913Y8221139D01*
X7278956Y8256246D01*
X7286945Y8265025D01*
X8302698Y9280778D01*
X8311315Y9288619D01*
X8317940Y9292824D01*
X8365850Y9343843D01*
X8368604Y9346684D01*
X8388911Y9366991D01*
X8391340Y9370122D01*
X8391345Y9370128D01*
X8391558Y9370403D01*
X8399255Y9379416D01*
X8430448Y9412633D01*
X8440596Y9431092D01*
X8451450Y9447616D01*
X8459504Y9457999D01*
X8459505Y9458000D01*
X8464362Y9464262D01*
X8482453Y9506067D01*
X8487675Y9516726D01*
X8505809Y9549712D01*
X8505810Y9549716D01*
X8509627Y9556658D01*
X8512463Y9567704D01*
X8513997Y9570393D01*
X8514516Y9571704D01*
X8514703Y9571630D01*
X8545409Y9625463D01*
X9149500Y10229554D01*
X9224951Y10326825D01*
X9290225Y10477663D01*
X9314250Y10629348D01*
X9344661Y10693499D01*
X9404929Y10731026D01*
X9418985Y10734084D01*
X9435156Y10736645D01*
X9473009Y10742640D01*
X9473010Y10742640D01*
X9482800Y10744191D01*
X9593016Y10800349D01*
X9784905Y10992238D01*
X9847217Y11026264D01*
X9918032Y11021199D01*
X9974868Y10978652D01*
X9999679Y10912132D01*
X10000000Y10903143D01*
X10000000Y5847872D01*
X9979998Y5779751D01*
X9963095Y5758777D01*
X9491723Y5287405D01*
X9429411Y5253379D01*
X9402628Y5250500D01*
X6997372Y5250500D01*
X6929251Y5270502D01*
X6908276Y5287405D01*
X6383780Y5811902D01*
X6371712Y5826846D01*
X6368472Y5830407D01*
X6362825Y5839152D01*
X6338914Y5858002D01*
X6334979Y5861499D01*
X6334891Y5861395D01*
X6330932Y5864750D01*
X6327254Y5868428D01*
X6323029Y5871447D01*
X6323021Y5871454D01*
X6312920Y5878672D01*
X6308173Y5882236D01*
X6297718Y5890478D01*
X6271189Y5911392D01*
X6263213Y5914193D01*
X6256331Y5919111D01*
X6211164Y5932619D01*
X6205558Y5934441D01*
X6168577Y5947428D01*
X6168571Y5947429D01*
X6161094Y5950055D01*
X6155956Y5950500D01*
X6153237Y5950500D01*
X6151055Y5950595D01*
X6150520Y5950755D01*
X6150521Y5950782D01*
X6150403Y5950789D01*
X6144536Y5952544D01*
X6094981Y5950597D01*
X6090034Y5950500D01*
X4334630Y5950500D01*
X4266509Y5970502D01*
X4245535Y5987405D01*
X4016537Y6216403D01*
X3903499Y6273999D01*
X3893710Y6275549D01*
X3893708Y6275550D01*
X3787988Y6292294D01*
X3778195Y6293845D01*
X3768402Y6292294D01*
X3662683Y6275550D01*
X3662681Y6275549D01*
X3652892Y6273999D01*
X3539853Y6216403D01*
X2283419Y4959969D01*
X2225823Y4846930D01*
X2224273Y4837141D01*
X2224272Y4837139D01*
X2207609Y4731933D01*
X2205977Y4721627D01*
X2215604Y4660848D01*
X2218001Y4645711D01*
X2208901Y4575300D01*
X2163180Y4520986D01*
X2093552Y4500000D01*
X1126000Y4500000D01*
X1057879Y4520002D01*
X1011386Y4573658D01*
X1000000Y4626000D01*
X1000000Y6973754D01*
X1020002Y7041875D01*
X1073658Y7088368D01*
X1090354Y7094469D01*
X1090439Y7094488D01*
X1276729Y7156458D01*
X1463422Y7218562D01*
X1463428Y7218564D01*
X1466346Y7219535D01*
X1514315Y7240892D01*
X1825456Y7379421D01*
X1825462Y7379424D01*
X1828256Y7380668D01*
X1830925Y7382184D01*
X2170042Y7574829D01*
X2170050Y7574834D01*
X2172715Y7576348D01*
X2215972Y7606862D01*
X2440046Y7764929D01*
X2496436Y7804708D01*
X2521501Y7826343D01*
X2793989Y8061549D01*
X2796327Y8063567D01*
X2798448Y8065794D01*
X2798454Y8065800D01*
X3039043Y8318444D01*
X3069527Y8350455D01*
X3107699Y8399312D01*
X3311518Y8660189D01*
X3311520Y8660192D01*
X3313428Y8662634D01*
X3315084Y8665244D01*
X3315090Y8665252D01*
X3524047Y8994516D01*
X3524051Y8994523D01*
X3525701Y8997123D01*
X3537693Y9020862D01*
X3640810Y9225000D01*
X3704321Y9350730D01*
X3705428Y9353584D01*
X3705432Y9353593D01*
X3846467Y9717204D01*
X3846470Y9717213D01*
X3847582Y9720080D01*
X3950574Y10088954D01*
X3953290Y10098681D01*
X3953291Y10098683D01*
X3954118Y10101647D01*
X4022910Y10491788D01*
X4053303Y10886781D01*
X4054884Y11000000D01*
X4053848Y11021199D01*
X4038774Y11329405D01*
X4035532Y11395687D01*
X4034127Y11405202D01*
X3978109Y11784552D01*
X3978108Y11784556D01*
X3977659Y11787598D01*
X3881820Y12171990D01*
X3873098Y12196486D01*
X3785685Y12441968D01*
X3748927Y12545196D01*
X3580250Y12903653D01*
X3550261Y12953961D01*
X3414990Y13180879D01*
X3377399Y13243939D01*
X3142310Y13562806D01*
X3140259Y13565084D01*
X3140254Y13565090D01*
X2938023Y13789689D01*
X2907306Y13853697D01*
X2916070Y13924151D01*
X2961532Y13978682D01*
X3031659Y14000000D01*
X5858362Y14000000D01*
X5926483Y13979998D01*
G37*
%TD.AperFunction*%
%TD*%
%TA.AperFunction,Conductor*%
%TO.N,/MOTOR_PAD_1*%
G36*
X-3779905Y9479998D02*
G01*
X-3733281Y9426053D01*
X-3606480Y9146521D01*
X-3408400Y8803436D01*
X-3177786Y8481318D01*
X-2916839Y8183241D01*
X-2914591Y8181130D01*
X-2630306Y7914168D01*
X-2630299Y7914162D01*
X-2628051Y7912051D01*
X-2625601Y7910164D01*
X-2625596Y7910160D01*
X-2324299Y7678130D01*
X-2314177Y7670335D01*
X-1978214Y7460402D01*
X-1623369Y7284255D01*
X-1253028Y7143576D01*
X-1092963Y7100087D01*
X-1032471Y7062925D01*
X-1001672Y6998957D01*
X-1000000Y6978496D01*
X-1000000Y5247777D01*
X-1020002Y5179656D01*
X-1073658Y5133163D01*
X-1143932Y5123059D01*
X-1183203Y5135510D01*
X-1254866Y5172024D01*
X-1264655Y5173574D01*
X-1264657Y5173575D01*
X-1370376Y5190319D01*
X-1380169Y5191870D01*
X-1389962Y5190319D01*
X-1495682Y5173575D01*
X-1495684Y5173574D01*
X-1505473Y5172024D01*
X-1618511Y5114428D01*
X-1920351Y4812588D01*
X-1977947Y4699550D01*
X-1979497Y4689761D01*
X-1979498Y4689759D01*
X-1987632Y4638400D01*
X-1997793Y4574246D01*
X-1996242Y4564453D01*
X-1991365Y4533661D01*
X-2000465Y4463250D01*
X-2046187Y4408936D01*
X-2114015Y4387963D01*
X-2182414Y4406990D01*
X-2204909Y4424855D01*
X-2389450Y4609396D01*
X-2404048Y4626947D01*
X-2404162Y4627076D01*
X-2408469Y4633343D01*
X-2450963Y4671204D01*
X-2456238Y4676184D01*
X-2468965Y4688911D01*
X-2480058Y4697516D01*
X-2486631Y4702983D01*
X-2506641Y4720811D01*
X-2526024Y4738081D01*
X-2532739Y4741637D01*
X-2532741Y4741638D01*
X-2536324Y4743535D01*
X-2554587Y4755326D01*
X-2566236Y4764362D01*
X-2573505Y4767508D01*
X-2573509Y4767510D01*
X-2613266Y4784714D01*
X-2622185Y4788997D01*
X-2658452Y4808199D01*
X-2658455Y4808200D01*
X-2665169Y4811755D01*
X-2680469Y4815598D01*
X-2699810Y4822164D01*
X-2709797Y4826486D01*
X-2717074Y4829635D01*
X-2763721Y4837023D01*
X-2774697Y4839266D01*
X-2817872Y4850111D01*
X-2825470Y4850151D01*
X-2825472Y4850151D01*
X-2837738Y4850215D01*
X-2856780Y4851763D01*
X-2879405Y4855347D01*
X-2887297Y4854601D01*
X-2887300Y4854601D01*
X-2922419Y4851281D01*
X-2934935Y4850724D01*
X-2947832Y4850791D01*
X-2975316Y4850935D01*
X-2982700Y4849162D01*
X-2982703Y4849162D01*
X-2998624Y4845340D01*
X-3016175Y4842419D01*
X-3035132Y4840626D01*
X-3035135Y4840625D01*
X-3043029Y4839879D01*
X-3079870Y4826615D01*
X-3093127Y4822651D01*
X-3128412Y4814180D01*
X-3135159Y4810698D01*
X-3135161Y4810697D01*
X-3153360Y4801304D01*
X-3168468Y4794719D01*
X-3190211Y4786891D01*
X-3190213Y4786890D01*
X-3197668Y4784206D01*
X-3226704Y4764473D01*
X-3239723Y4756728D01*
X-3268321Y4741968D01*
X-3274044Y4736975D01*
X-3274049Y4736972D01*
X-3292575Y4720811D01*
X-3304581Y4711548D01*
X-3333602Y4691825D01*
X-3338839Y4685885D01*
X-3338848Y4685877D01*
X-3354132Y4668541D01*
X-3365811Y4656923D01*
X-3381240Y4643463D01*
X-3381243Y4643460D01*
X-3386966Y4638467D01*
X-3391333Y4632253D01*
X-3391336Y4632250D01*
X-3407828Y4608784D01*
X-3416402Y4597908D01*
X-3437047Y4574491D01*
X-3437049Y4574488D01*
X-3442292Y4568541D01*
X-3454538Y4544507D01*
X-3463714Y4529266D01*
X-3477499Y4509652D01*
X-3480258Y4502577D01*
X-3480259Y4502574D01*
X-3492169Y4472026D01*
X-3497295Y4460594D01*
X-3504219Y4447004D01*
X-3516908Y4422100D01*
X-3518637Y4414363D01*
X-3518638Y4414361D01*
X-3521903Y4399752D01*
X-3527474Y4381471D01*
X-3534691Y4362961D01*
X-3535682Y4355433D01*
X-3540499Y4318846D01*
X-3542454Y4307813D01*
X-3552760Y4261704D01*
X-3552511Y4253780D01*
X-3552169Y4242890D01*
X-3553185Y4222489D01*
X-3554251Y4214395D01*
X-3554251Y4214389D01*
X-3555242Y4206862D01*
X-3554408Y4199310D01*
X-3549907Y4158530D01*
X-3549208Y4148666D01*
X-3547597Y4097431D01*
X-3543486Y4083281D01*
X-3539245Y4061961D01*
X-3537965Y4050367D01*
X-3535356Y4043236D01*
X-3535355Y4043234D01*
X-3519832Y4000816D01*
X-3517161Y3992669D01*
X-3501744Y3939602D01*
X-3497711Y3932783D01*
X-3496327Y3930443D01*
X-3486553Y3909811D01*
X-3486466Y3909641D01*
X-3483857Y3902510D01*
X-3479620Y3896205D01*
X-3452115Y3855272D01*
X-3448248Y3849144D01*
X-3418081Y3798135D01*
X-3412468Y3792522D01*
X-3409628Y3788861D01*
X-3405411Y3783736D01*
X-3405242Y3783882D01*
X-3400276Y3778129D01*
X-3396042Y3771828D01*
X-3368151Y3746449D01*
X-3350833Y3730691D01*
X-3346538Y3726592D01*
X-3212564Y3592618D01*
X-3178538Y3530306D01*
X-3183603Y3459491D01*
X-3226150Y3402655D01*
X-3281946Y3379075D01*
X-3291729Y3377525D01*
X-3291732Y3377524D01*
X-3301525Y3375973D01*
X-3414563Y3318377D01*
X-3716403Y3016537D01*
X-3773999Y2903499D01*
X-3775549Y2893710D01*
X-3775550Y2893708D01*
X-3779306Y2869993D01*
X-3793845Y2778195D01*
X-3792294Y2768402D01*
X-3775651Y2663325D01*
X-3773999Y2652892D01*
X-3716403Y2539853D01*
X-2459969Y1283419D01*
X-2346930Y1225823D01*
X-2337141Y1224273D01*
X-2337139Y1224272D01*
X-2231420Y1207528D01*
X-2221627Y1205977D01*
X-2179767Y1212607D01*
X-2109356Y1203507D01*
X-2070961Y1177253D01*
X-1481809Y588101D01*
X-1469731Y573147D01*
X-1466499Y569595D01*
X-1460851Y560848D01*
X-1452674Y554402D01*
X-1436940Y541998D01*
X-1433005Y538501D01*
X-1432917Y538605D01*
X-1428958Y535250D01*
X-1425280Y531572D01*
X-1421055Y528553D01*
X-1421047Y528546D01*
X-1410946Y521328D01*
X-1406199Y517764D01*
X-1369215Y488608D01*
X-1362413Y486219D01*
X-1357424Y483081D01*
X-1354358Y480890D01*
X-1355920Y478704D01*
X-1314961Y441220D01*
X-1296814Y372582D01*
X-1318657Y305029D01*
X-1373554Y260009D01*
X-1422768Y250000D01*
X-1962966Y250000D01*
X-1987547Y252421D01*
X-1987829Y252477D01*
X-2000000Y254898D01*
X-2012171Y252477D01*
X-2018592Y252477D01*
X-2035738Y251040D01*
X-2281940Y258203D01*
X-2621398Y268081D01*
X-2628697Y268506D01*
X-3046158Y305029D01*
X-3244351Y322369D01*
X-3251630Y323220D01*
X-3439396Y350724D01*
X-3863105Y412788D01*
X-3870303Y414057D01*
X-4193972Y480889D01*
X-4475525Y539025D01*
X-4482657Y540715D01*
X-5079589Y700663D01*
X-5086611Y702765D01*
X-5673242Y897153D01*
X-5680129Y899660D01*
X-6254450Y1127823D01*
X-6261180Y1130726D01*
X-6287441Y1142972D01*
X-6575140Y1277128D01*
X-6821275Y1391903D01*
X-6827825Y1395193D01*
X-7201699Y1596784D01*
X-7371776Y1688489D01*
X-7378106Y1692143D01*
X-7762918Y1929498D01*
X-7904104Y2016583D01*
X-7910227Y2020611D01*
X-8416454Y2375074D01*
X-8422325Y2379444D01*
X-8907089Y2762747D01*
X-8912700Y2767454D01*
X-8913514Y2768179D01*
X-8957765Y2807559D01*
X-8995355Y2867788D01*
X-9000000Y2901684D01*
X-9000000Y5423500D01*
X-8979998Y5491621D01*
X-8926342Y5538114D01*
X-8874000Y5549500D01*
X-8621636Y5549500D01*
X-8553515Y5529498D01*
X-8532541Y5512595D01*
X-7784533Y4764587D01*
X-7750507Y4702275D01*
X-7747628Y4675492D01*
X-7747628Y3594577D01*
X-7764210Y3533960D01*
X-7764362Y3533764D01*
X-7767511Y3526487D01*
X-7768657Y3524549D01*
X-7770316Y3521117D01*
X-7773131Y3515867D01*
X-7777499Y3509652D01*
X-7796677Y3460463D01*
X-7800041Y3452633D01*
X-7823579Y3402613D01*
X-7825049Y3394906D01*
X-7825385Y3394016D01*
X-7826299Y3391048D01*
X-7826521Y3390121D01*
X-7829635Y3382926D01*
X-7830875Y3375098D01*
X-7831451Y3373116D01*
X-7832266Y3369182D01*
X-7834691Y3362961D01*
X-7835682Y3355431D01*
X-7842121Y3306526D01*
X-7843273Y3299376D01*
X-7854376Y3241170D01*
X-7853884Y3233341D01*
X-7853990Y3232377D01*
X-7854134Y3229307D01*
X-7854119Y3228348D01*
X-7855347Y3220595D01*
X-7854600Y3212699D01*
X-7854640Y3211432D01*
X-7855242Y3206862D01*
X-7854408Y3199308D01*
X-7848535Y3146111D01*
X-7848023Y3140196D01*
X-7844056Y3077140D01*
X-7841631Y3069677D01*
X-7841497Y3068732D01*
X-7840870Y3065705D01*
X-7840617Y3064781D01*
X-7839879Y3056971D01*
X-7838170Y3052224D01*
X-7837965Y3050367D01*
X-7836475Y3046295D01*
X-7836474Y3046291D01*
X-7815491Y2988953D01*
X-7813984Y2984589D01*
X-7793268Y2920829D01*
X-7789066Y2914207D01*
X-7788699Y2913323D01*
X-7787339Y2910546D01*
X-7786862Y2909709D01*
X-7784206Y2902332D01*
X-7779752Y2895779D01*
X-7779752Y2895778D01*
X-7744868Y2844449D01*
X-7742723Y2841184D01*
X-7705202Y2782060D01*
X-7699485Y2776691D01*
X-7698907Y2775922D01*
X-7698373Y2775297D01*
X-7696042Y2771828D01*
X-7694662Y2770572D01*
X-7691825Y2766398D01*
X-7685883Y2761160D01*
X-7685881Y2761157D01*
X-7639325Y2720112D01*
X-7636410Y2717460D01*
X-7585393Y2669552D01*
X-7580969Y2667120D01*
X-7579590Y2665865D01*
X-7575917Y2663870D01*
X-7575238Y2663393D01*
X-7574426Y2662895D01*
X-7568541Y2657708D01*
X-7506148Y2625917D01*
X-7502702Y2624091D01*
X-7448320Y2594194D01*
X-7448314Y2594192D01*
X-7441368Y2590373D01*
X-7433768Y2588421D01*
X-7432889Y2588024D01*
X-7430015Y2586938D01*
X-7429094Y2586655D01*
X-7422100Y2583092D01*
X-7414365Y2581363D01*
X-7414362Y2581362D01*
X-7375999Y2572787D01*
X-7356615Y2568455D01*
X-7352172Y2567376D01*
X-7288931Y2550785D01*
X-7287068Y2550756D01*
X-7282177Y2549500D01*
X-7274330Y2549500D01*
X-7273390Y2549336D01*
X-7270314Y2548996D01*
X-7269359Y2548951D01*
X-7261704Y2547240D01*
X-7238008Y2547985D01*
X-7198527Y2549225D01*
X-7192592Y2549271D01*
X-7139102Y2548431D01*
X-7139100Y2548431D01*
X-7131505Y2548312D01*
X-7127501Y2549229D01*
X-7122330Y2549500D01*
X-6089722Y2549500D01*
X-6034325Y2534344D01*
X-6033765Y2535638D01*
X-5990407Y2516875D01*
X-5980338Y2511975D01*
X-5941224Y2490738D01*
X-5933883Y2488812D01*
X-5933741Y2488756D01*
X-5912251Y2480956D01*
X-5910841Y2480293D01*
X-5902613Y2476421D01*
X-5894903Y2474950D01*
X-5894007Y2474611D01*
X-5891075Y2473709D01*
X-5890130Y2473482D01*
X-5882927Y2470365D01*
X-5840264Y2463608D01*
X-5828002Y2461035D01*
X-5796285Y2452714D01*
X-5796282Y2452714D01*
X-5788931Y2450785D01*
X-5779275Y2450634D01*
X-5777282Y2450602D01*
X-5755651Y2448386D01*
X-5748965Y2447111D01*
X-5748964Y2447111D01*
X-5741170Y2445624D01*
X-5733336Y2446117D01*
X-5732379Y2446011D01*
X-5729299Y2445866D01*
X-5728343Y2445881D01*
X-5720595Y2444654D01*
X-5712703Y2445400D01*
X-5712701Y2445400D01*
X-5689391Y2447604D01*
X-5681613Y2448339D01*
X-5667777Y2448882D01*
X-5664398Y2448829D01*
X-5639103Y2448431D01*
X-5639100Y2448431D01*
X-5631505Y2448312D01*
X-5616140Y2451831D01*
X-5595930Y2454762D01*
X-5577140Y2455944D01*
X-5569677Y2458369D01*
X-5568732Y2458503D01*
X-5565705Y2459130D01*
X-5564781Y2459383D01*
X-5556971Y2460121D01*
X-5523952Y2472008D01*
X-5509405Y2476276D01*
X-5504081Y2477496D01*
X-5485435Y2481766D01*
X-5485432Y2481767D01*
X-5478032Y2483462D01*
X-5460281Y2492390D01*
X-5442607Y2499656D01*
X-5428366Y2504283D01*
X-5428365Y2504283D01*
X-5420829Y2506732D01*
X-5414206Y2510935D01*
X-5413323Y2511301D01*
X-5410546Y2512661D01*
X-5409710Y2513138D01*
X-5402332Y2515794D01*
X-5395778Y2520248D01*
X-5395774Y2520250D01*
X-5376658Y2533241D01*
X-5362465Y2541586D01*
X-5337375Y2554205D01*
X-5331599Y2559138D01*
X-5331593Y2559142D01*
X-5319146Y2569773D01*
X-5304830Y2580347D01*
X-5288754Y2590549D01*
X-5288750Y2590552D01*
X-5282060Y2594798D01*
X-5276689Y2600517D01*
X-5275927Y2601089D01*
X-5273574Y2603099D01*
X-5272887Y2603765D01*
X-5266398Y2608175D01*
X-5248556Y2628412D01*
X-5235888Y2640883D01*
X-5217652Y2656458D01*
X-5201269Y2679258D01*
X-5190798Y2691983D01*
X-5179767Y2703729D01*
X-5169552Y2714607D01*
X-5165769Y2721487D01*
X-5165173Y2722232D01*
X-5163392Y2724766D01*
X-5162895Y2725577D01*
X-5157709Y2731459D01*
X-5147313Y2751861D01*
X-5137372Y2768179D01*
X-5133496Y2773573D01*
X-5125776Y2784317D01*
X-5113771Y2814180D01*
X-5107284Y2827871D01*
X-5094192Y2851684D01*
X-5094190Y2851688D01*
X-5090373Y2858632D01*
X-5088421Y2866234D01*
X-5088026Y2867109D01*
X-5086936Y2869993D01*
X-5086654Y2870910D01*
X-5083093Y2877900D01*
X-5078987Y2896267D01*
X-5072932Y2915767D01*
X-5069884Y2923350D01*
X-5069882Y2923356D01*
X-5067050Y2930402D01*
X-5061938Y2966319D01*
X-5059237Y2979897D01*
X-5051472Y3010143D01*
X-5049500Y3017823D01*
X-5049500Y3025670D01*
X-5049335Y3026616D01*
X-5048996Y3029684D01*
X-5048951Y3030642D01*
X-5047240Y3038297D01*
X-5047703Y3053027D01*
X-5046508Y3074740D01*
X-5045447Y3082195D01*
X-5044866Y3086277D01*
X-5044722Y3100000D01*
X-5048587Y3131940D01*
X-5049500Y3147075D01*
X-5049500Y5319001D01*
X-5048951Y5330641D01*
X-5047240Y5338297D01*
X-5049438Y5408232D01*
X-5049500Y5412189D01*
X-5049500Y5440925D01*
X-5050039Y5445193D01*
X-5050972Y5457036D01*
X-5052154Y5494644D01*
X-5052403Y5502569D01*
X-5054615Y5510183D01*
X-5054616Y5510188D01*
X-5058278Y5522792D01*
X-5062289Y5542157D01*
X-5062604Y5544654D01*
X-5064929Y5563058D01*
X-5067847Y5570427D01*
X-5067848Y5570432D01*
X-5081703Y5605427D01*
X-5085548Y5616657D01*
X-5096045Y5652789D01*
X-5096046Y5652790D01*
X-5098256Y5660399D01*
X-5108981Y5678534D01*
X-5117680Y5696291D01*
X-5122514Y5708502D01*
X-5122515Y5708504D01*
X-5125432Y5715871D01*
X-5152212Y5752731D01*
X-5158728Y5762651D01*
X-5181919Y5801865D01*
X-5196812Y5816758D01*
X-5209653Y5831792D01*
X-5217377Y5842423D01*
X-5222037Y5848837D01*
X-5257144Y5877880D01*
X-5265923Y5885869D01*
X-5583828Y6203774D01*
X-5591669Y6212391D01*
X-5595874Y6219016D01*
X-5646893Y6266926D01*
X-5649734Y6269680D01*
X-5670041Y6289987D01*
X-5673172Y6292416D01*
X-5673178Y6292421D01*
X-5673453Y6292634D01*
X-5682466Y6300331D01*
X-5715683Y6331524D01*
X-5725005Y6336649D01*
X-5734142Y6341672D01*
X-5750666Y6352526D01*
X-5761049Y6360580D01*
X-5761050Y6360581D01*
X-5767312Y6365438D01*
X-5809124Y6383531D01*
X-5819769Y6388746D01*
X-5859708Y6410703D01*
X-5867386Y6412674D01*
X-5874760Y6415594D01*
X-5874147Y6417141D01*
X-5923202Y6445122D01*
X-6556841Y7078761D01*
X-6590867Y7141073D01*
X-6585802Y7211888D01*
X-6543255Y7268724D01*
X-6522090Y7281534D01*
X-6348012Y7364751D01*
X-6338837Y7370135D01*
X-6152423Y7501878D01*
X-6144284Y7508732D01*
X-5982735Y7670000D01*
X-5975865Y7678130D01*
X-5843793Y7864316D01*
X-5838396Y7873479D01*
X-5739588Y8079248D01*
X-5735806Y8089204D01*
X-5673080Y8308677D01*
X-5671031Y8319122D01*
X-5646178Y8546039D01*
X-5645919Y8556659D01*
X-5647509Y8583039D01*
X-5652368Y8596526D01*
X-5666033Y8597733D01*
X-7577183Y8226243D01*
X-7647869Y8232879D01*
X-7703745Y8276678D01*
X-7724910Y8325886D01*
X-7773757Y8577183D01*
X-7767120Y8647869D01*
X-7723322Y8703746D01*
X-7674114Y8724910D01*
X-5764570Y9096088D01*
X-5752048Y9102569D01*
X-5752575Y9113275D01*
X-5805055Y9237815D01*
X-5809996Y9247225D01*
X-5847644Y9306207D01*
X-5867435Y9374390D01*
X-5847223Y9442448D01*
X-5793424Y9488775D01*
X-5741436Y9500000D01*
X-3848026Y9500000D01*
X-3779905Y9479998D01*
G37*
%TD.AperFunction*%
%TD*%
%TA.AperFunction,NonConductor*%
G36*
X18542121Y28579998D02*
G01*
X18588614Y28526342D01*
X18600000Y28474000D01*
X18600000Y526000D01*
X18579998Y457879D01*
X18526342Y411386D01*
X18474000Y400000D01*
X15526000Y400000D01*
X15457879Y420002D01*
X15411386Y473658D01*
X15400000Y526000D01*
X15400000Y1908401D01*
X15836119Y1908401D01*
X15872301Y1697834D01*
X15946250Y1497387D01*
X16055489Y1313772D01*
X16059295Y1309432D01*
X16059298Y1309428D01*
X16192553Y1157481D01*
X16196360Y1153140D01*
X16364145Y1020869D01*
X16369256Y1018180D01*
X16369259Y1018178D01*
X16388576Y1008015D01*
X16553225Y921389D01*
X16558746Y919675D01*
X16558750Y919673D01*
X16751752Y859744D01*
X16751757Y859743D01*
X16757267Y858032D01*
X16787718Y854428D01*
X16927055Y837936D01*
X16927061Y837936D01*
X16930742Y837500D01*
X17054196Y837500D01*
X17164140Y847603D01*
X17207001Y851541D01*
X17207003Y851541D01*
X17212756Y852070D01*
X17342771Y888738D01*
X17412828Y908496D01*
X17412830Y908497D01*
X17418387Y910064D01*
X17423563Y912616D01*
X17423567Y912618D01*
X17604826Y1002005D01*
X17610007Y1004560D01*
X17781197Y1132393D01*
X17797070Y1149564D01*
X17922305Y1285043D01*
X17922307Y1285046D01*
X17926224Y1289283D01*
X18040232Y1469975D01*
X18119403Y1668418D01*
X18120528Y1674075D01*
X18120530Y1674081D01*
X18159957Y1872297D01*
X18159957Y1872301D01*
X18161084Y1877965D01*
X18161483Y1908401D01*
X18163805Y2085817D01*
X18163881Y2091599D01*
X18127699Y2302166D01*
X18053750Y2502613D01*
X17944511Y2686228D01*
X17940705Y2690568D01*
X17940702Y2690572D01*
X17807447Y2842519D01*
X17803640Y2846860D01*
X17635855Y2979131D01*
X17630744Y2981820D01*
X17630741Y2981822D01*
X17527443Y3036170D01*
X17446775Y3078611D01*
X17441254Y3080325D01*
X17441250Y3080327D01*
X17248248Y3140256D01*
X17248243Y3140257D01*
X17242733Y3141968D01*
X17192360Y3147930D01*
X17072945Y3162064D01*
X17072939Y3162064D01*
X17069258Y3162500D01*
X16945804Y3162500D01*
X16835860Y3152397D01*
X16792999Y3148459D01*
X16792997Y3148459D01*
X16787244Y3147930D01*
X16657229Y3111262D01*
X16587172Y3091504D01*
X16587170Y3091503D01*
X16581613Y3089936D01*
X16576437Y3087384D01*
X16576433Y3087382D01*
X16395174Y2997995D01*
X16389993Y2995440D01*
X16218803Y2867607D01*
X16214889Y2863373D01*
X16214887Y2863371D01*
X16199625Y2846860D01*
X16073776Y2710717D01*
X15959768Y2530025D01*
X15880597Y2331582D01*
X15879472Y2325925D01*
X15879470Y2325919D01*
X15840043Y2127703D01*
X15838916Y2122035D01*
X15838840Y2116260D01*
X15838840Y2116256D01*
X15838442Y2085817D01*
X15836119Y1908401D01*
X15400000Y1908401D01*
X15400000Y10958602D01*
X15401551Y10978313D01*
X15403435Y10990208D01*
X15404986Y11000000D01*
X15403680Y11008246D01*
X15403435Y11011359D01*
X15403435Y11011969D01*
X15403292Y11013177D01*
X15387427Y11214751D01*
X15387039Y11219685D01*
X15335596Y11433962D01*
X15333702Y11438535D01*
X15253161Y11632978D01*
X15253159Y11632982D01*
X15251266Y11637552D01*
X15136126Y11825444D01*
X14993011Y11993011D01*
X14825444Y12136126D01*
X14637552Y12251266D01*
X14577781Y12276024D01*
X14522501Y12320573D01*
X14500000Y12392433D01*
X14500000Y14607567D01*
X14520002Y14675688D01*
X14577781Y14723976D01*
X14632982Y14746841D01*
X14637552Y14748734D01*
X14825444Y14863874D01*
X14993011Y15006989D01*
X15136126Y15174556D01*
X15251266Y15362448D01*
X15310815Y15506210D01*
X15333702Y15561465D01*
X15333703Y15561467D01*
X15335596Y15566038D01*
X15387039Y15780315D01*
X15399922Y15944003D01*
X15403292Y15986823D01*
X15403435Y15988031D01*
X15403435Y15988641D01*
X15403680Y15991754D01*
X15404986Y16000000D01*
X15401551Y16021689D01*
X15400000Y16041398D01*
X15400000Y21958602D01*
X15401551Y21978313D01*
X15403435Y21990208D01*
X15404986Y22000000D01*
X15403680Y22008246D01*
X15403435Y22011359D01*
X15403435Y22011969D01*
X15403292Y22013177D01*
X15387427Y22214751D01*
X15387039Y22219685D01*
X15335596Y22433962D01*
X15333702Y22438535D01*
X15253161Y22632978D01*
X15253159Y22632982D01*
X15251266Y22637552D01*
X15136126Y22825444D01*
X14993011Y22993011D01*
X14825444Y23136126D01*
X14637552Y23251266D01*
X14577781Y23276024D01*
X14522501Y23320573D01*
X14500000Y23392433D01*
X14500000Y25607567D01*
X14520002Y25675688D01*
X14577781Y25723976D01*
X14632982Y25746841D01*
X14637552Y25748734D01*
X14825444Y25863874D01*
X14993011Y26006989D01*
X15136126Y26174556D01*
X15251266Y26362448D01*
X15295806Y26469975D01*
X15333702Y26561465D01*
X15333703Y26561467D01*
X15335596Y26566038D01*
X15387039Y26780315D01*
X15397120Y26908401D01*
X15836119Y26908401D01*
X15837098Y26902704D01*
X15837098Y26902703D01*
X15857280Y26785249D01*
X15872301Y26697834D01*
X15946250Y26497387D01*
X15949202Y26492426D01*
X15949202Y26492425D01*
X16029041Y26358228D01*
X16055489Y26313772D01*
X16059295Y26309432D01*
X16059298Y26309428D01*
X16173880Y26178773D01*
X16196360Y26153140D01*
X16364145Y26020869D01*
X16369256Y26018180D01*
X16369259Y26018178D01*
X16388576Y26008015D01*
X16553225Y25921389D01*
X16558746Y25919675D01*
X16558750Y25919673D01*
X16751752Y25859744D01*
X16751757Y25859743D01*
X16757267Y25858032D01*
X16787718Y25854428D01*
X16927055Y25837936D01*
X16927061Y25837936D01*
X16930742Y25837500D01*
X17054196Y25837500D01*
X17164140Y25847603D01*
X17207001Y25851541D01*
X17207003Y25851541D01*
X17212756Y25852070D01*
X17342771Y25888738D01*
X17412828Y25908496D01*
X17412830Y25908497D01*
X17418387Y25910064D01*
X17423563Y25912616D01*
X17423567Y25912618D01*
X17604826Y26002005D01*
X17610007Y26004560D01*
X17781197Y26132393D01*
X17797070Y26149564D01*
X17922305Y26285043D01*
X17922307Y26285046D01*
X17926224Y26289283D01*
X18040232Y26469975D01*
X18119403Y26668418D01*
X18120528Y26674075D01*
X18120530Y26674081D01*
X18159957Y26872297D01*
X18159957Y26872301D01*
X18161084Y26877965D01*
X18161483Y26908401D01*
X18163805Y27085817D01*
X18163881Y27091599D01*
X18127699Y27302166D01*
X18053750Y27502613D01*
X17944511Y27686228D01*
X17940705Y27690568D01*
X17940702Y27690572D01*
X17807447Y27842519D01*
X17803640Y27846860D01*
X17635855Y27979131D01*
X17630744Y27981820D01*
X17630741Y27981822D01*
X17527443Y28036170D01*
X17446775Y28078611D01*
X17441254Y28080325D01*
X17441250Y28080327D01*
X17248248Y28140256D01*
X17248243Y28140257D01*
X17242733Y28141968D01*
X17192360Y28147930D01*
X17072945Y28162064D01*
X17072939Y28162064D01*
X17069258Y28162500D01*
X16945804Y28162500D01*
X16835860Y28152397D01*
X16792999Y28148459D01*
X16792997Y28148459D01*
X16787244Y28147930D01*
X16657229Y28111262D01*
X16587172Y28091504D01*
X16587170Y28091503D01*
X16581613Y28089936D01*
X16576437Y28087384D01*
X16576433Y28087382D01*
X16395174Y27997995D01*
X16389993Y27995440D01*
X16218803Y27867607D01*
X16214889Y27863373D01*
X16214887Y27863371D01*
X16199625Y27846860D01*
X16073776Y27710717D01*
X15959768Y27530025D01*
X15880597Y27331582D01*
X15879472Y27325925D01*
X15879470Y27325919D01*
X15840043Y27127703D01*
X15838916Y27122035D01*
X15838840Y27116260D01*
X15838840Y27116256D01*
X15838442Y27085817D01*
X15836119Y26908401D01*
X15397120Y26908401D01*
X15399922Y26944003D01*
X15403292Y26986823D01*
X15403435Y26988031D01*
X15403435Y26988641D01*
X15403680Y26991754D01*
X15404986Y27000000D01*
X15401551Y27021689D01*
X15400000Y27041398D01*
X15400000Y28474000D01*
X15420002Y28542121D01*
X15473658Y28588614D01*
X15526000Y28600000D01*
X18474000Y28600000D01*
X18542121Y28579998D01*
G37*
%TD.AperFunction*%
%TA.AperFunction,NonConductor*%
G36*
X-15462879Y28579998D02*
G01*
X-15416386Y28526342D01*
X-15405000Y28474000D01*
X-15405000Y27041398D01*
X-15406551Y27021689D01*
X-15409986Y27000000D01*
X-15408680Y26991754D01*
X-15408435Y26988641D01*
X-15408435Y26988031D01*
X-15408292Y26986823D01*
X-15404922Y26944003D01*
X-15392039Y26780315D01*
X-15340596Y26566038D01*
X-15338703Y26561467D01*
X-15338702Y26561465D01*
X-15300805Y26469975D01*
X-15256266Y26362448D01*
X-15141126Y26174556D01*
X-14998011Y26006989D01*
X-14830444Y25863874D01*
X-14642552Y25748734D01*
X-14637982Y25746841D01*
X-14577781Y25721905D01*
X-14522501Y25677356D01*
X-14500000Y25605496D01*
X-14500000Y23394504D01*
X-14520002Y23326383D01*
X-14577781Y23278095D01*
X-14642552Y23251266D01*
X-14830444Y23136126D01*
X-14998011Y22993011D01*
X-15141126Y22825444D01*
X-15256266Y22637552D01*
X-15258159Y22632982D01*
X-15258161Y22632978D01*
X-15338702Y22438535D01*
X-15340596Y22433962D01*
X-15392039Y22219685D01*
X-15392427Y22214751D01*
X-15408292Y22013177D01*
X-15408435Y22011969D01*
X-15408435Y22011359D01*
X-15408680Y22008246D01*
X-15409986Y22000000D01*
X-15408435Y21990208D01*
X-15406551Y21978313D01*
X-15405000Y21958602D01*
X-15405000Y16041398D01*
X-15406551Y16021689D01*
X-15409986Y16000000D01*
X-15408680Y15991754D01*
X-15408435Y15988641D01*
X-15408435Y15988031D01*
X-15408292Y15986823D01*
X-15404922Y15944003D01*
X-15392039Y15780315D01*
X-15340596Y15566038D01*
X-15338703Y15561467D01*
X-15338702Y15561465D01*
X-15315814Y15506210D01*
X-15256266Y15362448D01*
X-15141126Y15174556D01*
X-14998011Y15006989D01*
X-14830444Y14863874D01*
X-14642552Y14748734D01*
X-14637982Y14746841D01*
X-14577781Y14721905D01*
X-14522501Y14677356D01*
X-14500000Y14605496D01*
X-14500000Y12394504D01*
X-14520002Y12326383D01*
X-14577781Y12278095D01*
X-14642552Y12251266D01*
X-14830444Y12136126D01*
X-14998011Y11993011D01*
X-15141126Y11825444D01*
X-15256266Y11637552D01*
X-15258159Y11632982D01*
X-15258161Y11632978D01*
X-15338702Y11438535D01*
X-15340596Y11433962D01*
X-15392039Y11219685D01*
X-15392427Y11214751D01*
X-15408292Y11013177D01*
X-15408435Y11011969D01*
X-15408435Y11011359D01*
X-15408680Y11008246D01*
X-15409986Y11000000D01*
X-15408435Y10990208D01*
X-15406551Y10978313D01*
X-15405000Y10958602D01*
X-15405000Y526000D01*
X-15425002Y457879D01*
X-15478658Y411386D01*
X-15531000Y400000D01*
X-18479000Y400000D01*
X-18547121Y420002D01*
X-18593614Y473658D01*
X-18605000Y526000D01*
X-18605000Y1908401D01*
X-18163881Y1908401D01*
X-18127699Y1697834D01*
X-18053750Y1497387D01*
X-17944511Y1313772D01*
X-17940705Y1309432D01*
X-17940702Y1309428D01*
X-17807447Y1157481D01*
X-17803640Y1153140D01*
X-17635855Y1020869D01*
X-17630744Y1018180D01*
X-17630741Y1018178D01*
X-17611424Y1008015D01*
X-17446775Y921389D01*
X-17441254Y919675D01*
X-17441250Y919673D01*
X-17248248Y859744D01*
X-17248243Y859743D01*
X-17242733Y858032D01*
X-17212282Y854428D01*
X-17072945Y837936D01*
X-17072939Y837936D01*
X-17069258Y837500D01*
X-16945804Y837500D01*
X-16835860Y847603D01*
X-16792999Y851541D01*
X-16792997Y851541D01*
X-16787244Y852070D01*
X-16657229Y888738D01*
X-16587172Y908496D01*
X-16587170Y908497D01*
X-16581613Y910064D01*
X-16576437Y912616D01*
X-16576433Y912618D01*
X-16395174Y1002005D01*
X-16389993Y1004560D01*
X-16218803Y1132393D01*
X-16202930Y1149564D01*
X-16077695Y1285043D01*
X-16077693Y1285046D01*
X-16073776Y1289283D01*
X-15959768Y1469975D01*
X-15880597Y1668418D01*
X-15879472Y1674075D01*
X-15879470Y1674081D01*
X-15840043Y1872297D01*
X-15840043Y1872301D01*
X-15838916Y1877965D01*
X-15838517Y1908401D01*
X-15836195Y2085817D01*
X-15836119Y2091599D01*
X-15872301Y2302166D01*
X-15946250Y2502613D01*
X-16055489Y2686228D01*
X-16059295Y2690568D01*
X-16059298Y2690572D01*
X-16192553Y2842519D01*
X-16196360Y2846860D01*
X-16364145Y2979131D01*
X-16369256Y2981820D01*
X-16369259Y2981822D01*
X-16472557Y3036170D01*
X-16553225Y3078611D01*
X-16558746Y3080325D01*
X-16558750Y3080327D01*
X-16751752Y3140256D01*
X-16751757Y3140257D01*
X-16757267Y3141968D01*
X-16807640Y3147930D01*
X-16927055Y3162064D01*
X-16927061Y3162064D01*
X-16930742Y3162500D01*
X-17054196Y3162500D01*
X-17164140Y3152397D01*
X-17207001Y3148459D01*
X-17207003Y3148459D01*
X-17212756Y3147930D01*
X-17342771Y3111262D01*
X-17412828Y3091504D01*
X-17412830Y3091503D01*
X-17418387Y3089936D01*
X-17423563Y3087384D01*
X-17423567Y3087382D01*
X-17604826Y2997995D01*
X-17610007Y2995440D01*
X-17781197Y2867607D01*
X-17785111Y2863373D01*
X-17785113Y2863371D01*
X-17800375Y2846860D01*
X-17926224Y2710717D01*
X-18040232Y2530025D01*
X-18119403Y2331582D01*
X-18120528Y2325925D01*
X-18120530Y2325919D01*
X-18159957Y2127703D01*
X-18161084Y2122035D01*
X-18161160Y2116260D01*
X-18161160Y2116256D01*
X-18161558Y2085817D01*
X-18163881Y1908401D01*
X-18605000Y1908401D01*
X-18605000Y26908401D01*
X-18163881Y26908401D01*
X-18162902Y26902704D01*
X-18162902Y26902703D01*
X-18142720Y26785249D01*
X-18127699Y26697834D01*
X-18053750Y26497387D01*
X-18050798Y26492426D01*
X-18050798Y26492425D01*
X-17970959Y26358228D01*
X-17944511Y26313772D01*
X-17940705Y26309432D01*
X-17940702Y26309428D01*
X-17826120Y26178773D01*
X-17803640Y26153140D01*
X-17635855Y26020869D01*
X-17630744Y26018180D01*
X-17630741Y26018178D01*
X-17611424Y26008015D01*
X-17446775Y25921389D01*
X-17441254Y25919675D01*
X-17441250Y25919673D01*
X-17248248Y25859744D01*
X-17248243Y25859743D01*
X-17242733Y25858032D01*
X-17212282Y25854428D01*
X-17072945Y25837936D01*
X-17072939Y25837936D01*
X-17069258Y25837500D01*
X-16945804Y25837500D01*
X-16835860Y25847603D01*
X-16792999Y25851541D01*
X-16792997Y25851541D01*
X-16787244Y25852070D01*
X-16657229Y25888738D01*
X-16587172Y25908496D01*
X-16587170Y25908497D01*
X-16581613Y25910064D01*
X-16576437Y25912616D01*
X-16576433Y25912618D01*
X-16395174Y26002005D01*
X-16389993Y26004560D01*
X-16218803Y26132393D01*
X-16202930Y26149564D01*
X-16077695Y26285043D01*
X-16077693Y26285046D01*
X-16073776Y26289283D01*
X-15959768Y26469975D01*
X-15880597Y26668418D01*
X-15879472Y26674075D01*
X-15879470Y26674081D01*
X-15840043Y26872297D01*
X-15840043Y26872301D01*
X-15838916Y26877965D01*
X-15838517Y26908401D01*
X-15836195Y27085817D01*
X-15836119Y27091599D01*
X-15872301Y27302166D01*
X-15946250Y27502613D01*
X-16055489Y27686228D01*
X-16059295Y27690568D01*
X-16059298Y27690572D01*
X-16192553Y27842519D01*
X-16196360Y27846860D01*
X-16364145Y27979131D01*
X-16369256Y27981820D01*
X-16369259Y27981822D01*
X-16472557Y28036170D01*
X-16553225Y28078611D01*
X-16558746Y28080325D01*
X-16558750Y28080327D01*
X-16751752Y28140256D01*
X-16751757Y28140257D01*
X-16757267Y28141968D01*
X-16807640Y28147930D01*
X-16927055Y28162064D01*
X-16927061Y28162064D01*
X-16930742Y28162500D01*
X-17054196Y28162500D01*
X-17164140Y28152397D01*
X-17207001Y28148459D01*
X-17207003Y28148459D01*
X-17212756Y28147930D01*
X-17342771Y28111262D01*
X-17412828Y28091504D01*
X-17412830Y28091503D01*
X-17418387Y28089936D01*
X-17423563Y28087384D01*
X-17423567Y28087382D01*
X-17604826Y27997995D01*
X-17610007Y27995440D01*
X-17781197Y27867607D01*
X-17785111Y27863373D01*
X-17785113Y27863371D01*
X-17800375Y27846860D01*
X-17926224Y27710717D01*
X-18040232Y27530025D01*
X-18119403Y27331582D01*
X-18120528Y27325925D01*
X-18120530Y27325919D01*
X-18159957Y27127703D01*
X-18161084Y27122035D01*
X-18161160Y27116260D01*
X-18161160Y27116256D01*
X-18161558Y27085817D01*
X-18163881Y26908401D01*
X-18605000Y26908401D01*
X-18605000Y28474000D01*
X-18584998Y28542121D01*
X-18531342Y28588614D01*
X-18479000Y28600000D01*
X-15531000Y28600000D01*
X-15462879Y28579998D01*
G37*
%TD.AperFunction*%
M02*
