M48
; DRILL file {KiCad 5.99.0-unknown-e61b1f03b8~131~ubuntu20.04.1} date Mon Aug  2 15:41:04 2021
; FORMAT={-:-/ absolute / inch / decimal}
; #@! TF.CreationDate,2021-08-02T15:41:04+00:00
; #@! TF.GenerationSoftware,Kicad,Pcbnew,5.99.0-unknown-e61b1f03b8~131~ubuntu20.04.1
; #@! TF.FileFunction,Plated,1,4,PTH
FMAT,2
INCH
; #@! TA.AperFunction,Plated,PTH,ViaDrill
T1C0.0079
; #@! TA.AperFunction,Plated,PTH,ViaDrill
T2C0.0157
; #@! TA.AperFunction,Plated,PTH,ComponentDrill
T3C0.0394
; #@! TA.AperFunction,Plated,PTH,ComponentDrill
T4C0.0689
%
G90
G05
T1
X-0.4291Y0.2992
X-0.3898Y0.2087
X-0.2953Y0.5709
X-0.1772Y0.7087
X-0.1575Y0.8858
X-0.1378Y0.8858
X-0.0591Y0.6102
X-0.0315Y0.0315
X-0.0157Y0.7402
X0.0394Y0.1338
X0.1575Y0.7303
X0.2165Y0.0591
X0.2323Y0.8071
X0.2362Y0.7598
X0.2362Y0.689
X0.4331Y0.689
T2
X-0.4173Y0.5236
X-0.4055Y0.937
X-0.4055Y0.8465
X-0.4055Y0.7559
X-0.378Y0.3307
X-0.374Y0.8898
X-0.374Y0.8031
X-0.3268Y0.2441
X-0.2953Y0.2677
X-0.2835Y0.7756
X-0.2835Y0.126
X-0.2756Y1.063
X-0.2244Y0.122
X-0.1181Y0.7913
X-0.1142Y0.1654
X-0.0984Y1.063
X0.0118Y0.1024
X0.1142Y0.1181
X0.1811Y0.3307
X0.1929Y0.6821
X0.2244Y0.2992
X0.2244Y0.1929
X0.2795Y0.4291
X0.311Y0.3937
X0.3228Y1.0984
X0.3307Y0.6614
X0.3504Y0.4685
T3
X-0.0016Y1.063
X0.0984Y1.063
X0.1984Y1.063
T4
X-0.4016Y1.063
X-0.189Y1.063
T3
G00X-0.2721Y0.3392
M15
G01X-0.3185Y0.3301
M16
G05
G00X0.3185Y0.5163
M15
G01X0.2721Y0.5073
M16
G05
T0
M30
