M48
; DRILL file {KiCad 6.0.0-rc1-unknown-c40e921cb3~144~ubuntu18.04.1} date Wed 01 Dec 2021 16:53:02 UTC
; FORMAT={-:-/ absolute / inch / decimal}
; #@! TF.CreationDate,2021-12-01T16:53:02+00:00
; #@! TF.GenerationSoftware,Kicad,Pcbnew,6.0.0-rc1-unknown-c40e921cb3~144~ubuntu18.04.1
; #@! TF.FileFunction,Plated,1,2,PTH
FMAT,2
INCH
; #@! TA.AperFunction,Plated,PTH,ViaDrill
T1C0.0118
; #@! TA.AperFunction,Plated,PTH,ComponentDrill
T2C0.0315
%
G90
G05
T1
X-3.1063Y2.2598
X-3.1063Y1.7087
X-3.1063Y1.1575
X-3.1063Y0.6063
X-3.1063Y0.0551
X-3.0827Y2.0157
X-3.0827Y1.4646
X-3.0827Y0.9134
X-3.0827Y0.3622
X-3.0827Y-0.189
X-2.9882Y2.2992
X-2.9882Y1.748
X-2.9882Y1.1969
X-2.9882Y0.6457
X-2.9882Y0.0945
X-2.9173Y2.2992
X-2.9173Y1.748
X-2.9173Y1.1969
X-2.9173Y0.6457
X-2.9173Y0.0945
X-2.8188Y2.3349
X-2.8188Y1.7837
X-2.8188Y1.2325
X-2.8188Y0.6813
X-2.8188Y0.1301
X-2.7677Y2.2047
X-2.7677Y1.6535
X-2.7677Y1.1024
X-2.7677Y0.5512
X-2.7677Y0.0
X-2.7165Y2.3228
X-2.7165Y1.7717
X-2.7165Y1.2205
X-2.7165Y0.6693
X-2.7165Y0.1181
X-2.7008Y2.2756
X-2.7008Y1.7244
X-2.7008Y1.1732
X-2.7008Y0.622
X-2.7008Y0.0709
X-2.6673Y1.9941
X-2.6673Y1.4429
X-2.6673Y0.8917
X-2.6673Y0.3406
X-2.6673Y-0.2106
X-2.6535Y2.2205
X-2.6535Y1.6693
X-2.6535Y1.1181
X-2.6535Y0.5669
X-2.6535Y0.0157
X-2.6323Y2.3165
X-2.6323Y1.7653
X-2.6323Y1.2141
X-2.6323Y0.6629
X-2.6323Y0.1118
X-2.626Y2.1496
X-2.626Y1.5984
X-2.626Y1.0472
X-2.626Y0.4961
X-2.626Y-0.0551
X-2.5787Y1.9803
X-2.5787Y1.4291
X-2.5787Y0.878
X-2.5787Y0.3268
X-2.5787Y-0.2244
X-2.563Y2.1024
X-2.563Y2.0472
X-2.563Y1.5512
X-2.563Y1.4961
X-2.563Y1.0
X-2.563Y0.9449
X-2.563Y0.4488
X-2.563Y0.3937
X-2.563Y-0.1024
X-2.563Y-0.1575
X-2.5394Y2.2441
X-2.5394Y1.6929
X-2.5394Y1.1417
X-2.5394Y0.5906
X-2.5394Y0.0394
X-2.5354Y2.1969
X-2.5354Y1.6457
X-2.5354Y1.0945
X-2.5354Y0.5433
X-2.5354Y-0.0079
X-2.4488Y2.2756
X-2.4488Y1.7244
X-2.4488Y1.1732
X-2.4488Y0.622
X-2.4488Y0.0709
X-1.9252Y2.2598
X-1.9252Y1.7087
X-1.9252Y1.1575
X-1.9252Y0.6063
X-1.9252Y0.0551
X-1.9016Y2.0157
X-1.9016Y1.4646
X-1.9016Y0.9134
X-1.9016Y0.3622
X-1.9016Y-0.189
X-1.8071Y2.2992
X-1.8071Y1.748
X-1.8071Y1.1969
X-1.8071Y0.6457
X-1.8071Y0.0945
X-1.7362Y2.2992
X-1.7362Y1.748
X-1.7362Y1.1969
X-1.7362Y0.6457
X-1.7362Y0.0945
X-1.6377Y2.3349
X-1.6377Y1.7837
X-1.6377Y1.2325
X-1.6377Y0.6813
X-1.6377Y0.1301
X-1.5866Y2.2047
X-1.5866Y1.6535
X-1.5866Y1.1024
X-1.5866Y0.5512
X-1.5866Y0.0
X-1.5354Y2.3228
X-1.5354Y1.7717
X-1.5354Y1.2205
X-1.5354Y0.6693
X-1.5354Y0.1181
X-1.5197Y2.2756
X-1.5197Y1.7244
X-1.5197Y1.1732
X-1.5197Y0.622
X-1.5197Y0.0709
X-1.4862Y1.9941
X-1.4862Y1.4429
X-1.4862Y0.8917
X-1.4862Y0.3406
X-1.4862Y-0.2106
X-1.4724Y2.2205
X-1.4724Y1.6693
X-1.4724Y1.1181
X-1.4724Y0.5669
X-1.4724Y0.0157
X-1.4512Y2.3165
X-1.4512Y1.7653
X-1.4512Y1.2141
X-1.4512Y0.6629
X-1.4512Y0.1118
X-1.4449Y2.1496
X-1.4449Y1.5984
X-1.4449Y1.0472
X-1.4449Y0.4961
X-1.4449Y-0.0551
X-1.3976Y1.9803
X-1.3976Y1.4291
X-1.3976Y0.878
X-1.3976Y0.3268
X-1.3976Y-0.2244
X-1.3819Y2.1024
X-1.3819Y2.0472
X-1.3819Y1.5512
X-1.3819Y1.4961
X-1.3819Y1.0
X-1.3819Y0.9449
X-1.3819Y0.4488
X-1.3819Y0.3937
X-1.3819Y-0.1024
X-1.3819Y-0.1575
X-1.3583Y2.2441
X-1.3583Y1.6929
X-1.3583Y1.1417
X-1.3583Y0.5906
X-1.3583Y0.0394
X-1.3543Y2.1969
X-1.3543Y1.6457
X-1.3543Y1.0945
X-1.3543Y0.5433
X-1.3543Y-0.0079
X-1.2677Y2.2756
X-1.2677Y1.7244
X-1.2677Y1.1732
X-1.2677Y0.622
X-1.2677Y0.0709
X-0.7441Y2.2598
X-0.7441Y1.7087
X-0.7441Y1.1575
X-0.7441Y0.6063
X-0.7441Y0.0551
X-0.7205Y2.0157
X-0.7205Y1.4646
X-0.7205Y0.9134
X-0.7205Y0.3622
X-0.7205Y-0.189
X-0.626Y2.2992
X-0.626Y1.748
X-0.626Y1.1969
X-0.626Y0.6457
X-0.626Y0.0945
X-0.5551Y2.2992
X-0.5551Y1.748
X-0.5551Y1.1969
X-0.5551Y0.6457
X-0.5551Y0.0945
X-0.4566Y2.3349
X-0.4566Y1.7837
X-0.4566Y1.2325
X-0.4566Y0.6813
X-0.4566Y0.1301
X-0.4055Y2.2047
X-0.4055Y1.6535
X-0.4055Y1.1024
X-0.4055Y0.5512
X-0.4055Y0.0
X-0.3543Y2.3228
X-0.3543Y1.7717
X-0.3543Y1.2205
X-0.3543Y0.6693
X-0.3543Y0.1181
X-0.3386Y2.2756
X-0.3386Y1.7244
X-0.3386Y1.1732
X-0.3386Y0.622
X-0.3386Y0.0709
X-0.3051Y1.9941
X-0.3051Y1.4429
X-0.3051Y0.8917
X-0.3051Y0.3406
X-0.3051Y-0.2106
X-0.2913Y2.2205
X-0.2913Y1.6693
X-0.2913Y1.1181
X-0.2913Y0.5669
X-0.2913Y0.0157
X-0.2701Y2.3165
X-0.2701Y1.7653
X-0.2701Y1.2141
X-0.2701Y0.6629
X-0.2701Y0.1118
X-0.2638Y2.1496
X-0.2638Y1.5984
X-0.2638Y1.0472
X-0.2638Y0.4961
X-0.2638Y-0.0551
X-0.2165Y1.9803
X-0.2165Y1.4291
X-0.2165Y0.878
X-0.2165Y0.3268
X-0.2165Y-0.2244
X-0.2008Y2.1024
X-0.2008Y2.0472
X-0.2008Y1.5512
X-0.2008Y1.4961
X-0.2008Y1.0
X-0.2008Y0.9449
X-0.2008Y0.4488
X-0.2008Y0.3937
X-0.2008Y-0.1024
X-0.2008Y-0.1575
X-0.1772Y2.2441
X-0.1772Y1.6929
X-0.1772Y1.1417
X-0.1772Y0.5906
X-0.1772Y0.0394
X-0.1732Y2.1969
X-0.1732Y1.6457
X-0.1732Y1.0945
X-0.1732Y0.5433
X-0.1732Y-0.0079
X-0.0866Y2.2756
X-0.0866Y1.7244
X-0.0866Y1.1732
X-0.0866Y0.622
X-0.0866Y0.0709
X0.437Y2.2598
X0.437Y1.7087
X0.437Y1.1575
X0.437Y0.6063
X0.437Y0.0551
X0.4606Y2.0157
X0.4606Y1.4646
X0.4606Y0.9134
X0.4606Y0.3622
X0.4606Y-0.189
X0.5551Y2.2992
X0.5551Y1.748
X0.5551Y1.1969
X0.5551Y0.6457
X0.5551Y0.0945
X0.626Y2.2992
X0.626Y1.748
X0.626Y1.1969
X0.626Y0.6457
X0.626Y0.0945
X0.7245Y2.3349
X0.7245Y1.7837
X0.7245Y1.2325
X0.7245Y0.6813
X0.7245Y0.1301
X0.7756Y2.2047
X0.7756Y1.6535
X0.7756Y1.1024
X0.7756Y0.5512
X0.7756Y0.0
X0.8268Y2.3228
X0.8268Y1.7717
X0.8268Y1.2205
X0.8268Y0.6693
X0.8268Y0.1181
X0.8425Y2.2756
X0.8425Y1.7244
X0.8425Y1.1732
X0.8425Y0.622
X0.8425Y0.0709
X0.876Y1.9941
X0.876Y1.4429
X0.876Y0.8917
X0.876Y0.3406
X0.876Y-0.2106
X0.8898Y2.2205
X0.8898Y1.6693
X0.8898Y1.1181
X0.8898Y0.5669
X0.8898Y0.0157
X0.911Y2.3165
X0.911Y1.7653
X0.911Y1.2141
X0.911Y0.6629
X0.911Y0.1118
X0.9173Y2.1496
X0.9173Y1.5984
X0.9173Y1.0472
X0.9173Y0.4961
X0.9173Y-0.0551
X0.9646Y1.9803
X0.9646Y1.4291
X0.9646Y0.878
X0.9646Y0.3268
X0.9646Y-0.2244
X0.9803Y2.1024
X0.9803Y2.0472
X0.9803Y1.5512
X0.9803Y1.4961
X0.9803Y1.0
X0.9803Y0.9449
X0.9803Y0.4488
X0.9803Y0.3937
X0.9803Y-0.1024
X0.9803Y-0.1575
X1.0039Y2.2441
X1.0039Y1.6929
X1.0039Y1.1417
X1.0039Y0.5906
X1.0039Y0.0394
X1.0079Y2.1969
X1.0079Y1.6457
X1.0079Y1.0945
X1.0079Y0.5433
X1.0079Y-0.0079
X1.0945Y2.2756
X1.0945Y1.7244
X1.0945Y1.1732
X1.0945Y0.622
X1.0945Y0.0709
T2
G00X-3.0945Y2.1654
M15
G01X-3.0945Y2.126
M16
G05
G00X-3.0945Y1.6142
M15
G01X-3.0945Y1.5748
M16
G05
G00X-3.0945Y1.063
M15
G01X-3.0945Y1.0236
M16
G05
G00X-3.0945Y0.5118
M15
G01X-3.0945Y0.4724
M16
G05
G00X-3.0945Y-0.0394
M15
G01X-3.0945Y-0.0787
M16
G05
G00X-2.811Y2.1654
M15
G01X-2.811Y2.126
M16
G05
G00X-2.811Y1.6142
M15
G01X-2.811Y1.5748
M16
G05
G00X-2.811Y1.063
M15
G01X-2.811Y1.0236
M16
G05
G00X-2.811Y0.5118
M15
G01X-2.811Y0.4724
M16
G05
G00X-2.811Y-0.0394
M15
G01X-2.811Y-0.0787
M16
G05
G00X-1.9134Y2.1654
M15
G01X-1.9134Y2.126
M16
G05
G00X-1.9134Y1.6142
M15
G01X-1.9134Y1.5748
M16
G05
G00X-1.9134Y1.063
M15
G01X-1.9134Y1.0236
M16
G05
G00X-1.9134Y0.5118
M15
G01X-1.9134Y0.4724
M16
G05
G00X-1.9134Y-0.0394
M15
G01X-1.9134Y-0.0787
M16
G05
G00X-1.6299Y2.1654
M15
G01X-1.6299Y2.126
M16
G05
G00X-1.6299Y1.6142
M15
G01X-1.6299Y1.5748
M16
G05
G00X-1.6299Y1.063
M15
G01X-1.6299Y1.0236
M16
G05
G00X-1.6299Y0.5118
M15
G01X-1.6299Y0.4724
M16
G05
G00X-1.6299Y-0.0394
M15
G01X-1.6299Y-0.0787
M16
G05
G00X-0.7323Y2.1654
M15
G01X-0.7323Y2.126
M16
G05
G00X-0.7323Y1.6142
M15
G01X-0.7323Y1.5748
M16
G05
G00X-0.7323Y1.063
M15
G01X-0.7323Y1.0236
M16
G05
G00X-0.7323Y0.5118
M15
G01X-0.7323Y0.4724
M16
G05
G00X-0.7323Y-0.0394
M15
G01X-0.7323Y-0.0787
M16
G05
G00X-0.4488Y2.1654
M15
G01X-0.4488Y2.126
M16
G05
G00X-0.4488Y1.6142
M15
G01X-0.4488Y1.5748
M16
G05
G00X-0.4488Y1.063
M15
G01X-0.4488Y1.0236
M16
G05
G00X-0.4488Y0.5118
M15
G01X-0.4488Y0.4724
M16
G05
G00X-0.4488Y-0.0394
M15
G01X-0.4488Y-0.0787
M16
G05
G00X0.4488Y2.1654
M15
G01X0.4488Y2.126
M16
G05
G00X0.4488Y1.6142
M15
G01X0.4488Y1.5748
M16
G05
G00X0.4488Y1.063
M15
G01X0.4488Y1.0236
M16
G05
G00X0.4488Y0.5118
M15
G01X0.4488Y0.4724
M16
G05
G00X0.4488Y-0.0394
M15
G01X0.4488Y-0.0787
M16
G05
G00X0.7323Y2.1654
M15
G01X0.7323Y2.126
M16
G05
G00X0.7323Y1.6142
M15
G01X0.7323Y1.5748
M16
G05
G00X0.7323Y1.063
M15
G01X0.7323Y1.0236
M16
G05
G00X0.7323Y0.5118
M15
G01X0.7323Y0.4724
M16
G05
G00X0.7323Y-0.0394
M15
G01X0.7323Y-0.0787
M16
G05
T0
M30
