%TF.GenerationSoftware,KiCad,Pcbnew,6.0.0-rc1-unknown-c40e921cb3~144~ubuntu18.04.1*%
%TF.CreationDate,2021-12-01T16:53:05+00:00*%
%TF.ProjectId,output.panel20,6f757470-7574-42e7-9061-6e656c32302e,rev?*%
%TF.SameCoordinates,PX9896800PY7270e00*%
%TF.FileFunction,Legend,Bot*%
%TF.FilePolarity,Positive*%
%FSLAX46Y46*%
G04 Gerber Fmt 4.6, Leading zero omitted, Abs format (unit mm)*
G04 Created by KiCad (PCBNEW 6.0.0-rc1-unknown-c40e921cb3~144~ubuntu18.04.1) date 2021-12-01 16:53:05*
%MOMM*%
%LPD*%
G01*
G04 APERTURE LIST*
%ADD10C,0.150000*%
G04 APERTURE END LIST*
D10*
X24394571Y-2900000D02*
X24451714Y-2957142D01*
X24508857Y-3071428D01*
X24508857Y-3185714D01*
X24451714Y-3300000D01*
X24394571Y-3357142D01*
X24280285Y-3414285D01*
X24166000Y-3414285D01*
X24051714Y-3357142D01*
X23994571Y-3300000D01*
X23937428Y-3185714D01*
X23937428Y-3071428D01*
X23994571Y-2957142D01*
X24051714Y-2900000D01*
X24508857Y-2900000D02*
X24051714Y-2900000D01*
X23994571Y-2842857D01*
X23994571Y-2785714D01*
X24051714Y-2671428D01*
X24166000Y-2614285D01*
X24451714Y-2614285D01*
X24623142Y-2728571D01*
X24737428Y-2900000D01*
X24794571Y-3128571D01*
X24737428Y-3357142D01*
X24623142Y-3528571D01*
X24451714Y-3642857D01*
X24223142Y-3700000D01*
X23994571Y-3642857D01*
X23823142Y-3528571D01*
X23708857Y-3357142D01*
X23651714Y-3128571D01*
X23708857Y-2900000D01*
X23823142Y-2728571D01*
X23823142Y-2100000D02*
X24623142Y-2100000D01*
X24508857Y-2100000D02*
X24566000Y-2042857D01*
X24623142Y-1928571D01*
X24623142Y-1757142D01*
X24566000Y-1642857D01*
X24451714Y-1585714D01*
X23823142Y-1585714D01*
X24451714Y-1585714D02*
X24566000Y-1528571D01*
X24623142Y-1414285D01*
X24623142Y-1242857D01*
X24566000Y-1128571D01*
X24451714Y-1071428D01*
X23823142Y-1071428D01*
X23823142Y14286D02*
X24451714Y14286D01*
X24566000Y-42857D01*
X24623142Y-157142D01*
X24623142Y-385714D01*
X24566000Y-500000D01*
X23880285Y14286D02*
X23823142Y-100000D01*
X23823142Y-385714D01*
X23880285Y-500000D01*
X23994571Y-557142D01*
X24108857Y-557142D01*
X24223142Y-500000D01*
X24280285Y-385714D01*
X24280285Y-100000D01*
X24337428Y14286D01*
X23823142Y585715D02*
X24623142Y585715D01*
X24394571Y585715D02*
X24508857Y642858D01*
X24566000Y700000D01*
X24623142Y814286D01*
X24623142Y928572D01*
X23823142Y1328572D02*
X25023142Y1328572D01*
X24280285Y1442858D02*
X23823142Y1785715D01*
X24623142Y1785715D02*
X24166000Y1328572D01*
X23823142Y2185715D02*
X24623142Y2814286D01*
X24623142Y2185715D02*
X23823142Y2814286D01*
X23823142Y3271429D02*
X24623142Y3271429D01*
X24394571Y3271429D02*
X24508857Y3328572D01*
X24566000Y3385715D01*
X24623142Y3500000D01*
X24623142Y3614286D01*
X22976857Y-2157142D02*
X23034000Y-2100000D01*
X23091142Y-1985714D01*
X23091142Y-1700000D01*
X23034000Y-1585714D01*
X22976857Y-1528571D01*
X22862571Y-1471428D01*
X22748285Y-1471428D01*
X22576857Y-1528571D01*
X21891142Y-2214285D01*
X21891142Y-1471428D01*
X23091142Y-728571D02*
X23091142Y-614285D01*
X23034000Y-500000D01*
X22976857Y-442857D01*
X22862571Y-385714D01*
X22634000Y-328571D01*
X22348285Y-328571D01*
X22119714Y-385714D01*
X22005428Y-442857D01*
X21948285Y-500000D01*
X21891142Y-614285D01*
X21891142Y-728571D01*
X21948285Y-842857D01*
X22005428Y-900000D01*
X22119714Y-957142D01*
X22348285Y-1014285D01*
X22634000Y-1014285D01*
X22862571Y-957142D01*
X22976857Y-900000D01*
X23034000Y-842857D01*
X23091142Y-728571D01*
X22976857Y128572D02*
X23034000Y185715D01*
X23091142Y300000D01*
X23091142Y585715D01*
X23034000Y700000D01*
X22976857Y757143D01*
X22862571Y814286D01*
X22748285Y814286D01*
X22576857Y757143D01*
X21891142Y71429D01*
X21891142Y814286D01*
X22976857Y1271429D02*
X23034000Y1328572D01*
X23091142Y1442858D01*
X23091142Y1728572D01*
X23034000Y1842858D01*
X22976857Y1900000D01*
X22862571Y1957143D01*
X22748285Y1957143D01*
X22576857Y1900000D01*
X21891142Y1214286D01*
X21891142Y1957143D01*
X-5605429Y11100000D02*
X-5548286Y11042858D01*
X-5491143Y10928572D01*
X-5491143Y10814286D01*
X-5548286Y10700000D01*
X-5605429Y10642858D01*
X-5719715Y10585715D01*
X-5834000Y10585715D01*
X-5948286Y10642858D01*
X-6005429Y10700000D01*
X-6062572Y10814286D01*
X-6062572Y10928572D01*
X-6005429Y11042858D01*
X-5948286Y11100000D01*
X-5491143Y11100000D02*
X-5948286Y11100000D01*
X-6005429Y11157143D01*
X-6005429Y11214286D01*
X-5948286Y11328572D01*
X-5834000Y11385715D01*
X-5548286Y11385715D01*
X-5376858Y11271429D01*
X-5262572Y11100000D01*
X-5205429Y10871429D01*
X-5262572Y10642858D01*
X-5376858Y10471429D01*
X-5548286Y10357143D01*
X-5776858Y10300000D01*
X-6005429Y10357143D01*
X-6176858Y10471429D01*
X-6291143Y10642858D01*
X-6348286Y10871429D01*
X-6291143Y11100000D01*
X-6176858Y11271429D01*
X-6176858Y11900000D02*
X-5376858Y11900000D01*
X-5491143Y11900000D02*
X-5434000Y11957143D01*
X-5376858Y12071429D01*
X-5376858Y12242858D01*
X-5434000Y12357143D01*
X-5548286Y12414286D01*
X-6176858Y12414286D01*
X-5548286Y12414286D02*
X-5434000Y12471429D01*
X-5376858Y12585715D01*
X-5376858Y12757143D01*
X-5434000Y12871429D01*
X-5548286Y12928572D01*
X-6176858Y12928572D01*
X-6176858Y14014286D02*
X-5548286Y14014286D01*
X-5434000Y13957143D01*
X-5376858Y13842858D01*
X-5376858Y13614286D01*
X-5434000Y13500000D01*
X-6119715Y14014286D02*
X-6176858Y13900000D01*
X-6176858Y13614286D01*
X-6119715Y13500000D01*
X-6005429Y13442858D01*
X-5891143Y13442858D01*
X-5776858Y13500000D01*
X-5719715Y13614286D01*
X-5719715Y13900000D01*
X-5662572Y14014286D01*
X-6176858Y14585715D02*
X-5376858Y14585715D01*
X-5605429Y14585715D02*
X-5491143Y14642858D01*
X-5434000Y14700000D01*
X-5376858Y14814286D01*
X-5376858Y14928572D01*
X-6176858Y15328572D02*
X-4976858Y15328572D01*
X-5719715Y15442858D02*
X-6176858Y15785715D01*
X-5376858Y15785715D02*
X-5834000Y15328572D01*
X-6176858Y16185715D02*
X-5376858Y16814286D01*
X-5376858Y16185715D02*
X-6176858Y16814286D01*
X-6176858Y17271429D02*
X-5376858Y17271429D01*
X-5605429Y17271429D02*
X-5491143Y17328572D01*
X-5434000Y17385715D01*
X-5376858Y17500000D01*
X-5376858Y17614286D01*
X-7023143Y11842858D02*
X-6966000Y11900000D01*
X-6908858Y12014286D01*
X-6908858Y12300000D01*
X-6966000Y12414286D01*
X-7023143Y12471429D01*
X-7137429Y12528572D01*
X-7251715Y12528572D01*
X-7423143Y12471429D01*
X-8108858Y11785715D01*
X-8108858Y12528572D01*
X-6908858Y13271429D02*
X-6908858Y13385715D01*
X-6966000Y13500000D01*
X-7023143Y13557143D01*
X-7137429Y13614286D01*
X-7366000Y13671429D01*
X-7651715Y13671429D01*
X-7880286Y13614286D01*
X-7994572Y13557143D01*
X-8051715Y13500000D01*
X-8108858Y13385715D01*
X-8108858Y13271429D01*
X-8051715Y13157143D01*
X-7994572Y13100000D01*
X-7880286Y13042858D01*
X-7651715Y12985715D01*
X-7366000Y12985715D01*
X-7137429Y13042858D01*
X-7023143Y13100000D01*
X-6966000Y13157143D01*
X-6908858Y13271429D01*
X-7023143Y14128572D02*
X-6966000Y14185715D01*
X-6908858Y14300000D01*
X-6908858Y14585715D01*
X-6966000Y14700000D01*
X-7023143Y14757143D01*
X-7137429Y14814286D01*
X-7251715Y14814286D01*
X-7423143Y14757143D01*
X-8108858Y14071429D01*
X-8108858Y14814286D01*
X-7023143Y15271429D02*
X-6966000Y15328572D01*
X-6908858Y15442858D01*
X-6908858Y15728572D01*
X-6966000Y15842858D01*
X-7023143Y15900000D01*
X-7137429Y15957143D01*
X-7251715Y15957143D01*
X-7423143Y15900000D01*
X-8108858Y15214286D01*
X-8108858Y15957143D01*
X24394571Y25100000D02*
X24451714Y25042858D01*
X24508857Y24928572D01*
X24508857Y24814286D01*
X24451714Y24700000D01*
X24394571Y24642858D01*
X24280285Y24585715D01*
X24166000Y24585715D01*
X24051714Y24642858D01*
X23994571Y24700000D01*
X23937428Y24814286D01*
X23937428Y24928572D01*
X23994571Y25042858D01*
X24051714Y25100000D01*
X24508857Y25100000D02*
X24051714Y25100000D01*
X23994571Y25157143D01*
X23994571Y25214286D01*
X24051714Y25328572D01*
X24166000Y25385715D01*
X24451714Y25385715D01*
X24623142Y25271429D01*
X24737428Y25100000D01*
X24794571Y24871429D01*
X24737428Y24642858D01*
X24623142Y24471429D01*
X24451714Y24357143D01*
X24223142Y24300000D01*
X23994571Y24357143D01*
X23823142Y24471429D01*
X23708857Y24642858D01*
X23651714Y24871429D01*
X23708857Y25100000D01*
X23823142Y25271429D01*
X23823142Y25900000D02*
X24623142Y25900000D01*
X24508857Y25900000D02*
X24566000Y25957143D01*
X24623142Y26071429D01*
X24623142Y26242858D01*
X24566000Y26357143D01*
X24451714Y26414286D01*
X23823142Y26414286D01*
X24451714Y26414286D02*
X24566000Y26471429D01*
X24623142Y26585715D01*
X24623142Y26757143D01*
X24566000Y26871429D01*
X24451714Y26928572D01*
X23823142Y26928572D01*
X23823142Y28014286D02*
X24451714Y28014286D01*
X24566000Y27957143D01*
X24623142Y27842858D01*
X24623142Y27614286D01*
X24566000Y27500000D01*
X23880285Y28014286D02*
X23823142Y27900000D01*
X23823142Y27614286D01*
X23880285Y27500000D01*
X23994571Y27442858D01*
X24108857Y27442858D01*
X24223142Y27500000D01*
X24280285Y27614286D01*
X24280285Y27900000D01*
X24337428Y28014286D01*
X23823142Y28585715D02*
X24623142Y28585715D01*
X24394571Y28585715D02*
X24508857Y28642858D01*
X24566000Y28700000D01*
X24623142Y28814286D01*
X24623142Y28928572D01*
X23823142Y29328572D02*
X25023142Y29328572D01*
X24280285Y29442858D02*
X23823142Y29785715D01*
X24623142Y29785715D02*
X24166000Y29328572D01*
X23823142Y30185715D02*
X24623142Y30814286D01*
X24623142Y30185715D02*
X23823142Y30814286D01*
X23823142Y31271429D02*
X24623142Y31271429D01*
X24394571Y31271429D02*
X24508857Y31328572D01*
X24566000Y31385715D01*
X24623142Y31500000D01*
X24623142Y31614286D01*
X22976857Y25842858D02*
X23034000Y25900000D01*
X23091142Y26014286D01*
X23091142Y26300000D01*
X23034000Y26414286D01*
X22976857Y26471429D01*
X22862571Y26528572D01*
X22748285Y26528572D01*
X22576857Y26471429D01*
X21891142Y25785715D01*
X21891142Y26528572D01*
X23091142Y27271429D02*
X23091142Y27385715D01*
X23034000Y27500000D01*
X22976857Y27557143D01*
X22862571Y27614286D01*
X22634000Y27671429D01*
X22348285Y27671429D01*
X22119714Y27614286D01*
X22005428Y27557143D01*
X21948285Y27500000D01*
X21891142Y27385715D01*
X21891142Y27271429D01*
X21948285Y27157143D01*
X22005428Y27100000D01*
X22119714Y27042858D01*
X22348285Y26985715D01*
X22634000Y26985715D01*
X22862571Y27042858D01*
X22976857Y27100000D01*
X23034000Y27157143D01*
X23091142Y27271429D01*
X22976857Y28128572D02*
X23034000Y28185715D01*
X23091142Y28300000D01*
X23091142Y28585715D01*
X23034000Y28700000D01*
X22976857Y28757143D01*
X22862571Y28814286D01*
X22748285Y28814286D01*
X22576857Y28757143D01*
X21891142Y28071429D01*
X21891142Y28814286D01*
X22976857Y29271429D02*
X23034000Y29328572D01*
X23091142Y29442858D01*
X23091142Y29728572D01*
X23034000Y29842858D01*
X22976857Y29900000D01*
X22862571Y29957143D01*
X22748285Y29957143D01*
X22576857Y29900000D01*
X21891142Y29214286D01*
X21891142Y29957143D01*
X-35605429Y-2900000D02*
X-35548286Y-2957142D01*
X-35491143Y-3071428D01*
X-35491143Y-3185714D01*
X-35548286Y-3300000D01*
X-35605429Y-3357142D01*
X-35719715Y-3414285D01*
X-35834000Y-3414285D01*
X-35948286Y-3357142D01*
X-36005429Y-3300000D01*
X-36062572Y-3185714D01*
X-36062572Y-3071428D01*
X-36005429Y-2957142D01*
X-35948286Y-2900000D01*
X-35491143Y-2900000D02*
X-35948286Y-2900000D01*
X-36005429Y-2842857D01*
X-36005429Y-2785714D01*
X-35948286Y-2671428D01*
X-35834000Y-2614285D01*
X-35548286Y-2614285D01*
X-35376858Y-2728571D01*
X-35262572Y-2900000D01*
X-35205429Y-3128571D01*
X-35262572Y-3357142D01*
X-35376858Y-3528571D01*
X-35548286Y-3642857D01*
X-35776858Y-3700000D01*
X-36005429Y-3642857D01*
X-36176858Y-3528571D01*
X-36291143Y-3357142D01*
X-36348286Y-3128571D01*
X-36291143Y-2900000D01*
X-36176858Y-2728571D01*
X-36176858Y-2100000D02*
X-35376858Y-2100000D01*
X-35491143Y-2100000D02*
X-35434000Y-2042857D01*
X-35376858Y-1928571D01*
X-35376858Y-1757142D01*
X-35434000Y-1642857D01*
X-35548286Y-1585714D01*
X-36176858Y-1585714D01*
X-35548286Y-1585714D02*
X-35434000Y-1528571D01*
X-35376858Y-1414285D01*
X-35376858Y-1242857D01*
X-35434000Y-1128571D01*
X-35548286Y-1071428D01*
X-36176858Y-1071428D01*
X-36176858Y14286D02*
X-35548286Y14286D01*
X-35434000Y-42857D01*
X-35376858Y-157142D01*
X-35376858Y-385714D01*
X-35434000Y-500000D01*
X-36119715Y14286D02*
X-36176858Y-100000D01*
X-36176858Y-385714D01*
X-36119715Y-500000D01*
X-36005429Y-557142D01*
X-35891143Y-557142D01*
X-35776858Y-500000D01*
X-35719715Y-385714D01*
X-35719715Y-100000D01*
X-35662572Y14286D01*
X-36176858Y585715D02*
X-35376858Y585715D01*
X-35605429Y585715D02*
X-35491143Y642858D01*
X-35434000Y700000D01*
X-35376858Y814286D01*
X-35376858Y928572D01*
X-36176858Y1328572D02*
X-34976858Y1328572D01*
X-35719715Y1442858D02*
X-36176858Y1785715D01*
X-35376858Y1785715D02*
X-35834000Y1328572D01*
X-36176858Y2185715D02*
X-35376858Y2814286D01*
X-35376858Y2185715D02*
X-36176858Y2814286D01*
X-36176858Y3271429D02*
X-35376858Y3271429D01*
X-35605429Y3271429D02*
X-35491143Y3328572D01*
X-35434000Y3385715D01*
X-35376858Y3500000D01*
X-35376858Y3614286D01*
X-37023143Y-2157142D02*
X-36966000Y-2100000D01*
X-36908858Y-1985714D01*
X-36908858Y-1700000D01*
X-36966000Y-1585714D01*
X-37023143Y-1528571D01*
X-37137429Y-1471428D01*
X-37251715Y-1471428D01*
X-37423143Y-1528571D01*
X-38108858Y-2214285D01*
X-38108858Y-1471428D01*
X-36908858Y-728571D02*
X-36908858Y-614285D01*
X-36966000Y-500000D01*
X-37023143Y-442857D01*
X-37137429Y-385714D01*
X-37366000Y-328571D01*
X-37651715Y-328571D01*
X-37880286Y-385714D01*
X-37994572Y-442857D01*
X-38051715Y-500000D01*
X-38108858Y-614285D01*
X-38108858Y-728571D01*
X-38051715Y-842857D01*
X-37994572Y-900000D01*
X-37880286Y-957142D01*
X-37651715Y-1014285D01*
X-37366000Y-1014285D01*
X-37137429Y-957142D01*
X-37023143Y-900000D01*
X-36966000Y-842857D01*
X-36908858Y-728571D01*
X-37023143Y128572D02*
X-36966000Y185715D01*
X-36908858Y300000D01*
X-36908858Y585715D01*
X-36966000Y700000D01*
X-37023143Y757143D01*
X-37137429Y814286D01*
X-37251715Y814286D01*
X-37423143Y757143D01*
X-38108858Y71429D01*
X-38108858Y814286D01*
X-37023143Y1271429D02*
X-36966000Y1328572D01*
X-36908858Y1442858D01*
X-36908858Y1728572D01*
X-36966000Y1842858D01*
X-37023143Y1900000D01*
X-37137429Y1957143D01*
X-37251715Y1957143D01*
X-37423143Y1900000D01*
X-38108858Y1214286D01*
X-38108858Y1957143D01*
X-65605429Y53100000D02*
X-65548286Y53042858D01*
X-65491143Y52928572D01*
X-65491143Y52814286D01*
X-65548286Y52700000D01*
X-65605429Y52642858D01*
X-65719715Y52585715D01*
X-65834000Y52585715D01*
X-65948286Y52642858D01*
X-66005429Y52700000D01*
X-66062572Y52814286D01*
X-66062572Y52928572D01*
X-66005429Y53042858D01*
X-65948286Y53100000D01*
X-65491143Y53100000D02*
X-65948286Y53100000D01*
X-66005429Y53157143D01*
X-66005429Y53214286D01*
X-65948286Y53328572D01*
X-65834000Y53385715D01*
X-65548286Y53385715D01*
X-65376858Y53271429D01*
X-65262572Y53100000D01*
X-65205429Y52871429D01*
X-65262572Y52642858D01*
X-65376858Y52471429D01*
X-65548286Y52357143D01*
X-65776858Y52300000D01*
X-66005429Y52357143D01*
X-66176858Y52471429D01*
X-66291143Y52642858D01*
X-66348286Y52871429D01*
X-66291143Y53100000D01*
X-66176858Y53271429D01*
X-66176858Y53900000D02*
X-65376858Y53900000D01*
X-65491143Y53900000D02*
X-65434000Y53957143D01*
X-65376858Y54071429D01*
X-65376858Y54242858D01*
X-65434000Y54357143D01*
X-65548286Y54414286D01*
X-66176858Y54414286D01*
X-65548286Y54414286D02*
X-65434000Y54471429D01*
X-65376858Y54585715D01*
X-65376858Y54757143D01*
X-65434000Y54871429D01*
X-65548286Y54928572D01*
X-66176858Y54928572D01*
X-66176858Y56014286D02*
X-65548286Y56014286D01*
X-65434000Y55957143D01*
X-65376858Y55842858D01*
X-65376858Y55614286D01*
X-65434000Y55500000D01*
X-66119715Y56014286D02*
X-66176858Y55900000D01*
X-66176858Y55614286D01*
X-66119715Y55500000D01*
X-66005429Y55442858D01*
X-65891143Y55442858D01*
X-65776858Y55500000D01*
X-65719715Y55614286D01*
X-65719715Y55900000D01*
X-65662572Y56014286D01*
X-66176858Y56585715D02*
X-65376858Y56585715D01*
X-65605429Y56585715D02*
X-65491143Y56642858D01*
X-65434000Y56700000D01*
X-65376858Y56814286D01*
X-65376858Y56928572D01*
X-66176858Y57328572D02*
X-64976858Y57328572D01*
X-65719715Y57442858D02*
X-66176858Y57785715D01*
X-65376858Y57785715D02*
X-65834000Y57328572D01*
X-66176858Y58185715D02*
X-65376858Y58814286D01*
X-65376858Y58185715D02*
X-66176858Y58814286D01*
X-66176858Y59271429D02*
X-65376858Y59271429D01*
X-65605429Y59271429D02*
X-65491143Y59328572D01*
X-65434000Y59385715D01*
X-65376858Y59500000D01*
X-65376858Y59614286D01*
X-67023143Y53842858D02*
X-66966000Y53900000D01*
X-66908858Y54014286D01*
X-66908858Y54300000D01*
X-66966000Y54414286D01*
X-67023143Y54471429D01*
X-67137429Y54528572D01*
X-67251715Y54528572D01*
X-67423143Y54471429D01*
X-68108858Y53785715D01*
X-68108858Y54528572D01*
X-66908858Y55271429D02*
X-66908858Y55385715D01*
X-66966000Y55500000D01*
X-67023143Y55557143D01*
X-67137429Y55614286D01*
X-67366000Y55671429D01*
X-67651715Y55671429D01*
X-67880286Y55614286D01*
X-67994572Y55557143D01*
X-68051715Y55500000D01*
X-68108858Y55385715D01*
X-68108858Y55271429D01*
X-68051715Y55157143D01*
X-67994572Y55100000D01*
X-67880286Y55042858D01*
X-67651715Y54985715D01*
X-67366000Y54985715D01*
X-67137429Y55042858D01*
X-67023143Y55100000D01*
X-66966000Y55157143D01*
X-66908858Y55271429D01*
X-67023143Y56128572D02*
X-66966000Y56185715D01*
X-66908858Y56300000D01*
X-66908858Y56585715D01*
X-66966000Y56700000D01*
X-67023143Y56757143D01*
X-67137429Y56814286D01*
X-67251715Y56814286D01*
X-67423143Y56757143D01*
X-68108858Y56071429D01*
X-68108858Y56814286D01*
X-67023143Y57271429D02*
X-66966000Y57328572D01*
X-66908858Y57442858D01*
X-66908858Y57728572D01*
X-66966000Y57842858D01*
X-67023143Y57900000D01*
X-67137429Y57957143D01*
X-67251715Y57957143D01*
X-67423143Y57900000D01*
X-68108858Y57214286D01*
X-68108858Y57957143D01*
X-35605429Y25100000D02*
X-35548286Y25042858D01*
X-35491143Y24928572D01*
X-35491143Y24814286D01*
X-35548286Y24700000D01*
X-35605429Y24642858D01*
X-35719715Y24585715D01*
X-35834000Y24585715D01*
X-35948286Y24642858D01*
X-36005429Y24700000D01*
X-36062572Y24814286D01*
X-36062572Y24928572D01*
X-36005429Y25042858D01*
X-35948286Y25100000D01*
X-35491143Y25100000D02*
X-35948286Y25100000D01*
X-36005429Y25157143D01*
X-36005429Y25214286D01*
X-35948286Y25328572D01*
X-35834000Y25385715D01*
X-35548286Y25385715D01*
X-35376858Y25271429D01*
X-35262572Y25100000D01*
X-35205429Y24871429D01*
X-35262572Y24642858D01*
X-35376858Y24471429D01*
X-35548286Y24357143D01*
X-35776858Y24300000D01*
X-36005429Y24357143D01*
X-36176858Y24471429D01*
X-36291143Y24642858D01*
X-36348286Y24871429D01*
X-36291143Y25100000D01*
X-36176858Y25271429D01*
X-36176858Y25900000D02*
X-35376858Y25900000D01*
X-35491143Y25900000D02*
X-35434000Y25957143D01*
X-35376858Y26071429D01*
X-35376858Y26242858D01*
X-35434000Y26357143D01*
X-35548286Y26414286D01*
X-36176858Y26414286D01*
X-35548286Y26414286D02*
X-35434000Y26471429D01*
X-35376858Y26585715D01*
X-35376858Y26757143D01*
X-35434000Y26871429D01*
X-35548286Y26928572D01*
X-36176858Y26928572D01*
X-36176858Y28014286D02*
X-35548286Y28014286D01*
X-35434000Y27957143D01*
X-35376858Y27842858D01*
X-35376858Y27614286D01*
X-35434000Y27500000D01*
X-36119715Y28014286D02*
X-36176858Y27900000D01*
X-36176858Y27614286D01*
X-36119715Y27500000D01*
X-36005429Y27442858D01*
X-35891143Y27442858D01*
X-35776858Y27500000D01*
X-35719715Y27614286D01*
X-35719715Y27900000D01*
X-35662572Y28014286D01*
X-36176858Y28585715D02*
X-35376858Y28585715D01*
X-35605429Y28585715D02*
X-35491143Y28642858D01*
X-35434000Y28700000D01*
X-35376858Y28814286D01*
X-35376858Y28928572D01*
X-36176858Y29328572D02*
X-34976858Y29328572D01*
X-35719715Y29442858D02*
X-36176858Y29785715D01*
X-35376858Y29785715D02*
X-35834000Y29328572D01*
X-36176858Y30185715D02*
X-35376858Y30814286D01*
X-35376858Y30185715D02*
X-36176858Y30814286D01*
X-36176858Y31271429D02*
X-35376858Y31271429D01*
X-35605429Y31271429D02*
X-35491143Y31328572D01*
X-35434000Y31385715D01*
X-35376858Y31500000D01*
X-35376858Y31614286D01*
X-37023143Y25842858D02*
X-36966000Y25900000D01*
X-36908858Y26014286D01*
X-36908858Y26300000D01*
X-36966000Y26414286D01*
X-37023143Y26471429D01*
X-37137429Y26528572D01*
X-37251715Y26528572D01*
X-37423143Y26471429D01*
X-38108858Y25785715D01*
X-38108858Y26528572D01*
X-36908858Y27271429D02*
X-36908858Y27385715D01*
X-36966000Y27500000D01*
X-37023143Y27557143D01*
X-37137429Y27614286D01*
X-37366000Y27671429D01*
X-37651715Y27671429D01*
X-37880286Y27614286D01*
X-37994572Y27557143D01*
X-38051715Y27500000D01*
X-38108858Y27385715D01*
X-38108858Y27271429D01*
X-38051715Y27157143D01*
X-37994572Y27100000D01*
X-37880286Y27042858D01*
X-37651715Y26985715D01*
X-37366000Y26985715D01*
X-37137429Y27042858D01*
X-37023143Y27100000D01*
X-36966000Y27157143D01*
X-36908858Y27271429D01*
X-37023143Y28128572D02*
X-36966000Y28185715D01*
X-36908858Y28300000D01*
X-36908858Y28585715D01*
X-36966000Y28700000D01*
X-37023143Y28757143D01*
X-37137429Y28814286D01*
X-37251715Y28814286D01*
X-37423143Y28757143D01*
X-38108858Y28071429D01*
X-38108858Y28814286D01*
X-37023143Y29271429D02*
X-36966000Y29328572D01*
X-36908858Y29442858D01*
X-36908858Y29728572D01*
X-36966000Y29842858D01*
X-37023143Y29900000D01*
X-37137429Y29957143D01*
X-37251715Y29957143D01*
X-37423143Y29900000D01*
X-38108858Y29214286D01*
X-38108858Y29957143D01*
X-5605429Y25100000D02*
X-5548286Y25042858D01*
X-5491143Y24928572D01*
X-5491143Y24814286D01*
X-5548286Y24700000D01*
X-5605429Y24642858D01*
X-5719715Y24585715D01*
X-5834000Y24585715D01*
X-5948286Y24642858D01*
X-6005429Y24700000D01*
X-6062572Y24814286D01*
X-6062572Y24928572D01*
X-6005429Y25042858D01*
X-5948286Y25100000D01*
X-5491143Y25100000D02*
X-5948286Y25100000D01*
X-6005429Y25157143D01*
X-6005429Y25214286D01*
X-5948286Y25328572D01*
X-5834000Y25385715D01*
X-5548286Y25385715D01*
X-5376858Y25271429D01*
X-5262572Y25100000D01*
X-5205429Y24871429D01*
X-5262572Y24642858D01*
X-5376858Y24471429D01*
X-5548286Y24357143D01*
X-5776858Y24300000D01*
X-6005429Y24357143D01*
X-6176858Y24471429D01*
X-6291143Y24642858D01*
X-6348286Y24871429D01*
X-6291143Y25100000D01*
X-6176858Y25271429D01*
X-6176858Y25900000D02*
X-5376858Y25900000D01*
X-5491143Y25900000D02*
X-5434000Y25957143D01*
X-5376858Y26071429D01*
X-5376858Y26242858D01*
X-5434000Y26357143D01*
X-5548286Y26414286D01*
X-6176858Y26414286D01*
X-5548286Y26414286D02*
X-5434000Y26471429D01*
X-5376858Y26585715D01*
X-5376858Y26757143D01*
X-5434000Y26871429D01*
X-5548286Y26928572D01*
X-6176858Y26928572D01*
X-6176858Y28014286D02*
X-5548286Y28014286D01*
X-5434000Y27957143D01*
X-5376858Y27842858D01*
X-5376858Y27614286D01*
X-5434000Y27500000D01*
X-6119715Y28014286D02*
X-6176858Y27900000D01*
X-6176858Y27614286D01*
X-6119715Y27500000D01*
X-6005429Y27442858D01*
X-5891143Y27442858D01*
X-5776858Y27500000D01*
X-5719715Y27614286D01*
X-5719715Y27900000D01*
X-5662572Y28014286D01*
X-6176858Y28585715D02*
X-5376858Y28585715D01*
X-5605429Y28585715D02*
X-5491143Y28642858D01*
X-5434000Y28700000D01*
X-5376858Y28814286D01*
X-5376858Y28928572D01*
X-6176858Y29328572D02*
X-4976858Y29328572D01*
X-5719715Y29442858D02*
X-6176858Y29785715D01*
X-5376858Y29785715D02*
X-5834000Y29328572D01*
X-6176858Y30185715D02*
X-5376858Y30814286D01*
X-5376858Y30185715D02*
X-6176858Y30814286D01*
X-6176858Y31271429D02*
X-5376858Y31271429D01*
X-5605429Y31271429D02*
X-5491143Y31328572D01*
X-5434000Y31385715D01*
X-5376858Y31500000D01*
X-5376858Y31614286D01*
X-7023143Y25842858D02*
X-6966000Y25900000D01*
X-6908858Y26014286D01*
X-6908858Y26300000D01*
X-6966000Y26414286D01*
X-7023143Y26471429D01*
X-7137429Y26528572D01*
X-7251715Y26528572D01*
X-7423143Y26471429D01*
X-8108858Y25785715D01*
X-8108858Y26528572D01*
X-6908858Y27271429D02*
X-6908858Y27385715D01*
X-6966000Y27500000D01*
X-7023143Y27557143D01*
X-7137429Y27614286D01*
X-7366000Y27671429D01*
X-7651715Y27671429D01*
X-7880286Y27614286D01*
X-7994572Y27557143D01*
X-8051715Y27500000D01*
X-8108858Y27385715D01*
X-8108858Y27271429D01*
X-8051715Y27157143D01*
X-7994572Y27100000D01*
X-7880286Y27042858D01*
X-7651715Y26985715D01*
X-7366000Y26985715D01*
X-7137429Y27042858D01*
X-7023143Y27100000D01*
X-6966000Y27157143D01*
X-6908858Y27271429D01*
X-7023143Y28128572D02*
X-6966000Y28185715D01*
X-6908858Y28300000D01*
X-6908858Y28585715D01*
X-6966000Y28700000D01*
X-7023143Y28757143D01*
X-7137429Y28814286D01*
X-7251715Y28814286D01*
X-7423143Y28757143D01*
X-8108858Y28071429D01*
X-8108858Y28814286D01*
X-7023143Y29271429D02*
X-6966000Y29328572D01*
X-6908858Y29442858D01*
X-6908858Y29728572D01*
X-6966000Y29842858D01*
X-7023143Y29900000D01*
X-7137429Y29957143D01*
X-7251715Y29957143D01*
X-7423143Y29900000D01*
X-8108858Y29214286D01*
X-8108858Y29957143D01*
X24394571Y53100000D02*
X24451714Y53042858D01*
X24508857Y52928572D01*
X24508857Y52814286D01*
X24451714Y52700000D01*
X24394571Y52642858D01*
X24280285Y52585715D01*
X24166000Y52585715D01*
X24051714Y52642858D01*
X23994571Y52700000D01*
X23937428Y52814286D01*
X23937428Y52928572D01*
X23994571Y53042858D01*
X24051714Y53100000D01*
X24508857Y53100000D02*
X24051714Y53100000D01*
X23994571Y53157143D01*
X23994571Y53214286D01*
X24051714Y53328572D01*
X24166000Y53385715D01*
X24451714Y53385715D01*
X24623142Y53271429D01*
X24737428Y53100000D01*
X24794571Y52871429D01*
X24737428Y52642858D01*
X24623142Y52471429D01*
X24451714Y52357143D01*
X24223142Y52300000D01*
X23994571Y52357143D01*
X23823142Y52471429D01*
X23708857Y52642858D01*
X23651714Y52871429D01*
X23708857Y53100000D01*
X23823142Y53271429D01*
X23823142Y53900000D02*
X24623142Y53900000D01*
X24508857Y53900000D02*
X24566000Y53957143D01*
X24623142Y54071429D01*
X24623142Y54242858D01*
X24566000Y54357143D01*
X24451714Y54414286D01*
X23823142Y54414286D01*
X24451714Y54414286D02*
X24566000Y54471429D01*
X24623142Y54585715D01*
X24623142Y54757143D01*
X24566000Y54871429D01*
X24451714Y54928572D01*
X23823142Y54928572D01*
X23823142Y56014286D02*
X24451714Y56014286D01*
X24566000Y55957143D01*
X24623142Y55842858D01*
X24623142Y55614286D01*
X24566000Y55500000D01*
X23880285Y56014286D02*
X23823142Y55900000D01*
X23823142Y55614286D01*
X23880285Y55500000D01*
X23994571Y55442858D01*
X24108857Y55442858D01*
X24223142Y55500000D01*
X24280285Y55614286D01*
X24280285Y55900000D01*
X24337428Y56014286D01*
X23823142Y56585715D02*
X24623142Y56585715D01*
X24394571Y56585715D02*
X24508857Y56642858D01*
X24566000Y56700000D01*
X24623142Y56814286D01*
X24623142Y56928572D01*
X23823142Y57328572D02*
X25023142Y57328572D01*
X24280285Y57442858D02*
X23823142Y57785715D01*
X24623142Y57785715D02*
X24166000Y57328572D01*
X23823142Y58185715D02*
X24623142Y58814286D01*
X24623142Y58185715D02*
X23823142Y58814286D01*
X23823142Y59271429D02*
X24623142Y59271429D01*
X24394571Y59271429D02*
X24508857Y59328572D01*
X24566000Y59385715D01*
X24623142Y59500000D01*
X24623142Y59614286D01*
X22976857Y53842858D02*
X23034000Y53900000D01*
X23091142Y54014286D01*
X23091142Y54300000D01*
X23034000Y54414286D01*
X22976857Y54471429D01*
X22862571Y54528572D01*
X22748285Y54528572D01*
X22576857Y54471429D01*
X21891142Y53785715D01*
X21891142Y54528572D01*
X23091142Y55271429D02*
X23091142Y55385715D01*
X23034000Y55500000D01*
X22976857Y55557143D01*
X22862571Y55614286D01*
X22634000Y55671429D01*
X22348285Y55671429D01*
X22119714Y55614286D01*
X22005428Y55557143D01*
X21948285Y55500000D01*
X21891142Y55385715D01*
X21891142Y55271429D01*
X21948285Y55157143D01*
X22005428Y55100000D01*
X22119714Y55042858D01*
X22348285Y54985715D01*
X22634000Y54985715D01*
X22862571Y55042858D01*
X22976857Y55100000D01*
X23034000Y55157143D01*
X23091142Y55271429D01*
X22976857Y56128572D02*
X23034000Y56185715D01*
X23091142Y56300000D01*
X23091142Y56585715D01*
X23034000Y56700000D01*
X22976857Y56757143D01*
X22862571Y56814286D01*
X22748285Y56814286D01*
X22576857Y56757143D01*
X21891142Y56071429D01*
X21891142Y56814286D01*
X22976857Y57271429D02*
X23034000Y57328572D01*
X23091142Y57442858D01*
X23091142Y57728572D01*
X23034000Y57842858D01*
X22976857Y57900000D01*
X22862571Y57957143D01*
X22748285Y57957143D01*
X22576857Y57900000D01*
X21891142Y57214286D01*
X21891142Y57957143D01*
X-5605429Y-2900000D02*
X-5548286Y-2957142D01*
X-5491143Y-3071428D01*
X-5491143Y-3185714D01*
X-5548286Y-3300000D01*
X-5605429Y-3357142D01*
X-5719715Y-3414285D01*
X-5834000Y-3414285D01*
X-5948286Y-3357142D01*
X-6005429Y-3300000D01*
X-6062572Y-3185714D01*
X-6062572Y-3071428D01*
X-6005429Y-2957142D01*
X-5948286Y-2900000D01*
X-5491143Y-2900000D02*
X-5948286Y-2900000D01*
X-6005429Y-2842857D01*
X-6005429Y-2785714D01*
X-5948286Y-2671428D01*
X-5834000Y-2614285D01*
X-5548286Y-2614285D01*
X-5376858Y-2728571D01*
X-5262572Y-2900000D01*
X-5205429Y-3128571D01*
X-5262572Y-3357142D01*
X-5376858Y-3528571D01*
X-5548286Y-3642857D01*
X-5776858Y-3700000D01*
X-6005429Y-3642857D01*
X-6176858Y-3528571D01*
X-6291143Y-3357142D01*
X-6348286Y-3128571D01*
X-6291143Y-2900000D01*
X-6176858Y-2728571D01*
X-6176858Y-2100000D02*
X-5376858Y-2100000D01*
X-5491143Y-2100000D02*
X-5434000Y-2042857D01*
X-5376858Y-1928571D01*
X-5376858Y-1757142D01*
X-5434000Y-1642857D01*
X-5548286Y-1585714D01*
X-6176858Y-1585714D01*
X-5548286Y-1585714D02*
X-5434000Y-1528571D01*
X-5376858Y-1414285D01*
X-5376858Y-1242857D01*
X-5434000Y-1128571D01*
X-5548286Y-1071428D01*
X-6176858Y-1071428D01*
X-6176858Y14286D02*
X-5548286Y14286D01*
X-5434000Y-42857D01*
X-5376858Y-157142D01*
X-5376858Y-385714D01*
X-5434000Y-500000D01*
X-6119715Y14286D02*
X-6176858Y-100000D01*
X-6176858Y-385714D01*
X-6119715Y-500000D01*
X-6005429Y-557142D01*
X-5891143Y-557142D01*
X-5776858Y-500000D01*
X-5719715Y-385714D01*
X-5719715Y-100000D01*
X-5662572Y14286D01*
X-6176858Y585715D02*
X-5376858Y585715D01*
X-5605429Y585715D02*
X-5491143Y642858D01*
X-5434000Y700000D01*
X-5376858Y814286D01*
X-5376858Y928572D01*
X-6176858Y1328572D02*
X-4976858Y1328572D01*
X-5719715Y1442858D02*
X-6176858Y1785715D01*
X-5376858Y1785715D02*
X-5834000Y1328572D01*
X-6176858Y2185715D02*
X-5376858Y2814286D01*
X-5376858Y2185715D02*
X-6176858Y2814286D01*
X-6176858Y3271429D02*
X-5376858Y3271429D01*
X-5605429Y3271429D02*
X-5491143Y3328572D01*
X-5434000Y3385715D01*
X-5376858Y3500000D01*
X-5376858Y3614286D01*
X-7023143Y-2157142D02*
X-6966000Y-2100000D01*
X-6908858Y-1985714D01*
X-6908858Y-1700000D01*
X-6966000Y-1585714D01*
X-7023143Y-1528571D01*
X-7137429Y-1471428D01*
X-7251715Y-1471428D01*
X-7423143Y-1528571D01*
X-8108858Y-2214285D01*
X-8108858Y-1471428D01*
X-6908858Y-728571D02*
X-6908858Y-614285D01*
X-6966000Y-500000D01*
X-7023143Y-442857D01*
X-7137429Y-385714D01*
X-7366000Y-328571D01*
X-7651715Y-328571D01*
X-7880286Y-385714D01*
X-7994572Y-442857D01*
X-8051715Y-500000D01*
X-8108858Y-614285D01*
X-8108858Y-728571D01*
X-8051715Y-842857D01*
X-7994572Y-900000D01*
X-7880286Y-957142D01*
X-7651715Y-1014285D01*
X-7366000Y-1014285D01*
X-7137429Y-957142D01*
X-7023143Y-900000D01*
X-6966000Y-842857D01*
X-6908858Y-728571D01*
X-7023143Y128572D02*
X-6966000Y185715D01*
X-6908858Y300000D01*
X-6908858Y585715D01*
X-6966000Y700000D01*
X-7023143Y757143D01*
X-7137429Y814286D01*
X-7251715Y814286D01*
X-7423143Y757143D01*
X-8108858Y71429D01*
X-8108858Y814286D01*
X-7023143Y1271429D02*
X-6966000Y1328572D01*
X-6908858Y1442858D01*
X-6908858Y1728572D01*
X-6966000Y1842858D01*
X-7023143Y1900000D01*
X-7137429Y1957143D01*
X-7251715Y1957143D01*
X-7423143Y1900000D01*
X-8108858Y1214286D01*
X-8108858Y1957143D01*
X-35605429Y53100000D02*
X-35548286Y53042858D01*
X-35491143Y52928572D01*
X-35491143Y52814286D01*
X-35548286Y52700000D01*
X-35605429Y52642858D01*
X-35719715Y52585715D01*
X-35834000Y52585715D01*
X-35948286Y52642858D01*
X-36005429Y52700000D01*
X-36062572Y52814286D01*
X-36062572Y52928572D01*
X-36005429Y53042858D01*
X-35948286Y53100000D01*
X-35491143Y53100000D02*
X-35948286Y53100000D01*
X-36005429Y53157143D01*
X-36005429Y53214286D01*
X-35948286Y53328572D01*
X-35834000Y53385715D01*
X-35548286Y53385715D01*
X-35376858Y53271429D01*
X-35262572Y53100000D01*
X-35205429Y52871429D01*
X-35262572Y52642858D01*
X-35376858Y52471429D01*
X-35548286Y52357143D01*
X-35776858Y52300000D01*
X-36005429Y52357143D01*
X-36176858Y52471429D01*
X-36291143Y52642858D01*
X-36348286Y52871429D01*
X-36291143Y53100000D01*
X-36176858Y53271429D01*
X-36176858Y53900000D02*
X-35376858Y53900000D01*
X-35491143Y53900000D02*
X-35434000Y53957143D01*
X-35376858Y54071429D01*
X-35376858Y54242858D01*
X-35434000Y54357143D01*
X-35548286Y54414286D01*
X-36176858Y54414286D01*
X-35548286Y54414286D02*
X-35434000Y54471429D01*
X-35376858Y54585715D01*
X-35376858Y54757143D01*
X-35434000Y54871429D01*
X-35548286Y54928572D01*
X-36176858Y54928572D01*
X-36176858Y56014286D02*
X-35548286Y56014286D01*
X-35434000Y55957143D01*
X-35376858Y55842858D01*
X-35376858Y55614286D01*
X-35434000Y55500000D01*
X-36119715Y56014286D02*
X-36176858Y55900000D01*
X-36176858Y55614286D01*
X-36119715Y55500000D01*
X-36005429Y55442858D01*
X-35891143Y55442858D01*
X-35776858Y55500000D01*
X-35719715Y55614286D01*
X-35719715Y55900000D01*
X-35662572Y56014286D01*
X-36176858Y56585715D02*
X-35376858Y56585715D01*
X-35605429Y56585715D02*
X-35491143Y56642858D01*
X-35434000Y56700000D01*
X-35376858Y56814286D01*
X-35376858Y56928572D01*
X-36176858Y57328572D02*
X-34976858Y57328572D01*
X-35719715Y57442858D02*
X-36176858Y57785715D01*
X-35376858Y57785715D02*
X-35834000Y57328572D01*
X-36176858Y58185715D02*
X-35376858Y58814286D01*
X-35376858Y58185715D02*
X-36176858Y58814286D01*
X-36176858Y59271429D02*
X-35376858Y59271429D01*
X-35605429Y59271429D02*
X-35491143Y59328572D01*
X-35434000Y59385715D01*
X-35376858Y59500000D01*
X-35376858Y59614286D01*
X-37023143Y53842858D02*
X-36966000Y53900000D01*
X-36908858Y54014286D01*
X-36908858Y54300000D01*
X-36966000Y54414286D01*
X-37023143Y54471429D01*
X-37137429Y54528572D01*
X-37251715Y54528572D01*
X-37423143Y54471429D01*
X-38108858Y53785715D01*
X-38108858Y54528572D01*
X-36908858Y55271429D02*
X-36908858Y55385715D01*
X-36966000Y55500000D01*
X-37023143Y55557143D01*
X-37137429Y55614286D01*
X-37366000Y55671429D01*
X-37651715Y55671429D01*
X-37880286Y55614286D01*
X-37994572Y55557143D01*
X-38051715Y55500000D01*
X-38108858Y55385715D01*
X-38108858Y55271429D01*
X-38051715Y55157143D01*
X-37994572Y55100000D01*
X-37880286Y55042858D01*
X-37651715Y54985715D01*
X-37366000Y54985715D01*
X-37137429Y55042858D01*
X-37023143Y55100000D01*
X-36966000Y55157143D01*
X-36908858Y55271429D01*
X-37023143Y56128572D02*
X-36966000Y56185715D01*
X-36908858Y56300000D01*
X-36908858Y56585715D01*
X-36966000Y56700000D01*
X-37023143Y56757143D01*
X-37137429Y56814286D01*
X-37251715Y56814286D01*
X-37423143Y56757143D01*
X-38108858Y56071429D01*
X-38108858Y56814286D01*
X-37023143Y57271429D02*
X-36966000Y57328572D01*
X-36908858Y57442858D01*
X-36908858Y57728572D01*
X-36966000Y57842858D01*
X-37023143Y57900000D01*
X-37137429Y57957143D01*
X-37251715Y57957143D01*
X-37423143Y57900000D01*
X-38108858Y57214286D01*
X-38108858Y57957143D01*
X24394571Y39100000D02*
X24451714Y39042858D01*
X24508857Y38928572D01*
X24508857Y38814286D01*
X24451714Y38700000D01*
X24394571Y38642858D01*
X24280285Y38585715D01*
X24166000Y38585715D01*
X24051714Y38642858D01*
X23994571Y38700000D01*
X23937428Y38814286D01*
X23937428Y38928572D01*
X23994571Y39042858D01*
X24051714Y39100000D01*
X24508857Y39100000D02*
X24051714Y39100000D01*
X23994571Y39157143D01*
X23994571Y39214286D01*
X24051714Y39328572D01*
X24166000Y39385715D01*
X24451714Y39385715D01*
X24623142Y39271429D01*
X24737428Y39100000D01*
X24794571Y38871429D01*
X24737428Y38642858D01*
X24623142Y38471429D01*
X24451714Y38357143D01*
X24223142Y38300000D01*
X23994571Y38357143D01*
X23823142Y38471429D01*
X23708857Y38642858D01*
X23651714Y38871429D01*
X23708857Y39100000D01*
X23823142Y39271429D01*
X23823142Y39900000D02*
X24623142Y39900000D01*
X24508857Y39900000D02*
X24566000Y39957143D01*
X24623142Y40071429D01*
X24623142Y40242858D01*
X24566000Y40357143D01*
X24451714Y40414286D01*
X23823142Y40414286D01*
X24451714Y40414286D02*
X24566000Y40471429D01*
X24623142Y40585715D01*
X24623142Y40757143D01*
X24566000Y40871429D01*
X24451714Y40928572D01*
X23823142Y40928572D01*
X23823142Y42014286D02*
X24451714Y42014286D01*
X24566000Y41957143D01*
X24623142Y41842858D01*
X24623142Y41614286D01*
X24566000Y41500000D01*
X23880285Y42014286D02*
X23823142Y41900000D01*
X23823142Y41614286D01*
X23880285Y41500000D01*
X23994571Y41442858D01*
X24108857Y41442858D01*
X24223142Y41500000D01*
X24280285Y41614286D01*
X24280285Y41900000D01*
X24337428Y42014286D01*
X23823142Y42585715D02*
X24623142Y42585715D01*
X24394571Y42585715D02*
X24508857Y42642858D01*
X24566000Y42700000D01*
X24623142Y42814286D01*
X24623142Y42928572D01*
X23823142Y43328572D02*
X25023142Y43328572D01*
X24280285Y43442858D02*
X23823142Y43785715D01*
X24623142Y43785715D02*
X24166000Y43328572D01*
X23823142Y44185715D02*
X24623142Y44814286D01*
X24623142Y44185715D02*
X23823142Y44814286D01*
X23823142Y45271429D02*
X24623142Y45271429D01*
X24394571Y45271429D02*
X24508857Y45328572D01*
X24566000Y45385715D01*
X24623142Y45500000D01*
X24623142Y45614286D01*
X22976857Y39842858D02*
X23034000Y39900000D01*
X23091142Y40014286D01*
X23091142Y40300000D01*
X23034000Y40414286D01*
X22976857Y40471429D01*
X22862571Y40528572D01*
X22748285Y40528572D01*
X22576857Y40471429D01*
X21891142Y39785715D01*
X21891142Y40528572D01*
X23091142Y41271429D02*
X23091142Y41385715D01*
X23034000Y41500000D01*
X22976857Y41557143D01*
X22862571Y41614286D01*
X22634000Y41671429D01*
X22348285Y41671429D01*
X22119714Y41614286D01*
X22005428Y41557143D01*
X21948285Y41500000D01*
X21891142Y41385715D01*
X21891142Y41271429D01*
X21948285Y41157143D01*
X22005428Y41100000D01*
X22119714Y41042858D01*
X22348285Y40985715D01*
X22634000Y40985715D01*
X22862571Y41042858D01*
X22976857Y41100000D01*
X23034000Y41157143D01*
X23091142Y41271429D01*
X22976857Y42128572D02*
X23034000Y42185715D01*
X23091142Y42300000D01*
X23091142Y42585715D01*
X23034000Y42700000D01*
X22976857Y42757143D01*
X22862571Y42814286D01*
X22748285Y42814286D01*
X22576857Y42757143D01*
X21891142Y42071429D01*
X21891142Y42814286D01*
X22976857Y43271429D02*
X23034000Y43328572D01*
X23091142Y43442858D01*
X23091142Y43728572D01*
X23034000Y43842858D01*
X22976857Y43900000D01*
X22862571Y43957143D01*
X22748285Y43957143D01*
X22576857Y43900000D01*
X21891142Y43214286D01*
X21891142Y43957143D01*
X-65605429Y39100000D02*
X-65548286Y39042858D01*
X-65491143Y38928572D01*
X-65491143Y38814286D01*
X-65548286Y38700000D01*
X-65605429Y38642858D01*
X-65719715Y38585715D01*
X-65834000Y38585715D01*
X-65948286Y38642858D01*
X-66005429Y38700000D01*
X-66062572Y38814286D01*
X-66062572Y38928572D01*
X-66005429Y39042858D01*
X-65948286Y39100000D01*
X-65491143Y39100000D02*
X-65948286Y39100000D01*
X-66005429Y39157143D01*
X-66005429Y39214286D01*
X-65948286Y39328572D01*
X-65834000Y39385715D01*
X-65548286Y39385715D01*
X-65376858Y39271429D01*
X-65262572Y39100000D01*
X-65205429Y38871429D01*
X-65262572Y38642858D01*
X-65376858Y38471429D01*
X-65548286Y38357143D01*
X-65776858Y38300000D01*
X-66005429Y38357143D01*
X-66176858Y38471429D01*
X-66291143Y38642858D01*
X-66348286Y38871429D01*
X-66291143Y39100000D01*
X-66176858Y39271429D01*
X-66176858Y39900000D02*
X-65376858Y39900000D01*
X-65491143Y39900000D02*
X-65434000Y39957143D01*
X-65376858Y40071429D01*
X-65376858Y40242858D01*
X-65434000Y40357143D01*
X-65548286Y40414286D01*
X-66176858Y40414286D01*
X-65548286Y40414286D02*
X-65434000Y40471429D01*
X-65376858Y40585715D01*
X-65376858Y40757143D01*
X-65434000Y40871429D01*
X-65548286Y40928572D01*
X-66176858Y40928572D01*
X-66176858Y42014286D02*
X-65548286Y42014286D01*
X-65434000Y41957143D01*
X-65376858Y41842858D01*
X-65376858Y41614286D01*
X-65434000Y41500000D01*
X-66119715Y42014286D02*
X-66176858Y41900000D01*
X-66176858Y41614286D01*
X-66119715Y41500000D01*
X-66005429Y41442858D01*
X-65891143Y41442858D01*
X-65776858Y41500000D01*
X-65719715Y41614286D01*
X-65719715Y41900000D01*
X-65662572Y42014286D01*
X-66176858Y42585715D02*
X-65376858Y42585715D01*
X-65605429Y42585715D02*
X-65491143Y42642858D01*
X-65434000Y42700000D01*
X-65376858Y42814286D01*
X-65376858Y42928572D01*
X-66176858Y43328572D02*
X-64976858Y43328572D01*
X-65719715Y43442858D02*
X-66176858Y43785715D01*
X-65376858Y43785715D02*
X-65834000Y43328572D01*
X-66176858Y44185715D02*
X-65376858Y44814286D01*
X-65376858Y44185715D02*
X-66176858Y44814286D01*
X-66176858Y45271429D02*
X-65376858Y45271429D01*
X-65605429Y45271429D02*
X-65491143Y45328572D01*
X-65434000Y45385715D01*
X-65376858Y45500000D01*
X-65376858Y45614286D01*
X-67023143Y39842858D02*
X-66966000Y39900000D01*
X-66908858Y40014286D01*
X-66908858Y40300000D01*
X-66966000Y40414286D01*
X-67023143Y40471429D01*
X-67137429Y40528572D01*
X-67251715Y40528572D01*
X-67423143Y40471429D01*
X-68108858Y39785715D01*
X-68108858Y40528572D01*
X-66908858Y41271429D02*
X-66908858Y41385715D01*
X-66966000Y41500000D01*
X-67023143Y41557143D01*
X-67137429Y41614286D01*
X-67366000Y41671429D01*
X-67651715Y41671429D01*
X-67880286Y41614286D01*
X-67994572Y41557143D01*
X-68051715Y41500000D01*
X-68108858Y41385715D01*
X-68108858Y41271429D01*
X-68051715Y41157143D01*
X-67994572Y41100000D01*
X-67880286Y41042858D01*
X-67651715Y40985715D01*
X-67366000Y40985715D01*
X-67137429Y41042858D01*
X-67023143Y41100000D01*
X-66966000Y41157143D01*
X-66908858Y41271429D01*
X-67023143Y42128572D02*
X-66966000Y42185715D01*
X-66908858Y42300000D01*
X-66908858Y42585715D01*
X-66966000Y42700000D01*
X-67023143Y42757143D01*
X-67137429Y42814286D01*
X-67251715Y42814286D01*
X-67423143Y42757143D01*
X-68108858Y42071429D01*
X-68108858Y42814286D01*
X-67023143Y43271429D02*
X-66966000Y43328572D01*
X-66908858Y43442858D01*
X-66908858Y43728572D01*
X-66966000Y43842858D01*
X-67023143Y43900000D01*
X-67137429Y43957143D01*
X-67251715Y43957143D01*
X-67423143Y43900000D01*
X-68108858Y43214286D01*
X-68108858Y43957143D01*
X-5605429Y53100000D02*
X-5548286Y53042858D01*
X-5491143Y52928572D01*
X-5491143Y52814286D01*
X-5548286Y52700000D01*
X-5605429Y52642858D01*
X-5719715Y52585715D01*
X-5834000Y52585715D01*
X-5948286Y52642858D01*
X-6005429Y52700000D01*
X-6062572Y52814286D01*
X-6062572Y52928572D01*
X-6005429Y53042858D01*
X-5948286Y53100000D01*
X-5491143Y53100000D02*
X-5948286Y53100000D01*
X-6005429Y53157143D01*
X-6005429Y53214286D01*
X-5948286Y53328572D01*
X-5834000Y53385715D01*
X-5548286Y53385715D01*
X-5376858Y53271429D01*
X-5262572Y53100000D01*
X-5205429Y52871429D01*
X-5262572Y52642858D01*
X-5376858Y52471429D01*
X-5548286Y52357143D01*
X-5776858Y52300000D01*
X-6005429Y52357143D01*
X-6176858Y52471429D01*
X-6291143Y52642858D01*
X-6348286Y52871429D01*
X-6291143Y53100000D01*
X-6176858Y53271429D01*
X-6176858Y53900000D02*
X-5376858Y53900000D01*
X-5491143Y53900000D02*
X-5434000Y53957143D01*
X-5376858Y54071429D01*
X-5376858Y54242858D01*
X-5434000Y54357143D01*
X-5548286Y54414286D01*
X-6176858Y54414286D01*
X-5548286Y54414286D02*
X-5434000Y54471429D01*
X-5376858Y54585715D01*
X-5376858Y54757143D01*
X-5434000Y54871429D01*
X-5548286Y54928572D01*
X-6176858Y54928572D01*
X-6176858Y56014286D02*
X-5548286Y56014286D01*
X-5434000Y55957143D01*
X-5376858Y55842858D01*
X-5376858Y55614286D01*
X-5434000Y55500000D01*
X-6119715Y56014286D02*
X-6176858Y55900000D01*
X-6176858Y55614286D01*
X-6119715Y55500000D01*
X-6005429Y55442858D01*
X-5891143Y55442858D01*
X-5776858Y55500000D01*
X-5719715Y55614286D01*
X-5719715Y55900000D01*
X-5662572Y56014286D01*
X-6176858Y56585715D02*
X-5376858Y56585715D01*
X-5605429Y56585715D02*
X-5491143Y56642858D01*
X-5434000Y56700000D01*
X-5376858Y56814286D01*
X-5376858Y56928572D01*
X-6176858Y57328572D02*
X-4976858Y57328572D01*
X-5719715Y57442858D02*
X-6176858Y57785715D01*
X-5376858Y57785715D02*
X-5834000Y57328572D01*
X-6176858Y58185715D02*
X-5376858Y58814286D01*
X-5376858Y58185715D02*
X-6176858Y58814286D01*
X-6176858Y59271429D02*
X-5376858Y59271429D01*
X-5605429Y59271429D02*
X-5491143Y59328572D01*
X-5434000Y59385715D01*
X-5376858Y59500000D01*
X-5376858Y59614286D01*
X-7023143Y53842858D02*
X-6966000Y53900000D01*
X-6908858Y54014286D01*
X-6908858Y54300000D01*
X-6966000Y54414286D01*
X-7023143Y54471429D01*
X-7137429Y54528572D01*
X-7251715Y54528572D01*
X-7423143Y54471429D01*
X-8108858Y53785715D01*
X-8108858Y54528572D01*
X-6908858Y55271429D02*
X-6908858Y55385715D01*
X-6966000Y55500000D01*
X-7023143Y55557143D01*
X-7137429Y55614286D01*
X-7366000Y55671429D01*
X-7651715Y55671429D01*
X-7880286Y55614286D01*
X-7994572Y55557143D01*
X-8051715Y55500000D01*
X-8108858Y55385715D01*
X-8108858Y55271429D01*
X-8051715Y55157143D01*
X-7994572Y55100000D01*
X-7880286Y55042858D01*
X-7651715Y54985715D01*
X-7366000Y54985715D01*
X-7137429Y55042858D01*
X-7023143Y55100000D01*
X-6966000Y55157143D01*
X-6908858Y55271429D01*
X-7023143Y56128572D02*
X-6966000Y56185715D01*
X-6908858Y56300000D01*
X-6908858Y56585715D01*
X-6966000Y56700000D01*
X-7023143Y56757143D01*
X-7137429Y56814286D01*
X-7251715Y56814286D01*
X-7423143Y56757143D01*
X-8108858Y56071429D01*
X-8108858Y56814286D01*
X-7023143Y57271429D02*
X-6966000Y57328572D01*
X-6908858Y57442858D01*
X-6908858Y57728572D01*
X-6966000Y57842858D01*
X-7023143Y57900000D01*
X-7137429Y57957143D01*
X-7251715Y57957143D01*
X-7423143Y57900000D01*
X-8108858Y57214286D01*
X-8108858Y57957143D01*
X-65605429Y-2900000D02*
X-65548286Y-2957142D01*
X-65491143Y-3071428D01*
X-65491143Y-3185714D01*
X-65548286Y-3300000D01*
X-65605429Y-3357142D01*
X-65719715Y-3414285D01*
X-65834000Y-3414285D01*
X-65948286Y-3357142D01*
X-66005429Y-3300000D01*
X-66062572Y-3185714D01*
X-66062572Y-3071428D01*
X-66005429Y-2957142D01*
X-65948286Y-2900000D01*
X-65491143Y-2900000D02*
X-65948286Y-2900000D01*
X-66005429Y-2842857D01*
X-66005429Y-2785714D01*
X-65948286Y-2671428D01*
X-65834000Y-2614285D01*
X-65548286Y-2614285D01*
X-65376858Y-2728571D01*
X-65262572Y-2900000D01*
X-65205429Y-3128571D01*
X-65262572Y-3357142D01*
X-65376858Y-3528571D01*
X-65548286Y-3642857D01*
X-65776858Y-3700000D01*
X-66005429Y-3642857D01*
X-66176858Y-3528571D01*
X-66291143Y-3357142D01*
X-66348286Y-3128571D01*
X-66291143Y-2900000D01*
X-66176858Y-2728571D01*
X-66176858Y-2100000D02*
X-65376858Y-2100000D01*
X-65491143Y-2100000D02*
X-65434000Y-2042857D01*
X-65376858Y-1928571D01*
X-65376858Y-1757142D01*
X-65434000Y-1642857D01*
X-65548286Y-1585714D01*
X-66176858Y-1585714D01*
X-65548286Y-1585714D02*
X-65434000Y-1528571D01*
X-65376858Y-1414285D01*
X-65376858Y-1242857D01*
X-65434000Y-1128571D01*
X-65548286Y-1071428D01*
X-66176858Y-1071428D01*
X-66176858Y14286D02*
X-65548286Y14286D01*
X-65434000Y-42857D01*
X-65376858Y-157142D01*
X-65376858Y-385714D01*
X-65434000Y-500000D01*
X-66119715Y14286D02*
X-66176858Y-100000D01*
X-66176858Y-385714D01*
X-66119715Y-500000D01*
X-66005429Y-557142D01*
X-65891143Y-557142D01*
X-65776858Y-500000D01*
X-65719715Y-385714D01*
X-65719715Y-100000D01*
X-65662572Y14286D01*
X-66176858Y585715D02*
X-65376858Y585715D01*
X-65605429Y585715D02*
X-65491143Y642858D01*
X-65434000Y700000D01*
X-65376858Y814286D01*
X-65376858Y928572D01*
X-66176858Y1328572D02*
X-64976858Y1328572D01*
X-65719715Y1442858D02*
X-66176858Y1785715D01*
X-65376858Y1785715D02*
X-65834000Y1328572D01*
X-66176858Y2185715D02*
X-65376858Y2814286D01*
X-65376858Y2185715D02*
X-66176858Y2814286D01*
X-66176858Y3271429D02*
X-65376858Y3271429D01*
X-65605429Y3271429D02*
X-65491143Y3328572D01*
X-65434000Y3385715D01*
X-65376858Y3500000D01*
X-65376858Y3614286D01*
X-67023143Y-2157142D02*
X-66966000Y-2100000D01*
X-66908858Y-1985714D01*
X-66908858Y-1700000D01*
X-66966000Y-1585714D01*
X-67023143Y-1528571D01*
X-67137429Y-1471428D01*
X-67251715Y-1471428D01*
X-67423143Y-1528571D01*
X-68108858Y-2214285D01*
X-68108858Y-1471428D01*
X-66908858Y-728571D02*
X-66908858Y-614285D01*
X-66966000Y-500000D01*
X-67023143Y-442857D01*
X-67137429Y-385714D01*
X-67366000Y-328571D01*
X-67651715Y-328571D01*
X-67880286Y-385714D01*
X-67994572Y-442857D01*
X-68051715Y-500000D01*
X-68108858Y-614285D01*
X-68108858Y-728571D01*
X-68051715Y-842857D01*
X-67994572Y-900000D01*
X-67880286Y-957142D01*
X-67651715Y-1014285D01*
X-67366000Y-1014285D01*
X-67137429Y-957142D01*
X-67023143Y-900000D01*
X-66966000Y-842857D01*
X-66908858Y-728571D01*
X-67023143Y128572D02*
X-66966000Y185715D01*
X-66908858Y300000D01*
X-66908858Y585715D01*
X-66966000Y700000D01*
X-67023143Y757143D01*
X-67137429Y814286D01*
X-67251715Y814286D01*
X-67423143Y757143D01*
X-68108858Y71429D01*
X-68108858Y814286D01*
X-67023143Y1271429D02*
X-66966000Y1328572D01*
X-66908858Y1442858D01*
X-66908858Y1728572D01*
X-66966000Y1842858D01*
X-67023143Y1900000D01*
X-67137429Y1957143D01*
X-67251715Y1957143D01*
X-67423143Y1900000D01*
X-68108858Y1214286D01*
X-68108858Y1957143D01*
X-65605429Y11100000D02*
X-65548286Y11042858D01*
X-65491143Y10928572D01*
X-65491143Y10814286D01*
X-65548286Y10700000D01*
X-65605429Y10642858D01*
X-65719715Y10585715D01*
X-65834000Y10585715D01*
X-65948286Y10642858D01*
X-66005429Y10700000D01*
X-66062572Y10814286D01*
X-66062572Y10928572D01*
X-66005429Y11042858D01*
X-65948286Y11100000D01*
X-65491143Y11100000D02*
X-65948286Y11100000D01*
X-66005429Y11157143D01*
X-66005429Y11214286D01*
X-65948286Y11328572D01*
X-65834000Y11385715D01*
X-65548286Y11385715D01*
X-65376858Y11271429D01*
X-65262572Y11100000D01*
X-65205429Y10871429D01*
X-65262572Y10642858D01*
X-65376858Y10471429D01*
X-65548286Y10357143D01*
X-65776858Y10300000D01*
X-66005429Y10357143D01*
X-66176858Y10471429D01*
X-66291143Y10642858D01*
X-66348286Y10871429D01*
X-66291143Y11100000D01*
X-66176858Y11271429D01*
X-66176858Y11900000D02*
X-65376858Y11900000D01*
X-65491143Y11900000D02*
X-65434000Y11957143D01*
X-65376858Y12071429D01*
X-65376858Y12242858D01*
X-65434000Y12357143D01*
X-65548286Y12414286D01*
X-66176858Y12414286D01*
X-65548286Y12414286D02*
X-65434000Y12471429D01*
X-65376858Y12585715D01*
X-65376858Y12757143D01*
X-65434000Y12871429D01*
X-65548286Y12928572D01*
X-66176858Y12928572D01*
X-66176858Y14014286D02*
X-65548286Y14014286D01*
X-65434000Y13957143D01*
X-65376858Y13842858D01*
X-65376858Y13614286D01*
X-65434000Y13500000D01*
X-66119715Y14014286D02*
X-66176858Y13900000D01*
X-66176858Y13614286D01*
X-66119715Y13500000D01*
X-66005429Y13442858D01*
X-65891143Y13442858D01*
X-65776858Y13500000D01*
X-65719715Y13614286D01*
X-65719715Y13900000D01*
X-65662572Y14014286D01*
X-66176858Y14585715D02*
X-65376858Y14585715D01*
X-65605429Y14585715D02*
X-65491143Y14642858D01*
X-65434000Y14700000D01*
X-65376858Y14814286D01*
X-65376858Y14928572D01*
X-66176858Y15328572D02*
X-64976858Y15328572D01*
X-65719715Y15442858D02*
X-66176858Y15785715D01*
X-65376858Y15785715D02*
X-65834000Y15328572D01*
X-66176858Y16185715D02*
X-65376858Y16814286D01*
X-65376858Y16185715D02*
X-66176858Y16814286D01*
X-66176858Y17271429D02*
X-65376858Y17271429D01*
X-65605429Y17271429D02*
X-65491143Y17328572D01*
X-65434000Y17385715D01*
X-65376858Y17500000D01*
X-65376858Y17614286D01*
X-67023143Y11842858D02*
X-66966000Y11900000D01*
X-66908858Y12014286D01*
X-66908858Y12300000D01*
X-66966000Y12414286D01*
X-67023143Y12471429D01*
X-67137429Y12528572D01*
X-67251715Y12528572D01*
X-67423143Y12471429D01*
X-68108858Y11785715D01*
X-68108858Y12528572D01*
X-66908858Y13271429D02*
X-66908858Y13385715D01*
X-66966000Y13500000D01*
X-67023143Y13557143D01*
X-67137429Y13614286D01*
X-67366000Y13671429D01*
X-67651715Y13671429D01*
X-67880286Y13614286D01*
X-67994572Y13557143D01*
X-68051715Y13500000D01*
X-68108858Y13385715D01*
X-68108858Y13271429D01*
X-68051715Y13157143D01*
X-67994572Y13100000D01*
X-67880286Y13042858D01*
X-67651715Y12985715D01*
X-67366000Y12985715D01*
X-67137429Y13042858D01*
X-67023143Y13100000D01*
X-66966000Y13157143D01*
X-66908858Y13271429D01*
X-67023143Y14128572D02*
X-66966000Y14185715D01*
X-66908858Y14300000D01*
X-66908858Y14585715D01*
X-66966000Y14700000D01*
X-67023143Y14757143D01*
X-67137429Y14814286D01*
X-67251715Y14814286D01*
X-67423143Y14757143D01*
X-68108858Y14071429D01*
X-68108858Y14814286D01*
X-67023143Y15271429D02*
X-66966000Y15328572D01*
X-66908858Y15442858D01*
X-66908858Y15728572D01*
X-66966000Y15842858D01*
X-67023143Y15900000D01*
X-67137429Y15957143D01*
X-67251715Y15957143D01*
X-67423143Y15900000D01*
X-68108858Y15214286D01*
X-68108858Y15957143D01*
X-35605429Y39100000D02*
X-35548286Y39042858D01*
X-35491143Y38928572D01*
X-35491143Y38814286D01*
X-35548286Y38700000D01*
X-35605429Y38642858D01*
X-35719715Y38585715D01*
X-35834000Y38585715D01*
X-35948286Y38642858D01*
X-36005429Y38700000D01*
X-36062572Y38814286D01*
X-36062572Y38928572D01*
X-36005429Y39042858D01*
X-35948286Y39100000D01*
X-35491143Y39100000D02*
X-35948286Y39100000D01*
X-36005429Y39157143D01*
X-36005429Y39214286D01*
X-35948286Y39328572D01*
X-35834000Y39385715D01*
X-35548286Y39385715D01*
X-35376858Y39271429D01*
X-35262572Y39100000D01*
X-35205429Y38871429D01*
X-35262572Y38642858D01*
X-35376858Y38471429D01*
X-35548286Y38357143D01*
X-35776858Y38300000D01*
X-36005429Y38357143D01*
X-36176858Y38471429D01*
X-36291143Y38642858D01*
X-36348286Y38871429D01*
X-36291143Y39100000D01*
X-36176858Y39271429D01*
X-36176858Y39900000D02*
X-35376858Y39900000D01*
X-35491143Y39900000D02*
X-35434000Y39957143D01*
X-35376858Y40071429D01*
X-35376858Y40242858D01*
X-35434000Y40357143D01*
X-35548286Y40414286D01*
X-36176858Y40414286D01*
X-35548286Y40414286D02*
X-35434000Y40471429D01*
X-35376858Y40585715D01*
X-35376858Y40757143D01*
X-35434000Y40871429D01*
X-35548286Y40928572D01*
X-36176858Y40928572D01*
X-36176858Y42014286D02*
X-35548286Y42014286D01*
X-35434000Y41957143D01*
X-35376858Y41842858D01*
X-35376858Y41614286D01*
X-35434000Y41500000D01*
X-36119715Y42014286D02*
X-36176858Y41900000D01*
X-36176858Y41614286D01*
X-36119715Y41500000D01*
X-36005429Y41442858D01*
X-35891143Y41442858D01*
X-35776858Y41500000D01*
X-35719715Y41614286D01*
X-35719715Y41900000D01*
X-35662572Y42014286D01*
X-36176858Y42585715D02*
X-35376858Y42585715D01*
X-35605429Y42585715D02*
X-35491143Y42642858D01*
X-35434000Y42700000D01*
X-35376858Y42814286D01*
X-35376858Y42928572D01*
X-36176858Y43328572D02*
X-34976858Y43328572D01*
X-35719715Y43442858D02*
X-36176858Y43785715D01*
X-35376858Y43785715D02*
X-35834000Y43328572D01*
X-36176858Y44185715D02*
X-35376858Y44814286D01*
X-35376858Y44185715D02*
X-36176858Y44814286D01*
X-36176858Y45271429D02*
X-35376858Y45271429D01*
X-35605429Y45271429D02*
X-35491143Y45328572D01*
X-35434000Y45385715D01*
X-35376858Y45500000D01*
X-35376858Y45614286D01*
X-37023143Y39842858D02*
X-36966000Y39900000D01*
X-36908858Y40014286D01*
X-36908858Y40300000D01*
X-36966000Y40414286D01*
X-37023143Y40471429D01*
X-37137429Y40528572D01*
X-37251715Y40528572D01*
X-37423143Y40471429D01*
X-38108858Y39785715D01*
X-38108858Y40528572D01*
X-36908858Y41271429D02*
X-36908858Y41385715D01*
X-36966000Y41500000D01*
X-37023143Y41557143D01*
X-37137429Y41614286D01*
X-37366000Y41671429D01*
X-37651715Y41671429D01*
X-37880286Y41614286D01*
X-37994572Y41557143D01*
X-38051715Y41500000D01*
X-38108858Y41385715D01*
X-38108858Y41271429D01*
X-38051715Y41157143D01*
X-37994572Y41100000D01*
X-37880286Y41042858D01*
X-37651715Y40985715D01*
X-37366000Y40985715D01*
X-37137429Y41042858D01*
X-37023143Y41100000D01*
X-36966000Y41157143D01*
X-36908858Y41271429D01*
X-37023143Y42128572D02*
X-36966000Y42185715D01*
X-36908858Y42300000D01*
X-36908858Y42585715D01*
X-36966000Y42700000D01*
X-37023143Y42757143D01*
X-37137429Y42814286D01*
X-37251715Y42814286D01*
X-37423143Y42757143D01*
X-38108858Y42071429D01*
X-38108858Y42814286D01*
X-37023143Y43271429D02*
X-36966000Y43328572D01*
X-36908858Y43442858D01*
X-36908858Y43728572D01*
X-36966000Y43842858D01*
X-37023143Y43900000D01*
X-37137429Y43957143D01*
X-37251715Y43957143D01*
X-37423143Y43900000D01*
X-38108858Y43214286D01*
X-38108858Y43957143D01*
X-35605429Y11100000D02*
X-35548286Y11042858D01*
X-35491143Y10928572D01*
X-35491143Y10814286D01*
X-35548286Y10700000D01*
X-35605429Y10642858D01*
X-35719715Y10585715D01*
X-35834000Y10585715D01*
X-35948286Y10642858D01*
X-36005429Y10700000D01*
X-36062572Y10814286D01*
X-36062572Y10928572D01*
X-36005429Y11042858D01*
X-35948286Y11100000D01*
X-35491143Y11100000D02*
X-35948286Y11100000D01*
X-36005429Y11157143D01*
X-36005429Y11214286D01*
X-35948286Y11328572D01*
X-35834000Y11385715D01*
X-35548286Y11385715D01*
X-35376858Y11271429D01*
X-35262572Y11100000D01*
X-35205429Y10871429D01*
X-35262572Y10642858D01*
X-35376858Y10471429D01*
X-35548286Y10357143D01*
X-35776858Y10300000D01*
X-36005429Y10357143D01*
X-36176858Y10471429D01*
X-36291143Y10642858D01*
X-36348286Y10871429D01*
X-36291143Y11100000D01*
X-36176858Y11271429D01*
X-36176858Y11900000D02*
X-35376858Y11900000D01*
X-35491143Y11900000D02*
X-35434000Y11957143D01*
X-35376858Y12071429D01*
X-35376858Y12242858D01*
X-35434000Y12357143D01*
X-35548286Y12414286D01*
X-36176858Y12414286D01*
X-35548286Y12414286D02*
X-35434000Y12471429D01*
X-35376858Y12585715D01*
X-35376858Y12757143D01*
X-35434000Y12871429D01*
X-35548286Y12928572D01*
X-36176858Y12928572D01*
X-36176858Y14014286D02*
X-35548286Y14014286D01*
X-35434000Y13957143D01*
X-35376858Y13842858D01*
X-35376858Y13614286D01*
X-35434000Y13500000D01*
X-36119715Y14014286D02*
X-36176858Y13900000D01*
X-36176858Y13614286D01*
X-36119715Y13500000D01*
X-36005429Y13442858D01*
X-35891143Y13442858D01*
X-35776858Y13500000D01*
X-35719715Y13614286D01*
X-35719715Y13900000D01*
X-35662572Y14014286D01*
X-36176858Y14585715D02*
X-35376858Y14585715D01*
X-35605429Y14585715D02*
X-35491143Y14642858D01*
X-35434000Y14700000D01*
X-35376858Y14814286D01*
X-35376858Y14928572D01*
X-36176858Y15328572D02*
X-34976858Y15328572D01*
X-35719715Y15442858D02*
X-36176858Y15785715D01*
X-35376858Y15785715D02*
X-35834000Y15328572D01*
X-36176858Y16185715D02*
X-35376858Y16814286D01*
X-35376858Y16185715D02*
X-36176858Y16814286D01*
X-36176858Y17271429D02*
X-35376858Y17271429D01*
X-35605429Y17271429D02*
X-35491143Y17328572D01*
X-35434000Y17385715D01*
X-35376858Y17500000D01*
X-35376858Y17614286D01*
X-37023143Y11842858D02*
X-36966000Y11900000D01*
X-36908858Y12014286D01*
X-36908858Y12300000D01*
X-36966000Y12414286D01*
X-37023143Y12471429D01*
X-37137429Y12528572D01*
X-37251715Y12528572D01*
X-37423143Y12471429D01*
X-38108858Y11785715D01*
X-38108858Y12528572D01*
X-36908858Y13271429D02*
X-36908858Y13385715D01*
X-36966000Y13500000D01*
X-37023143Y13557143D01*
X-37137429Y13614286D01*
X-37366000Y13671429D01*
X-37651715Y13671429D01*
X-37880286Y13614286D01*
X-37994572Y13557143D01*
X-38051715Y13500000D01*
X-38108858Y13385715D01*
X-38108858Y13271429D01*
X-38051715Y13157143D01*
X-37994572Y13100000D01*
X-37880286Y13042858D01*
X-37651715Y12985715D01*
X-37366000Y12985715D01*
X-37137429Y13042858D01*
X-37023143Y13100000D01*
X-36966000Y13157143D01*
X-36908858Y13271429D01*
X-37023143Y14128572D02*
X-36966000Y14185715D01*
X-36908858Y14300000D01*
X-36908858Y14585715D01*
X-36966000Y14700000D01*
X-37023143Y14757143D01*
X-37137429Y14814286D01*
X-37251715Y14814286D01*
X-37423143Y14757143D01*
X-38108858Y14071429D01*
X-38108858Y14814286D01*
X-37023143Y15271429D02*
X-36966000Y15328572D01*
X-36908858Y15442858D01*
X-36908858Y15728572D01*
X-36966000Y15842858D01*
X-37023143Y15900000D01*
X-37137429Y15957143D01*
X-37251715Y15957143D01*
X-37423143Y15900000D01*
X-38108858Y15214286D01*
X-38108858Y15957143D01*
X-5605429Y39100000D02*
X-5548286Y39042858D01*
X-5491143Y38928572D01*
X-5491143Y38814286D01*
X-5548286Y38700000D01*
X-5605429Y38642858D01*
X-5719715Y38585715D01*
X-5834000Y38585715D01*
X-5948286Y38642858D01*
X-6005429Y38700000D01*
X-6062572Y38814286D01*
X-6062572Y38928572D01*
X-6005429Y39042858D01*
X-5948286Y39100000D01*
X-5491143Y39100000D02*
X-5948286Y39100000D01*
X-6005429Y39157143D01*
X-6005429Y39214286D01*
X-5948286Y39328572D01*
X-5834000Y39385715D01*
X-5548286Y39385715D01*
X-5376858Y39271429D01*
X-5262572Y39100000D01*
X-5205429Y38871429D01*
X-5262572Y38642858D01*
X-5376858Y38471429D01*
X-5548286Y38357143D01*
X-5776858Y38300000D01*
X-6005429Y38357143D01*
X-6176858Y38471429D01*
X-6291143Y38642858D01*
X-6348286Y38871429D01*
X-6291143Y39100000D01*
X-6176858Y39271429D01*
X-6176858Y39900000D02*
X-5376858Y39900000D01*
X-5491143Y39900000D02*
X-5434000Y39957143D01*
X-5376858Y40071429D01*
X-5376858Y40242858D01*
X-5434000Y40357143D01*
X-5548286Y40414286D01*
X-6176858Y40414286D01*
X-5548286Y40414286D02*
X-5434000Y40471429D01*
X-5376858Y40585715D01*
X-5376858Y40757143D01*
X-5434000Y40871429D01*
X-5548286Y40928572D01*
X-6176858Y40928572D01*
X-6176858Y42014286D02*
X-5548286Y42014286D01*
X-5434000Y41957143D01*
X-5376858Y41842858D01*
X-5376858Y41614286D01*
X-5434000Y41500000D01*
X-6119715Y42014286D02*
X-6176858Y41900000D01*
X-6176858Y41614286D01*
X-6119715Y41500000D01*
X-6005429Y41442858D01*
X-5891143Y41442858D01*
X-5776858Y41500000D01*
X-5719715Y41614286D01*
X-5719715Y41900000D01*
X-5662572Y42014286D01*
X-6176858Y42585715D02*
X-5376858Y42585715D01*
X-5605429Y42585715D02*
X-5491143Y42642858D01*
X-5434000Y42700000D01*
X-5376858Y42814286D01*
X-5376858Y42928572D01*
X-6176858Y43328572D02*
X-4976858Y43328572D01*
X-5719715Y43442858D02*
X-6176858Y43785715D01*
X-5376858Y43785715D02*
X-5834000Y43328572D01*
X-6176858Y44185715D02*
X-5376858Y44814286D01*
X-5376858Y44185715D02*
X-6176858Y44814286D01*
X-6176858Y45271429D02*
X-5376858Y45271429D01*
X-5605429Y45271429D02*
X-5491143Y45328572D01*
X-5434000Y45385715D01*
X-5376858Y45500000D01*
X-5376858Y45614286D01*
X-7023143Y39842858D02*
X-6966000Y39900000D01*
X-6908858Y40014286D01*
X-6908858Y40300000D01*
X-6966000Y40414286D01*
X-7023143Y40471429D01*
X-7137429Y40528572D01*
X-7251715Y40528572D01*
X-7423143Y40471429D01*
X-8108858Y39785715D01*
X-8108858Y40528572D01*
X-6908858Y41271429D02*
X-6908858Y41385715D01*
X-6966000Y41500000D01*
X-7023143Y41557143D01*
X-7137429Y41614286D01*
X-7366000Y41671429D01*
X-7651715Y41671429D01*
X-7880286Y41614286D01*
X-7994572Y41557143D01*
X-8051715Y41500000D01*
X-8108858Y41385715D01*
X-8108858Y41271429D01*
X-8051715Y41157143D01*
X-7994572Y41100000D01*
X-7880286Y41042858D01*
X-7651715Y40985715D01*
X-7366000Y40985715D01*
X-7137429Y41042858D01*
X-7023143Y41100000D01*
X-6966000Y41157143D01*
X-6908858Y41271429D01*
X-7023143Y42128572D02*
X-6966000Y42185715D01*
X-6908858Y42300000D01*
X-6908858Y42585715D01*
X-6966000Y42700000D01*
X-7023143Y42757143D01*
X-7137429Y42814286D01*
X-7251715Y42814286D01*
X-7423143Y42757143D01*
X-8108858Y42071429D01*
X-8108858Y42814286D01*
X-7023143Y43271429D02*
X-6966000Y43328572D01*
X-6908858Y43442858D01*
X-6908858Y43728572D01*
X-6966000Y43842858D01*
X-7023143Y43900000D01*
X-7137429Y43957143D01*
X-7251715Y43957143D01*
X-7423143Y43900000D01*
X-8108858Y43214286D01*
X-8108858Y43957143D01*
X-65605429Y25100000D02*
X-65548286Y25042858D01*
X-65491143Y24928572D01*
X-65491143Y24814286D01*
X-65548286Y24700000D01*
X-65605429Y24642858D01*
X-65719715Y24585715D01*
X-65834000Y24585715D01*
X-65948286Y24642858D01*
X-66005429Y24700000D01*
X-66062572Y24814286D01*
X-66062572Y24928572D01*
X-66005429Y25042858D01*
X-65948286Y25100000D01*
X-65491143Y25100000D02*
X-65948286Y25100000D01*
X-66005429Y25157143D01*
X-66005429Y25214286D01*
X-65948286Y25328572D01*
X-65834000Y25385715D01*
X-65548286Y25385715D01*
X-65376858Y25271429D01*
X-65262572Y25100000D01*
X-65205429Y24871429D01*
X-65262572Y24642858D01*
X-65376858Y24471429D01*
X-65548286Y24357143D01*
X-65776858Y24300000D01*
X-66005429Y24357143D01*
X-66176858Y24471429D01*
X-66291143Y24642858D01*
X-66348286Y24871429D01*
X-66291143Y25100000D01*
X-66176858Y25271429D01*
X-66176858Y25900000D02*
X-65376858Y25900000D01*
X-65491143Y25900000D02*
X-65434000Y25957143D01*
X-65376858Y26071429D01*
X-65376858Y26242858D01*
X-65434000Y26357143D01*
X-65548286Y26414286D01*
X-66176858Y26414286D01*
X-65548286Y26414286D02*
X-65434000Y26471429D01*
X-65376858Y26585715D01*
X-65376858Y26757143D01*
X-65434000Y26871429D01*
X-65548286Y26928572D01*
X-66176858Y26928572D01*
X-66176858Y28014286D02*
X-65548286Y28014286D01*
X-65434000Y27957143D01*
X-65376858Y27842858D01*
X-65376858Y27614286D01*
X-65434000Y27500000D01*
X-66119715Y28014286D02*
X-66176858Y27900000D01*
X-66176858Y27614286D01*
X-66119715Y27500000D01*
X-66005429Y27442858D01*
X-65891143Y27442858D01*
X-65776858Y27500000D01*
X-65719715Y27614286D01*
X-65719715Y27900000D01*
X-65662572Y28014286D01*
X-66176858Y28585715D02*
X-65376858Y28585715D01*
X-65605429Y28585715D02*
X-65491143Y28642858D01*
X-65434000Y28700000D01*
X-65376858Y28814286D01*
X-65376858Y28928572D01*
X-66176858Y29328572D02*
X-64976858Y29328572D01*
X-65719715Y29442858D02*
X-66176858Y29785715D01*
X-65376858Y29785715D02*
X-65834000Y29328572D01*
X-66176858Y30185715D02*
X-65376858Y30814286D01*
X-65376858Y30185715D02*
X-66176858Y30814286D01*
X-66176858Y31271429D02*
X-65376858Y31271429D01*
X-65605429Y31271429D02*
X-65491143Y31328572D01*
X-65434000Y31385715D01*
X-65376858Y31500000D01*
X-65376858Y31614286D01*
X-67023143Y25842858D02*
X-66966000Y25900000D01*
X-66908858Y26014286D01*
X-66908858Y26300000D01*
X-66966000Y26414286D01*
X-67023143Y26471429D01*
X-67137429Y26528572D01*
X-67251715Y26528572D01*
X-67423143Y26471429D01*
X-68108858Y25785715D01*
X-68108858Y26528572D01*
X-66908858Y27271429D02*
X-66908858Y27385715D01*
X-66966000Y27500000D01*
X-67023143Y27557143D01*
X-67137429Y27614286D01*
X-67366000Y27671429D01*
X-67651715Y27671429D01*
X-67880286Y27614286D01*
X-67994572Y27557143D01*
X-68051715Y27500000D01*
X-68108858Y27385715D01*
X-68108858Y27271429D01*
X-68051715Y27157143D01*
X-67994572Y27100000D01*
X-67880286Y27042858D01*
X-67651715Y26985715D01*
X-67366000Y26985715D01*
X-67137429Y27042858D01*
X-67023143Y27100000D01*
X-66966000Y27157143D01*
X-66908858Y27271429D01*
X-67023143Y28128572D02*
X-66966000Y28185715D01*
X-66908858Y28300000D01*
X-66908858Y28585715D01*
X-66966000Y28700000D01*
X-67023143Y28757143D01*
X-67137429Y28814286D01*
X-67251715Y28814286D01*
X-67423143Y28757143D01*
X-68108858Y28071429D01*
X-68108858Y28814286D01*
X-67023143Y29271429D02*
X-66966000Y29328572D01*
X-66908858Y29442858D01*
X-66908858Y29728572D01*
X-66966000Y29842858D01*
X-67023143Y29900000D01*
X-67137429Y29957143D01*
X-67251715Y29957143D01*
X-67423143Y29900000D01*
X-68108858Y29214286D01*
X-68108858Y29957143D01*
X24394571Y11100000D02*
X24451714Y11042858D01*
X24508857Y10928572D01*
X24508857Y10814286D01*
X24451714Y10700000D01*
X24394571Y10642858D01*
X24280285Y10585715D01*
X24166000Y10585715D01*
X24051714Y10642858D01*
X23994571Y10700000D01*
X23937428Y10814286D01*
X23937428Y10928572D01*
X23994571Y11042858D01*
X24051714Y11100000D01*
X24508857Y11100000D02*
X24051714Y11100000D01*
X23994571Y11157143D01*
X23994571Y11214286D01*
X24051714Y11328572D01*
X24166000Y11385715D01*
X24451714Y11385715D01*
X24623142Y11271429D01*
X24737428Y11100000D01*
X24794571Y10871429D01*
X24737428Y10642858D01*
X24623142Y10471429D01*
X24451714Y10357143D01*
X24223142Y10300000D01*
X23994571Y10357143D01*
X23823142Y10471429D01*
X23708857Y10642858D01*
X23651714Y10871429D01*
X23708857Y11100000D01*
X23823142Y11271429D01*
X23823142Y11900000D02*
X24623142Y11900000D01*
X24508857Y11900000D02*
X24566000Y11957143D01*
X24623142Y12071429D01*
X24623142Y12242858D01*
X24566000Y12357143D01*
X24451714Y12414286D01*
X23823142Y12414286D01*
X24451714Y12414286D02*
X24566000Y12471429D01*
X24623142Y12585715D01*
X24623142Y12757143D01*
X24566000Y12871429D01*
X24451714Y12928572D01*
X23823142Y12928572D01*
X23823142Y14014286D02*
X24451714Y14014286D01*
X24566000Y13957143D01*
X24623142Y13842858D01*
X24623142Y13614286D01*
X24566000Y13500000D01*
X23880285Y14014286D02*
X23823142Y13900000D01*
X23823142Y13614286D01*
X23880285Y13500000D01*
X23994571Y13442858D01*
X24108857Y13442858D01*
X24223142Y13500000D01*
X24280285Y13614286D01*
X24280285Y13900000D01*
X24337428Y14014286D01*
X23823142Y14585715D02*
X24623142Y14585715D01*
X24394571Y14585715D02*
X24508857Y14642858D01*
X24566000Y14700000D01*
X24623142Y14814286D01*
X24623142Y14928572D01*
X23823142Y15328572D02*
X25023142Y15328572D01*
X24280285Y15442858D02*
X23823142Y15785715D01*
X24623142Y15785715D02*
X24166000Y15328572D01*
X23823142Y16185715D02*
X24623142Y16814286D01*
X24623142Y16185715D02*
X23823142Y16814286D01*
X23823142Y17271429D02*
X24623142Y17271429D01*
X24394571Y17271429D02*
X24508857Y17328572D01*
X24566000Y17385715D01*
X24623142Y17500000D01*
X24623142Y17614286D01*
X22976857Y11842858D02*
X23034000Y11900000D01*
X23091142Y12014286D01*
X23091142Y12300000D01*
X23034000Y12414286D01*
X22976857Y12471429D01*
X22862571Y12528572D01*
X22748285Y12528572D01*
X22576857Y12471429D01*
X21891142Y11785715D01*
X21891142Y12528572D01*
X23091142Y13271429D02*
X23091142Y13385715D01*
X23034000Y13500000D01*
X22976857Y13557143D01*
X22862571Y13614286D01*
X22634000Y13671429D01*
X22348285Y13671429D01*
X22119714Y13614286D01*
X22005428Y13557143D01*
X21948285Y13500000D01*
X21891142Y13385715D01*
X21891142Y13271429D01*
X21948285Y13157143D01*
X22005428Y13100000D01*
X22119714Y13042858D01*
X22348285Y12985715D01*
X22634000Y12985715D01*
X22862571Y13042858D01*
X22976857Y13100000D01*
X23034000Y13157143D01*
X23091142Y13271429D01*
X22976857Y14128572D02*
X23034000Y14185715D01*
X23091142Y14300000D01*
X23091142Y14585715D01*
X23034000Y14700000D01*
X22976857Y14757143D01*
X22862571Y14814286D01*
X22748285Y14814286D01*
X22576857Y14757143D01*
X21891142Y14071429D01*
X21891142Y14814286D01*
X22976857Y15271429D02*
X23034000Y15328572D01*
X23091142Y15442858D01*
X23091142Y15728572D01*
X23034000Y15842858D01*
X22976857Y15900000D01*
X22862571Y15957143D01*
X22748285Y15957143D01*
X22576857Y15900000D01*
X21891142Y15214286D01*
X21891142Y15957143D01*
M02*
