%TF.GenerationSoftware,KiCad,Pcbnew,6.0.0-rc1-unknown-c40e921cb3~144~ubuntu18.04.1*%
%TF.CreationDate,2021-12-01T16:53:05+00:00*%
%TF.ProjectId,output.panel20,6f757470-7574-42e7-9061-6e656c32302e,rev?*%
%TF.SameCoordinates,PX9896800PY7270e00*%
%TF.FileFunction,Soldermask,Bot*%
%TF.FilePolarity,Negative*%
%FSLAX46Y46*%
G04 Gerber Fmt 4.6, Leading zero omitted, Abs format (unit mm)*
G04 Created by KiCad (PCBNEW 6.0.0-rc1-unknown-c40e921cb3~144~ubuntu18.04.1) date 2021-12-01 16:53:05*
%MOMM*%
%LPD*%
G01*
G04 APERTURE LIST*
%ADD10O,1.200000X2.200000*%
%ADD11R,2.500000X1.500000*%
%ADD12C,0.600000*%
G04 APERTURE END LIST*
D10*
%TO.C,J2*%
X-78600000Y54500000D03*
%TD*%
%TO.C,J2*%
X-48600000Y54500000D03*
%TD*%
%TO.C,J3*%
X-71400000Y40500000D03*
%TD*%
%TO.C,J2*%
X11400000Y54500000D03*
%TD*%
%TO.C,J3*%
X-71400000Y-1500000D03*
%TD*%
%TO.C,J2*%
X-18600000Y-1500000D03*
%TD*%
%TO.C,J3*%
X-71400000Y12500000D03*
%TD*%
%TO.C,J2*%
X-78600000Y26500000D03*
%TD*%
%TO.C,J2*%
X11400000Y12500000D03*
%TD*%
%TO.C,J3*%
X-11400000Y26500000D03*
%TD*%
%TO.C,J3*%
X18600000Y26500000D03*
%TD*%
%TO.C,J3*%
X-41400000Y40500000D03*
%TD*%
%TO.C,J2*%
X11400000Y26500000D03*
%TD*%
%TO.C,J3*%
X-71400000Y54500000D03*
%TD*%
%TO.C,J3*%
X18600000Y54500000D03*
%TD*%
%TO.C,J3*%
X-11400000Y12500000D03*
%TD*%
%TO.C,J2*%
X-78600000Y-1500000D03*
%TD*%
%TO.C,J2*%
X-48600000Y-1500000D03*
%TD*%
%TO.C,J2*%
X-18600000Y54500000D03*
%TD*%
%TO.C,J3*%
X-11400000Y40500000D03*
%TD*%
%TO.C,J2*%
X-48600000Y26500000D03*
%TD*%
%TO.C,J2*%
X-48600000Y12500000D03*
%TD*%
%TO.C,J3*%
X-71400000Y26500000D03*
%TD*%
%TO.C,J2*%
X11400000Y-1500000D03*
%TD*%
%TO.C,J2*%
X-78600000Y40500000D03*
%TD*%
%TO.C,J3*%
X-11400000Y-1500000D03*
%TD*%
%TO.C,J2*%
X-48600000Y40500000D03*
%TD*%
%TO.C,J3*%
X18600000Y12500000D03*
%TD*%
%TO.C,J2*%
X-78600000Y12500000D03*
%TD*%
%TO.C,J3*%
X18600000Y40500000D03*
%TD*%
%TO.C,J3*%
X-41400000Y54500000D03*
%TD*%
%TO.C,J3*%
X-41400000Y12500000D03*
%TD*%
%TO.C,J3*%
X-41400000Y26500000D03*
%TD*%
%TO.C,J2*%
X11400000Y40500000D03*
%TD*%
%TO.C,J2*%
X-18600000Y26500000D03*
%TD*%
%TO.C,J3*%
X18600000Y-1500000D03*
%TD*%
%TO.C,J2*%
X-18600000Y40500000D03*
%TD*%
%TO.C,J2*%
X-18600000Y12500000D03*
%TD*%
%TO.C,J3*%
X-41400000Y-1500000D03*
%TD*%
%TO.C,J3*%
X-11400000Y54500000D03*
%TD*%
D11*
%TO.C,J4*%
X-2600000Y22500000D03*
X-2600000Y24500000D03*
X-2600000Y26500000D03*
X-2600000Y28500000D03*
X-2600000Y30500000D03*
%TD*%
%TO.C,J4*%
X27400000Y50500000D03*
X27400000Y52500000D03*
X27400000Y54500000D03*
X27400000Y56500000D03*
X27400000Y58500000D03*
%TD*%
%TO.C,J4*%
X-62600000Y8500000D03*
X-62600000Y10500000D03*
X-62600000Y12500000D03*
X-62600000Y14500000D03*
X-62600000Y16500000D03*
%TD*%
%TO.C,J4*%
X-32600000Y8500000D03*
X-32600000Y10500000D03*
X-32600000Y12500000D03*
X-32600000Y14500000D03*
X-32600000Y16500000D03*
%TD*%
%TO.C,J4*%
X-32600000Y36500000D03*
X-32600000Y38500000D03*
X-32600000Y40500000D03*
X-32600000Y42500000D03*
X-32600000Y44500000D03*
%TD*%
%TO.C,J4*%
X-2600000Y-5500000D03*
X-2600000Y-3500000D03*
X-2600000Y-1500000D03*
X-2600000Y500000D03*
X-2600000Y2500000D03*
%TD*%
%TO.C,J4*%
X-62600000Y-5500000D03*
X-62600000Y-3500000D03*
X-62600000Y-1500000D03*
X-62600000Y500000D03*
X-62600000Y2500000D03*
%TD*%
%TO.C,J4*%
X-32600000Y50500000D03*
X-32600000Y52500000D03*
X-32600000Y54500000D03*
X-32600000Y56500000D03*
X-32600000Y58500000D03*
%TD*%
%TO.C,J4*%
X-62600000Y22500000D03*
X-62600000Y24500000D03*
X-62600000Y26500000D03*
X-62600000Y28500000D03*
X-62600000Y30500000D03*
%TD*%
%TO.C,J4*%
X-2600000Y8500000D03*
X-2600000Y10500000D03*
X-2600000Y12500000D03*
X-2600000Y14500000D03*
X-2600000Y16500000D03*
%TD*%
%TO.C,J4*%
X-32600000Y-5500000D03*
X-32600000Y-3500000D03*
X-32600000Y-1500000D03*
X-32600000Y500000D03*
X-32600000Y2500000D03*
%TD*%
%TO.C,J4*%
X27400000Y8500000D03*
X27400000Y10500000D03*
X27400000Y12500000D03*
X27400000Y14500000D03*
X27400000Y16500000D03*
%TD*%
%TO.C,J4*%
X-2600000Y36500000D03*
X-2600000Y38500000D03*
X-2600000Y40500000D03*
X-2600000Y42500000D03*
X-2600000Y44500000D03*
%TD*%
%TO.C,J4*%
X27400000Y-5500000D03*
X27400000Y-3500000D03*
X27400000Y-1500000D03*
X27400000Y500000D03*
X27400000Y2500000D03*
%TD*%
%TO.C,J4*%
X-62600000Y50500000D03*
X-62600000Y52500000D03*
X-62600000Y54500000D03*
X-62600000Y56500000D03*
X-62600000Y58500000D03*
%TD*%
%TO.C,J4*%
X27400000Y36500000D03*
X27400000Y38500000D03*
X27400000Y40500000D03*
X27400000Y42500000D03*
X27400000Y44500000D03*
%TD*%
%TO.C,J4*%
X-2600000Y50500000D03*
X-2600000Y52500000D03*
X-2600000Y54500000D03*
X-2600000Y56500000D03*
X-2600000Y58500000D03*
%TD*%
%TO.C,J4*%
X-32600000Y22500000D03*
X-32600000Y24500000D03*
X-32600000Y26500000D03*
X-32600000Y28500000D03*
X-32600000Y30500000D03*
%TD*%
%TO.C,J4*%
X-62600000Y36500000D03*
X-62600000Y38500000D03*
X-62600000Y40500000D03*
X-62600000Y42500000D03*
X-62600000Y44500000D03*
%TD*%
%TO.C,J4*%
X27400000Y22500000D03*
X27400000Y24500000D03*
X27400000Y26500000D03*
X27400000Y28500000D03*
X27400000Y30500000D03*
%TD*%
D12*
%TO.C,*%
X-40517155Y20900000D03*
X-39678100Y20900000D03*
X-38839045Y20900000D03*
X-37999990Y20900000D03*
X-37160935Y20900000D03*
X-36321880Y20900000D03*
X-35482825Y20900000D03*
%TD*%
%TO.C,*%
X-35482836Y18100000D03*
X-36321891Y18100000D03*
X-37160946Y18100000D03*
X-38000001Y18100000D03*
X-38839056Y18100000D03*
X-39678111Y18100000D03*
X-40517166Y18100000D03*
%TD*%
%TO.C,*%
X-30900000Y37982847D03*
X-30900000Y38821897D03*
X-30900000Y39660947D03*
X-30900000Y40499997D03*
X-30900000Y41339047D03*
X-30900000Y42178097D03*
X-30900000Y43017147D03*
%TD*%
%TO.C,*%
X-70517155Y20900000D03*
X-69678100Y20900000D03*
X-68839045Y20900000D03*
X-67999990Y20900000D03*
X-67160935Y20900000D03*
X-66321880Y20900000D03*
X-65482825Y20900000D03*
%TD*%
%TO.C,*%
X-65482836Y18100000D03*
X-66321891Y18100000D03*
X-67160946Y18100000D03*
X-68000001Y18100000D03*
X-68839056Y18100000D03*
X-69678111Y18100000D03*
X-70517166Y18100000D03*
%TD*%
%TO.C,*%
X19482845Y48900000D03*
X20321900Y48900000D03*
X21160955Y48900000D03*
X22000010Y48900000D03*
X22839065Y48900000D03*
X23678120Y48900000D03*
X24517175Y48900000D03*
%TD*%
%TO.C,*%
X24517164Y46100000D03*
X23678109Y46100000D03*
X22839054Y46100000D03*
X21999999Y46100000D03*
X21160944Y46100000D03*
X20321889Y46100000D03*
X19482834Y46100000D03*
%TD*%
%TO.C,*%
X-40517155Y-7100000D03*
X-39678100Y-7100000D03*
X-38839045Y-7100000D03*
X-37999990Y-7100000D03*
X-37160935Y-7100000D03*
X-36321880Y-7100000D03*
X-35482825Y-7100000D03*
%TD*%
%TO.C,*%
X-60900000Y51982847D03*
X-60900000Y52821897D03*
X-60900000Y53660947D03*
X-60900000Y54499997D03*
X-60900000Y55339047D03*
X-60900000Y56178097D03*
X-60900000Y57017147D03*
%TD*%
%TO.C,*%
X19482845Y-7100000D03*
X20321900Y-7100000D03*
X21160955Y-7100000D03*
X22000010Y-7100000D03*
X22839065Y-7100000D03*
X23678120Y-7100000D03*
X24517175Y-7100000D03*
%TD*%
%TO.C,*%
X-5482836Y60100000D03*
X-6321891Y60100000D03*
X-7160946Y60100000D03*
X-8000001Y60100000D03*
X-8839056Y60100000D03*
X-9678111Y60100000D03*
X-10517166Y60100000D03*
%TD*%
%TO.C,*%
X24517164Y60100000D03*
X23678109Y60100000D03*
X22839054Y60100000D03*
X21999999Y60100000D03*
X21160944Y60100000D03*
X20321889Y60100000D03*
X19482834Y60100000D03*
%TD*%
%TO.C,*%
X-60900000Y23982847D03*
X-60900000Y24821897D03*
X-60900000Y25660947D03*
X-60900000Y26499997D03*
X-60900000Y27339047D03*
X-60900000Y28178097D03*
X-60900000Y29017147D03*
%TD*%
%TO.C,*%
X19482845Y6900000D03*
X20321900Y6900000D03*
X21160955Y6900000D03*
X22000010Y6900000D03*
X22839065Y6900000D03*
X23678120Y6900000D03*
X24517175Y6900000D03*
%TD*%
%TO.C,*%
X24517164Y4100000D03*
X23678109Y4100000D03*
X22839054Y4100000D03*
X21999999Y4100000D03*
X21160944Y4100000D03*
X20321889Y4100000D03*
X19482834Y4100000D03*
%TD*%
%TO.C,*%
X-40517155Y6900000D03*
X-39678100Y6900000D03*
X-38839045Y6900000D03*
X-37999990Y6900000D03*
X-37160935Y6900000D03*
X-36321880Y6900000D03*
X-35482825Y6900000D03*
%TD*%
%TO.C,*%
X-35482836Y4100000D03*
X-36321891Y4100000D03*
X-37160946Y4100000D03*
X-38000001Y4100000D03*
X-38839056Y4100000D03*
X-39678111Y4100000D03*
X-40517166Y4100000D03*
%TD*%
%TO.C,*%
X-10517155Y34900000D03*
X-9678100Y34900000D03*
X-8839045Y34900000D03*
X-7999990Y34900000D03*
X-7160935Y34900000D03*
X-6321880Y34900000D03*
X-5482825Y34900000D03*
%TD*%
%TO.C,*%
X-5482836Y32100000D03*
X-6321891Y32100000D03*
X-7160946Y32100000D03*
X-8000001Y32100000D03*
X-8839056Y32100000D03*
X-9678111Y32100000D03*
X-10517166Y32100000D03*
%TD*%
%TO.C,*%
X-900000Y51982847D03*
X-900000Y52821897D03*
X-900000Y53660947D03*
X-900000Y54499997D03*
X-900000Y55339047D03*
X-900000Y56178097D03*
X-900000Y57017147D03*
%TD*%
%TO.C,*%
X-60900000Y9982847D03*
X-60900000Y10821897D03*
X-60900000Y11660947D03*
X-60900000Y12499997D03*
X-60900000Y13339047D03*
X-60900000Y14178097D03*
X-60900000Y15017147D03*
%TD*%
%TO.C,*%
X-30900000Y-4017153D03*
X-30900000Y-3178103D03*
X-30900000Y-2339053D03*
X-30900000Y-1500003D03*
X-30900000Y-660953D03*
X-30900000Y178097D03*
X-30900000Y1017147D03*
%TD*%
%TO.C,*%
X19482845Y20900000D03*
X20321900Y20900000D03*
X21160955Y20900000D03*
X22000010Y20900000D03*
X22839065Y20900000D03*
X23678120Y20900000D03*
X24517175Y20900000D03*
%TD*%
%TO.C,*%
X24517164Y18100000D03*
X23678109Y18100000D03*
X22839054Y18100000D03*
X21999999Y18100000D03*
X21160944Y18100000D03*
X20321889Y18100000D03*
X19482834Y18100000D03*
%TD*%
%TO.C,*%
X-900000Y-4017153D03*
X-900000Y-3178103D03*
X-900000Y-2339053D03*
X-900000Y-1500003D03*
X-900000Y-660953D03*
X-900000Y178097D03*
X-900000Y1017147D03*
%TD*%
%TO.C,*%
X-900000Y23982847D03*
X-900000Y24821897D03*
X-900000Y25660947D03*
X-900000Y26499997D03*
X-900000Y27339047D03*
X-900000Y28178097D03*
X-900000Y29017147D03*
%TD*%
%TO.C,*%
X-900000Y9982847D03*
X-900000Y10821897D03*
X-900000Y11660947D03*
X-900000Y12499997D03*
X-900000Y13339047D03*
X-900000Y14178097D03*
X-900000Y15017147D03*
%TD*%
%TO.C,*%
X-10517155Y20900000D03*
X-9678100Y20900000D03*
X-8839045Y20900000D03*
X-7999990Y20900000D03*
X-7160935Y20900000D03*
X-6321880Y20900000D03*
X-5482825Y20900000D03*
%TD*%
%TO.C,*%
X-5482836Y18100000D03*
X-6321891Y18100000D03*
X-7160946Y18100000D03*
X-8000001Y18100000D03*
X-8839056Y18100000D03*
X-9678111Y18100000D03*
X-10517166Y18100000D03*
%TD*%
%TO.C,*%
X-30900000Y51982847D03*
X-30900000Y52821897D03*
X-30900000Y53660947D03*
X-30900000Y54499997D03*
X-30900000Y55339047D03*
X-30900000Y56178097D03*
X-30900000Y57017147D03*
%TD*%
%TO.C,*%
X-10517155Y-7100000D03*
X-9678100Y-7100000D03*
X-8839045Y-7100000D03*
X-7999990Y-7100000D03*
X-7160935Y-7100000D03*
X-6321880Y-7100000D03*
X-5482825Y-7100000D03*
%TD*%
%TO.C,*%
X-60900000Y37982847D03*
X-60900000Y38821897D03*
X-60900000Y39660947D03*
X-60900000Y40499997D03*
X-60900000Y41339047D03*
X-60900000Y42178097D03*
X-60900000Y43017147D03*
%TD*%
%TO.C,*%
X29100000Y-4017153D03*
X29100000Y-3178103D03*
X29100000Y-2339053D03*
X29100000Y-1500003D03*
X29100000Y-660953D03*
X29100000Y178097D03*
X29100000Y1017147D03*
%TD*%
%TO.C,*%
X19482845Y34900000D03*
X20321900Y34900000D03*
X21160955Y34900000D03*
X22000010Y34900000D03*
X22839065Y34900000D03*
X23678120Y34900000D03*
X24517175Y34900000D03*
%TD*%
%TO.C,*%
X24517164Y32100000D03*
X23678109Y32100000D03*
X22839054Y32100000D03*
X21999999Y32100000D03*
X21160944Y32100000D03*
X20321889Y32100000D03*
X19482834Y32100000D03*
%TD*%
%TO.C,*%
X-40517155Y48900000D03*
X-39678100Y48900000D03*
X-38839045Y48900000D03*
X-37999990Y48900000D03*
X-37160935Y48900000D03*
X-36321880Y48900000D03*
X-35482825Y48900000D03*
%TD*%
%TO.C,*%
X-35482836Y46100000D03*
X-36321891Y46100000D03*
X-37160946Y46100000D03*
X-38000001Y46100000D03*
X-38839056Y46100000D03*
X-39678111Y46100000D03*
X-40517166Y46100000D03*
%TD*%
%TO.C,*%
X-70517155Y6900000D03*
X-69678100Y6900000D03*
X-68839045Y6900000D03*
X-67999990Y6900000D03*
X-67160935Y6900000D03*
X-66321880Y6900000D03*
X-65482825Y6900000D03*
%TD*%
%TO.C,*%
X-65482836Y4100000D03*
X-66321891Y4100000D03*
X-67160946Y4100000D03*
X-68000001Y4100000D03*
X-68839056Y4100000D03*
X-69678111Y4100000D03*
X-70517166Y4100000D03*
%TD*%
%TO.C,*%
X-70517155Y48900000D03*
X-69678100Y48900000D03*
X-68839045Y48900000D03*
X-67999990Y48900000D03*
X-67160935Y48900000D03*
X-66321880Y48900000D03*
X-65482825Y48900000D03*
%TD*%
%TO.C,*%
X-65482836Y46100000D03*
X-66321891Y46100000D03*
X-67160946Y46100000D03*
X-68000001Y46100000D03*
X-68839056Y46100000D03*
X-69678111Y46100000D03*
X-70517166Y46100000D03*
%TD*%
%TO.C,*%
X-60900000Y-4017153D03*
X-60900000Y-3178103D03*
X-60900000Y-2339053D03*
X-60900000Y-1500003D03*
X-60900000Y-660953D03*
X-60900000Y178097D03*
X-60900000Y1017147D03*
%TD*%
%TO.C,*%
X-10517155Y6900000D03*
X-9678100Y6900000D03*
X-8839045Y6900000D03*
X-7999990Y6900000D03*
X-7160935Y6900000D03*
X-6321880Y6900000D03*
X-5482825Y6900000D03*
%TD*%
%TO.C,*%
X-5482836Y4100000D03*
X-6321891Y4100000D03*
X-7160946Y4100000D03*
X-8000001Y4100000D03*
X-8839056Y4100000D03*
X-9678111Y4100000D03*
X-10517166Y4100000D03*
%TD*%
%TO.C,*%
X-70517155Y-7100000D03*
X-69678100Y-7100000D03*
X-68839045Y-7100000D03*
X-67999990Y-7100000D03*
X-67160935Y-7100000D03*
X-66321880Y-7100000D03*
X-65482825Y-7100000D03*
%TD*%
%TO.C,*%
X-30900000Y23982847D03*
X-30900000Y24821897D03*
X-30900000Y25660947D03*
X-30900000Y26499997D03*
X-30900000Y27339047D03*
X-30900000Y28178097D03*
X-30900000Y29017147D03*
%TD*%
%TO.C,*%
X29100000Y37982847D03*
X29100000Y38821897D03*
X29100000Y39660947D03*
X29100000Y40499997D03*
X29100000Y41339047D03*
X29100000Y42178097D03*
X29100000Y43017147D03*
%TD*%
%TO.C,*%
X-900000Y37982847D03*
X-900000Y38821897D03*
X-900000Y39660947D03*
X-900000Y40499997D03*
X-900000Y41339047D03*
X-900000Y42178097D03*
X-900000Y43017147D03*
%TD*%
%TO.C,*%
X-70517155Y34900000D03*
X-69678100Y34900000D03*
X-68839045Y34900000D03*
X-67999990Y34900000D03*
X-67160935Y34900000D03*
X-66321880Y34900000D03*
X-65482825Y34900000D03*
%TD*%
%TO.C,*%
X-65482836Y32100000D03*
X-66321891Y32100000D03*
X-67160946Y32100000D03*
X-68000001Y32100000D03*
X-68839056Y32100000D03*
X-69678111Y32100000D03*
X-70517166Y32100000D03*
%TD*%
%TO.C,*%
X29100000Y51982847D03*
X29100000Y52821897D03*
X29100000Y53660947D03*
X29100000Y54499997D03*
X29100000Y55339047D03*
X29100000Y56178097D03*
X29100000Y57017147D03*
%TD*%
%TO.C,*%
X-65482836Y60100000D03*
X-66321891Y60100000D03*
X-67160946Y60100000D03*
X-68000001Y60100000D03*
X-68839056Y60100000D03*
X-69678111Y60100000D03*
X-70517166Y60100000D03*
%TD*%
%TO.C,*%
X-10517155Y48900000D03*
X-9678100Y48900000D03*
X-8839045Y48900000D03*
X-7999990Y48900000D03*
X-7160935Y48900000D03*
X-6321880Y48900000D03*
X-5482825Y48900000D03*
%TD*%
%TO.C,*%
X-5482836Y46100000D03*
X-6321891Y46100000D03*
X-7160946Y46100000D03*
X-8000001Y46100000D03*
X-8839056Y46100000D03*
X-9678111Y46100000D03*
X-10517166Y46100000D03*
%TD*%
%TO.C,*%
X29100000Y23982847D03*
X29100000Y24821897D03*
X29100000Y25660947D03*
X29100000Y26499997D03*
X29100000Y27339047D03*
X29100000Y28178097D03*
X29100000Y29017147D03*
%TD*%
%TO.C,*%
X-35482836Y60100000D03*
X-36321891Y60100000D03*
X-37160946Y60100000D03*
X-38000001Y60100000D03*
X-38839056Y60100000D03*
X-39678111Y60100000D03*
X-40517166Y60100000D03*
%TD*%
%TO.C,*%
X-40517155Y34900000D03*
X-39678100Y34900000D03*
X-38839045Y34900000D03*
X-37999990Y34900000D03*
X-37160935Y34900000D03*
X-36321880Y34900000D03*
X-35482825Y34900000D03*
%TD*%
%TO.C,*%
X-35482836Y32100000D03*
X-36321891Y32100000D03*
X-37160946Y32100000D03*
X-38000001Y32100000D03*
X-38839056Y32100000D03*
X-39678111Y32100000D03*
X-40517166Y32100000D03*
%TD*%
%TO.C,*%
X-30900000Y9982847D03*
X-30900000Y10821897D03*
X-30900000Y11660947D03*
X-30900000Y12499997D03*
X-30900000Y13339047D03*
X-30900000Y14178097D03*
X-30900000Y15017147D03*
%TD*%
%TO.C,*%
X29100000Y9982847D03*
X29100000Y10821897D03*
X29100000Y11660947D03*
X29100000Y12499997D03*
X29100000Y13339047D03*
X29100000Y14178097D03*
X29100000Y15017147D03*
%TD*%
%TO.C,*%
X32000000Y-7000000D03*
X32800000Y-7000000D03*
X33600000Y-7000000D03*
X34400000Y-7000000D03*
X35200000Y-7000000D03*
X36000000Y-7000000D03*
%TD*%
%TO.C,*%
X-88000000Y60000000D03*
X-87200000Y60000000D03*
X-86400000Y60000000D03*
X-85600000Y60000000D03*
X-84800000Y60000000D03*
X-84000000Y60000000D03*
%TD*%
%TO.C,*%
X32000000Y60000000D03*
X32800000Y60000000D03*
X33600000Y60000000D03*
X34400000Y60000000D03*
X35200000Y60000000D03*
X36000000Y60000000D03*
%TD*%
%TO.C,*%
X-28000000Y60000000D03*
X-27200000Y60000000D03*
X-26400000Y60000000D03*
X-25600000Y60000000D03*
X-24800000Y60000000D03*
X-24000000Y60000000D03*
%TD*%
%TO.C,*%
X-28000000Y-7000000D03*
X-27200000Y-7000000D03*
X-26400000Y-7000000D03*
X-25600000Y-7000000D03*
X-24800000Y-7000000D03*
X-24000000Y-7000000D03*
%TD*%
%TO.C,*%
X-88000000Y-7000000D03*
X-87200000Y-7000000D03*
X-86400000Y-7000000D03*
X-85600000Y-7000000D03*
X-84800000Y-7000000D03*
X-84000000Y-7000000D03*
%TD*%
%TO.C,*%
X-58000000Y-7000000D03*
X-57200000Y-7000000D03*
X-56400000Y-7000000D03*
X-55600000Y-7000000D03*
X-54800000Y-7000000D03*
X-54000000Y-7000000D03*
%TD*%
%TO.C,*%
X-58000000Y60000000D03*
X-57200000Y60000000D03*
X-56400000Y60000000D03*
X-55600000Y60000000D03*
X-54800000Y60000000D03*
X-54000000Y60000000D03*
%TD*%
%TO.C,*%
X2000000Y60000000D03*
X2800000Y60000000D03*
X3600000Y60000000D03*
X4400000Y60000000D03*
X5200000Y60000000D03*
X6000000Y60000000D03*
%TD*%
%TO.C,*%
X2000000Y-7000000D03*
X2800000Y-7000000D03*
X3600000Y-7000000D03*
X4400000Y-7000000D03*
X5200000Y-7000000D03*
X6000000Y-7000000D03*
%TD*%
M02*
