M48
; DRILL file {KiCad 6.0.0-rc1-unknown-c40e921cb3~144~ubuntu18.04.1} date Wed 01 Dec 2021 16:53:02 UTC
; FORMAT={-:-/ absolute / inch / decimal}
; #@! TF.CreationDate,2021-12-01T16:53:02+00:00
; #@! TF.GenerationSoftware,Kicad,Pcbnew,6.0.0-rc1-unknown-c40e921cb3~144~ubuntu18.04.1
; #@! TF.FileFunction,NonPlated,1,2,NPTH
FMAT,2
INCH
; #@! TA.AperFunction,NonPlated,NPTH,ComponentDrill
T1C0.0236
%
G90
G05
T1
X-3.4646Y2.3622
X-3.4646Y-0.2756
X-3.4331Y2.3622
X-3.4331Y-0.2756
X-3.4016Y2.3622
X-3.4016Y-0.2756
X-3.3701Y2.3622
X-3.3701Y-0.2756
X-3.3386Y2.3622
X-3.3386Y-0.2756
X-3.3071Y2.3622
X-3.3071Y-0.2756
X-2.7763Y2.3661
X-2.7763Y1.815
X-2.7763Y1.2638
X-2.7763Y0.7126
X-2.7763Y0.1614
X-2.7763Y1.9252
X-2.7763Y1.374
X-2.7763Y0.8228
X-2.7763Y0.2717
X-2.7763Y-0.2795
X-2.7432Y2.3661
X-2.7432Y1.815
X-2.7432Y1.2638
X-2.7432Y0.7126
X-2.7432Y0.1614
X-2.7432Y1.9252
X-2.7432Y1.374
X-2.7432Y0.8228
X-2.7432Y0.2717
X-2.7432Y-0.2795
X-2.7102Y2.3661
X-2.7102Y1.815
X-2.7102Y1.2638
X-2.7102Y0.7126
X-2.7102Y0.1614
X-2.7102Y1.9252
X-2.7102Y1.374
X-2.7102Y0.8228
X-2.7102Y0.2717
X-2.7102Y-0.2795
X-2.6772Y2.3661
X-2.6772Y1.815
X-2.6772Y1.2638
X-2.6772Y0.7126
X-2.6772Y0.1614
X-2.6772Y1.9252
X-2.6772Y1.374
X-2.6772Y0.8228
X-2.6772Y0.2717
X-2.6772Y-0.2795
X-2.6441Y2.3661
X-2.6441Y1.815
X-2.6441Y1.2638
X-2.6441Y0.7126
X-2.6441Y0.1614
X-2.6441Y1.9252
X-2.6441Y1.374
X-2.6441Y0.8228
X-2.6441Y0.2717
X-2.6441Y-0.2795
X-2.6111Y2.3661
X-2.6111Y1.815
X-2.6111Y1.2638
X-2.6111Y0.7126
X-2.6111Y0.1614
X-2.6111Y1.9252
X-2.6111Y1.374
X-2.6111Y0.8228
X-2.6111Y0.2717
X-2.6111Y-0.2795
X-2.5781Y2.3661
X-2.5781Y1.815
X-2.5781Y1.2638
X-2.5781Y0.7126
X-2.5781Y0.1614
X-2.5781Y1.9252
X-2.5781Y1.374
X-2.5781Y0.8228
X-2.5781Y0.2717
X-2.5781Y-0.2795
X-2.3976Y2.2448
X-2.3976Y2.2117
X-2.3976Y2.1787
X-2.3976Y2.1457
X-2.3976Y2.1126
X-2.3976Y2.0796
X-2.3976Y2.0466
X-2.3976Y1.6936
X-2.3976Y1.6606
X-2.3976Y1.6275
X-2.3976Y1.5945
X-2.3976Y1.5615
X-2.3976Y1.5284
X-2.3976Y1.4954
X-2.3976Y1.1424
X-2.3976Y1.1094
X-2.3976Y1.0763
X-2.3976Y1.0433
X-2.3976Y1.0103
X-2.3976Y0.9772
X-2.3976Y0.9442
X-2.3976Y0.5912
X-2.3976Y0.5582
X-2.3976Y0.5252
X-2.3976Y0.4921
X-2.3976Y0.4591
X-2.3976Y0.4261
X-2.3976Y0.393
X-2.3976Y0.04
X-2.3976Y0.007
X-2.3976Y-0.026
X-2.3976Y-0.0591
X-2.3976Y-0.0921
X-2.3976Y-0.1251
X-2.3976Y-0.1582
X-2.2835Y2.3622
X-2.2835Y-0.2756
X-2.252Y2.3622
X-2.252Y-0.2756
X-2.2205Y2.3622
X-2.2205Y-0.2756
X-2.189Y2.3622
X-2.189Y-0.2756
X-2.1575Y2.3622
X-2.1575Y-0.2756
X-2.126Y2.3622
X-2.126Y-0.2756
X-1.5952Y2.3661
X-1.5952Y1.815
X-1.5952Y1.2638
X-1.5952Y0.7126
X-1.5952Y0.1614
X-1.5952Y1.9252
X-1.5952Y1.374
X-1.5952Y0.8228
X-1.5952Y0.2717
X-1.5952Y-0.2795
X-1.5621Y2.3661
X-1.5621Y1.815
X-1.5621Y1.2638
X-1.5621Y0.7126
X-1.5621Y0.1614
X-1.5621Y1.9252
X-1.5621Y1.374
X-1.5621Y0.8228
X-1.5621Y0.2717
X-1.5621Y-0.2795
X-1.5291Y2.3661
X-1.5291Y1.815
X-1.5291Y1.2638
X-1.5291Y0.7126
X-1.5291Y0.1614
X-1.5291Y1.9252
X-1.5291Y1.374
X-1.5291Y0.8228
X-1.5291Y0.2717
X-1.5291Y-0.2795
X-1.4961Y2.3661
X-1.4961Y1.815
X-1.4961Y1.2638
X-1.4961Y0.7126
X-1.4961Y0.1614
X-1.4961Y1.9252
X-1.4961Y1.374
X-1.4961Y0.8228
X-1.4961Y0.2717
X-1.4961Y-0.2795
X-1.463Y2.3661
X-1.463Y1.815
X-1.463Y1.2638
X-1.463Y0.7126
X-1.463Y0.1614
X-1.463Y1.9252
X-1.463Y1.374
X-1.463Y0.8228
X-1.463Y0.2717
X-1.463Y-0.2795
X-1.43Y2.3661
X-1.43Y1.815
X-1.43Y1.2638
X-1.43Y0.7126
X-1.43Y0.1614
X-1.43Y1.9252
X-1.43Y1.374
X-1.43Y0.8228
X-1.43Y0.2717
X-1.43Y-0.2795
X-1.397Y2.3661
X-1.397Y1.815
X-1.397Y1.2638
X-1.397Y0.7126
X-1.397Y0.1614
X-1.397Y1.9252
X-1.397Y1.374
X-1.397Y0.8228
X-1.397Y0.2717
X-1.397Y-0.2795
X-1.2165Y2.2448
X-1.2165Y2.2117
X-1.2165Y2.1787
X-1.2165Y2.1457
X-1.2165Y2.1126
X-1.2165Y2.0796
X-1.2165Y2.0466
X-1.2165Y1.6936
X-1.2165Y1.6606
X-1.2165Y1.6275
X-1.2165Y1.5945
X-1.2165Y1.5615
X-1.2165Y1.5284
X-1.2165Y1.4954
X-1.2165Y1.1424
X-1.2165Y1.1094
X-1.2165Y1.0763
X-1.2165Y1.0433
X-1.2165Y1.0103
X-1.2165Y0.9772
X-1.2165Y0.9442
X-1.2165Y0.5912
X-1.2165Y0.5582
X-1.2165Y0.5252
X-1.2165Y0.4921
X-1.2165Y0.4591
X-1.2165Y0.4261
X-1.2165Y0.393
X-1.2165Y0.04
X-1.2165Y0.007
X-1.2165Y-0.026
X-1.2165Y-0.0591
X-1.2165Y-0.0921
X-1.2165Y-0.1251
X-1.2165Y-0.1582
X-1.1024Y2.3622
X-1.1024Y-0.2756
X-1.0709Y2.3622
X-1.0709Y-0.2756
X-1.0394Y2.3622
X-1.0394Y-0.2756
X-1.0079Y2.3622
X-1.0079Y-0.2756
X-0.9764Y2.3622
X-0.9764Y-0.2756
X-0.9449Y2.3622
X-0.9449Y-0.2756
X-0.4141Y2.3661
X-0.4141Y1.815
X-0.4141Y1.2638
X-0.4141Y0.7126
X-0.4141Y0.1614
X-0.4141Y1.9252
X-0.4141Y1.374
X-0.4141Y0.8228
X-0.4141Y0.2717
X-0.4141Y-0.2795
X-0.381Y2.3661
X-0.381Y1.815
X-0.381Y1.2638
X-0.381Y0.7126
X-0.381Y0.1614
X-0.381Y1.9252
X-0.381Y1.374
X-0.381Y0.8228
X-0.381Y0.2717
X-0.381Y-0.2795
X-0.348Y2.3661
X-0.348Y1.815
X-0.348Y1.2638
X-0.348Y0.7126
X-0.348Y0.1614
X-0.348Y1.9252
X-0.348Y1.374
X-0.348Y0.8228
X-0.348Y0.2717
X-0.348Y-0.2795
X-0.315Y2.3661
X-0.315Y1.815
X-0.315Y1.2638
X-0.315Y0.7126
X-0.315Y0.1614
X-0.315Y1.9252
X-0.315Y1.374
X-0.315Y0.8228
X-0.315Y0.2717
X-0.315Y-0.2795
X-0.2819Y2.3661
X-0.2819Y1.815
X-0.2819Y1.2638
X-0.2819Y0.7126
X-0.2819Y0.1614
X-0.2819Y1.9252
X-0.2819Y1.374
X-0.2819Y0.8228
X-0.2819Y0.2717
X-0.2819Y-0.2795
X-0.2489Y2.3661
X-0.2489Y1.815
X-0.2489Y1.2638
X-0.2489Y0.7126
X-0.2489Y0.1614
X-0.2489Y1.9252
X-0.2489Y1.374
X-0.2489Y0.8228
X-0.2489Y0.2717
X-0.2489Y-0.2795
X-0.2159Y2.3661
X-0.2159Y1.815
X-0.2159Y1.2638
X-0.2159Y0.7126
X-0.2159Y0.1614
X-0.2159Y1.9252
X-0.2159Y1.374
X-0.2159Y0.8228
X-0.2159Y0.2717
X-0.2159Y-0.2795
X-0.0354Y2.2448
X-0.0354Y2.2117
X-0.0354Y2.1787
X-0.0354Y2.1457
X-0.0354Y2.1126
X-0.0354Y2.0796
X-0.0354Y2.0466
X-0.0354Y1.6936
X-0.0354Y1.6606
X-0.0354Y1.6275
X-0.0354Y1.5945
X-0.0354Y1.5615
X-0.0354Y1.5284
X-0.0354Y1.4954
X-0.0354Y1.1424
X-0.0354Y1.1094
X-0.0354Y1.0763
X-0.0354Y1.0433
X-0.0354Y1.0103
X-0.0354Y0.9772
X-0.0354Y0.9442
X-0.0354Y0.5912
X-0.0354Y0.5582
X-0.0354Y0.5252
X-0.0354Y0.4921
X-0.0354Y0.4591
X-0.0354Y0.4261
X-0.0354Y0.393
X-0.0354Y0.04
X-0.0354Y0.007
X-0.0354Y-0.026
X-0.0354Y-0.0591
X-0.0354Y-0.0921
X-0.0354Y-0.1251
X-0.0354Y-0.1582
X0.0787Y2.3622
X0.0787Y-0.2756
X0.1102Y2.3622
X0.1102Y-0.2756
X0.1417Y2.3622
X0.1417Y-0.2756
X0.1732Y2.3622
X0.1732Y-0.2756
X0.2047Y2.3622
X0.2047Y-0.2756
X0.2362Y2.3622
X0.2362Y-0.2756
X0.767Y2.3661
X0.767Y1.815
X0.767Y1.2638
X0.767Y0.7126
X0.767Y0.1614
X0.767Y1.9252
X0.767Y1.374
X0.767Y0.8228
X0.767Y0.2717
X0.767Y-0.2795
X0.8001Y2.3661
X0.8001Y1.815
X0.8001Y1.2638
X0.8001Y0.7126
X0.8001Y0.1614
X0.8001Y1.9252
X0.8001Y1.374
X0.8001Y0.8228
X0.8001Y0.2717
X0.8001Y-0.2795
X0.8331Y2.3661
X0.8331Y1.815
X0.8331Y1.2638
X0.8331Y0.7126
X0.8331Y0.1614
X0.8331Y1.9252
X0.8331Y1.374
X0.8331Y0.8228
X0.8331Y0.2717
X0.8331Y-0.2795
X0.8661Y2.3661
X0.8661Y1.815
X0.8661Y1.2638
X0.8661Y0.7126
X0.8661Y0.1614
X0.8661Y1.9252
X0.8661Y1.374
X0.8661Y0.8228
X0.8661Y0.2717
X0.8661Y-0.2795
X0.8992Y2.3661
X0.8992Y1.815
X0.8992Y1.2638
X0.8992Y0.7126
X0.8992Y0.1614
X0.8992Y1.9252
X0.8992Y1.374
X0.8992Y0.8228
X0.8992Y0.2717
X0.8992Y-0.2795
X0.9322Y2.3661
X0.9322Y1.815
X0.9322Y1.2638
X0.9322Y0.7126
X0.9322Y0.1614
X0.9322Y1.9252
X0.9322Y1.374
X0.9322Y0.8228
X0.9322Y0.2717
X0.9322Y-0.2795
X0.9652Y2.3661
X0.9652Y1.815
X0.9652Y1.2638
X0.9652Y0.7126
X0.9652Y0.1614
X0.9652Y1.9252
X0.9652Y1.374
X0.9652Y0.8228
X0.9652Y0.2717
X0.9652Y-0.2795
X1.1457Y2.2448
X1.1457Y2.2117
X1.1457Y2.1787
X1.1457Y2.1457
X1.1457Y2.1126
X1.1457Y2.0796
X1.1457Y2.0466
X1.1457Y1.6936
X1.1457Y1.6606
X1.1457Y1.6275
X1.1457Y1.5945
X1.1457Y1.5615
X1.1457Y1.5284
X1.1457Y1.4954
X1.1457Y1.1424
X1.1457Y1.1094
X1.1457Y1.0763
X1.1457Y1.0433
X1.1457Y1.0103
X1.1457Y0.9772
X1.1457Y0.9442
X1.1457Y0.5912
X1.1457Y0.5582
X1.1457Y0.5252
X1.1457Y0.4921
X1.1457Y0.4591
X1.1457Y0.4261
X1.1457Y0.393
X1.1457Y0.04
X1.1457Y0.007
X1.1457Y-0.026
X1.1457Y-0.0591
X1.1457Y-0.0921
X1.1457Y-0.1251
X1.1457Y-0.1582
X1.2598Y2.3622
X1.2598Y-0.2756
X1.2913Y2.3622
X1.2913Y-0.2756
X1.3228Y2.3622
X1.3228Y-0.2756
X1.3543Y2.3622
X1.3543Y-0.2756
X1.3858Y2.3622
X1.3858Y-0.2756
X1.4173Y2.3622
X1.4173Y-0.2756
T0
M30
