%TF.GenerationSoftware,KiCad,Pcbnew,6.0.0-rc1-unknown-c40e921cb3~144~ubuntu18.04.1*%
%TF.CreationDate,2021-12-01T16:53:05+00:00*%
%TF.ProjectId,output.panel20,6f757470-7574-42e7-9061-6e656c32302e,rev?*%
%TF.SameCoordinates,PX9896800PY7270e00*%
%TF.FileFunction,Paste,Top*%
%TF.FilePolarity,Positive*%
%FSLAX46Y46*%
G04 Gerber Fmt 4.6, Leading zero omitted, Abs format (unit mm)*
G04 Created by KiCad (PCBNEW 6.0.0-rc1-unknown-c40e921cb3~144~ubuntu18.04.1) date 2021-12-01 16:53:05*
%MOMM*%
%LPD*%
G01*
G04 APERTURE LIST*
G04 Aperture macros list*
%AMRoundRect*
0 Rectangle with rounded corners*
0 $1 Rounding radius*
0 $2 $3 $4 $5 $6 $7 $8 $9 X,Y pos of 4 corners*
0 Add a 4 corners polygon primitive as box body*
4,1,4,$2,$3,$4,$5,$6,$7,$8,$9,$2,$3,0*
0 Add four circle primitives for the rounded corners*
1,1,$1+$1,$2,$3*
1,1,$1+$1,$4,$5*
1,1,$1+$1,$6,$7*
1,1,$1+$1,$8,$9*
0 Add four rect primitives between the rounded corners*
20,1,$1+$1,$2,$3,$4,$5,0*
20,1,$1+$1,$4,$5,$6,$7,0*
20,1,$1+$1,$6,$7,$8,$9,0*
20,1,$1+$1,$8,$9,$2,$3,0*%
%AMRotRect*
0 Rectangle, with rotation*
0 The origin of the aperture is its center*
0 $1 length*
0 $2 width*
0 $3 Rotation angle, in degrees counterclockwise*
0 Add horizontal line*
21,1,$1,$2,0,0,$3*%
G04 Aperture macros list end*
%ADD10RoundRect,0.200000X-0.200000X-0.275000X0.200000X-0.275000X0.200000X0.275000X-0.200000X0.275000X0*%
%ADD11RoundRect,0.200000X0.275000X-0.200000X0.275000X0.200000X-0.275000X0.200000X-0.275000X-0.200000X0*%
%ADD12RoundRect,0.225000X-0.017678X0.335876X-0.335876X0.017678X0.017678X-0.335876X0.335876X-0.017678X0*%
%ADD13RoundRect,0.225000X-0.225000X-0.250000X0.225000X-0.250000X0.225000X0.250000X-0.225000X0.250000X0*%
%ADD14RoundRect,0.218750X-0.218750X-0.256250X0.218750X-0.256250X0.218750X0.256250X-0.218750X0.256250X0*%
%ADD15RoundRect,0.225000X0.109431X0.318041X-0.304796X0.142212X-0.109431X-0.318041X0.304796X-0.142212X0*%
%ADD16RoundRect,0.150000X0.625000X-0.150000X0.625000X0.150000X-0.625000X0.150000X-0.625000X-0.150000X0*%
%ADD17RoundRect,0.250000X0.650000X-0.350000X0.650000X0.350000X-0.650000X0.350000X-0.650000X-0.350000X0*%
%ADD18RotRect,0.750000X0.650000X45.000000*%
%ADD19RotRect,0.800000X0.250000X45.000000*%
%ADD20RoundRect,0.090000X0.084853X-0.212132X0.212132X-0.084853X-0.084853X0.212132X-0.212132X0.084853X0*%
%ADD21RoundRect,0.062500X-0.159099X-0.247487X0.247487X0.159099X0.159099X0.247487X-0.247487X-0.159099X0*%
%ADD22RoundRect,0.150000X0.587500X0.150000X-0.587500X0.150000X-0.587500X-0.150000X0.587500X-0.150000X0*%
G04 APERTURE END LIST*
D10*
%TO.C,R1*%
X12575000Y-5400000D03*
X14225000Y-5400000D03*
%TD*%
D11*
%TO.C,R2*%
X-33200000Y56975000D03*
X-33200000Y58625000D03*
%TD*%
D12*
%TO.C,C3*%
X21448008Y42448008D03*
X20351992Y41351992D03*
%TD*%
D13*
%TO.C,C2*%
X15125000Y17100000D03*
X16675000Y17100000D03*
%TD*%
D14*
%TO.C,D1*%
X-74387500Y8600000D03*
X-72812500Y8600000D03*
%TD*%
%TO.C,D1*%
X-44387500Y8600000D03*
X-42812500Y8600000D03*
%TD*%
D12*
%TO.C,C3*%
X21448008Y28448008D03*
X20351992Y27351992D03*
%TD*%
D13*
%TO.C,C2*%
X-14875000Y31100000D03*
X-13325000Y31100000D03*
%TD*%
D15*
%TO.C,C1*%
X-16586609Y59002817D03*
X-18013391Y58397183D03*
%TD*%
D16*
%TO.C,J1*%
X23300000Y9500000D03*
X23300000Y10500000D03*
X23300000Y11500000D03*
D17*
X27175000Y12800000D03*
X27175000Y8200000D03*
%TD*%
D13*
%TO.C,C2*%
X-74875000Y59100000D03*
X-73325000Y59100000D03*
%TD*%
D18*
%TO.C,U1*%
X19017157Y16182843D03*
D19*
X17991852Y15652513D03*
X18345406Y15298959D03*
X18698959Y14945406D03*
X19052513Y14591852D03*
X20608148Y16147487D03*
X20254594Y16501041D03*
X19901041Y16854594D03*
X19547487Y17208148D03*
%TD*%
D18*
%TO.C,U1*%
X-10982843Y16182843D03*
D19*
X-12008148Y15652513D03*
X-11654594Y15298959D03*
X-11301041Y14945406D03*
X-10947487Y14591852D03*
X-9391852Y16147487D03*
X-9745406Y16501041D03*
X-10098959Y16854594D03*
X-10452513Y17208148D03*
%TD*%
D16*
%TO.C,J1*%
X23300000Y23500000D03*
X23300000Y24500000D03*
X23300000Y25500000D03*
D17*
X27175000Y26800000D03*
X27175000Y22200000D03*
%TD*%
D16*
%TO.C,J1*%
X-36700000Y-4500000D03*
X-36700000Y-3500000D03*
X-36700000Y-2500000D03*
D17*
X-32825000Y-1200000D03*
X-32825000Y-5800000D03*
%TD*%
D11*
%TO.C,R2*%
X26800000Y975000D03*
X26800000Y2625000D03*
%TD*%
D12*
%TO.C,C3*%
X-8551992Y42448008D03*
X-9648008Y41351992D03*
%TD*%
D11*
%TO.C,R2*%
X-63200000Y28975000D03*
X-63200000Y30625000D03*
%TD*%
D14*
%TO.C,D1*%
X15612500Y8600000D03*
X17187500Y8600000D03*
%TD*%
D11*
%TO.C,R2*%
X26800000Y42975000D03*
X26800000Y44625000D03*
%TD*%
D20*
%TO.C,U2*%
X23793934Y16224264D03*
X24324264Y15693934D03*
X24006066Y15375736D03*
X23475736Y15906066D03*
D21*
X22662563Y15623223D03*
X23016117Y15269670D03*
X23369670Y14916117D03*
X23723223Y14562563D03*
X25137437Y15976777D03*
X24783883Y16330330D03*
X24430330Y16683883D03*
X24076777Y17037437D03*
%TD*%
D20*
%TO.C,U2*%
X-5675736Y1693934D03*
X-6206066Y2224264D03*
X-5993934Y1375736D03*
X-6524264Y1906066D03*
D21*
X-7337437Y1623223D03*
X-6983883Y1269670D03*
X-6630330Y916117D03*
X-6276777Y562563D03*
X-4862563Y1976777D03*
X-5216117Y2330330D03*
X-5569670Y2683883D03*
X-5923223Y3037437D03*
%TD*%
D13*
%TO.C,C2*%
X-74875000Y3100000D03*
X-73325000Y3100000D03*
%TD*%
D15*
%TO.C,C1*%
X-46586609Y3002817D03*
X-48013391Y2397183D03*
%TD*%
D22*
%TO.C,U3*%
X-39162500Y-5350000D03*
X-39162500Y-3450000D03*
X-41037500Y-4400000D03*
%TD*%
D18*
%TO.C,U1*%
X-70982843Y58182843D03*
D19*
X-72008148Y57652513D03*
X-71654594Y57298959D03*
X-71301041Y56945406D03*
X-70947487Y56591852D03*
X-69391852Y58147487D03*
X-69745406Y58501041D03*
X-70098959Y58854594D03*
X-70452513Y59208148D03*
%TD*%
D15*
%TO.C,C1*%
X-76586609Y17002817D03*
X-78013391Y16397183D03*
%TD*%
D13*
%TO.C,C2*%
X15125000Y59100000D03*
X16675000Y59100000D03*
%TD*%
D16*
%TO.C,J1*%
X-6700000Y51500000D03*
X-6700000Y52500000D03*
X-6700000Y53500000D03*
D17*
X-2825000Y50200000D03*
X-2825000Y54800000D03*
%TD*%
D20*
%TO.C,U2*%
X23475736Y43906066D03*
X24324264Y43693934D03*
X23793934Y44224264D03*
X24006066Y43375736D03*
D21*
X22662563Y43623223D03*
X23016117Y43269670D03*
X23369670Y42916117D03*
X23723223Y42562563D03*
X25137437Y43976777D03*
X24783883Y44330330D03*
X24430330Y44683883D03*
X24076777Y45037437D03*
%TD*%
D18*
%TO.C,U1*%
X-10982843Y44182843D03*
D19*
X-12008148Y43652513D03*
X-11654594Y43298959D03*
X-11301041Y42945406D03*
X-10947487Y42591852D03*
X-9391852Y44147487D03*
X-9745406Y44501041D03*
X-10098959Y44854594D03*
X-10452513Y45208148D03*
%TD*%
D10*
%TO.C,R1*%
X-47425000Y36600000D03*
X-45775000Y36600000D03*
%TD*%
D15*
%TO.C,C1*%
X-46586609Y45002817D03*
X-48013391Y44397183D03*
%TD*%
D22*
%TO.C,U3*%
X-9162500Y22650000D03*
X-9162500Y24550000D03*
X-11037500Y23600000D03*
%TD*%
D10*
%TO.C,R1*%
X-77425000Y36600000D03*
X-75775000Y36600000D03*
%TD*%
D20*
%TO.C,U2*%
X-6206066Y58224264D03*
X-5993934Y57375736D03*
X-5675736Y57693934D03*
X-6524264Y57906066D03*
D21*
X-7337437Y57623223D03*
X-6983883Y57269670D03*
X-6630330Y56916117D03*
X-6276777Y56562563D03*
X-4862563Y57976777D03*
X-5216117Y58330330D03*
X-5569670Y58683883D03*
X-5923223Y59037437D03*
%TD*%
D20*
%TO.C,U2*%
X-66524264Y57906066D03*
X-65993934Y57375736D03*
X-65675736Y57693934D03*
X-66206066Y58224264D03*
D21*
X-67337437Y57623223D03*
X-66983883Y57269670D03*
X-66630330Y56916117D03*
X-66276777Y56562563D03*
X-64862563Y57976777D03*
X-65216117Y58330330D03*
X-65569670Y58683883D03*
X-65923223Y59037437D03*
%TD*%
D15*
%TO.C,C1*%
X-16586609Y45002817D03*
X-18013391Y44397183D03*
%TD*%
D22*
%TO.C,U3*%
X20837500Y50650000D03*
X20837500Y52550000D03*
X18962500Y51600000D03*
%TD*%
D15*
%TO.C,C1*%
X-76586609Y31002817D03*
X-78013391Y30397183D03*
%TD*%
D14*
%TO.C,D1*%
X15612500Y-5400000D03*
X17187500Y-5400000D03*
%TD*%
D20*
%TO.C,U2*%
X-5675736Y15693934D03*
X-6206066Y16224264D03*
X-5993934Y15375736D03*
X-6524264Y15906066D03*
D21*
X-7337437Y15623223D03*
X-6983883Y15269670D03*
X-6630330Y14916117D03*
X-6276777Y14562563D03*
X-4862563Y15976777D03*
X-5216117Y16330330D03*
X-5569670Y16683883D03*
X-5923223Y17037437D03*
%TD*%
D20*
%TO.C,U2*%
X-66524264Y43906066D03*
X-65993934Y43375736D03*
X-66206066Y44224264D03*
X-65675736Y43693934D03*
D21*
X-67337437Y43623223D03*
X-66983883Y43269670D03*
X-66630330Y42916117D03*
X-66276777Y42562563D03*
X-64862563Y43976777D03*
X-65216117Y44330330D03*
X-65569670Y44683883D03*
X-65923223Y45037437D03*
%TD*%
D10*
%TO.C,R1*%
X12575000Y50600000D03*
X14225000Y50600000D03*
%TD*%
D14*
%TO.C,D1*%
X-74387500Y-5400000D03*
X-72812500Y-5400000D03*
%TD*%
D22*
%TO.C,U3*%
X-69162500Y36650000D03*
X-69162500Y38550000D03*
X-71037500Y37600000D03*
%TD*%
D16*
%TO.C,J1*%
X-36700000Y23500000D03*
X-36700000Y24500000D03*
X-36700000Y25500000D03*
D17*
X-32825000Y22200000D03*
X-32825000Y26800000D03*
%TD*%
D15*
%TO.C,C1*%
X-76586609Y59002817D03*
X-78013391Y58397183D03*
%TD*%
D22*
%TO.C,U3*%
X-69162500Y22650000D03*
X-69162500Y24550000D03*
X-71037500Y23600000D03*
%TD*%
%TO.C,U3*%
X-69162500Y-5350000D03*
X-69162500Y-3450000D03*
X-71037500Y-4400000D03*
%TD*%
%TO.C,U3*%
X-9162500Y50650000D03*
X-9162500Y52550000D03*
X-11037500Y51600000D03*
%TD*%
D16*
%TO.C,J1*%
X-6700000Y37500000D03*
X-6700000Y38500000D03*
X-6700000Y39500000D03*
D17*
X-2825000Y40800000D03*
X-2825000Y36200000D03*
%TD*%
D22*
%TO.C,U3*%
X-39162500Y50650000D03*
X-39162500Y52550000D03*
X-41037500Y51600000D03*
%TD*%
D15*
%TO.C,C1*%
X-76586609Y45002817D03*
X-78013391Y44397183D03*
%TD*%
D12*
%TO.C,C3*%
X-8551992Y448008D03*
X-9648008Y-648008D03*
%TD*%
D18*
%TO.C,U1*%
X-40982843Y44182843D03*
D19*
X-42008148Y43652513D03*
X-41654594Y43298959D03*
X-41301041Y42945406D03*
X-40947487Y42591852D03*
X-39391852Y44147487D03*
X-39745406Y44501041D03*
X-40098959Y44854594D03*
X-40452513Y45208148D03*
%TD*%
D10*
%TO.C,R1*%
X12575000Y8600000D03*
X14225000Y8600000D03*
%TD*%
D20*
%TO.C,U2*%
X-36524264Y15906066D03*
X-36206066Y16224264D03*
X-35675736Y15693934D03*
X-35993934Y15375736D03*
D21*
X-37337437Y15623223D03*
X-36983883Y15269670D03*
X-36630330Y14916117D03*
X-36276777Y14562563D03*
X-34862563Y15976777D03*
X-35216117Y16330330D03*
X-35569670Y16683883D03*
X-35923223Y17037437D03*
%TD*%
D11*
%TO.C,R2*%
X-63200000Y14975000D03*
X-63200000Y16625000D03*
%TD*%
D15*
%TO.C,C1*%
X-46586609Y59002817D03*
X-48013391Y58397183D03*
%TD*%
D14*
%TO.C,D1*%
X-14387500Y-5400000D03*
X-12812500Y-5400000D03*
%TD*%
D11*
%TO.C,R2*%
X-33200000Y42975000D03*
X-33200000Y44625000D03*
%TD*%
D12*
%TO.C,C3*%
X-38551992Y56448008D03*
X-39648008Y55351992D03*
%TD*%
D15*
%TO.C,C1*%
X13413391Y59002817D03*
X11986609Y58397183D03*
%TD*%
D18*
%TO.C,U1*%
X-70982843Y2182843D03*
D19*
X-72008148Y1652513D03*
X-71654594Y1298959D03*
X-71301041Y945406D03*
X-70947487Y591852D03*
X-69391852Y2147487D03*
X-69745406Y2501041D03*
X-70098959Y2854594D03*
X-70452513Y3208148D03*
%TD*%
D13*
%TO.C,C2*%
X-74875000Y31100000D03*
X-73325000Y31100000D03*
%TD*%
D10*
%TO.C,R1*%
X-47425000Y-5400000D03*
X-45775000Y-5400000D03*
%TD*%
D11*
%TO.C,R2*%
X-33200000Y975000D03*
X-33200000Y2625000D03*
%TD*%
D10*
%TO.C,R1*%
X-77425000Y50600000D03*
X-75775000Y50600000D03*
%TD*%
D13*
%TO.C,C2*%
X-14875000Y59100000D03*
X-13325000Y59100000D03*
%TD*%
D20*
%TO.C,U2*%
X-35993934Y43375736D03*
X-36206066Y44224264D03*
X-35675736Y43693934D03*
X-36524264Y43906066D03*
D21*
X-37337437Y43623223D03*
X-36983883Y43269670D03*
X-36630330Y42916117D03*
X-36276777Y42562563D03*
X-34862563Y43976777D03*
X-35216117Y44330330D03*
X-35569670Y44683883D03*
X-35923223Y45037437D03*
%TD*%
D11*
%TO.C,R2*%
X-33200000Y14975000D03*
X-33200000Y16625000D03*
%TD*%
D13*
%TO.C,C2*%
X-44875000Y3100000D03*
X-43325000Y3100000D03*
%TD*%
D22*
%TO.C,U3*%
X20837500Y36650000D03*
X20837500Y38550000D03*
X18962500Y37600000D03*
%TD*%
D20*
%TO.C,U2*%
X24006066Y29375736D03*
X24324264Y29693934D03*
X23793934Y30224264D03*
X23475736Y29906066D03*
D21*
X22662563Y29623223D03*
X23016117Y29269670D03*
X23369670Y28916117D03*
X23723223Y28562563D03*
X25137437Y29976777D03*
X24783883Y30330330D03*
X24430330Y30683883D03*
X24076777Y31037437D03*
%TD*%
D15*
%TO.C,C1*%
X-76586609Y3002817D03*
X-78013391Y2397183D03*
%TD*%
%TO.C,C1*%
X-16586609Y3002817D03*
X-18013391Y2397183D03*
%TD*%
D10*
%TO.C,R1*%
X-17425000Y-5400000D03*
X-15775000Y-5400000D03*
%TD*%
D20*
%TO.C,U2*%
X-35993934Y57375736D03*
X-35675736Y57693934D03*
X-36524264Y57906066D03*
X-36206066Y58224264D03*
D21*
X-37337437Y57623223D03*
X-36983883Y57269670D03*
X-36630330Y56916117D03*
X-36276777Y56562563D03*
X-34862563Y57976777D03*
X-35216117Y58330330D03*
X-35569670Y58683883D03*
X-35923223Y59037437D03*
%TD*%
D15*
%TO.C,C1*%
X-46586609Y31002817D03*
X-48013391Y30397183D03*
%TD*%
%TO.C,C1*%
X-16586609Y31002817D03*
X-18013391Y30397183D03*
%TD*%
%TO.C,C1*%
X13413391Y45002817D03*
X11986609Y44397183D03*
%TD*%
D18*
%TO.C,U1*%
X19017157Y30182843D03*
D19*
X17991852Y29652513D03*
X18345406Y29298959D03*
X18698959Y28945406D03*
X19052513Y28591852D03*
X20608148Y30147487D03*
X20254594Y30501041D03*
X19901041Y30854594D03*
X19547487Y31208148D03*
%TD*%
D15*
%TO.C,C1*%
X13413391Y3002817D03*
X11986609Y2397183D03*
%TD*%
D10*
%TO.C,R1*%
X-77425000Y-5400000D03*
X-75775000Y-5400000D03*
%TD*%
D18*
%TO.C,U1*%
X-70982843Y16182843D03*
D19*
X-72008148Y15652513D03*
X-71654594Y15298959D03*
X-71301041Y14945406D03*
X-70947487Y14591852D03*
X-69391852Y16147487D03*
X-69745406Y16501041D03*
X-70098959Y16854594D03*
X-70452513Y17208148D03*
%TD*%
D18*
%TO.C,U1*%
X19017157Y44182843D03*
D19*
X17991852Y43652513D03*
X18345406Y43298959D03*
X18698959Y42945406D03*
X19052513Y42591852D03*
X20608148Y44147487D03*
X20254594Y44501041D03*
X19901041Y44854594D03*
X19547487Y45208148D03*
%TD*%
D12*
%TO.C,C3*%
X-68551992Y56448008D03*
X-69648008Y55351992D03*
%TD*%
D10*
%TO.C,R1*%
X12575000Y22600000D03*
X14225000Y22600000D03*
%TD*%
D13*
%TO.C,C2*%
X15125000Y3100000D03*
X16675000Y3100000D03*
%TD*%
D12*
%TO.C,C3*%
X-68551992Y28448008D03*
X-69648008Y27351992D03*
%TD*%
D14*
%TO.C,D1*%
X-74387500Y36600000D03*
X-72812500Y36600000D03*
%TD*%
D16*
%TO.C,J1*%
X-6700000Y23500000D03*
X-6700000Y24500000D03*
X-6700000Y25500000D03*
D17*
X-2825000Y26800000D03*
X-2825000Y22200000D03*
%TD*%
D16*
%TO.C,J1*%
X-36700000Y9500000D03*
X-36700000Y10500000D03*
X-36700000Y11500000D03*
D17*
X-32825000Y8200000D03*
X-32825000Y12800000D03*
%TD*%
D18*
%TO.C,U1*%
X-40982843Y30182843D03*
D19*
X-42008148Y29652513D03*
X-41654594Y29298959D03*
X-41301041Y28945406D03*
X-40947487Y28591852D03*
X-39391852Y30147487D03*
X-39745406Y30501041D03*
X-40098959Y30854594D03*
X-40452513Y31208148D03*
%TD*%
D11*
%TO.C,R2*%
X-3200000Y56975000D03*
X-3200000Y58625000D03*
%TD*%
D18*
%TO.C,U1*%
X-40982843Y58182843D03*
D19*
X-42008148Y57652513D03*
X-41654594Y57298959D03*
X-41301041Y56945406D03*
X-40947487Y56591852D03*
X-39391852Y58147487D03*
X-39745406Y58501041D03*
X-40098959Y58854594D03*
X-40452513Y59208148D03*
%TD*%
D22*
%TO.C,U3*%
X-9162500Y36650000D03*
X-9162500Y38550000D03*
X-11037500Y37600000D03*
%TD*%
D10*
%TO.C,R1*%
X-17425000Y22600000D03*
X-15775000Y22600000D03*
%TD*%
D22*
%TO.C,U3*%
X-9162500Y-5350000D03*
X-9162500Y-3450000D03*
X-11037500Y-4400000D03*
%TD*%
D20*
%TO.C,U2*%
X-65993934Y29375736D03*
X-65675736Y29693934D03*
X-66206066Y30224264D03*
X-66524264Y29906066D03*
D21*
X-67337437Y29623223D03*
X-66983883Y29269670D03*
X-66630330Y28916117D03*
X-66276777Y28562563D03*
X-64862563Y29976777D03*
X-65216117Y30330330D03*
X-65569670Y30683883D03*
X-65923223Y31037437D03*
%TD*%
D18*
%TO.C,U1*%
X-10982843Y58182843D03*
D19*
X-12008148Y57652513D03*
X-11654594Y57298959D03*
X-11301041Y56945406D03*
X-10947487Y56591852D03*
X-9391852Y58147487D03*
X-9745406Y58501041D03*
X-10098959Y58854594D03*
X-10452513Y59208148D03*
%TD*%
D13*
%TO.C,C2*%
X-74875000Y17100000D03*
X-73325000Y17100000D03*
%TD*%
D11*
%TO.C,R2*%
X-3200000Y42975000D03*
X-3200000Y44625000D03*
%TD*%
D15*
%TO.C,C1*%
X13413391Y31002817D03*
X11986609Y30397183D03*
%TD*%
D20*
%TO.C,U2*%
X-36524264Y29906066D03*
X-36206066Y30224264D03*
X-35993934Y29375736D03*
X-35675736Y29693934D03*
D21*
X-37337437Y29623223D03*
X-36983883Y29269670D03*
X-36630330Y28916117D03*
X-36276777Y28562563D03*
X-34862563Y29976777D03*
X-35216117Y30330330D03*
X-35569670Y30683883D03*
X-35923223Y31037437D03*
%TD*%
D11*
%TO.C,R2*%
X-63200000Y56975000D03*
X-63200000Y58625000D03*
%TD*%
D14*
%TO.C,D1*%
X-14387500Y8600000D03*
X-12812500Y8600000D03*
%TD*%
D18*
%TO.C,U1*%
X-70982843Y30182843D03*
D19*
X-72008148Y29652513D03*
X-71654594Y29298959D03*
X-71301041Y28945406D03*
X-70947487Y28591852D03*
X-69391852Y30147487D03*
X-69745406Y30501041D03*
X-70098959Y30854594D03*
X-70452513Y31208148D03*
%TD*%
D14*
%TO.C,D1*%
X15612500Y22600000D03*
X17187500Y22600000D03*
%TD*%
D16*
%TO.C,J1*%
X-66700000Y-4500000D03*
X-66700000Y-3500000D03*
X-66700000Y-2500000D03*
D17*
X-62825000Y-1200000D03*
X-62825000Y-5800000D03*
%TD*%
D14*
%TO.C,D1*%
X-44387500Y36600000D03*
X-42812500Y36600000D03*
%TD*%
D11*
%TO.C,R2*%
X26800000Y14975000D03*
X26800000Y16625000D03*
%TD*%
D13*
%TO.C,C2*%
X-14875000Y45100000D03*
X-13325000Y45100000D03*
%TD*%
D14*
%TO.C,D1*%
X-44387500Y-5400000D03*
X-42812500Y-5400000D03*
%TD*%
D22*
%TO.C,U3*%
X20837500Y22650000D03*
X20837500Y24550000D03*
X18962500Y23600000D03*
%TD*%
D16*
%TO.C,J1*%
X-66700000Y9500000D03*
X-66700000Y10500000D03*
X-66700000Y11500000D03*
D17*
X-62825000Y8200000D03*
X-62825000Y12800000D03*
%TD*%
D13*
%TO.C,C2*%
X15125000Y45100000D03*
X16675000Y45100000D03*
%TD*%
D14*
%TO.C,D1*%
X-14387500Y50600000D03*
X-12812500Y50600000D03*
%TD*%
D12*
%TO.C,C3*%
X-68551992Y42448008D03*
X-69648008Y41351992D03*
%TD*%
D22*
%TO.C,U3*%
X20837500Y8650000D03*
X20837500Y10550000D03*
X18962500Y9600000D03*
%TD*%
D12*
%TO.C,C3*%
X-68551992Y448008D03*
X-69648008Y-648008D03*
%TD*%
D13*
%TO.C,C2*%
X-44875000Y31100000D03*
X-43325000Y31100000D03*
%TD*%
D12*
%TO.C,C3*%
X-38551992Y448008D03*
X-39648008Y-648008D03*
%TD*%
D18*
%TO.C,U1*%
X19017157Y58182843D03*
D19*
X17991852Y57652513D03*
X18345406Y57298959D03*
X18698959Y56945406D03*
X19052513Y56591852D03*
X20608148Y58147487D03*
X20254594Y58501041D03*
X19901041Y58854594D03*
X19547487Y59208148D03*
%TD*%
D18*
%TO.C,U1*%
X-40982843Y16182843D03*
D19*
X-42008148Y15652513D03*
X-41654594Y15298959D03*
X-41301041Y14945406D03*
X-40947487Y14591852D03*
X-39391852Y16147487D03*
X-39745406Y16501041D03*
X-40098959Y16854594D03*
X-40452513Y17208148D03*
%TD*%
D10*
%TO.C,R1*%
X12575000Y36600000D03*
X14225000Y36600000D03*
%TD*%
%TO.C,R1*%
X-17425000Y8600000D03*
X-15775000Y8600000D03*
%TD*%
D18*
%TO.C,U1*%
X-10982843Y30182843D03*
D19*
X-12008148Y29652513D03*
X-11654594Y29298959D03*
X-11301041Y28945406D03*
X-10947487Y28591852D03*
X-9391852Y30147487D03*
X-9745406Y30501041D03*
X-10098959Y30854594D03*
X-10452513Y31208148D03*
%TD*%
D13*
%TO.C,C2*%
X-14875000Y3100000D03*
X-13325000Y3100000D03*
%TD*%
D22*
%TO.C,U3*%
X-39162500Y36650000D03*
X-39162500Y38550000D03*
X-41037500Y37600000D03*
%TD*%
D13*
%TO.C,C2*%
X-14875000Y17100000D03*
X-13325000Y17100000D03*
%TD*%
D22*
%TO.C,U3*%
X-39162500Y22650000D03*
X-39162500Y24550000D03*
X-41037500Y23600000D03*
%TD*%
D18*
%TO.C,U1*%
X-70982843Y44182843D03*
D19*
X-72008148Y43652513D03*
X-71654594Y43298959D03*
X-71301041Y42945406D03*
X-70947487Y42591852D03*
X-69391852Y44147487D03*
X-69745406Y44501041D03*
X-70098959Y44854594D03*
X-70452513Y45208148D03*
%TD*%
D14*
%TO.C,D1*%
X15612500Y36600000D03*
X17187500Y36600000D03*
%TD*%
D12*
%TO.C,C3*%
X-8551992Y56448008D03*
X-9648008Y55351992D03*
%TD*%
D13*
%TO.C,C2*%
X-44875000Y17100000D03*
X-43325000Y17100000D03*
%TD*%
D11*
%TO.C,R2*%
X-3200000Y14975000D03*
X-3200000Y16625000D03*
%TD*%
D14*
%TO.C,D1*%
X-14387500Y36600000D03*
X-12812500Y36600000D03*
%TD*%
%TO.C,D1*%
X15612500Y50600000D03*
X17187500Y50600000D03*
%TD*%
D12*
%TO.C,C3*%
X-68551992Y14448008D03*
X-69648008Y13351992D03*
%TD*%
D13*
%TO.C,C2*%
X-44875000Y59100000D03*
X-43325000Y59100000D03*
%TD*%
D16*
%TO.C,J1*%
X-6700000Y9500000D03*
X-6700000Y10500000D03*
X-6700000Y11500000D03*
D17*
X-2825000Y8200000D03*
X-2825000Y12800000D03*
%TD*%
D16*
%TO.C,J1*%
X23300000Y-4500000D03*
X23300000Y-3500000D03*
X23300000Y-2500000D03*
D17*
X27175000Y-1200000D03*
X27175000Y-5800000D03*
%TD*%
D10*
%TO.C,R1*%
X-17425000Y36600000D03*
X-15775000Y36600000D03*
%TD*%
D20*
%TO.C,U2*%
X-5675736Y29693934D03*
X-6206066Y30224264D03*
X-5993934Y29375736D03*
X-6524264Y29906066D03*
D21*
X-7337437Y29623223D03*
X-6983883Y29269670D03*
X-6630330Y28916117D03*
X-6276777Y28562563D03*
X-4862563Y29976777D03*
X-5216117Y30330330D03*
X-5569670Y30683883D03*
X-5923223Y31037437D03*
%TD*%
D14*
%TO.C,D1*%
X-74387500Y50600000D03*
X-72812500Y50600000D03*
%TD*%
D10*
%TO.C,R1*%
X-17425000Y50600000D03*
X-15775000Y50600000D03*
%TD*%
D11*
%TO.C,R2*%
X-3200000Y28975000D03*
X-3200000Y30625000D03*
%TD*%
%TO.C,R2*%
X-63200000Y42975000D03*
X-63200000Y44625000D03*
%TD*%
D14*
%TO.C,D1*%
X-44387500Y22600000D03*
X-42812500Y22600000D03*
%TD*%
D11*
%TO.C,R2*%
X26800000Y56975000D03*
X26800000Y58625000D03*
%TD*%
D12*
%TO.C,C3*%
X-38551992Y14448008D03*
X-39648008Y13351992D03*
%TD*%
D18*
%TO.C,U1*%
X19017157Y2182843D03*
D19*
X17991852Y1652513D03*
X18345406Y1298959D03*
X18698959Y945406D03*
X19052513Y591852D03*
X20608148Y2147487D03*
X20254594Y2501041D03*
X19901041Y2854594D03*
X19547487Y3208148D03*
%TD*%
D20*
%TO.C,U2*%
X24006066Y1375736D03*
X23475736Y1906066D03*
X23793934Y2224264D03*
X24324264Y1693934D03*
D21*
X22662563Y1623223D03*
X23016117Y1269670D03*
X23369670Y916117D03*
X23723223Y562563D03*
X25137437Y1976777D03*
X24783883Y2330330D03*
X24430330Y2683883D03*
X24076777Y3037437D03*
%TD*%
D11*
%TO.C,R2*%
X-3200000Y975000D03*
X-3200000Y2625000D03*
%TD*%
D16*
%TO.C,J1*%
X-66700000Y23500000D03*
X-66700000Y24500000D03*
X-66700000Y25500000D03*
D17*
X-62825000Y26800000D03*
X-62825000Y22200000D03*
%TD*%
D22*
%TO.C,U3*%
X-9162500Y8650000D03*
X-9162500Y10550000D03*
X-11037500Y9600000D03*
%TD*%
D12*
%TO.C,C3*%
X-38551992Y42448008D03*
X-39648008Y41351992D03*
%TD*%
D14*
%TO.C,D1*%
X-14387500Y22600000D03*
X-12812500Y22600000D03*
%TD*%
D15*
%TO.C,C1*%
X13413391Y17002817D03*
X11986609Y16397183D03*
%TD*%
D20*
%TO.C,U2*%
X-66206066Y2224264D03*
X-66524264Y1906066D03*
X-65675736Y1693934D03*
X-65993934Y1375736D03*
D21*
X-67337437Y1623223D03*
X-66983883Y1269670D03*
X-66630330Y916117D03*
X-66276777Y562563D03*
X-64862563Y1976777D03*
X-65216117Y2330330D03*
X-65569670Y2683883D03*
X-65923223Y3037437D03*
%TD*%
D16*
%TO.C,J1*%
X-36700000Y51500000D03*
X-36700000Y52500000D03*
X-36700000Y53500000D03*
D17*
X-32825000Y50200000D03*
X-32825000Y54800000D03*
%TD*%
D20*
%TO.C,U2*%
X-6206066Y44224264D03*
X-6524264Y43906066D03*
X-5993934Y43375736D03*
X-5675736Y43693934D03*
D21*
X-7337437Y43623223D03*
X-6983883Y43269670D03*
X-6630330Y42916117D03*
X-6276777Y42562563D03*
X-4862563Y43976777D03*
X-5216117Y44330330D03*
X-5569670Y44683883D03*
X-5923223Y45037437D03*
%TD*%
D16*
%TO.C,J1*%
X23300000Y51500000D03*
X23300000Y52500000D03*
X23300000Y53500000D03*
D17*
X27175000Y54800000D03*
X27175000Y50200000D03*
%TD*%
D12*
%TO.C,C3*%
X21448008Y56448008D03*
X20351992Y55351992D03*
%TD*%
D15*
%TO.C,C1*%
X-16586609Y17002817D03*
X-18013391Y16397183D03*
%TD*%
D11*
%TO.C,R2*%
X-63200000Y975000D03*
X-63200000Y2625000D03*
%TD*%
D10*
%TO.C,R1*%
X-47425000Y22600000D03*
X-45775000Y22600000D03*
%TD*%
D15*
%TO.C,C1*%
X-46586609Y17002817D03*
X-48013391Y16397183D03*
%TD*%
D10*
%TO.C,R1*%
X-47425000Y50600000D03*
X-45775000Y50600000D03*
%TD*%
D22*
%TO.C,U3*%
X-69162500Y50650000D03*
X-69162500Y52550000D03*
X-71037500Y51600000D03*
%TD*%
D11*
%TO.C,R2*%
X-33200000Y28975000D03*
X-33200000Y30625000D03*
%TD*%
D12*
%TO.C,C3*%
X-8551992Y14448008D03*
X-9648008Y13351992D03*
%TD*%
D20*
%TO.C,U2*%
X23793934Y58224264D03*
X24006066Y57375736D03*
X24324264Y57693934D03*
X23475736Y57906066D03*
D21*
X22662563Y57623223D03*
X23016117Y57269670D03*
X23369670Y56916117D03*
X23723223Y56562563D03*
X25137437Y57976777D03*
X24783883Y58330330D03*
X24430330Y58683883D03*
X24076777Y59037437D03*
%TD*%
D16*
%TO.C,J1*%
X-6700000Y-4500000D03*
X-6700000Y-3500000D03*
X-6700000Y-2500000D03*
D17*
X-2825000Y-1200000D03*
X-2825000Y-5800000D03*
%TD*%
D14*
%TO.C,D1*%
X-44387500Y50600000D03*
X-42812500Y50600000D03*
%TD*%
D10*
%TO.C,R1*%
X-47425000Y8600000D03*
X-45775000Y8600000D03*
%TD*%
D13*
%TO.C,C2*%
X-74875000Y45100000D03*
X-73325000Y45100000D03*
%TD*%
D12*
%TO.C,C3*%
X21448008Y14448008D03*
X20351992Y13351992D03*
%TD*%
D16*
%TO.C,J1*%
X-66700000Y37500000D03*
X-66700000Y38500000D03*
X-66700000Y39500000D03*
D17*
X-62825000Y40800000D03*
X-62825000Y36200000D03*
%TD*%
D12*
%TO.C,C3*%
X-8551992Y28448008D03*
X-9648008Y27351992D03*
%TD*%
D10*
%TO.C,R1*%
X-77425000Y22600000D03*
X-75775000Y22600000D03*
%TD*%
D13*
%TO.C,C2*%
X15125000Y31100000D03*
X16675000Y31100000D03*
%TD*%
%TO.C,C2*%
X-44875000Y45100000D03*
X-43325000Y45100000D03*
%TD*%
D12*
%TO.C,C3*%
X21448008Y448008D03*
X20351992Y-648008D03*
%TD*%
D22*
%TO.C,U3*%
X-39162500Y8650000D03*
X-39162500Y10550000D03*
X-41037500Y9600000D03*
%TD*%
D16*
%TO.C,J1*%
X23300000Y37500000D03*
X23300000Y38500000D03*
X23300000Y39500000D03*
D17*
X27175000Y40800000D03*
X27175000Y36200000D03*
%TD*%
D12*
%TO.C,C3*%
X-38551992Y28448008D03*
X-39648008Y27351992D03*
%TD*%
D22*
%TO.C,U3*%
X-69162500Y8650000D03*
X-69162500Y10550000D03*
X-71037500Y9600000D03*
%TD*%
D10*
%TO.C,R1*%
X-77425000Y8600000D03*
X-75775000Y8600000D03*
%TD*%
D16*
%TO.C,J1*%
X-36700000Y37500000D03*
X-36700000Y38500000D03*
X-36700000Y39500000D03*
D17*
X-32825000Y36200000D03*
X-32825000Y40800000D03*
%TD*%
D20*
%TO.C,U2*%
X-66206066Y16224264D03*
X-65675736Y15693934D03*
X-65993934Y15375736D03*
X-66524264Y15906066D03*
D21*
X-67337437Y15623223D03*
X-66983883Y15269670D03*
X-66630330Y14916117D03*
X-66276777Y14562563D03*
X-64862563Y15976777D03*
X-65216117Y16330330D03*
X-65569670Y16683883D03*
X-65923223Y17037437D03*
%TD*%
D20*
%TO.C,U2*%
X-35993934Y1375736D03*
X-36206066Y2224264D03*
X-36524264Y1906066D03*
X-35675736Y1693934D03*
D21*
X-37337437Y1623223D03*
X-36983883Y1269670D03*
X-36630330Y916117D03*
X-36276777Y562563D03*
X-34862563Y1976777D03*
X-35216117Y2330330D03*
X-35569670Y2683883D03*
X-35923223Y3037437D03*
%TD*%
D11*
%TO.C,R2*%
X26800000Y28975000D03*
X26800000Y30625000D03*
%TD*%
D14*
%TO.C,D1*%
X-74387500Y22600000D03*
X-72812500Y22600000D03*
%TD*%
D16*
%TO.C,J1*%
X-66700000Y51500000D03*
X-66700000Y52500000D03*
X-66700000Y53500000D03*
D17*
X-62825000Y50200000D03*
X-62825000Y54800000D03*
%TD*%
D18*
%TO.C,U1*%
X-40982843Y2182843D03*
D19*
X-42008148Y1652513D03*
X-41654594Y1298959D03*
X-41301041Y945406D03*
X-40947487Y591852D03*
X-39391852Y2147487D03*
X-39745406Y2501041D03*
X-40098959Y2854594D03*
X-40452513Y3208148D03*
%TD*%
D18*
%TO.C,U1*%
X-10982843Y2182843D03*
D19*
X-12008148Y1652513D03*
X-11654594Y1298959D03*
X-11301041Y945406D03*
X-10947487Y591852D03*
X-9391852Y2147487D03*
X-9745406Y2501041D03*
X-10098959Y2854594D03*
X-10452513Y3208148D03*
%TD*%
D22*
%TO.C,U3*%
X20837500Y-5350000D03*
X20837500Y-3450000D03*
X18962500Y-4400000D03*
%TD*%
M02*
