<?xml version="1.0" encoding="UTF-8" standalone="no"?>
<!-- Created with Inkscape (http://www.inkscape.org/) -->

<svg
   xmlns:dc="http://purl.org/dc/elements/1.1/"
   xmlns:cc="http://creativecommons.org/ns#"
   xmlns:rdf="http://www.w3.org/1999/02/22-rdf-syntax-ns#"
   xmlns:svg="http://www.w3.org/2000/svg"
   xmlns="http://www.w3.org/2000/svg"
   xmlns:sodipodi="http://sodipodi.sourceforge.net/DTD/sodipodi-0.dtd"
   xmlns:inkscape="http://www.inkscape.org/namespaces/inkscape"
   width="297mm"
   height="210mm"
   viewBox="0 0 297 210"
   version="1.1"
   id="svg8"
   inkscape:version="0.92.3 (2405546, 2018-03-11)"
   sodipodi:docname="topview.svg">
  <defs
     id="defs2" />
  <sodipodi:namedview
     id="base"
     pagecolor="#ffffff"
     bordercolor="#666666"
     borderopacity="1.0"
     inkscape:pageopacity="0.0"
     inkscape:pageshadow="2"
     inkscape:zoom="0.7"
     inkscape:cx="683.45926"
     inkscape:cy="310.03426"
     inkscape:document-units="mm"
     inkscape:current-layer="layer1"
     showgrid="true"
     inkscape:window-width="1280"
     inkscape:window-height="885"
     inkscape:window-x="0"
     inkscape:window-y="0"
     inkscape:window-maximized="1"
     inkscape:measure-start="944.882,642.52"
     inkscape:measure-end="944.882,377.953">
    <inkscape:grid
       type="xygrid"
       id="grid834"
       units="mm"
       spacingx="5"
       spacingy="5" />
  </sodipodi:namedview>
  <metadata
     id="metadata5">
    <rdf:RDF>
      <cc:Work
         rdf:about="">
        <dc:format>image/svg+xml</dc:format>
        <dc:type
           rdf:resource="http://purl.org/dc/dcmitype/StillImage" />
        <dc:title />
      </cc:Work>
    </rdf:RDF>
  </metadata>
  <g
     inkscape:groupmode="layer"
     id="layer2"
     inkscape:label="structural">
    <rect
       style="opacity:1;fill:#00ff00;stroke:#000000;stroke-width:0.26499999;stroke-linecap:round;stroke-miterlimit:4;stroke-dasharray:none;stroke-dashoffset:0"
       id="rect2117"
       width="10.000015"
       height="170"
       x="224.99998"
       y="25" />
    <rect
       y="25"
       x="265"
       height="170"
       width="10"
       id="rect2121"
       style="opacity:1;fill:#00ff00;stroke:#000000;stroke-width:0.26499999;stroke-linecap:round;stroke-miterlimit:4;stroke-dasharray:none;stroke-dashoffset:0" />
    <rect
       style="opacity:1;fill:#008080;stroke:#000000;stroke-width:0.26499999;stroke-linecap:round;stroke-miterlimit:4;stroke-dasharray:none;stroke-dashoffset:0"
       id="rect2123"
       width="2.5"
       height="50"
       x="235"
       y="50" />
    <rect
       y="25"
       x="175"
       height="170"
       width="10"
       id="rect2125"
       style="opacity:1;fill:#00ff00;stroke:#000000;stroke-width:0.26499999;stroke-linecap:round;stroke-miterlimit:4;stroke-dasharray:none;stroke-dashoffset:0" />
    <rect
       y="130"
       x="172.5"
       height="50"
       width="2.5"
       id="rect2127"
       style="opacity:1;fill:#008080;stroke:#000000;stroke-width:0.26499999;stroke-linecap:round;stroke-miterlimit:4;stroke-dasharray:none;stroke-dashoffset:0" />
    <rect
       style="opacity:1;fill:none;stroke:#000000;stroke-width:0.26499999;stroke-linecap:round;stroke-miterlimit:4;stroke-dasharray:1.58999992, 1.58999992;stroke-dashoffset:0"
       id="rect2129"
       width="10"
       height="130"
       x="240"
       y="60" />
    <text
       xml:space="preserve"
       style="font-style:normal;font-weight:normal;font-size:4.23333311px;line-height:1.25;font-family:sans-serif;letter-spacing:0px;word-spacing:0px;fill:#000000;fill-opacity:1;stroke:none;stroke-width:0.26458332"
       x="-128.03897"
       y="246.27977"
       id="text2133"
       transform="rotate(-90)"><tspan
         sodipodi:role="line"
         id="tspan2131"
         x="-128.03897"
         y="246.27977"
         style="stroke-width:0.26458332">Toothed belt</tspan></text>
    <text
       xml:space="preserve"
       style="font-style:normal;font-weight:normal;font-size:4.23333311px;line-height:1.25;font-family:sans-serif;letter-spacing:0px;word-spacing:0px;fill:#000000;fill-opacity:1;stroke:none;stroke-width:0.26458332"
       x="245"
       y="15"
       id="text2137"><tspan
         sodipodi:role="line"
         id="tspan2135"
         x="245"
         y="15"
         style="stroke-width:0.26458332">Face mounting</tspan><tspan
         sodipodi:role="line"
         x="245"
         y="20.291666"
         style="stroke-width:0.26458332"
         id="tspan2139">plate</tspan></text>
    <path
       style="fill:none;stroke:#000000;stroke-width:0.26458332px;stroke-linecap:butt;stroke-linejoin:miter;stroke-opacity:1"
       d="m 245,20 -8.77158,29.858259"
       id="path2141"
       inkscape:connector-curvature="0"
       sodipodi:nodetypes="cc" />
    <text
       xml:space="preserve"
       style="font-style:normal;font-weight:normal;font-size:4.23333311px;line-height:1.25;font-family:sans-serif;letter-spacing:0px;word-spacing:0px;fill:#000000;fill-opacity:1;stroke:none;stroke-width:0.26458332"
       x="190"
       y="105"
       id="text2145"><tspan
         sodipodi:role="line"
         id="tspan2143"
         x="190"
         y="105"
         style="stroke-width:0.26458332">Space</tspan><tspan
         sodipodi:role="line"
         x="190"
         y="110.29166"
         style="stroke-width:0.26458332"
         id="tspan2147">for</tspan><tspan
         sodipodi:role="line"
         x="190"
         y="115.58334"
         style="stroke-width:0.26458332"
         id="tspan2149">gubbins</tspan></text>
    <rect
       style="opacity:1;fill:none;stroke:#000000;stroke-width:0.26499999;stroke-linecap:round;stroke-miterlimit:4;stroke-dasharray:1.5899999, 1.5899999;stroke-dashoffset:0"
       id="rect2151"
       width="54.999996"
       height="85"
       x="115"
       y="40" />
    <text
       xml:space="preserve"
       style="font-style:normal;font-weight:normal;font-size:4.23333311px;line-height:1.25;font-family:sans-serif;letter-spacing:0px;word-spacing:0px;fill:#000000;fill-opacity:1;stroke:none;stroke-width:0.26458332"
       x="116.77084"
       y="109.10416"
       id="text2155"><tspan
         sodipodi:role="line"
         id="tspan2153"
         x="116.77084"
         y="109.10416"
         style="stroke-width:0.26458332">Space</tspan><tspan
         sodipodi:role="line"
         x="116.77084"
         y="114.39582"
         style="stroke-width:0.26458332"
         id="tspan2157">for gubbins</tspan><tspan
         sodipodi:role="line"
         x="116.77084"
         y="119.68749"
         style="stroke-width:0.26458332"
         id="tspan2159">(low height)</tspan></text>
    <path
       style="fill:none;stroke:#000000;stroke-width:0.26458332px;stroke-linecap:butt;stroke-linejoin:miter;stroke-opacity:1"
       d="M 165,165 V 140 H 155 V 25 h -15 v 115 h -10 v 25 z"
       id="path2161"
       inkscape:connector-curvature="0" />
    <text
       xml:space="preserve"
       style="font-style:normal;font-weight:normal;font-size:4.23333311px;line-height:1.25;font-family:sans-serif;letter-spacing:0px;word-spacing:0px;fill:#000000;fill-opacity:1;stroke:none;stroke-width:0.26458332"
       x="-95.91555"
       y="146.70319"
       id="text2165"
       transform="rotate(-90)"><tspan
         sodipodi:role="line"
         id="tspan2163"
         x="-95.91555"
         y="146.70319"
         style="stroke-width:0.26458332">Flip arm</tspan></text>
    <rect
       style="opacity:1;fill:none;stroke:#000000;stroke-width:0.26499999;stroke-linecap:round;stroke-miterlimit:4;stroke-dasharray:1.5899999, 1.5899999;stroke-dashoffset:0"
       id="rect2167"
       width="255"
       height="25"
       x="20"
       y="10" />
    <text
       xml:space="preserve"
       style="font-style:normal;font-weight:normal;font-size:4.23333311px;line-height:1.25;font-family:sans-serif;letter-spacing:0px;word-spacing:0px;fill:#000000;fill-opacity:1;stroke:none;stroke-width:0.26458332"
       x="109.99999"
       y="25"
       id="text2171"><tspan
         sodipodi:role="line"
         id="tspan2169"
         x="109.99999"
         y="25"
         style="stroke-width:0.26458332">Wedgy bit</tspan></text>
    <text
       xml:space="preserve"
       style="font-style:normal;font-weight:normal;font-size:4.23333311px;line-height:1.25;font-family:sans-serif;letter-spacing:0px;word-spacing:0px;fill:#000000;fill-opacity:1;stroke:none;stroke-width:0.26458332"
       x="215"
       y="205"
       id="text2175"><tspan
         sodipodi:role="line"
         id="tspan2173"
         x="215"
         y="205"
         style="stroke-width:0.26458332">Wheel sticks out the </tspan><tspan
         sodipodi:role="line"
         x="215"
         y="210.29167"
         style="stroke-width:0.26458332"
         id="tspan2177">back slightly</tspan></text>
    <rect
       style="opacity:1;fill:#800000;stroke:none;stroke-width:0.26499999;stroke-linecap:round;stroke-miterlimit:4;stroke-dasharray:none;stroke-dashoffset:0"
       id="rect2179"
       width="50"
       height="5"
       x="224.99998"
       y="174.99998" />
  </g>
  <g
     inkscape:label="motors"
     inkscape:groupmode="layer"
     id="layer1"
     transform="translate(0,-87)">
    <text
       xml:space="preserve"
       style="font-style:normal;font-weight:normal;font-size:4.23333311px;line-height:1.25;font-family:sans-serif;letter-spacing:0px;word-spacing:0px;fill:#000000;fill-opacity:1;stroke:none;stroke-width:0.26458332"
       x="63.75407"
       y="224.77141"
       id="text838"><tspan
         sodipodi:role="line"
         id="tspan836"
         x="63.75407"
         y="224.77141"
         style="stroke-width:0.26458332">Aslong higher torque 370 25m gear motor 200rpm</tspan><tspan
         sodipodi:role="line"
         x="63.75407"
         y="230.06308"
         style="stroke-width:0.26458332"
         id="tspan840" /></text>
    <g
       id="g880"
       transform="translate(110,-20)">
      <rect
         y="247"
         x="65"
         height="25"
         width="5"
         id="rect842"
         style="opacity:1;fill:#4d4d4d;stroke:#000000;stroke-width:0.26499999;stroke-linecap:round;stroke-miterlimit:4;stroke-dasharray:none;stroke-dashoffset:0" />
      <rect
         style="opacity:1;fill:#4d4d4d;stroke:#000000;stroke-width:0.26499999;stroke-linecap:round;stroke-miterlimit:4;stroke-dasharray:none;stroke-dashoffset:0"
         id="rect844"
         width="5"
         height="25"
         x="85"
         y="247" />
      <rect
         y="247"
         x="69.999992"
         height="25"
         width="15"
         id="rect849"
         style="opacity:1;fill:#b3b3b3;stroke:#000000;stroke-width:0.26499999;stroke-linecap:round;stroke-miterlimit:4;stroke-dasharray:none;stroke-dashoffset:0" />
      <rect
         y="247"
         x="90"
         height="25"
         width="31"
         id="rect851"
         style="opacity:1;fill:#4d4d4d;stroke:#000000;stroke-width:0.26499999;stroke-linecap:round;stroke-miterlimit:4;stroke-dasharray:none;stroke-dashoffset:0" />
      <rect
         y="257"
         x="40"
         height="5"
         width="25"
         id="rect853"
         style="opacity:1;fill:#4d4d4d;stroke:#000000;stroke-width:0.26499999;stroke-linecap:round;stroke-miterlimit:4;stroke-dasharray:none;stroke-dashoffset:0" />
      <path
         inkscape:connector-curvature="0"
         id="path869"
         d="m 121.11921,261.07357 c 0.39643,0.44286 0.75312,1.01059 1.18928,1.32858 0.19383,0.14132 0.42201,0 0.63301,0 0.23738,0 0.47476,0 0.71214,0 0.23738,0 0.47594,-0.04 0.71214,0 0.29342,0.0497 0.57911,0.19025 0.87039,0.26819 0.21004,0.0562 0.42167,0.0943 0.63301,0.13409 0.0959,0.0181 1.36855,0.22534 1.5034,0.26819 0.18873,0.06 0.36761,0.18927 0.55389,0.26819 0.13047,0.0553 0.26516,0.0789 0.39563,0.13408 0.0809,0.0343 0.15647,0.0999 0.23738,0.1341 0.0256,0.0108 0.0555,-0.02 0.0791,0 0.0667,0.0565 0.0915,0.21164 0.15825,0.26819 0.0236,0.0199 0.0673,-0.04 0.0791,0 0.0249,0.0843 -0.0249,0.45211 0,0.53638 0.0167,0.0566 0.0673,0.0742 0.0791,0.13409 0.0135,0.0686 0,0.70871 0,0.80455 0,0.0319 0.009,0.50632 0,0.53637 -0.0167,0.0565 -0.0528,0.0894 -0.0791,0.1341 -0.0263,0.0448 -0.0481,0.099 -0.0791,0.1341 -0.0491,0.0554 -0.11655,0.0634 -0.15825,0.1341 -0.0417,0.0706 -0.0374,0.19749 -0.0791,0.26817 -0.0187,0.0316 -0.0535,-0.0109 -0.0791,0 -0.79947,0.33871 0.0571,-0.0485 -0.31651,0.2682 -0.0472,0.0399 -0.11107,-0.04 -0.15825,0 -0.0667,0.0565 -0.0915,0.21165 -0.15826,0.26817 -0.0472,0.04 -0.11107,-0.0399 -0.15825,0 -0.0333,0.0283 -0.0429,0.11879 -0.0791,0.1341 -0.26376,0.11175 -0.17584,-0.0745 -0.39564,0 -0.0818,0.0277 -0.15559,0.10638 -0.23738,0.13411 -0.10345,0.035 -0.211,0 -0.3165,0 -0.26376,0 -0.52752,0 -0.79127,0 -0.31651,0 -0.63301,0 -0.94952,0 -0.055,0 -0.36701,0.0242 -0.39563,0 -0.0333,-0.0283 -0.0458,-0.10583 -0.0791,-0.13411 -0.0236,-0.0199 -0.0528,0 -0.0791,0 -0.0287,0 -0.41932,0.0237 -0.47476,0 -0.0572,-0.0242 -0.1023,-0.10247 -0.15826,-0.1341 -0.0751,-0.0424 -0.16061,0.0325 -0.23737,0 -0.0572,-0.0242 -0.10104,-0.10983 -0.15826,-0.13407 -0.0602,-0.0255 -0.32937,0 -0.39563,0 -0.0264,0 -0.0541,0.014 -0.0791,0 -0.056,-0.0316 -0.1023,-0.10251 -0.15825,-0.1341 -0.05,-0.0283 -0.10821,0.0283 -0.15825,0 -0.056,-0.0316 -0.1023,-0.10248 -0.15826,-0.1341 -0.031,-0.0176 -0.39563,0.016 -0.39563,0 0,-0.0448 0.1055,0 0.0791,0 -0.0528,0 -0.10551,0 -0.15825,0 -0.0264,0 -0.0605,0.0316 -0.0791,0 -0.0186,-0.0316 0.0187,-0.10248 0,-0.1341 -0.0186,-0.0316 -0.0545,0.0162 -0.0791,0 -0.21541,-0.14119 -0.42359,-0.31221 -0.63539,-0.4683"
         style="fill:none;stroke:#000000;stroke-width:0.20394254px;stroke-linecap:butt;stroke-linejoin:miter;stroke-opacity:1" />
      <path
         style="fill:none;stroke:#000000;stroke-width:0.20394254px;stroke-linecap:butt;stroke-linejoin:miter;stroke-opacity:1"
         d="m 121.11921,251.03924 c 0.39643,0.44286 0.75312,1.01059 1.18928,1.32859 0.19383,0.14131 0.42201,0 0.63301,0 0.23738,0 0.47476,0 0.71214,0 0.23738,0 0.47594,-0.04 0.71214,0 0.29342,0.0497 0.57911,0.19024 0.87039,0.26819 0.21004,0.0562 0.42167,0.0943 0.63301,0.13409 0.0959,0.0181 1.36855,0.22534 1.5034,0.26818 0.18873,0.06 0.36761,0.18927 0.55389,0.26819 0.13047,0.0553 0.26516,0.0789 0.39563,0.13409 0.0809,0.0343 0.15647,0.0998 0.23738,0.1341 0.0256,0.0108 0.0555,-0.02 0.0791,0 0.0667,0.0565 0.0915,0.21163 0.15825,0.26819 0.0236,0.0199 0.0673,-0.04 0.0791,0 0.0249,0.0843 -0.0249,0.4521 0,0.53637 0.0167,0.0566 0.0673,0.0742 0.0791,0.1341 0.0135,0.0686 0,0.7087 0,0.80454 0,0.0319 0.009,0.50632 0,0.53638 -0.0167,0.0565 -0.0528,0.0894 -0.0791,0.13409 -0.0263,0.0448 -0.0481,0.099 -0.0791,0.1341 -0.0491,0.0554 -0.11655,0.0634 -0.15825,0.1341 -0.0417,0.0706 -0.0374,0.1975 -0.0791,0.26818 -0.0187,0.0316 -0.0535,-0.0109 -0.0791,0 -0.79947,0.33871 0.0571,-0.0485 -0.31651,0.2682 -0.0472,0.0399 -0.11107,-0.04 -0.15825,0 -0.0667,0.0565 -0.0915,0.21164 -0.15826,0.26816 -0.0472,0.04 -0.11107,-0.0399 -0.15825,0 -0.0333,0.0283 -0.0429,0.11879 -0.0791,0.1341 -0.26376,0.11176 -0.17584,-0.0745 -0.39564,0 -0.0818,0.0277 -0.15559,0.10639 -0.23738,0.13411 -0.10345,0.035 -0.211,0 -0.3165,0 -0.26376,0 -0.52752,0 -0.79127,0 -0.31651,0 -0.63301,0 -0.94952,0 -0.055,0 -0.36701,0.0242 -0.39563,0 -0.0333,-0.0283 -0.0458,-0.10583 -0.0791,-0.13411 -0.0236,-0.0199 -0.0528,0 -0.0791,0 -0.0287,0 -0.41932,0.0237 -0.47476,0 -0.0572,-0.0242 -0.1023,-0.10247 -0.15826,-0.1341 -0.0751,-0.0424 -0.16061,0.0325 -0.23737,0 -0.0572,-0.0242 -0.10104,-0.10982 -0.15826,-0.13406 -0.0602,-0.0255 -0.32937,0 -0.39563,0 -0.0264,0 -0.0541,0.014 -0.0791,0 -0.056,-0.0316 -0.1023,-0.10251 -0.15825,-0.1341 -0.05,-0.0283 -0.10821,0.0283 -0.15825,0 -0.056,-0.0316 -0.1023,-0.10248 -0.15826,-0.1341 -0.031,-0.0176 -0.39563,0.0159 -0.39563,0 0,-0.0448 0.1055,0 0.0791,0 -0.0528,0 -0.10551,0 -0.15825,0 -0.0264,0 -0.0605,0.0316 -0.0791,0 -0.0186,-0.0316 0.0187,-0.10248 0,-0.1341 -0.0186,-0.0316 -0.0545,0.0162 -0.0791,0 -0.21541,-0.14119 -0.42359,-0.31222 -0.63539,-0.4683"
         id="path871"
         inkscape:connector-curvature="0" />
    </g>
    <g
       transform="rotate(-180,92.499999,249.5)"
       id="g896">
      <rect
         style="opacity:1;fill:#4d4d4d;stroke:#000000;stroke-width:0.26499999;stroke-linecap:round;stroke-miterlimit:4;stroke-dasharray:none;stroke-dashoffset:0"
         id="rect882"
         width="5"
         height="25"
         x="65"
         y="247" />
      <rect
         y="247"
         x="85"
         height="25"
         width="5"
         id="rect884"
         style="opacity:1;fill:#4d4d4d;stroke:#000000;stroke-width:0.26499999;stroke-linecap:round;stroke-miterlimit:4;stroke-dasharray:none;stroke-dashoffset:0" />
      <rect
         style="opacity:1;fill:#b3b3b3;stroke:#000000;stroke-width:0.26499999;stroke-linecap:round;stroke-miterlimit:4;stroke-dasharray:none;stroke-dashoffset:0"
         id="rect886"
         width="15"
         height="25"
         x="69.999992"
         y="247" />
      <rect
         style="opacity:1;fill:#4d4d4d;stroke:#000000;stroke-width:0.26499999;stroke-linecap:round;stroke-miterlimit:4;stroke-dasharray:none;stroke-dashoffset:0"
         id="rect888"
         width="31"
         height="25"
         x="90"
         y="247" />
      <rect
         style="opacity:1;fill:#4d4d4d;stroke:#000000;stroke-width:0.26499999;stroke-linecap:round;stroke-miterlimit:4;stroke-dasharray:none;stroke-dashoffset:0"
         id="rect890"
         width="25"
         height="5"
         x="40"
         y="257" />
      <path
         style="fill:none;stroke:#000000;stroke-width:0.20394254px;stroke-linecap:butt;stroke-linejoin:miter;stroke-opacity:1"
         d="m 121.11921,261.07357 c 0.39643,0.44286 0.75312,1.01059 1.18928,1.32858 0.19383,0.14132 0.42201,0 0.63301,0 0.23738,0 0.47476,0 0.71214,0 0.23738,0 0.47594,-0.04 0.71214,0 0.29342,0.0497 0.57911,0.19025 0.87039,0.26819 0.21004,0.0562 0.42167,0.0943 0.63301,0.13409 0.0959,0.0181 1.36855,0.22534 1.5034,0.26819 0.18873,0.06 0.36761,0.18927 0.55389,0.26819 0.13047,0.0553 0.26516,0.0789 0.39563,0.13408 0.0809,0.0343 0.15647,0.0999 0.23738,0.1341 0.0256,0.0108 0.0555,-0.02 0.0791,0 0.0667,0.0565 0.0915,0.21164 0.15825,0.26819 0.0236,0.0199 0.0673,-0.04 0.0791,0 0.0249,0.0843 -0.0249,0.45211 0,0.53638 0.0167,0.0566 0.0673,0.0742 0.0791,0.13409 0.0135,0.0686 0,0.70871 0,0.80455 0,0.0319 0.009,0.50632 0,0.53637 -0.0167,0.0565 -0.0528,0.0894 -0.0791,0.1341 -0.0263,0.0448 -0.0481,0.099 -0.0791,0.1341 -0.0491,0.0554 -0.11655,0.0634 -0.15825,0.1341 -0.0417,0.0706 -0.0374,0.19749 -0.0791,0.26817 -0.0187,0.0316 -0.0535,-0.0109 -0.0791,0 -0.79947,0.33871 0.0571,-0.0485 -0.31651,0.2682 -0.0472,0.0399 -0.11107,-0.04 -0.15825,0 -0.0667,0.0565 -0.0915,0.21165 -0.15826,0.26817 -0.0472,0.04 -0.11107,-0.0399 -0.15825,0 -0.0333,0.0283 -0.0429,0.11879 -0.0791,0.1341 -0.26376,0.11175 -0.17584,-0.0745 -0.39564,0 -0.0818,0.0277 -0.15559,0.10638 -0.23738,0.13411 -0.10345,0.035 -0.211,0 -0.3165,0 -0.26376,0 -0.52752,0 -0.79127,0 -0.31651,0 -0.63301,0 -0.94952,0 -0.055,0 -0.36701,0.0242 -0.39563,0 -0.0333,-0.0283 -0.0458,-0.10583 -0.0791,-0.13411 -0.0236,-0.0199 -0.0528,0 -0.0791,0 -0.0287,0 -0.41932,0.0237 -0.47476,0 -0.0572,-0.0242 -0.1023,-0.10247 -0.15826,-0.1341 -0.0751,-0.0424 -0.16061,0.0325 -0.23737,0 -0.0572,-0.0242 -0.10104,-0.10983 -0.15826,-0.13407 -0.0602,-0.0255 -0.32937,0 -0.39563,0 -0.0264,0 -0.0541,0.014 -0.0791,0 -0.056,-0.0316 -0.1023,-0.10251 -0.15825,-0.1341 -0.05,-0.0283 -0.10821,0.0283 -0.15825,0 -0.056,-0.0316 -0.1023,-0.10248 -0.15826,-0.1341 -0.031,-0.0176 -0.39563,0.016 -0.39563,0 0,-0.0448 0.1055,0 0.0791,0 -0.0528,0 -0.10551,0 -0.15825,0 -0.0264,0 -0.0605,0.0316 -0.0791,0 -0.0186,-0.0316 0.0187,-0.10248 0,-0.1341 -0.0186,-0.0316 -0.0545,0.0162 -0.0791,0 -0.21541,-0.14119 -0.42359,-0.31221 -0.63539,-0.4683"
         id="path892"
         inkscape:connector-curvature="0" />
      <path
         inkscape:connector-curvature="0"
         id="path894"
         d="m 121.11921,251.03924 c 0.39643,0.44286 0.75312,1.01059 1.18928,1.32859 0.19383,0.14131 0.42201,0 0.63301,0 0.23738,0 0.47476,0 0.71214,0 0.23738,0 0.47594,-0.04 0.71214,0 0.29342,0.0497 0.57911,0.19024 0.87039,0.26819 0.21004,0.0562 0.42167,0.0943 0.63301,0.13409 0.0959,0.0181 1.36855,0.22534 1.5034,0.26818 0.18873,0.06 0.36761,0.18927 0.55389,0.26819 0.13047,0.0553 0.26516,0.0789 0.39563,0.13409 0.0809,0.0343 0.15647,0.0998 0.23738,0.1341 0.0256,0.0108 0.0555,-0.02 0.0791,0 0.0667,0.0565 0.0915,0.21163 0.15825,0.26819 0.0236,0.0199 0.0673,-0.04 0.0791,0 0.0249,0.0843 -0.0249,0.4521 0,0.53637 0.0167,0.0566 0.0673,0.0742 0.0791,0.1341 0.0135,0.0686 0,0.7087 0,0.80454 0,0.0319 0.009,0.50632 0,0.53638 -0.0167,0.0565 -0.0528,0.0894 -0.0791,0.13409 -0.0263,0.0448 -0.0481,0.099 -0.0791,0.1341 -0.0491,0.0554 -0.11655,0.0634 -0.15825,0.1341 -0.0417,0.0706 -0.0374,0.1975 -0.0791,0.26818 -0.0187,0.0316 -0.0535,-0.0109 -0.0791,0 -0.79947,0.33871 0.0571,-0.0485 -0.31651,0.2682 -0.0472,0.0399 -0.11107,-0.04 -0.15825,0 -0.0667,0.0565 -0.0915,0.21164 -0.15826,0.26816 -0.0472,0.04 -0.11107,-0.0399 -0.15825,0 -0.0333,0.0283 -0.0429,0.11879 -0.0791,0.1341 -0.26376,0.11176 -0.17584,-0.0745 -0.39564,0 -0.0818,0.0277 -0.15559,0.10639 -0.23738,0.13411 -0.10345,0.035 -0.211,0 -0.3165,0 -0.26376,0 -0.52752,0 -0.79127,0 -0.31651,0 -0.63301,0 -0.94952,0 -0.055,0 -0.36701,0.0242 -0.39563,0 -0.0333,-0.0283 -0.0458,-0.10583 -0.0791,-0.13411 -0.0236,-0.0199 -0.0528,0 -0.0791,0 -0.0287,0 -0.41932,0.0237 -0.47476,0 -0.0572,-0.0242 -0.1023,-0.10247 -0.15826,-0.1341 -0.0751,-0.0424 -0.16061,0.0325 -0.23737,0 -0.0572,-0.0242 -0.10104,-0.10982 -0.15826,-0.13406 -0.0602,-0.0255 -0.32937,0 -0.39563,0 -0.0264,0 -0.0541,0.014 -0.0791,0 -0.056,-0.0316 -0.1023,-0.10251 -0.15825,-0.1341 -0.05,-0.0283 -0.10821,0.0283 -0.15825,0 -0.056,-0.0316 -0.1023,-0.10248 -0.15826,-0.1341 -0.031,-0.0176 -0.39563,0.0159 -0.39563,0 0,-0.0448 0.1055,0 0.0791,0 -0.0528,0 -0.10551,0 -0.15825,0 -0.0264,0 -0.0605,0.0316 -0.0791,0 -0.0186,-0.0316 0.0187,-0.10248 0,-0.1341 -0.0186,-0.0316 -0.0545,0.0162 -0.0791,0 -0.21541,-0.14119 -0.42359,-0.31222 -0.63539,-0.4683"
         style="fill:none;stroke:#000000;stroke-width:0.20394254px;stroke-linecap:butt;stroke-linejoin:miter;stroke-opacity:1" />
    </g>
    <g
       id="g3686"
       transform="translate(119.9881,-94.071426)">
      <rect
         y="242.57143"
         x="65.011902"
         height="22"
         width="49"
         id="rect3678"
         style="opacity:0.95999995;fill:none;stroke:#666666;stroke-width:0.60000002;stroke-linecap:round;stroke-miterlimit:4;stroke-dasharray:none" />
      <rect
         y="251.57143"
         x="114.1488"
         height="4"
         width="15"
         id="rect3680"
         style="opacity:0.95999995;fill:none;stroke:#666666;stroke-width:0.60000002;stroke-linecap:round;stroke-miterlimit:4;stroke-dasharray:none" />
      <text
         id="text3684"
         y="252.77678"
         x="82.209816"
         style="font-style:normal;font-weight:normal;font-size:10.58333302px;line-height:1.25;font-family:sans-serif;letter-spacing:0px;word-spacing:0px;fill:#000000;fill-opacity:1;stroke:none;stroke-width:0.26458332"
         xml:space="preserve"><tspan
           style="font-size:3.52777767px;stroke-width:0.26458332"
           y="252.77678"
           x="82.209816"
           id="tspan3682"
           sodipodi:role="line">bbb 22mm</tspan></text>
    </g>
    <path
       style="fill:none;stroke:#000000;stroke-width:0.26458332px;stroke-linecap:butt;stroke-linejoin:miter;stroke-opacity:1"
       d="m 240,172 v -25 h 10 l 0,-20 h 15 l 0,65 h -15 l 0,-20 z"
       id="path2107"
       inkscape:connector-curvature="0"
       sodipodi:nodetypes="ccccccccc" />
    <text
       xml:space="preserve"
       style="font-style:normal;font-weight:normal;font-size:4.23333311px;line-height:1.25;font-family:sans-serif;letter-spacing:0px;word-spacing:0px;fill:#000000;fill-opacity:1;stroke:none;stroke-width:0.26458332"
       x="-165.78719"
       y="256.7294"
       id="text2111"
       transform="rotate(-90)"><tspan
         sodipodi:role="line"
         id="tspan2109"
         x="-165.78719"
         y="256.7294"
         style="stroke-width:0.26458332">Direct driven</tspan><tspan
         sodipodi:role="line"
         x="-165.78719"
         y="262.02106"
         style="stroke-width:0.26458332"
         id="tspan2113">wheel</tspan></text>
    <text
       xml:space="preserve"
       style="font-style:normal;font-weight:normal;font-size:4.23333311px;line-height:1.25;font-family:sans-serif;letter-spacing:0px;word-spacing:0px;fill:#000000;fill-opacity:1;stroke:none;stroke-width:0.26458332"
       x="-259.60083"
       y="255.00795"
       id="text2183"
       transform="rotate(-90)"><tspan
         sodipodi:role="line"
         id="tspan2181"
         x="-259.60083"
         y="255.00795"
         style="stroke-width:0.26458332">Belt driven</tspan><tspan
         sodipodi:role="line"
         x="-259.60083"
         y="260.29962"
         style="stroke-width:0.26458332"
         id="tspan2185">wheel</tspan></text>
    <path
       sodipodi:nodetypes="ccccccccc"
       inkscape:connector-curvature="0"
       id="path271"
       d="m 240,277 v -25 h 10 v -20 h 15 v 65 h -15 v -20 z"
       style="fill:none;stroke:#000000;stroke-width:0.26458332px;stroke-linecap:butt;stroke-linejoin:miter;stroke-opacity:1" />
  </g>
</svg>
