<?xml version="1.0" encoding="UTF-8" standalone="no"?>
<!-- Created with Inkscape (http://www.inkscape.org/) -->

<svg
   xmlns:dc="http://purl.org/dc/elements/1.1/"
   xmlns:cc="http://creativecommons.org/ns#"
   xmlns:rdf="http://www.w3.org/1999/02/22-rdf-syntax-ns#"
   xmlns:svg="http://www.w3.org/2000/svg"
   xmlns="http://www.w3.org/2000/svg"
   xmlns:sodipodi="http://sodipodi.sourceforge.net/DTD/sodipodi-0.dtd"
   xmlns:inkscape="http://www.inkscape.org/namespaces/inkscape"
   width="297mm"
   height="210mm"
   viewBox="0 0 297 210"
   version="1.1"
   id="svg8"
   inkscape:version="0.92.5 (2060ec1f9f, 2020-04-08)"
   sodipodi:docname="sideview-v2.svg">
  <defs
     id="defs2">
    <marker
       style="overflow:visible"
       refY="0.0"
       refX="0.0"
       orient="auto"
       id="DistanceX">
      <path
         id="path861"
         style="stroke:#000000; stroke-width:0.5"
         d="M 3,-3 L -3,3 M 0,-5 L  0,5" />
    </marker>
    <pattern
       y="0"
       x="0"
       width="8"
       patternUnits="userSpaceOnUse"
       id="Hatch"
       height="8">
      <path
         id="path864"
         stroke-width="0.25"
         stroke="#000000"
         linecap="square"
         d="M8 4 l-4,4" />
      <path
         id="path866"
         stroke-width="0.25"
         stroke="#000000"
         linecap="square"
         d="M6 2 l-4,4" />
      <path
         id="path868"
         stroke-width="0.25"
         stroke="#000000"
         linecap="square"
         d="M4 0 l-4,4" />
    </pattern>
    <marker
       style="overflow:visible"
       refY="0.0"
       refX="0.0"
       orient="auto"
       id="DistanceX-7">
      <path
         id="path4260"
         style="stroke:#000000; stroke-width:0.5"
         d="M 3,-3 L -3,3 M 0,-5 L  0,5" />
    </marker>
    <pattern
       y="0"
       x="0"
       width="8"
       patternUnits="userSpaceOnUse"
       id="Hatch-5"
       height="8">
      <path
         id="path4263"
         stroke-width="0.25"
         stroke="#000000"
         linecap="square"
         d="M8 4 l-4,4" />
      <path
         id="path4265"
         stroke-width="0.25"
         stroke="#000000"
         linecap="square"
         d="M6 2 l-4,4" />
      <path
         id="path4267"
         stroke-width="0.25"
         stroke="#000000"
         linecap="square"
         d="M4 0 l-4,4" />
    </pattern>
  </defs>
  <sodipodi:namedview
     id="base"
     pagecolor="#ffffff"
     bordercolor="#666666"
     borderopacity="1.0"
     inkscape:pageopacity="0.0"
     inkscape:pageshadow="2"
     inkscape:zoom="0.98994949"
     inkscape:cx="371.40326"
     inkscape:cy="253.88358"
     inkscape:document-units="mm"
     inkscape:current-layer="layer1"
     showgrid="false"
     inkscape:window-width="1280"
     inkscape:window-height="879"
     inkscape:window-x="0"
     inkscape:window-y="0"
     inkscape:window-maximized="1"
     inkscape:snap-global="false" />
  <metadata
     id="metadata5">
    <rdf:RDF>
      <cc:Work
         rdf:about="">
        <dc:format>image/svg+xml</dc:format>
        <dc:type
           rdf:resource="http://purl.org/dc/dcmitype/StillImage" />
        <dc:title />
      </cc:Work>
    </rdf:RDF>
  </metadata>
  <g
     inkscape:label="outline"
     inkscape:groupmode="layer"
     id="layer1"
     transform="translate(0,-87)"
     style="display:inline">
    <path
       style="opacity:0.95999995;fill:none;stroke:#000000;stroke-width:0.60000002;stroke-linecap:round;stroke-miterlimit:4;stroke-dasharray:none"
       d="m 59.309521,180.84227 46.369049,0.11905 143.63095,84.88095 H 70.31279 l -11.003269,-23.8998 0.312488,-25.56566 -0.534539,-23.93092 z"
       id="rect815"
       inkscape:connector-curvature="0"
       sodipodi:nodetypes="cccccccc" />
    <circle
       style="opacity:0.95999995;fill:none;stroke:#000000;stroke-width:0.60000002;stroke-linecap:round;stroke-miterlimit:4;stroke-dasharray:none"
       id="path837"
       cx="75.89341"
       cy="245.92862"
       r="30" />
    <circle
       style="opacity:0.95999995;fill:none;stroke:#000000;stroke-width:0.60000002;stroke-linecap:butt;stroke-miterlimit:4;stroke-dasharray:1.80000007, 0.60000002;stroke-dashoffset:0"
       id="path850"
       cx="75.546127"
       cy="246.32896"
       r="11" />
    <circle
       style="opacity:0.95999995;fill:none;stroke:#666666;stroke-width:1;stroke-linecap:round;stroke-miterlimit:4;stroke-dasharray:none"
       id="path1465"
       cx="173.25401"
       cy="245.59412"
       r="9.1765718" />
    <text
       xml:space="preserve"
       style="font-style:normal;font-weight:normal;font-size:4.23333311px;line-height:1.25;font-family:sans-serif;letter-spacing:0px;word-spacing:0px;fill:#000000;fill-opacity:1;stroke:none;stroke-width:0.26458332"
       x="167.06548"
       y="162.44048"
       id="text2347"><tspan
         sodipodi:role="line"
         id="tspan2345"
         x="167.06548"
         y="162.44048"
         style="stroke-width:0.26458332">NB: internal dimensions</tspan><tspan
         sodipodi:role="line"
         x="167.06548"
         y="167.73215"
         style="stroke-width:0.26458332"
         id="tspan2349">Length: 190</tspan><tspan
         sodipodi:role="line"
         x="167.06548"
         y="173.0238"
         style="stroke-width:0.26458332"
         id="tspan2351">Height: 85</tspan></text>
    <rect
       style="opacity:1;fill:none;stroke:#000000;stroke-width:0.25;stroke-linecap:round;stroke-miterlimit:4;stroke-dasharray:none"
       id="rect2355"
       width="178.78242"
       height="6"
       x="70.31279"
       y="265.84229" />
    <rect
       style="opacity:1;fill:none;stroke:#000000;stroke-width:0.25;stroke-linecap:round;stroke-miterlimit:4;stroke-dasharray:none"
       id="rect2357"
       width="10"
       height="61.100204"
       x="49.309521"
       y="180.84227" />
    <rect
       style="opacity:1;fill:none;stroke:#000000;stroke-width:0.25;stroke-linecap:round;stroke-miterlimit:4;stroke-dasharray:none"
       id="rect2359"
       width="143.79102"
       height="10"
       x="182.88474"
       y="92.300346"
       transform="rotate(30.49329)"
       inkscape:transform-center-x="-63.863551"
       inkscape:transform-center-y="32.163313" />
    <rect
       y="170.95361"
       x="60.805187"
       height="10"
       width="44.87347"
       id="rect2380"
       style="opacity:1;fill:none;stroke:#000000;stroke-width:0.1265306;stroke-linecap:round;stroke-miterlimit:4;stroke-dasharray:none" />
    <g
       id="g2378">
      <path
         inkscape:connector-curvature="0"
         id="path2367"
         d="m 76.162201,168.86607 c 4.220733,0 8.441467,0 12.662204,0 0.818946,0 1.637895,0 2.456844,0 0.07389,0 1.241404,0.0272 1.322917,0 0.08452,-0.0282 0.10447,-0.16081 0.188989,-0.18899 0.1016,-0.0339 0.595945,0 0.755951,0 0.62996,0 1.25992,0 1.889882,0 0.19032,0 1.029414,0.0348 1.133927,0 0.08452,-0.0282 0.109305,-0.14914 0.18899,-0.18899 0.05605,-0.028 0.951132,0 1.133927,0 2.456848,0 4.913688,0 7.370538,0 0.94494,0 1.88988,0 2.83482,0 0.0855,0 1.08356,0.0252 1.13393,0 0.0797,-0.0398 0.1093,-0.14914 0.18899,-0.18898 0.11878,-0.0594 0.63717,0.0594 0.75595,0 0.15937,-0.0797 0.2186,-0.2983 0.37797,-0.37798 0.0841,-0.0421 0.66952,0.0288 0.75596,0 0.0845,-0.0282 0.1093,-0.14915 0.18898,-0.18899 0.0563,-0.0282 0.126,0 0.18899,0 0.126,-0.063 0.26077,-0.11085 0.37798,-0.18899 0.0741,-0.0494 0.1093,-0.14914 0.18899,-0.18898 0.0563,-0.0282 0.12599,0 0.18899,0 0.063,-0.063 0.1093,-0.14915 0.18898,-0.18899 0.0564,-0.0282 0.14445,0.0445 0.18899,0 0.0446,-0.0445 -0.0445,-0.14445 0,-0.18899 0.73757,-0.73757 0.1015,0.0437 0.56697,-0.18899 0.0797,-0.0398 0.11486,-0.13957 0.18898,-0.18899 0.11721,-0.0781 0.27837,-0.0894 0.37798,-0.18898 0.0445,-0.0446 -0.0445,-0.14445 0,-0.18899 0.0445,-0.0445 0.14444,0.0445 0.18899,0 0.0445,-0.0445 -0.0446,-0.14445 0,-0.18899 0.0445,-0.0445 0.14444,0.0445 0.18899,0 0.0445,-0.0445 -0.0282,-0.13264 0,-0.18899 0.0797,-0.15937 0.29829,-0.21861 0.37797,-0.37798 0.0282,-0.0563 -0.0282,-0.13264 0,-0.18898 0.0398,-0.0797 0.13957,-0.11487 0.18899,-0.18899 0.0781,-0.11721 0.12599,-0.25199 0.18899,-0.37798 0.063,-0.12599 0.14444,-0.24434 0.18899,-0.37797 0.0199,-0.0598 -0.0282,-0.13265 0,-0.18899 0.0398,-0.0797 0.13957,-0.11486 0.18898,-0.18899 0.0781,-0.11721 0.11086,-0.26077 0.18899,-0.37798 0.0988,-0.14825 0.29829,-0.2186 0.37798,-0.37797 0.0563,-0.11269 -0.0398,-0.25845 0,-0.37798 0.0445,-0.13363 0.14444,-0.24434 0.18899,-0.37797 0.0398,-0.11953 -0.0306,-0.25575 0,-0.37798 0.0483,-0.19327 0.14067,-0.3737 0.18899,-0.56697 0.0153,-0.0611 -0.0199,-0.12922 0,-0.18898 0.0445,-0.13364 0.15482,-0.24132 0.18898,-0.37798 0.0306,-0.12223 0,-0.25198 0,-0.37798 0,-0.37797 0,-0.75595 0,-1.13392 0,-0.50397 0,-1.00794 0,-1.51191 0,-0.1305 0.0287,-0.69849 0,-0.75595 -0.0398,-0.0797 -0.14914,-0.10931 -0.18898,-0.18899 -0.0563,-0.11269 0.0563,-0.26528 0,-0.37798 -0.0399,-0.0797 -0.14915,-0.1093 -0.18899,-0.18898 -0.0282,-0.0564 0.0282,-0.13265 0,-0.18899 -0.0797,-0.15937 -0.32163,-0.20894 -0.37798,-0.37798 -0.0398,-0.11953 0.0563,-0.26528 0,-0.37797 -0.0282,-0.0564 -0.14444,0.0445 -0.18899,0 -0.0445,-0.0446 0.0446,-0.14445 0,-0.18899 -0.0996,-0.0996 -0.27837,-0.0894 -0.37797,-0.18899 -0.0891,-0.0891 0.0891,-0.28889 0,-0.37798 -0.0446,-0.0445 -0.14445,0.0446 -0.18899,0 -0.0446,-0.0445 0.0282,-0.13264 0,-0.18898 -0.0398,-0.0797 -0.12599,-0.126 -0.18899,-0.18899 -0.063,-0.063 -0.1093,-0.14915 -0.18899,-0.18899 -0.0563,-0.0282 -0.14444,0.0445 -0.18899,0 -0.0445,-0.0445 0.0446,-0.14444 0,-0.18899 -0.0445,-0.0445 -0.14444,0.0445 -0.18898,0 -0.0446,-0.0445 0.0282,-0.13264 0,-0.18899 -0.0181,-0.0362 -0.71978,-0.73786 -0.75596,-0.75595 -0.0563,-0.0282 -0.13264,0.0282 -0.18898,0 -0.0797,-0.0398 -0.10931,-0.14915 -0.18899,-0.18899 -0.0563,-0.0282 -0.13264,0.0282 -0.18899,0 -0.0797,-0.0398 -0.1093,-0.14914 -0.18899,-0.18899 -0.0563,-0.0282 -0.13264,0.0282 -0.18899,0 -0.0797,-0.0398 -0.10447,-0.16081 -0.18898,-0.18898 -0.86033,0 -0.0108,0.0891 -0.56697,-0.18899 -0.11269,-0.0564 -0.26528,0.0563 -0.37798,0 -0.0797,-0.0398 -0.1093,-0.14915 -0.18898,-0.18899 -0.0497,-0.0249 -0.65713,0 -0.75596,0 -0.37797,0 -0.75595,0 -1.13392,0 -0.126,0 -0.25199,0 -0.37798,0 -0.063,0 -0.13264,-0.0282 -0.18899,0 -0.0797,0.0398 -0.12599,0.12599 -0.18899,0.18899"
         style="fill:none;stroke:#000000;stroke-width:0.26458332px;stroke-linecap:butt;stroke-linejoin:miter;stroke-opacity:1" />
      <path
         inkscape:connector-curvature="0"
         id="path2369"
         d="m 143.63095,189.0878 c -0.28287,-0.5129 -0.9166,-0.45122 -1.32292,-0.75596 -0.14254,-0.1069 -0.24109,-0.26391 -0.37797,-0.37797 -0.2743,-0.22859 -0.97223,-0.73453 -1.32292,-0.94494 -0.12079,-0.0725 -0.26077,-0.11085 -0.37798,-0.18899 -0.26208,-0.17472 -0.49387,-0.39224 -0.75595,-0.56696 -0.1172,-0.0781 -0.25718,-0.11652 -0.37797,-0.18899 -0.19477,-0.11686 -0.3722,-0.26112 -0.56697,-0.37798 -0.12079,-0.0725 -0.25719,-0.11651 -0.37797,-0.18899 -0.19477,-0.11686 -0.36381,-0.2764 -0.56697,-0.37797 -0.17818,-0.0891 -0.382,-0.11501 -0.56696,-0.18899 -0.13079,-0.0523 -0.26077,-0.11085 -0.37798,-0.18899 -0.43246,-0.28831 0.11817,-0.1496 -0.56696,-0.37798 -0.0598,-0.0199 -0.13265,0.0282 -0.18899,0 -0.0797,-0.0398 -0.10931,-0.14914 -0.18899,-0.18898 -0.0564,-0.0282 -0.13264,0.0282 -0.18899,0 -0.22678,-0.1134 -0.34018,-0.45358 -0.56696,-0.56697 -0.0564,-0.0282 -0.13265,0.0282 -0.18899,0 -0.22679,-0.11339 -0.34018,-0.45357 -0.56696,-0.56696 -0.0563,-0.0282 -0.13265,0.0282 -0.18899,0 -0.22679,-0.1134 -0.34018,-0.45357 -0.56697,-0.56697 -0.0563,-0.0282 -0.13264,0.0282 -0.18898,0 -0.0797,-0.0398 -0.10931,-0.14914 -0.18899,-0.18898 -0.0564,-0.0282 -0.13264,0.0282 -0.18899,0 -0.0797,-0.0399 -0.14915,-0.10931 -0.18899,-0.18899 -0.0282,-0.0563 0.0564,-0.16082 0,-0.18899 -0.11269,-0.0564 -0.26528,0.0564 -0.37798,0 -0.0563,-0.0282 0.0445,-0.14444 0,-0.18899 -0.0445,-0.0445 -0.14444,0.0445 -0.18898,0 -0.0445,-0.0445 0.0445,-0.14444 0,-0.18899 -0.0445,-0.0445 -0.13265,0.0282 -0.18899,0 -0.18597,-0.093 -0.56998,-0.66297 -0.75595,-0.75595 -0.0563,-0.0282 -0.14445,0.0445 -0.18899,0 -0.0445,-0.0446 0.0282,-0.13264 0,-0.18899 -0.0251,-0.0502 -0.51679,-0.54187 -0.56697,-0.56696 -0.0563,-0.0282 -0.14444,0.0445 -0.18898,0 -0.39103,-0.39102 0.59753,0.0153 -0.18899,-0.37798 -0.0564,-0.0282 -0.14445,0.0446 -0.18899,0 -0.0445,-0.0445 0.0563,-0.16081 0,-0.18899 -0.11269,-0.0563 -0.26529,0.0564 -0.37798,0 -0.0563,-0.0282 0.0445,-0.14444 0,-0.18898 -0.0996,-0.0996 -0.26077,-0.11086 -0.37797,-0.18899 -0.17204,-0.11469 -0.39946,-0.48321 -0.56697,-0.56697 -0.0563,-0.0282 -0.14444,0.0446 -0.18898,0 -0.0446,-0.0445 0.0445,-0.14444 0,-0.18898 -0.0446,-0.0446 -0.12923,0.0199 -0.18899,0 -0.13364,-0.0446 -0.26077,-0.11086 -0.37798,-0.18899 -0.14825,-0.0988 -0.21861,-0.2983 -0.37798,-0.37798 -0.0563,-0.0282 -0.13264,0.0282 -0.18898,0 -0.0797,-0.0398 -0.10931,-0.14915 -0.18899,-0.18899 -0.0563,-0.0282 -0.13265,0.0282 -0.18899,0 -0.78652,-0.39326 0.20204,0.0131 -0.18899,-0.37797 -0.0891,-0.0891 -0.28889,0.0891 -0.37797,0 -0.0446,-0.0445 0.0445,-0.14445 0,-0.18899 -0.0891,-0.0891 -0.28889,0.0891 -0.37798,0 -0.0445,-0.0445 0.0445,-0.14445 0,-0.18899 -0.0445,-0.0446 -0.13264,0.0282 -0.18899,0 -0.15937,-0.0797 -0.2186,-0.29829 -0.37797,-0.37798 -0.0563,-0.0282 -0.14445,0.0445 -0.18899,0 -0.0446,-0.0445 0.0563,-0.16081 0,-0.18898 -0.11269,-0.0564 -0.25845,0.0398 -0.37798,0 -0.16903,-0.0564 -0.21861,-0.2983 -0.37797,-0.37798 -0.46547,-0.23273 0.1706,0.54858 -0.56697,-0.18899 -0.0446,-0.0445 0.0563,-0.16081 0,-0.18899 -0.11269,-0.0563 -0.26528,0.0564 -0.37798,0 -0.0563,-0.0282 0,-0.12599 0,-0.18898 -0.12599,0 -0.25845,0.0398 -0.37797,0 -0.16904,-0.0564 -0.20894,-0.32164 -0.37798,-0.37798 -0.11953,-0.0398 -0.26528,0.0563 -0.37797,0 -0.22679,-0.11339 -0.34018,-0.45357 -0.56697,-0.56696 -0.17818,-0.0891 -0.38878,-0.0999 -0.56696,-0.18899 -0.0797,-0.0398 -0.11486,-0.13957 -0.18899,-0.18899 -0.1172,-0.0781 -0.26077,-0.11085 -0.37798,-0.18899 -0.0741,-0.0494 -0.11486,-0.13957 -0.18898,-0.18899 -0.11721,-0.0781 -0.26078,-0.11085 -0.37798,-0.18899 -0.21806,-0.14537 -0.3489,-0.42159 -0.56697,-0.56696 -0.0524,-0.0349 -0.13264,0.0282 -0.18898,0 -0.0797,-0.0398 -0.11486,-0.13957 -0.18899,-0.18899 -0.11721,-0.0781 -0.25199,-0.12599 -0.37798,-0.18899 -0.12599,-0.12599 -0.23543,-0.27106 -0.37797,-0.37797 -0.22539,-0.16904 -0.55674,-0.17877 -0.75596,-0.37798 -0.0445,-0.0445 0.0446,-0.14444 0,-0.18899 -0.73757,-0.73757 -0.10149,0.0438 -0.56696,-0.18898 -0.0797,-0.0399 -0.1093,-0.14915 -0.18899,-0.18899 -0.0563,-0.0282 -0.13264,0.0282 -0.18899,0 -0.15936,-0.0797 -0.2186,-0.29829 -0.37797,-0.37798 -0.11269,-0.0563 -0.28889,0.0891 -0.37798,0 -0.0996,-0.0996 -0.0894,-0.27837 -0.18899,-0.37797 -0.0891,-0.0891 -0.26528,0.0563 -0.37797,0 -0.0797,-0.0399 -0.11486,-0.13957 -0.18899,-0.18899 -0.11721,-0.0781 -0.27837,-0.0894 -0.37798,-0.18899 -0.0445,-0.0445 0.0445,-0.14444 0,-0.18899 -0.0891,-0.0891 -0.26528,0.0563 -0.37797,0 -0.0797,-0.0398 -0.10931,-0.14915 -0.18899,-0.18899 -0.0563,-0.0282 -0.13265,0.0282 -0.18899,0 -0.15937,-0.0797 -0.21861,-0.29829 -0.37798,-0.37797 -0.11269,-0.0563 -0.28888,0.0891 -0.37797,0 -0.25199,-0.25199 0.4009,-0.18135 -0.18899,-0.37798 -0.11953,-0.0398 -0.25845,0.0398 -0.37798,0 -0.0845,-0.0282 -0.1093,-0.14915 -0.18898,-0.18899 -0.0563,-0.0282 -0.13265,0.0282 -0.18899,0 -0.86493,-0.43246 0.80195,0.0783 -0.56697,-0.37797 -0.0598,-0.0199 -0.13264,0.0282 -0.18899,0 -0.15936,-0.0797 -0.2186,-0.2983 -0.37797,-0.37798 -0.0563,-0.0282 -0.13264,0.0282 -0.18899,0 -0.0797,-0.0398 -0.1093,-0.14915 -0.18899,-0.18899 -0.0563,-0.0282 -0.13264,0.0282 -0.18899,0 -0.0797,-0.0398 -0.12599,-0.12599 -0.18898,-0.18899 -0.21623,-0.21623 -0.22372,-0.26356 -0.56697,-0.37797 -0.0598,-0.0199 -0.13264,0.0282 -0.18899,0 -0.15936,-0.0797 -0.20894,-0.32163 -0.37797,-0.37798 -0.11953,-0.0398 -0.26529,0.0563 -0.37798,0 -0.0563,-0.0282 0.0446,-0.14444 0,-0.18899 -0.0445,-0.0445 -0.13264,0.0282 -0.18899,0 -0.0797,-0.0398 -0.11486,-0.13957 -0.18898,-0.18898 -0.11721,-0.0781 -0.27838,-0.0894 -0.37798,-0.18899 -0.0446,-0.0445 0.0445,-0.14445 0,-0.18899 -0.0446,-0.0445 -0.13264,0.0282 -0.18899,0 -0.0797,-0.0398 -0.11486,-0.13957 -0.18899,-0.18899 -0.1172,-0.0781 -0.27837,-0.0894 -0.37797,-0.18899 -0.0446,-0.0445 0.0563,-0.16081 0,-0.18899 -0.11269,-0.0563 -0.26529,0.0564 -0.37798,0 -0.0563,-0.0282 0.0445,-0.14444 0,-0.18898 -0.0445,-0.0445 -0.13264,0.0282 -0.18899,0 -0.22678,-0.1134 -0.34018,-0.45357 -0.56696,-0.56697 -0.0563,-0.0282 -0.13265,0.0282 -0.18899,0 -0.15937,-0.0797 -0.22972,-0.27914 -0.37798,-0.37797 -0.1172,-0.0781 -0.26528,-0.10447 -0.37797,-0.18899 -0.14254,-0.10691 -0.22972,-0.27914 -0.37798,-0.37798 -0.0524,-0.0349 -0.14444,0.0446 -0.18899,0 -0.0996,-0.0996 -0.0894,-0.27837 -0.18898,-0.37797 -0.0446,-0.0446 -0.13265,0.0282 -0.18899,0 -0.0797,-0.0399 -0.126,-0.126 -0.18899,-0.18899 -0.063,-0.063 -0.12599,-0.12599 -0.18899,-0.18899 -0.0995,-0.0995 -0.5165,-0.46603 -0.56696,-0.56696 -0.0564,-0.1127 0.0563,-0.26529 0,-0.37798 -0.0399,-0.0797 -0.14915,-0.1093 -0.18899,-0.18899 -0.0563,-0.11269 0.0891,-0.28888 0,-0.37798 -0.0446,-0.0445 -0.16082,0.0564 -0.18899,0 -0.0756,-0.15119 0.0756,-0.41577 0,-0.56696 -0.0398,-0.0797 -0.16081,-0.10447 -0.18899,-0.18899 -0.0669,-0.20082 0.0669,-0.55513 0,-0.75595 -0.0445,-0.13363 -0.14444,-0.24434 -0.18899,-0.37798 -0.0398,-0.11952 0.0399,-0.25844 0,-0.37797 -0.0445,-0.13364 -0.14444,-0.24434 -0.18898,-0.37798 -0.0416,-0.12492 0,-1.12016 0,-1.32292 0,-0.063 0.0199,-0.12922 0,-0.18898 -0.0446,-0.13364 -0.15483,-0.24132 -0.18899,-0.37798 -0.0611,-0.24446 0.11269,-0.53057 0,-0.75595 -0.0282,-0.0564 -0.14445,0.0445 -0.18899,0 -0.0445,-0.0445 0,-0.12599 0,-0.18899 0,-0.063 0,-0.12599 0,-0.18899 0,-0.37797 0,-0.75595 0,-1.13393 0,-0.0851 -0.0288,-0.50945 0,-0.56696 0.0398,-0.0797 0.14915,-0.1093 0.18899,-0.18899 0.0563,-0.11269 -0.0563,-0.26528 0,-0.37798 0.0398,-0.0797 0.12599,-0.12599 0.18899,-0.18898 0.063,-0.063 0.12599,-0.126 0.18898,-0.18899 0.11116,-0.11115 0.66844,-0.7122 0.75596,-0.75595 0.0563,-0.0282 0.13264,0.0282 0.18898,0 0.0797,-0.0399 0.10931,-0.14915 0.18899,-0.18899 0.0564,-0.0282 0.12923,0.0199 0.18899,0 0.13364,-0.0445 0.24434,-0.14445 0.37798,-0.18899 0.0598,-0.0199 0.13264,0.0282 0.18899,0 0.0797,-0.0398 0.1093,-0.14915 0.18898,-0.18899 0.15119,-0.0756 0.41578,0.0756 0.56697,0 0.0797,-0.0398 0.1093,-0.14914 0.18899,-0.18899 0.0497,-0.0248 0.65712,0 0.75595,0 0.69295,0 1.38591,0 2.07887,0 0.56696,0 1.13393,0 1.70089,0 0.16377,0 0.64648,-0.0365 0.75595,0 0.13364,0.0446 0.24434,0.14445 0.37798,0.18899 0.0598,0.0199 0.13264,-0.0282 0.18899,0 0.0797,0.0398 0.1093,0.14915 0.18898,0.18899 0.0563,0.0282 0.13265,-0.0282 0.18899,0 0.0797,0.0398 0.10931,0.14915 0.18899,0.18899 0.0563,0.0282 0.14444,-0.0445 0.18899,0 0.31498,0.31498 -0.69297,0.18898 0.37798,0.18899"
         style="fill:none;stroke:#000000;stroke-width:0.26458332px;stroke-linecap:butt;stroke-linejoin:miter;stroke-opacity:1" />
      <path
         inkscape:connector-curvature="0"
         id="path2371"
         d="m 83.15476,165.08631 c 0.063,0.37797 0.146671,0.75308 0.188989,1.13393 0.04174,0.37566 0,0.75595 0,1.13393 0,0.50396 0,1.00793 0,1.5119 0,1.70089 0,3.40179 0,5.10268"
         style="fill:none;stroke:#000000;stroke-width:0.26458332px;stroke-linecap:butt;stroke-linejoin:miter;stroke-opacity:1" />
    </g>
    <path
       style="fill:none;stroke:#000000;stroke-width:0.26458332px;stroke-linecap:butt;stroke-linejoin:miter;stroke-opacity:1"
       d="m 140.79613,183.98512 c -0.91532,0.45766 -0.55674,0.17876 -1.13393,0.75595 -0.063,0.063 -0.13957,0.11486 -0.18899,0.18899 -0.0781,0.1172 -0.10447,0.26528 -0.18899,0.37797 -0.1069,0.14255 -0.27106,0.23544 -0.37797,0.37798 -0.16904,0.22538 -0.17877,0.55674 -0.37798,0.75595 -0.16061,0.16061 -0.40635,0.21737 -0.56696,0.37798 -0.0996,0.0996 -0.0894,0.27837 -0.18899,0.37798 -0.16061,0.1606 -0.40636,0.21736 -0.56696,0.37797 -0.0446,0.0446 0.0445,0.14445 0,0.18899 -0.0446,0.0445 -0.14445,-0.0445 -0.18899,0 -0.0445,0.0445 0.0445,0.14444 0,0.18899 -0.0445,0.0445 -0.14444,-0.0445 -0.18899,0 -0.0446,0.0445 0.0445,0.14444 0,0.18899 -0.39103,0.39102 0.0153,-0.59754 -0.37798,0.18898 -0.0282,0.0564 0.0446,0.14445 0,0.18899 -0.0445,0.0446 -0.14444,-0.0445 -0.18899,0 -0.0445,0.0446 0.0445,0.14444 0,0.18899 -0.0445,0.0445 -0.14444,-0.0446 -0.18898,0 -0.0445,0.0445 0.0199,0.12922 0,0.18899 -0.0445,0.13363 -0.0894,0.27837 -0.18899,0.37797 -0.0446,0.0445 -0.14444,-0.0445 -0.18899,0 -0.0891,0.0891 0.0563,0.26529 0,0.37798 -0.0797,0.15937 -0.29829,0.21861 -0.37798,0.37798 -0.13034,0.26068 0.22888,0.16904 -0.18898,0.37797 -0.50397,0 0.063,-0.063 -0.18899,0.18899 -0.25199,0.25198 -0.18899,-0.31498 -0.18899,0.18899"
       id="path2373"
       inkscape:connector-curvature="0" />
    <text
       xml:space="preserve"
       style="font-style:normal;font-weight:normal;font-size:4.23333311px;line-height:1.25;font-family:sans-serif;letter-spacing:0px;word-spacing:0px;fill:#000000;fill-opacity:1;stroke:none;stroke-width:0.26458332"
       x="59.066551"
       y="149.73448"
       id="text3108"><tspan
         sodipodi:role="line"
         id="tspan3106"
         x="59.066551"
         y="149.73448"
         style="stroke-width:0.26458332">Really good drawing of a hinge</tspan></text>
  </g>
  <g
     inkscape:groupmode="layer"
     id="layer2"
     inkscape:label="virtual"
     style="display:inline"
     sodipodi:insensitive="true">
    <circle
       style="opacity:0.95999995;fill:none;stroke:#000000;stroke-width:0.60000002;stroke-linecap:butt;stroke-miterlimit:4;stroke-dasharray:1.80000009, 0.60000003;stroke-dashoffset:0"
       id="path845"
       cx="110.86279"
       cy="81.293549"
       r="160" />
  </g>
  <g
     inkscape:groupmode="layer"
     id="layer4"
     inkscape:label="gears"
     style="display:inline"
     sodipodi:insensitive="true">
    <path
       inkscape:connector-curvature="0"
       style="fill:#d3d3d3;stroke:#000000;stroke-width:0.49999997"
       d="m 110.09723,96.65571 -46.256697,53.68529 0.354207,0.19047 -0.02742,0.18053 -0.131899,0.71812 -0.02477,0.20649 -0.124094,0.82214 -0.02012,0.23033 -0.108118,0.91832 -0.01366,0.25597 -0.08603,1.02163 -0.0055,0.28357 -0.05651,1.13285 0.264144,0.12689 1.040625,0.53951 0.217838,-0.18157 0.893209,-0.69908 0.191272,-0.17072 0.785348,-0.65912 0.167271,-0.15952 0.688152,-0.6177 0.145605,-0.1483 0.6004,-0.57532 0.111639,-0.12111 0.46096,-0.4707 0.283731,0.14159 1.117025,0.60075 0.02942,0.0105 0.116968,0.045 -0.01063,0.14834 -0.0606,0.59135 -0.0082,0.20769 -0.05837,0.82948 -0.0018,0.23123 -0.03483,0.924 0.0065,0.25623 -0.0045,1.0253 0.01703,0.28303 0.03364,1.13379 0.273378,0.10551 1.08023,0.45507 0.202742,-0.19819 0.834866,-0.76791 0.177053,-0.18535 0.730515,-0.71944 0.154087,-0.17235 0.636849,-0.67033 0.133402,-0.15951 0.552768,-0.6211 0.114141,-0.14551 0.47389,-0.56795 0.31164,0.10931 1.232618,0.47499 0.0015,0.1818 -0.01641,0.72714 0.0084,0.2077 0.0077,0.83153 0.0167,0.23057 0.03868,0.92384 0.02692,0.25495 0.07695,1.02237 0.03945,0.28078 0.123587,1.1276 0.280956,0.0834 1.112934,0.36785 0.186344,-0.21367 0.771231,-0.83183 0.161803,-0.19882 0.670977,-0.77512 0.139866,-0.18407 0.581626,-0.71889 0.12037,-0.16947 0.501678,-0.66314 0.09053,-0.1365 0.378433,-0.5348 0.33138,0.0712 1.316391,0.32503 0.0155,0.17652 0.04037,0.7076 0.02479,0.20637 0.07374,0.82821 0.035,0.22853 0.111978,0.91787 0.04733,0.25191 0.15795,1.01309 0.0618,0.27679 0.212818,1.1141 0.286705,0.0608 1.138597,0.27826 0.168814,-0.22782 0.70264,-0.89044 0.14548,-0.21107 0.607303,-0.82604 0.124981,-0.19444 0.522737,-0.76289 0.106418,-0.17848 0.447444,-0.70086 0.08482,-0.15236 0.356285,-0.59929 0.333896,0.0717 1.326372,0.3276 0.02615,0.15691 0.08671,0.63021 0.04119,0.20374 0.13932,0.8198 0.05286,0.22501 0.184121,0.90615 0.06703,0.24744 0.238006,0.99726 0.08349,0.27106 0.300691,1.0937 0.290581,0.0379 1.157122,0.1869 0.150098,-0.24059 0.62971,-0.94347 0.128466,-0.2218 0.539753,-0.87169 0.108945,-0.20386 0.460355,-0.80197 0.09193,-0.18641 0.390374,-0.73423 0.0758,-0.16691 0.323365,-0.65797 0.328636,0.0284 1.310328,0.1533 0.04515,0.17902 0.158233,0.72155 0.05714,0.1999 0.203996,0.80616 0.07072,0.22008 0.255929,0.88853 0.08642,0.24126 0.31636,0.97525 0.104792,0.26352 0.38653,1.06636 0.29272,0.0148 1.16828,0.0943 0.13066,-0.25169 0.55275,-0.99054 0.11019,-0.23139 0.46881,-0.91178 0.0924,-0.21194 0.39517,-0.83598 0.0769,-0.19317 0.33072,-0.76283 0.0511,-0.14148 0.22165,-0.55933 0.3461,-0.0137 1.38547,-0.0126 0.054,0.1599 0.19662,0.64571 0.0728,0.19468 0.26746,0.78733 0.0879,0.21382 0.32573,0.86541 0.10545,0.23366 0.3928,0.94708 0.12534,0.25429 0.47018,1.03233 0.29292,-0.009 1.17215,7.5e-4 0.11017,-0.2613 0.4723,-1.03132 0.0914,-0.2394 0.3949,-0.94621 0.0753,-0.21852 0.32755,-0.8647 0.0613,-0.19869 0.26907,-0.78673 0.0477,-0.17452 0.21219,-0.69152 0.33528,-0.0131 1.34187,-0.0124 0.0672,0.15662 0.24969,0.63412 0.088,0.18826 0.32914,0.76363 0.10463,0.2061 0.39347,0.8368 0.12362,0.22461 0.46682,0.91281 0.14522,0.24355 0.55056,0.99173 0.29133,-0.0319 1.16853,-0.0919 0.0891,-0.26929 0.38882,-1.06549 0.0722,-0.24597 0.31845,-0.97458 0.0577,-0.2239 0.25787,-0.888 0.0452,-0.20289 0.20573,-0.80567 0.0334,-0.17531 0.15454,-0.69711 0.32706,-0.0546 1.31423,-0.17829 0.0859,0.16305 0.3238,0.6625 0.10275,0.18073 0.38875,0.735 0.12076,0.19716 0.45868,0.80289 0.141,0.21399 0.53795,0.87285 0.16397,0.23136 0.62771,0.94476 0.28788,-0.055 1.15756,-0.18452 0.0674,-0.27546 0.30294,-1.09309 0.0524,-0.25086 0.24,-0.99682 0.0397,-0.22771 0.18648,-0.90569 0.0291,-0.20581 0.14102,-0.8195 0.0171,-0.1563 0.0868,-0.6227 0.17086,-0.0281 0.68608,-0.0931 0.16774,-0.0502 0.67664,-0.1804 0.0841,0.13285 0.32036,0.54154 0.11674,0.17199 0.44595,0.70188 0.13606,0.18694 0.52101,0.76385 0.15761,0.20211 0.6055,0.8274 0.18198,0.2175 0.70076,0.89199 0.2826,-0.0776 1.13919,-0.27579 0.0453,-0.2799 0.21528,-1.11371 0.0322,-0.25426 0.16007,-1.01273 0.0214,-0.23016 0.11391,-0.91767 0.0125,-0.20746 0.0757,-0.82806 0.005,-0.18431 0.0435,-0.73601 0.31767,-0.095 1.28158,-0.34168 0.10726,0.14267 0.41106,0.5835 0.13001,0.16222 0.50026,0.66414 0.15042,0.17548 0.58008,0.7201 0.17321,0.18903 0.66933,0.77661 0.19864,0.20241 0.76935,0.83342 0.27558,-0.0999 1.11372,-0.36545 0.023,-0.28263 0.12604,-1.12722 0.012,-0.25606 0.079,-1.02219 0.003,-0.23121 0.0406,-0.92379 -0.004,-0.20787 0.009,-0.83141 -0.009,-0.17026 -0.0139,-0.68175 0.30673,-0.13573 1.24296,-0.50547 0.11977,0.13564 0.46245,0.55659 0.14247,0.15131 0.55151,0.62237 0.1639,0.16302 0.6354,0.6717 0.18771,0.17462 0.72897,0.72096 0.21401,0.18596 0.8332,0.76972 0.26675,-0.12143 1.08119,-0.45277 -6.1e-4,-0.28357 0.0361,-1.13371 -0.008,-0.25624 -0.002,-1.02525 -0.0154,-0.23064 -0.0329,-0.92413 -0.0201,-0.2069 -0.0561,-0.82967 -0.022,-0.1672 -0.0673,-0.67131 0.31684,-0.14023 1.28364,-0.52198 0.10812,0.10436 0.41967,0.43038 0.15412,0.13951 0.59919,0.57652 0.17631,0.14956 0.68683,0.61909 0.20086,0.15918 0.784,0.66073 0.22816,0.16843 0.89162,0.70103 0.25632,-0.1421 1.04176,-0.53731 -0.0217,-0.28271 -0.0541,-1.13305 -0.0288,-0.25468 -0.0837,-1.02188 -0.0337,-0.22872 -0.10623,-0.91853 -0.0373,-0.20453 -0.12233,-0.82245 -0.0384,-0.18065 -0.13196,-0.72682 0.28258,-0.17027 1.15019,-0.64619 0.14162,0.11638 0.55188,0.48249 0.16471,0.12685 0.64306,0.5272 0.18769,0.13494 0.73379,0.56266 0.21292,0.14262 0.83399,0.59644 0.24058,0.15011 0.94463,0.62797 0.24409,-0.1621 0.99582,-0.61828 -0.0445,-0.28015 -0.14396,-1.1251 -0.0493,-0.25153 -0.16477,-1.01194 -0.0518,-0.22523 -0.17886,-0.90731 -0.053,-0.20096 -0.18725,-0.81012 -0.0453,-0.15256 -0.16311,-0.61538 0.26808,-0.2116 1.09768,-0.81298 0.14305,0.0997 0.55995,0.41597 0.17441,0.11305 0.68297,0.47438 0.19759,0.11989 0.77615,0.50258 0.22384,0.12503 0.87853,0.52846 0.252,0.13012 0.99153,0.55091 0.23048,-0.18089 0.94353,-0.69547 -0.0668,-0.27569 -0.23253,-1.11018 -0.0686,-0.24696 -0.24455,-0.99574 -0.0693,-0.22055 -0.25034,-0.89015 -0.0688,-0.19614 -0.25102,-0.79267 -0.0639,-0.16521 -0.23534,-0.66826 0.26619,-0.21002 1.08969,-0.80717 0.1412,0.0828 0.55486,0.34743 0.18261,0.0993 0.71868,0.41826 0.20667,0.10362 0.81369,0.43928 0.23288,0.10713 0.91788,0.45682 0.26148,0.10971 1.03217,0.47045 0.21539,-0.19871 0.88524,-0.76827 -0.0884,-0.26947 -0.32026,-1.08811 -0.0881,-0.2407 -0.32296,-0.97312 -0.0865,-0.21431 -0.3203,-0.86747 -0.0841,-0.1901 -0.3132,-0.77025 -0.079,-0.16389 -0.29533,-0.66478 0.23153,-0.23547 0.95449,-0.91307 0.16653,0.0803 0.65615,0.34149 0.19002,0.0843 0.74948,0.36025 0.21422,0.0869 0.84601,0.37324 0.24056,0.0883 0.95131,0.38243 0.26939,0.0886 1.06626,0.38695 0.1989,-0.21519 0.67754,-0.68966 -40.17157,-23.89871 -0.31976,0.28048 -0.50516,-0.30054 0.0939,-0.41483 z m -1.22359,16.72583 36.7968,21.89098 -2.45733,2.65835 -10.24341,7.23954 -11.52466,4.95161 -12.30237,2.4473 -12.542331,-0.16399 -9.644373,-2.18216 z"
       id="path1043"
       inkscape:transform-center-x="-10.883998"
       inkscape:transform-center-y="50.552812" />
    <path
       inkscape:connector-curvature="0"
       style="fill:#d3d3d3;stroke:#000000;stroke-width:0.5"
       d="m 157.10221,155.41042 0.3325,0.29161 0.1246,0.14285 0.3025,0.23363 0.1151,0.11651 0.2733,0.18658 0.1055,0.0949 0.2456,0.14822 0.0958,0.077 0.2193,0.11694 0.0865,0.0622 0.1947,0.0913 0.0774,0.0499 0.1715,0.0704 0.0688,0.0397 0.1497,0.0533 0.0605,0.0312 0.1291,0.0394 0.0526,0.0241 0.1096,0.0281 0.045,0.0182 0.0911,0.0192 0.0377,0.0134 0.0735,0.0122 0.0305,0.009 0.0564,0.007 0.0236,0.006 0.0399,0.003 0.0168,0.004 0.0238,9.6e-4 0.0101,0.002 0.008,2e-5 0.003,4.5e-4 1.1812,-0.0285 0.4275,0.047 -0.0121,0.19283 0.0919,1.46037 0.1935,1.01457 -1.0838,0.28157 -0.5083,0.0616 -0.0227,0.007 -0.01,0.002 -0.0375,0.0141 -0.0168,0.004 -0.0523,0.0222 -0.0235,0.006 -0.0674,0.0319 -0.0304,0.01 -0.0823,0.0435 -0.0375,0.0138 -0.0977,0.0572 -0.0448,0.0187 -0.1133,0.0733 -0.0523,0.0247 -0.1293,0.0923 -0.0601,0.0318 -0.1456,0.11479 -0.0683,0.0404 -0.1621,0.1413 -0.0769,0.0508 -0.1788,0.17269 -0.0858,0.0631 -0.1954,0.21 -0.095,0.078 -0.2116,0.25449 -0.1044,0.096 -0.2266,0.30773 -0.1139,0.11776 -0.2396,0.37173 -0.123,0.14421 0.2832,0.66816 0.0822,0.29997 0.4337,0.0863 0.1794,0.0614 0.3787,0.0511 0.158,0.0433 0.33,0.0249 0.1387,0.0294 0.2868,0.006 0.1215,0.0187 0.2485,-0.008 0.106,0.0106 0.2142,-0.0182 0.092,0.005 0.1837,-0.0248 0.0795,-2e-5 0.1562,-0.0287 0.068,-0.003 0.1315,-0.0304 0.0576,-0.005 0.109,-0.0305 0.0481,-0.007 0.0885,-0.029 0.0393,-0.007 0.0697,-0.0262 0.0311,-0.007 0.0524,-0.0222 0.0235,-0.007 0.0362,-0.0172 0.0164,-0.005 0.0211,-0.0111 0.01,-0.004 0.007,-0.004 0.003,-0.001 1.0012,-0.61064 0.3951,-0.17366 0.75643,1.19191 0.81386,0.98378 -0.79306,0.78108 -0.40766,0.30615 -0.0159,0.0178 -0.008,0.007 -0.0254,0.031 -0.0126,0.0117 -0.0343,0.0454 -0.0171,0.0173 -0.0423,0.0613 -0.0215,0.0236 -0.0496,0.0789 -0.0256,0.0307 -0.056,0.0984 -0.0294,0.0386 -0.0615,0.12016 -0.033,0.0475 -0.0657,0.14461 -0.0362,0.0577 -0.0687,0.17218 -0.0389,0.0692 -0.0698,0.2034 -0.0412,0.0824 -0.0685,0.239 -0.0427,0.0975 -0.0642,0.2796 -0.0433,0.1151 -0.056,0.3262 -0.0424,0.1353 -0.0424,0.3798 -0.0397,0.1589 -0.0217,0.4418 -0.0344,0.1864 0.5794,0.437 0.2211,0.2187 0.41881,-0.1422 0.18601,-0.0364 0.35356,-0.1452 0.15846,-0.0414 0.29825,-0.14341 0.13487,-0.0439 0.25116,-0.1386 0.1146,-0.0445 0.21093,-0.1315 0.0971,-0.0438 0.17643,-0.1229 0.082,-0.0421 0.1467,-0.1133 0.0688,-0.0398 0.12098,-0.10289 0.0573,-0.0368 0.0986,-0.0921 0.0472,-0.0335 0.0792,-0.0809 0.0383,-0.0299 0.0622,-0.0693 0.0304,-0.0259 0.0473,-0.0576 0.0234,-0.0217 0.0342,-0.0454 0.0171,-0.0174 0.0228,-0.0329 0.0116,-0.0127 0.0127,-0.0202 0.007,-0.008 0.004,-0.007 0.002,-0.003 0.56594,-1.0372 0.25705,-0.35027 1.02321,0.56247 1.36052,0.53869 0.0558,0.0143 -0.29547,1.0701 -0.19848,0.4655 -0.005,0.0234 -0.003,0.01 -0.007,0.0395 -0.005,0.0164 -0.007,0.0565 -0.006,0.0236 -0.006,0.0742 -0.007,0.0312 -0.004,0.0931 -0.007,0.0393 6.6e-4,0.11321 -0.006,0.0481 0.007,0.1348 -0.005,0.0577 0.0154,0.1581 -0.002,0.068 0.0267,0.1835 8.5e-4,0.0794 0.0413,0.211 0.005,0.092 0.0602,0.2412 0.0118,0.1058 0.0842,0.2743 0.0201,0.1212 0.1146,0.3105 0.0309,0.1384 0.15318,0.3502 0.0451,0.1574 0.20211,0.3934 0.0634,0.1787 0.72025,0.0888 0.30086,0.0788 0.29161,-0.3325 0.14285,-0.1246 0.23363,-0.3025 0.11651,-0.1151 0.18658,-0.2733 0.0949,-0.1055 0.14822,-0.2456 0.077,-0.0958 0.11695,-0.2193 0.0622,-0.0865 0.0913,-0.1947 0.0499,-0.0774 0.0704,-0.1715 0.0397,-0.0688 0.0533,-0.1497 0.0312,-0.0605 0.0394,-0.1291 0.0241,-0.0526 0.0281,-0.1096 0.0182,-0.045 0.0192,-0.0911 0.0134,-0.0377 0.0122,-0.0735 0.009,-0.0305 0.007,-0.0564 0.006,-0.0236 0.003,-0.0399 0.004,-0.0168 9.5e-4,-0.0238 0.002,-0.0101 2e-5,-0.008 4.5e-4,-0.003 -0.0286,-1.1865 0.0476,-0.4331 h 0.92399 l 1.45173,-0.1834 0.29228,-0.075 0.28115,1.0821 0.0613,0.506 0.008,0.0227 0.002,0.01 0.0141,0.0375 0.004,0.0168 0.0222,0.0523 0.006,0.0235 0.0319,0.0674 0.01,0.0304 0.0435,0.0823 0.0138,0.0375 0.0572,0.0977 0.0187,0.0448 0.0733,0.1133 0.0247,0.0523 0.0923,0.1293 0.0318,0.0601 0.11479,0.1456 0.0404,0.0683 0.1413,0.1621 0.0508,0.0769 0.17269,0.1788 0.0631,0.0858 0.21,0.1954 0.078,0.095 0.25449,0.2116 0.096,0.1044 0.30773,0.2266 0.11777,0.1139 0.37173,0.2396 0.14421,0.123 0.66816,-0.2832 0.29997,-0.0822 0.0863,-0.4337 0.0614,-0.1794 0.0511,-0.3787 0.0433,-0.158 0.0249,-0.33 0.0294,-0.1387 0.006,-0.2868 0.0187,-0.1215 -0.008,-0.2485 0.0106,-0.106 -0.0182,-0.2142 0.005,-0.092 -0.0248,-0.1837 -3e-5,-0.0795 -0.0287,-0.1562 -0.003,-0.068 -0.0304,-0.1315 -0.005,-0.0576 -0.0305,-0.109 -0.007,-0.0481 -0.029,-0.0885 -0.007,-0.0393 -0.0262,-0.0697 -0.007,-0.0311 -0.0222,-0.0524 -0.006,-0.0235 -0.0172,-0.0362 -0.005,-0.0164 -0.0111,-0.0211 -0.004,-0.01 -0.004,-0.007 -0.001,-0.003 -0.61898,-1.0148 -0.17518,-0.3987 0.59634,-0.3278 1.18381,-0.86007 0.39769,-0.37346 0.78746,0.79953 0.30748,0.40943 0.0178,0.0159 0.007,0.008 0.031,0.0254 0.0117,0.0126 0.0454,0.0343 0.0173,0.0171 0.0613,0.0423 0.0236,0.0215 0.0789,0.0496 0.0307,0.0256 0.0984,0.056 0.0386,0.0294 0.12016,0.0615 0.0475,0.033 0.14462,0.0657 0.0577,0.0362 0.17217,0.0687 0.0692,0.0389 0.2034,0.0698 0.0824,0.0412 0.23901,0.0685 0.0975,0.0427 0.2796,0.0642 0.1151,0.0433 0.3262,0.056 0.1353,0.0424 0.3798,0.0424 0.1589,0.0397 0.4418,0.0217 0.1864,0.0344 0.437,-0.5794 0.2187,-0.2211 -0.1422,-0.41881 -0.0364,-0.18601 -0.14521,-0.35356 -0.0414,-0.15846 -0.1434,-0.29825 -0.0439,-0.13487 -0.1386,-0.25116 -0.0445,-0.1146 -0.1315,-0.21093 -0.0438,-0.0971 -0.1229,-0.17643 -0.0421,-0.082 -0.1133,-0.1467 -0.0398,-0.0688 -0.1029,-0.12098 -0.0368,-0.0573 -0.0921,-0.0986 -0.0335,-0.0472 -0.0809,-0.0792 -0.0299,-0.0383 -0.0693,-0.0622 -0.0259,-0.0304 -0.0576,-0.0473 -0.0217,-0.0234 -0.0454,-0.0342 -0.0174,-0.0171 -0.0329,-0.0228 -0.0127,-0.0116 -0.0202,-0.0127 -0.008,-0.007 -0.007,-0.004 -0.003,-0.002 -1.0419,-0.5685 -0.34953,-0.25651 0.23413,-0.36898 0.62311,-1.32401 0.2438,-0.75054 1.08229,0.29883 0.4717,0.20115 0.0234,0.005 0.01,0.003 0.0395,0.007 0.0164,0.005 0.0565,0.007 0.0236,0.006 0.0742,0.006 0.0312,0.007 0.0931,0.004 0.0393,0.007 0.11321,-6.6e-4 0.0481,0.006 0.13479,-0.007 0.0577,0.005 0.1581,-0.0154 0.068,0.002 0.18351,-0.0266 0.0794,-8.5e-4 0.211,-0.0413 0.092,-0.006 0.24119,-0.0602 0.1058,-0.0118 0.27431,-0.0842 0.1212,-0.0201 0.31049,-0.1146 0.13841,-0.031 0.3502,-0.15318 0.15739,-0.0451 0.3934,-0.20211 0.1787,-0.0634 0.0888,-0.72025 0.0788,-0.30086 -0.33249,-0.29161 -0.12461,-0.14285 -0.3025,-0.23363 -0.11509,-0.11651 -0.27331,-0.18658 -0.1055,-0.0949 -0.2456,-0.14823 -0.0958,-0.077 -0.21929,-0.11694 -0.0865,-0.0622 -0.1947,-0.0913 -0.0774,-0.0499 -0.1715,-0.0704 -0.0688,-0.0397 -0.1497,-0.0533 -0.0605,-0.0312 -0.1291,-0.0394 -0.0526,-0.0241 -0.1096,-0.0281 -0.045,-0.0182 -0.0911,-0.0192 -0.0377,-0.0134 -0.0735,-0.0122 -0.0305,-0.009 -0.0564,-0.007 -0.0236,-0.006 -0.0399,-0.003 -0.0168,-0.004 -0.0238,-9.5e-4 -0.0101,-0.002 -0.008,-2e-5 -0.003,-4.5e-4 -1.1812,0.0285 -0.4275,-0.047 0.0121,-0.19283 -0.0919,-1.46037 -0.1935,-1.01457 1.0838,-0.28157 0.5083,-0.0616 0.0227,-0.007 0.01,-0.002 0.0375,-0.0141 0.0168,-0.004 0.0523,-0.0222 0.0235,-0.006 0.0674,-0.0319 0.0304,-0.01 0.0823,-0.0435 0.0375,-0.0138 0.0977,-0.0572 0.0448,-0.0187 0.1133,-0.0733 0.0523,-0.0247 0.1293,-0.0923 0.0601,-0.0318 0.1456,-0.11479 0.0683,-0.0405 0.1621,-0.1413 0.0769,-0.0508 0.1788,-0.17269 0.0858,-0.0631 0.1954,-0.21 0.095,-0.078 0.2116,-0.25449 0.1044,-0.096 0.2266,-0.30773 0.1139,-0.11777 0.2396,-0.37173 0.123,-0.14421 -0.2832,-0.66816 -0.0822,-0.29997 -0.4337,-0.0863 -0.1794,-0.0614 -0.3787,-0.0511 -0.158,-0.0433 -0.33,-0.0249 -0.1387,-0.0294 -0.2868,-0.006 -0.1215,-0.0187 -0.2485,0.008 -0.106,-0.0106 -0.2142,0.0182 -0.092,-0.005 -0.1837,0.0248 -0.0795,3e-5 -0.1562,0.0287 -0.068,0.003 -0.1315,0.0304 -0.0576,0.005 -0.109,0.0305 -0.0481,0.007 -0.0885,0.029 -0.0393,0.007 -0.0697,0.0262 -0.0311,0.007 -0.0524,0.0222 -0.0235,0.007 -0.0362,0.0172 -0.0164,0.005 -0.0211,0.0111 -0.01,0.004 -0.007,0.004 -0.003,0.001 -1.0012,0.61064 -0.3951,0.17366 -0.75643,-1.19191 -0.81386,-0.98378 0.79306,-0.78108 0.40766,-0.30615 0.0159,-0.0178 0.008,-0.007 0.0254,-0.031 0.0126,-0.0117 0.0343,-0.0454 0.0171,-0.0173 0.0423,-0.0613 0.0215,-0.0236 0.0496,-0.0789 0.0256,-0.0307 0.056,-0.0984 0.0294,-0.0386 0.0615,-0.12016 0.033,-0.0475 0.0657,-0.14461 0.0362,-0.0577 0.0687,-0.17218 0.0389,-0.0692 0.0698,-0.2034 0.0412,-0.0824 0.0685,-0.239 0.0427,-0.0975 0.0642,-0.2796 0.0433,-0.1151 0.056,-0.3262 0.0424,-0.1353 0.0424,-0.3798 0.0397,-0.1589 0.0217,-0.4418 0.0344,-0.1864 -0.5794,-0.437 -0.2211,-0.2187 -0.41881,0.1422 -0.18601,0.0364 -0.35356,0.1452 -0.15846,0.0414 -0.29825,0.1434 -0.13487,0.0439 -0.25116,0.1386 -0.1146,0.0445 -0.21093,0.1315 -0.0971,0.0438 -0.17643,0.1229 -0.082,0.0421 -0.1467,0.1133 -0.0688,0.0398 -0.12098,0.1029 -0.0573,0.0368 -0.0986,0.0921 -0.0472,0.0335 -0.0792,0.0809 -0.0383,0.0299 -0.0622,0.0693 -0.0304,0.0259 -0.0473,0.0576 -0.0234,0.0217 -0.0342,0.0454 -0.0171,0.0174 -0.0228,0.0329 -0.0116,0.0127 -0.0127,0.0202 -0.007,0.008 -0.004,0.007 -0.002,0.003 -0.56594,1.0372 -0.25705,0.35027 -1.02321,-0.56247 -1.36052,-0.5387 -0.0558,-0.0143 0.29547,-1.0701 0.19848,-0.4655 0.005,-0.0234 0.003,-0.01 0.007,-0.0395 0.005,-0.0164 0.007,-0.0565 0.006,-0.0236 0.006,-0.0742 0.007,-0.0312 0.004,-0.0931 0.007,-0.0393 -6.6e-4,-0.1132 0.006,-0.0481 -0.007,-0.1348 0.005,-0.0577 -0.0154,-0.1581 0.002,-0.068 -0.0266,-0.1835 -8.5e-4,-0.0794 -0.0413,-0.211 -0.006,-0.092 -0.0601,-0.24117 -0.0118,-0.1058 -0.0842,-0.2743 -0.0201,-0.1212 -0.1146,-0.3105 -0.0309,-0.1384 -0.15318,-0.3502 -0.0451,-0.1574 -0.20211,-0.3934 -0.0634,-0.1787 -0.72025,-0.0888 -0.30086,-0.0788 -0.29161,0.3325 -0.14285,0.1246 -0.23363,0.3025 -0.11651,0.1151 -0.18658,0.2733 -0.0949,0.1055 -0.14823,0.2456 -0.077,0.0958 -0.11694,0.2193 -0.0622,0.0865 -0.0913,0.1947 -0.0499,0.0774 -0.0704,0.1715 -0.0397,0.0688 -0.0533,0.1497 -0.0312,0.0605 -0.0394,0.1291 -0.0241,0.0526 -0.0281,0.1096 -0.0182,0.045 -0.0192,0.0911 -0.0134,0.0377 -0.0122,0.0735 -0.009,0.0305 -0.007,0.0564 -0.006,0.0236 -0.003,0.0399 -0.004,0.0168 -9.5e-4,0.0238 -0.002,0.0101 -2e-5,0.008 -4.5e-4,0.003 0.0286,1.1865 -0.0476,0.4331 h -0.92398 l -1.45173,0.1834 -0.29228,0.075 -0.28115,-1.0821 -0.0613,-0.506 -0.007,-0.0227 -0.002,-0.01 -0.0141,-0.0375 -0.004,-0.0168 -0.0222,-0.0523 -0.006,-0.0235 -0.0319,-0.0674 -0.01,-0.0304 -0.0435,-0.0823 -0.0138,-0.0375 -0.0572,-0.0977 -0.0187,-0.0448 -0.0733,-0.1133 -0.0247,-0.0523 -0.0924,-0.1293 -0.0318,-0.0601 -0.11479,-0.1456 -0.0405,-0.0683 -0.1413,-0.1621 -0.0508,-0.0769 -0.17269,-0.1788 -0.0631,-0.0858 -0.21,-0.1954 -0.078,-0.095 -0.25449,-0.2116 -0.096,-0.1044 -0.30773,-0.2266 -0.11777,-0.1139 -0.37173,-0.2396 -0.14421,-0.123 -0.66816,0.2832 -0.29997,0.0822 -0.0863,0.4337 -0.0614,0.1794 -0.0511,0.3787 -0.0433,0.158 -0.0249,0.33 -0.0294,0.1387 -0.006,0.2868 -0.0188,0.1215 0.008,0.2485 -0.0106,0.106 0.0182,0.2142 -0.005,0.092 0.0248,0.1837 3e-5,0.0795 0.0287,0.1562 0.003,0.068 0.0304,0.1315 0.005,0.0576 0.0305,0.109 0.007,0.0481 0.029,0.0885 0.007,0.0393 0.0262,0.0697 0.007,0.0311 0.0222,0.0524 0.006,0.0235 0.0172,0.0362 0.005,0.0164 0.0111,0.0211 0.004,0.01 0.004,0.007 0.001,0.003 0.61898,1.0148 0.17518,0.3987 -0.59643,0.3278 -1.18381,0.86007 -0.39769,0.37346 -0.78746,-0.79953 -0.30748,-0.40943 -0.0178,-0.0159 -0.007,-0.008 -0.031,-0.0254 -0.0117,-0.0126 -0.0454,-0.0343 -0.0173,-0.0171 -0.0613,-0.0423 -0.0236,-0.0215 -0.0789,-0.0496 -0.0307,-0.0256 -0.0984,-0.056 -0.0386,-0.0294 -0.12016,-0.0615 -0.0475,-0.033 -0.14461,-0.0657 -0.0577,-0.0362 -0.17218,-0.0687 -0.0692,-0.0389 -0.2034,-0.0698 -0.0824,-0.0412 -0.239,-0.0685 -0.0975,-0.0427 -0.2796,-0.0642 -0.1151,-0.0433 -0.3262,-0.056 -0.1353,-0.0424 -0.3798,-0.0424 -0.1589,-0.0397 -0.4418,-0.0217 -0.1864,-0.0344 -0.437,0.5794 -0.2187,0.2211 0.1422,0.41881 0.0364,0.18601 0.1452,0.35356 0.0414,0.15846 0.1434,0.29825 0.0439,0.13487 0.1386,0.25116 0.0445,0.1146 0.1315,0.21093 0.0438,0.0971 0.1229,0.17643 0.0421,0.0819 0.1133,0.1467 0.0398,0.0688 0.1029,0.12098 0.0368,0.0573 0.0921,0.0987 0.0335,0.0472 0.0809,0.0792 0.0299,0.0383 0.0693,0.0622 0.0259,0.0304 0.0576,0.0473 0.0217,0.0234 0.0454,0.0342 0.0174,0.0171 0.0329,0.0228 0.0127,0.0116 0.0202,0.0127 0.008,0.007 0.007,0.004 0.003,0.002 1.0419,0.5685 0.34953,0.25651 -0.23413,0.36898 -0.6231,1.32401 -0.2438,0.75054 -1.0823,-0.29883 -0.4717,-0.20115 -0.0234,-0.005 -0.01,-0.003 -0.0395,-0.007 -0.0164,-0.005 -0.0565,-0.007 -0.0236,-0.006 -0.0742,-0.006 -0.0312,-0.007 -0.0931,-0.004 -0.0393,-0.007 -0.1132,6.6e-4 -0.0481,-0.006 -0.1348,0.007 -0.0577,-0.005 -0.1581,0.0154 -0.068,-0.002 -0.1835,0.0266 -0.0794,8.5e-4 -0.211,0.0413 -0.092,0.005 -0.2412,0.0602 -0.1058,0.0118 -0.2743,0.0842 -0.1212,0.0201 -0.31049,0.1146 -0.1384,0.031 -0.3502,0.15318 -0.1574,0.0451 -0.3934,0.20211 -0.1787,0.0634 -0.0888,0.72025 z m 15.1229,3.70543 v -3.00144 l 0.14548,-0.13661 0.21589,-0.15686 0.23386,-0.12855 0.24813,-0.0982 0.25847,-0.0664 0.26475,-0.0334 h 0.26685 l 0.26475,0.0334 0.25847,0.0664 0.24812,0.0982 0.23386,0.12855 0.21589,0.15686 0.19454,0.18268 0.17009,0.20561 0.14299,0.22533 0.11363,0.24145 0.0825,0.2538 0.05,0.26213 0.0168,0.26633 -0.0168,0.26632 -0.05,0.26214 -0.0825,0.25379 -0.11363,0.24146 -0.14299,0.22533 -0.17009,0.20561 -0.19454,0.18268 -0.21589,0.15686 -0.23386,0.12855 -0.24812,0.0982 -0.25847,0.0664 -0.26475,0.0334 h -0.26685 l -0.26475,-0.0334 -0.25847,-0.0664 -0.24813,-0.0982 -0.23386,-0.12855 -0.21589,-0.15686 z"
       id="path2538" />
  </g>
  <g
     inkscape:groupmode="layer"
     id="layer5"
     inkscape:label="sweep"
     style="display:inline;opacity:0.253"
     sodipodi:insensitive="true">
    <path
       d="m 178.66746,32.056516 a 85,85 0 0 1 -3.1297,103.712394 85,85 0 0 1 -101.083189,23.4146 L 109.80208,81.881805 Z"
       sodipodi:end="1.9996769"
       sodipodi:start="5.6568497"
       sodipodi:ry="85"
       sodipodi:rx="85"
       sodipodi:cy="81.881805"
       sodipodi:cx="109.80208"
       sodipodi:type="arc"
       id="path2394"
       style="display:inline;opacity:1;fill:#ff8080;stroke:#008000;stroke-width:0.25;stroke-linecap:round;stroke-miterlimit:4;stroke-dasharray:none" />
    <path
       style="display:inline;opacity:1;fill:#008000;stroke:#008000;stroke-width:0.25;stroke-linecap:round;stroke-miterlimit:4;stroke-dasharray:none"
       id="path2386"
       sodipodi:type="arc"
       sodipodi:cx="109.80208"
       sodipodi:cy="81.881805"
       sodipodi:rx="85"
       sodipodi:ry="85"
       sodipodi:start="0.75405084"
       sodipodi:end="2.099273"
       d="M 171.76042,140.07256 A 85,85 0 0 1 66.943513,155.28578 L 109.80208,81.881805 Z" />
    <path
       style="display:inline;fill:#008000;stroke:#008000;stroke-width:0.26458332px;stroke-linecap:butt;stroke-linejoin:miter;stroke-opacity:1"
       d="M 177.24565,149.60128 109.80208,81.881806"
       id="path2380"
       inkscape:connector-curvature="0" />
    <path
       style="display:inline;fill:none;stroke:#008000;stroke-width:0.26458332px;stroke-linecap:butt;stroke-linejoin:miter;stroke-opacity:1"
       d="M 109.80208,81.881806 72.38244,169.38329"
       id="path2382"
       inkscape:connector-curvature="0" />
  </g>
  <g
     inkscape:groupmode="layer"
     id="layer6"
     inkscape:label="flipopen"
     sodipodi:insensitive="true"
     style="display:none;opacity:0.26851855">
    <rect
       inkscape:transform-center-y="-37.337279"
       inkscape:transform-center-x="-64.864345"
       transform="rotate(-35.748877)"
       y="133.16827"
       x="43.93206"
       height="10"
       width="143.79102"
       id="rect3114"
       style="display:inline;opacity:1;fill:none;stroke:#000000;stroke-width:0.25;stroke-linecap:round;stroke-miterlimit:4;stroke-dasharray:none" />
    <path
       inkscape:transform-center-y="15.964305"
       inkscape:transform-center-x="-50.026594"
       id="path3120"
       d="m 124.15049,87.548918 30.93254,63.757122 0.31535,-0.2496 0.15484,0.0968 0.60689,0.40593 0.17972,0.10465 0.70547,0.44003 0.20345,0.10983 0.8001,0.46352 0.22955,0.11407 0.9037,0.48422 0.25812,0.11754 1.0175,0.50124 0.22126,-0.19215 0.90803,-0.74124 -0.0803,-0.27199 -0.28742,-1.09724 -0.0808,-0.2433 -0.29353,-0.98237 -0.0801,-0.21682 -0.29406,-0.87672 -0.0784,-0.19249 -0.28997,-0.77936 -0.0669,-0.15052 -0.24924,-0.60985 0.24253,-0.20429 0.99455,-0.78709 0.0213,-0.0228 0.0877,-0.0895 0.13196,0.0686 0.5188,0.29019 0.1874,0.0899 0.73827,0.38261 0.21155,0.0934 0.83438,0.39849 0.23779,0.0957 0.9394,0.41084 0.26657,0.0966 1.05412,0.41886 0.20529,-0.2091 0.84623,-0.8111 -0.10151,-0.26472 -0.37375,-1.07098 -0.0999,-0.23605 -0.37065,-0.95597 -0.0971,-0.20981 -0.36272,-0.8505 -0.0935,-0.18573 -0.35088,-0.75379 -0.0883,-0.1625 -0.33338,-0.6603 0.22396,-0.24271 0.92496,-0.94309 0.16748,0.0707 0.66098,0.3035 0.19399,0.0747 0.76637,0.32277 0.21828,0.0761 0.86339,0.33095 0.24471,0.0764 0.96902,0.3349 0.2734,0.0752 1.08411,0.33384 0.18801,-0.22483 0.77914,-0.87571 -0.12223,-0.25582 -0.45766,-1.03792 -0.11833,-0.22739 -0.44538,-0.9234 -0.11349,-0.20141 -0.4292,-0.81907 -0.10782,-0.17772 -0.40974,-0.72356 -0.0894,-0.13725 -0.34081,-0.55953 0.1968,-0.27595 0.82054,-1.07947 0.16819,0.0558 0.66556,0.24363 0.19927,0.0591 0.78952,0.26084 0.22366,0.0585 0.88699,0.2613 0.25002,0.0565 0.99263,0.25687 0.2786,0.0531 1.10712,0.24657 0.16954,-0.23906 0.70707,-0.93482 -0.14216,-0.24533 -0.53868,-0.99821 -0.13605,-0.21727 -0.51737,-0.88514 -0.12891,-0.19186 -0.49296,-0.78246 -0.12162,-0.16849 -0.46588,-0.68874 -0.10621,-0.1383 -0.4088,-0.56478 0.19826,-0.27806 0.82685,-1.08761 0.15441,0.0382 0.61291,0.17038 0.20336,0.043 0.80781,0.1973 0.22752,0.0407 0.90485,0.19042 0.25373,0.0366 1.00985,0.1771 0.28194,0.0309 1.12325,0.15781 0.15006,-0.2517 0.63056,-0.98806 -0.16132,-0.23322 -0.61628,-0.95229 -0.15265,-0.20591 -0.58607,-0.84125 -0.14392,-0.18087 -0.55357,-0.7407 -0.13465,-0.15833 -0.51915,-0.6496 -0.12315,-0.13579 -0.47572,-0.55783 0.15642,-0.29041 0.66049,-1.14202 0.18225,0.0296 0.72512,0.14097 0.20616,0.0268 0.82095,0.13252 0.23007,0.0224 0.91716,0.11751 0.25575,0.0164 1.02073,0.0965 0.28347,0.008 1.1322,0.0682 0.1297,-0.26283 0.54998,-1.03503 -0.17921,-0.21978 -0.69002,-0.90032 -0.1687,-0.19294 -0.65102,-0.79202 -0.1579,-0.16889 -0.61065,-0.69436 -0.14681,-0.14721 -0.56907,-0.60618 -0.1096,-0.10303 -0.42552,-0.42533 0.12471,-0.32314 0.538,-1.27681 0.1682,0.0139 0.67073,0.0756 0.20759,0.0104 0.82883,0.0668 0.23115,0.004 0.92362,0.0443 0.25632,-0.004 1.02519,0.0151 0.28315,-0.0142 1.13414,-0.0221 0.10793,-0.27245 0.46565,-1.0757 -0.19617,-0.20478 -0.75936,-0.84264 -0.18351,-0.17887 -0.71194,-0.73783 -0.17072,-0.1558 -0.66384,-0.64368 -0.15807,-0.13509 -0.61546,-0.55906 -0.14128,-0.11301 -0.55062,-0.46909 0.12097,-0.31297 0.52089,-1.23671 0.17043,4.4e-4 0.68114,0.0223 0.20773,-0.006 0.83154,7.7e-4 0.23069,-0.0143 0.92423,-0.0293 0.25522,-0.0244 1.0231,-0.0664 0.28117,-0.0367 1.12876,-0.112 0.0863,-0.28009 0.37916,-1.10912 -0.21186,-0.18861 -0.82384,-0.77956 -0.19716,-0.16385 -0.76831,-0.67891 -0.18264,-0.14178 -0.71286,-0.58896 -0.16832,-0.12197 -0.65797,-0.50843 -0.14768,-0.1002 -0.57861,-0.41839 0.0796,-0.32188 0.35765,-1.27714 0.18374,-0.0142 0.7366,-0.0345 0.20666,-0.0226 0.8289,-0.0653 0.22889,-0.0326 0.91897,-0.10257 0.25236,-0.0446 1.01463,-0.14759 0.27742,-0.0587 1.11625,-0.20146 0.0637,-0.28608 0.28979,-1.13579 -0.22613,-0.17114 -0.88325,-0.71168 -0.20949,-0.14761 -0.81984,-0.615716 -0.19329,-0.126768 -0.75741,-0.53044 -0.17739,-0.108351 -0.69633,-0.45452 -0.13669,-0.0777 -0.53719,-0.326684 0.042,-0.167989 0.18668,-0.666726 0.0205,-0.173892 0.1028,-0.692688 0.15531,-0.0245 0.62419,-0.07927 0.20419,-0.03894 0.82119,-0.130952 0.22558,-0.05074 0.90785,-0.175273 0.24805,-0.06451 0.9997,-0.227623 0.27184,-0.08078 1.09679,-0.289448 0.0409,-0.290197 0.19872,-1.155131 -0.23897,-0.152611 -0.93695,-0.639391 -0.22063,-0.130415 -0.86615,-0.548656 -0.20279,-0.110941 -0.79721,-0.468575 -0.18548,-0.09377 -0.7301,-0.397954 -0.1672,-0.0777 -0.65838,-0.331883 0.0388,-0.329292 0.19472,-1.311976 0.17351,-0.04187 0.69868,-0.145882 0.20049,-0.055 0.80809,-0.195777 0.22075,-0.06847 0.89112,-0.246852 0.24223,-0.08402 0.9784,-0.306364 0.2646,-0.102054 1.07023,-0.375644 0.0176,-0.292599 0.10631,-1.167315 -0.25032,-0.133224 -0.98475,-0.562831 -0.23029,-0.112586 -0.907,-0.477989 -0.21105,-0.09447 -0.8319,-0.403707 -0.1924,-0.07878 -0.75963,-0.338055 -0.15987,-0.05927 -0.63133,-0.257668 -0.003,-0.335406 0.029,-1.341494 0.17202,-0.05614 0.69437,-0.20373 0.19541,-0.07076 0.79008,-0.259392 0.21466,-0.08579 0.86864,-0.316832 0.23475,-0.103044 0.95097,-0.383186 0.2556,-0.122689 1.03708,-0.459523 -0.006,-0.293034 0.0132,-1.172091 -0.26055,-0.111923 -1.02639,-0.482844 -0.23839,-0.0943 -0.94193,-0.404847 -0.21783,-0.07735 -0.86137,-0.336371 -0.1979,-0.06362 -0.78385,-0.277605 -0.16221,-0.04613 -0.64294,-0.204508 -0.003,-0.346472 0.03,-1.385386 0.13868,-0.05785 0.56155,-0.214524 0.18919,-0.08614 0.76691,-0.321347 0.20722,-0.102521 0.84075,-0.384911 0.22579,-0.12124 0.91752,-0.457592 0.24511,-0.142632 0.9972,-0.540398 -0.0288,-0.291658 -0.08,-1.16943 -0.26812,-0.09222 -1.06156,-0.399783 -0.24521,-0.07459 -0.97125,-0.328513 -0.22332,-0.05979 -0.88532,-0.266836 -0.20254,-0.04689 -0.80351,-0.213945 -0.18106,-0.03641 -0.71953,-0.167171 -0.0442,-0.326939 -0.13693,-1.312153 0.16301,-0.08384 0.66182,-0.315217 0.18178,-0.10088 0.73903,-0.381182 0.19832,-0.118766 0.80757,-0.450403 0.21538,-0.13888 0.87832,-0.528983 0.23323,-0.161299 0.95116,-0.61804 -0.052,-0.288365 -0.17255,-1.159377 -0.27482,-0.07028 -1.0899,-0.314141 -0.25045,-0.05452 -0.99429,-0.250151 -0.2273,-0.04179 -0.90382,-0.195714 -0.2055,-0.03106 -0.81793,-0.14946 -0.15802,-0.01893 -0.62959,-0.09437 -0.0879,-0.330022 -0.31088,-1.330112 0.14827,-0.09177 0.60396,-0.349011 0.17296,-0.115259 0.70637,-0.438769 0.18843,-0.133824 0.76923,-0.513119 0.20356,-0.155881 0.83359,-0.596835 0.2194,-0.179712 0.89903,-0.691659 -0.0746,-0.283325 -0.26415,-1.141996 -0.27957,-0.04804 -1.11134,-0.226919 -0.25391,-0.03499 -1.01106,-0.17049 -0.22994,-0.02387 -0.91643,-0.123291 -0.20734,-0.01465 -0.82721,-0.084 -0.177,-0.0069 -0.70679,-0.04904 -0.0872,-0.327661 -0.30871,-1.320472 0.13202,-0.09677 0.53902,-0.371526 0.16359,-0.12824 0.66902,-0.493811 0.1771,-0.148613 0.72601,-0.572688 0.19071,-0.17128 0.78344,-0.661374 0.20443,-0.19651 0.84128,-0.760881 -0.097,-0.276542 -0.35409,-1.117365 -0.28243,-0.02574 -1.12588,-0.137631 -0.2559,-0.01461 -1.0214,-0.08954 -0.23104,-0.0056 -0.92336,-0.05007 -0.20786,0.0018 -0.8313,-0.01803 -0.18178,0.0075 -0.72739,0.0074 -0.12431,-0.305939 -0.45955,-1.238372 0.13977,-0.121015 0.57375,-0.466863 0.15276,-0.140993 0.62799,-0.545094 0.16474,-0.162176 0.67821,-0.628553 0.17648,-0.185799 0.72841,-0.72157 0.18819,-0.212145 0.77815,-0.825296 -0.11864,-0.267941 -0.36432,-0.895522 -37.87287,27.396146 0.13063,0.404785 -0.47627,0.344503 -0.34355,-0.250746 z m 14.86832,7.757804 34.69119,-25.094636 1.46552,3.310218 2.5824,12.274755 -0.0261,12.543347 -2.63342,12.263874 -5.12567,11.44834 -5.82875,7.98758 z"
       style="display:inline;fill:#d3d3d3;stroke:#000000;stroke-width:0.49999997"
       inkscape:connector-curvature="0" />
  </g>
</svg>
