<?xml version="1.0" encoding="UTF-8" standalone="no"?>
<!-- Created with Inkscape (http://www.inkscape.org/) -->

<svg
   xmlns:dc="http://purl.org/dc/elements/1.1/"
   xmlns:cc="http://creativecommons.org/ns#"
   xmlns:rdf="http://www.w3.org/1999/02/22-rdf-syntax-ns#"
   xmlns:svg="http://www.w3.org/2000/svg"
   xmlns="http://www.w3.org/2000/svg"
   xmlns:sodipodi="http://sodipodi.sourceforge.net/DTD/sodipodi-0.dtd"
   xmlns:inkscape="http://www.inkscape.org/namespaces/inkscape"
   width="297mm"
   height="210mm"
   viewBox="0 0 297 210"
   version="1.1"
   id="svg8"
   inkscape:version="0.92.5 (2060ec1f9f, 2020-04-08)"
   sodipodi:docname="sideview-v2.svg">
  <defs
     id="defs2">
    <marker
       style="overflow:visible"
       refY="0.0"
       refX="0.0"
       orient="auto"
       id="DistanceX">
      <path
         id="path861"
         style="stroke:#000000; stroke-width:0.5"
         d="M 3,-3 L -3,3 M 0,-5 L  0,5" />
    </marker>
    <pattern
       y="0"
       x="0"
       width="8"
       patternUnits="userSpaceOnUse"
       id="Hatch"
       height="8">
      <path
         id="path864"
         stroke-width="0.25"
         stroke="#000000"
         linecap="square"
         d="M8 4 l-4,4" />
      <path
         id="path866"
         stroke-width="0.25"
         stroke="#000000"
         linecap="square"
         d="M6 2 l-4,4" />
      <path
         id="path868"
         stroke-width="0.25"
         stroke="#000000"
         linecap="square"
         d="M4 0 l-4,4" />
    </pattern>
    <marker
       style="overflow:visible"
       refY="0.0"
       refX="0.0"
       orient="auto"
       id="DistanceX-7">
      <path
         id="path4260"
         style="stroke:#000000; stroke-width:0.5"
         d="M 3,-3 L -3,3 M 0,-5 L  0,5" />
    </marker>
    <pattern
       y="0"
       x="0"
       width="8"
       patternUnits="userSpaceOnUse"
       id="Hatch-5"
       height="8">
      <path
         id="path4263"
         stroke-width="0.25"
         stroke="#000000"
         linecap="square"
         d="M8 4 l-4,4" />
      <path
         id="path4265"
         stroke-width="0.25"
         stroke="#000000"
         linecap="square"
         d="M6 2 l-4,4" />
      <path
         id="path4267"
         stroke-width="0.25"
         stroke="#000000"
         linecap="square"
         d="M4 0 l-4,4" />
    </pattern>
  </defs>
  <sodipodi:namedview
     id="base"
     pagecolor="#ffffff"
     bordercolor="#666666"
     borderopacity="1.0"
     inkscape:pageopacity="0.0"
     inkscape:pageshadow="2"
     inkscape:zoom="0.98994949"
     inkscape:cx="515.5808"
     inkscape:cy="437.56279"
     inkscape:document-units="mm"
     inkscape:current-layer="layer4"
     showgrid="false"
     inkscape:window-width="1280"
     inkscape:window-height="879"
     inkscape:window-x="0"
     inkscape:window-y="0"
     inkscape:window-maximized="1"
     inkscape:snap-global="false" />
  <metadata
     id="metadata5">
    <rdf:RDF>
      <cc:Work
         rdf:about="">
        <dc:format>image/svg+xml</dc:format>
        <dc:type
           rdf:resource="http://purl.org/dc/dcmitype/StillImage" />
        <dc:title />
      </cc:Work>
    </rdf:RDF>
  </metadata>
  <g
     inkscape:label="outline"
     inkscape:groupmode="layer"
     id="layer1"
     transform="translate(0,-87)"
     style="display:inline"
     sodipodi:insensitive="true">
    <path
       style="opacity:0.95999995;fill:none;stroke:#000000;stroke-width:0.60000002;stroke-linecap:round;stroke-miterlimit:4;stroke-dasharray:none"
       d="m 59.309521,180.84227 46.369049,0.11905 143.63095,84.88095 H 70.31279 l -11.003269,-23.8998 0.312488,-25.56566 -0.534539,-23.93092 z"
       id="rect815"
       inkscape:connector-curvature="0"
       sodipodi:nodetypes="cccccccc" />
    <circle
       style="opacity:0.95999995;fill:none;stroke:#000000;stroke-width:0.60000002;stroke-linecap:round;stroke-miterlimit:4;stroke-dasharray:none"
       id="path837"
       cx="75.89341"
       cy="245.92862"
       r="30" />
    <circle
       style="opacity:0.95999995;fill:none;stroke:#000000;stroke-width:0.60000002;stroke-linecap:butt;stroke-miterlimit:4;stroke-dasharray:1.80000007, 0.60000002;stroke-dashoffset:0"
       id="path850"
       cx="75.546127"
       cy="246.32896"
       r="11" />
    <text
       xml:space="preserve"
       style="font-style:normal;font-weight:normal;font-size:4.23333311px;line-height:1.25;font-family:sans-serif;letter-spacing:0px;word-spacing:0px;fill:#000000;fill-opacity:1;stroke:none;stroke-width:0.26458332"
       x="167.06548"
       y="162.44048"
       id="text2347"><tspan
         sodipodi:role="line"
         id="tspan2345"
         x="167.06548"
         y="162.44048"
         style="stroke-width:0.26458332">NB: internal dimensions</tspan><tspan
         sodipodi:role="line"
         x="167.06548"
         y="167.73215"
         style="stroke-width:0.26458332"
         id="tspan2349">Length: 190</tspan><tspan
         sodipodi:role="line"
         x="167.06548"
         y="173.0238"
         style="stroke-width:0.26458332"
         id="tspan2351">Height: 85</tspan></text>
    <rect
       style="opacity:1;fill:none;stroke:#000000;stroke-width:0.25;stroke-linecap:round;stroke-miterlimit:4;stroke-dasharray:none"
       id="rect2355"
       width="178.78242"
       height="6"
       x="70.31279"
       y="265.84229" />
    <rect
       style="opacity:1;fill:none;stroke:#000000;stroke-width:0.25;stroke-linecap:round;stroke-miterlimit:4;stroke-dasharray:none"
       id="rect2357"
       width="10"
       height="61.100204"
       x="49.309521"
       y="180.84227" />
    <rect
       y="170.95361"
       x="60.805187"
       height="10"
       width="44.87347"
       id="rect2380"
       style="opacity:1;fill:none;stroke:#000000;stroke-width:0.1265306;stroke-linecap:round;stroke-miterlimit:4;stroke-dasharray:none" />
    <g
       id="g2378">
      <path
         inkscape:connector-curvature="0"
         id="path2367"
         d="m 76.162201,168.86607 c 4.220733,0 8.441467,0 12.662204,0 0.818946,0 1.637895,0 2.456844,0 0.07389,0 1.241404,0.0272 1.322917,0 0.08452,-0.0282 0.10447,-0.16081 0.188989,-0.18899 0.1016,-0.0339 0.595945,0 0.755951,0 0.62996,0 1.25992,0 1.889882,0 0.19032,0 1.029414,0.0348 1.133927,0 0.08452,-0.0282 0.109305,-0.14914 0.18899,-0.18899 0.05605,-0.028 0.951132,0 1.133927,0 2.456848,0 4.913688,0 7.370538,0 0.94494,0 1.88988,0 2.83482,0 0.0855,0 1.08356,0.0252 1.13393,0 0.0797,-0.0398 0.1093,-0.14914 0.18899,-0.18898 0.11878,-0.0594 0.63717,0.0594 0.75595,0 0.15937,-0.0797 0.2186,-0.2983 0.37797,-0.37798 0.0841,-0.0421 0.66952,0.0288 0.75596,0 0.0845,-0.0282 0.1093,-0.14915 0.18898,-0.18899 0.0563,-0.0282 0.126,0 0.18899,0 0.126,-0.063 0.26077,-0.11085 0.37798,-0.18899 0.0741,-0.0494 0.1093,-0.14914 0.18899,-0.18898 0.0563,-0.0282 0.12599,0 0.18899,0 0.063,-0.063 0.1093,-0.14915 0.18898,-0.18899 0.0564,-0.0282 0.14445,0.0445 0.18899,0 0.0446,-0.0445 -0.0445,-0.14445 0,-0.18899 0.73757,-0.73757 0.1015,0.0437 0.56697,-0.18899 0.0797,-0.0398 0.11486,-0.13957 0.18898,-0.18899 0.11721,-0.0781 0.27837,-0.0894 0.37798,-0.18898 0.0445,-0.0446 -0.0445,-0.14445 0,-0.18899 0.0445,-0.0445 0.14444,0.0445 0.18899,0 0.0445,-0.0445 -0.0446,-0.14445 0,-0.18899 0.0445,-0.0445 0.14444,0.0445 0.18899,0 0.0445,-0.0445 -0.0282,-0.13264 0,-0.18899 0.0797,-0.15937 0.29829,-0.21861 0.37797,-0.37798 0.0282,-0.0563 -0.0282,-0.13264 0,-0.18898 0.0398,-0.0797 0.13957,-0.11487 0.18899,-0.18899 0.0781,-0.11721 0.12599,-0.25199 0.18899,-0.37798 0.063,-0.12599 0.14444,-0.24434 0.18899,-0.37797 0.0199,-0.0598 -0.0282,-0.13265 0,-0.18899 0.0398,-0.0797 0.13957,-0.11486 0.18898,-0.18899 0.0781,-0.11721 0.11086,-0.26077 0.18899,-0.37798 0.0988,-0.14825 0.29829,-0.2186 0.37798,-0.37797 0.0563,-0.11269 -0.0398,-0.25845 0,-0.37798 0.0445,-0.13363 0.14444,-0.24434 0.18899,-0.37797 0.0398,-0.11953 -0.0306,-0.25575 0,-0.37798 0.0483,-0.19327 0.14067,-0.3737 0.18899,-0.56697 0.0153,-0.0611 -0.0199,-0.12922 0,-0.18898 0.0445,-0.13364 0.15482,-0.24132 0.18898,-0.37798 0.0306,-0.12223 0,-0.25198 0,-0.37798 0,-0.37797 0,-0.75595 0,-1.13392 0,-0.50397 0,-1.00794 0,-1.51191 0,-0.1305 0.0287,-0.69849 0,-0.75595 -0.0398,-0.0797 -0.14914,-0.10931 -0.18898,-0.18899 -0.0563,-0.11269 0.0563,-0.26528 0,-0.37798 -0.0399,-0.0797 -0.14915,-0.1093 -0.18899,-0.18898 -0.0282,-0.0564 0.0282,-0.13265 0,-0.18899 -0.0797,-0.15937 -0.32163,-0.20894 -0.37798,-0.37798 -0.0398,-0.11953 0.0563,-0.26528 0,-0.37797 -0.0282,-0.0564 -0.14444,0.0445 -0.18899,0 -0.0445,-0.0446 0.0446,-0.14445 0,-0.18899 -0.0996,-0.0996 -0.27837,-0.0894 -0.37797,-0.18899 -0.0891,-0.0891 0.0891,-0.28889 0,-0.37798 -0.0446,-0.0445 -0.14445,0.0446 -0.18899,0 -0.0446,-0.0445 0.0282,-0.13264 0,-0.18898 -0.0398,-0.0797 -0.12599,-0.126 -0.18899,-0.18899 -0.063,-0.063 -0.1093,-0.14915 -0.18899,-0.18899 -0.0563,-0.0282 -0.14444,0.0445 -0.18899,0 -0.0445,-0.0445 0.0446,-0.14444 0,-0.18899 -0.0445,-0.0445 -0.14444,0.0445 -0.18898,0 -0.0446,-0.0445 0.0282,-0.13264 0,-0.18899 -0.0181,-0.0362 -0.71978,-0.73786 -0.75596,-0.75595 -0.0563,-0.0282 -0.13264,0.0282 -0.18898,0 -0.0797,-0.0398 -0.10931,-0.14915 -0.18899,-0.18899 -0.0563,-0.0282 -0.13264,0.0282 -0.18899,0 -0.0797,-0.0398 -0.1093,-0.14914 -0.18899,-0.18899 -0.0563,-0.0282 -0.13264,0.0282 -0.18899,0 -0.0797,-0.0398 -0.10447,-0.16081 -0.18898,-0.18898 -0.86033,0 -0.0108,0.0891 -0.56697,-0.18899 -0.11269,-0.0564 -0.26528,0.0563 -0.37798,0 -0.0797,-0.0398 -0.1093,-0.14915 -0.18898,-0.18899 -0.0497,-0.0249 -0.65713,0 -0.75596,0 -0.37797,0 -0.75595,0 -1.13392,0 -0.126,0 -0.25199,0 -0.37798,0 -0.063,0 -0.13264,-0.0282 -0.18899,0 -0.0797,0.0398 -0.12599,0.12599 -0.18899,0.18899"
         style="fill:none;stroke:#000000;stroke-width:0.26458332px;stroke-linecap:butt;stroke-linejoin:miter;stroke-opacity:1" />
      <path
         inkscape:connector-curvature="0"
         id="path2369"
         d="m 143.63095,189.0878 c -0.28287,-0.5129 -0.9166,-0.45122 -1.32292,-0.75596 -0.14254,-0.1069 -0.24109,-0.26391 -0.37797,-0.37797 -0.2743,-0.22859 -0.97223,-0.73453 -1.32292,-0.94494 -0.12079,-0.0725 -0.26077,-0.11085 -0.37798,-0.18899 -0.26208,-0.17472 -0.49387,-0.39224 -0.75595,-0.56696 -0.1172,-0.0781 -0.25718,-0.11652 -0.37797,-0.18899 -0.19477,-0.11686 -0.3722,-0.26112 -0.56697,-0.37798 -0.12079,-0.0725 -0.25719,-0.11651 -0.37797,-0.18899 -0.19477,-0.11686 -0.36381,-0.2764 -0.56697,-0.37797 -0.17818,-0.0891 -0.382,-0.11501 -0.56696,-0.18899 -0.13079,-0.0523 -0.26077,-0.11085 -0.37798,-0.18899 -0.43246,-0.28831 0.11817,-0.1496 -0.56696,-0.37798 -0.0598,-0.0199 -0.13265,0.0282 -0.18899,0 -0.0797,-0.0398 -0.10931,-0.14914 -0.18899,-0.18898 -0.0564,-0.0282 -0.13264,0.0282 -0.18899,0 -0.22678,-0.1134 -0.34018,-0.45358 -0.56696,-0.56697 -0.0564,-0.0282 -0.13265,0.0282 -0.18899,0 -0.22679,-0.11339 -0.34018,-0.45357 -0.56696,-0.56696 -0.0563,-0.0282 -0.13265,0.0282 -0.18899,0 -0.22679,-0.1134 -0.34018,-0.45357 -0.56697,-0.56697 -0.0563,-0.0282 -0.13264,0.0282 -0.18898,0 -0.0797,-0.0398 -0.10931,-0.14914 -0.18899,-0.18898 -0.0564,-0.0282 -0.13264,0.0282 -0.18899,0 -0.0797,-0.0399 -0.14915,-0.10931 -0.18899,-0.18899 -0.0282,-0.0563 0.0564,-0.16082 0,-0.18899 -0.11269,-0.0564 -0.26528,0.0564 -0.37798,0 -0.0563,-0.0282 0.0445,-0.14444 0,-0.18899 -0.0445,-0.0445 -0.14444,0.0445 -0.18898,0 -0.0445,-0.0445 0.0445,-0.14444 0,-0.18899 -0.0445,-0.0445 -0.13265,0.0282 -0.18899,0 -0.18597,-0.093 -0.56998,-0.66297 -0.75595,-0.75595 -0.0563,-0.0282 -0.14445,0.0445 -0.18899,0 -0.0445,-0.0446 0.0282,-0.13264 0,-0.18899 -0.0251,-0.0502 -0.51679,-0.54187 -0.56697,-0.56696 -0.0563,-0.0282 -0.14444,0.0445 -0.18898,0 -0.39103,-0.39102 0.59753,0.0153 -0.18899,-0.37798 -0.0564,-0.0282 -0.14445,0.0446 -0.18899,0 -0.0445,-0.0445 0.0563,-0.16081 0,-0.18899 -0.11269,-0.0563 -0.26529,0.0564 -0.37798,0 -0.0563,-0.0282 0.0445,-0.14444 0,-0.18898 -0.0996,-0.0996 -0.26077,-0.11086 -0.37797,-0.18899 -0.17204,-0.11469 -0.39946,-0.48321 -0.56697,-0.56697 -0.0563,-0.0282 -0.14444,0.0446 -0.18898,0 -0.0446,-0.0445 0.0445,-0.14444 0,-0.18898 -0.0446,-0.0446 -0.12923,0.0199 -0.18899,0 -0.13364,-0.0446 -0.26077,-0.11086 -0.37798,-0.18899 -0.14825,-0.0988 -0.21861,-0.2983 -0.37798,-0.37798 -0.0563,-0.0282 -0.13264,0.0282 -0.18898,0 -0.0797,-0.0398 -0.10931,-0.14915 -0.18899,-0.18899 -0.0563,-0.0282 -0.13265,0.0282 -0.18899,0 -0.78652,-0.39326 0.20204,0.0131 -0.18899,-0.37797 -0.0891,-0.0891 -0.28889,0.0891 -0.37797,0 -0.0446,-0.0445 0.0445,-0.14445 0,-0.18899 -0.0891,-0.0891 -0.28889,0.0891 -0.37798,0 -0.0445,-0.0445 0.0445,-0.14445 0,-0.18899 -0.0445,-0.0446 -0.13264,0.0282 -0.18899,0 -0.15937,-0.0797 -0.2186,-0.29829 -0.37797,-0.37798 -0.0563,-0.0282 -0.14445,0.0445 -0.18899,0 -0.0446,-0.0445 0.0563,-0.16081 0,-0.18898 -0.11269,-0.0564 -0.25845,0.0398 -0.37798,0 -0.16903,-0.0564 -0.21861,-0.2983 -0.37797,-0.37798 -0.46547,-0.23273 0.1706,0.54858 -0.56697,-0.18899 -0.0446,-0.0445 0.0563,-0.16081 0,-0.18899 -0.11269,-0.0563 -0.26528,0.0564 -0.37798,0 -0.0563,-0.0282 0,-0.12599 0,-0.18898 -0.12599,0 -0.25845,0.0398 -0.37797,0 -0.16904,-0.0564 -0.20894,-0.32164 -0.37798,-0.37798 -0.11953,-0.0398 -0.26528,0.0563 -0.37797,0 -0.22679,-0.11339 -0.34018,-0.45357 -0.56697,-0.56696 -0.17818,-0.0891 -0.38878,-0.0999 -0.56696,-0.18899 -0.0797,-0.0398 -0.11486,-0.13957 -0.18899,-0.18899 -0.1172,-0.0781 -0.26077,-0.11085 -0.37798,-0.18899 -0.0741,-0.0494 -0.11486,-0.13957 -0.18898,-0.18899 -0.11721,-0.0781 -0.26078,-0.11085 -0.37798,-0.18899 -0.21806,-0.14537 -0.3489,-0.42159 -0.56697,-0.56696 -0.0524,-0.0349 -0.13264,0.0282 -0.18898,0 -0.0797,-0.0398 -0.11486,-0.13957 -0.18899,-0.18899 -0.11721,-0.0781 -0.25199,-0.12599 -0.37798,-0.18899 -0.12599,-0.12599 -0.23543,-0.27106 -0.37797,-0.37797 -0.22539,-0.16904 -0.55674,-0.17877 -0.75596,-0.37798 -0.0445,-0.0445 0.0446,-0.14444 0,-0.18899 -0.73757,-0.73757 -0.10149,0.0438 -0.56696,-0.18898 -0.0797,-0.0399 -0.1093,-0.14915 -0.18899,-0.18899 -0.0563,-0.0282 -0.13264,0.0282 -0.18899,0 -0.15936,-0.0797 -0.2186,-0.29829 -0.37797,-0.37798 -0.11269,-0.0563 -0.28889,0.0891 -0.37798,0 -0.0996,-0.0996 -0.0894,-0.27837 -0.18899,-0.37797 -0.0891,-0.0891 -0.26528,0.0563 -0.37797,0 -0.0797,-0.0399 -0.11486,-0.13957 -0.18899,-0.18899 -0.11721,-0.0781 -0.27837,-0.0894 -0.37798,-0.18899 -0.0445,-0.0445 0.0445,-0.14444 0,-0.18899 -0.0891,-0.0891 -0.26528,0.0563 -0.37797,0 -0.0797,-0.0398 -0.10931,-0.14915 -0.18899,-0.18899 -0.0563,-0.0282 -0.13265,0.0282 -0.18899,0 -0.15937,-0.0797 -0.21861,-0.29829 -0.37798,-0.37797 -0.11269,-0.0563 -0.28888,0.0891 -0.37797,0 -0.25199,-0.25199 0.4009,-0.18135 -0.18899,-0.37798 -0.11953,-0.0398 -0.25845,0.0398 -0.37798,0 -0.0845,-0.0282 -0.1093,-0.14915 -0.18898,-0.18899 -0.0563,-0.0282 -0.13265,0.0282 -0.18899,0 -0.86493,-0.43246 0.80195,0.0783 -0.56697,-0.37797 -0.0598,-0.0199 -0.13264,0.0282 -0.18899,0 -0.15936,-0.0797 -0.2186,-0.2983 -0.37797,-0.37798 -0.0563,-0.0282 -0.13264,0.0282 -0.18899,0 -0.0797,-0.0398 -0.1093,-0.14915 -0.18899,-0.18899 -0.0563,-0.0282 -0.13264,0.0282 -0.18899,0 -0.0797,-0.0398 -0.12599,-0.12599 -0.18898,-0.18899 -0.21623,-0.21623 -0.22372,-0.26356 -0.56697,-0.37797 -0.0598,-0.0199 -0.13264,0.0282 -0.18899,0 -0.15936,-0.0797 -0.20894,-0.32163 -0.37797,-0.37798 -0.11953,-0.0398 -0.26529,0.0563 -0.37798,0 -0.0563,-0.0282 0.0446,-0.14444 0,-0.18899 -0.0445,-0.0445 -0.13264,0.0282 -0.18899,0 -0.0797,-0.0398 -0.11486,-0.13957 -0.18898,-0.18898 -0.11721,-0.0781 -0.27838,-0.0894 -0.37798,-0.18899 -0.0446,-0.0445 0.0445,-0.14445 0,-0.18899 -0.0446,-0.0445 -0.13264,0.0282 -0.18899,0 -0.0797,-0.0398 -0.11486,-0.13957 -0.18899,-0.18899 -0.1172,-0.0781 -0.27837,-0.0894 -0.37797,-0.18899 -0.0446,-0.0445 0.0563,-0.16081 0,-0.18899 -0.11269,-0.0563 -0.26529,0.0564 -0.37798,0 -0.0563,-0.0282 0.0445,-0.14444 0,-0.18898 -0.0445,-0.0445 -0.13264,0.0282 -0.18899,0 -0.22678,-0.1134 -0.34018,-0.45357 -0.56696,-0.56697 -0.0563,-0.0282 -0.13265,0.0282 -0.18899,0 -0.15937,-0.0797 -0.22972,-0.27914 -0.37798,-0.37797 -0.1172,-0.0781 -0.26528,-0.10447 -0.37797,-0.18899 -0.14254,-0.10691 -0.22972,-0.27914 -0.37798,-0.37798 -0.0524,-0.0349 -0.14444,0.0446 -0.18899,0 -0.0996,-0.0996 -0.0894,-0.27837 -0.18898,-0.37797 -0.0446,-0.0446 -0.13265,0.0282 -0.18899,0 -0.0797,-0.0399 -0.126,-0.126 -0.18899,-0.18899 -0.063,-0.063 -0.12599,-0.12599 -0.18899,-0.18899 -0.0995,-0.0995 -0.5165,-0.46603 -0.56696,-0.56696 -0.0564,-0.1127 0.0563,-0.26529 0,-0.37798 -0.0399,-0.0797 -0.14915,-0.1093 -0.18899,-0.18899 -0.0563,-0.11269 0.0891,-0.28888 0,-0.37798 -0.0446,-0.0445 -0.16082,0.0564 -0.18899,0 -0.0756,-0.15119 0.0756,-0.41577 0,-0.56696 -0.0398,-0.0797 -0.16081,-0.10447 -0.18899,-0.18899 -0.0669,-0.20082 0.0669,-0.55513 0,-0.75595 -0.0445,-0.13363 -0.14444,-0.24434 -0.18899,-0.37798 -0.0398,-0.11952 0.0399,-0.25844 0,-0.37797 -0.0445,-0.13364 -0.14444,-0.24434 -0.18898,-0.37798 -0.0416,-0.12492 0,-1.12016 0,-1.32292 0,-0.063 0.0199,-0.12922 0,-0.18898 -0.0446,-0.13364 -0.15483,-0.24132 -0.18899,-0.37798 -0.0611,-0.24446 0.11269,-0.53057 0,-0.75595 -0.0282,-0.0564 -0.14445,0.0445 -0.18899,0 -0.0445,-0.0445 0,-0.12599 0,-0.18899 0,-0.063 0,-0.12599 0,-0.18899 0,-0.37797 0,-0.75595 0,-1.13393 0,-0.0851 -0.0288,-0.50945 0,-0.56696 0.0398,-0.0797 0.14915,-0.1093 0.18899,-0.18899 0.0563,-0.11269 -0.0563,-0.26528 0,-0.37798 0.0398,-0.0797 0.12599,-0.12599 0.18899,-0.18898 0.063,-0.063 0.12599,-0.126 0.18898,-0.18899 0.11116,-0.11115 0.66844,-0.7122 0.75596,-0.75595 0.0563,-0.0282 0.13264,0.0282 0.18898,0 0.0797,-0.0399 0.10931,-0.14915 0.18899,-0.18899 0.0564,-0.0282 0.12923,0.0199 0.18899,0 0.13364,-0.0445 0.24434,-0.14445 0.37798,-0.18899 0.0598,-0.0199 0.13264,0.0282 0.18899,0 0.0797,-0.0398 0.1093,-0.14915 0.18898,-0.18899 0.15119,-0.0756 0.41578,0.0756 0.56697,0 0.0797,-0.0398 0.1093,-0.14914 0.18899,-0.18899 0.0497,-0.0248 0.65712,0 0.75595,0 0.69295,0 1.38591,0 2.07887,0 0.56696,0 1.13393,0 1.70089,0 0.16377,0 0.64648,-0.0365 0.75595,0 0.13364,0.0446 0.24434,0.14445 0.37798,0.18899 0.0598,0.0199 0.13264,-0.0282 0.18899,0 0.0797,0.0398 0.1093,0.14915 0.18898,0.18899 0.0563,0.0282 0.13265,-0.0282 0.18899,0 0.0797,0.0398 0.10931,0.14915 0.18899,0.18899 0.0563,0.0282 0.14444,-0.0445 0.18899,0 0.31498,0.31498 -0.69297,0.18898 0.37798,0.18899"
         style="fill:none;stroke:#000000;stroke-width:0.26458332px;stroke-linecap:butt;stroke-linejoin:miter;stroke-opacity:1" />
      <path
         inkscape:connector-curvature="0"
         id="path2371"
         d="m 83.15476,165.08631 c 0.063,0.37797 0.146671,0.75308 0.188989,1.13393 0.04174,0.37566 0,0.75595 0,1.13393 0,0.50396 0,1.00793 0,1.5119 0,1.70089 0,3.40179 0,5.10268"
         style="fill:none;stroke:#000000;stroke-width:0.26458332px;stroke-linecap:butt;stroke-linejoin:miter;stroke-opacity:1" />
    </g>
    <path
       style="fill:none;stroke:#000000;stroke-width:0.26458332px;stroke-linecap:butt;stroke-linejoin:miter;stroke-opacity:1"
       d="m 140.79613,183.98512 c -0.91532,0.45766 -0.55674,0.17876 -1.13393,0.75595 -0.063,0.063 -0.13957,0.11486 -0.18899,0.18899 -0.0781,0.1172 -0.10447,0.26528 -0.18899,0.37797 -0.1069,0.14255 -0.27106,0.23544 -0.37797,0.37798 -0.16904,0.22538 -0.17877,0.55674 -0.37798,0.75595 -0.16061,0.16061 -0.40635,0.21737 -0.56696,0.37798 -0.0996,0.0996 -0.0894,0.27837 -0.18899,0.37798 -0.16061,0.1606 -0.40636,0.21736 -0.56696,0.37797 -0.0446,0.0446 0.0445,0.14445 0,0.18899 -0.0446,0.0445 -0.14445,-0.0445 -0.18899,0 -0.0445,0.0445 0.0445,0.14444 0,0.18899 -0.0445,0.0445 -0.14444,-0.0445 -0.18899,0 -0.0446,0.0445 0.0445,0.14444 0,0.18899 -0.39103,0.39102 0.0153,-0.59754 -0.37798,0.18898 -0.0282,0.0564 0.0446,0.14445 0,0.18899 -0.0445,0.0446 -0.14444,-0.0445 -0.18899,0 -0.0445,0.0446 0.0445,0.14444 0,0.18899 -0.0445,0.0445 -0.14444,-0.0446 -0.18898,0 -0.0445,0.0445 0.0199,0.12922 0,0.18899 -0.0445,0.13363 -0.0894,0.27837 -0.18899,0.37797 -0.0446,0.0445 -0.14444,-0.0445 -0.18899,0 -0.0891,0.0891 0.0563,0.26529 0,0.37798 -0.0797,0.15937 -0.29829,0.21861 -0.37798,0.37798 -0.13034,0.26068 0.22888,0.16904 -0.18898,0.37797 -0.50397,0 0.063,-0.063 -0.18899,0.18899 -0.25199,0.25198 -0.18899,-0.31498 -0.18899,0.18899"
       id="path2373"
       inkscape:connector-curvature="0" />
    <text
       xml:space="preserve"
       style="font-style:normal;font-weight:normal;font-size:4.23333311px;line-height:1.25;font-family:sans-serif;letter-spacing:0px;word-spacing:0px;fill:#000000;fill-opacity:1;stroke:none;stroke-width:0.26458332"
       x="59.066551"
       y="149.73448"
       id="text3108"><tspan
         sodipodi:role="line"
         id="tspan3106"
         x="59.066551"
         y="149.73448"
         style="stroke-width:0.26458332">Really good drawing of a hinge</tspan></text>
    <path
       style="opacity:1;fill:#e6e6e6;stroke:#000000;stroke-width:0.2;stroke-linecap:round;stroke-miterlimit:4;stroke-dasharray:none;stroke-dashoffset:0"
       id="path884"
       d="m 62.179334,219.7881 c 0.08809,0.7569 0.364831,1.4772 0.650023,2.17861 0.287989,0.70443 0.604851,1.39204 0.788575,2.13272 0.16624,0.58467 0.336873,1.16831 0.517469,1.74882 0.168762,0.58444 0.381545,1.15491 0.527953,1.74563 0.178255,0.54193 0.273793,1.10273 0.428847,1.65059 0.211838,0.56774 0.393065,1.14708 0.55994,1.72973 0.124286,0.56377 0.326134,1.11412 0.580697,1.63192 0.232161,0.45648 0.406419,0.9377 0.588322,1.41528 0.193588,0.46789 0.4279,0.90491 0.554342,1.39884 0.19359,0.4339 0.25177,0.90067 0.354449,1.35844 0.178091,0.56725 0.330959,1.13942 0.465574,1.71898 0.209973,0.78333 0.487521,1.54411 0.747292,2.31147 0.224187,0.65749 0.411726,1.32442 0.602308,1.99181 0.191696,0.63326 0.423778,1.25368 0.669576,1.86789 0.266832,0.71867 0.651153,1.3845 0.953217,2.08751 0.195707,0.52301 0.483253,0.99936 0.745537,1.48968 0.265526,0.53583 0.653844,0.97265 1.093171,1.36955 0.463699,0.32947 0.873284,0.72182 1.359123,1.0207 0.409609,0.31591 0.806664,0.64524 1.209833,0.9695 0.440939,0.24526 0.797478,0.60271 1.185101,0.91819 0.322024,0.31322 0.660688,0.60669 0.960416,0.94249 0.324522,0.32694 0.685504,0.6079 1.019376,0.9284 0.420333,0.31689 0.796512,0.6775 1.150279,1.06621 0.391742,0.32709 0.728662,0.70956 1.097476,1.06041 0.484126,0.41684 0.903253,0.90152 1.417108,1.2831 0.402193,0.32415 0.814038,0.63232 1.174208,1.00453 0.326855,0.31172 0.714666,0.54485 1.049258,0.84652 0.386881,0.27991 0.809672,0.50915 1.19729,0.78725 0.393207,0.27621 0.820621,0.48756 1.248772,0.70245 0.42554,0.31022 0.859364,0.54674 1.372814,0.66915 0.517205,0.18452 1.054947,0.28744 1.583508,0.43271 0.480142,0.18411 0.910926,0.45598 1.347975,0.72016 0.280482,0.21089 0.55671,0.41192 0.870929,0.56949 0,0 -3.283736,2.14396 -3.283736,2.14396 v 0 c -0.307353,-0.17995 -0.594415,-0.38711 -0.892712,-0.58125 -0.40159,-0.25449 -0.819856,-0.48552 -1.27363,-0.63427 -0.530227,-0.14475 -1.070464,-0.2512 -1.589905,-0.43481 -0.514617,-0.17241 -0.964716,-0.44775 -1.426287,-0.72845 -0.431966,-0.23513 -0.873471,-0.45285 -1.271047,-0.74575 -0.410223,-0.27235 -0.836438,-0.52085 -1.228887,-0.81996 -0.35052,-0.29557 -0.736899,-0.54817 -1.06095,-0.8746 -0.352438,-0.3533 -0.749038,-0.65056 -1.128675,-0.97301 -0.50128,-0.41335 -0.932275,-0.90002 -1.437452,-1.30928 -0.382448,-0.34914 -0.73238,-0.7325 -1.116889,-1.08002 -0.357219,-0.37046 -0.731448,-0.72177 -1.133903,-1.04328 -0.353267,-0.31458 -0.734896,-0.59617 -1.052404,-0.94832 -0.294323,-0.31787 -0.620498,-0.5994 -0.931426,-0.90018 -0.372629,-0.32841 -0.74839,-0.6496 -1.172678,-0.91128 -0.396172,-0.31147 -0.769549,-0.65146 -1.1811,-0.94333 -0.484892,-0.33087 -0.924074,-0.71655 -1.382197,-1.08254 -0.464725,-0.43095 -0.878671,-0.91115 -1.178801,-1.47356 -0.26662,-0.50341 -0.549552,-0.99691 -0.743447,-1.53537 -0.280117,-0.71436 -0.655619,-1.38648 -0.941041,-2.09901 -0.248576,-0.62471 -0.532212,-1.23931 -0.71083,-1.88901 -0.193256,-0.66249 -0.338616,-1.33912 -0.56407,-1.99309 -0.260882,-0.77576 -0.528103,-1.5492 -0.780822,-2.32774 -0.156274,-0.57344 -0.291293,-1.1505 -0.491924,-1.71034 -0.114475,-0.45372 -0.165812,-0.92269 -0.359389,-1.35527 -0.107143,-0.48113 -0.337032,-0.90121 -0.520414,-1.35503 -0.188992,-0.46514 -0.354783,-0.93933 -0.575385,-1.39152 -0.251317,-0.5434 -0.478565,-1.1121 -0.600223,-1.69911 -0.155945,-0.58487 -0.352615,-1.15898 -0.569933,-1.72364 -0.151712,-0.55436 -0.253162,-1.11958 -0.435364,-1.66573 -0.128223,-0.58645 -0.341781,-1.14682 -0.500431,-1.7251 -0.192595,-0.58791 -0.370414,-1.18067 -0.539834,-1.77555 -0.147524,-0.73151 -0.438462,-1.41025 -0.709681,-2.10279 -0.293566,-0.718 -0.602941,-1.43581 -0.774192,-2.19517 0,0 3.488901,-1.86533 3.488901,-1.86533 z"
       inkscape:connector-curvature="0" />
  </g>
  <g
     inkscape:groupmode="layer"
     id="layer2"
     inkscape:label="virtual"
     style="display:inline"
     sodipodi:insensitive="true">
    <circle
       style="opacity:0.95999995;fill:none;stroke:#000000;stroke-width:0.60000002;stroke-linecap:butt;stroke-miterlimit:4;stroke-dasharray:1.80000009, 0.60000003;stroke-dashoffset:0"
       id="path845"
       cx="110.86279"
       cy="81.293549"
       r="160" />
  </g>
  <g
     inkscape:groupmode="layer"
     id="layer4"
     inkscape:label="gears"
     style="display:inline">
    <circle
       style="opacity:1;fill:#e6e6e6;stroke:#000000;stroke-width:0.2;stroke-linecap:round;stroke-miterlimit:4;stroke-dasharray:none;stroke-dashoffset:0"
       id="path886"
       cx="155.75131"
       cy="152.7375"
       r="2" />
    <path
       id="path1250"
       d="m 113.71021,98.872005 -52.763487,29.532975 -0.02519,0.0669 -0.113229,0.278 -0.213395,0.63278 -0.114938,0.31355 -0.211098,0.71084 -0.114836,0.35246 0.705154,0.63689 0.34411,0.32749 0.685628,-0.28222 0.3465,-0.13203 0.607858,-0.27649 0.307489,-0.13023 0.537263,-0.26778 0.272117,-0.12678 0.473128,-0.2566 0.239839,-0.12204 0.414657,-0.24324 0.210455,-0.11618 0.361185,-0.22828 0.183587,-0.10936 0.311699,-0.21142 0.158568,-0.10163 0.912594,0.7719 0.446074,0.39785 -0.128325,0.32115 -0.06833,0.15879 -0.145586,0.40177 -0.078,0.19888 -0.148754,0.45713 -0.08039,0.22657 -0.149076,0.51711 -0.08138,0.25657 -0.146361,0.58216 -0.08086,0.28912 -0.139768,0.65299 -0.07844,0.32455 -0.12876,0.7303 -0.07393,0.36331 0.773201,0.5523 0.379159,0.28621 0.649036,-0.35857 0.329112,-0.17069 0.572497,-0.34397 0.290629,-0.16449 0.503287,-0.32722 0.255824,-0.15705 0.440857,-0.30875 0.224351,-0.14854 0.38416,-0.28897 0.195879,-0.13943 0.332799,-0.26799 0.169864,-0.12955 0.286127,-0.24606 0.146284,-0.11926 0.0015,-10e-4 7.17e-4,-6.3e-4 0.997178,0.64838 0.490039,0.33708 -0.09528,0.34991 -0.05224,0.17359 -0.09881,0.41565 -0.05487,0.20651 -0.09567,0.47118 -0.054,0.23423 -0.08928,0.53083 -0.05154,0.2641 -0.0791,0.59507 -0.04727,0.29643 -0.06449,0.66476 -0.04096,0.33138 -0.04464,0.7401 -0.03204,0.36939 0.831108,0.4605 0.40927,0.24129 0.603935,-0.43023 0.307483,-0.20706 0.529498,-0.40704 0.269976,-0.19645 0.462718,-0.38244 0.23628,-0.1852 0.402787,-0.35702 0.205933,-0.17313 0.348723,-0.3309 0.178704,-0.16082 0.300115,-0.3042 0.154006,-0.14805 0.255191,-0.27602 0.131171,-0.13454 1.068468,0.51718 0.527255,0.27255 -0.05634,0.36921 -0.03303,0.18376 -0.05081,0.42431 -0.03096,0.2114 -0.04132,0.47895 -0.02699,0.2389 -0.02812,0.53744 -0.02113,0.26832 -0.01066,0.60019 -0.01324,0.29991 0.01181,0.66768 -0.0029,0.3339 0.03998,0.74044 0.01022,0.37063 0.878155,0.36281 0.434197,0.19283 0.550958,-0.49621 0.281899,-0.2408 0.479609,-0.46467 0.245829,-0.22607 0.416033,-0.43269 0.213642,-0.21089 0.359417,-0.40064 0.184933,-0.19553 0.308749,-0.36853 0.159086,-0.18006 0.263481,-0.33649 0.136068,-0.16467 0.216706,-0.296 0.112167,-0.14504 1.126066,0.37958 0.55785,0.20452 -1.9e-5,0.001 -6.4e-5,6.6e-4 -0.01414,0.37715 -0.01197,0.18826 -0.0022,0.42734 -0.0066,0.21355 0.01348,0.48053 4.89e-4,0.24036 0.03327,0.53722 0.0095,0.26894 0.05791,0.59752 0.02098,0.29941 0.0878,0.66205 0.03531,0.33202 0.124166,0.73107 0.05248,0.36697 0.913796,0.26034 0.453308,0.14216 0.490825,-0.55586 0.252603,-0.27126 0.423544,-0.51643 0.218478,-0.25248 0.364002,-0.47739 0.188195,-0.23385 0.311445,-0.43896 0.161451,-0.21532 0.264776,-0.40122 0.137615,-0.19716 0.223665,-0.36402 0.116072,-0.17936 0.173978,-0.30597 0.09083,-0.15063 1.169403,0.23639 0.58141,0.13348 3.1e-5,7.1e-4 6e-6,3.6e-4 0.02869,0.37629 0.0098,0.18837 0.04662,0.42481 0.01733,0.21297 0.06822,0.47586 0.02796,0.23873 0.09434,0.52989 0.04016,0.26611 0.125507,0.58709 0.05502,0.29507 0.162736,0.64766 0.07279,0.3259 0.206688,0.71212 0.09395,0.35863 0.93747,0.15455 0.466605,0.0894 0.424222,-0.60809 0.220018,-0.29845 0.361902,-0.56128 0.188302,-0.27567 0.307275,-0.51581 0.160231,-0.25375 0.259411,-0.47157 0.135752,-0.23236 0.217351,-0.42888 0.114266,-0.21151 0.180401,-0.38733 0.09533,-0.19125 0.130012,-0.30444 0.06892,-0.15047 1.197998,0.0885 0.59773,0.06 0.0706,0.36508 0.0305,0.18331 0.0947,0.41676 0.0419,0.20953 0.1221,0.46494 0.0548,0.23413 0.15403,0.51564 0.0703,0.25982 0.1916,0.56884 0.0884,0.28696 0.23542,0.62484 0.10953,0.31553 0.28652,0.68387 0.13425,0.34558 0.94897,0.0466 0.47378,0.0358 0.3521,-0.65252 0.18454,-0.32156 0.29562,-0.59886 0.15562,-0.29547 0.24646,-0.54737 0.13032,-0.27037 0.20388,-0.49812 0.10843,-0.24629 0.16708,-0.45078 0.0894,-0.2232 0.13519,-0.4054 0.0728,-0.20084 0.0869,-0.29159 0.0471,-0.14474 1.21161,-0.0628 0.60642,-0.0156 0.10818,0.34322 0.0496,0.173 0.14161,0.40316 0.0655,0.20342 0.17424,0.44806 0.0812,0.22627 0.21192,0.49482 0.0995,0.25002 0.25518,0.54337 0.12053,0.27496 0.30509,0.59403 0.14477,0.30088 0.36259,0.64678 0.17268,0.32808 0.94819,-0.0619 0.47476,-0.0184 0.27544,-0.68837 0.14671,-0.34047 0.22537,-0.62869 0.12092,-0.31125 0.18242,-0.57196 0.0988,-0.28346 0.1457,-0.51808 0.0797,-0.25702 0.11453,-0.46692 0.0634,-0.23194 0.0881,-0.41809 0.0495,-0.20785 0.0541,-0.30597 0.0312,-0.1522 0.29348,-0.0153 0.1468,-0.004 0.90904,-0.16311 0.45652,-0.0696 0.13947,0.31272 0.0657,0.15814 0.18666,0.38436 0.0883,0.19464 0.22409,0.42527 0.10644,0.21548 0.2669,0.46739 0.12729,0.23718 0.31545,0.51072 0.15105,0.25946 0.37084,0.55532 0.17809,0.28244 0.43402,0.60129 0.20899,0.3062 0.93488,-0.16963 0.46952,-0.0724 0.19529,-0.71538 0.10691,-0.35495 0.1522,-0.65025 0.0847,-0.32306 0.1161,-0.58899 0.0658,-0.29289 0.0858,-0.53131 0.0499,-0.2644 0.0606,-0.47694 0.0364,-0.23758 0.0398,-0.42549 0.0254,-0.21211 0.0204,-0.33491 0.0145,-0.1672 0.75645,-0.13565 0.37988,-0.058 0.42817,-0.13389 0.21571,-0.0613 0.16254,0.27493 0.0776,0.13955 0.22916,0.36067 0.10993,0.18322 0.27107,0.39703 0.13037,0.20188 0.31846,0.43395 0.15341,0.22108 0.37174,0.47149 0.17957,0.24048 0.43173,0.50953 0.20909,0.26028 0.49969,0.54785 0.24263,0.28037 0.90945,-0.27503 0.45816,-0.12554 0.11241,-0.73293 0.0658,-0.36489 0.0771,-0.66329 0.0473,-0.33059 0.0481,-0.59838 0.032,-0.29846 0.0245,-0.53768 0.0194,-0.26835 0.006,-0.48077 0.009,-0.24022 -0.009,-0.42719 0.001,-0.21369 -0.019,-0.35424 -0.005,-0.17744 1.16231,-0.36355 0.5857,-0.16655 0.17758,0.23464 0.0857,0.11961 0.26883,0.33216 0.13003,0.16944 0.31465,0.36349 0.15249,0.18585 0.36586,0.39478 0.17762,0.20209 0.42303,0.42602 0.20579,0.21851 0.48703,0.4569 0.23751,0.23482 0.55888,0.48734 0.27287,0.25087 0.87221,-0.3769 0.4409,-0.17687 0.0282,-0.74096 0.0237,-0.37004 0.001,-0.66785 0.009,-0.33378 -0.0204,-0.59996 -0.002,-0.30021 -0.0369,-0.5369 -0.0113,-0.26894 -0.049,-0.47816 -0.018,-0.23971 -0.0577,-0.42346 -0.0233,-0.21235 -0.0615,-0.36339 -0.0264,-0.18245 1.09575,-0.50103 0.55422,-0.23604 0.22307,0.23368 0.10839,0.11971 0.30501,0.29933 0.14854,0.15359 0.35397,0.32521 0.17278,0.16721 0.40839,0.35049 0.19952,0.18058 0.46882,0.37506 0.22937,0.19357 0.53595,0.39837 0.26265,0.20628 0.61083,0.42038 0.29976,0.21823 0.82354,-0.47383 0.41784,-0.22609 -0.0564,-0.73933 -0.0186,-0.37032 -0.0746,-0.66361 -0.0293,-0.33266 -0.0886,-0.59374 -0.0369,-0.29788 -0.0977,-0.52927 -0.0419,-0.26586 -0.10329,-0.46949 -0.0455,-0.23607 -0.10545,-0.41408 -0.0474,-0.20836 -0.10472,-0.36176 -0.0477,-0.18223 1.0162,-0.62938 0.51623,-0.30125 0.26578,0.22117 0.12991,0.1141 0.33713,0.26258 0.16501,0.13571 0.38879,0.28274 0.19064,0.14641 0.44574,0.30164 0.21884,0.15669 0.50853,0.31911 0.24986,0.16617 0.57792,0.33471 0.28436,0.17509 0.65465,0.34813 0.32264,0.18274 0.76415,-0.56469 0.38938,-0.27214 -0.14044,-0.72809 -0.0606,-0.36578 -0.15017,-0.6507 -0.0666,-0.32722 -0.15572,-0.57976 -0.0701,-0.29187 -0.15743,-0.51464 -0.0721,-0.25931 -0.15607,-0.45471 -0.0721,-0.22932 -0.15203,-0.39936 -0.0708,-0.20169 -0.14557,-0.34803 -0.0682,-0.17594 -7.2e-4,-0.002 -3.4e-4,-7.9e-4 0.9247,-0.74818 0.47207,-0.36177 0.30334,0.19871 0.14892,0.10331 0.36461,0.22286 0.17936,0.11608 0.4186,0.23659 0.20601,0.1237 0.47722,0.24892 0.23525,0.13072 0.5416,0.25908 0.26722,0.13661 0.61225,0.26668 0.30257,0.14135 0.69011,0.27118 0.34139,0.14454 0.69487,-0.64806 0.35578,-0.31481 -0.22253,-0.70733 -0.1019,-0.35646 -0.22346,-0.62932 -0.10349,-0.31748 -0.22083,-0.55828 -0.10303,-0.2819 -0.21513,-0.49337 -0.10097,-0.24942 -0.20694,-0.43397 -0.0977,-0.21962 -0.19659,-0.37944 -0.0933,-0.19219 -0.18359,-0.32794 -0.0875,-0.16638 0.8221,-0.85636 0.42213,-0.41726 0.33377,0.16772 0.16436,0.0886 0.38788,0.17944 0.19147,0.0947 0.44278,0.18735 0.21884,0.0994 0.50248,0.19284 0.24856,0.10304 0.56759,0.19567 0.28108,0.1053 0.63865,0.19516 0.31669,0.10589 0.71658,0.19075 0.35565,0.10476 0.5242,-0.61505 -16.66814,-9.92171 -0.3198,0.28037 -0.50509,-0.30065 0.094,-0.4148 z m -2.9667,9.871615 24.52755,14.6 -1.63859,1.77191 -6.83013,4.82463 -7.68392,3.29918 -8.20201,1.62953 -8.36153,-0.11141 -6.429224,-1.45632 z"
       inkscape:connector-curvature="0"
       style="fill:#d3d3d3;stroke:#000000;stroke-width:0.5" />
    <path
       id="path1309"
       d="m 133.22552,149.99657 0.4292,0.31643 0.0951,0.0935 0.3908,0.25748 0.0876,0.0775 0.354,0.20853 0.0802,0.0641 0.3191,0.16784 0.0731,0.0528 0.2861,0.13391 0.066,0.0432 0.255,0.1057 0.0593,0.0352 0.2254,0.0822 0.0529,0.0283 0.1976,0.0627 0.0466,0.0225 0.171,0.0466 0.0407,0.0176 0.1457,0.0335 0.0349,0.0134 0.1215,0.0229 0.0293,0.01 0.0981,0.0146 0.0238,0.007 0.0756,0.008 0.0184,0.005 0.0535,0.004 0.0132,0.003 0.0319,0.001 0.008,0.001 0.0106,0 0.003,3.8e-4 0.9711,-0.0229 0.2412,0.0286 0.1314,1.65874 -0.026,0.41517 0.0886,0.42671 0.007,0.10873 -0.9713,0.16954 -0.2463,0.008 -0.0104,0.002 -0.003,1.5e-4 -0.0311,0.007 -0.008,7.2e-4 -0.0518,0.0142 -0.0133,0.002 -0.0725,0.0229 -0.0188,0.003 -0.0934,0.0335 -0.0243,0.005 -0.1147,0.0462 -0.03,0.007 -0.1364,0.0613 -0.0359,0.0104 -0.1586,0.0791 -0.0421,0.014 -0.1814,0.10006 -0.0485,0.0184 -0.205,0.12463 -0.0552,0.0236 -0.2293,0.15341 -0.0622,0.0299 -0.2545,0.18718 -0.0696,0.0374 -0.2801,0.22689 -0.0774,0.0463 -0.3065,0.27361 -0.0854,0.0569 -0.333,0.32879 -0.094,0.0696 -0.3593,0.39413 -0.1028,0.0849 0.2613,0.89851 0.033,0.2316 0.5146,0.14 0.1224,0.0528 0.4574,0.099 0.1097,0.0406 0.4054,0.0666 0.098,0.0308 0.3582,0.0412 0.0871,0.0228 0.3152,0.0215 0.0772,0.0164 0.2759,0.006 0.0681,0.0113 0.2399,-0.005 0.0595,0.007 0.2068,-0.0129 0.0517,0.004 0.1763,-0.0183 0.0443,0.002 0.148,-0.0214 0.0373,-8e-5 0.1216,-0.0225 0.0309,-0.001 0.0968,-0.0218 0.0248,-0.002 0.0734,-0.0195 0.0189,-0.002 0.0513,-0.0157 0.0133,-0.002 0.0302,-0.0105 0.008,-0.002 0.01,-0.004 0.002,-6e-4 0.8916,-0.36984 0.2337,-0.0601 0.7787,1.58748 0.1368,0.42035 0.1823,0.27724 0.0353,0.075 -0.8412,0.50701 -0.226,0.0958 -0.009,0.006 -0.002,0.001 -0.0264,0.0181 -0.007,0.003 -0.0432,0.032 -0.0118,0.006 -0.0593,0.0475 -0.0164,0.01 -0.075,0.065 -0.0209,0.0134 -0.0902,0.0845 -0.0253,0.0177 -0.105,0.10643 -0.0298,0.0226 -0.1193,0.13108 -0.0341,0.0282 -0.1331,0.15886 -0.0385,0.0346 -0.1462,0.1903 -0.0429,0.0419 -0.1585,0.2259 -0.0472,0.0503 -0.1696,0.2665 -0.0514,0.06 -0.1793,0.3127 -0.0554,0.0711 -0.187,0.3659 -0.0591,0.0839 -0.1917,0.4269 -0.0625,0.0989 -0.1927,0.4973 -0.0652,0.1163 0.5683,0.7434 0.1144,0.2041 0.5304,-0.0554 0.1332,0.005 0.4623,-0.0729 0.117,-0.002 0.402,-0.0843 0.1025,-0.007 0.3489,-0.0909 0.0895,-0.0102 0.3017,-0.0938 0.078,-0.0125 0.2595,-0.0936 0.0676,-0.0141 0.222,-0.0911 0.0581,-0.0147 0.1882,-0.0867 0.0497,-0.0149 0.1578,-0.0807 0.0419,-0.0144 0.1303,-0.0734 0.0348,-0.0136 0.1052,-0.0649 0.0283,-0.0123 0.0824,-0.0554 0.0224,-0.0107 0.0614,-0.0448 0.0168,-0.009 0.0422,-0.0333 0.0116,-0.007 0.0244,-0.0207 0.007,-0.004 0.008,-0.007 0.002,-0.001 0.7022,-0.6712 0.1975,-0.1414 0.0677,0.0793 0.014,0.022 1.3084,1.1893 0.2819,0.3405 0.1864,0.1308 0.0415,0.039 -0.5985,0.7731 -0.1754,0.1703 -0.006,0.008 -0.002,0.002 -0.0181,0.0264 -0.005,0.006 -0.0287,0.0454 -0.009,0.0102 -0.0381,0.0658 -0.0118,0.0149 -0.0465,0.0877 -0.0146,0.0201 -0.0536,0.1114 -0.0172,0.0257 -0.0594,0.1372 -0.0196,0.0318 -0.0639,0.1654 -0.0216,0.0386 -0.0667,0.1962 -0.0235,0.0462 -0.0676,0.2303 -0.0248,0.0546 -0.0662,0.2679 -0.0258,0.064 -0.0619,0.3097 -0.0263,0.0745 -0.0542,0.3564 -0.026,0.0863 -0.0421,0.4087 -0.0248,0.0997 -0.0246,0.4673 -0.0226,0.1148 1e-4,0.5332 -0.0188,0.132 0.7984,0.488 0.1804,0.1489 0.4746,-0.2432 0.126,-0.0434 0.4047,-0.2351 0.1085,-0.0439 0.3444,-0.2239 0.0932,-0.0432 0.2924,-0.2109 0.0798,-0.0418 0.2474,-0.1964 0.0681,-0.0399 0.20825,-0.1811 0.0579,-0.0375 0.17407,-0.1651 0.0489,-0.0348 0.14419,-0.1488 0.0409,-0.0318 0.11798,-0.1322 0.0339,-0.0286 0.095,-0.1155 0.0276,-0.0253 0.0747,-0.0985 0.022,-0.0217 0.0568,-0.0814 0.0169,-0.0181 0.0411,-0.064 0.0124,-0.0144 0.0273,-0.0462 0.008,-0.0105 0.0152,-0.0281 0.005,-0.006 0.005,-0.01 0.002,-0.002 0.41463,-0.8844 0.13381,-0.2043 0.18422,0.0974 0.0422,0.0306 1.65434,0.6242 0.38745,0.2128 0.12021,0.0288 0.0287,0.0114 -0.27732,0.9321 -0.1015,0.2209 -0.003,0.0102 -0.001,0.002 -0.007,0.0311 -0.003,0.007 -0.0103,0.0527 -0.004,0.0127 -0.0118,0.0751 -0.006,0.0182 -0.0117,0.0986 -0.006,0.0239 -0.01,0.1233 -0.007,0.0302 -0.006,0.1494 -0.007,0.0367 1.3e-4,0.1773 -0.006,0.0439 0.009,0.207 -0.005,0.0516 0.0202,0.2391 -0.003,0.0599 0.0351,0.2737 -9.7e-4,0.0689 0.0541,0.3112 0.002,0.079 0.0782,0.3519 0.007,0.0899 0.10834,0.3963 0.0128,0.1019 0.14589,0.4446 0.0204,0.1152 0.19268,0.4973 0.0302,0.1298 0.92079,0.1666 0.22202,0.0737 0.35469,-0.3982 0.10183,-0.0861 0.29244,-0.3653 0.0853,-0.0801 0.24031,-0.3332 0.0712,-0.074 0.19658,-0.3022 0.0593,-0.0679 0.15974,-0.2725 0.0491,-0.0618 0.12877,-0.2441 0.0405,-0.0559 0.10265,-0.2169 0.0331,-0.05 0.0807,-0.1909 0.0267,-0.0444 0.0622,-0.166 0.0213,-0.0389 0.0468,-0.142 0.0166,-0.0335 0.034,-0.1188 0.0126,-0.0282 0.0236,-0.0964 0.009,-0.023 0.0153,-0.0745 0.006,-0.0179 0.009,-0.053 0.004,-0.0128 0.004,-0.0317 0.002,-0.008 9.9e-4,-0.0106 6.2e-4,-0.003 0.0675,-0.9791 0.0512,-0.2399 0.3106,0.0341 0.0757,0.0194 1.76795,-0.0287 0.43859,0.0553 0.0192,-0.003 h 0.005 l 0.0777,0.9634 -0.0148,0.2411 0.001,0.0106 -1e-4,0.003 0.004,0.0317 -2e-5,0.008 0.009,0.0529 4.6e-4,0.0134 0.0161,0.0743 0.001,0.0189 0.0247,0.0961 0.003,0.0247 0.0354,0.1185 0.005,0.0305 0.0485,0.1415 0.007,0.0367 0.0642,0.1652 0.01,0.0432 0.0829,0.1899 0.0138,0.05 0.10517,0.2156 0.0184,0.0571 0.13159,0.2426 0.024,0.0647 0.1629,0.2706 0.0308,0.0727 0.20007,0.2999 0.0389,0.0813 0.24418,0.3304 0.0488,0.0904 0.29666,0.3619 0.0607,0.1 0.35931,0.3941 0.075,0.1102 0.91879,-0.1773 0.23365,-0.0115 0.18688,-0.4994 0.0639,-0.117 0.14073,-0.4463 0.0506,-0.1055 0.10369,-0.3976 0.0397,-0.0947 0.0741,-0.3528 0.0308,-0.0847 0.0505,-0.3119 0.0235,-0.0754 0.0319,-0.2741 0.0176,-0.0667 0.0174,-0.2393 0.0127,-0.0586 0.006,-0.2072 0.009,-0.051 -0.002,-0.1772 0.006,-0.044 -0.008,-0.1493 0.003,-0.0372 -0.0112,-0.1232 0.002,-0.0308 -0.0128,-0.0985 3e-4,-0.0248 -0.0127,-0.0749 -4.9e-4,-0.019 -0.0109,-0.0526 -8.6e-4,-0.0134 -0.008,-0.031 -8e-4,-0.008 -0.003,-0.0102 -3.5e-4,-0.003 -0.29193,-0.9411 -0.0391,-0.2432 0.40167,-0.1101 0.1033,-0.013 1.55482,-0.645 0.40757,-0.1048 0.42208,0.8737 0.0737,0.2311 0.005,0.01 8.7e-4,0.002 0.0156,0.0279 0.003,0.008 0.0279,0.0459 0.005,0.0123 0.0419,0.0635 0.008,0.0172 0.0578,0.0807 0.0115,0.022 0.0758,0.0976 0.0153,0.0269 0.0963,0.1144 0.0198,0.0317 0.11951,0.1309 0.025,0.0366 0.1459,0.1472 0.0309,0.0415 0.17598,0.1632 0.0378,0.0465 0.21032,0.1787 0.0458,0.0516 0.24967,0.1935 0.055,0.0567 0.29491,0.2074 0.0657,0.0617 0.34704,0.2199 0.0781,0.0667 0.4074,0.2302 0.0927,0.0714 0.4774,0.2377 0.1097,0.0756 0.7927,-0.4972 0.2137,-0.0951 -0.006,-0.5332 0.0173,-0.1322 -0.03,-0.467 0.009,-0.1167 -0.0469,-0.4081 0.003,-0.1027 -0.0583,-0.3558 -0.002,-0.0901 -0.0656,-0.309 -0.005,-0.0788 -0.0693,-0.2671 -0.008,-0.0685 -0.0703,-0.2295 -0.009,-0.0592 -0.0689,-0.1955 -0.0102,-0.0508 -0.0658,-0.1645 -0.0105,-0.0431 -0.0611,-0.1365 -0.0103,-0.0359 -0.0549,-0.1108 -0.01,-0.0293 -0.0475,-0.0872 -0.009,-0.0232 -0.0389,-0.0653 -0.007,-0.0176 -0.0292,-0.0451 -0.006,-0.0121 -0.0184,-0.0262 -0.004,-0.007 -0.006,-0.008 -0.001,-0.002 -0.6141,-0.7745 -0.1246,-0.2133 0.416,-0.3127 0.114,-0.0627 1.1334,-1.0995 0.3193,-0.2322 0.7133,0.666 0.153,0.19 0.008,0.007 0.002,0.002 0.0246,0.0204 0.005,0.006 0.0425,0.0328 0.009,0.01 0.062,0.044 0.0137,0.0131 0.0831,0.0544 0.0186,0.0164 0.106,0.0636 0.024,0.0195 0.1311,0.0719 0.0299,0.0224 0.1587,0.0789 0.0365,0.0251 0.1893,0.0846 0.0438,0.0276 0.223,0.0885 0.0521,0.0298 0.2607,0.0905 0.0613,0.0317 0.3027,0.0902 0.0717,0.033 0.35,0.0869 0.0835,0.0338 0.403,0.0797 0.097,0.0339 0.463,0.0676 0.1122,0.0331 0.5311,0.0491 0.1296,0.0309 0.5596,-0.75 0.1649,-0.1659 -0.1983,-0.495 -0.0317,-0.1295 -0.1967,-0.4246 -0.0337,-0.112 -0.1911,-0.3637 -0.0345,-0.0967 -0.183,-0.3107 -0.0343,-0.0833 -0.1727,-0.2645 -0.0334,-0.0716 -0.1611,-0.224 -0.032,-0.0611 -0.1484,-0.1886 -0.0301,-0.0519 -0.1349,-0.1573 -0.0278,-0.0437 -0.1208,-0.1297 -0.0254,-0.0364 -0.1062,-0.1052 -0.0226,-0.0297 -0.0912,-0.0835 -0.0197,-0.0239 -0.0757,-0.0641 -0.0165,-0.0185 -0.0599,-0.0469 -0.0132,-0.0137 -0.0435,-0.0315 -0.01,-0.009 -0.0266,-0.0178 -0.006,-0.005 -0.009,-0.006 -0.002,-0.002 -0.8544,-0.50147 -0.1937,-0.15424 0.3259,-0.53253 0.0995,-0.12031 0.6063,-1.34466 0.1975,-0.31143 0.9101,0.36516 0.2123,0.12247 0.01,0.004 0.002,0.001 0.0303,0.0102 0.007,0.004 0.0515,0.0152 0.0122,0.006 0.0737,0.0187 0.0176,0.007 0.097,0.0207 0.0233,0.008 0.1219,0.0211 0.0294,0.01 0.1482,0.0197 0.036,0.0101 0.1765,0.0162 0.0431,0.0102 0.207,0.0105 0.0508,0.01 0.24,0.002 0.0593,0.009 0.2758,-0.01 0.0686,0.007 0.3149,-0.0252 0.0788,0.005 0.3576,-0.0454 0.0902,0.001 0.4046,-0.0713 0.1026,-0.003 0.4562,-0.10426 0.1166,-0.01 0.5129,-0.14597 0.1321,-0.018 0.2508,-0.90149 0.0939,-0.21428 -0.3638,-0.38993 -0.0763,-0.10933 -0.3368,-0.3249 -0.0719,-0.0923 -0.3096,-0.27003 -0.0671,-0.0777 -0.2828,-0.22362 -0.0621,-0.0653 -0.2566,-0.18421 -0.057,-0.0546 -0.2312,-0.15073 -0.0519,-0.0455 -0.2065,-0.12223 -0.0468,-0.0375 -0.1826,-0.0979 -0.0417,-0.0307 -0.1596,-0.0773 -0.0367,-0.0248 -0.1371,-0.0597 -0.0318,-0.0196 -0.1152,-0.0449 -0.027,-0.0152 -0.0938,-0.0324 -0.022,-0.0113 -0.0728,-0.0221 -0.0172,-0.008 -0.052,-0.0137 -0.0124,-0.005 -0.0311,-0.007 -0.007,-0.003 -0.0105,-0.002 -0.002,-8.5e-4 -0.9793,-0.15924 -0.2368,-0.0739 0.1249,-0.7175 0.0562,-0.17318 0.0639,-1.36952 0.0641,-0.33671 0.9845,0.0118 0.2433,0.0376 0.0106,-1.3e-4 0.003,3.4e-4 0.032,-0.001 0.008,7.6e-4 0.0535,-0.005 0.0134,7.7e-4 0.0755,-0.009 0.019,3.9e-4 0.098,-0.0158 0.0248,-4.4e-4 0.1212,-0.0243 0.0309,-0.002 0.1453,-0.0352 0.0372,-0.004 0.1704,-0.0487 0.0439,-0.006 0.1968,-0.065 0.051,-0.009 0.2245,-0.0848 0.0585,-0.0131 0.2537,-0.10866 0.0666,-0.0179 0.2845,-0.13724 0.0753,-0.0239 0.3171,-0.17155 0.0845,-0.0313 0.3515,-0.21264 0.0945,-0.0402 0.3878,-0.262 0.1052,-0.0512 0.4255,-0.3214 0.1166,-0.0645 -0.0917,-0.93124 0.0101,-0.23372 -0.4801,-0.23217 -0.1106,-0.0744 -0.4314,-0.1813 -0.1004,-0.0601 -0.3863,-0.13995 -0.0906,-0.0482 -0.3445,-0.10635 -0.0815,-0.0385 -0.3059,-0.0791 -0.0729,-0.0303 -0.27,-0.0571 -0.0648,-0.0236 -0.2367,-0.0394 -0.0571,-0.0181 -0.2057,-0.0254 -0.05,-0.0135 -0.1767,-0.0144 -0.0432,-0.01 -0.1494,-0.006 -0.0368,-0.007 -0.1236,-2.1e-4 -0.0306,-0.004 -0.0992,0.004 -0.0247,-0.003 -0.0758,0.006 -0.0189,-0.001 -0.0534,0.006 -0.0134,-3.8e-4 -0.0316,0.005 -0.008,7e-5 -0.0105,0.002 -0.003,1.1e-4 -0.9715,0.20545 -0.2477,0.0166 -0.1691,-0.81478 -0.0132,-0.20763 -0.411,-1.19851 -0.0595,-0.31113 0.9254,-0.34579 0.2412,-0.053 0.01,-0.004 0.003,-6.3e-4 0.0293,-0.0129 0.008,-0.002 0.0483,-0.0235 0.0128,-0.004 0.0671,-0.0358 0.0178,-0.006 0.0857,-0.0501 0.023,-0.009 0.1042,-0.0665 0.0282,-0.0128 0.1227,-0.0853 0.0334,-0.0168 0.1414,-0.10692 0.0388,-0.0215 0.16,-0.13171 0.0442,-0.0269 0.1787,-0.16019 0.0498,-0.0333 0.1973,-0.19295 0.0556,-0.0408 0.2158,-0.23075 0.0615,-0.0495 0.2337,-0.27451 0.0676,-0.0597 0.2509,-0.32526 0.0736,-0.0717 0.2669,-0.38438 0.0796,-0.0857 0.2807,-0.45343 0.0855,-0.10232 -0.422,-0.83521 -0.075,-0.2216 -0.5315,-0.043 -0.13,-0.0294 -0.4678,-0.0133 -0.1153,-0.0197 -0.4108,0.009 -0.1019,-0.0122 -0.3597,0.0252 -0.0899,-0.006 -0.3137,0.0368 -0.079,-0.002 -0.2723,0.0443 -0.069,0.001 -0.2349,0.0488 -0.0599,0.004 -0.201,0.0506 -0.0515,0.006 -0.1699,0.0503 -0.0439,0.006 -0.1415,0.0482 -0.0367,0.007 -0.1154,0.0444 -0.0301,0.007 -0.0912,0.0392 -0.0239,0.006 -0.0687,0.0327 -0.0181,0.006 -0.0476,0.0249 -0.0126,0.005 -0.0278,0.0159 -0.007,0.003 -0.009,0.006 -0.002,0.001 -0.8316,0.54249 -0.225,0.10495 -0.5143,-0.78208 -0.0997,-0.21173 -0.7558,-0.884 -0.1559,-0.2455 0.7398,-0.6583 0.2063,-0.1368 0.008,-0.007 0.002,-0.001 0.0226,-0.0226 0.006,-0.005 0.0365,-0.0394 0.0104,-0.009 0.0496,-0.0576 0.0143,-0.0125 0.0618,-0.0777 0.018,-0.017 0.0732,-0.0997 0.0217,-0.0221 0.0836,-0.1239 0.0251,-0.0277 0.0932,-0.1508 0.0284,-0.034 0.1016,-0.1806 0.0315,-0.0411 0.1087,-0.2139 0.0345,-0.0491 0.1143,-0.2512 0.0371,-0.0582 0.1178,-0.2931 0.0395,-0.0683 0.1188,-0.3404 0.0414,-0.0801 0.1165,-0.394 0.0427,-0.0934 0.11,-0.4548 0.0433,-0.1087 0.0979,-0.5242 0.0428,-0.1263 -0.6952,-0.6264 -0.15,-0.1795 -0.5112,0.1518 -0.1318,0.0196 -0.441,0.1567 -0.1147,0.0232 -0.3797,0.1568 -0.0995,0.0254 -0.3262,0.1535 -0.0862,0.0265 -0.2793,0.1476 -0.0743,0.0267 -0.238,0.1397 -0.0638,0.0262 -0.2014,0.1303 -0.0545,0.0252 -0.1691,0.1198 -0.0461,0.0237 -0.1402,0.1084 -0.0386,0.0218 -0.1145,0.0961 -0.0318,0.0198 -0.0915,0.0831 -0.0256,0.0174 -0.0708,0.0695 -0.02,0.0147 -0.0521,0.0553 -0.0149,0.0118 -0.0354,0.0404 -0.0101,0.009 -0.0202,0.0248 -0.006,0.005 -0.006,0.008 -0.002,0.002 -0.579,0.8057 -0.1717,0.179 -0.85114,-0.5976 -0.18958,-0.1779 -0.93635,-0.4951 -0.21429,-0.1556 0.45276,-0.8826 0.14318,-0.2025 0.005,-0.01 10e-4,-0.002 0.0129,-0.0293 0.004,-0.007 0.0198,-0.0499 0.007,-0.0116 0.0254,-0.0717 0.009,-0.0168 0.0296,-0.0947 0.0107,-0.0224 0.0322,-0.1194 0.0122,-0.0284 0.0333,-0.1458 0.0134,-0.0349 0.0324,-0.1743 0.0142,-0.0419 0.0295,-0.2052 0.0145,-0.0497 0.0241,-0.2387 0.0144,-0.0583 0.0158,-0.2755 0.0136,-0.0676 0.004,-0.3159 0.0121,-0.078 -0.0122,-0.3603 0.01,-0.0896 -0.0336,-0.4095 0.006,-0.1025 -0.0617,-0.4639 10e-4,-0.117 -0.098,-0.5242 -0.006,-0.1332 -0.8745,-0.3329 -0.2047,-0.1132 -0.42182,0.3262 -0.11591,0.0659 -0.35458,0.3054 -0.0985,0.0631 -0.29745,0.2833 -0.0836,0.0597 -0.24875,0.261 -0.0708,0.0558 -0.2071,0.2385 -0.0597,0.0517 -0.17143,0.2163 -0.05,0.0475 -0.14075,0.1943 -0.0417,0.0431 -0.1144,0.1729 -0.0344,0.0387 -0.0917,0.1517 -0.028,0.0343 -0.0721,0.131 -0.0225,0.0299 -0.0553,0.1105 -0.0176,0.0255 -0.0409,0.0904 -0.0133,0.0209 -0.0287,0.0704 -0.01,0.0164 -0.0184,0.0505 -0.006,0.0118 -0.01,0.0305 -0.004,0.007 -0.003,0.0102 -10e-4,0.002 -0.24853,0.9589 -0.0953,0.2286 -1.11235,-0.2664 -0.26591,-0.1052 -0.50018,-0.0549 v 13.87248 l 1.96512,3.4041 -2.48268,4.30013 h -4.96536 l -2.48268,-4.30013 1.96536,-3.4041 v -13.8949 h -0.0846 l -0.82116,0.2251 -0.21117,0.0268 -0.26029,-0.9583 -0.0306,-0.2463 -0.003,-0.0102 -4e-4,-0.003 -0.0102,-0.0304 -0.001,-0.008 -0.019,-0.0503 -0.003,-0.0131 -0.0295,-0.07 -0.005,-0.0184 -0.042,-0.09 -0.007,-0.0237 -0.0566,-0.1099 -0.0101,-0.0292 -0.0736,-0.1302 -0.0136,-0.0348 -0.0934,-0.1506 -0.0178,-0.0406 -0.11638,-0.1715 -0.0228,-0.0465 -0.14301,-0.1927 -0.0286,-0.0527 -0.17392,-0.2142 -0.0355,-0.0592 -0.20986,-0.2361 -0.0436,-0.0658 -0.25178,-0.2581 -0.0532,-0.0727 -0.30073,-0.2799 -0.0646,-0.0799 -0.35811,-0.3012 -0.078,-0.0872 -0.42559,-0.3214 -0.094,-0.0945 -0.87056,0.3431 -0.22757,0.0542 -0.0919,0.5253 -0.0413,0.1268 -0.0563,0.4645 -0.0303,0.113 -0.0289,0.4098 -0.0216,0.1005 -0.008,0.3604 -0.0147,0.0889 0.008,0.3158 -0.009,0.0784 0.019,0.2753 -0.005,0.0688 0.0269,0.2385 -0.002,0.0599 0.0319,0.2048 6.7e-4,0.0518 0.0345,0.1739 0.002,0.0442 0.0349,0.1454 0.004,0.0372 0.0336,0.119 0.004,0.0306 0.0307,0.0944 0.004,0.0245 0.0262,0.0713 0.004,0.0186 0.0204,0.0497 0.003,0.013 0.0132,0.0291 0.002,0.008 0.005,0.01 8.4e-4,0.002 0.45986,0.8713 0.0831,0.2319 -1.17377,0.6703 -0.31415,0.1245 -0.5976,0.4492 -0.16375,0.0901 -0.5885,-0.799 -0.1175,-0.2186 -0.007,-0.008 -10e-4,-0.002 -0.0204,-0.0245 -0.004,-0.007 -0.0359,-0.04 -0.007,-0.0112 -0.0528,-0.0547 -0.0112,-0.0154 -0.0716,-0.0687 -0.0153,-0.0195 -0.0925,-0.0821 -0.02,-0.0236 -0.1157,-0.0947 -0.0252,-0.0275 -0.1416,-0.1067 -0.0312,-0.0314 -0.1705,-0.1179 -0.038,-0.0352 -0.203,-0.128 -0.0457,-0.0388 -0.2396,-0.137 -0.0544,-0.0423 -0.281,-0.1444 -0.0645,-0.0456 -0.328,-0.1497 -0.0759,-0.0486 -0.3815,-0.1523 -0.0891,-0.0512 -0.4427,-0.1515 -0.1042,-0.0531 -0.513,-0.1459 -0.1218,-0.0542 -0.6878,0.6344 -0.1926,0.1327 0.104,0.5231 0.007,0.1331 0.1153,0.4535 0.0126,0.1163 0.1211,0.3926 0.0161,0.1015 0.1227,0.3389 0.0184,0.0883 0.1212,0.2917 0.0198,0.0764 0.1171,0.2499 0.0202,0.066 0.1112,0.2126 0.0201,0.0565 0.1037,0.1794 0.0193,0.0481 0.095,0.1497 0.0182,0.0404 0.0851,0.1229 0.0167,0.0334 0.0744,0.0988 0.0149,0.0271 0.0627,0.077 0.0128,0.0212 0.0502,0.0571 0.0104,0.0159 0.037,0.0389 0.008,0.0109 0.0229,0.0224 0.005,0.006 0.008,0.007 0.002,0.002 0.7406,0.6439 0.1607,0.1855 -0.9096,1.1365 -0.2652,0.2492 -0.3361,0.54905 -0.1025,0.12404 -0.8362,-0.53179 -0.1883,-0.161 -0.009,-0.006 -0.002,-0.002 -0.028,-0.0155 -0.006,-0.005 -0.0479,-0.0243 -0.011,-0.008 -0.069,-0.0319 -0.0159,-0.0103 -0.0916,-0.0382 -0.0213,-0.0127 -0.1159,-0.0431 -0.0272,-0.0147 -0.1421,-0.0466 -0.0335,-0.0166 -0.1705,-0.0483 -0.0405,-0.018 -0.2016,-0.0483 -0.0481,-0.0191 -0.2355,-0.046 -0.0567,-0.0197 -0.2728,-0.0412 -0.0661,-0.0198 -0.3142,-0.0331 -0.0766,-0.0193 -0.3599,-0.021 -0.0883,-0.0179 -0.4108,-0.004 -0.1016,-0.0155 -0.4675,0.0186 -0.1164,-0.0119 -0.531,0.0493 -0.1332,-0.007 -0.4122,0.8401 -0.1316,0.1934 0.2859,0.45009 0.0549,0.12149 0.2714,0.38126 0.0537,0.10393 0.2547,0.32232 0.0517,0.0888 0.2369,0.27179 0.0491,0.0756 0.2184,0.22823 0.046,0.0642 0.1995,0.19064 0.0426,0.0542 0.1805,0.15809 0.0391,0.0455 0.1616,0.12983 0.0354,0.0378 0.1426,0.10528 0.0316,0.0311 0.1237,0.0839 0.0277,0.0251 0.105,0.0653 0.0237,0.0198 0.0862,0.0491 0.0197,0.0152 0.0674,0.0351 0.0155,0.0111 0.0485,0.0229 0.0112,0.007 0.0294,0.0126 0.007,0.004 0.01,0.004 0.002,0.001 0.9189,0.33127 0.2158,0.11439 -0.4579,1.49106 -0.1659,0.35289 -0.0926,0.53178 -0.0416,0.12835 -0.9697,-0.19332 -0.2332,-0.082 -0.0105,-0.002 -0.003,-8.2e-4 -0.0317,-0.004 -0.008,-0.002 -0.0534,-0.005 -0.013,-0.003 -0.0759,-0.005 -0.0186,-0.004 -0.0992,-0.002 -0.0245,-0.004 -0.1236,0.002 -0.0307,-0.004 -0.1493,0.008 -0.0372,-0.003 -0.1765,0.0165 -0.0443,-0.002 -0.2054,0.0277 -0.0518,-3.7e-4 -0.2362,0.0421 -0.0599,0.002 -0.2693,0.0602 -0.0688,0.005 -0.3049,0.0826 -0.0784,0.01 -0.3432,0.11036 -0.0888,0.0152 -0.3846,0.14443 -0.1003,0.0222 -0.4293,0.1863 -0.1128,0.031 -0.4774,0.23774 -0.1265,0.042 -0.0809,0.93224 z"
       inkscape:connector-curvature="0"
       style="fill:#d3d3d3;stroke:#000000;stroke-width:0.5" />
  </g>
  <g
     inkscape:groupmode="layer"
     id="layer5"
     inkscape:label="sweep"
     style="display:inline;opacity:0.253"
     sodipodi:insensitive="true">
    <path
       d="m 178.66746,32.056516 a 85,85 0 0 1 -3.1297,103.712394 85,85 0 0 1 -101.083189,23.4146 L 109.80208,81.881805 Z"
       sodipodi:end="1.9996769"
       sodipodi:start="5.6568497"
       sodipodi:ry="85"
       sodipodi:rx="85"
       sodipodi:cy="81.881805"
       sodipodi:cx="109.80208"
       sodipodi:type="arc"
       id="path2394"
       style="display:inline;opacity:1;fill:#ff8080;stroke:#008000;stroke-width:0.25;stroke-linecap:round;stroke-miterlimit:4;stroke-dasharray:none" />
    <path
       style="display:inline;opacity:1;fill:#008000;stroke:#008000;stroke-width:0.25;stroke-linecap:round;stroke-miterlimit:4;stroke-dasharray:none"
       id="path2386"
       sodipodi:type="arc"
       sodipodi:cx="109.80208"
       sodipodi:cy="81.881805"
       sodipodi:rx="85"
       sodipodi:ry="85"
       sodipodi:start="0.75405084"
       sodipodi:end="2.099273"
       d="M 171.76042,140.07256 A 85,85 0 0 1 66.943513,155.28578 L 109.80208,81.881805 Z" />
    <path
       style="display:inline;fill:#008000;stroke:#008000;stroke-width:0.26458332px;stroke-linecap:butt;stroke-linejoin:miter;stroke-opacity:1"
       d="M 177.24565,149.60128 109.80208,81.881806"
       id="path2380"
       inkscape:connector-curvature="0" />
    <path
       style="display:inline;fill:none;stroke:#008000;stroke-width:0.26458332px;stroke-linecap:butt;stroke-linejoin:miter;stroke-opacity:1"
       d="M 109.80208,81.881806 72.38244,169.38329"
       id="path2382"
       inkscape:connector-curvature="0" />
  </g>
  <g
     inkscape:groupmode="layer"
     id="layer6"
     inkscape:label="flipopen"
     sodipodi:insensitive="true"
     style="display:none;opacity:0.26851855">
    <rect
       inkscape:transform-center-y="-37.337279"
       inkscape:transform-center-x="-64.864345"
       transform="rotate(-35.748877)"
       y="133.16827"
       x="43.93206"
       height="10"
       width="143.79102"
       id="rect3114"
       style="display:inline;opacity:1;fill:none;stroke:#000000;stroke-width:0.25;stroke-linecap:round;stroke-miterlimit:4;stroke-dasharray:none" />
    <path
       inkscape:transform-center-y="15.964305"
       inkscape:transform-center-x="-50.026594"
       id="path3120"
       d="m 124.15049,87.548918 30.93254,63.757122 0.31535,-0.2496 0.15484,0.0968 0.60689,0.40593 0.17972,0.10465 0.70547,0.44003 0.20345,0.10983 0.8001,0.46352 0.22955,0.11407 0.9037,0.48422 0.25812,0.11754 1.0175,0.50124 0.22126,-0.19215 0.90803,-0.74124 -0.0803,-0.27199 -0.28742,-1.09724 -0.0808,-0.2433 -0.29353,-0.98237 -0.0801,-0.21682 -0.29406,-0.87672 -0.0784,-0.19249 -0.28997,-0.77936 -0.0669,-0.15052 -0.24924,-0.60985 0.24253,-0.20429 0.99455,-0.78709 0.0213,-0.0228 0.0877,-0.0895 0.13196,0.0686 0.5188,0.29019 0.1874,0.0899 0.73827,0.38261 0.21155,0.0934 0.83438,0.39849 0.23779,0.0957 0.9394,0.41084 0.26657,0.0966 1.05412,0.41886 0.20529,-0.2091 0.84623,-0.8111 -0.10151,-0.26472 -0.37375,-1.07098 -0.0999,-0.23605 -0.37065,-0.95597 -0.0971,-0.20981 -0.36272,-0.8505 -0.0935,-0.18573 -0.35088,-0.75379 -0.0883,-0.1625 -0.33338,-0.6603 0.22396,-0.24271 0.92496,-0.94309 0.16748,0.0707 0.66098,0.3035 0.19399,0.0747 0.76637,0.32277 0.21828,0.0761 0.86339,0.33095 0.24471,0.0764 0.96902,0.3349 0.2734,0.0752 1.08411,0.33384 0.18801,-0.22483 0.77914,-0.87571 -0.12223,-0.25582 -0.45766,-1.03792 -0.11833,-0.22739 -0.44538,-0.9234 -0.11349,-0.20141 -0.4292,-0.81907 -0.10782,-0.17772 -0.40974,-0.72356 -0.0894,-0.13725 -0.34081,-0.55953 0.1968,-0.27595 0.82054,-1.07947 0.16819,0.0558 0.66556,0.24363 0.19927,0.0591 0.78952,0.26084 0.22366,0.0585 0.88699,0.2613 0.25002,0.0565 0.99263,0.25687 0.2786,0.0531 1.10712,0.24657 0.16954,-0.23906 0.70707,-0.93482 -0.14216,-0.24533 -0.53868,-0.99821 -0.13605,-0.21727 -0.51737,-0.88514 -0.12891,-0.19186 -0.49296,-0.78246 -0.12162,-0.16849 -0.46588,-0.68874 -0.10621,-0.1383 -0.4088,-0.56478 0.19826,-0.27806 0.82685,-1.08761 0.15441,0.0382 0.61291,0.17038 0.20336,0.043 0.80781,0.1973 0.22752,0.0407 0.90485,0.19042 0.25373,0.0366 1.00985,0.1771 0.28194,0.0309 1.12325,0.15781 0.15006,-0.2517 0.63056,-0.98806 -0.16132,-0.23322 -0.61628,-0.95229 -0.15265,-0.20591 -0.58607,-0.84125 -0.14392,-0.18087 -0.55357,-0.7407 -0.13465,-0.15833 -0.51915,-0.6496 -0.12315,-0.13579 -0.47572,-0.55783 0.15642,-0.29041 0.66049,-1.14202 0.18225,0.0296 0.72512,0.14097 0.20616,0.0268 0.82095,0.13252 0.23007,0.0224 0.91716,0.11751 0.25575,0.0164 1.02073,0.0965 0.28347,0.008 1.1322,0.0682 0.1297,-0.26283 0.54998,-1.03503 -0.17921,-0.21978 -0.69002,-0.90032 -0.1687,-0.19294 -0.65102,-0.79202 -0.1579,-0.16889 -0.61065,-0.69436 -0.14681,-0.14721 -0.56907,-0.60618 -0.1096,-0.10303 -0.42552,-0.42533 0.12471,-0.32314 0.538,-1.27681 0.1682,0.0139 0.67073,0.0756 0.20759,0.0104 0.82883,0.0668 0.23115,0.004 0.92362,0.0443 0.25632,-0.004 1.02519,0.0151 0.28315,-0.0142 1.13414,-0.0221 0.10793,-0.27245 0.46565,-1.0757 -0.19617,-0.20478 -0.75936,-0.84264 -0.18351,-0.17887 -0.71194,-0.73783 -0.17072,-0.1558 -0.66384,-0.64368 -0.15807,-0.13509 -0.61546,-0.55906 -0.14128,-0.11301 -0.55062,-0.46909 0.12097,-0.31297 0.52089,-1.23671 0.17043,4.4e-4 0.68114,0.0223 0.20773,-0.006 0.83154,7.7e-4 0.23069,-0.0143 0.92423,-0.0293 0.25522,-0.0244 1.0231,-0.0664 0.28117,-0.0367 1.12876,-0.112 0.0863,-0.28009 0.37916,-1.10912 -0.21186,-0.18861 -0.82384,-0.77956 -0.19716,-0.16385 -0.76831,-0.67891 -0.18264,-0.14178 -0.71286,-0.58896 -0.16832,-0.12197 -0.65797,-0.50843 -0.14768,-0.1002 -0.57861,-0.41839 0.0796,-0.32188 0.35765,-1.27714 0.18374,-0.0142 0.7366,-0.0345 0.20666,-0.0226 0.8289,-0.0653 0.22889,-0.0326 0.91897,-0.10257 0.25236,-0.0446 1.01463,-0.14759 0.27742,-0.0587 1.11625,-0.20146 0.0637,-0.28608 0.28979,-1.13579 -0.22613,-0.17114 -0.88325,-0.71168 -0.20949,-0.14761 -0.81984,-0.615716 -0.19329,-0.126768 -0.75741,-0.53044 -0.17739,-0.108351 -0.69633,-0.45452 -0.13669,-0.0777 -0.53719,-0.326684 0.042,-0.167989 0.18668,-0.666726 0.0205,-0.173892 0.1028,-0.692688 0.15531,-0.0245 0.62419,-0.07927 0.20419,-0.03894 0.82119,-0.130952 0.22558,-0.05074 0.90785,-0.175273 0.24805,-0.06451 0.9997,-0.227623 0.27184,-0.08078 1.09679,-0.289448 0.0409,-0.290197 0.19872,-1.155131 -0.23897,-0.152611 -0.93695,-0.639391 -0.22063,-0.130415 -0.86615,-0.548656 -0.20279,-0.110941 -0.79721,-0.468575 -0.18548,-0.09377 -0.7301,-0.397954 -0.1672,-0.0777 -0.65838,-0.331883 0.0388,-0.329292 0.19472,-1.311976 0.17351,-0.04187 0.69868,-0.145882 0.20049,-0.055 0.80809,-0.195777 0.22075,-0.06847 0.89112,-0.246852 0.24223,-0.08402 0.9784,-0.306364 0.2646,-0.102054 1.07023,-0.375644 0.0176,-0.292599 0.10631,-1.167315 -0.25032,-0.133224 -0.98475,-0.562831 -0.23029,-0.112586 -0.907,-0.477989 -0.21105,-0.09447 -0.8319,-0.403707 -0.1924,-0.07878 -0.75963,-0.338055 -0.15987,-0.05927 -0.63133,-0.257668 -0.003,-0.335406 0.029,-1.341494 0.17202,-0.05614 0.69437,-0.20373 0.19541,-0.07076 0.79008,-0.259392 0.21466,-0.08579 0.86864,-0.316832 0.23475,-0.103044 0.95097,-0.383186 0.2556,-0.122689 1.03708,-0.459523 -0.006,-0.293034 0.0132,-1.172091 -0.26055,-0.111923 -1.02639,-0.482844 -0.23839,-0.0943 -0.94193,-0.404847 -0.21783,-0.07735 -0.86137,-0.336371 -0.1979,-0.06362 -0.78385,-0.277605 -0.16221,-0.04613 -0.64294,-0.204508 -0.003,-0.346472 0.03,-1.385386 0.13868,-0.05785 0.56155,-0.214524 0.18919,-0.08614 0.76691,-0.321347 0.20722,-0.102521 0.84075,-0.384911 0.22579,-0.12124 0.91752,-0.457592 0.24511,-0.142632 0.9972,-0.540398 -0.0288,-0.291658 -0.08,-1.16943 -0.26812,-0.09222 -1.06156,-0.399783 -0.24521,-0.07459 -0.97125,-0.328513 -0.22332,-0.05979 -0.88532,-0.266836 -0.20254,-0.04689 -0.80351,-0.213945 -0.18106,-0.03641 -0.71953,-0.167171 -0.0442,-0.326939 -0.13693,-1.312153 0.16301,-0.08384 0.66182,-0.315217 0.18178,-0.10088 0.73903,-0.381182 0.19832,-0.118766 0.80757,-0.450403 0.21538,-0.13888 0.87832,-0.528983 0.23323,-0.161299 0.95116,-0.61804 -0.052,-0.288365 -0.17255,-1.159377 -0.27482,-0.07028 -1.0899,-0.314141 -0.25045,-0.05452 -0.99429,-0.250151 -0.2273,-0.04179 -0.90382,-0.195714 -0.2055,-0.03106 -0.81793,-0.14946 -0.15802,-0.01893 -0.62959,-0.09437 -0.0879,-0.330022 -0.31088,-1.330112 0.14827,-0.09177 0.60396,-0.349011 0.17296,-0.115259 0.70637,-0.438769 0.18843,-0.133824 0.76923,-0.513119 0.20356,-0.155881 0.83359,-0.596835 0.2194,-0.179712 0.89903,-0.691659 -0.0746,-0.283325 -0.26415,-1.141996 -0.27957,-0.04804 -1.11134,-0.226919 -0.25391,-0.03499 -1.01106,-0.17049 -0.22994,-0.02387 -0.91643,-0.123291 -0.20734,-0.01465 -0.82721,-0.084 -0.177,-0.0069 -0.70679,-0.04904 -0.0872,-0.327661 -0.30871,-1.320472 0.13202,-0.09677 0.53902,-0.371526 0.16359,-0.12824 0.66902,-0.493811 0.1771,-0.148613 0.72601,-0.572688 0.19071,-0.17128 0.78344,-0.661374 0.20443,-0.19651 0.84128,-0.760881 -0.097,-0.276542 -0.35409,-1.117365 -0.28243,-0.02574 -1.12588,-0.137631 -0.2559,-0.01461 -1.0214,-0.08954 -0.23104,-0.0056 -0.92336,-0.05007 -0.20786,0.0018 -0.8313,-0.01803 -0.18178,0.0075 -0.72739,0.0074 -0.12431,-0.305939 -0.45955,-1.238372 0.13977,-0.121015 0.57375,-0.466863 0.15276,-0.140993 0.62799,-0.545094 0.16474,-0.162176 0.67821,-0.628553 0.17648,-0.185799 0.72841,-0.72157 0.18819,-0.212145 0.77815,-0.825296 -0.11864,-0.267941 -0.36432,-0.895522 -37.87287,27.396146 0.13063,0.404785 -0.47627,0.344503 -0.34355,-0.250746 z m 14.86832,7.757804 34.69119,-25.094636 1.46552,3.310218 2.5824,12.274755 -0.0261,12.543347 -2.63342,12.263874 -5.12567,11.44834 -5.82875,7.98758 z"
       style="display:inline;fill:#d3d3d3;stroke:#000000;stroke-width:0.49999997"
       inkscape:connector-curvature="0" />
  </g>
</svg>
