  0
SECTION
  2
HEADER
  9
$ACADVER
  1
AC1014
  9
$HANDSEED
  5
FFFF
  9
$MEASUREMENT
 70
     1
  0
ENDSEC
  0
SECTION
  2
TABLES
  0
TABLE
  2
VPORT
  5
8
330
0
100
AcDbSymbolTable
 70
     4
  0
VPORT
  5
2E
330
8
100
AcDbSymbolTableRecord
100
AcDbViewportTableRecord
  2
*ACTIVE
 70
     0
 10
0.0
 20
0.0
 11
1.0
 21
1.0
 12
210.0
 22
148.5
 13
0.0
 23
0.0
 14
10.0
 24
10.0
 15
10.0
 25
10.0
 16
0.0
 26
0.0
 36
1.0
 17
0.0
 27
0.0
 37
0.0
 40
341.0
 41
1.24
 42
50.0
 43
0.0
 44
0.0
 50
0.0
 51
0.0
 71
     0
 72
   100
 73
     1
 74
     3
 75
     0
 76
     0
 77
     0
 78
     0
  0
ENDTAB
  0
TABLE
  2
LTYPE
  5
5
330
0
100
AcDbSymbolTable
 70
     1
  0
LTYPE
  5
14
330
5
100
AcDbSymbolTableRecord
100
AcDbLinetypeTableRecord
  2
BYBLOCK
 70
     0
  3

 72
    65
 73
     0
 40
0.0
  0
LTYPE
  5
15
330
5
100
AcDbSymbolTableRecord
100
AcDbLinetypeTableRecord
  2
BYLAYER
 70
     0
  3

 72
    65
 73
     0
 40
0.0
  0
LTYPE
  5
16
330
5
100
AcDbSymbolTableRecord
100
AcDbLinetypeTableRecord
  2
CONTINUOUS
 70
     0
  3
Solid line
 72
    65
 73
     0
 40
0.0
  0
ENDTAB
  0
TABLE
  2
LAYER
  5
2
100
AcDbSymbolTable
 70
2
  0
LAYER
  5
50
100
AcDbSymbolTableRecord
100
AcDbLayerTableRecord
  2
0
 70
0
  6
CONTINUOUS
  0
LAYER
  5
51
100
AcDbSymbolTableRecord
100
AcDbLayerTableRecord
  2
Layer_1
 70
0
  6
CONTINUOUS
  0
ENDTAB
  0
TABLE
  2
STYLE
  5
3
330
0
100
AcDbSymbolTable
 70
     1
  0
STYLE
  5
11
330
3
100
AcDbSymbolTableRecord
100
AcDbTextStyleTableRecord
  2
STANDARD
 70
     0
 40
0.0
 41
1.0
 50
0.0
 71
     0
 42
2.5
  3
txt
  4

  0
ENDTAB
  0
TABLE
  2
VIEW
  5
6
330
0
100
AcDbSymbolTable
 70
     0
  0
ENDTAB
  0
TABLE
  2
UCS
  5
7
330
0
100
AcDbSymbolTable
 70
     0
  0
ENDTAB
  0
TABLE
  2
APPID
  5
9
330
0
100
AcDbSymbolTable
 70
     2
  0
APPID
  5
12
330
9
100
AcDbSymbolTableRecord
100
AcDbRegAppTableRecord
  2
ACAD
 70
     0
  0
ENDTAB
  0
TABLE
  2
DIMSTYLE
  5
A
330
0
100
AcDbSymbolTable
 70
     1
  0
DIMSTYLE
105
27
330
A
100
AcDbSymbolTableRecord
100
AcDbDimStyleTableRecord
  2
ISO-25
 70
     0
  3

  4

  5

  6

  7

 40
1.0
 41
2.5
 42
0.625
 43
3.75
 44
1.25
 45
0.0
 46
0.0
 47
0.0
 48
0.0
140
2.5
141
2.5
142
0.0
143
0.03937007874016
144
1.0
145
0.0
146
1.0
147
0.625
 71
     0
 72
     0
 73
     0
 74
     0
 75
     0
 76
     0
 77
     1
 78
     8
170
     0
171
     3
172
     1
173
     0
174
     0
175
     0
176
     0
177
     0
178
     0
270
     2
271
     2
272
     2
273
     2
274
     3
340
11
275
     0
280
     0
281
     0
282
     0
283
     0
284
     8
285
     0
286
     0
287
     3
288
     0
  0
ENDTAB
  0
TABLE
  2
BLOCK_RECORD
  5
1
330
0
100
AcDbSymbolTable
 70
     1
  0
BLOCK_RECORD
  5
1F
330
1
100
AcDbSymbolTableRecord
100
AcDbBlockTableRecord
  2
*MODEL_SPACE
  0
BLOCK_RECORD
  5
1B
330
1
100
AcDbSymbolTableRecord
100
AcDbBlockTableRecord
  2
*PAPER_SPACE
  0
ENDTAB
  0
ENDSEC
  0
SECTION
  2
BLOCKS
  0
BLOCK
  5
20
330
1F
100
AcDbEntity
  8
0
100
AcDbBlockBegin
  2
*MODEL_SPACE
 70
     0
 10
0.0
 20
0.0
 30
0.0
  3
*MODEL_SPACE
  1

  0
ENDBLK
  5
21
330
1F
100
AcDbEntity
  8
0
100
AcDbBlockEnd
  0
BLOCK
  5
1C
330
1B
100
AcDbEntity
 67
     1
  8
0
100
AcDbBlockBegin
  2
*PAPER_SPACE
  1

  0
ENDBLK
  5
1D
330
1B
100
AcDbEntity
 67
     1
  8
0
100
AcDbBlockEnd
  0
ENDSEC
  0
SECTION
  2
ENTITIES
  0
LWPOLYLINE
  5
100
100
AcDbEntity
  8
Layer_1
 62
7
100
AcDbPolyline
 90
136
 70
1
 10
4.966537
 20
7.722090
 30
0.0
 10
4.768920
 20
7.687790
 30
0.0
 10
4.737678
 20
7.971680
 30
0.0
 10
4.861969
 20
8.087170
 30
0.0
 10
4.649288
 20
8.024870
 30
0.0
 10
4.591774
 20
7.785010
 30
0.0
 10
3.823642
 20
6.962800
 30
0.0
 10
3.259728
 20
7.471100
 30
0.0
 10
3.195328
 20
7.743990
 30
0.0
 10
3.387147
 20
7.936790
 30
0.0
 10
3.325961
 20
8.047410
 30
0.0
 10
3.058926
 20
7.718750
 30
0.0
 10
3.179411
 20
7.364000
 30
0.0
 10
3.547545
 20
6.982480
 30
0.0
 10
3.058926
 20
6.560790
 30
0.0
 10
2.469904
 20
6.788350
 30
0.0
 10
1.974606
 20
7.417550
 30
0.0
 10
1.860824
 20
7.799060
 30
0.0
 10
1.973338
 20
8.033020
 30
0.0
 10
2.282511
 20
8.267590
 30
0.0
 10
2.222255
 20
8.347890
 30
0.0
 10
1.720253
 20
8.086860
 30
0.0
 10
1.492689
 20
7.571450
 30
0.0
 10
1.660023
 20
6.995840
 30
0.0
 10
1.974606
 20
6.708020
 30
0.0
 10
2.402971
 20
6.453670
 30
0.0
 10
2.884887
 20
6.199340
 30
0.0
 10
2.764427
 20
5.670540
 30
0.0
 10
1.619853
 20
5.429600
 30
0.0
 10
1.218251
 20
5.242180
 30
0.0
 10
0.990687
 20
4.954360
 30
0.0
 10
0.602467
 20
4.840580
 30
0.0
 10
0.207569
 20
4.539380
 30
0.0
 10
0.066998
 20
4.184630
 30
0.0
 10
0.080405
 20
3.910210
 30
0.0
 10
0.006768
 20
3.655860
 30
0.0
 10
0.026853
 20
3.522000
 30
0.0
 10
0.200865
 20
3.535300
 30
0.0
 10
0.214246
 20
3.776270
 30
0.0
 10
0.495388
 20
4.351890
 30
0.0
 10
0.843438
 20
4.492450
 30
0.0
 10
1.245044
 20
4.492450
 30
0.0
 10
1.666705
 20
4.934200
 30
0.0
 10
2.148648
 20
5.114940
 30
0.0
 10
2.623861
 20
5.007840
 30
0.0
 10
2.516783
 20
4.164500
 30
0.0
 10
2.463231
 20
3.086850
 30
0.0
 10
2.583716
 20
2.424210
 30
0.0
 10
1.987992
 20
1.922210
 30
0.0
 10
1.807276
 20
1.661180
 30
0.0
 10
1.666705
 20
1.353280
 30
0.0
 10
1.398997
 20
1.098930
 30
0.0
 10
1.231663
 20
0.670570
 30
0.0
 10
1.251722
 20
0.456380
 30
0.0
 10
1.372207
 20
0.208720
 30
0.0
 10
1.419055
 20
0.006520
 30
0.0
 10
1.539541
 20
0.006520
 30
0.0
 10
1.473358
 20
0.432100
 30
0.0
 10
1.619856
 20
0.824520
 30
0.0
 10
1.874209
 20
1.072170
 30
0.0
 10
2.087511
 20
1.311320
 30
0.0
 10
2.322659
 20
1.714720
 30
0.0
 10
2.623860
 20
2.015910
 30
0.0
 10
2.757727
 20
2.062710
 30
0.0
 10
3.279814
 20
1.199280
 30
0.0
 10
3.882217
 20
0.657130
 30
0.0
 10
4.303878
 20
0.536650
 30
0.0
 10
4.919688
 20
0.523350
 30
0.0
 10
4.962288
 20
0.523350
 30
0.0
 10
5.696105
 20
0.536650
 30
0.0
 10
6.117792
 20
0.657130
 30
0.0
 10
6.720195
 20
1.199280
 30
0.0
 10
7.242256
 20
2.062710
 30
0.0
 10
7.376124
 20
2.015910
 30
0.0
 10
7.677325
 20
1.714720
 30
0.0
 10
7.912499
 20
1.311320
 30
0.0
 10
8.125801
 20
1.072170
 30
0.0
 10
8.380128
 20
0.824520
 30
0.0
 10
8.526652
 20
0.432100
 30
0.0
 10
8.460444
 20
0.006520
 30
0.0
 10
8.580930
 20
0.006520
 30
0.0
 10
8.627780
 20
0.208720
 30
0.0
 10
8.748265
 20
0.456380
 30
0.0
 10
8.768348
 20
0.670570
 30
0.0
 10
8.601014
 20
1.098930
 30
0.0
 10
8.333280
 20
1.353280
 30
0.0
 10
8.192735
 20
1.661180
 30
0.0
 10
8.011994
 20
1.922210
 30
0.0
 10
7.416295
 20
2.424210
 30
0.0
 10
7.536780
 20
3.086850
 30
0.0
 10
7.483230
 20
4.164500
 30
0.0
 10
7.376126
 20
5.007840
 30
0.0
 10
7.851365
 20
5.114940
 30
0.0
 10
8.333282
 20
4.934200
 30
0.0
 10
8.754968
 20
4.492450
 30
0.0
 10
9.156569
 20
4.492450
 30
0.0
 10
9.504620
 20
4.351890
 30
0.0
 10
9.785735
 20
3.776270
 30
0.0
 10
9.799110
 20
3.535300
 30
0.0
 10
9.973148
 20
3.522000
 30
0.0
 10
9.993231
 20
3.655860
 30
0.0
 10
9.919589
 20
3.910210
 30
0.0
 10
9.932964
 20
4.184630
 30
0.0
 10
9.792418
 20
4.539380
 30
0.0
 10
9.397495
 20
4.840580
 30
0.0
 10
9.009300
 20
4.954360
 30
0.0
 10
8.781711
 20
5.242180
 30
0.0
 10
8.380110
 20
5.429600
 30
0.0
 10
7.235561
 20
5.670540
 30
0.0
 10
7.115075
 20
6.199340
 30
0.0
 10
7.596992
 20
6.453670
 30
0.0
 10
8.025382
 20
6.708020
 30
0.0
 10
8.339965
 20
6.995840
 30
0.0
 10
8.507299
 20
7.571450
 30
0.0
 10
8.279709
 20
8.086860
 30
0.0
 10
7.777707
 20
8.347890
 30
0.0
 10
7.717479
 20
8.267590
 30
0.0
 10
8.026627
 20
8.033020
 30
0.0
 10
8.139166
 20
7.799060
 30
0.0
 10
8.025384
 20
7.417550
 30
0.0
 10
7.530060
 20
6.788350
 30
0.0
 10
6.941065
 20
6.560790
 30
0.0
 10
6.452445
 20
6.982480
 30
0.0
 10
6.820579
 20
7.364000
 30
0.0
 10
6.941065
 20
7.718750
 30
0.0
 10
6.674030
 20
8.047410
 30
0.0
 10
6.612816
 20
7.936790
 30
0.0
 10
6.804635
 20
7.743990
 30
0.0
 10
6.740263
 20
7.471100
 30
0.0
 10
6.176323
 20
6.962800
 30
0.0
 10
5.408191
 20
7.785010
 30
0.0
 10
5.350705
 20
8.024870
 30
0.0
 10
5.137998
 20
8.087170
 30
0.0
 10
5.262289
 20
7.971680
 30
0.0
 10
5.231075
 20
7.687790
 30
0.0
 10
5.053538
 20
7.722090
 30
0.0
  0
ENDSEC
  0
SECTION
  2
OBJECTS
  0
DICTIONARY
  5
C
330
0
100
AcDbDictionary
  3
ACAD_GROUP
350
D
  3
ACAD_MLINESTYLE
350
17
  0
DICTIONARY
  5
D
330
C
100
AcDbDictionary
  0
DICTIONARY
  5
1A
330
C
100
AcDbDictionary
  0
DICTIONARY
  5
17
330
C
100
AcDbDictionary
  3
STANDARD
350
18
  0
DICTIONARY
  5
19
330
C
100
AcDbDictionary
  0
ENDSEC
  0
EOF
