<?xml version="1.0" encoding="UTF-8" standalone="no"?>
<!-- Created with Inkscape (http://www.inkscape.org/) -->

<svg
   xmlns:dc="http://purl.org/dc/elements/1.1/"
   xmlns:cc="http://creativecommons.org/ns#"
   xmlns:rdf="http://www.w3.org/1999/02/22-rdf-syntax-ns#"
   xmlns:svg="http://www.w3.org/2000/svg"
   xmlns="http://www.w3.org/2000/svg"
   xmlns:sodipodi="http://sodipodi.sourceforge.net/DTD/sodipodi-0.dtd"
   xmlns:inkscape="http://www.inkscape.org/namespaces/inkscape"
   width="210mm"
   height="297mm"
   viewBox="0 0 210 297"
   version="1.1"
   id="svg1078"
   inkscape:version="0.92.3 (2405546, 2018-03-11)"
   sodipodi:docname="power.svg">
  <defs
     id="defs1072" />
  <sodipodi:namedview
     id="base"
     pagecolor="#ffffff"
     bordercolor="#666666"
     borderopacity="1.0"
     inkscape:pageopacity="0.0"
     inkscape:pageshadow="2"
     inkscape:zoom="2.8"
     inkscape:cx="167.5666"
     inkscape:cy="932.57589"
     inkscape:document-units="mm"
     inkscape:current-layer="layer1"
     showgrid="false"
     inkscape:snap-global="false"
     inkscape:window-width="1280"
     inkscape:window-height="885"
     inkscape:window-x="0"
     inkscape:window-y="0"
     inkscape:window-maximized="1" />
  <metadata
     id="metadata1075">
    <rdf:RDF>
      <cc:Work
         rdf:about="">
        <dc:format>image/svg+xml</dc:format>
        <dc:type
           rdf:resource="http://purl.org/dc/dcmitype/StillImage" />
        <dc:title></dc:title>
      </cc:Work>
    </rdf:RDF>
  </metadata>
  <g
     inkscape:label="Layer 1"
     inkscape:groupmode="layer"
     id="layer1">
    <text
       xml:space="preserve"
       style="font-style:normal;font-variant:normal;font-weight:normal;font-stretch:normal;font-size:4.23333311px;line-height:1.25;font-family:sans-serif;-inkscape-font-specification:'sans-serif, Normal';font-variant-ligatures:normal;font-variant-caps:normal;font-variant-numeric:normal;font-feature-settings:normal;text-align:start;letter-spacing:0px;word-spacing:0px;writing-mode:lr-tb;text-anchor:start;fill:#000000;fill-opacity:1;stroke:none;stroke-width:0.26458332"
       x="21.922617"
       y="33.172619"
       id="text1625"><tspan
         sodipodi:role="line"
         id="tspan1623"
         x="21.922617"
         y="33.172619"
         style="stroke-width:0.26458332;font-size:9.87777778px">Power distribution unit</tspan></text>
    <rect
       style="opacity:1;fill:none;stroke:#000080;stroke-width:0.40000001;stroke-miterlimit:3.5999999;stroke-dasharray:none"
       id="rect1627"
       width="30"
       height="2.54"
       x="30.735994"
       y="49.775688" />
    <rect
       y="52.315689"
       x="30.735994"
       height="2.54"
       width="30"
       id="rect1629"
       style="opacity:1;fill:none;stroke:#000080;stroke-width:0.40000001;stroke-miterlimit:3.5999999;stroke-dasharray:none" />
    <rect
       style="opacity:1;fill:none;stroke:#000080;stroke-width:0.40000001;stroke-miterlimit:3.5999999;stroke-dasharray:none"
       id="rect1631"
       width="30"
       height="2.54"
       x="30.735994"
       y="54.85569" />
    <text
       xml:space="preserve"
       style="font-style:normal;font-variant:normal;font-weight:normal;font-stretch:normal;font-size:4.23333311px;line-height:1.25;font-family:sans-serif;-inkscape-font-specification:'sans-serif, Normal';font-variant-ligatures:normal;font-variant-caps:normal;font-variant-numeric:normal;font-feature-settings:normal;text-align:start;letter-spacing:0px;word-spacing:0px;writing-mode:lr-tb;text-anchor:start;fill:#000000;fill-opacity:1;stroke:none;stroke-width:0.26458332"
       x="13.22917"
       y="80.608635"
       id="text1635"><tspan
         sodipodi:role="line"
         id="tspan1633"
         x="13.22917"
         y="80.608635"
         style="stroke-width:0.26458332">Veroboard / stripboard</tspan><tspan
         sodipodi:role="line"
         x="13.22917"
         y="85.900299"
         style="stroke-width:0.26458332"
         id="tspan1637" /></text>
    <path
       style="fill:none;stroke:#ff0000;stroke-width:0.26458332px;stroke-linecap:butt;stroke-linejoin:miter;stroke-opacity:1"
       d="m 37.417734,50.911582 c 0.06682,-0.133636 0.133633,-0.267269 0.200451,-0.400905 0,-0.06682 -0.02482,-0.138414 0,-0.200453 0.02339,-0.05849 0.09584,-0.08324 0.133636,-0.133633 0.02988,-0.03984 0.04832,-0.0874 0.06682,-0.133636 0.05231,-0.130789 0.08909,-0.267269 0.133633,-0.400905 0.02228,-0.06681 0.05154,-0.131696 0.06682,-0.200451 0.02939,-0.132252 0.03743,-0.268652 0.06682,-0.400904 0.01527,-0.06876 0.05904,-0.13045 0.06682,-0.200451 0.01476,-0.132818 0,-0.267272 0,-0.400905 0,-0.267271 0,-0.53454 0,-0.801809 0,-0.400905 0,-0.801809 0,-1.202714 0,-0.11136 0,-0.222723 0,-0.334086 0,-0.06682 0.0083,-0.134149 0,-0.200451 -0.01408,-0.112692 -0.04455,-0.222727 -0.06682,-0.334087 -0.06682,-0.334087 -0.133636,-0.668174 -0.200454,-1.002263 -0.02228,-0.11136 -0.04218,-0.223221 -0.06682,-0.334087 -0.01992,-0.08964 -0.05543,-0.176146 -0.06682,-0.267269 -0.01106,-0.0884 0.02162,-0.18084 0,-0.267268 -0.02416,-0.09663 -0.09866,-0.174006 -0.133636,-0.267269 -0.03224,-0.08599 -0.04454,-0.178181 -0.06682,-0.267272 -0.06682,-0.11136 -0.149293,-0.214717 -0.200451,-0.334086 -0.01754,-0.04094 0.02471,-0.09657 0,-0.133634 -0.06989,-0.104833 -0.194037,-0.164745 -0.267268,-0.267271 -0.04094,-0.05731 -0.03532,-0.137454 -0.06682,-0.200451 -0.189921,-0.379841 -0.06011,-0.04406 -0.267269,-0.334087 -0.07549,-0.10568 -0.124968,-0.228407 -0.200454,-0.334087 -0.03661,-0.05126 -0.09331,-0.08524 -0.133635,-0.133635 -0.07129,-0.08555 -0.121706,-0.188524 -0.200451,-0.267269 -0.03522,-0.03522 -0.09842,-0.0316 -0.133636,-0.06682 -0.19453,-0.19453 0.0609,-0.07274 -0.133633,-0.267269 -0.05678,-0.05678 -0.143669,-0.07685 -0.200454,-0.133636 -0.03522,-0.03522 -0.0316,-0.09842 -0.06682,-0.133633 -0.05678,-0.05678 -0.143666,-0.07685 -0.200451,-0.133635 -0.07875,-0.07875 -0.127119,-0.18346 -0.200451,-0.267269 -0.08297,-0.09482 -0.178181,-0.178181 -0.267271,-0.267269 -0.06681,-0.06682 -0.128707,-0.138957 -0.200451,-0.200454 -0.08455,-0.07247 -0.188524,-0.121705 -0.267269,-0.200451 -0.07874,-0.07874 -0.116644,-0.193937 -0.200454,-0.267271 -0.09774,-0.08552 -0.227692,-0.125976 -0.334086,-0.200451 -0.116832,-0.08178 -0.221515,-0.179713 -0.334087,-0.267269 -0.08791,-0.06837 -0.176649,-0.135726 -0.267269,-0.200454 -0.06535,-0.04668 -0.137745,-0.08347 -0.200454,-0.133633 -0.04919,-0.03935 -0.07961,-0.101224 -0.133633,-0.133636 -0.288258,-0.172955 -0.101213,-0.0086 -0.334086,-0.06682 -0.09663,-0.02416 -0.172776,-0.102138 -0.267272,-0.133634 -0.02114,-0.007 -0.04498,0.0044 -0.06682,0 -0.09005,-0.01802 -0.176689,-0.05172 -0.267272,-0.06682 -0.08788,-0.01466 -0.179908,0.01746 -0.267269,0 -0.138128,-0.02763 -0.262776,-0.106011 -0.400904,-0.133636 -0.04368,-0.0087 -0.08909,0 -0.133633,0 -0.08909,0 -0.178869,0.01106 -0.267272,0 -0.09112,-0.0114 -0.17636,-0.05383 -0.267269,-0.06682 -0.06614,-0.0094 -0.133635,0 -0.200451,0 -0.03307,0 -0.434649,0 -0.467722,0 -0.400905,0 -0.801809,0 -1.202714,0 -2.115883,0 -4.231766,0 -6.34765,0"
       id="path1641"
       inkscape:connector-curvature="0" />
    <text
       xml:space="preserve"
       style="font-style:normal;font-variant:normal;font-weight:normal;font-stretch:normal;font-size:4.23333311px;line-height:1.25;font-family:sans-serif;-inkscape-font-specification:'sans-serif, Normal';font-variant-ligatures:normal;font-variant-caps:normal;font-variant-numeric:normal;font-feature-settings:normal;text-align:start;letter-spacing:0px;word-spacing:0px;writing-mode:lr-tb;text-anchor:start;fill:#000000;fill-opacity:1;stroke:none;stroke-width:0.26458332"
       x="15.902538"
       y="40.621704"
       id="text1649"><tspan
         sodipodi:role="line"
         id="tspan1647"
         x="15.902538"
         y="40.621704"
         style="stroke-width:0.26458332">B1</tspan></text>
    <path
       style="fill:none;stroke:#000000;stroke-width:0.26458332px;stroke-linecap:butt;stroke-linejoin:miter;stroke-opacity:1"
       d="m 44.299922,51.045215 c 0,-0.712719 0,-1.425437 0,-2.138156 0,-0.08909 0,-0.178178 0,-0.267269 0,-0.08909 -0.0098,-0.178723 0,-0.267269 0.0067,-0.06016 0.10246,-0.518223 0.133636,-0.601355 0.03498,-0.09327 0.109477,-0.170641 0.133636,-0.267272 0.02162,-0.08643 -0.02817,-0.18275 0,-0.267269 0.04107,-0.123205 0.137382,-0.220559 0.200451,-0.334086 0.04837,-0.08707 0.09664,-0.174789 0.133636,-0.267269 0.04454,-0.133636 0.08909,-0.267272 0.133633,-0.400905 0.04454,-0.06682 0.10102,-0.127068 0.133636,-0.200453 0.05721,-0.128723 0.07064,-0.27491 0.133635,-0.400902 0.0498,-0.09961 0.138679,-0.174612 0.200451,-0.267272 0.07204,-0.108058 0.133636,-0.222723 0.200454,-0.334087 0.06681,-0.11136 0.128413,-0.226028 0.200451,-0.334086 0.06177,-0.09266 0.143155,-0.171778 0.200451,-0.267269 0.07687,-0.128117 0.133636,-0.267269 0.200453,-0.400905 0.04455,-0.08909 0.07838,-0.184393 0.133634,-0.267269 0.294833,-0.442248 0.211611,-0.224607 0.53454,-0.601358 0.05226,-0.06097 0.07685,-0.143666 0.133636,-0.200451 0.05678,-0.05678 0.143666,-0.07685 0.200451,-0.133635 0.07875,-0.07875 0.121708,-0.188524 0.200453,-0.267269 0.07874,-0.07875 0.188524,-0.121706 0.267269,-0.200451 0.03522,-0.03522 0.02793,-0.102524 0.06682,-0.133636 0.07778,-0.06222 0.184391,-0.07838 0.267269,-0.133636 0.05242,-0.03494 0.08444,-0.09428 0.133633,-0.133633 0.06271,-0.05017 0.137747,-0.08347 0.200454,-0.133636 0.04919,-0.03935 0.08122,-0.09869 0.133635,-0.133633 0.08288,-0.05525 0.184391,-0.07838 0.267269,-0.133636 0.05242,-0.03494 0.07962,-0.101224 0.133633,-0.133635 0.0604,-0.03624 0.137457,-0.03532 0.200454,-0.06682 0.07183,-0.03591 0.130728,-0.09379 0.200451,-0.133633 0.08648,-0.04942 0.18079,-0.08422 0.267271,-0.133636 0.06972,-0.03984 0.128625,-0.09772 0.200451,-0.133633 0.107278,-0.05364 0.226809,-0.08 0.334087,-0.133636 0.07183,-0.03591 0.128625,-0.09772 0.200451,-0.133636 0.063,-0.0315 0.133636,-0.04454 0.200454,-0.06682 0.111363,-0.04454 0.226808,-0.08 0.334086,-0.133634 0.07183,-0.03591 0.12427,-0.108241 0.200451,-0.133635 0.06339,-0.02114 0.137065,0.02114 0.200454,0 0.07618,-0.0254 0.128625,-0.09772 0.200451,-0.133633 0.063,-0.0315 0.135715,-0.03907 0.200454,-0.06682 0.09155,-0.03924 0.174786,-0.09664 0.267268,-0.133636 0.02069,-0.0083 0.0469,0.0099 0.06682,0 0.07183,-0.03591 0.128625,-0.09772 0.200451,-0.133633 0.063,-0.0315 0.13139,-0.05301 0.200454,-0.06682 0.04368,-0.0087 0.09379,0.01992 0.133633,0 0.05635,-0.02817 0.07962,-0.101224 0.133636,-0.133636 0.06039,-0.03624 0.135059,-0.04066 0.200451,-0.06682 0.04624,-0.01849 0.08739,-0.04832 0.133635,-0.06682 0.0073,-0.0029 0.398847,-0.132459 0.400905,-0.133634 0.09669,-0.05525 0.17058,-0.1452 0.267269,-0.200453 0.122304,-0.06989 0.271431,-0.07814 0.400905,-0.133633 0.09155,-0.03924 0.175717,-0.0944 0.267268,-0.133636 0.06474,-0.02774 0.135716,-0.03907 0.200454,-0.06682 0.09155,-0.03924 0.174006,-0.09866 0.267269,-0.133633 0.08598,-0.03225 0.181284,-0.03457 0.267269,-0.06682 0.09326,-0.03498 0.175717,-0.0944 0.267271,-0.133636 0.06474,-0.02774 0.134504,-0.04209 0.200451,-0.06682 0.112305,-0.04211 0.2203,-0.09571 0.334087,-0.133633 0.265274,-0.08843 0.261223,-0.06682 0.53454,-0.06682 0.08909,0 0.180301,0.01931 0.267269,0 0.117084,-0.02601 0.216474,-0.110111 0.334087,-0.133635 0.109199,-0.02183 0.223406,0.0123 0.334087,0 0.09127,-0.01013 0.178178,-0.04454 0.267268,-0.06682 0.133636,-0.02228 0.265983,-0.05455 0.400905,-0.06682 0.110905,-0.01008 0.222724,0 0.334087,0 0.133635,0 0.267269,0 0.400904,0 0.08909,0 0.179076,0.01259 0.267269,0 0.06973,-0.01 0.13098,-0.05524 0.200454,-0.06682 0.109847,-0.01831 0.222723,0 0.334087,0 0.04455,0 0.09042,0.0108 0.133633,0 0.04832,-0.01206 0.08639,-0.05107 0.133635,-0.06682 0.03984,-0.01328 0.336167,0 0.400905,0"
       id="path1651"
       inkscape:connector-curvature="0" />
    <path
       style="fill:none;stroke:#ff0000;stroke-width:0.26458332px;stroke-linecap:butt;stroke-linejoin:miter;stroke-opacity:1"
       d="m 49.378044,51.045215 c -0.13113,-0.786778 -0.08224,-0.107889 0,-0.601355 0.04686,-0.281176 -0.07053,-0.126215 0.06682,-0.400905 0.03591,-0.07183 0.103812,-0.125891 0.133636,-0.200451 0.01654,-0.04136 -0.01654,-0.09228 0,-0.133636 0.02982,-0.07456 0.09772,-0.128624 0.133633,-0.200451 0.0315,-0.063 0.04454,-0.133635 0.06682,-0.200453 0.02228,-0.06682 0.04455,-0.133633 0.06682,-0.200451 0.02228,-0.06682 0.03058,-0.140057 0.06682,-0.200454 0.03241,-0.05402 0.08909,-0.08909 0.133633,-0.133633 0.04455,-0.06682 0.09464,-0.130254 0.133636,-0.200454 0.07256,-0.130606 0.127894,-0.270298 0.200451,-0.400904 0.078,-0.140396 0.187587,-0.261456 0.267272,-0.400902 0.0036,-0.0063 0.265744,-0.532405 0.267268,-0.534541 0.05492,-0.07689 0.13996,-0.127859 0.200451,-0.200451 0.05141,-0.06169 0.07195,-0.149042 0.133636,-0.200453 0.07652,-0.06376 0.184394,-0.07838 0.267269,-0.133633 0.05242,-0.03495 0.08444,-0.09428 0.133636,-0.133636 0.06271,-0.05016 0.135107,-0.08696 0.200451,-0.133636 0.274433,-0.196022 0.215773,-0.176617 0.467722,-0.334086 0.431327,-0.269579 0.872831,-0.524301 1.336347,-0.734992 0.308838,-0.14038 0.624644,-0.264927 0.935445,-0.400904 0.200967,-0.08792 0.398521,-0.183748 0.601356,-0.267269 0.175963,-0.07246 0.360645,-0.123166 0.53454,-0.200451 0.22755,-0.101135 0.44286,-0.228058 0.668173,-0.334087 0.208886,-0.0983 0.988095,-0.415557 1.135896,-0.467722 0.260244,-0.09185 0.745456,-0.19879 1.00226,-0.267269 0.449541,-0.119878 0.895102,-0.253823 1.336347,-0.400905 0.133636,-0.04454 0.270878,-0.07946 0.400905,-0.133636 0.260633,-0.0016 0.390588,-0.243758 0.601356,-0.334086 0.168814,-0.07235 0.365725,-0.06129 0.53454,-0.133636 0.07381,-0.03163 0.128624,-0.09772 0.200451,-0.133633 0.01992,-0.01 0.04569,0.007 0.06682,0 0.04725,-0.01574 0.0848,-0.05705 0.133636,-0.06682 0.06552,-0.0131 0.133633,0 0.20045,0 0.04455,0 0.09138,0.01408 0.133636,0 0.05976,-0.01992 0.07387,-0.113713 0.133633,-0.133636 0.0619,-0.02064 0.270063,0.02135 0.334087,0 0.04725,-0.01574 0.08639,-0.05107 0.133636,-0.06682 0.05724,-0.01908 0.208322,0.01474 0.267269,0 0.04832,-0.01209 0.08639,-0.05107 0.133635,-0.06682 0.04226,-0.01408 0.08909,0 0.133636,0 0.06681,0 0.133633,0 0.200451,0 0.04454,0 0.09138,0.01408 0.133636,0 0.04725,-0.01574 0.08532,-0.05474 0.133633,-0.06682 0.08643,-0.02162 0.182753,0.02817 0.267269,0 0.02988,-0.01 0.03865,-0.05273 0.06682,-0.06682 0.01992,-0.0099 0.04454,0 0.06682,0 0.04455,0 0.09042,0.0108 0.133635,0 0.04832,-0.01206 0.08639,-0.05107 0.133633,-0.06682 0.02114,-0.007 0.04455,0 0.06682,0 0.04455,0 0.08909,0 0.133636,0 0.05379,0 0.22533,0.01397 0.267269,0 0.04725,-0.01574 0.08639,-0.05107 0.133636,-0.06681 0.02114,-0.007 0.06682,-0.02228 0.06682,0 0,0.02228 -0.04455,0 -0.06682,0"
       id="path1653"
       inkscape:connector-curvature="0" />
    <text
       xml:space="preserve"
       style="font-style:normal;font-variant:normal;font-weight:normal;font-stretch:normal;font-size:4.23333311px;line-height:1.25;font-family:sans-serif;-inkscape-font-specification:'sans-serif, Normal';font-variant-ligatures:normal;font-variant-caps:normal;font-variant-numeric:normal;font-feature-settings:normal;text-align:start;letter-spacing:0px;word-spacing:0px;writing-mode:lr-tb;text-anchor:start;fill:#000000;fill-opacity:1;stroke:none;stroke-width:0.26458332"
       x="62.541069"
       y="39.619446"
       id="text1657"><tspan
         sodipodi:role="line"
         id="tspan1655"
         x="62.541069"
         y="39.619446"
         style="stroke-width:0.26458332">B2 (picoblade conn.)</tspan></text>
    <path
       inkscape:connector-curvature="0"
       id="path1663"
       d="M 47.719493,49.803571 45.617,52.09505 l 0.165365,-2.338728 2.055246,2.196988 z"
       style="fill:none;stroke:#000000;stroke-width:0.26458332px;stroke-linecap:butt;stroke-linejoin:miter;stroke-opacity:1" />
    <path
       style="fill:none;stroke:#000000;stroke-width:0.26458332px;stroke-linecap:butt;stroke-linejoin:miter;stroke-opacity:1"
       d="m 59.43406,50.9784 c 0.222726,0 0.44545,0 0.668173,0 0.08909,0 0.178319,-0.0049 0.267272,0 0.111744,0.0062 0.222723,0.02228 0.334087,0.03341 0.11136,0.01114 0.224342,0.01146 0.334086,0.03341 0.114007,0.02281 0.219874,0.07847 0.334087,0.100227 0.12083,0.02302 0.244996,0.02228 0.367496,0.03341 0.122496,0.01114 0.245046,0.02175 0.367495,0.03341 0.111414,0.01061 0.222309,0.02782 0.334087,0.03341 0.111223,0.0056 0.222724,0 0.334087,0 0.178178,0 0.356359,0 0.534537,0 0.523404,0 1.046809,0 1.57021,0"
       id="path1671"
       inkscape:connector-curvature="0" />
    <path
       style="fill:none;stroke:#000000;stroke-width:0.26458332px;stroke-linecap:butt;stroke-linejoin:miter;stroke-opacity:1"
       d="m 59.133382,53.450643 c 1.659297,0 3.318597,0 4.977895,0"
       id="path1673"
       inkscape:connector-curvature="0" />
    <path
       style="fill:none;stroke:#000000;stroke-width:0.26458332px;stroke-linecap:butt;stroke-linejoin:miter;stroke-opacity:1"
       d="m 64.712635,51.21226 c 0.05568,0 0.113503,0.01529 0.167042,0 0.003,-7.94e-4 0.119727,-0.121714 0.133636,-0.133636 0.285512,-0.244724 0.06257,-0.02916 0.267269,-0.23386 0.267268,-0.267269 0.534537,-0.53454 0.801809,-0.801809 0.04454,-0.04454 0.08524,-0.09331 0.133633,-0.133633 0.03085,-0.02572 0.07183,-0.03843 0.100227,-0.06682 0.01759,-0.01762 0.01114,-0.05568 0.03341,-0.06682 0.02988,-0.01495 0.07034,0.01495 0.100226,0 0.02228,-0.01114 0.0158,-0.04921 0.03341,-0.06682 0.0021,-0.0021 0.12741,-0.06267 0.133633,-0.06682 0.03931,-0.02622 0.06243,-0.07188 0.100227,-0.100224 0.01992,-0.01495 0.04921,-0.01579 0.06682,-0.03341 0.01762,-0.01759 0.0158,-0.04921 0.03341,-0.06682 0.01762,-0.01762 0.04921,-0.01579 0.06682,-0.03341 0.01762,-0.01762 0.0158,-0.04921 0.03341,-0.06682 0.0079,-0.0079 0.02553,0.0079 0.03341,0 0.0079,-0.0079 -0.0079,-0.02553 0,-0.03341 0.0079,-0.0079 0.02553,0.0079 0.03341,0 0.0079,-0.0079 -0.0079,-0.02553 0,-0.03341 0.0079,-0.0079 0.02283,0.0035 0.03341,0 0.02363,-0.0079 0.04921,-0.0158 0.06682,-0.03341 0.0079,-0.0079 -0.0079,-0.02553 0,-0.03341 0.0079,-0.0079 0.02553,0.0079 0.03341,0 0.0079,-0.0079 -0.0079,-0.02553 0,-0.03341 0.0079,-0.0079 0.02344,0.005 0.03341,0 0.01408,-0.007 0.02228,-0.02228 0.03341,-0.03341 0.01114,-0.01114 0.02228,-0.02228 0.03341,-0.03341"
       id="path1675"
       inkscape:connector-curvature="0" />
    <path
       style="fill:none;stroke:#000000;stroke-width:0.26458332px;stroke-linecap:butt;stroke-linejoin:miter;stroke-opacity:1"
       d="m 67.35192,51.379302 c 0.123999,-0.05586 0.238466,-0.0205 0.367495,-0.03341 0.0674,-0.0067 0.133049,-0.02667 0.200454,-0.03341 0.04432,-0.0044 0.08936,0.0049 0.133633,0 0.05644,-0.0063 0.111363,-0.02228 0.167045,-0.03341 0.11403,-0.02281 0.25351,-0.05257 0.367495,-0.06682 0.05525,-0.0069 0.111361,0 0.167043,0 0.06682,0 0.133635,0 0.200453,0 0.267269,0 0.534538,0 0.801807,0 0.155908,0 0.311816,0 0.467722,0 0.0081,0 0.09915,-0.0011 0.100227,0 0.0079,0.0079 0,0.02228 0,0.03341 0,0.169299 0.01,-0.03984 -0.03341,0.133633 -0.0076,0.03029 0,0.128236 0,0.167045 0,0.111363 0,0.222723 0,0.334086 0,0.02447 0.0066,0.167267 0,0.200451 -0.01381,0.06906 -0.053,0.13139 -0.06682,0.200454 -0.0044,0.02183 0.0054,0.04521 0,0.06682 -0.006,0.02416 -0.02853,0.0424 -0.03341,0.06682 -0.01093,0.0546 0.01349,0.113024 0,0.167042 -0.006,0.02416 -0.02416,0.0437 -0.03341,0.06682 -0.01307,0.0327 -0.02032,0.06753 -0.03341,0.100226 -0.0092,0.02313 -0.02737,0.04266 -0.03341,0.06682 -0.0054,0.02162 0.0054,0.04521 0,0.06682 -0.006,0.02416 -0.02416,0.0437 -0.03341,0.06682 -0.01307,0.0327 -0.02032,0.06753 -0.03341,0.100227 -0.0093,0.02313 -0.02737,0.04266 -0.03341,0.06682 -0.0108,0.04321 0.0087,0.08995 0,0.133633 0.06499,0.09282 -0.05474,0.08532 -0.06682,0.133636 -0.0081,0.03241 0.0055,0.06727 0,0.100227 -0.0058,0.03473 -0.02487,0.06606 -0.03341,0.100224 -0.0027,0.01079 0.005,0.02344 0,0.03341 -0.007,0.01408 -0.02635,0.01931 -0.03341,0.03341 -0.0099,0.01992 0.01574,0.05107 0,0.06682 -0.0013,0.0013 -0.121364,0 -0.133633,0 -0.267271,0 -0.53454,0 -0.801809,0 -0.200453,0 -0.400904,0 -0.601358,0 -0.07795,0 -0.156078,0.0052 -0.23386,0 -0.302805,-0.02019 -0.215752,-0.04088 -0.501129,-0.06682 -0.04436,-0.004 -0.08927,0.004 -0.133635,0 -0.156843,-0.01426 -0.311815,-0.04454 -0.467723,-0.06682 -0.07795,-0.01114 -0.155906,-0.02228 -0.23386,-0.03341 -0.07795,-0.01114 -0.155316,-0.0278 -0.23386,-0.03341 -0.133297,-0.0095 -0.267271,0 -0.400904,0 -0.334087,0 -0.668176,0 -1.002263,0 -0.06681,0 -0.133633,0 -0.200451,0 -0.03341,0 -0.06747,0.0066 -0.100227,0 -0.02442,-0.0049 -0.04266,-0.02737 -0.06682,-0.03341 -0.02162,-0.0054 -0.04454,0 -0.06682,0 -0.05568,0 -0.111363,0 -0.167045,0 -0.178178,0 -0.356359,0 -0.534537,0"
       id="path1677"
       inkscape:connector-curvature="0" />
    <text
       xml:space="preserve"
       style="font-style:normal;font-variant:normal;font-weight:normal;font-stretch:normal;font-size:4.23333311px;line-height:1.25;font-family:sans-serif;-inkscape-font-specification:'sans-serif, Normal';font-variant-ligatures:normal;font-variant-caps:normal;font-variant-numeric:normal;font-feature-settings:normal;text-align:start;letter-spacing:0px;word-spacing:0px;writing-mode:lr-tb;text-anchor:start;fill:#000000;fill-opacity:1;stroke:none;stroke-width:0.26458332"
       x="68.487816"
       y="50.243408"
       id="text1681"><tspan
         sodipodi:role="line"
         id="tspan1679"
         x="68.487816"
         y="50.243408"
         style="stroke-width:0.26458332">SW</tspan></text>
    <text
       xml:space="preserve"
       style="font-style:normal;font-variant:normal;font-weight:normal;font-stretch:normal;font-size:4.23333311px;line-height:1.25;font-family:sans-serif;-inkscape-font-specification:'sans-serif, Normal';font-variant-ligatures:normal;font-variant-caps:normal;font-variant-numeric:normal;font-feature-settings:normal;text-align:start;letter-spacing:0px;word-spacing:0px;writing-mode:lr-tb;text-anchor:start;fill:#000000;fill-opacity:1;stroke:none;stroke-width:0.26458332"
       x="26.930803"
       y="54.90625"
       id="text1685"><tspan
         sodipodi:role="line"
         id="tspan1683"
         x="26.930803"
         y="54.90625"
         style="stroke-width:0.26458332">+</tspan></text>
    <text
       xml:space="preserve"
       style="font-style:normal;font-variant:normal;font-weight:normal;font-stretch:normal;font-size:4.23333311px;line-height:1.25;font-family:sans-serif;-inkscape-font-specification:'sans-serif, Normal';font-variant-ligatures:normal;font-variant-caps:normal;font-variant-numeric:normal;font-feature-settings:normal;text-align:start;letter-spacing:0px;word-spacing:0px;writing-mode:lr-tb;text-anchor:start;fill:#000000;fill-opacity:1;stroke:none;stroke-width:0.26458332"
       x="27.875742"
       y="58.119045"
       id="text1689"><tspan
         sodipodi:role="line"
         id="tspan1687"
         x="27.875742"
         y="58.119045"
         style="stroke-width:0.26458332">-</tspan></text>
    <path
       style="fill:none;stroke:#000000;stroke-width:0.26458332px;stroke-linecap:butt;stroke-linejoin:miter;stroke-opacity:1"
       d="m 32.600447,56.418154 c 0.119526,-0.169593 -0.05976,-0.387676 0,-0.566965 0.01408,-0.04226 0.063,-0.063 0.09449,-0.09449 0.0315,-0.09449 0.07812,-0.185233 0.09449,-0.283483 0.01553,-0.09321 0,-0.188987 0,-0.283483 0.0315,-0.09449 0.07496,-0.185811 0.09449,-0.283482 0.02471,-0.123545 -0.03056,-0.255746 0,-0.377976 0.03417,-0.136657 0.154824,-0.241318 0.188989,-0.377976 0.01527,-0.06112 -0.01992,-0.129225 0,-0.188986 0.01408,-0.04226 0.07457,-0.05465 0.09449,-0.0945 0.01408,-0.02817 -0.0099,-0.06461 0,-0.09449 0.02228,-0.06682 0.07741,-0.120661 0.0945,-0.18899 0.01527,-0.06111 -0.01992,-0.129225 0,-0.188986 0.01408,-0.04226 0.06978,-0.05743 0.09449,-0.09449 0.03907,-0.05861 0.06299,-0.125994 0.09449,-0.188989 0.0315,-0.063 0.07741,-0.12066 0.09449,-0.188989 0.03056,-0.12223 -0.03984,-0.258448 0,-0.377976 0.01408,-0.04226 0.063,-0.06299 0.0945,-0.09449 0.0315,-0.125992 0.06902,-0.250629 0.09449,-0.377976 0.0213,-0.106447 0,-0.263554 0,-0.377976 0,-0.220488 0,-0.440973 0,-0.661458 0,-0.0945 -0.02988,-0.193839 0,-0.283483 0.01407,-0.04226 0.07457,-0.05465 0.09449,-0.0945 0.01505,-0.03011 0,-0.388017 0,-0.47247 0,-0.103055 -0.0204,-0.69474 0,-0.755951 0.02228,-0.06682 0.07222,-0.122172 0.0945,-0.188989 0.01826,-0.05474 0,-0.296088 0,-0.377976 0,-0.346477 0,-0.692957 0,-1.039434 0,-0.314982 0,-0.62996 0,-0.944941 0,-0.07736 0.0204,-0.411245 0,-0.472469 -0.02228,-0.06682 -0.07741,-0.120661 -0.0945,-0.18899 -0.01527,-0.06112 0.01992,-0.129225 0,-0.188989 -0.01408,-0.04226 -0.07457,-0.05465 -0.09449,-0.09449 -0.01408,-0.02817 0.0099,-0.06461 0,-0.09449 -0.02228,-0.06682 -0.07222,-0.122172 -0.09449,-0.18899 -0.0099,-0.02988 0.0099,-0.06461 0,-0.09449 -0.04454,-0.133636 -0.144444,-0.24434 -0.188989,-0.377976 -0.0099,-0.02988 0.01746,-0.06829 0,-0.09449 -0.0927,-0.139046 -0.285279,-0.238932 -0.377976,-0.377978 -0.439698,-0.659546 0.419304,0.464579 -0.283482,-0.47247 -0.02673,-0.03564 -0.06978,-0.05743 -0.09449,-0.09449 -0.03907,-0.0586 -0.05223,-0.132643 -0.09449,-0.188989 -0.08018,-0.106908 -0.203303,-0.176575 -0.283482,-0.283483 -0.06814,-0.09085 -0.130559,-0.186097 -0.18899,-0.283482 -0.03624,-0.06039 -0.04469,-0.139184 -0.09449,-0.188987 -0.0498,-0.0498 -0.139187,-0.04469 -0.188989,-0.09449 -0.02228,-0.02228 0.02228,-0.07222 0,-0.0945 -0.0498,-0.0498 -0.132641,-0.05223 -0.188987,-0.09449 -0.07127,-0.05345 -0.114861,-0.139571 -0.188989,-0.188989 -0.02619,-0.01746 -0.06632,0.01407 -0.09449,0 -0.288166,-0.144082 0.172823,-0.07491 -0.283483,-0.188987 -0.06112,-0.01527 -0.127873,0.01527 -0.188989,0 -0.760058,-0.190016 0.196794,0.0031 -0.28348,-0.188989 -0.120581,-0.04823 -0.254772,-0.05343 -0.377978,-0.09449 -0.06682,-0.02228 -0.125992,-0.063 -0.188987,-0.09449 -0.186126,-0.09306 -0.373827,-0.206227 -0.566965,-0.283482 -0.583832,-0.233535 -0.02926,0.03262 -0.472469,-0.18899 -0.125992,-0.06299 -0.251984,-0.125991 -0.377976,-0.188986 -0.063,-0.0315 -0.12066,-0.07741 -0.188989,-0.0945 -0.06112,-0.01527 -0.127873,0.01527 -0.188989,0 -0.06833,-0.01709 -0.122169,-0.07222 -0.188987,-0.09449 -0.02988,-0.0099 -0.06394,0.0076 -0.09449,0 -0.09663,-0.02416 -0.185232,-0.07812 -0.283483,-0.09449 -0.155347,-0.0259 -0.314981,0 -0.472471,0 -0.063,0 -0.127874,0.01527 -0.188987,0 -0.06833,-0.01709 -0.120661,-0.07741 -0.188989,-0.09449 -0.12223,-0.03056 -0.255746,0.03056 -0.377976,0 -0.06833,-0.01709 -0.120659,-0.07741 -0.188988,-0.0945 -0.12223,-0.03056 -0.25845,0.03984 -0.377976,0 -0.04226,-0.01408 -0.05223,-0.08041 -0.09449,-0.09449 -0.05976,-0.01992 -0.125992,0 -0.188988,0 -0.188988,0 -0.377977,0 -0.566965,0 -0.47247,0 -0.94494,0 -1.41741,0 -0.157491,0 -0.314981,0 -0.472471,0 -0.0315,0 -0.07222,0.02228 -0.09449,0 -0.125992,-0.125992 0.15749,-0.09449 -0.09449,-0.09449"
       id="path1691"
       inkscape:connector-curvature="0" />
    <circle
       style="opacity:1;fill:none;stroke:#ff0000;stroke-width:0.40000001;stroke-miterlimit:3.5999999;stroke-dasharray:none"
       id="path1693"
       cx="40.892296"
       cy="53.606953"
       r="1" />
    <circle
       r="1"
       cy="53.606953"
       cx="46.231209"
       id="circle1695"
       style="opacity:1;fill:none;stroke:#ff0000;stroke-width:0.40000001;stroke-miterlimit:3.5999999;stroke-dasharray:none" />
    <circle
       style="opacity:1;fill:none;stroke:#ff0000;stroke-width:0.40000001;stroke-miterlimit:3.5999999;stroke-dasharray:none"
       id="circle1697"
       cx="51.664616"
       cy="53.559704"
       r="1" />
    <circle
       r="1"
       cy="56.111046"
       cx="40.845047"
       id="circle1699"
       style="opacity:1;fill:none;stroke:#000000;stroke-width:0.40000001;stroke-miterlimit:3.5999999;stroke-dasharray:none" />
    <circle
       style="opacity:1;fill:none;stroke:#000000;stroke-width:0.40000001;stroke-miterlimit:3.5999999;stroke-dasharray:none"
       id="circle1701"
       cx="46.278454"
       cy="56.111046"
       r="1" />
    <circle
       r="1"
       cy="56.20554"
       cx="51.853603"
       id="circle1703"
       style="opacity:1;fill:none;stroke:#000000;stroke-width:0.40000001;stroke-miterlimit:3.5999999;stroke-dasharray:none" />
    <path
       style="fill:none;stroke:#ff0000;stroke-width:0.26458332px;stroke-linecap:butt;stroke-linejoin:miter;stroke-opacity:1"
       d="m 51.688243,53.677827 c 0.125992,0.0315 0.251984,0.063 0.377975,0.09449 0.0315,0.0315 0.05224,0.08041 0.0945,0.09449 0.05976,0.01992 0.129226,-0.01992 0.188987,0 0.08452,0.02817 0.109305,0.149145 0.188989,0.188989 0.02817,0.01408 0.063,0 0.09449,0 0.063,0.0315 0.130387,0.05542 0.18899,0.09449 0.03706,0.02471 0.05465,0.07457 0.09449,0.09449 0.02817,0.01407 0.06829,-0.01746 0.09449,0 0.07413,0.04942 0.114861,0.13957 0.18899,0.188989 0.02622,0.01746 0.06632,-0.01408 0.09449,0 0.07968,0.03984 0.109304,0.149145 0.188989,0.188989 0.02817,0.01408 0.06632,-0.01408 0.09449,0 0.03984,0.01992 0.05743,0.06978 0.09449,0.09449 0.0586,0.03907 0.139186,0.04469 0.188989,0.09449 0.02228,0.02228 -0.02228,0.07222 0,0.09449 0.0498,0.0498 0.130384,0.05543 0.188986,0.0945 0.03707,0.02471 0.05743,0.06978 0.0945,0.09449 0.0176,0.01175 0.37192,0.182933 0.377976,0.188989 0.02228,0.02228 -0.02228,0.07222 0,0.09449 0.0498,0.0498 0.139184,0.04469 0.188987,0.09449 0.02228,0.02228 -0.02228,0.07222 0,0.09449 0.02228,0.02228 0.07222,-0.02228 0.0945,0 0.02228,0.02228 -0.02228,0.07222 0,0.0945 0.02228,0.02228 0.07222,-0.02228 0.09449,0 0.02228,0.02228 -0.02228,0.07222 0,0.09449 0.195511,0.195511 -0.0076,-0.298768 0.188989,0.09449 0.01408,0.02817 -0.01,0.06461 0,0.0945 0.02228,0.06682 0.07222,0.122168 0.09449,0.188986 0.09376,0.281292 -0.22375,-0.193884 0.09449,0.283483 0.04942,0.07413 0.160816,0.104471 0.188989,0.188989 0.01992,0.05976 0,0.125992 0,0.188987 0,0.0315 -0.01746,0.06829 0,0.09449 0.04942,0.07413 0.149146,0.109305 0.188987,0.188989 0.08452,0.07454 -0.04226,0.198964 0,0.283483 0.21623,0.432461 -0.03916,-0.400979 0.188989,0.283482 0.01,0.02988 -0.01408,0.06632 0,0.09449 0.216231,0.432461 -0.03917,-0.400979 0.188986,0.283482 0.01,0.02988 -0.0099,0.06461 0,0.09449 0.02228,0.06682 0.07741,0.120661 0.0945,0.18899 0.01527,0.06111 -0.01992,0.129225 0,0.188986 0.01408,0.04226 0.07457,0.05465 0.09449,0.0945 0.01407,0.02817 -0.01,0.06461 0,0.09449 0.02228,0.06682 0.07741,0.120658 0.09449,0.188987 0.01529,0.06112 0,0.125992 0,0.188989 0,0.0315 -0.01408,0.06632 0,0.09449 0.01992,0.03984 0.06979,0.05743 0.0945,0.0945 0.179012,-0.01077 0.06299,0.220486 0.09449,0.28348 0.01992,0.03984 0.06978,0.05743 0.09449,0.0945 0.03907,0.0586 0.05542,0.130384 0.09449,0.188987 0.04942,0.07413 0.160816,0.10447 0.188989,0.188989 0.01992,0.05976 -0.03494,0.136573 0,0.188987 0.03907,0.0586 0.139187,0.04469 0.188989,0.0945 0.02228,0.02228 -0.02228,0.07222 0,0.09449 0.02228,0.02228 0.07222,-0.02228 0.09449,0 0.0498,0.0498 0.04469,0.139184 0.09449,0.188989 0.0498,0.0498 0.139186,0.04469 0.188989,0.09449 0.02228,0.02228 -0.02228,0.07222 0,0.09449 0.0498,0.0498 0.130384,0.05542 0.188987,0.09449 0.03706,0.02471 0.05465,0.07457 0.0945,0.0945 0.08909,0.04454 0.191,0.0575 0.283479,0.09449 0.01797,0.0072 0.372767,0.188243 0.377979,0.188989 0.248047,0.03543 0.595312,-0.02835 0.850445,0 0.159628,0.01773 0.312843,0.07676 0.472471,0.09449 0.12522,0.01392 0.251984,0 0.377976,0 0.220486,0 0.440971,0 0.661459,0 0.346477,0 0.692957,0 1.039434,0 1.858383,0 3.716766,0 5.575149,0"
       id="path1705"
       inkscape:connector-curvature="0" />
    <path
       style="fill:none;stroke:#000000;stroke-width:0.26458332px;stroke-linecap:butt;stroke-linejoin:miter;stroke-opacity:1"
       d="m 52.066218,56.512647 c 0.423228,-0.199858 0.36381,0.2764 0.566965,0.377976 0.02817,0.01408 0.06632,-0.01408 0.09449,0 0.113395,0.0567 0.17009,0.226788 0.283482,0.283482 0.02817,0.01408 0.07222,-0.02228 0.0945,0 0.02228,0.02228 -0.02228,0.07222 0,0.0945 0.02228,0.02228 0.07222,-0.02228 0.09449,0 0.02228,0.02228 -0.02228,0.07222 0,0.09449 0.195511,0.195511 -0.0076,-0.298768 0.188986,0.09449 0.01408,0.02817 -0.01408,0.06632 0,0.09449 0.01992,0.03984 0.07458,0.05465 0.0945,0.0945 0.02817,0.05635 -0.02817,0.132641 0,0.188987 0.03984,0.07968 0.160814,0.104471 0.188987,0.188989 0.07485,0.224555 -0.111858,0.171622 0.0945,0.377976 0.02228,0.02228 0.08041,-0.02817 0.09449,0 0.02817,0.05635 -0.01992,0.129225 0,0.188989 0.02817,0.08452 0.149145,0.109302 0.188986,0.188987 0.0378,0.0756 -0.0378,0.207888 0,0.283482 0.01992,0.03984 0.07458,0.05465 0.0945,0.09449 0.0378,0.0756 -0.0378,0.207889 0,0.283483 0.01408,0.02817 0.063,0 0.09449,0 0.0315,0.063 0.07741,0.120661 0.09449,0.188989 0.01961,0.07837 -0.03091,0.410647 0,0.472469 0.03984,0.07969 0.13957,0.114861 0.188989,0.18899 0.02429,0.03644 -0.01754,0.230856 0,0.283482 0.02228,0.06681 0.07222,0.122169 0.09449,0.188987 0.0099,0.02988 -0.0099,0.06461 0,0.09449 0.02228,0.06682 0.07222,0.122171 0.09449,0.188989 0.02535,0.07606 -0.03019,0.317593 0,0.377976 0.01992,0.03984 0.08041,0.05223 0.0945,0.09449 0.02835,0.08505 -0.02835,0.198438 0,0.283483 0.02228,0.06682 0.07222,0.122171 0.09449,0.188989 0.04725,0.14174 -0.09449,0.09449 0,0.283482 0.01408,0.02817 0.063,0 0.09449,0 0.0315,0.063 0.07222,0.122169 0.0945,0.188987 0.01992,0.05976 -0.02817,0.132644 0,0.188989 0.01992,0.03984 0.08041,0.05223 0.09449,0.09449 0.01992,0.05976 -0.01992,0.129225 0,0.188989 0.02817,0.08452 0.139571,0.114861 0.188987,0.188986 0.01175,0.0176 0.182933,0.371923 0.188989,0.377976 0.02228,0.02228 0.07222,-0.02228 0.09449,0 0.02228,0.02228 -0.01408,0.06632 0,0.0945 0.01992,0.03984 0.07457,0.05465 0.0945,0.09449 0.01407,0.02817 -0.02228,0.07222 0,0.09449 0.02228,0.02228 0.07222,-0.02228 0.09449,0 0.02228,0.02228 -0.02228,0.07222 0,0.0945 0.14628,0.14628 0.468839,0.09449 0.661458,0.09449 0.063,0 0.125992,0 0.188987,0 0.0315,0 0.06632,-0.01408 0.0945,0 0.03984,0.01992 0.05223,0.08041 0.09449,0.09449 0.05414,0.01805 0.383757,0 0.472469,0 0.377979,0 0.755954,0 1.13393,0 1.196925,0 2.39385,0 3.590774,0 1.41741,0 2.83482,0 4.252233,0 0.472469,0 0.944938,0 1.41741,0 0.15749,0 0.314981,0 0.472469,0 0.0315,0 -0.063,0 -0.09449,0"
       id="path1707"
       inkscape:connector-curvature="0" />
    <path
       style="fill:none;stroke:#ff0000;stroke-width:0.26458332px;stroke-linecap:butt;stroke-linejoin:miter;stroke-opacity:1"
       d="m 46.491072,53.96131 c 0.125992,0 0.255744,-0.03056 0.377976,0 0.03056,0.0076 -0.02228,0.07222 0,0.09449 0.02228,0.02228 0.07222,-0.02228 0.09449,0 0.0498,0.0498 0.04469,0.139184 0.09449,0.188987 0.02228,0.02228 0.07222,-0.02228 0.0945,0 0.0498,0.0498 0.04469,0.139186 0.09449,0.188989 0.02228,0.02228 0.06632,-0.01408 0.09449,0 0.02508,0.01254 0.270939,0.258392 0.283482,0.283482 0.01408,0.02817 -0.01408,0.06632 0,0.09449 0.01992,0.03984 0.07457,0.05465 0.09449,0.09449 0.01408,0.02817 0,0.063 0,0.0945 0.0315,0.063 0.05543,0.130384 0.0945,0.188986 0.02471,0.03707 0.06978,0.05743 0.09449,0.0945 0.134686,0.202031 0.194942,0.440111 0.283482,0.661459 0.05231,0.130786 0.144442,0.24434 0.188987,0.377976 0.01,0.02988 0,0.06299 0,0.09449 0.0315,0.09449 0.04995,0.194392 0.0945,0.283482 0.01992,0.03984 0.07457,0.05465 0.09449,0.09449 0.01408,0.02817 0,0.063 0,0.09449 0.0315,0.063 0.05542,0.130387 0.09449,0.188989 0.02471,0.03706 0.07457,0.05465 0.09449,0.09449 0.01408,0.02817 0,0.063 0,0.0945 0,0.09449 -0.01852,0.190823 0,0.28348 0.028,0.140015 0.246494,0.41901 0.283482,0.566965 0.03056,0.12223 -0.03056,0.255747 0,0.377976 -0.05695,0.171029 0.153075,0.175744 0.18899,0.283483 0.03984,0.119525 -0.03984,0.25845 0,0.377975 0.01407,0.04226 0.08041,0.05224 0.09449,0.0945 0.01992,0.05976 -0.01527,0.127871 0,0.188987 0.01709,0.06833 0.07741,0.120661 0.09449,0.188989 0.02291,0.09167 -0.02988,0.193837 0,0.283483 0.02228,0.06682 0.063,0.125992 0.0945,0.188986 0.09776,0.195511 0.130604,0.238938 0.188987,0.472472 0.02222,0.08893 -0.02222,0.194546 0,0.28348 0.01709,0.06833 0.07741,0.12066 0.0945,0.188989 0.01527,0.06112 -0.01992,0.129225 0,0.188989 0.01407,0.04226 0.08041,0.05223 0.09449,0.09449 0.01992,0.05976 -0.01527,0.127873 0,0.188986 0.01709,0.06833 0.063,0.125992 0.09449,0.188989 0.0315,0.09449 0.07496,0.185812 0.09449,0.283483 0.01855,0.09266 -0.02988,0.193836 0,0.283482 0.02228,0.06682 0.07741,0.120658 0.0945,0.188987 0.01527,0.06112 0,0.125992 0,0.188989 0,0.130784 -0.02085,0.48354 0,0.566965 0.0108,0.04322 0.07457,0.05465 0.09449,0.09449 0.02424,0.04848 -0.01548,0.395112 0,0.472469 0.104455,0.522274 0.09449,0.117813 0.09449,0.377976 0,0.220487 0,0.440973 0,0.661458 0,0.063 0,0.125992 0,0.188989 0,0.0315 -0.01408,0.06632 0,0.09449 0.01992,0.03984 0.08041,0.05224 0.0945,0.0945 0.01992,0.05976 -0.01992,0.129223 0,0.188987 0.01408,0.04226 0.07457,0.05465 0.09449,0.09449 0.02817,0.05635 -0.02817,0.132644 0,0.188989 0.01992,0.03984 0.07457,0.05465 0.09449,0.09449 0.01407,0.02817 -0.0099,0.06461 0,0.0945 0.02228,0.06682 0.07741,0.120658 0.09449,0.188986 0.01527,0.06112 -0.01992,0.129225 0,0.188989 0.01408,0.04226 0.07458,0.05465 0.0945,0.09449 0.02817,0.05634 -0.02817,0.132643 0,0.188989 0.01992,0.03984 0.07457,0.05465 0.09449,0.09449 0.01408,0.02817 -0.01408,0.06632 0,0.09449 0.01992,0.03984 0.07457,0.05465 0.09449,0.09449 0.01408,0.02817 -0.01408,0.06632 0,0.0945 0.01992,0.03984 0.08041,0.05223 0.0945,0.09449 0.01992,0.05976 -0.01992,0.129225 0,0.188989 0.01408,0.04226 0.06978,0.05743 0.09449,0.09449 0.122666,0.183999 0.09449,0.173413 0.09449,0.377975"
       id="path1709"
       inkscape:connector-curvature="0" />
    <path
       style="fill:none;stroke:#000000;stroke-width:0.26458332px;stroke-linecap:butt;stroke-linejoin:miter;stroke-opacity:1"
       d="m 46.302083,56.040178 c 0.108103,0.20978 -0.04324,0.445254 0,0.661458 0.01953,0.09767 0.0575,0.191 0.09449,0.283483 0.02617,0.06539 0.08068,0.119922 0.0945,0.188986 0.01852,0.09266 -0.01553,0.190276 0,0.283483 0.01638,0.09825 0.07496,0.185812 0.09449,0.283483 0.01886,0.09426 0,0.704024 0,0.755951 0,0.314981 0,0.62996 0,0.944941 0,0.125992 -0.02471,0.254431 0,0.377976 0.01953,0.09767 0.07496,0.185811 0.09449,0.283482 0.02045,0.102331 0,0.560446 0,0.661459 0,0.346477 0,0.692957 0,1.039434 0,0.104193 -0.01699,0.499057 0,0.566965 0.0108,0.04321 0.06979,0.05743 0.09449,0.09449 0.03907,0.0586 0.07222,0.122171 0.0945,0.188989 0.0099,0.02988 0,0.063 0,0.09449 0,0.03422 -0.01656,0.500758 0,0.566965 0.03416,0.136657 0.161361,0.239847 0.188986,0.377975 0.01852,0.09266 -0.01852,0.190823 0,0.283483 0.01402,0.07011 0.239514,0.479028 0.283483,0.566965 0.09449,0.188987 0.20501,0.370779 0.283482,0.566962 0.01169,0.02925 -0.01,0.06461 0,0.0945 0.04455,0.133633 0.144444,0.24434 0.18899,0.377976 0.0099,0.02988 -0.01,0.06461 0,0.09449 0.02228,0.06682 0.07741,0.120658 0.09449,0.18899 0.04584,0.08885 -0.02291,0.191807 0,0.283479 0.02416,0.09663 0.07034,0.186852 0.09449,0.283483 0.0076,0.03056 -0.01408,0.06632 0,0.0945 0.01992,0.03984 0.08041,0.05223 0.09449,0.09449 0.01992,0.05976 0,0.125992 0,0.188987 0,0.0315 -0.01407,0.06632 0,0.0945 0.01992,0.03984 0.08041,0.05223 0.0945,0.09449 0.01992,0.05976 -0.02817,0.132644 0,0.188989 0.01408,0.02817 0.07222,-0.02228 0.09449,0 9e-5,9e-5 -1.43e-4,0.283052 0,0.28348 0.02817,0.08452 0.160816,0.104471 0.188989,0.188989 0.01992,0.05976 -0.01992,0.129226 0,0.18899 0.01408,0.04226 0.06978,0.05743 0.09449,0.09449 0.03907,0.0586 0.07222,0.122171 0.09449,0.188986 0.01992,0.05976 -0.04455,0.144444 0,0.18899 0.02228,0.02228 0.08041,-0.02817 0.09449,0 0.02817,0.05634 -0.01992,0.129225 0,0.188989 0.02817,0.08452 0.149148,0.109302 0.188989,0.188987 0.01873,0.03747 -0.01931,0.264165 0,0.283482 0.02228,0.02228 0.07222,-0.02228 0.09449,0 0.02228,0.02228 -0.01407,0.06632 0,0.09449 0.196631,0.393264 -0.0065,-0.101018 0.18899,0.0945 0.02228,0.02228 -0.02228,0.07222 0,0.09449 0.02228,0.02228 0.07222,-0.02228 0.09449,0 0.02228,0.02228 -0.02817,0.08041 0,0.09449 0.0756,0.0378 0.207888,-0.0378 0.283482,0 0.288166,0.144084 -0.172823,0.07491 0.283483,0.188989 0.04604,0.01151 0.328009,-0.02498 0.377976,0 0.03984,0.01992 0.05465,0.07457 0.09449,0.09449 0.06188,0.03094 0.388615,-0.02795 0.472472,0 0.06682,0.02228 0.122171,0.07222 0.188986,0.09449 0.05976,0.01992 0.132644,-0.02817 0.18899,0 0.233531,0.116766 -0.03262,0.0945 0.188986,0.0945"
       id="path1711"
       inkscape:connector-curvature="0" />
    <path
       style="fill:none;stroke:#000000;stroke-width:0.26458332px;stroke-linecap:butt;stroke-linejoin:miter;stroke-opacity:1"
       d="m 41.104909,56.229165 c 0,0.472471 0,0.94494 0,1.417412 0,0.09449 0,0.188987 0,0.283483 0,0.06299 -0.01236,0.127214 0,0.188986 0.03907,0.195342 0.15624,0.370465 0.18899,0.566965 0.01553,0.09321 -0.01852,0.190823 0,0.283483 0.01381,0.06906 0.08291,0.119515 0.09449,0.188986 0.02072,0.124278 -0.01392,0.252757 0,0.377976 0.01773,0.159629 0.07457,0.313103 0.09449,0.472472 0.01172,0.09376 0,0.188987 0,0.283483 0,0.346477 0,0.692954 0,1.039434 0,0.724453 0,1.448908 0,2.173361 0,0.409475 0,0.818949 0,1.228424 0,0.15749 0,0.314981 0,0.472471 0,0.063 0.01527,0.127871 0,0.188987 -0.01709,0.06833 -0.07222,0.122171 -0.09449,0.188989 -0.0099,0.02988 0.0076,0.06394 0,0.09449 -0.02416,0.09663 -0.07034,0.186852 -0.09449,0.283483 -0.0076,0.03056 0.01408,0.06632 0,0.09449 -0.01992,0.03984 -0.07457,0.05465 -0.09449,0.09449 -0.01407,0.02817 0.01408,0.06632 0,0.0945 -0.216233,0.432462 0.03916,-0.400978 -0.188989,0.283483 -0.01992,0.05976 0.01992,0.129222 0,0.188987 -0.02228,0.06682 -0.06299,0.125991 -0.09449,0.188989 -0.0315,0.06299 -0.05543,0.130384 -0.0945,0.188986 -0.02471,0.03707 -0.07457,0.05465 -0.09449,0.0945 -0.0378,0.07559 0.0378,0.207886 0,0.28348 -0.01992,0.03984 -0.063,0.063 -0.09449,0.0945 0,0.063 0.01992,0.129225 0,0.188987 -0.02817,0.08452 -0.160816,0.10447 -0.188989,0.188989 -0.01992,0.05976 0.01992,0.129225 0,0.188986 -0.01408,0.04226 -0.063,0.063 -0.09449,0.0945 -0.063,0.063 -0.149146,0.109302 -0.188989,0.188987 -0.02817,0.05635 0.02817,0.132644 0,0.188989 -0.01408,0.02817 -0.07222,-0.02228 -0.09449,0 -0.02228,0.02228 0.0099,0.06461 0,0.09449 -0.02228,0.06682 -0.04469,0.139186 -0.09449,0.188989 -0.02228,0.02228 -0.06632,-0.01408 -0.09449,0 -0.208934,0.104465 -0.02932,0.05864 -0.0945,0.188986 -0.104466,0.208931 -0.05865,0.02932 -0.188987,0.0945 -0.03984,0.01992 -0.05743,0.06978 -0.0945,0.09449 -0.0586,0.03907 -0.139184,0.04469 -0.188986,0.09449 -0.02228,0.02228 0.02228,0.07222 0,0.09449 -0.02228,0.02228 -0.06632,-0.01408 -0.09449,0 -0.313399,0.313399 0.08909,-0.04454 -0.188989,0.0945 -0.03984,0.01992 -0.05743,0.06978 -0.09449,0.09449 -0.063,0.0315 -0.125992,0.063 -0.188989,0.09449 -0.0315,0 -0.06632,-0.01408 -0.09449,0 -0.03984,0.01992 -0.05465,0.07457 -0.09449,0.0945 -0.0756,0.0378 -0.207888,-0.0378 -0.283482,0 -0.03984,0.01992 -0.05465,0.07457 -0.0945,0.09449 -0.05634,0.02817 -0.132641,-0.02817 -0.188987,0 -0.03984,0.01992 -0.05465,0.07457 -0.09449,0.09449 -0.02442,0.01222 -0.499989,0 -0.566965,0"
       id="path1713"
       inkscape:connector-curvature="0" />
    <path
       style="fill:none;stroke:#ff0000;stroke-width:0.26458332px;stroke-linecap:butt;stroke-linejoin:miter;stroke-opacity:1"
       d="m 41.010416,53.205356 c -0.448408,0 -0.265284,-0.05635 -0.566965,0.09449 -0.063,0.0315 -0.122169,0.07222 -0.188986,0.09449 -0.02988,0.0099 -0.06461,-0.0099 -0.0945,0 -0.06682,0.02228 -0.122169,0.07222 -0.188987,0.09449 -0.02988,0.0099 -0.063,0 -0.09449,0 -0.0315,0.0315 -0.05465,0.07457 -0.0945,0.09449 -0.02817,0.01408 -0.07222,-0.02228 -0.09449,0 -0.02228,0.02228 0.02228,0.07222 0,0.0945 -0.04455,0.04455 -0.132644,-0.02817 -0.18899,0 -0.393261,0.196631 0.101018,-0.0065 -0.09449,0.188987 -0.02228,0.02228 -0.07222,-0.02228 -0.09449,0 -0.02228,0.02228 0.02228,0.07222 0,0.0945 -0.02228,0.02228 -0.07222,-0.02228 -0.09449,0 -0.02228,0.02228 0.0099,0.06461 0,0.09449 -0.228155,0.684459 0.02724,-0.148982 -0.188989,0.283483 -0.01408,0.02817 0,0.06299 0,0.09449 0,0.063 0.01992,0.129225 0,0.188989 -0.01408,0.04226 -0.08041,0.05223 -0.09449,0.09449 -0.01992,0.05976 0.01527,0.127874 0,0.188987 -0.01709,0.06833 -0.07222,0.122171 -0.0945,0.188989 -0.01992,0.05976 0.01992,0.129225 0,0.188989 -0.02228,0.06682 -0.07222,0.122169 -0.09449,0.188987 -0.01992,0.05976 0.01992,0.129225 0,0.188989 -0.04455,0.133633 -0.144444,0.24434 -0.188987,0.377976 -0.01992,0.05976 0,0.125992 0,0.188987 0,0.15749 0,0.314981 0,0.472471 0,0.0315 0.01408,0.06632 0,0.09449 -0.01992,0.03984 -0.07457,0.05465 -0.0945,0.09449 -0.02712,0.05425 0.02011,0.392036 0,0.472472 -0.01709,0.06833 -0.07222,0.122171 -0.09449,0.188986 -0.01,0.02988 0,0.063 0,0.0945 0,0.063 0,0.125992 0,0.188987 0,0.251984 0,0.503968 0,0.755954 0,0.850445 0,1.700893 0,2.551337 0,0.472472 0,0.944941 0,1.417413 0,0.07223 0.01328,0.63487 0,0.661458 -0.01992,0.03984 -0.08041,0.05223 -0.09449,0.09449 -0.02913,0.08738 0.03113,0.504708 0,0.566965 -0.01992,0.03984 -0.07457,0.05465 -0.0945,0.09449 -0.02869,0.05738 0.02869,0.509585 0,0.566965 -0.01992,0.03984 -0.07457,0.05465 -0.09449,0.09449 -0.02817,0.05635 0.02817,0.132641 0,0.188987 -0.03984,0.07968 -0.149145,0.109305 -0.188986,0.188989 -0.01408,0.02817 0,0.063 0,0.09449 -0.063,0.063 -0.139571,0.114861 -0.188989,0.18899 -0.01746,0.02622 0.02228,0.07222 0,0.09449 -0.02228,0.02228 -0.07222,-0.02228 -0.09449,0 -0.04454,0.04454 0.02817,0.132643 0,0.188989 -0.19663,0.393261 0.0065,-0.101018 -0.188989,0.09449 -0.02228,0.02228 0.02228,0.07222 0,0.09449 -0.02228,0.02228 -0.07222,-0.02228 -0.09449,0 -0.02228,0.02228 0.01408,0.06632 0,0.0945 -0.01992,0.03984 -0.063,0.06299 -0.09449,0.09449 -0.0315,0.0315 -0.05465,0.07457 -0.0945,0.09449 -0.02817,0.01408 -0.07222,-0.02228 -0.09449,0 -0.02228,0.02228 0.02228,0.07222 0,0.09449 -0.003,0.003 -0.260564,0 -0.283482,0"
       id="path1715"
       inkscape:connector-curvature="0" />
    <text
       xml:space="preserve"
       style="font-style:normal;font-variant:normal;font-weight:normal;font-stretch:normal;font-size:4.23333311px;line-height:1.25;font-family:sans-serif;-inkscape-font-specification:'sans-serif, Normal';font-variant-ligatures:normal;font-variant-caps:normal;font-variant-numeric:normal;font-feature-settings:normal;text-align:start;letter-spacing:0px;word-spacing:0px;writing-mode:lr-tb;text-anchor:start;fill:#000000;fill-opacity:1;stroke:none;stroke-width:0.26458332"
       x="71.154015"
       y="62.749252"
       id="text1719"><tspan
         sodipodi:role="line"
         id="tspan1717"
         x="71.154015"
         y="62.749252"
         style="stroke-width:0.26458332">Controller</tspan></text>
    <text
       xml:space="preserve"
       style="font-style:normal;font-variant:normal;font-weight:normal;font-stretch:normal;font-size:4.23333311px;line-height:1.25;font-family:sans-serif;-inkscape-font-specification:'sans-serif, Normal';font-variant-ligatures:normal;font-variant-caps:normal;font-variant-numeric:normal;font-feature-settings:normal;text-align:start;letter-spacing:0px;word-spacing:0px;writing-mode:lr-tb;text-anchor:start;fill:#000000;fill-opacity:1;stroke:none;stroke-width:0.26458332"
       x="51.499252"
       y="70.308777"
       id="text1723"><tspan
         sodipodi:role="line"
         id="tspan1721"
         x="51.499252"
         y="70.308777"
         style="stroke-width:0.26458332">ESC1</tspan></text>
    <text
       id="text1727"
       y="70.025291"
       x="23.90699"
       style="font-style:normal;font-variant:normal;font-weight:normal;font-stretch:normal;font-size:4.23333311px;line-height:1.25;font-family:sans-serif;-inkscape-font-specification:'sans-serif, Normal';font-variant-ligatures:normal;font-variant-caps:normal;font-variant-numeric:normal;font-feature-settings:normal;text-align:start;letter-spacing:0px;word-spacing:0px;writing-mode:lr-tb;text-anchor:start;fill:#000000;fill-opacity:1;stroke:none;stroke-width:0.26458332"
       xml:space="preserve"><tspan
         style="stroke-width:0.26458332"
         y="70.025291"
         x="23.90699"
         id="tspan1725"
         sodipodi:role="line">ESC2</tspan></text>
  </g>
</svg>
