<?xml version="1.0" encoding="UTF-8" standalone="no"?>
<!-- Created with Inkscape (http://www.inkscape.org/) -->

<svg
   xmlns:dc="http://purl.org/dc/elements/1.1/"
   xmlns:cc="http://creativecommons.org/ns#"
   xmlns:rdf="http://www.w3.org/1999/02/22-rdf-syntax-ns#"
   xmlns:svg="http://www.w3.org/2000/svg"
   xmlns="http://www.w3.org/2000/svg"
   xmlns:sodipodi="http://sodipodi.sourceforge.net/DTD/sodipodi-0.dtd"
   xmlns:inkscape="http://www.inkscape.org/namespaces/inkscape"
   width="297mm"
   height="210mm"
   viewBox="0 0 297 210"
   version="1.1"
   id="svg8"
   inkscape:version="0.92.3 (2405546, 2018-03-11)"
   sodipodi:docname="wiring.svg">
  <defs
     id="defs2" />
  <sodipodi:namedview
     id="base"
     pagecolor="#ffffff"
     bordercolor="#666666"
     borderopacity="1.0"
     inkscape:pageopacity="0.0"
     inkscape:pageshadow="2"
     inkscape:zoom="0.7"
     inkscape:cx="424.96684"
     inkscape:cy="422.79892"
     inkscape:document-units="mm"
     inkscape:current-layer="layer1"
     showgrid="true"
     inkscape:window-width="1280"
     inkscape:window-height="885"
     inkscape:window-x="0"
     inkscape:window-y="0"
     inkscape:window-maximized="1">
    <inkscape:grid
       type="xygrid"
       id="grid29"
       units="mm"
       spacingx="1"
       spacingy="1" />
  </sodipodi:namedview>
  <metadata
     id="metadata5">
    <rdf:RDF>
      <cc:Work
         rdf:about="">
        <dc:format>image/svg+xml</dc:format>
        <dc:type
           rdf:resource="http://purl.org/dc/dcmitype/StillImage" />
        <dc:title></dc:title>
      </cc:Work>
    </rdf:RDF>
  </metadata>
  <g
     inkscape:label="Layer 1"
     inkscape:groupmode="layer"
     id="layer1"
     transform="translate(0,-87)">
    <g
       id="g857"
       transform="translate(-4.999998,100.00001)">
      <path
         inkscape:connector-curvature="0"
         id="path31"
         d="M 25,67 H 44.999999"
         style="fill:none;stroke:#000000;stroke-width:0.5;stroke-linecap:butt;stroke-linejoin:miter;stroke-miterlimit:4;stroke-dasharray:none;stroke-opacity:1" />
      <path
         inkscape:connector-curvature="0"
         id="path33"
         d="m 30,71.999998 h 9.999999"
         style="fill:none;stroke:#000000;stroke-width:0.26458332px;stroke-linecap:butt;stroke-linejoin:miter;stroke-opacity:1" />
      <path
         inkscape:connector-curvature="0"
         id="path843"
         d="M 34.999998,67 V 56.999999"
         style="fill:none;stroke:#000000;stroke-width:0.26458332px;stroke-linecap:butt;stroke-linejoin:miter;stroke-opacity:1" />
      <path
         inkscape:connector-curvature="0"
         id="path845"
         d="M 34.999998,71.999998 V 81.999999"
         style="fill:none;stroke:#000000;stroke-width:0.26458332px;stroke-linecap:butt;stroke-linejoin:miter;stroke-opacity:1" />
      <text
         id="text849"
         y="64.004517"
         x="37.193668"
         style="font-style:normal;font-variant:normal;font-weight:normal;font-stretch:normal;font-size:4.23333311px;line-height:1.25;font-family:sans-serif;-inkscape-font-specification:'sans-serif, Normal';font-variant-ligatures:normal;font-variant-caps:normal;font-variant-numeric:normal;font-feature-settings:normal;text-align:start;letter-spacing:0px;word-spacing:0px;writing-mode:lr-tb;text-anchor:start;fill:#000000;fill-opacity:1;stroke:none;stroke-width:0.26458332"
         xml:space="preserve"><tspan
           style="stroke-width:0.26458332"
           y="64.004517"
           x="37.193668"
           id="tspan847"
           sodipodi:role="line">+</tspan></text>
    </g>
    <g
       transform="translate(-4.999998,160.00001)"
       id="g871">
      <path
         style="fill:none;stroke:#000000;stroke-width:0.5;stroke-linecap:butt;stroke-linejoin:miter;stroke-miterlimit:4;stroke-dasharray:none;stroke-opacity:1"
         d="M 25,67 H 44.999999"
         id="path859"
         inkscape:connector-curvature="0" />
      <path
         style="fill:none;stroke:#000000;stroke-width:0.26458332px;stroke-linecap:butt;stroke-linejoin:miter;stroke-opacity:1"
         d="m 30,71.999998 h 9.999999"
         id="path861"
         inkscape:connector-curvature="0" />
      <path
         style="fill:none;stroke:#000000;stroke-width:0.26458332px;stroke-linecap:butt;stroke-linejoin:miter;stroke-opacity:1"
         d="M 34.999998,67 V 56.999999"
         id="path863"
         inkscape:connector-curvature="0" />
      <path
         style="fill:none;stroke:#000000;stroke-width:0.26458332px;stroke-linecap:butt;stroke-linejoin:miter;stroke-opacity:1"
         d="M 34.999998,71.999998 V 81.999999"
         id="path865"
         inkscape:connector-curvature="0" />
      <text
         xml:space="preserve"
         style="font-style:normal;font-variant:normal;font-weight:normal;font-stretch:normal;font-size:4.23333311px;line-height:1.25;font-family:sans-serif;-inkscape-font-specification:'sans-serif, Normal';font-variant-ligatures:normal;font-variant-caps:normal;font-variant-numeric:normal;font-feature-settings:normal;text-align:start;letter-spacing:0px;word-spacing:0px;writing-mode:lr-tb;text-anchor:start;fill:#000000;fill-opacity:1;stroke:none;stroke-width:0.26458332"
         x="37.193668"
         y="64.004517"
         id="text869"><tspan
           sodipodi:role="line"
           id="tspan867"
           x="37.193668"
           y="64.004517"
           style="stroke-width:0.26458332">+</tspan></text>
    </g>
    <text
       xml:space="preserve"
       style="font-style:normal;font-variant:normal;font-weight:normal;font-stretch:normal;font-size:4.23333311px;line-height:1.25;font-family:sans-serif;-inkscape-font-specification:'sans-serif, Normal';font-variant-ligatures:normal;font-variant-caps:normal;font-variant-numeric:normal;font-feature-settings:normal;text-align:start;letter-spacing:0px;word-spacing:0px;writing-mode:lr-tb;text-anchor:start;fill:#000000;fill-opacity:1;stroke:none;stroke-width:0.26458332"
       x="40"
       y="182"
       id="text875"><tspan
         sodipodi:role="line"
         x="40"
         y="182"
         style="stroke-width:0.26458332"
         id="tspan877">Lipo 1</tspan></text>
    <text
       xml:space="preserve"
       style="font-style:normal;font-variant:normal;font-weight:normal;font-stretch:normal;font-size:4.23333311px;line-height:1.25;font-family:sans-serif;-inkscape-font-specification:'sans-serif, Normal';font-variant-ligatures:normal;font-variant-caps:normal;font-variant-numeric:normal;font-feature-settings:normal;text-align:start;letter-spacing:0px;word-spacing:0px;writing-mode:lr-tb;text-anchor:start;fill:#000000;fill-opacity:1;stroke:none;stroke-width:0.26458332"
       x="40"
       y="231.99998"
       id="text883"><tspan
         sodipodi:role="line"
         id="tspan881"
         x="40"
         y="231.99998"
         style="stroke-width:0.26458332">Lipo 2</tspan></text>
    <path
       style="fill:none;stroke:#ff0000;stroke-width:0.26458332px;stroke-linecap:butt;stroke-linejoin:miter;stroke-opacity:1"
       d="M 29.999999,217 V 182"
       id="path885"
       inkscape:connector-curvature="0" />
    <g
       id="g902"
       transform="translate(-10,75.000005)">
      <path
         inkscape:connector-curvature="0"
         id="path887"
         d="M 64.999999,67 79.999998,56.999999"
         style="fill:none;stroke:#000000;stroke-width:0.26458332px;stroke-linecap:butt;stroke-linejoin:miter;stroke-opacity:1" />
      <path
         inkscape:connector-curvature="0"
         id="path889"
         d="M 79.999998,67 H 89.999999"
         style="fill:none;stroke:#000000;stroke-width:0.26458332px;stroke-linecap:butt;stroke-linejoin:miter;stroke-opacity:1" />
      <path
         inkscape:connector-curvature="0"
         id="path891"
         d="M 64.999999,67 H 55"
         style="fill:none;stroke:#000000;stroke-width:0.26458332px;stroke-linecap:butt;stroke-linejoin:miter;stroke-opacity:1" />
      <circle
         r="2.5"
         cy="67.105881"
         cx="55.295025"
         id="path893"
         style="opacity:1;fill:#000000;stroke:none;stroke-width:0.5;stroke-miterlimit:4;stroke-dasharray:none" />
      <circle
         style="opacity:1;fill:#000000;stroke:none;stroke-width:0.5;stroke-miterlimit:4;stroke-dasharray:none"
         id="circle895"
         cx="89.906425"
         cy="66.838608"
         r="2.5" />
    </g>
    <path
       style="fill:none;stroke:#000000;stroke-width:0.26458332px;stroke-linecap:butt;stroke-linejoin:miter;stroke-opacity:1"
       d="m 29.999999,157 c 0.09617,-0.50216 -0.220067,-0.76901 -0.310475,-1.22104 -0.01746,-0.0874 0.03309,-0.18456 0,-0.26727 -0.05965,-0.14913 -0.184637,-0.26319 -0.267269,-0.40091 -0.05125,-0.0854 -0.08239,-0.18186 -0.133636,-0.26727 -0.165264,-0.27544 -0.369274,-0.52636 -0.534538,-0.80181 -0.05125,-0.0854 -0.07838,-0.18439 -0.133635,-0.26727 -0.03494,-0.0524 -0.105461,-0.0773 -0.133634,-0.13363 -0.063,-0.12599 -0.06116,-0.28012 -0.133635,-0.4009 -0.400905,-0.66818 -0.133636,0 -0.400905,-0.40091 -0.110503,-0.16575 -0.147743,-0.37517 -0.267269,-0.53454 -0.0756,-0.10079 -0.197382,-0.16244 -0.267269,-0.26727 -0.02471,-0.0371 0,-0.0891 0,-0.13363 0,-0.0891 0.02162,-0.18084 0,-0.26727 -0.08801,-0.35203 -0.446534,-0.58342 -0.53454,-0.93544 -0.04321,-0.17286 0.05635,-0.36551 0,-0.53455 -0.01992,-0.0598 -0.113713,-0.0739 -0.133633,-0.13363 -0.02817,-0.0845 0.02162,-0.18084 0,-0.26727 -0.02416,-0.0966 -0.109479,-0.17064 -0.133636,-0.26727 -0.03029,-0.12114 0,-0.51293 0,-0.66817 0,-0.40091 0,-0.80181 0,-1.20272 0,-0.26726 0,-0.53453 0,-0.8018 0,-0.13364 -0.02196,-0.26909 0,-0.40091 0.06637,-0.39822 0.254855,-0.54598 0.400905,-0.93544 0.06449,-0.17197 0.06128,-0.36573 0.133633,-0.53454 0.218019,-0.50871 0.247163,-0.28501 0.53454,-0.66817 0.05976,-0.0797 0.08909,-0.17818 0.133636,-0.26727 0.08909,-0.17818 0.193283,-0.34958 0.267269,-0.53454 0.01654,-0.0414 -0.01992,-0.0938 0,-0.13364 0.02817,-0.0564 0.09869,-0.0812 0.133633,-0.13363 0.110503,-0.16575 0.147743,-0.37517 0.267271,-0.53454 0.07559,-0.10079 0.197382,-0.16244 0.267269,-0.26727 0.02471,-0.0371 -0.02471,-0.0966 0,-0.13364 0.104831,-0.15724 0.296072,-0.24365 0.400905,-0.4009 0.05525,-0.0829 0.0632,-0.19684 0.133633,-0.26727 0.07043,-0.0704 0.196839,-0.0632 0.267271,-0.13364 0.0315,-0.0315 -0.0315,-0.10213 0,-0.13363 0.07043,-0.0704 0.184391,-0.0784 0.267269,-0.13363 0.05242,-0.0349 0.07387,-0.11372 0.133636,-0.13364 0.08452,-0.0282 0.180837,0.0216 0.267269,0 0.193262,-0.0483 0.345551,-0.20427 0.534538,-0.26727 0.04226,-0.0141 0.09138,0.0141 0.133635,0 0.09449,-0.0315 0.170638,-0.10948 0.267269,-0.13363 0.08643,-0.0216 0.18084,0.0216 0.267269,0 0.09663,-0.0242 0.172776,-0.10214 0.267272,-0.13364 0.07232,-0.0241 0.489013,0 0.534537,0 0.267269,0 0.534541,0 0.801809,0 0.04455,0 0.08909,0 0.133636,0 0.04454,0 0.102135,-0.0315 0.133633,0 0.0315,0.0315 -0.01992,0.0938 0,0.13364 0.02817,0.0563 0.08909,0.0891 0.133636,0.13363 0.04454,0.0445 0.07729,0.10546 0.133633,0.13364 0.03984,0.0199 0.102137,-0.0315 0.133636,0 0.0315,0.0315 -0.0315,0.10213 0,0.13363 0.0315,0.0315 0.113715,-0.0398 0.133636,0 0.03984,0.0797 -0.02817,0.18275 0,0.26727 0.01992,0.0598 0.08909,0.0891 0.133633,0.13363 0.08909,0.0891 0.197382,0.16244 0.267271,0.26728 0.04942,0.0741 -0.03984,0.18758 0,0.26727 0.02817,0.0563 0.105461,0.0773 0.133633,0.13363 0.01992,0.0398 -0.0315,0.10214 0,0.13363 0.0315,0.0315 0.09379,-0.0199 0.133636,0 0.556157,0.27808 -0.142862,-0.009 0.133636,0.26727 0.0315,0.0315 0.102134,-0.0315 0.133633,0 0.0315,0.0315 -0.0315,0.10214 0,0.13364 0.0315,0.0315 0.102137,-0.0315 0.133636,0 0.0315,0.0315 -0.0315,0.10214 0,0.13363 0.06299,0.063 0.187584,-0.0398 0.267269,0 0.05634,0.0282 0.07729,0.10546 0.133635,0.13364 0.03984,0.0199 0.102137,-0.0315 0.133633,0 0.0315,0.0315 -0.0315,0.10213 0,0.13363 0.0315,0.0315 0.08909,0 0.133636,0 0.311814,0 0.623628,0 0.935442,0 0.04455,0 0.09379,0.0199 0.133636,0 0.109932,-0.055 0.435705,-0.46865 0.534538,-0.53454 0.03706,-0.0247 0.0938,0.0199 0.133636,0 0.03548,-0.0177 0.383164,-0.36542 0.400904,-0.4009 0.01992,-0.0398 -0.0315,-0.10214 0,-0.13363 0.0086,-0.009 0.509646,-0.25068 0.534538,-0.26727 0.05242,-0.0349 0.07729,-0.10547 0.133636,-0.13364 0.03984,-0.0199 0.09138,0.0141 0.133635,0 0.188987,-0.063 0.345552,-0.20427 0.534538,-0.26727 0.08452,-0.0282 0.18084,0.0216 0.267269,0 0.13666,-0.0342 0.264247,-0.0995 0.400905,-0.13363 0.173553,-0.0434 0.498041,0.0425 0.668173,0 0.09663,-0.0242 0.169601,-0.1141 0.267272,-0.13364 0.13104,-0.0262 0.267268,0 0.400904,0 0.267269,0 0.534538,0 0.801807,0 0.267271,0 0.53454,0 0.801809,0 0.06018,0 0.360235,-0.0203 0.400904,0 0.05635,0.0282 0.07729,0.10546 0.133636,0.13364 0.03984,0.0199 0.09379,-0.0199 0.133633,0 0.05635,0.0282 0.07729,0.10546 0.133636,0.13363 0.03984,0.0199 0.102137,-0.0315 0.133636,0 0.0315,0.0315 -0.0315,0.10214 0,0.13363 0.06681,0.0668 0.334087,-0.0668 0.400902,0 0.0315,0.0315 0,0.0891 0,0.13364 C 44.325628,141.74245 44.662815,141.87123 45,142"
       id="path904"
       inkscape:connector-curvature="0" />
    <g
       id="g925"
       transform="translate(-10,75.000005)">
      <rect
         y="77"
         x="120"
         height="20"
         width="50"
         id="rect908"
         style="opacity:1;fill:none;stroke:#000000;stroke-width:0.5;stroke-miterlimit:4;stroke-dasharray:none" />
      <text
         id="text912"
         y="87"
         x="130"
         style="font-style:normal;font-variant:normal;font-weight:normal;font-stretch:normal;font-size:4.23333311px;line-height:1.25;font-family:sans-serif;-inkscape-font-specification:'sans-serif, Normal';font-variant-ligatures:normal;font-variant-caps:normal;font-variant-numeric:normal;font-feature-settings:normal;text-align:start;letter-spacing:0px;word-spacing:0px;writing-mode:lr-tb;text-anchor:start;fill:#000000;fill-opacity:1;stroke:none;stroke-width:0.26458332"
         xml:space="preserve"><tspan
           style="stroke-width:0.26458332"
           y="87"
           x="130"
           id="tspan910"
           sodipodi:role="line">ESC1</tspan></text>
    </g>
    <g
       id="g933"
       transform="translate(-10,100)">
      <rect
         style="opacity:1;fill:none;stroke:#000000;stroke-width:0.5;stroke-miterlimit:4;stroke-dasharray:none"
         id="rect927"
         width="50"
         height="20"
         x="120"
         y="77" />
      <text
         xml:space="preserve"
         style="font-style:normal;font-variant:normal;font-weight:normal;font-stretch:normal;font-size:4.23333311px;line-height:1.25;font-family:sans-serif;-inkscape-font-specification:'sans-serif, Normal';font-variant-ligatures:normal;font-variant-caps:normal;font-variant-numeric:normal;font-feature-settings:normal;text-align:start;letter-spacing:0px;word-spacing:0px;writing-mode:lr-tb;text-anchor:start;fill:#000000;fill-opacity:1;stroke:none;stroke-width:0.26458332"
         x="130"
         y="87"
         id="text931"><tspan
           sodipodi:role="line"
           id="tspan929"
           x="130"
           y="87"
           style="stroke-width:0.26458332">ESC2</tspan></text>
    </g>
    <g
       transform="translate(-10,125)"
       id="g941">
      <rect
         y="77"
         x="120"
         height="20"
         width="50"
         id="rect935"
         style="opacity:1;fill:none;stroke:#000000;stroke-width:0.5;stroke-miterlimit:4;stroke-dasharray:none" />
      <text
         id="text939"
         y="87"
         x="130"
         style="font-style:normal;font-variant:normal;font-weight:normal;font-stretch:normal;font-size:4.23333311px;line-height:1.25;font-family:sans-serif;-inkscape-font-specification:'sans-serif, Normal';font-variant-ligatures:normal;font-variant-caps:normal;font-variant-numeric:normal;font-feature-settings:normal;text-align:start;letter-spacing:0px;word-spacing:0px;writing-mode:lr-tb;text-anchor:start;fill:#000000;fill-opacity:1;stroke:none;stroke-width:0.26458332"
         xml:space="preserve"><tspan
           style="stroke-width:0.26458332"
           y="87"
           x="130"
           id="tspan937"
           sodipodi:role="line">Controller</tspan></text>
    </g>
    <path
       style="fill:none;stroke:#ff0000;stroke-width:0.26458332px;stroke-linecap:butt;stroke-linejoin:miter;stroke-opacity:1"
       d="m 79.999999,142 c 0.49008,0.12649 0.969388,0.30649 1.470239,0.37947 0.374026,0.0545 0.755952,0 1.133928,0 0.440973,0 0.881943,0 1.322916,0 0.377976,0 0.75669,-0.0236 1.133928,0 0.63187,0.0395 1.257654,0.15571 1.889881,0.18899 0.566182,0.0298 1.136743,-0.0564 1.700893,0 2.473596,0.24736 1.717506,0.45689 4.157736,0.94494 0.55938,0.11187 1.14747,0.0506 1.7009,0.18898 0.71533,0.17884 1.38291,0.51237 2.07886,0.75596 1.78889,0.62611 1.44633,0.40586 3.02381,1.13393 0.3837,0.17708 0.77558,0.34299 1.13393,0.56696 0.1511,0.0944 0.23884,0.26667 0.37798,0.37798 0.041,0.0328 0.66933,0.39372 0.75595,0.56696 0.0282,0.0563 0,0.12599 0,0.18899 0.063,0.12599 0.11085,0.26077 0.18899,0.37797 0.0494,0.0741 0.16082,0.10447 0.18899,0.18899 0.0369,0.11058 0,0.97172 0,1.13393 0,1.00794 0,2.01587 0,3.02381 0,0.75595 0,1.51191 0,2.26786 0,0.17742 0.0361,0.83665 0,0.94494 -0.0282,0.0845 -0.16082,0.10447 -0.18899,0.18899 -0.0398,0.11952 0.0306,0.25574 0,0.37797 0.11391,0.34206 -0.30615,0.35149 -0.37798,0.56697 -0.0398,0.11952 0.0306,0.25574 0,0.37797 -0.22815,0.91262 -0.0898,-0.009 -0.37797,0.56697 -0.0282,0.0563 0.0199,0.12922 0,0.18899 -0.17604,0.52811 -0.20194,0.22783 -0.37798,0.75595 -0.0395,0.11862 0,0.60381 0,0.75595 0,0.0458 -0.006,0.56089 0,0.56696 0.0386,0.0386 0.49203,-0.0375 0.56696,0 0.0797,0.0398 0.10931,0.14915 0.18899,0.18899 0.11879,0.0594 0.63717,-0.0594 0.75596,0 0.0797,0.0398 0.1093,0.14915 0.18898,0.18899 0.0575,0.0288 0.48186,0 0.56697,0 0.44097,0 0.88194,0 1.32291,0 0.62997,0 1.25993,0 1.88989,0 0.15214,0 0.63733,0.0395 0.75595,0 1.36892,-0.45631 -0.29796,0.0545 0.56696,-0.37798 0.0563,-0.0282 0.12599,0 0.18899,0 0.12599,0 0.25845,0.0398 0.37798,0 0.0845,-0.0282 0.1093,-0.14914 0.18898,-0.18898 0.15119,-0.0756 0.41578,0.0756 0.56697,0 0.0797,-0.0398 0.15644,-0.10606 0.18899,-0.18899 0.28296,-0.72088 0.499,-1.46627 0.74851,-2.19941"
       id="path945"
       inkscape:connector-curvature="0" />
    <path
       style="fill:none;stroke:#ff0000;stroke-width:0.26458332px;stroke-linecap:butt;stroke-linejoin:miter;stroke-opacity:1"
       d="m 79.999999,142 c 0.427082,0.37848 0.854167,0.75695 1.28125,1.13542 0.251984,0.12599 0.535961,0.20198 0.755951,0.37798 0.109998,0.088 0.08939,0.27837 0.18899,0.37797 0.222723,0.22273 0.513977,0.36532 0.755951,0.56697 0.205322,0.1711 0.35315,0.4066 0.566965,0.56696 0.181708,0.13628 0.406355,0.21737 0.566965,0.37798 0.0996,0.0996 0.08938,0.27837 0.188987,0.37797 0.04454,0.0445 0.144444,-0.0445 0.188989,0 0.260419,0.26042 0.393428,1.16484 0.566963,1.51191 0.203157,0.40631 0.596447,0.70858 0.755954,1.13393 0.112786,0.30076 0.100743,0.63608 0.188986,0.94494 0.0387,0.13544 0.125992,0.25198 0.18899,0.37797 0.195511,0.39103 0.26121,0.47788 0.377975,0.94494 0.04725,0.18899 -0.09449,0.37798 0,0.56697 0.02817,0.0563 0.160817,-0.0564 0.18899,0 0.05634,0.11269 -0.03984,0.25845 0,0.37797 0.02817,0.0845 0.149145,0.10931 0.188986,0.18899 0.02817,0.0564 0,0.126 0,0.18899 0,0.18899 -0.04584,0.38362 0,0.56696 0.02162,0.0864 0.139571,0.11487 0.188989,0.18899 0.07814,0.11721 0.144442,0.24434 0.188987,0.37798 0.01992,0.0598 0,0.12599 0,0.18899 0,0.1934 -0.03904,1.35574 0,1.5119 0.03417,0.13666 0.144444,0.24434 0.188989,0.37798 0.01992,0.0598 -0.01527,0.12787 0,0.18899 0.04832,0.19326 0.140671,0.3737 0.188987,0.56696 0.04447,0.17787 -0.04447,0.38909 0,0.56696 0.03417,0.13666 0.125994,0.25199 0.188989,0.37798 0,0.18899 -0.03706,0.38165 0,0.56697 0.06618,0.33089 0.500785,0.80303 0.566965,1.13392 0.03706,0.18532 -0.03107,0.38055 0,0.56697 0.03275,0.1965 0.149918,0.37162 0.188987,0.56696 0.02471,0.12355 -0.03984,0.25845 0,0.37798 0.02817,0.0845 0.125992,0.12599 0.188989,0.18899 0.063,0.18898 0.140671,0.3737 0.188987,0.56696 0.01527,0.0611 0,0.12599 0,0.18899 0,0.37798 0,0.75595 0,1.13393 0,0.12599 -0.02471,0.25443 0,0.37797 0.03907,0.19534 0.156239,0.37047 0.188989,0.56697 0.04229,0.25374 0,1.22527 0,1.5119 0,0.75596 0,1.51191 0,2.26786 0,0.56696 0,1.13393 0,1.70089 0,0.25199 0,0.50397 0,0.75596 0,0.12599 -0.02471,0.25443 0,0.37797 0.03907,0.19534 0.149921,0.37162 0.188989,0.56697 0.02471,0.12354 0,0.25198 0,0.37797 0,0.18899 0,0.37798 0,0.56697 0,0.18898 -0.03107,0.38054 0,0.56696 0.03275,0.1965 0.156236,0.37046 0.188987,0.56696 0.07249,0.43498 -0.0547,0.88535 0,1.32292 0.02019,0.16147 0.273375,1.11371 0.377975,1.32291 0.10158,0.20316 0.29362,0.35608 0.37798,0.56697 0.0468,0.11698 -0.0468,0.26099 0,0.37797 0.0843,0.21089 0.2764,0.36381 0.37797,0.56697 0.0891,0.17818 0.0999,0.38878 0.18899,0.56696 0.0398,0.0797 0.12599,0.12599 0.18899,0.18899 0.12599,0.12599 0.29829,0.21861 0.37798,0.37798 0.0563,0.11269 -0.0699,0.27314 0,0.37797 0.0781,0.11721 0.27837,0.0894 0.37797,0.18899 0.0996,0.0996 0.10447,0.26529 0.18899,0.37798 0.19747,0.26329 0.51752,0.51752 0.75595,0.75595 0.12599,0.12599 0.25199,0.25198 0.37798,0.37797 0.063,0.063 0.11486,0.13958 0.18899,0.18899 0.1172,0.0781 0.26077,0.11085 0.37797,0.18899 0.0741,0.0494 0.11772,0.13554 0.18899,0.18899 0.18171,0.13628 0.38526,0.24169 0.56697,0.37798 0.14254,0.1069 0.2186,0.29829 0.37797,0.37797 0.0563,0.0282 0.13264,-0.0282 0.18899,0 0.86492,0.43247 -0.80195,-0.0783 0.56696,0.37798 0.1584,0.0528 0.63071,-0.0626 0.75596,0 0.0797,0.0398 0.1093,0.14915 0.18898,0.18899 0.1085,0.0542 0.78408,-0.0402 0.94494,0 0.13666,0.0342 0.24132,0.15482 0.37798,0.18899 0.12223,0.0306 0.25198,0 0.37798,0 0.18899,0 0.37797,0 0.56696,0 0.44097,0 0.88195,0 1.32292,0 0.50397,0 1.00794,0 1.5119,0 0.126,0 0.25443,0.0247 0.37798,0 0.5815,-0.1163 1.11939,-0.45067 1.70089,-0.56697 0.24709,-0.0494 0.51149,0.0611 0.75595,0 0.13666,-0.0342 0.24435,-0.14444 0.37798,-0.18899 0.1331,-0.0444 0.70524,0.0507 0.75595,0 0.0446,-0.0445 -0.0445,-0.14444 0,-0.18899 0.0891,-0.0891 0.26529,0.0563 0.37798,0 0.0797,-0.0398 0.1093,-0.14914 0.18899,-0.18898 0.0683,-0.0342 0.81349,0 0.94494,0 0.69295,0 1.38591,0 2.07887,0 0.31498,0 0.62996,0 0.94494,0 0.063,0 0.19872,-0.0622 0.18899,0 -0.0677,0.43266 -0.25695,0.8373 -0.38542,1.25595"
       id="path947"
       inkscape:connector-curvature="0" />
    <path
       style="fill:none;stroke:#ff0000;stroke-width:0.26458332px;stroke-linecap:butt;stroke-linejoin:miter;stroke-opacity:1"
       d="m 79.999999,142 c -0.195892,1.44581 -0.401127,1.37996 -0.04167,2.45834 0.107278,0.32183 0.213225,0.64838 0.377976,0.94494 0.152969,0.27534 0.426101,0.47422 0.566965,0.75595 0.116157,0.23232 0.07283,0.52363 0.188987,0.75595 0.203157,0.40632 0.522232,0.7444 0.755954,1.13393 0.343575,0.57262 0.497459,1.08051 0.755951,1.70089 0.184526,0.44286 0.36408,0.88817 0.566966,1.32292 0.238275,0.51059 0.568422,0.98057 0.755951,1.5119 0.193299,0.54769 0.211087,1.1446 0.377976,1.7009 0.211876,0.70625 0.541266,1.37346 0.755952,2.07887 2.109049,6.92972 -0.811877,-2.09494 0.94494,4.34672 0.940356,3.44797 0.64197,0.68902 1.13393,3.96875 0.25794,1.7196 0.188987,2.19787 0.188987,3.96875 0,1.5749 0,3.1498 0,4.72471 0,0.50396 0,1.00793 0,1.5119 0,0.56696 -0.0298,1.13471 0,1.70089 0.129355,2.45773 0.159372,1.28108 0.566965,3.59077 0.08827,0.50016 0.135819,1.00681 0.188989,1.51191 0.07284,0.69199 0.05879,1.39534 0.188987,2.07886 0.123063,0.64609 0.368911,1.26272 0.566965,1.88989 0.179967,0.56989 0.350353,1.14389 0.566965,1.70089 0.224875,0.57825 0.507267,1.13247 0.755955,1.70089 0.1923,0.43954 0.36592,0.88731 0.56696,1.32292 0.35418,0.76739 0.80886,1.48769 1.13393,2.26786 0.15324,0.36777 0.25199,0.75595 0.37798,1.13393 0.063,0.18898 0.0999,0.38878 0.18899,0.56696 0.10157,0.20316 0.27639,0.36381 0.37797,0.56696 0.15172,0.30343 0.2376,0.63611 0.37798,0.94494 0.17487,0.38472 0.42255,0.73678 0.56696,1.13393 0.10978,0.30188 0.0967,0.63727 0.18899,0.94494 0.51718,1.72394 0.19755,0.21182 0.75595,1.70089 0.0912,0.24321 0.0867,0.51722 0.18899,0.75596 0.0895,0.20877 0.29362,0.35607 0.37798,0.56696 0.0468,0.11698 -0.0563,0.26529 0,0.37798 0.0797,0.15937 0.29829,0.21861 0.37797,0.37798 0.0563,0.11268 -0.0306,0.25574 0,0.37797 0.11039,0.44155 0.41419,0.4866 0.56697,0.94494 0.0199,0.0598 0,0.12599 0,0.18899 0.063,0.063 0.14914,0.1093 0.18899,0.18899 0.0282,0.0563 -0.0446,0.14444 0,0.18898 0.39102,0.39103 -0.0153,-0.59753 0.37797,0.18899 0.0282,0.0564 0,0.126 0,0.18899 0.063,0.12599 0.11085,0.26077 0.18899,0.37798 -0.0189,0.37439 0.27837,0.0894 0.37798,0.18899 0.0445,0.0445 -0.0446,0.14444 0,0.18898 0.0891,0.0891 0.26528,-0.0563 0.37797,0 0.0797,0.0399 0.10931,0.14915 0.18899,0.18899 0.0563,0.0282 0.12599,0 0.18899,0 0.12599,0 0.25845,-0.0398 0.37798,0 0.0845,0.0282 0.10447,0.16082 0.18898,0.18899 0.0974,0.0324 1.123,0 1.32292,0 0.1828,0 1.07788,-0.028 1.13393,0 0.0797,0.0398 0.10447,0.16081 0.18899,0.18899 0.56696,0.18899 0.18898,-0.0945 0.56696,0 0.19327,0.0483 0.37162,0.14992 0.56697,0.18899 0.18754,0.0375 0.74638,0 0.94494,0 0.81894,0 1.63789,0 2.45684,0 1.07093,0 2.14187,0 3.2128,0 0.25198,0 0.50397,0 0.75595,0 0.063,0 0.18899,-0.063 0.18899,0 0,0.063 -0.12599,0 -0.18899,0 0.0605,0.4995 0.12103,0.999 0.18155,1.49851"
       id="path951"
       inkscape:connector-curvature="0" />
    <path
       style="fill:none;stroke:#000000;stroke-width:0.26458332px;stroke-linecap:butt;stroke-linejoin:miter;stroke-opacity:1"
       d="m 29.999999,242 c 0.336807,-0.32292 0.619223,-0.71443 1.010417,-0.96875 0.08009,-0.0521 0.198813,0.28839 0.377976,0.37798 0.178181,0.0891 0.396142,0.0865 0.566965,0.18898 0.152786,0.0917 0.238842,0.26667 0.377976,0.37798 0.177363,0.14189 0.377976,0.25198 0.566965,0.37797 0.188986,0.126 0.35429,0.29823 0.566962,0.37798 0.300768,0.11279 0.631373,0.11931 0.944941,0.18899 0.253556,0.0563 0.503968,0.12599 0.755954,0.18899 0.377976,0.063 0.759862,0.10586 1.133928,0.18898 1.399122,0.31092 -0.530969,0.1548 1.700892,0.37798 0.250735,0.0251 0.503968,0 0.755952,0 0.314981,0 0.629962,0 0.944941,0 1.511906,0 3.023809,0 4.535715,0 2.393849,0 4.787699,0 7.181548,0 0.755952,0 1.511903,0 2.267857,0 0.377976,0 0.758265,0.0417 1.133928,0 0.197993,-0.022 0.375417,-0.13426 0.566965,-0.18899 1.661125,-0.4746 -0.03647,0.0752 1.322917,-0.37797 0.188986,-0.063 0.377975,-0.12599 0.566962,-0.18899 0.188989,-0.063 0.370464,-0.15624 0.566965,-0.18899 0.186417,-0.0311 0.387675,0.0598 0.566965,0 0.215479,-0.0718 0.372197,-0.26112 0.566965,-0.37798 0.120788,-0.0725 0.251984,-0.12599 0.377976,-0.18898 0.377976,-0.18899 0.738243,-0.41859 1.133927,-0.56697 0.11797,-0.0442 0.262173,0.0496 0.377976,0 1.287349,-0.55172 0.589071,-0.4986 1.700893,-1.13393 0.172966,-0.0988 0.396144,-0.0865 0.566965,-0.18899 0.464687,-0.27881 0.878964,-0.63417 1.322916,-0.94494 0.186076,-0.13025 0.389602,-0.23608 0.566965,-0.37797 0.139134,-0.11131 0.229722,-0.27914 0.377976,-0.37798 0.23441,-0.15627 0.526701,-0.21422 0.755952,-0.37797 0.217487,-0.15535 0.358261,-0.40001 0.566965,-0.56697 0.109995,-0.088 0.26077,-0.11085 0.377976,-0.18898 0.26208,-0.17473 0.493873,-0.39225 0.755951,-0.56697 0.117208,-0.0781 0.267981,-0.10099 0.377979,-0.18899 0.2087,-0.16696 0.358261,-0.4 0.566962,-0.56696 0.109998,-0.088 0.260771,-0.11085 0.377976,-0.18899 0.26208,-0.17472 0.499644,-0.38389 0.755954,-0.56697 0.184827,-0.13201 0.382135,-0.24595 0.566962,-0.37797 0.25631,-0.18308 0.499645,-0.38389 0.755955,-0.56697 0.184827,-0.13202 0.394509,-0.23016 0.566962,-0.37797 0.270568,-0.23192 0.48219,-0.52782 0.755954,-0.75595 0.108215,-0.0902 0.278371,-0.0894 0.377976,-0.18899 0.222724,-0.22273 0.327814,-0.55097 0.566965,-0.75595 0.213903,-0.18335 0.539523,-0.19762 0.755952,-0.37798 0.17449,-0.14541 0.251984,-0.37798 0.377976,-0.56697 0.251983,-0.12599 0.5267,-0.21422 0.755951,-0.37797 0.220488,-0.15749 0.692957,-0.73496 0.944941,-0.94494 0.241975,-0.20165 0.51398,-0.36532 0.755952,-0.56696 0.136882,-0.11407 0.251986,-0.25199 0.377978,-0.37798 0.251984,-0.18899 0.509992,-0.3702 0.755952,-0.56697 0.344802,-0.27584 0.591915,-0.68017 0.944941,-0.94494 0.112691,-0.0845 0.265284,-0.10447 0.377975,-0.18899 0.142545,-0.1069 0.251984,-0.25198 0.377976,-0.37797 0.063,-0.063 0.135536,-0.11772 0.188989,-0.18899 0.136279,-0.18171 0.217366,-0.40636 0.377976,-0.56696 0.09961,-0.0996 0.260771,-0.11086 0.377976,-0.18899 0.08604,-0.0574 0.725411,-0.69487 0.755952,-0.75595 0.08909,-0.17818 0.06946,-0.4076 0.188989,-0.56697 0.08452,-0.11269 0.260771,-0.11085 0.377976,-0.18899 0.07412,-0.0494 0.114861,-0.13957 0.188986,-0.18898 0.117208,-0.0781 0.260771,-0.11085 0.377979,-0.18899 0.222379,-0.14826 0.353147,-0.40661 0.566962,-0.56697 0.112691,-0.0845 0.278371,-0.0894 0.377976,-0.18899 0.09961,-0.0996 0.08938,-0.27837 0.188989,-0.37797 0.0996,-0.0996 0.267981,-0.10099 0.377976,-0.18899 0.208703,-0.16696 0.377976,-0.37798 0.566965,-0.56696 0.063,-0.063 0.114861,-0.13957 0.188987,-0.18899 0.234412,-0.15628 0.530571,-0.20894 0.755954,-0.37798 0.142544,-0.10691 0.229722,-0.27914 0.377976,-0.37797 0.05242,-0.0349 0.132643,0.0282 0.188986,0 0.203158,-0.10158 0.372198,-0.26112 0.566965,-0.37798 0.12079,-0.0725 0.265287,-0.10447 0.377976,-0.18899 0.142544,-0.10691 0.235434,-0.27107 0.377976,-0.37797 0.112691,-0.0845 0.251986,-0.126 0.377978,-0.18899 0.251984,-0.12599 0.514374,-0.23303 0.755952,-0.37798 0.07639,-0.0458 0.114861,-0.13957 0.188987,-0.18899 0.404063,-0.26937 0.880223,-0.38988 1.32292,-0.56696 0.13079,-0.0523 0.26077,-0.11085 0.37797,-0.18899 0.0741,-0.0494 0.10447,-0.16081 0.18899,-0.18899 0.23905,-0.0797 0.51149,0.0611 0.75595,0 0.27332,-0.0683 0.48869,-0.28888 0.75596,-0.37797 0.0598,-0.0199 0.12599,0 0.18898,0 0.19654,0 0.98527,0.0372 1.13393,0 0.91262,-0.22816 -0.009,-0.0898 0.56697,-0.37798 0.1115,-0.0558 0.43697,0.0433 0.56696,0 0.13364,-0.0445 0.24132,-0.15482 0.37798,-0.18899 0.15368,-0.0384 0.93609,0 1.13393,0 0.81895,0 1.63789,0 2.45684,0 0.16001,0 0.65435,0.0339 0.75595,0 0.0845,-0.0282 0.10931,-0.14914 0.18899,-0.18898 0.11878,-0.0594 0.63717,0.0594 0.75595,0 0.0797,-0.0399 0.10931,-0.14915 0.18899,-0.18899 0.0575,-0.0288 0.48185,0 0.56697,0 0.56696,0 1.13393,0 1.70089,0 0.1305,0 0.69849,0.0287 0.75595,0 0.86493,-0.43247 -0.80195,0.0783 0.56697,-0.37798 0.11952,-0.0398 0.25198,0 0.37797,0 0.25199,0 0.50397,0 0.75595,0 0.126,0 0.26529,0.0563 0.37798,0 0.0563,-0.0282 -0.0563,-0.16082 0,-0.18899 0.11269,-0.0563 0.25198,0 0.37798,0 0.31498,0 0.62996,0 0.94494,0 0.063,0 0.13264,0.0282 0.18899,0 0.0797,-0.0398 0.1093,-0.14914 0.18898,-0.18899 0.10253,-0.0513 0.70424,0.0517 0.75596,0 0.0445,-0.0445 -0.0446,-0.14444 0,-0.18898 0.0445,-0.0445 0.12599,0 0.18898,0 0.37798,0 0.75596,0 1.13393,0 0.063,0 0.14444,0.0445 0.18899,0 0.0446,-0.0445 -0.0446,-0.14445 0,-0.18899 0.0446,-0.0445 0.17371,-0.0611 0.18899,0 0.0587,0.23485 -0.005,0.48413 -0.007,0.72619"
       id="path953"
       inkscape:connector-curvature="0" />
    <path
       style="fill:none;stroke:#000000;stroke-width:0.26458332px;stroke-linecap:butt;stroke-linejoin:miter;stroke-opacity:1"
       d="m 110,195 c -3.26683,1.17233 3.13062,-0.91422 -0.37054,0.48512 -0.13079,0.0523 -0.25718,0.11648 -0.37797,0.18898 -0.19477,0.11687 -0.35608,0.29358 -0.56697,0.37798 -0.23396,0.0936 -0.52199,-0.0936 -0.75595,0 -0.21089,0.0844 -0.35608,0.29358 -0.56696,0.37798 -0.29825,0.11929 -0.6995,-0.22847 -0.94494,0.18899 -0.26158,0.10463 -0.49438,0.27334 -0.75596,0.37797 -0.36992,0.14797 -0.77757,0.1998 -1.13393,0.37798 -0.20315,0.10158 -0.3638,0.2764 -0.56696,0.37798 -0.35636,0.17817 -0.76772,0.22103 -1.13393,0.37797 -2.31929,0.99399 0.57508,-0.19304 -1.32292,0.75595 -0.17817,0.0891 -0.38878,0.0999 -0.56696,0.18899 -0.20316,0.10158 -0.36381,0.2764 -0.56696,0.37798 -0.17818,0.0891 -0.38879,0.0999 -0.56697,0.18898 -0.20315,0.10158 -0.3722,0.26112 -0.56696,0.37798 -0.24158,0.14495 -0.52154,0.2217 -0.75595,0.37798 -0.26209,0.17472 -0.49388,0.39224 -0.75596,0.56696 -0.1172,0.0781 -0.26077,0.11089 -0.37797,0.18899 -0.0741,0.0494 -0.10929,0.14919 -0.18899,0.18899 -0.17818,0.0891 -0.4076,0.0695 -0.56697,0.18899 -0.11268,0.0845 -0.0763,0.29347 -0.18898,0.37797 -0.15937,0.11949 -0.39615,0.0865 -0.56697,0.18899 -0.1088,0.0653 -0.83889,0.83889 -0.94494,0.94494 l -0.94494,0.94494 c -0.18899,0.18899 -0.39586,0.36164 -0.56696,0.56697 -0.40329,0.48394 -0.58849,1.13306 -1.13393,1.5119 -0.11596,0.13529 -0.27107,0.23543 -0.37798,0.37798 -0.27256,0.36341 -0.47217,0.7792 -0.75595,1.13392 -0.22262,0.27827 -0.53334,0.47769 -0.75595,0.75596 -1.874098,2.34262 0.0437,0.12339 -1.133931,1.88988 -0.687642,1.03146 -0.853461,0.94829 -1.700893,1.88988 -0.539684,0.59965 -0.975934,1.28691 -1.511906,1.88988 -0.236751,0.26635 -0.519199,0.48961 -0.755951,0.75595 -0.267986,0.30149 -0.508307,0.62654 -0.755952,0.94494 -0.193378,0.24863 -0.344241,0.53323 -0.566965,0.75596 -0.222723,0.22272 -0.533228,0.34423 -0.755951,0.56696 -0.16061,0.16061 -0.217369,0.40636 -0.377976,0.56697 -0.222727,0.22272 -0.533228,0.34423 -0.755955,0.56696 -0.222723,0.22272 -0.359547,0.5189 -0.566962,0.75595 -0.234664,0.26819 -0.50397,0.50397 -0.755954,0.75595 -0.125992,0.126 -0.242692,0.26202 -0.377976,0.37798 -0.852043,0.73032 -1.807088,1.33332 -2.645833,2.07887 -0.913379,0.81189 -0.62234,0.79287 -1.700893,1.5119 -0.23441,0.15628 -0.530571,0.20894 -0.755951,0.37798 -0.285089,0.21381 -0.47466,0.53717 -0.755955,0.75595 -0.289949,0.22552 -0.644014,0.35632 -0.944938,0.56697 -0.66091,0.46263 -1.209265,1.07878 -1.889882,1.5119 -0.356523,0.22688 -0.782312,0.33255 -1.13393,0.56696 -0.222379,0.14826 -0.355994,0.40288 -0.566962,0.56697 -0.358579,0.27889 -0.78495,0.46513 -1.13393,0.75595 -0.410644,0.34221 -0.755952,0.75596 -1.133927,1.13393 -0.314982,0.18899 -0.65499,0.34145 -0.944941,0.56696 -0.492263,0.38288 -0.824013,0.94874 -1.322917,1.32292 -0.293862,0.2204 -0.666046,0.32791 -0.944941,0.56697 -0.172453,0.14781 -0.228407,0.39602 -0.377976,0.56696 -0.29333,0.33524 -0.609705,0.65161 -0.94494,0.94494 -0.170937,0.14957 -0.389602,0.23609 -0.566965,0.37798 -0.139134,0.1113 -0.242692,0.26201 -0.377976,0.37797 -0.306261,0.26251 -0.638678,0.49345 -0.944941,0.75595 -0.135284,0.11596 -0.266668,0.23885 -0.377976,0.37798 -0.141891,0.17736 -0.200612,0.42507 -0.377976,0.56697 -0.155556,0.12448 -0.401211,0.0785 -0.566965,0.18898 -0.222379,0.14826 -0.34458,0.41871 -0.566962,0.56697 -0.165754,0.11049 -0.380439,0.11909 -0.566965,0.18899 -0.530807,0.19905 -1.84876,0.74936 -2.267858,0.94494 -0.510593,0.23827 -0.970129,0.60116 -1.511903,0.75595 -1.925301,0.55006 -2.80416,0.2572 -4.724704,0.56696 -1.207556,0.19477 -2.382274,0.56713 -3.590774,0.75595 -0.81152,0.12679 -1.639295,0.10989 -2.456844,0.18899 -1.135603,0.1099 -2.273753,0.20706 -3.401785,0.37798 -0.952781,0.14436 -1.886175,0.39756 -2.834823,0.56697 -0.815678,0.14565 -1.637895,0.25198 -2.456844,0.37797 -0.109805,0.0169 -3.637367,0.59476 -4.157739,0.56696 -0.476935,-0.0255 -0.925595,-0.23611 -1.388393,-0.35416 0.462798,0.0551 0.923086,0.13868 1.388394,0.16518 0.503153,0.0286 1.007936,0 1.511905,0 h 2.078869 c 2.323586,0 2.630188,0.0503 5.102678,-0.18899 1.011057,-0.0978 2.032218,-0.15762 3.02381,-0.37798 1.284072,-0.28535 2.51376,-0.77685 3.779762,-1.13392 1.1912,-0.33598 2.423076,-0.53467 3.590774,-0.94494 1.367203,-0.48037 4.62467,-2.09489 6.047619,-2.83483 0.780156,-0.40568 3.688837,-2.00828 4.346726,-2.45684 0.666553,-0.45447 1.228971,-1.04927 1.889881,-1.51191 0.601851,-0.42129 1.319706,-0.67066 1.889881,-1.13392 0.450763,-0.36625 0.723244,-0.91224 1.133928,-1.32292 0.410684,-0.41069 0.896147,-0.73999 1.322917,-1.13393 0.392781,-0.36257 0.741147,-0.77136 1.133929,-1.13393 0.426769,-0.39394 0.928975,-0.70716 1.322916,-1.13393 0.367569,-0.3982 0.610136,-0.8968 0.944941,-1.32291 3.461254,-4.40524 -0.900373,1.53954 1.889881,-2.64584 0.349439,-0.52416 0.777038,-0.99279 1.133928,-1.5119 1.636781,-2.38077 0.301639,-0.65846 1.889881,-3.40179 0.341409,-0.5897 0.788442,-1.11356 1.133929,-1.70089 0.745285,-1.26699 0.844388,-1.87777 1.511904,-3.2128 0.227136,-0.45427 0.503969,-0.88194 0.755953,-1.32291 0.31498,-0.44098 0.68802,-0.84578 0.94494,-1.32292 0.188892,-0.3508 0.211015,-0.77218 0.377977,-1.13393 0.212835,-0.46114 0.543116,-0.86177 0.755952,-1.32292 0.166962,-0.36175 0.209489,-0.77288 0.377976,-1.13393 1.789883,-3.83546 0.236787,0.16399 1.511905,-3.0238 0.199897,-0.49975 0.367067,-1.01217 0.566964,-1.51191 0.35636,-0.8909 0.797016,-1.7474 1.133929,-2.64583 0.209843,-0.55958 0.327422,-1.15337 0.566964,-1.7009 0.203572,-0.4653 0.567327,-0.85135 0.755952,-1.32291 0.19293,-0.48233 0.231397,-1.01354 0.377977,-1.51191 0.168631,-0.57335 0.357121,-1.14131 0.566964,-1.70089 0.168456,-0.44922 0.405602,-0.8711 0.566964,-1.32292 0.15425,-0.4319 0.213342,-0.89486 0.377976,-1.32291 0.151701,-0.39443 0.377977,-0.75596 0.566965,-1.13393 0.251984,-0.50397 0.519832,-1.00031 0.755952,-1.51191 0.341008,-0.73885 0.603933,-1.529 0.94494,-2.26785 0.177088,-0.3837 0.410018,-0.74157 0.566968,-1.13393 0.0965,-0.24116 0.0835,-0.5186 0.18898,-0.75595 0.14919,-0.33567 0.37798,-0.62997 0.56697,-0.94495 0.18899,-0.31498 0.35346,-0.64603 0.56696,-0.94494 0.10357,-0.14499 0.28631,-0.22518 0.37798,-0.37797 0.10249,-0.17082 0.0865,-0.39614 0.18899,-0.56697 0.0917,-0.15278 0.2863,-0.22518 0.37797,-0.37797 0.1025,-0.17082 0.0695,-0.4076 0.18899,-0.56697 0.0845,-0.11269 0.27837,-0.0894 0.37798,-0.18898 0.0445,-0.0446 -0.0282,-0.13265 0,-0.18899 0.0797,-0.15937 0.29829,-0.21861 0.37797,-0.37798 0.0282,-0.0563 -0.0445,-0.14444 0,-0.18899 0.0446,-0.0445 0.13265,0.0282 0.18899,0 0.16751,-0.0837 0.39493,-0.45227 0.56697,-0.56696 0.1172,-0.0781 0.27837,-0.0894 0.37797,-0.18899 0.0446,-0.0445 -0.0445,-0.14444 0,-0.18899 0.0121,-0.0121 0.72075,-0.35451 0.75596,-0.37797 0.0741,-0.0494 0.11486,-0.13957 0.18898,-0.18899 0.11721,-0.0781 0.26529,-0.10447 0.37798,-0.18899 0.14254,-0.10691 0.23543,-0.27107 0.37798,-0.37798 0.22538,-0.16903 0.52154,-0.2217 0.75595,-0.37797 0.0741,-0.0494 0.1093,-0.14915 0.18899,-0.18899 0.0563,-0.0282 0.12922,0.0199 0.18898,0 0.13364,-0.0446 0.25199,-0.12599 0.37798,-0.18899 0.12599,-0.063 0.26077,-0.11085 0.37798,-0.18899 0.0741,-0.0494 0.11486,-0.13957 0.18898,-0.18898 0.11721,-0.0781 0.25199,-0.126 0.37798,-0.18899 0.12599,-0.063 0.24719,-0.13668 0.37798,-0.18899 0.18496,-0.074 0.39614,-0.0865 0.56696,-0.18899 0.15279,-0.0917 0.21861,-0.29829 0.37798,-0.37798 0.23232,-0.11615 0.52363,-0.0728 0.75595,-0.18898 0.15937,-0.0797 0.22519,-0.2863 0.37798,-0.37798 0.17082,-0.10249 0.38878,-0.0999 0.56696,-0.18898 0.32855,-0.16428 0.62601,-0.38472 0.94494,-0.56697 0.51708,-0.29547 0.29961,-0.11984 0.94494,-0.37797 0.70717,-0.28287 0.0575,-0.12327 0.94494,-0.56697 0.17818,-0.0891 0.39614,-0.0865 0.56697,-0.18899 0.15278,-0.0917 0.22972,-0.27914 0.37797,-0.37797 0.0524,-0.0349 0.13265,0.0282 0.18899,0 0.0797,-0.0398 0.11486,-0.13957 0.18899,-0.18899 0.1172,-0.0781 0.27837,-0.0894 0.37797,-0.18899 0.0996,-0.0996 0.0718,-0.29984 0.18899,-0.37797 0.10483,-0.0699 0.26529,0.0563 0.37798,0 0.15937,-0.0797 0.27914,-0.22973 0.37798,-0.37798 0.0349,-0.0524 -0.0564,-0.16082 0,-0.18899 0.11269,-0.0564 0.25574,0.0306 0.37797,0 0.13666,-0.0342 0.24434,-0.14444 0.37798,-0.18899 0.0598,-0.0199 0.14444,0.0445 0.18899,0 0.0996,-0.0996 0.0718,-0.29984 0.18898,-0.37797 0.10484,-0.0699 0.25845,0.0398 0.37798,0 0.16904,-0.0563 0.21861,-0.2983 0.37798,-0.37798 0.0563,-0.0282 0.13264,0.0282 0.18898,0 0.0797,-0.0398 0.126,-0.12599 0.18899,-0.18899 0.063,-0.063 0.12599,-0.12599 0.18899,-0.18899 0.063,-0.063 0.12599,-0.12599 0.18899,-0.18898 0.063,-0.063 0.19624,-0.1002 0.18899,-0.18899 C 110.32438,168.46859 110.12847,167.7386 110,167"
       id="path955"
       inkscape:connector-curvature="0"
       sodipodi:nodetypes="ccccccccccccsccccccccccsscccccccccccccccccscccccccccccccccccccccccccccccccccsscccccccccccsccccsccccccccscccccccccccsccccccccccccccccccccsscccccccccscccccccccccccccccccccc" />
    <path
       style="fill:none;stroke:#ff00ff;stroke-width:0.26458332px;stroke-linecap:butt;stroke-linejoin:miter;stroke-opacity:1"
       d="m 160,207 c 0.17265,0.43247 0.30897,0.88128 0.51796,1.29741 0.02,0.0398 0.0891,0 0.13363,0 0.22272,0 0.44545,0 0.66817,0 0.35636,0 0.71272,0 1.06908,0 0.13364,0 0.27126,0.0324 0.40091,0 0.19326,-0.0483 0.34127,-0.21895 0.53454,-0.26727 0.0864,-0.0216 0.17991,0.0175 0.26727,0 0.13812,-0.0276 0.26277,-0.10601 0.4009,-0.13363 0.0874,-0.0175 0.18084,0.0216 0.26727,0 0.0966,-0.0242 0.18186,-0.0824 0.26727,-0.13364 0.33082,-0.19849 0.4128,-0.34533 0.80181,-0.4009 0.17639,-0.0252 0.35878,0.0293 0.53454,0 0.0983,-0.0164 0.17478,-0.0966 0.26727,-0.13364 0.13079,-0.0523 0.27011,-0.0813 0.4009,-0.13363 0.18496,-0.074 0.36372,-0.16478 0.53454,-0.26727 0.13772,-0.0826 0.25178,-0.20762 0.4009,-0.26727 0.0827,-0.0331 0.17819,0 0.26727,0 0.0446,0 0.0966,0.0247 0.13364,0 0.10483,-0.0699 0.16647,-0.19167 0.26727,-0.26727 0.15937,-0.11953 0.36878,-0.15677 0.53454,-0.26727 0.0524,-0.0349 0.0773,-0.10546 0.13363,-0.13363 0.12599,-0.063 0.2837,-0.0555 0.40091,-0.13364 0.0371,-0.0247 -0.0315,-0.10214 0,-0.13363 0.0704,-0.0704 0.18758,-0.0739 0.26726,-0.13364 0.1512,-0.11339 0.24366,-0.29607 0.40091,-0.4009 0.0829,-0.0553 0.19684,-0.0632 0.26727,-0.13364 0.11357,-0.11356 0.1537,-0.28733 0.26727,-0.4009 0.0315,-0.0315 0.10214,0.0315 0.13363,0 0.0704,-0.0704 0.0632,-0.19684 0.13364,-0.26727 0.27649,-0.2765 -0.0108,0.42252 0.26727,-0.13363 0.0199,-0.0399 -0.0199,-0.0938 0,-0.13364 0.0282,-0.0563 0.11371,-0.0739 0.13363,-0.13364 0.0282,-0.0845 -0.0282,-0.18275 0,-0.26726 0.0199,-0.0598 0.10547,-0.0773 0.13364,-0.13364 0.0199,-0.0398 -0.0199,-0.0938 0,-0.13363 0.0282,-0.0563 0.11371,-0.0739 0.13363,-0.13364 0.0282,-0.0845 0,-0.17818 0,-0.26727 0,-0.0445 -0.0199,-0.0938 0,-0.13363 0.31553,-0.63105 -0.0703,0.81565 0.26727,-0.53454 0.0324,-0.12965 -0.0324,-0.27126 0,-0.40091 0.0242,-0.0966 0.10948,-0.17063 0.13364,-0.26726 0.0216,-0.0864 0,-0.17819 0,-0.26728 0,-0.13363 0,-0.26727 0,-0.4009 0,-0.15524 -0.0303,-0.54703 0,-0.66817 0.0241,-0.0966 0.10947,-0.17064 0.13363,-0.26727 0.0324,-0.12965 0,-0.26727 0,-0.40091 0,-0.4009 0,-0.8018 0,-1.20271 0,-0.48999 0,-0.97999 0,-1.46998 0,-0.11581 0.0258,-0.45713 0,-0.53454 -0.0315,-0.0945 -0.0891,-0.17818 -0.13363,-0.26727 -0.0445,-0.0891 -0.0784,-0.18439 -0.13364,-0.26727 -0.0349,-0.0524 -0.11371,-0.0739 -0.13363,-0.13364 -0.0282,-0.0845 0.0282,-0.18275 0,-0.26726 -0.0199,-0.0598 -0.0987,-0.0812 -0.13364,-0.13364 -0.0553,-0.0829 -0.0784,-0.18439 -0.13363,-0.26727 -0.0699,-0.10483 -0.22743,-0.14774 -0.26727,-0.26727 -0.0282,-0.0845 0.0398,-0.18758 0,-0.26727 -0.13364,-0.26727 -0.26727,-0.20045 -0.40091,-0.4009 -0.1105,-0.16575 -0.15676,-0.36879 -0.26727,-0.53454 -0.0349,-0.0524 -0.0891,-0.0891 -0.13363,-0.13364 -0.0935,-0.0935 -0.30736,-0.30736 -0.4009,-0.4009 -0.0891,-0.0891 -0.19739,-0.16244 -0.26728,-0.26727 -0.0553,-0.0829 -0.0632,-0.19684 -0.13363,-0.26727 -0.0704,-0.0704 -0.18439,-0.0784 -0.26727,-0.13364 -0.0524,-0.0349 -0.0812,-0.0987 -0.13363,-0.13363 -0.0829,-0.0553 -0.1844,-0.0784 -0.26727,-0.13363 -0.0524,-0.035 -0.0773,-0.10547 -0.13364,-0.13364 -0.0398,-0.0199 -0.0938,0.0199 -0.13363,0 -0.11269,-0.0563 -0.14774,-0.22743 -0.26727,-0.26727 -0.0845,-0.0282 -0.18275,0.0282 -0.26727,0 -0.0598,-0.0199 -0.0812,-0.0987 -0.13364,-0.13363 -0.0829,-0.0553 -0.17277,-0.10214 -0.26727,-0.13364 -0.0845,-0.0282 -0.18758,0.0398 -0.26726,0 -0.0564,-0.0282 -0.0773,-0.10546 -0.13364,-0.13363 -0.0398,-0.0199 -0.0938,0.0199 -0.13363,0 -0.0564,-0.0282 -0.0773,-0.10546 -0.13364,-0.13364 -0.33414,-0.16707 -0.6013,-0.1002 -0.93544,-0.26727 -0.11269,-0.0563 -0.14775,-0.22742 -0.26727,-0.26727 -0.0845,-0.0282 -0.18275,0.0282 -0.26727,0 -0.0598,-0.0199 -0.0773,-0.10546 -0.13364,-0.13363 -0.0398,-0.0199 -0.0938,0.0199 -0.13363,0 -0.0564,-0.0282 -0.0773,-0.10546 -0.13364,-0.13364 -0.0797,-0.0398 -0.20427,0.063 -0.26727,0 -0.0315,-0.0315 0.0399,-0.11371 0,-0.13363 -0.13363,-0.0668 -0.26726,0.0334 -0.4009,0 -0.23794,0.26838 -0.4009,-0.22272 -0.53454,-0.26727 -0.0845,-0.0282 -0.17818,0 -0.26727,0 -0.0445,0 -0.0938,0.0199 -0.13363,0 -0.0563,-0.0282 -0.0739,-0.11371 -0.13364,-0.13363 -0.0845,-0.0282 -0.18084,0.0216 -0.26727,0 -0.0966,-0.0242 -0.17277,-0.10214 -0.26727,-0.13364 -0.0845,-0.0282 -0.18275,0.0282 -0.26727,0 -0.0945,-0.0315 -0.17277,-0.10214 -0.26727,-0.13363 -0.0423,-0.0141 -0.0938,0.0199 -0.13363,0 -0.0564,-0.0282 -0.0773,-0.10547 -0.13364,-0.13364 -0.0397,-0.0199 -0.74559,0 -0.8018,0 -0.0446,0 -0.0938,0.0199 -0.13364,0 -0.0564,-0.0282 -0.0773,-0.10546 -0.13363,-0.13363 -0.0351,-0.0176 -0.46466,0 -0.53454,0 -0.0857,0 -0.25895,0.0315 -0.26727,-0.13364 -0.0367,-0.72831 0.0111,-1.45843 0.0166,-2.18764"
       id="path957"
       inkscape:connector-curvature="0" />
    <path
       style="fill:none;stroke:#ff00ff;stroke-width:0.26458332px;stroke-linecap:butt;stroke-linejoin:miter;stroke-opacity:1"
       d="m 160,212 c 0.2172,-0.25421 0.37035,-0.5818 0.65159,-0.76262 0.14988,-0.0964 0.35636,0 0.53454,0 0.48999,0 0.97999,0 1.46998,0 1.60362,0 3.20724,0 4.81085,0 1.11363,0 2.22725,0 3.34087,0 0.31182,0 0.62363,0 0.93545,0 0.13363,0 0.2683,0.0166 0.4009,0 0.22538,-0.0282 0.44782,-0.0786 0.66817,-0.13364 0.55159,-0.13789 0.73622,-0.4016 1.20272,-0.66817 0.17296,-0.0988 0.36878,-0.15677 0.53454,-0.26727 0.10483,-0.0699 0.16243,-0.19738 0.26727,-0.26727 0.16575,-0.1105 0.35636,-0.17818 0.53454,-0.26727 0.17818,-0.0891 0.35635,-0.17818 0.53454,-0.26727 0.0891,-0.0445 0.18948,-0.0714 0.26726,-0.13364 0.14758,-0.11806 0.24712,-0.29105 0.40091,-0.4009 0.1621,-0.11579 0.36878,-0.15677 0.53454,-0.26727 0.10483,-0.0699 0.16888,-0.18856 0.26727,-0.26727 0.12541,-0.10033 0.28733,-0.1537 0.4009,-0.26727 0.11357,-0.11356 0.1537,-0.28733 0.26727,-0.4009 0.35742,-0.35742 0.40369,-0.13781 0.66817,-0.53454 0.11051,-0.16575 0.16844,-0.36158 0.26727,-0.53454 0.0797,-0.13945 0.18215,-0.26471 0.26727,-0.4009 0.13767,-0.22026 0.26325,-0.44792 0.40091,-0.66818 0.51947,-0.83115 0.01,0.0831 0.66817,-1.06908 0.0494,-0.0865 0.0824,-0.18185 0.13364,-0.26726 0.0826,-0.13772 0.19544,-0.25726 0.26727,-0.40091 0.063,-0.12599 0.0842,-0.26901 0.13363,-0.4009 0.0842,-0.22461 0.18304,-0.44357 0.26727,-0.66818 0.0495,-0.13189 0.0706,-0.27491 0.13364,-0.4009 0.0718,-0.14365 0.21648,-0.24854 0.26726,-0.40091 0.0423,-0.12677 0,-0.26726 0,-0.4009 0,-0.17818 -0.0221,-0.35774 0,-0.53454 0.0228,-0.18224 0.11086,-0.35229 0.13364,-0.53454 0.0221,-0.1768 -0.0252,-0.35815 0,-0.53454 0.0199,-0.13944 0.11371,-0.26145 0.13363,-0.4009 0.0252,-0.17639 0,-0.35636 0,-0.53454 0,-0.53454 0,-1.06908 0,-1.60362 0,-0.31181 0,-0.62363 0,-0.93544 0,-0.13364 0.0262,-0.26987 0,-0.40091 -0.0195,-0.0977 -0.0891,-0.17817 -0.13363,-0.26727 -0.13364,-0.26726 -0.30641,-0.51832 -0.4009,-0.8018 -0.0282,-0.0845 0.0282,-0.18275 0,-0.26727 -0.063,-0.18899 -0.17819,-0.35636 -0.26728,-0.53454 -0.0891,-0.17818 -0.17052,-0.3604 -0.26726,-0.53454 -0.12614,-0.22705 -0.29542,-0.43082 -0.40091,-0.66817 -0.0746,-0.16784 -0.0755,-0.36031 -0.13363,-0.53455 -0.26409,-0.79226 -0.22408,-0.50416 -0.53454,-1.20271 -0.0974,-0.2192 -0.15999,-0.45361 -0.26727,-0.66817 -0.0718,-0.14365 -0.18215,-0.26471 -0.26727,-0.4009 -0.13766,-0.22026 -0.24994,-0.45682 -0.40091,-0.66818 -0.0732,-0.10252 -0.21763,-0.15146 -0.26727,-0.26727 -0.0895,-0.20877 -0.032,-0.46502 -0.13363,-0.66817 -0.22273,-0.44545 -0.44545,-0.29697 -0.66817,-0.66818 -0.0725,-0.12079 -0.0781,-0.27143 -0.13364,-0.4009 -0.20346,-0.47473 -0.26612,-0.53282 -0.53454,-0.93544 -0.17818,-0.26727 -0.33387,-0.55098 -0.53454,-0.80181 -0.15741,-0.19677 -0.35636,-0.35636 -0.53453,-0.53454 -0.0891,-0.0891 -0.19404,-0.16475 -0.26728,-0.26727 -0.15096,-0.21136 -0.22986,-0.4727 -0.4009,-0.66818 -0.14666,-0.16761 -0.37705,-0.24341 -0.53454,-0.4009 -0.11357,-0.11357 -0.1537,-0.28733 -0.26727,-0.4009 -0.15749,-0.15749 -0.37705,-0.24342 -0.53454,-0.40091 -0.15749,-0.15749 -0.24341,-0.37705 -0.4009,-0.53454 -0.11357,-0.11356 -0.28734,-0.1537 -0.40091,-0.26727 -0.11356,-0.11356 -0.16693,-0.27548 -0.26727,-0.4009 -0.22871,-0.2859 -0.51303,-0.43716 -0.8018,-0.66817 -0.0492,-0.0394 -0.0832,-0.0958 -0.13364,-0.13364 -0.25697,-0.19273 -0.52637,-0.36927 -0.80181,-0.53454 -0.0854,-0.0512 -0.19683,-0.0632 -0.26727,-0.13363 -0.0704,-0.0704 -0.0482,-0.21602 -0.13363,-0.26727 -0.15749,-0.0945 -0.38172,-0.0318 -0.53454,-0.13364 -0.13364,-0.0891 -0.1537,-0.28733 -0.26727,-0.4009 -0.0315,-0.0315 -0.098,0.0267 -0.13363,0 -0.15119,-0.11339 -0.26728,-0.26727 -0.40091,-0.40091 -0.0445,-0.0445 -0.0812,-0.0987 -0.13363,-0.13363 -0.0829,-0.0553 -0.17818,-0.0891 -0.26727,-0.13364 -0.96893,-0.48446 0.21129,0.14087 -0.40091,-0.26726 -0.0829,-0.0553 -0.18439,-0.0784 -0.26727,-0.13364 -0.0524,-0.0349 -0.0773,-0.10546 -0.13363,-0.13363 -0.0398,-0.0199 -0.10214,0.0315 -0.13364,0 -0.16276,-0.16277 -0.0626,-0.29857 -0.26727,-0.40091 -0.0398,-0.0199 -0.0966,0.0247 -0.13363,0 -0.14942,-0.0996 -0.38909,-0.38909 -0.53454,-0.53454 -0.26727,-0.26727 -0.53454,-0.53454 -0.80181,-0.80181 -0.0891,-0.0891 -0.19167,-0.16647 -0.26727,-0.26727 -0.0598,-0.0797 -0.0739,-0.18758 -0.13363,-0.26726 -0.0756,-0.1008 -0.17818,-0.17819 -0.26727,-0.26727 -0.0445,-0.0446 -0.0812,-0.0987 -0.13364,-0.13364 -0.0829,-0.0553 -0.19684,-0.0632 -0.26727,-0.13364 -0.11356,-0.11356 -0.16693,-0.27548 -0.26727,-0.4009 -0.52897,-0.66121 0.0264,0.16004 -0.66817,-0.53453 -0.11357,-0.11357 -0.17091,-0.27242 -0.26727,-0.40091 -0.11339,-0.15119 -0.26727,-0.26727 -0.4009,-0.4009 -0.10438,-0.10438 -0.28559,-0.32403 -0.40091,-0.40091 -0.0829,-0.0553 -0.18949,-0.0714 -0.26727,-0.13363 -0.14757,-0.11806 -0.26727,-0.26727 -0.4009,-0.4009 -0.17818,-0.17819 -0.35636,-0.35636 -0.53454,-0.53454 -0.0446,-0.0446 -0.0812,-0.0987 -0.13364,-0.13364 -0.0829,-0.0553 -0.19683,-0.0632 -0.26727,-0.13363 -0.0315,-0.0315 0.0315,-0.10214 0,-0.13364 -0.0315,-0.0315 -0.10213,0.0315 -0.13363,0 -0.0315,-0.0315 0.0247,-0.0966 0,-0.13363 -0.0699,-0.10484 -0.17818,-0.17818 -0.26727,-0.26727 -0.0445,-0.0445 -0.10546,-0.0773 -0.13363,-0.13364 -0.0199,-0.0398 0.0199,-0.0938 0,-0.13363 -0.27808,-0.55616 0.009,0.14286 -0.26727,-0.13364 -0.0315,-0.0315 0.0315,-0.10213 0,-0.13363 -0.0315,-0.0315 -0.10214,0.0315 -0.13364,0 -0.0315,-0.0315 0.0141,-0.0914 0,-0.13364 -0.0315,-0.0945 -0.0784,-0.18439 -0.13363,-0.26727 0.0133,-0.26473 -0.19684,-0.0632 -0.26727,-0.13363 -0.0315,-0.0315 0.0315,-0.10214 0,-0.13364 -0.0315,-0.0315 -0.11372,0.0398 -0.13364,0 -0.0398,-0.0797 0.0398,-0.18758 0,-0.26726 -0.0199,-0.0398 -0.10213,0.0315 -0.13363,0 -0.0315,-0.0315 -2.7e-4,-0.17818 0,-0.13364 0.006,0.68525 0.0111,1.37051 0.0166,2.05576"
       id="path959"
       inkscape:connector-curvature="0" />
    <path
       style="fill:none;stroke:#ff6600;stroke-width:0.26458332px;stroke-linecap:butt;stroke-linejoin:miter;stroke-opacity:1"
       d="m 160,167 c 0.43992,-0.44402 0.71337,-1.1805 1.31976,-1.33207 0.0308,-0.008 2.2204,1.1287 2.40543,1.20271 3.35973,1.11991 -0.0991,-0.0952 3.0736,1.20271 0.48257,0.19742 0.99533,0.31879 1.46998,0.53454 1.85513,1.01189 0.95994,0.57513 2.6727,1.33635 0.66157,0.29403 1.63239,0.70371 2.27179,1.06908 0.27889,0.15937 0.53081,0.36208 0.80181,0.53454 0.58055,0.36944 0.69929,0.3703 1.20271,0.80181 0.14349,0.12299 0.25742,0.27791 0.4009,0.4009 0.16911,0.14495 0.37705,0.24341 0.53454,0.4009 0.0704,0.0704 0.0714,0.1895 0.13364,0.26727 0.19677,0.24596 0.47918,0.41619 0.66817,0.66818 0.0598,0.0797 0.0699,0.19075 0.13364,0.26727 0.16131,0.19358 0.35636,0.35636 0.53454,0.53454 0.26727,0.26726 0.51482,0.55582 0.8018,0.8018 0.12195,0.10452 0.27897,0.16275 0.40091,0.26727 0.19132,0.16399 0.3449,0.36861 0.53454,0.53454 0.23449,0.41104 0.74624,0.39914 1.06908,0.66817 0.12338,0.10282 0.1537,0.28734 0.26727,0.40091 0.0704,0.0704 0.18758,0.0739 0.26726,0.13363 0.15119,0.1134 0.24366,0.29607 0.40091,0.40091 0.0829,0.0553 0.18759,0.0739 0.26727,0.13363 0.10059,0.0754 0.59273,0.56759 0.66817,0.66817 0.0598,0.0797 0.0632,0.19684 0.13364,0.26727 0.11357,0.11357 0.28733,0.15371 0.4009,0.26728 0.0704,0.0704 0.0739,0.18758 0.13364,0.26726 0.0756,0.1008 0.18661,0.17048 0.26727,0.26727 0.14258,0.1711 0.26177,0.36062 0.4009,0.53454 0.26727,0.33409 0,-0.13363 0.40091,0.40091 0.0598,0.0797 0.0632,0.19683 0.13363,0.26727 0.0704,0.0704 0.18439,0.0784 0.26727,0.13363 0.0524,0.0349 0.0891,0.0891 0.13363,0.13364 0.0891,0.0891 0.17818,0.17817 0.26727,0.26726 0.0891,0.0891 0.19739,0.16244 0.26727,0.26727 0.11051,0.16576 0.14775,0.37517 0.26727,0.53454 0.0756,0.1008 0.20245,0.15923 0.26727,0.26727 0.0725,0.12079 0.0706,0.27491 0.13364,0.40091 0.0282,0.0563 0.0987,0.0812 0.13363,0.13363 0.1105,0.16576 0.15677,0.36879 0.26727,0.53454 0.0349,0.0524 0.10546,0.0773 0.13363,0.13364 0.0199,0.0398 -0.0141,0.0914 0,0.13363 0.093,0.27886 0.30796,0.38932 0.40091,0.66818 0.0423,0.12677 -0.0324,0.27125 0,0.4009 0.0242,0.0966 0.10948,0.17064 0.13363,0.26727 0.0216,0.0864 0,0.17818 0,0.26727 0.0446,0.0891 0.10214,0.17277 0.13364,0.26727 0.0141,0.0423 0,0.0891 0,0.13363 0,0.13364 -0.022,0.26909 0,0.40091 0.0231,0.13894 0.0995,0.26424 0.13363,0.4009 0.0668,0.26727 -0.13363,0 0,0.40091 0.0199,0.0598 0.11836,0.0725 0.13364,0.13363 0.0298,0.11901 0,0.75798 0,0.93544 0,0.0446 -0.0141,0.0914 0,0.13364 0.37857,0.75713 -0.0498,-0.19921 0.13364,0.53454 0.0242,0.0966 0.10947,0.17064 0.13363,0.26727 0.0303,0.12114 0,0.51293 0,0.66817 0,0.44545 0,0.8909 0,1.33635 0,0.0923 -0.0203,0.49391 0,0.53454 0.0282,0.0563 0.10546,0.0773 0.13363,0.13363 0.015,0.0299 0,0.50279 0,0.53454 0,0.44545 0,0.8909 0,1.33635 0,0.57908 0,1.15817 0,1.73725 0,0.24553 0.0331,0.57036 0,0.80181 -0.26524,1.85669 0.007,-0.29437 -0.26726,0.80181 -0.0216,0.0864 0.0216,0.18084 0,0.26727 -0.0242,0.0966 -0.11411,0.16959 -0.13364,0.26727 -0.0262,0.13104 0.0423,0.27412 0,0.4009 -0.0508,0.15237 -0.19544,0.25725 -0.26727,0.4009 -0.0398,0.0797 0.0216,0.18084 0,0.26728 -0.0342,0.13665 -0.0995,0.26424 -0.13364,0.4009 -0.0216,0.0864 0.0282,0.18275 0,0.26727 -0.0315,0.0945 -0.0784,0.18439 -0.13363,0.26727 -0.0349,0.0524 -0.11371,0.0739 -0.13363,0.13363 -0.0204,0.0611 0.0297,0.47508 0,0.53454 -0.0282,0.0563 -0.10547,0.0773 -0.13364,0.13364 -0.0398,0.0797 0.0398,0.18758 0,0.26727 -0.0282,0.0563 -0.10546,0.0773 -0.13364,0.13363 -0.0199,0.0398 0.0141,0.0914 0,0.13363 -0.0315,0.0945 -0.10947,0.17064 -0.13363,0.26727 -0.0216,0.0864 0.0282,0.18276 0,0.26728 -0.0398,0.11952 -0.22743,0.14774 -0.26727,0.26726 -0.0282,0.0845 0.0216,0.18084 0,0.26727 -0.16133,0.64532 -0.0635,-0.007 -0.26727,0.40091 -0.0199,0.0398 0.0199,0.0938 0,0.13363 -0.30579,0.6116 0.0554,-0.56706 -0.26727,0.40091 -0.0141,0.0423 0.0199,0.0938 0,0.13363 -0.0282,0.0564 -0.10546,0.0773 -0.13363,0.13364 -0.16457,0.32913 0.3879,-0.12064 -0.13364,0.4009 -0.0315,0.0315 -0.11371,-0.0398 -0.13363,0 -0.0398,0.0797 0.0282,0.18275 0,0.26727 -0.0199,0.0598 -0.10546,0.0773 -0.13364,0.13364 -0.0199,0.0398 0.0199,0.0938 0,0.13363 -0.0802,0.16036 -0.32072,0.24054 -0.4009,0.4009 -0.0922,0.18433 0.16184,0.11954 -0.13364,0.26727 -0.0398,0.0199 -0.11371,-0.0398 -0.13363,0 -0.0398,0.0797 0.0398,0.18759 0,0.26727 -0.0199,0.0398 -0.10214,-0.0315 -0.13363,0 -0.0315,0.0315 0.0199,0.0938 0,0.13364 -0.0802,0.16036 -0.32073,0.24054 -0.40091,0.4009 -0.0199,0.0399 0.0315,0.10214 0,0.13364 -0.0315,0.0315 -0.10214,-0.0315 -0.13364,0 -0.0704,0.0704 -0.0632,0.19683 -0.13363,0.26727 -0.0315,0.0315 -0.10214,-0.0315 -0.13363,0 -0.0315,0.0315 0.0315,0.10213 0,0.13363 -0.0704,0.0704 -0.17278,0.10214 -0.26727,0.13364 -0.0423,0.0141 -0.10214,-0.0315 -0.13364,0 -0.0315,0.0315 0.0315,0.10213 0,0.13363 -0.0315,0.0315 -0.0938,-0.0199 -0.13363,0 -0.0564,0.0282 -0.0773,0.10546 -0.13364,0.13364 -0.0398,0.0199 -0.0938,-0.0199 -0.13363,0 -0.11269,0.0563 -0.16244,0.19738 -0.26727,0.26727 -0.0829,0.0553 -0.1844,0.0784 -0.26727,0.13363 -0.0524,0.0349 -0.0812,0.0987 -0.13364,0.13363 -0.0829,0.0553 -0.18439,0.0784 -0.26727,0.13364 -0.0524,0.0349 -0.0812,0.0987 -0.13363,0.13363 -0.0829,0.0553 -0.17818,0.0891 -0.26727,0.13364 -0.17818,0.0891 -0.34958,0.19328 -0.53454,0.26727 -0.13363,0.0445 -0.26727,0.0891 -0.4009,0.13363 -0.0446,0.0446 -0.0773,0.10546 -0.13364,0.13364 -0.25198,0.12599 -0.53802,0.16835 -0.80181,0.26727 -1.26763,0.47536 -0.10939,0.0486 -1.20271,0.53454 -0.21921,0.0974 -0.44979,0.168 -0.66817,0.26726 -0.27204,0.12366 -0.53454,0.26728 -0.80181,0.40091 -0.17818,0.0891 -0.34801,0.19732 -0.53454,0.26727 -0.17197,0.0645 -0.35636,0.0891 -0.53454,0.13363 -0.35636,0.0891 -0.71588,0.16636 -1.06908,0.26727 -0.44485,0.1271 -0.43413,0.18372 -0.93544,0.26727 -0.0879,0.0146 -0.18084,-0.0216 -0.26727,0 -0.28976,0.0724 -0.37842,0.32847 -0.66817,0.40091 -0.0651,0.0163 -0.46388,-0.0353 -0.53454,0 -0.0564,0.0282 -0.0773,0.10546 -0.13364,0.13363 -0.0398,0.0199 -0.0914,-0.0141 -0.13363,0 -0.0945,0.0315 -0.17064,0.10948 -0.26727,0.13364 -0.12965,0.0324 -0.27413,-0.0423 -0.40091,0 -0.0945,0.0315 -0.17277,0.10213 -0.26727,0.13363 -0.0423,0.0141 -0.0938,-0.0199 -0.13363,0 -0.0564,0.0282 -0.0725,0.11836 -0.13364,0.13364 -0.12964,0.0324 -0.26727,0 -0.4009,0 -0.0445,0 -0.0914,-0.0141 -0.13364,0 -0.0945,0.0315 -0.17277,0.10213 -0.26726,0.13363 -0.14201,0.0473 -0.39254,-0.0473 -0.53454,0 -0.0598,0.0199 -0.0773,0.10546 -0.13364,0.13364 -0.0398,0.0199 -0.0891,0 -0.13363,0 -0.0891,0 -0.18084,-0.0216 -0.26727,0 -0.0966,0.0241 -0.17064,0.10947 -0.26727,0.13363 -0.1179,0.0295 -0.42006,-0.0382 -0.53454,0 -0.0945,0.0315 -0.17278,0.10214 -0.26727,0.13364 -0.0423,0.0141 -0.0891,0 -0.13364,0 -0.1147,0 -0.72362,-0.0261 -0.80181,0 -0.0598,0.0199 -0.0773,0.10546 -0.13363,0.13363 -0.0797,0.0398 -0.18275,-0.0282 -0.26727,0 -0.0945,0.0315 -0.17278,0.10214 -0.26727,0.13364 -0.0423,0.0141 -0.0891,0 -0.13363,0 -0.22273,0 -0.44545,0 -0.66818,0 -0.0445,0 -0.0891,0 -0.13363,0 -0.0446,0 -0.0938,-0.0199 -0.13364,0 -0.0563,0.0282 -0.0773,0.10546 -0.13363,0.13363 -0.10691,0.0535 -0.294,-0.0534 -0.4009,0 -0.0564,0.0282 -0.0773,0.10546 -0.13364,0.13363 -0.0356,0.0178 -0.74135,0 -0.80181,0 -0.60834,0 -0.008,-0.063 -0.4009,0.13364 -0.0398,0.0199 -0.0891,0 -0.13364,0 -0.0891,0 -0.18275,-0.0282 -0.26727,0 -0.0598,0.0199 -0.0773,0.10546 -0.13363,0.13363 -0.0399,0.0199 -0.0891,0 -0.13364,0 -0.0947,0 -0.76725,-0.0173 -0.80181,0 -0.0563,0.0282 -0.0773,0.10547 -0.13363,0.13364 -0.0571,0.0285 -0.61535,0 -0.66817,0 -0.0446,0 -0.13364,0.0445 -0.13364,0 0,-0.0445 0.17818,0 0.13364,0 -0.0891,0 -0.17818,0 -0.26727,0 -0.3134,0 0.063,-0.0315 -0.26727,0.13363 -0.0398,0.0199 -0.0891,0 -0.13364,0 -0.0445,0 -0.0891,0 -0.13363,0 -0.0445,0 -0.1343,0.0445 -0.13364,0 0.006,-0.37275 0.10015,-0.73884 0.15022,-1.10826"
       id="path963"
       inkscape:connector-curvature="0" />
    <path
       style="fill:none;stroke:#ff6600;stroke-width:0.26458332px;stroke-linecap:butt;stroke-linejoin:miter;stroke-opacity:1"
       d="m 160,162 c 0.39538,-0.78188 0.57888,-1.71404 1.18613,-2.34564 0.24698,-0.25688 0.71272,0 1.06908,0 0.4009,0 0.80181,0 1.20271,0 0.49,0 0.97999,0 1.46998,0 0.53454,0 1.07079,-0.0426 1.60362,0 0.58403,0.0467 1.15588,0.1946 1.73725,0.26727 2.62092,0.32762 2.49728,0.12264 5.07812,0.80181 0.85833,0.22588 1.68965,0.54441 2.53907,0.80181 3.6126,1.09473 0.21424,-0.073 3.4745,1.20271 0.84941,0.33238 1.86264,0.61905 2.67269,1.06908 0.62689,0.34827 1.69226,1.16045 2.27179,1.60362 1.19594,0.91454 1.0053,0.77093 2.00452,1.60361 0.26728,0.22273 0.54438,0.43415 0.80181,0.66818 0.23307,0.21188 0.44545,0.44545 0.66818,0.66817 0.22272,0.22273 0.43275,0.45892 0.66817,0.66818 0.16647,0.14797 0.38788,0.23328 0.53454,0.4009 0.17104,0.19547 0.26146,0.44904 0.40091,0.66818 0.17245,0.271 0.3418,0.54483 0.53453,0.8018 0.0756,0.1008 0.19738,0.16244 0.26727,0.26727 0.11051,0.16576 0.16844,0.36158 0.26727,0.53454 0.0797,0.13945 0.17818,0.26727 0.26727,0.40091 0.0891,0.13363 0.21648,0.24853 0.26727,0.4009 0.0423,0.12678 -0.0423,0.27413 0,0.40091 0.0508,0.15236 0.18759,0.26145 0.26727,0.4009 0.0891,0.17818 0.17818,0.35636 0.26727,0.53454 0,0.0891 -0.0331,0.18455 0,0.26727 0.0597,0.14912 0.20762,0.25178 0.26727,0.4009 0.0331,0.0827 -0.0175,0.17991 0,0.26727 0.0276,0.13813 0.10601,0.26277 0.13364,0.4009 0.0175,0.0874 -0.0216,0.18084 0,0.26727 0.0241,0.0966 0.10947,0.17064 0.13363,0.26727 0.0216,0.0864 -0.0216,0.18084 0,0.26727 0.0483,0.19326 0.20427,0.34555 0.26727,0.53454 0.0416,0.12465 -0.0412,0.54466 0,0.66817 0.0199,0.0598 0.10546,0.0773 0.13363,0.13364 0.042,0.084 -0.042,0.45054 0,0.53454 0.0282,0.0563 0.10547,0.0773 0.13364,0.13363 0.0199,0.0398 0,0.0891 0,0.13364 0,0.0445 0,0.0891 0,0.13363 0,0.13989 -0.0272,0.69314 0,0.80181 0.0242,0.0966 0.10948,0.17064 0.13364,0.26727 0.0216,0.0864 -0.0282,0.18275 0,0.26727 0.0199,0.0598 0.11371,0.0739 0.13363,0.13363 0.0261,0.0782 0,0.68711 0,0.80181 0,0.71272 0,1.42544 0,2.13816 0,2.1827 0,4.3654 0,6.5481 0,2.53906 0,5.07812 0,7.61718 0,0.71272 0,1.42544 0,2.13816 0,0.31181 0,0.62363 0,0.93544 0,0.0891 0.0282,0.18275 0,0.26727 -0.37857,0.75713 0.0498,-0.19921 -0.13363,0.53454 -0.0242,0.0966 -0.10214,0.17278 -0.13364,0.26727 -0.0432,0.1295 0.0432,0.53867 0,0.66818 -0.063,0.18898 -0.2282,0.33919 -0.26727,0.53453 -0.0262,0.13104 0.0262,0.26987 0,0.40091 -0.0195,0.0977 -0.0966,0.17479 -0.13364,0.26727 -0.0523,0.13079 -0.0706,0.27491 -0.13363,0.4009 -0.0718,0.14365 -0.21648,0.24854 -0.26727,0.40091 -0.0423,0.12677 0.0324,0.27125 0,0.4009 -0.23121,0.92485 -0.19829,0.39657 -0.53454,1.06908 -0.48446,0.96892 0.38694,-0.30964 -0.4009,1.06908 -0.0625,0.10939 -0.20245,0.15923 -0.26727,0.26727 -0.0725,0.12079 -0.0555,0.28369 -0.13364,0.4009 -0.10483,0.15725 -0.27991,0.25572 -0.4009,0.4009 -0.10282,0.12339 -0.16445,0.27753 -0.26727,0.40091 -0.12099,0.14518 -0.29607,0.24366 -0.4009,0.4009 -0.0781,0.11721 -0.0518,0.28628 -0.13364,0.40091 -1.15602,1.15602 -0.0419,-0.0708 -0.80181,1.06908 -0.0699,0.10483 -0.17818,0.17817 -0.26727,0.26727 -0.18709,0.18708 -0.61472,0.61471 -0.8018,0.8018 -0.60446,0.60446 0.12599,-0.15119 -0.66818,0.80181 -0.44925,0.5391 -0.12319,-0.0105 -0.80181,0.66818 -0.11357,0.11356 -0.16445,0.27752 -0.26727,0.4009 -0.12099,0.14518 -0.26727,0.26727 -0.4009,0.4009 -0.13364,0.13364 -0.25742,0.27792 -0.40091,0.40091 -0.1691,0.14494 -0.36344,0.25832 -0.53454,0.4009 -0.0968,0.0807 -0.16888,0.18857 -0.26726,0.26727 -0.25084,0.20067 -0.54043,0.34784 -0.80181,0.53454 -0.18124,0.12946 -0.34356,0.28632 -0.53454,0.40091 -0.0382,0.0229 -0.0938,-0.0199 -0.13364,0 -0.14365,0.0718 -0.25725,0.19544 -0.4009,0.26727 -0.25199,0.12599 -0.54983,0.14127 -0.80181,0.26726 -0.14365,0.0718 -0.25725,0.19545 -0.40091,0.26728 -0.18827,0.0941 -0.7992,0.32379 -1.06907,0.4009 -0.1766,0.0505 -0.3603,0.0756 -0.53454,0.13363 -0.22758,0.0759 -0.44357,0.18304 -0.66818,0.26727 -0.39568,0.14838 -0.79794,0.27948 -1.20271,0.40091 -0.17592,0.0528 -0.35794,0.0832 -0.53454,0.13363 -0.13544,0.0387 -0.26146,0.11372 -0.4009,0.13364 -0.17639,0.0252 -0.35815,-0.0252 -0.53454,0 -0.13945,0.0199 -0.26196,0.11048 -0.40091,0.13363 -0.13181,0.022 -0.26908,-0.022 -0.4009,0 -0.13895,0.0231 -0.26113,0.11616 -0.4009,0.13364 -0.22101,0.0276 -0.44545,0 -0.66818,0 -0.13363,0 -0.26986,-0.0262 -0.4009,0 -0.0977,0.0195 -0.1696,0.1141 -0.26727,0.13363 -0.13104,0.0262 -0.26727,0 -0.40091,0 -0.4009,0 -0.8018,0 -1.20271,0 -0.13363,0 -0.26909,-0.022 -0.4009,0 -0.13895,0.0231 -0.26196,0.11048 -0.40091,0.13364 -0.13181,0.022 -0.26727,0 -0.4009,0 -0.26727,0 -0.53454,0 -0.80181,0 -0.71272,0 -1.42544,0 -2.13816,0 -1.95997,0 -3.91995,0 -5.87993,0 -0.0562,0 -0.76205,0.0199 -0.8018,0 -0.0564,-0.0282 -0.0773,-0.10547 -0.13364,-0.13364 -0.0407,-0.0204 -0.34072,0 -0.4009,0 -0.0445,0 -0.17818,0 -0.13364,0 0.0891,0 0.35636,0 0.26727,0 -0.22272,0 -0.44545,0 -0.66817,0 -0.0445,0 -0.0891,0 -0.13364,0 -0.0445,0 -0.14603,0.0428 -0.13363,0 0.0548,-0.18917 0.18923,-0.34547 0.28385,-0.51821"
       id="path965"
       inkscape:connector-curvature="0" />
    <path
       style="fill:none;stroke:#ff00ff;stroke-width:0.26458332px;stroke-linecap:butt;stroke-linejoin:miter;stroke-opacity:1"
       d="m 135,242 h 40"
       id="path860"
       inkscape:connector-curvature="0" />
    <path
       style="fill:#ff6600;stroke:#ff6600;stroke-width:0.26458332px;stroke-linecap:butt;stroke-linejoin:miter;stroke-opacity:1"
       d="m 135,252 h 40"
       id="path862"
       inkscape:connector-curvature="0" />
    <text
       xml:space="preserve"
       style="font-style:normal;font-variant:normal;font-weight:normal;font-stretch:normal;font-size:4.23333311px;line-height:1.25;font-family:sans-serif;-inkscape-font-specification:'sans-serif, Normal';font-variant-ligatures:normal;font-variant-caps:normal;font-variant-numeric:normal;font-feature-settings:normal;text-align:start;letter-spacing:0px;word-spacing:0px;writing-mode:lr-tb;text-anchor:start;fill:#000000;fill-opacity:1;stroke:none;stroke-width:0.26458332"
       x="139.73273"
       y="241.54358"
       id="text866"><tspan
         sodipodi:role="line"
         id="tspan864"
         x="139.73273"
         y="241.54358"
         style="stroke-width:0.26458332">Dshot commands</tspan></text>
    <text
       xml:space="preserve"
       style="font-style:normal;font-variant:normal;font-weight:normal;font-stretch:normal;font-size:4.23333311px;line-height:1.25;font-family:sans-serif;-inkscape-font-specification:'sans-serif, Normal';font-variant-ligatures:normal;font-variant-caps:normal;font-variant-numeric:normal;font-feature-settings:normal;text-align:start;letter-spacing:0px;word-spacing:0px;writing-mode:lr-tb;text-anchor:start;fill:#000000;fill-opacity:1;stroke:none;stroke-width:0.26458332"
       x="145"
       y="252"
       id="text870"><tspan
         sodipodi:role="line"
         id="tspan868"
         x="145"
         y="252"
         style="stroke-width:0.26458332">Telemetry (serial)</tspan></text>
    <g
       id="g889"
       transform="translate(16,2.0000048)">
      <circle
         r="5"
         cy="157"
         cx="200"
         id="path874"
         style="opacity:1;fill:none;stroke:#000000;stroke-width:0.5;stroke-miterlimit:4;stroke-dasharray:none" />
      <rect
         y="154"
         x="192"
         height="6"
         width="4"
         id="rect876"
         style="opacity:1;fill:none;stroke:#000000;stroke-width:0.5;stroke-miterlimit:4;stroke-dasharray:none" />
      <rect
         style="opacity:1;fill:none;stroke:#000000;stroke-width:0.5;stroke-miterlimit:4;stroke-dasharray:none"
         id="rect878"
         width="4"
         height="6"
         x="204"
         y="154" />
      <text
         id="text882"
         y="158.37016"
         x="198.29129"
         style="font-style:normal;font-variant:normal;font-weight:normal;font-stretch:normal;font-size:4.23333311px;line-height:1.25;font-family:sans-serif;-inkscape-font-specification:'sans-serif, Normal';font-variant-ligatures:normal;font-variant-caps:normal;font-variant-numeric:normal;font-feature-settings:normal;text-align:start;letter-spacing:0px;word-spacing:0px;writing-mode:lr-tb;text-anchor:start;fill:#000000;fill-opacity:1;stroke:none;stroke-width:0.26458332"
         xml:space="preserve"><tspan
           style="stroke-width:0.26458332"
           y="158.37016"
           x="198.29129"
           id="tspan880"
           sodipodi:role="line">M</tspan></text>
    </g>
    <g
       transform="translate(16,32.000005)"
       id="g901">
      <circle
         style="opacity:1;fill:none;stroke:#000000;stroke-width:0.5;stroke-miterlimit:4;stroke-dasharray:none"
         id="circle891"
         cx="200"
         cy="157"
         r="5" />
      <rect
         style="opacity:1;fill:none;stroke:#000000;stroke-width:0.5;stroke-miterlimit:4;stroke-dasharray:none"
         id="rect893"
         width="4"
         height="6"
         x="192"
         y="154" />
      <rect
         y="154"
         x="204"
         height="6"
         width="4"
         id="rect895"
         style="opacity:1;fill:none;stroke:#000000;stroke-width:0.5;stroke-miterlimit:4;stroke-dasharray:none" />
      <text
         xml:space="preserve"
         style="font-style:normal;font-variant:normal;font-weight:normal;font-stretch:normal;font-size:4.23333311px;line-height:1.25;font-family:sans-serif;-inkscape-font-specification:'sans-serif, Normal';font-variant-ligatures:normal;font-variant-caps:normal;font-variant-numeric:normal;font-feature-settings:normal;text-align:start;letter-spacing:0px;word-spacing:0px;writing-mode:lr-tb;text-anchor:start;fill:#000000;fill-opacity:1;stroke:none;stroke-width:0.26458332"
         x="198.29129"
         y="158.37016"
         id="text899"><tspan
           sodipodi:role="line"
           id="tspan897"
           x="198.29129"
           y="158.37016"
           style="stroke-width:0.26458332">M</tspan></text>
    </g>
    <path
       style="fill:none;stroke:#000000;stroke-width:0.26458332px;stroke-linecap:butt;stroke-linejoin:miter;stroke-opacity:1"
       d="m 160,178 h 54 l 3,6"
       id="path903"
       inkscape:connector-curvature="0" />
    <path
       style="fill:none;stroke:#000000;stroke-width:0.26458332px;stroke-linecap:butt;stroke-linejoin:miter;stroke-opacity:1"
       d="m 160,179 h 53 l 3,5"
       id="path905"
       inkscape:connector-curvature="0" />
    <path
       style="fill:none;stroke:#000000;stroke-width:0.26458332px;stroke-linecap:butt;stroke-linejoin:miter;stroke-opacity:1"
       d="m 160,180 h 52 l 3,4"
       id="path907"
       inkscape:connector-curvature="0" />
    <path
       style="fill:none;stroke:#000000;stroke-width:0.26458332px;stroke-linecap:butt;stroke-linejoin:miter;stroke-opacity:1"
       d="m 160,153 h 52 l 2,2"
       id="path909"
       inkscape:connector-curvature="0" />
    <path
       style="fill:none;stroke:#000000;stroke-width:0.26458332px;stroke-linecap:butt;stroke-linejoin:miter;stroke-opacity:1"
       d="m 160,154 h 51 l 2,1 v 0 0"
       id="path911"
       inkscape:connector-curvature="0" />
    <path
       style="fill:none;stroke:#000000;stroke-width:0.26458332px;stroke-linecap:butt;stroke-linejoin:miter;stroke-opacity:1"
       d="m 160,155 h 50 2"
       id="path913"
       inkscape:connector-curvature="0" />
  </g>
</svg>
