M48
;DRILL file {KiCad (5.0.1)-3} date 11/11/2018 09:19:47
;FORMAT={-:-/ absolute / inch / decimal}
FMAT,2
INCH,TZ
T1C0.0157
T2C0.0394
%
G90
G05
M72
T1
X5.39Y-3.71
X5.5558Y-3.8
X5.79Y-3.76
X5.89Y-3.8
X5.89Y-3.8735
X5.91Y-3.66
X6.09Y-3.8
X6.09Y-3.88
X6.12Y-3.59
X6.2107Y-3.7007
X6.35Y-3.6
X6.35Y-3.75
X6.44Y-3.6
X6.44Y-3.75
T2
X6.58Y-3.62
X6.58Y-3.72
X5.29Y-3.9
X5.39Y-3.9
X5.49Y-3.9
X5.59Y-3.9
X5.69Y-3.9
X6.25Y-3.9
X6.35Y-3.9
X6.45Y-3.9
X5.29Y-3.61
X5.29Y-3.71
T0
M30
