G04 #@! TF.GenerationSoftware,KiCad,Pcbnew,(5.0.1)-3*
G04 #@! TF.CreationDate,2018-11-11T09:41:54+00:00*
G04 #@! TF.ProjectId,betsiepower2,626574736965706F776572322E6B6963,rev?*
G04 #@! TF.SameCoordinates,Original*
G04 #@! TF.FileFunction,Legend,Top*
G04 #@! TF.FilePolarity,Positive*
%FSLAX46Y46*%
G04 Gerber Fmt 4.6, Leading zero omitted, Abs format (unit mm)*
G04 Created by KiCad (PCBNEW (5.0.1)-3) date 11/11/2018 09:41:54*
%MOMM*%
%LPD*%
G01*
G04 APERTURE LIST*
%ADD10C,0.200000*%
%ADD11C,0.300000*%
%ADD12C,0.120000*%
%ADD13C,0.150000*%
G04 APERTURE END LIST*
D10*
X134480380Y-90481142D02*
X135089904Y-90481142D01*
X134785142Y-90785904D02*
X134785142Y-90176380D01*
X135356571Y-89985904D02*
X135623238Y-90785904D01*
X135889904Y-89985904D01*
X136296476Y-94088000D02*
X136220285Y-94049904D01*
X136106000Y-94049904D01*
X135991714Y-94088000D01*
X135915523Y-94164190D01*
X135877428Y-94240380D01*
X135839333Y-94392761D01*
X135839333Y-94507047D01*
X135877428Y-94659428D01*
X135915523Y-94735619D01*
X135991714Y-94811809D01*
X136106000Y-94849904D01*
X136182190Y-94849904D01*
X136296476Y-94811809D01*
X136334571Y-94773714D01*
X136334571Y-94507047D01*
X136182190Y-94507047D01*
X136677428Y-94849904D02*
X136677428Y-94049904D01*
X137134571Y-94849904D01*
X137134571Y-94049904D01*
X137515523Y-94849904D02*
X137515523Y-94049904D01*
X137706000Y-94049904D01*
X137820285Y-94088000D01*
X137896476Y-94164190D01*
X137934571Y-94240380D01*
X137972666Y-94392761D01*
X137972666Y-94507047D01*
X137934571Y-94659428D01*
X137896476Y-94735619D01*
X137820285Y-94811809D01*
X137706000Y-94849904D01*
X137515523Y-94849904D01*
D11*
X126507428Y-89892857D02*
X126507428Y-89035714D01*
X126507428Y-89464285D02*
X128007428Y-89464285D01*
X127793142Y-89321428D01*
X127650285Y-89178571D01*
X127578857Y-89035714D01*
X126507428Y-91321428D02*
X126507428Y-90464285D01*
X126507428Y-90892857D02*
X128007428Y-90892857D01*
X127793142Y-90750000D01*
X127650285Y-90607142D01*
X127578857Y-90464285D01*
X126650285Y-91964285D02*
X126578857Y-92035714D01*
X126507428Y-91964285D01*
X126578857Y-91892857D01*
X126650285Y-91964285D01*
X126507428Y-91964285D01*
X126507428Y-93464285D02*
X126507428Y-92607142D01*
X126507428Y-93035714D02*
X128007428Y-93035714D01*
X127793142Y-92892857D01*
X127650285Y-92750000D01*
X127578857Y-92607142D01*
X128007428Y-93964285D02*
X128007428Y-94964285D01*
X126507428Y-94321428D01*
X128007428Y-96178571D02*
X128007428Y-95892857D01*
X127936000Y-95750000D01*
X127864571Y-95678571D01*
X127650285Y-95535714D01*
X127364571Y-95464285D01*
X126793142Y-95464285D01*
X126650285Y-95535714D01*
X126578857Y-95607142D01*
X126507428Y-95750000D01*
X126507428Y-96035714D01*
X126578857Y-96178571D01*
X126650285Y-96250000D01*
X126793142Y-96321428D01*
X127150285Y-96321428D01*
X127293142Y-96250000D01*
X127364571Y-96178571D01*
X127436000Y-96035714D01*
X127436000Y-95750000D01*
X127364571Y-95607142D01*
X127293142Y-95535714D01*
X127150285Y-95464285D01*
X126507428Y-98107142D02*
X127507428Y-98107142D01*
X127364571Y-98107142D02*
X127436000Y-98178571D01*
X127507428Y-98321428D01*
X127507428Y-98535714D01*
X127436000Y-98678571D01*
X127293142Y-98750000D01*
X126507428Y-98750000D01*
X127293142Y-98750000D02*
X127436000Y-98821428D01*
X127507428Y-98964285D01*
X127507428Y-99178571D01*
X127436000Y-99321428D01*
X127293142Y-99392857D01*
X126507428Y-99392857D01*
X126507428Y-100107142D02*
X127507428Y-100107142D01*
X127364571Y-100107142D02*
X127436000Y-100178571D01*
X127507428Y-100321428D01*
X127507428Y-100535714D01*
X127436000Y-100678571D01*
X127293142Y-100750000D01*
X126507428Y-100750000D01*
X127293142Y-100750000D02*
X127436000Y-100821428D01*
X127507428Y-100964285D01*
X127507428Y-101178571D01*
X127436000Y-101321428D01*
X127293142Y-101392857D01*
X126507428Y-101392857D01*
X129286000Y-89662000D02*
X129286000Y-100838000D01*
X131064000Y-89662000D02*
X128699579Y-89662000D01*
X131064000Y-100838000D02*
X128699579Y-100838000D01*
X129286000Y-100838000D02*
X128699579Y-99711496D01*
X129286000Y-100838000D02*
X129872421Y-99711496D01*
X129286000Y-89662000D02*
X128699579Y-90788504D01*
X129286000Y-89662000D02*
X129872421Y-90788504D01*
X144209285Y-83184571D02*
X145137857Y-83184571D01*
X144637857Y-83756000D01*
X144852142Y-83756000D01*
X144995000Y-83827428D01*
X145066428Y-83898857D01*
X145137857Y-84041714D01*
X145137857Y-84398857D01*
X145066428Y-84541714D01*
X144995000Y-84613142D01*
X144852142Y-84684571D01*
X144423571Y-84684571D01*
X144280714Y-84613142D01*
X144209285Y-84541714D01*
X146423571Y-83184571D02*
X146137857Y-83184571D01*
X145995000Y-83256000D01*
X145923571Y-83327428D01*
X145780714Y-83541714D01*
X145709285Y-83827428D01*
X145709285Y-84398857D01*
X145780714Y-84541714D01*
X145852142Y-84613142D01*
X145995000Y-84684571D01*
X146280714Y-84684571D01*
X146423571Y-84613142D01*
X146495000Y-84541714D01*
X146566428Y-84398857D01*
X146566428Y-84041714D01*
X146495000Y-83898857D01*
X146423571Y-83827428D01*
X146280714Y-83756000D01*
X145995000Y-83756000D01*
X145852142Y-83827428D01*
X145780714Y-83898857D01*
X145709285Y-84041714D01*
X147209285Y-84541714D02*
X147280714Y-84613142D01*
X147209285Y-84684571D01*
X147137857Y-84613142D01*
X147209285Y-84541714D01*
X147209285Y-84684571D01*
X147780714Y-83184571D02*
X148709285Y-83184571D01*
X148209285Y-83756000D01*
X148423571Y-83756000D01*
X148566428Y-83827428D01*
X148637857Y-83898857D01*
X148709285Y-84041714D01*
X148709285Y-84398857D01*
X148637857Y-84541714D01*
X148566428Y-84613142D01*
X148423571Y-84684571D01*
X147995000Y-84684571D01*
X147852142Y-84613142D01*
X147780714Y-84541714D01*
X149280714Y-83327428D02*
X149352142Y-83256000D01*
X149495000Y-83184571D01*
X149852142Y-83184571D01*
X149995000Y-83256000D01*
X150066428Y-83327428D01*
X150137857Y-83470285D01*
X150137857Y-83613142D01*
X150066428Y-83827428D01*
X149209285Y-84684571D01*
X150137857Y-84684571D01*
X150709285Y-83327428D02*
X150780714Y-83256000D01*
X150923571Y-83184571D01*
X151280714Y-83184571D01*
X151423571Y-83256000D01*
X151495000Y-83327428D01*
X151566428Y-83470285D01*
X151566428Y-83613142D01*
X151495000Y-83827428D01*
X150637857Y-84684571D01*
X151566428Y-84684571D01*
X153352142Y-84684571D02*
X153352142Y-83684571D01*
X153352142Y-83827428D02*
X153423571Y-83756000D01*
X153566428Y-83684571D01*
X153780714Y-83684571D01*
X153923571Y-83756000D01*
X153995000Y-83898857D01*
X153995000Y-84684571D01*
X153995000Y-83898857D02*
X154066428Y-83756000D01*
X154209285Y-83684571D01*
X154423571Y-83684571D01*
X154566428Y-83756000D01*
X154637857Y-83898857D01*
X154637857Y-84684571D01*
X155352142Y-84684571D02*
X155352142Y-83684571D01*
X155352142Y-83827428D02*
X155423571Y-83756000D01*
X155566428Y-83684571D01*
X155780714Y-83684571D01*
X155923571Y-83756000D01*
X155995000Y-83898857D01*
X155995000Y-84684571D01*
X155995000Y-83898857D02*
X156066428Y-83756000D01*
X156209285Y-83684571D01*
X156423571Y-83684571D01*
X156566428Y-83756000D01*
X156637857Y-83898857D01*
X156637857Y-84684571D01*
X168656000Y-86106000D02*
X132334000Y-86106000D01*
X168656000Y-89154000D02*
X168656000Y-85519579D01*
X132334000Y-89154000D02*
X132334000Y-85519579D01*
X132334000Y-86106000D02*
X133460504Y-85519579D01*
X132334000Y-86106000D02*
X133460504Y-86692421D01*
X168656000Y-86106000D02*
X167529496Y-85519579D01*
X168656000Y-86106000D02*
X167529496Y-86692421D01*
D10*
X165993904Y-100583714D02*
X166793904Y-100393238D01*
X166222476Y-100240857D01*
X166793904Y-100088476D01*
X165993904Y-99898000D01*
X166374857Y-99593238D02*
X166374857Y-99326571D01*
X166793904Y-99212285D02*
X166793904Y-99593238D01*
X165993904Y-99593238D01*
X165993904Y-99212285D01*
X166565333Y-98907523D02*
X166565333Y-98526571D01*
X166793904Y-98983714D02*
X165993904Y-98717047D01*
X166793904Y-98450380D01*
X166793904Y-98183714D02*
X165993904Y-98183714D01*
X165993904Y-97878952D01*
X166032000Y-97802761D01*
X166070095Y-97764666D01*
X166146285Y-97726571D01*
X166260571Y-97726571D01*
X166336761Y-97764666D01*
X166374857Y-97802761D01*
X166412952Y-97878952D01*
X166412952Y-98183714D01*
X165993904Y-97231333D02*
X165993904Y-97078952D01*
X166032000Y-97002761D01*
X166108190Y-96926571D01*
X166260571Y-96888476D01*
X166527238Y-96888476D01*
X166679619Y-96926571D01*
X166755809Y-97002761D01*
X166793904Y-97078952D01*
X166793904Y-97231333D01*
X166755809Y-97307523D01*
X166679619Y-97383714D01*
X166527238Y-97421809D01*
X166260571Y-97421809D01*
X166108190Y-97383714D01*
X166032000Y-97307523D01*
X165993904Y-97231333D01*
X166793904Y-96545619D02*
X165993904Y-96545619D01*
X166793904Y-96088476D01*
X165993904Y-96088476D01*
X168193904Y-100107523D02*
X167393904Y-100107523D01*
X167965333Y-99840857D01*
X167393904Y-99574190D01*
X168193904Y-99574190D01*
X167393904Y-99040857D02*
X167393904Y-98888476D01*
X167432000Y-98812285D01*
X167508190Y-98736095D01*
X167660571Y-98698000D01*
X167927238Y-98698000D01*
X168079619Y-98736095D01*
X168155809Y-98812285D01*
X168193904Y-98888476D01*
X168193904Y-99040857D01*
X168155809Y-99117047D01*
X168079619Y-99193238D01*
X167927238Y-99231333D01*
X167660571Y-99231333D01*
X167508190Y-99193238D01*
X167432000Y-99117047D01*
X167393904Y-99040857D01*
X167393904Y-98469428D02*
X167393904Y-98012285D01*
X168193904Y-98240857D02*
X167393904Y-98240857D01*
X167393904Y-97593238D02*
X167393904Y-97440857D01*
X167432000Y-97364666D01*
X167508190Y-97288476D01*
X167660571Y-97250380D01*
X167927238Y-97250380D01*
X168079619Y-97288476D01*
X168155809Y-97364666D01*
X168193904Y-97440857D01*
X168193904Y-97593238D01*
X168155809Y-97669428D01*
X168079619Y-97745619D01*
X167927238Y-97783714D01*
X167660571Y-97783714D01*
X167508190Y-97745619D01*
X167432000Y-97669428D01*
X167393904Y-97593238D01*
X168193904Y-96450380D02*
X167812952Y-96717047D01*
X168193904Y-96907523D02*
X167393904Y-96907523D01*
X167393904Y-96602761D01*
X167432000Y-96526571D01*
X167470095Y-96488476D01*
X167546285Y-96450380D01*
X167660571Y-96450380D01*
X167736761Y-96488476D01*
X167774857Y-96526571D01*
X167812952Y-96602761D01*
X167812952Y-96907523D01*
X160980666Y-96956571D02*
X161123523Y-97004190D01*
X161171142Y-97051809D01*
X161218761Y-97147047D01*
X161218761Y-97289904D01*
X161171142Y-97385142D01*
X161123523Y-97432761D01*
X161028285Y-97480380D01*
X160647333Y-97480380D01*
X160647333Y-96480380D01*
X160980666Y-96480380D01*
X161075904Y-96528000D01*
X161123523Y-96575619D01*
X161171142Y-96670857D01*
X161171142Y-96766095D01*
X161123523Y-96861333D01*
X161075904Y-96908952D01*
X160980666Y-96956571D01*
X160647333Y-96956571D01*
X161837809Y-96480380D02*
X162028285Y-96480380D01*
X162123523Y-96528000D01*
X162218761Y-96623238D01*
X162266380Y-96813714D01*
X162266380Y-97147047D01*
X162218761Y-97337523D01*
X162123523Y-97432761D01*
X162028285Y-97480380D01*
X161837809Y-97480380D01*
X161742571Y-97432761D01*
X161647333Y-97337523D01*
X161599714Y-97147047D01*
X161599714Y-96813714D01*
X161647333Y-96623238D01*
X161742571Y-96528000D01*
X161837809Y-96480380D01*
X162885428Y-96480380D02*
X163075904Y-96480380D01*
X163171142Y-96528000D01*
X163266380Y-96623238D01*
X163314000Y-96813714D01*
X163314000Y-97147047D01*
X163266380Y-97337523D01*
X163171142Y-97432761D01*
X163075904Y-97480380D01*
X162885428Y-97480380D01*
X162790190Y-97432761D01*
X162694952Y-97337523D01*
X162647333Y-97147047D01*
X162647333Y-96813714D01*
X162694952Y-96623238D01*
X162790190Y-96528000D01*
X162885428Y-96480380D01*
X163694952Y-97432761D02*
X163837809Y-97480380D01*
X164075904Y-97480380D01*
X164171142Y-97432761D01*
X164218761Y-97385142D01*
X164266380Y-97289904D01*
X164266380Y-97194666D01*
X164218761Y-97099428D01*
X164171142Y-97051809D01*
X164075904Y-97004190D01*
X163885428Y-96956571D01*
X163790190Y-96908952D01*
X163742571Y-96861333D01*
X163694952Y-96766095D01*
X163694952Y-96670857D01*
X163742571Y-96575619D01*
X163790190Y-96528000D01*
X163885428Y-96480380D01*
X164123523Y-96480380D01*
X164266380Y-96528000D01*
X164552095Y-96480380D02*
X165123523Y-96480380D01*
X164837809Y-97480380D02*
X164837809Y-96480380D01*
X158350000Y-97383523D02*
X158311904Y-97459714D01*
X158311904Y-97574000D01*
X158350000Y-97688285D01*
X158426190Y-97764476D01*
X158502380Y-97802571D01*
X158654761Y-97840666D01*
X158769047Y-97840666D01*
X158921428Y-97802571D01*
X158997619Y-97764476D01*
X159073809Y-97688285D01*
X159111904Y-97574000D01*
X159111904Y-97497809D01*
X159073809Y-97383523D01*
X159035714Y-97345428D01*
X158769047Y-97345428D01*
X158769047Y-97497809D01*
X159111904Y-97002571D02*
X158311904Y-97002571D01*
X159111904Y-96545428D01*
X158311904Y-96545428D01*
X159111904Y-96164476D02*
X158311904Y-96164476D01*
X158311904Y-95974000D01*
X158350000Y-95859714D01*
X158426190Y-95783523D01*
X158502380Y-95745428D01*
X158654761Y-95707333D01*
X158769047Y-95707333D01*
X158921428Y-95745428D01*
X158997619Y-95783523D01*
X159073809Y-95859714D01*
X159111904Y-95974000D01*
X159111904Y-96164476D01*
X139503142Y-98151809D02*
X139503142Y-97542285D01*
X139807904Y-97161333D02*
X139007904Y-97161333D01*
X139807904Y-96704190D01*
X139007904Y-96704190D01*
X139731714Y-95866095D02*
X139769809Y-95904190D01*
X139807904Y-96018476D01*
X139807904Y-96094666D01*
X139769809Y-96208952D01*
X139693619Y-96285142D01*
X139617428Y-96323238D01*
X139465047Y-96361333D01*
X139350761Y-96361333D01*
X139198380Y-96323238D01*
X139122190Y-96285142D01*
X139046000Y-96208952D01*
X139007904Y-96094666D01*
X139007904Y-96018476D01*
X139046000Y-95904190D01*
X139084095Y-95866095D01*
X136963142Y-98297809D02*
X136963142Y-97688285D01*
X136506000Y-96888285D02*
X136467904Y-96964476D01*
X136467904Y-97078761D01*
X136506000Y-97193047D01*
X136582190Y-97269238D01*
X136658380Y-97307333D01*
X136810761Y-97345428D01*
X136925047Y-97345428D01*
X137077428Y-97307333D01*
X137153619Y-97269238D01*
X137229809Y-97193047D01*
X137267904Y-97078761D01*
X137267904Y-97002571D01*
X137229809Y-96888285D01*
X137191714Y-96850190D01*
X136925047Y-96850190D01*
X136925047Y-97002571D01*
X137267904Y-96507333D02*
X136467904Y-96507333D01*
X137267904Y-96050190D01*
X136467904Y-96050190D01*
X137267904Y-95669238D02*
X136467904Y-95669238D01*
X136467904Y-95478761D01*
X136506000Y-95364476D01*
X136582190Y-95288285D01*
X136658380Y-95250190D01*
X136810761Y-95212095D01*
X136925047Y-95212095D01*
X137077428Y-95250190D01*
X137153619Y-95288285D01*
X137229809Y-95364476D01*
X137267904Y-95478761D01*
X137267904Y-95669238D01*
X134677142Y-97802571D02*
X134677142Y-97193047D01*
X134981904Y-97497809D02*
X134372380Y-97497809D01*
X134181904Y-96431142D02*
X134181904Y-96812095D01*
X134562857Y-96850190D01*
X134524761Y-96812095D01*
X134486666Y-96735904D01*
X134486666Y-96545428D01*
X134524761Y-96469238D01*
X134562857Y-96431142D01*
X134639047Y-96393047D01*
X134829523Y-96393047D01*
X134905714Y-96431142D01*
X134943809Y-96469238D01*
X134981904Y-96545428D01*
X134981904Y-96735904D01*
X134943809Y-96812095D01*
X134905714Y-96850190D01*
X134181904Y-96164476D02*
X134981904Y-95897809D01*
X134181904Y-95631142D01*
D12*
G04 #@! TO.C,C1*
X136310000Y-91682000D02*
X136310000Y-92682000D01*
X138010000Y-92682000D02*
X138010000Y-91682000D01*
G04 #@! TO.C,C2*
X147062000Y-92504000D02*
X147062000Y-94504000D01*
X149102000Y-94504000D02*
X149102000Y-92504000D01*
G04 #@! TO.C,C3*
X155190000Y-92144000D02*
X155190000Y-94144000D01*
X157230000Y-94144000D02*
X157230000Y-92144000D01*
G04 #@! TO.C,D1*
X153608000Y-91444000D02*
X150808000Y-91444000D01*
X153608000Y-90044000D02*
X150808000Y-90044000D01*
X153608000Y-91444000D02*
X153608000Y-90044000D01*
G04 #@! TO.C,J1*
X133036000Y-90364000D02*
X134366000Y-90364000D01*
X133036000Y-91694000D02*
X133036000Y-90364000D01*
X133036000Y-92964000D02*
X135696000Y-92964000D01*
X135696000Y-92964000D02*
X135696000Y-95564000D01*
X133036000Y-92964000D02*
X133036000Y-95564000D01*
X133036000Y-95564000D02*
X135696000Y-95564000D01*
G04 #@! TO.C,J2*
X133036000Y-100390000D02*
X133036000Y-99060000D01*
X134366000Y-100390000D02*
X133036000Y-100390000D01*
X135636000Y-100390000D02*
X135636000Y-97730000D01*
X135636000Y-97730000D02*
X145856000Y-97730000D01*
X135636000Y-100390000D02*
X145856000Y-100390000D01*
X145856000Y-100390000D02*
X145856000Y-97730000D01*
G04 #@! TO.C,J3*
X168462000Y-95818000D02*
X167132000Y-95818000D01*
X168462000Y-94488000D02*
X168462000Y-95818000D01*
X168462000Y-93218000D02*
X165802000Y-93218000D01*
X165802000Y-93218000D02*
X165802000Y-90618000D01*
X168462000Y-93218000D02*
X168462000Y-90618000D01*
X168462000Y-90618000D02*
X165802000Y-90618000D01*
G04 #@! TO.C,J4*
X157420000Y-100390000D02*
X157420000Y-99060000D01*
X158750000Y-100390000D02*
X157420000Y-100390000D01*
X160020000Y-100390000D02*
X160020000Y-97730000D01*
X160020000Y-97730000D02*
X165160000Y-97730000D01*
X160020000Y-100390000D02*
X165160000Y-100390000D01*
X165160000Y-100390000D02*
X165160000Y-97730000D01*
G04 #@! TO.C,R1*
X153788000Y-93714000D02*
X153788000Y-94914000D01*
X152028000Y-94914000D02*
X152028000Y-93714000D01*
G04 #@! TO.C,R2*
X151756000Y-93714000D02*
X151756000Y-94914000D01*
X149996000Y-94914000D02*
X149996000Y-93714000D01*
G04 #@! TO.C,U1*
X146594000Y-96904000D02*
X140584000Y-96904000D01*
X144344000Y-90084000D02*
X140584000Y-90084000D01*
X140584000Y-96904000D02*
X140584000Y-95644000D01*
X140584000Y-90084000D02*
X140584000Y-91344000D01*
D13*
G04 #@! TO.C,U2*
X160341000Y-90719000D02*
X158941000Y-90719000D01*
X160341000Y-95819000D02*
X164491000Y-95819000D01*
X160341000Y-90669000D02*
X164491000Y-90669000D01*
X160341000Y-95819000D02*
X160341000Y-95674000D01*
X164491000Y-95819000D02*
X164491000Y-95674000D01*
X164491000Y-90669000D02*
X164491000Y-90814000D01*
X160341000Y-90669000D02*
X160341000Y-90719000D01*
G04 #@! TO.C,C1*
X138787142Y-91098666D02*
X138834761Y-91146285D01*
X138882380Y-91289142D01*
X138882380Y-91384380D01*
X138834761Y-91527238D01*
X138739523Y-91622476D01*
X138644285Y-91670095D01*
X138453809Y-91717714D01*
X138310952Y-91717714D01*
X138120476Y-91670095D01*
X138025238Y-91622476D01*
X137930000Y-91527238D01*
X137882380Y-91384380D01*
X137882380Y-91289142D01*
X137930000Y-91146285D01*
X137977619Y-91098666D01*
X138882380Y-90146285D02*
X138882380Y-90717714D01*
X138882380Y-90432000D02*
X137882380Y-90432000D01*
X138025238Y-90527238D01*
X138120476Y-90622476D01*
X138168095Y-90717714D01*
G04 #@! TO.C,C2*
X148439142Y-97702666D02*
X148486761Y-97750285D01*
X148534380Y-97893142D01*
X148534380Y-97988380D01*
X148486761Y-98131238D01*
X148391523Y-98226476D01*
X148296285Y-98274095D01*
X148105809Y-98321714D01*
X147962952Y-98321714D01*
X147772476Y-98274095D01*
X147677238Y-98226476D01*
X147582000Y-98131238D01*
X147534380Y-97988380D01*
X147534380Y-97893142D01*
X147582000Y-97750285D01*
X147629619Y-97702666D01*
X147629619Y-97321714D02*
X147582000Y-97274095D01*
X147534380Y-97178857D01*
X147534380Y-96940761D01*
X147582000Y-96845523D01*
X147629619Y-96797904D01*
X147724857Y-96750285D01*
X147820095Y-96750285D01*
X147962952Y-96797904D01*
X148534380Y-97369333D01*
X148534380Y-96750285D01*
G04 #@! TO.C,C3*
X156567142Y-97448666D02*
X156614761Y-97496285D01*
X156662380Y-97639142D01*
X156662380Y-97734380D01*
X156614761Y-97877238D01*
X156519523Y-97972476D01*
X156424285Y-98020095D01*
X156233809Y-98067714D01*
X156090952Y-98067714D01*
X155900476Y-98020095D01*
X155805238Y-97972476D01*
X155710000Y-97877238D01*
X155662380Y-97734380D01*
X155662380Y-97639142D01*
X155710000Y-97496285D01*
X155757619Y-97448666D01*
X155662380Y-97115333D02*
X155662380Y-96496285D01*
X156043333Y-96829619D01*
X156043333Y-96686761D01*
X156090952Y-96591523D01*
X156138571Y-96543904D01*
X156233809Y-96496285D01*
X156471904Y-96496285D01*
X156567142Y-96543904D01*
X156614761Y-96591523D01*
X156662380Y-96686761D01*
X156662380Y-96972476D01*
X156614761Y-97067714D01*
X156567142Y-97115333D01*
G04 #@! TO.C,D1*
X153693904Y-90876380D02*
X153693904Y-89876380D01*
X153932000Y-89876380D01*
X154074857Y-89924000D01*
X154170095Y-90019238D01*
X154217714Y-90114476D01*
X154265333Y-90304952D01*
X154265333Y-90447809D01*
X154217714Y-90638285D01*
X154170095Y-90733523D01*
X154074857Y-90828761D01*
X153932000Y-90876380D01*
X153693904Y-90876380D01*
X155217714Y-90876380D02*
X154646285Y-90876380D01*
X154932000Y-90876380D02*
X154932000Y-89876380D01*
X154836761Y-90019238D01*
X154741523Y-90114476D01*
X154646285Y-90162095D01*
G04 #@! TO.C,J2*
X132548380Y-97361333D02*
X133262666Y-97361333D01*
X133405523Y-97408952D01*
X133500761Y-97504190D01*
X133548380Y-97647047D01*
X133548380Y-97742285D01*
X132643619Y-96932761D02*
X132596000Y-96885142D01*
X132548380Y-96789904D01*
X132548380Y-96551809D01*
X132596000Y-96456571D01*
X132643619Y-96408952D01*
X132738857Y-96361333D01*
X132834095Y-96361333D01*
X132976952Y-96408952D01*
X133548380Y-96980380D01*
X133548380Y-96361333D01*
G04 #@! TO.C,J4*
X156170380Y-100155333D02*
X156884666Y-100155333D01*
X157027523Y-100202952D01*
X157122761Y-100298190D01*
X157170380Y-100441047D01*
X157170380Y-100536285D01*
X156503714Y-99250571D02*
X157170380Y-99250571D01*
X156122761Y-99488666D02*
X156837047Y-99726761D01*
X156837047Y-99107714D01*
G04 #@! TO.C,R1*
X153360380Y-97448666D02*
X152884190Y-97782000D01*
X153360380Y-98020095D02*
X152360380Y-98020095D01*
X152360380Y-97639142D01*
X152408000Y-97543904D01*
X152455619Y-97496285D01*
X152550857Y-97448666D01*
X152693714Y-97448666D01*
X152788952Y-97496285D01*
X152836571Y-97543904D01*
X152884190Y-97639142D01*
X152884190Y-98020095D01*
X153360380Y-96496285D02*
X153360380Y-97067714D01*
X153360380Y-96782000D02*
X152360380Y-96782000D01*
X152503238Y-96877238D01*
X152598476Y-96972476D01*
X152646095Y-97067714D01*
G04 #@! TO.C,R2*
X151582380Y-97448666D02*
X151106190Y-97782000D01*
X151582380Y-98020095D02*
X150582380Y-98020095D01*
X150582380Y-97639142D01*
X150630000Y-97543904D01*
X150677619Y-97496285D01*
X150772857Y-97448666D01*
X150915714Y-97448666D01*
X151010952Y-97496285D01*
X151058571Y-97543904D01*
X151106190Y-97639142D01*
X151106190Y-98020095D01*
X150677619Y-97067714D02*
X150630000Y-97020095D01*
X150582380Y-96924857D01*
X150582380Y-96686761D01*
X150630000Y-96591523D01*
X150677619Y-96543904D01*
X150772857Y-96496285D01*
X150868095Y-96496285D01*
X151010952Y-96543904D01*
X151582380Y-97115333D01*
X151582380Y-96496285D01*
G04 #@! TO.C,U1*
X138938095Y-90384380D02*
X138938095Y-91193904D01*
X138985714Y-91289142D01*
X139033333Y-91336761D01*
X139128571Y-91384380D01*
X139319047Y-91384380D01*
X139414285Y-91336761D01*
X139461904Y-91289142D01*
X139509523Y-91193904D01*
X139509523Y-90384380D01*
X140509523Y-91384380D02*
X139938095Y-91384380D01*
X140223809Y-91384380D02*
X140223809Y-90384380D01*
X140128571Y-90527238D01*
X140033333Y-90622476D01*
X139938095Y-90670095D01*
G04 #@! TO.C,U2*
X157226095Y-90384380D02*
X157226095Y-91193904D01*
X157273714Y-91289142D01*
X157321333Y-91336761D01*
X157416571Y-91384380D01*
X157607047Y-91384380D01*
X157702285Y-91336761D01*
X157749904Y-91289142D01*
X157797523Y-91193904D01*
X157797523Y-90384380D01*
X158226095Y-90479619D02*
X158273714Y-90432000D01*
X158368952Y-90384380D01*
X158607047Y-90384380D01*
X158702285Y-90432000D01*
X158749904Y-90479619D01*
X158797523Y-90574857D01*
X158797523Y-90670095D01*
X158749904Y-90812952D01*
X158178476Y-91384380D01*
X158797523Y-91384380D01*
G04 #@! TD*
M02*
