G04 #@! TF.GenerationSoftware,KiCad,Pcbnew,(5.0.1)-3*
G04 #@! TF.CreationDate,2018-11-11T09:41:54+00:00*
G04 #@! TF.ProjectId,betsiepower2,626574736965706F776572322E6B6963,rev?*
G04 #@! TF.SameCoordinates,Original*
G04 #@! TF.FileFunction,Soldermask,Top*
G04 #@! TF.FilePolarity,Negative*
%FSLAX46Y46*%
G04 Gerber Fmt 4.6, Leading zero omitted, Abs format (unit mm)*
G04 Created by KiCad (PCBNEW (5.0.1)-3) date 11/11/2018 09:41:54*
%MOMM*%
%LPD*%
G01*
G04 APERTURE LIST*
%ADD10C,0.150000*%
%ADD11C,0.100000*%
G04 APERTURE END LIST*
D10*
G36*
X163576000Y-91440000D02*
X161290000Y-91440000D01*
X161290000Y-95250000D01*
X163576000Y-95250000D01*
X163576000Y-91440000D01*
G37*
X163576000Y-91440000D02*
X161290000Y-91440000D01*
X161290000Y-95250000D01*
X163576000Y-95250000D01*
X163576000Y-91440000D01*
D11*
G36*
X159600000Y-99910000D02*
X157900000Y-99910000D01*
X157900000Y-98210000D01*
X159600000Y-98210000D01*
X159600000Y-99910000D01*
X159600000Y-99910000D01*
G37*
G36*
X161456630Y-98222299D02*
X161616855Y-98270903D01*
X161764520Y-98349831D01*
X161893949Y-98456051D01*
X162000169Y-98585480D01*
X162079097Y-98733145D01*
X162127701Y-98893370D01*
X162144112Y-99060000D01*
X162127701Y-99226630D01*
X162079097Y-99386855D01*
X162000169Y-99534520D01*
X161893949Y-99663949D01*
X161764520Y-99770169D01*
X161616855Y-99849097D01*
X161456630Y-99897701D01*
X161331752Y-99910000D01*
X161248248Y-99910000D01*
X161123370Y-99897701D01*
X160963145Y-99849097D01*
X160815480Y-99770169D01*
X160686051Y-99663949D01*
X160579831Y-99534520D01*
X160500903Y-99386855D01*
X160452299Y-99226630D01*
X160435888Y-99060000D01*
X160452299Y-98893370D01*
X160500903Y-98733145D01*
X160579831Y-98585480D01*
X160686051Y-98456051D01*
X160815480Y-98349831D01*
X160963145Y-98270903D01*
X161123370Y-98222299D01*
X161248248Y-98210000D01*
X161331752Y-98210000D01*
X161456630Y-98222299D01*
X161456630Y-98222299D01*
G37*
G36*
X144692630Y-98222299D02*
X144852855Y-98270903D01*
X145000520Y-98349831D01*
X145129949Y-98456051D01*
X145236169Y-98585480D01*
X145315097Y-98733145D01*
X145363701Y-98893370D01*
X145380112Y-99060000D01*
X145363701Y-99226630D01*
X145315097Y-99386855D01*
X145236169Y-99534520D01*
X145129949Y-99663949D01*
X145000520Y-99770169D01*
X144852855Y-99849097D01*
X144692630Y-99897701D01*
X144567752Y-99910000D01*
X144484248Y-99910000D01*
X144359370Y-99897701D01*
X144199145Y-99849097D01*
X144051480Y-99770169D01*
X143922051Y-99663949D01*
X143815831Y-99534520D01*
X143736903Y-99386855D01*
X143688299Y-99226630D01*
X143671888Y-99060000D01*
X143688299Y-98893370D01*
X143736903Y-98733145D01*
X143815831Y-98585480D01*
X143922051Y-98456051D01*
X144051480Y-98349831D01*
X144199145Y-98270903D01*
X144359370Y-98222299D01*
X144484248Y-98210000D01*
X144567752Y-98210000D01*
X144692630Y-98222299D01*
X144692630Y-98222299D01*
G37*
G36*
X142152630Y-98222299D02*
X142312855Y-98270903D01*
X142460520Y-98349831D01*
X142589949Y-98456051D01*
X142696169Y-98585480D01*
X142775097Y-98733145D01*
X142823701Y-98893370D01*
X142840112Y-99060000D01*
X142823701Y-99226630D01*
X142775097Y-99386855D01*
X142696169Y-99534520D01*
X142589949Y-99663949D01*
X142460520Y-99770169D01*
X142312855Y-99849097D01*
X142152630Y-99897701D01*
X142027752Y-99910000D01*
X141944248Y-99910000D01*
X141819370Y-99897701D01*
X141659145Y-99849097D01*
X141511480Y-99770169D01*
X141382051Y-99663949D01*
X141275831Y-99534520D01*
X141196903Y-99386855D01*
X141148299Y-99226630D01*
X141131888Y-99060000D01*
X141148299Y-98893370D01*
X141196903Y-98733145D01*
X141275831Y-98585480D01*
X141382051Y-98456051D01*
X141511480Y-98349831D01*
X141659145Y-98270903D01*
X141819370Y-98222299D01*
X141944248Y-98210000D01*
X142027752Y-98210000D01*
X142152630Y-98222299D01*
X142152630Y-98222299D01*
G37*
G36*
X139612630Y-98222299D02*
X139772855Y-98270903D01*
X139920520Y-98349831D01*
X140049949Y-98456051D01*
X140156169Y-98585480D01*
X140235097Y-98733145D01*
X140283701Y-98893370D01*
X140300112Y-99060000D01*
X140283701Y-99226630D01*
X140235097Y-99386855D01*
X140156169Y-99534520D01*
X140049949Y-99663949D01*
X139920520Y-99770169D01*
X139772855Y-99849097D01*
X139612630Y-99897701D01*
X139487752Y-99910000D01*
X139404248Y-99910000D01*
X139279370Y-99897701D01*
X139119145Y-99849097D01*
X138971480Y-99770169D01*
X138842051Y-99663949D01*
X138735831Y-99534520D01*
X138656903Y-99386855D01*
X138608299Y-99226630D01*
X138591888Y-99060000D01*
X138608299Y-98893370D01*
X138656903Y-98733145D01*
X138735831Y-98585480D01*
X138842051Y-98456051D01*
X138971480Y-98349831D01*
X139119145Y-98270903D01*
X139279370Y-98222299D01*
X139404248Y-98210000D01*
X139487752Y-98210000D01*
X139612630Y-98222299D01*
X139612630Y-98222299D01*
G37*
G36*
X137072630Y-98222299D02*
X137232855Y-98270903D01*
X137380520Y-98349831D01*
X137509949Y-98456051D01*
X137616169Y-98585480D01*
X137695097Y-98733145D01*
X137743701Y-98893370D01*
X137760112Y-99060000D01*
X137743701Y-99226630D01*
X137695097Y-99386855D01*
X137616169Y-99534520D01*
X137509949Y-99663949D01*
X137380520Y-99770169D01*
X137232855Y-99849097D01*
X137072630Y-99897701D01*
X136947752Y-99910000D01*
X136864248Y-99910000D01*
X136739370Y-99897701D01*
X136579145Y-99849097D01*
X136431480Y-99770169D01*
X136302051Y-99663949D01*
X136195831Y-99534520D01*
X136116903Y-99386855D01*
X136068299Y-99226630D01*
X136051888Y-99060000D01*
X136068299Y-98893370D01*
X136116903Y-98733145D01*
X136195831Y-98585480D01*
X136302051Y-98456051D01*
X136431480Y-98349831D01*
X136579145Y-98270903D01*
X136739370Y-98222299D01*
X136864248Y-98210000D01*
X136947752Y-98210000D01*
X137072630Y-98222299D01*
X137072630Y-98222299D01*
G37*
G36*
X135216000Y-99910000D02*
X133516000Y-99910000D01*
X133516000Y-98210000D01*
X135216000Y-98210000D01*
X135216000Y-99910000D01*
X135216000Y-99910000D01*
G37*
G36*
X163996630Y-98222299D02*
X164156855Y-98270903D01*
X164304520Y-98349831D01*
X164433949Y-98456051D01*
X164540169Y-98585480D01*
X164619097Y-98733145D01*
X164667701Y-98893370D01*
X164684112Y-99060000D01*
X164667701Y-99226630D01*
X164619097Y-99386855D01*
X164540169Y-99534520D01*
X164433949Y-99663949D01*
X164304520Y-99770169D01*
X164156855Y-99849097D01*
X163996630Y-99897701D01*
X163871752Y-99910000D01*
X163788248Y-99910000D01*
X163663370Y-99897701D01*
X163503145Y-99849097D01*
X163355480Y-99770169D01*
X163226051Y-99663949D01*
X163119831Y-99534520D01*
X163040903Y-99386855D01*
X162992299Y-99226630D01*
X162975888Y-99060000D01*
X162992299Y-98893370D01*
X163040903Y-98733145D01*
X163119831Y-98585480D01*
X163226051Y-98456051D01*
X163355480Y-98349831D01*
X163503145Y-98270903D01*
X163663370Y-98222299D01*
X163788248Y-98210000D01*
X163871752Y-98210000D01*
X163996630Y-98222299D01*
X163996630Y-98222299D01*
G37*
G36*
X146644000Y-96544000D02*
X144644000Y-96544000D01*
X144644000Y-95044000D01*
X146644000Y-95044000D01*
X146644000Y-96544000D01*
X146644000Y-96544000D01*
G37*
G36*
X148882000Y-96504000D02*
X147282000Y-96504000D01*
X147282000Y-94504000D01*
X148882000Y-94504000D01*
X148882000Y-96504000D01*
X148882000Y-96504000D01*
G37*
G36*
X151526000Y-96414000D02*
X150226000Y-96414000D01*
X150226000Y-94914000D01*
X151526000Y-94914000D01*
X151526000Y-96414000D01*
X151526000Y-96414000D01*
G37*
G36*
X153558000Y-96414000D02*
X152258000Y-96414000D01*
X152258000Y-94914000D01*
X153558000Y-94914000D01*
X153558000Y-96414000D01*
X153558000Y-96414000D01*
G37*
G36*
X157010000Y-96144000D02*
X155410000Y-96144000D01*
X155410000Y-94144000D01*
X157010000Y-94144000D01*
X157010000Y-96144000D01*
X157010000Y-96144000D01*
G37*
G36*
X165891000Y-95449000D02*
X164341000Y-95449000D01*
X164341000Y-94849000D01*
X165891000Y-94849000D01*
X165891000Y-95449000D01*
X165891000Y-95449000D01*
G37*
G36*
X160491000Y-95449000D02*
X158941000Y-95449000D01*
X158941000Y-94849000D01*
X160491000Y-94849000D01*
X160491000Y-95449000D01*
X160491000Y-95449000D01*
G37*
G36*
X140344000Y-95394000D02*
X138344000Y-95394000D01*
X138344000Y-91594000D01*
X140344000Y-91594000D01*
X140344000Y-95394000D01*
X140344000Y-95394000D01*
G37*
G36*
X167982000Y-95338000D02*
X166282000Y-95338000D01*
X166282000Y-93638000D01*
X167982000Y-93638000D01*
X167982000Y-95338000D01*
X167982000Y-95338000D01*
G37*
G36*
X134532630Y-93396299D02*
X134692855Y-93444903D01*
X134840520Y-93523831D01*
X134969949Y-93630051D01*
X135076169Y-93759480D01*
X135155097Y-93907145D01*
X135203701Y-94067370D01*
X135220112Y-94234000D01*
X135203701Y-94400630D01*
X135155097Y-94560855D01*
X135076169Y-94708520D01*
X134969949Y-94837949D01*
X134840520Y-94944169D01*
X134692855Y-95023097D01*
X134532630Y-95071701D01*
X134407752Y-95084000D01*
X134324248Y-95084000D01*
X134199370Y-95071701D01*
X134039145Y-95023097D01*
X133891480Y-94944169D01*
X133762051Y-94837949D01*
X133655831Y-94708520D01*
X133576903Y-94560855D01*
X133528299Y-94400630D01*
X133511888Y-94234000D01*
X133528299Y-94067370D01*
X133576903Y-93907145D01*
X133655831Y-93759480D01*
X133762051Y-93630051D01*
X133891480Y-93523831D01*
X134039145Y-93444903D01*
X134199370Y-93396299D01*
X134324248Y-93384000D01*
X134407752Y-93384000D01*
X134532630Y-93396299D01*
X134532630Y-93396299D01*
G37*
G36*
X146644000Y-94244000D02*
X144644000Y-94244000D01*
X144644000Y-92744000D01*
X146644000Y-92744000D01*
X146644000Y-94244000D01*
X146644000Y-94244000D01*
G37*
G36*
X137785000Y-94182000D02*
X136535000Y-94182000D01*
X136535000Y-92682000D01*
X137785000Y-92682000D01*
X137785000Y-94182000D01*
X137785000Y-94182000D01*
G37*
G36*
X160491000Y-94179000D02*
X158941000Y-94179000D01*
X158941000Y-93579000D01*
X160491000Y-93579000D01*
X160491000Y-94179000D01*
X160491000Y-94179000D01*
G37*
G36*
X165891000Y-94179000D02*
X164341000Y-94179000D01*
X164341000Y-93579000D01*
X165891000Y-93579000D01*
X165891000Y-94179000D01*
X165891000Y-94179000D01*
G37*
G36*
X153558000Y-93714000D02*
X152258000Y-93714000D01*
X152258000Y-92214000D01*
X153558000Y-92214000D01*
X153558000Y-93714000D01*
X153558000Y-93714000D01*
G37*
G36*
X151526000Y-93714000D02*
X150226000Y-93714000D01*
X150226000Y-92214000D01*
X151526000Y-92214000D01*
X151526000Y-93714000D01*
X151526000Y-93714000D01*
G37*
G36*
X160491000Y-92909000D02*
X158941000Y-92909000D01*
X158941000Y-92309000D01*
X160491000Y-92309000D01*
X160491000Y-92909000D01*
X160491000Y-92909000D01*
G37*
G36*
X165891000Y-92909000D02*
X164341000Y-92909000D01*
X164341000Y-92309000D01*
X165891000Y-92309000D01*
X165891000Y-92909000D01*
X165891000Y-92909000D01*
G37*
G36*
X167298630Y-91110299D02*
X167458855Y-91158903D01*
X167606520Y-91237831D01*
X167735949Y-91344051D01*
X167842169Y-91473480D01*
X167921097Y-91621145D01*
X167969701Y-91781370D01*
X167986112Y-91948000D01*
X167969701Y-92114630D01*
X167921097Y-92274855D01*
X167842169Y-92422520D01*
X167735949Y-92551949D01*
X167606520Y-92658169D01*
X167458855Y-92737097D01*
X167298630Y-92785701D01*
X167173752Y-92798000D01*
X167090248Y-92798000D01*
X166965370Y-92785701D01*
X166805145Y-92737097D01*
X166657480Y-92658169D01*
X166528051Y-92551949D01*
X166421831Y-92422520D01*
X166342903Y-92274855D01*
X166294299Y-92114630D01*
X166277888Y-91948000D01*
X166294299Y-91781370D01*
X166342903Y-91621145D01*
X166421831Y-91473480D01*
X166528051Y-91344051D01*
X166657480Y-91237831D01*
X166805145Y-91158903D01*
X166965370Y-91110299D01*
X167090248Y-91098000D01*
X167173752Y-91098000D01*
X167298630Y-91110299D01*
X167298630Y-91110299D01*
G37*
G36*
X135216000Y-92544000D02*
X133516000Y-92544000D01*
X133516000Y-90844000D01*
X135216000Y-90844000D01*
X135216000Y-92544000D01*
X135216000Y-92544000D01*
G37*
G36*
X148882000Y-92504000D02*
X147282000Y-92504000D01*
X147282000Y-90504000D01*
X148882000Y-90504000D01*
X148882000Y-92504000D01*
X148882000Y-92504000D01*
G37*
G36*
X157010000Y-92144000D02*
X155410000Y-92144000D01*
X155410000Y-90144000D01*
X157010000Y-90144000D01*
X157010000Y-92144000D01*
X157010000Y-92144000D01*
G37*
G36*
X146644000Y-91944000D02*
X144644000Y-91944000D01*
X144644000Y-90444000D01*
X146644000Y-90444000D01*
X146644000Y-91944000D01*
X146644000Y-91944000D01*
G37*
G36*
X137785000Y-91682000D02*
X136535000Y-91682000D01*
X136535000Y-90182000D01*
X137785000Y-90182000D01*
X137785000Y-91682000D01*
X137785000Y-91682000D01*
G37*
G36*
X165891000Y-91639000D02*
X164341000Y-91639000D01*
X164341000Y-91039000D01*
X165891000Y-91039000D01*
X165891000Y-91639000D01*
X165891000Y-91639000D01*
G37*
G36*
X160491000Y-91639000D02*
X158941000Y-91639000D01*
X158941000Y-91039000D01*
X160491000Y-91039000D01*
X160491000Y-91639000D01*
X160491000Y-91639000D01*
G37*
G36*
X153508000Y-91344000D02*
X152308000Y-91344000D01*
X152308000Y-90144000D01*
X153508000Y-90144000D01*
X153508000Y-91344000D01*
X153508000Y-91344000D01*
G37*
G36*
X151308000Y-91344000D02*
X150108000Y-91344000D01*
X150108000Y-90144000D01*
X151308000Y-90144000D01*
X151308000Y-91344000D01*
X151308000Y-91344000D01*
G37*
M02*
