G04 #@! TF.GenerationSoftware,KiCad,Pcbnew,(5.0.1)-3*
G04 #@! TF.CreationDate,2018-11-11T09:41:54+00:00*
G04 #@! TF.ProjectId,betsiepower2,626574736965706F776572322E6B6963,rev?*
G04 #@! TF.SameCoordinates,Original*
G04 #@! TF.FileFunction,Copper,L1,Top,Signal*
G04 #@! TF.FilePolarity,Positive*
%FSLAX46Y46*%
G04 Gerber Fmt 4.6, Leading zero omitted, Abs format (unit mm)*
G04 Created by KiCad (PCBNEW (5.0.1)-3) date 11/11/2018 09:41:54*
%MOMM*%
%LPD*%
G01*
G04 APERTURE LIST*
G04 #@! TA.AperFunction,SMDPad,CuDef*
%ADD10R,1.250000X1.500000*%
G04 #@! TD*
G04 #@! TA.AperFunction,SMDPad,CuDef*
%ADD11R,1.600000X2.000000*%
G04 #@! TD*
G04 #@! TA.AperFunction,SMDPad,CuDef*
%ADD12R,1.200000X1.200000*%
G04 #@! TD*
G04 #@! TA.AperFunction,ComponentPad*
%ADD13O,1.700000X1.700000*%
G04 #@! TD*
G04 #@! TA.AperFunction,ComponentPad*
%ADD14R,1.700000X1.700000*%
G04 #@! TD*
G04 #@! TA.AperFunction,SMDPad,CuDef*
%ADD15R,1.300000X1.500000*%
G04 #@! TD*
G04 #@! TA.AperFunction,SMDPad,CuDef*
%ADD16R,2.000000X1.500000*%
G04 #@! TD*
G04 #@! TA.AperFunction,SMDPad,CuDef*
%ADD17R,2.000000X3.800000*%
G04 #@! TD*
G04 #@! TA.AperFunction,SMDPad,CuDef*
%ADD18R,1.550000X0.600000*%
G04 #@! TD*
G04 #@! TA.AperFunction,ViaPad*
%ADD19C,0.800000*%
G04 #@! TD*
G04 #@! TA.AperFunction,Conductor*
%ADD20C,0.500000*%
G04 #@! TD*
G04 #@! TA.AperFunction,Conductor*
%ADD21C,0.250000*%
G04 #@! TD*
G04 #@! TA.AperFunction,Conductor*
%ADD22C,0.254000*%
G04 #@! TD*
G04 APERTURE END LIST*
D10*
G04 #@! TO.P,C1,2*
G04 #@! TO.N,GND*
X137160000Y-93432000D03*
G04 #@! TO.P,C1,1*
G04 #@! TO.N,VBAT*
X137160000Y-90932000D03*
G04 #@! TD*
D11*
G04 #@! TO.P,C2,2*
G04 #@! TO.N,GND*
X148082000Y-95504000D03*
G04 #@! TO.P,C2,1*
G04 #@! TO.N,VLOGIC*
X148082000Y-91504000D03*
G04 #@! TD*
G04 #@! TO.P,C3,1*
G04 #@! TO.N,VWEAPON*
X156210000Y-95144000D03*
G04 #@! TO.P,C3,2*
G04 #@! TO.N,GND*
X156210000Y-91144000D03*
G04 #@! TD*
D12*
G04 #@! TO.P,D1,1*
G04 #@! TO.N,Net-(D1-Pad1)*
X152908000Y-90744000D03*
G04 #@! TO.P,D1,2*
G04 #@! TO.N,VLOGIC*
X150708000Y-90744000D03*
G04 #@! TD*
D13*
G04 #@! TO.P,J1,2*
G04 #@! TO.N,GND*
X134366000Y-94234000D03*
D14*
G04 #@! TO.P,J1,1*
G04 #@! TO.N,VBAT*
X134366000Y-91694000D03*
G04 #@! TD*
D13*
G04 #@! TO.P,J2,5*
G04 #@! TO.N,WEAPON_DOWN*
X144526000Y-99060000D03*
G04 #@! TO.P,J2,4*
G04 #@! TO.N,WEAPON_UP*
X141986000Y-99060000D03*
G04 #@! TO.P,J2,3*
G04 #@! TO.N,Net-(J2-Pad3)*
X139446000Y-99060000D03*
G04 #@! TO.P,J2,2*
G04 #@! TO.N,GND*
X136906000Y-99060000D03*
D14*
G04 #@! TO.P,J2,1*
G04 #@! TO.N,VLOGIC*
X134366000Y-99060000D03*
G04 #@! TD*
D13*
G04 #@! TO.P,J3,2*
G04 #@! TO.N,Net-(J3-Pad2)*
X167132000Y-91948000D03*
D14*
G04 #@! TO.P,J3,1*
G04 #@! TO.N,Net-(J3-Pad1)*
X167132000Y-94488000D03*
G04 #@! TD*
D13*
G04 #@! TO.P,J4,3*
G04 #@! TO.N,VWEAPON*
X163830000Y-99060000D03*
G04 #@! TO.P,J4,2*
G04 #@! TO.N,VBAT*
X161290000Y-99060000D03*
D14*
G04 #@! TO.P,J4,1*
G04 #@! TO.N,GND*
X158750000Y-99060000D03*
G04 #@! TD*
D15*
G04 #@! TO.P,R1,2*
G04 #@! TO.N,Net-(R1-Pad2)*
X152908000Y-95664000D03*
G04 #@! TO.P,R1,1*
G04 #@! TO.N,Net-(D1-Pad1)*
X152908000Y-92964000D03*
G04 #@! TD*
G04 #@! TO.P,R2,1*
G04 #@! TO.N,Net-(R1-Pad2)*
X150876000Y-95664000D03*
G04 #@! TO.P,R2,2*
G04 #@! TO.N,GND*
X150876000Y-92964000D03*
G04 #@! TD*
D16*
G04 #@! TO.P,U1,1*
G04 #@! TO.N,GND*
X145644000Y-95794000D03*
G04 #@! TO.P,U1,3*
G04 #@! TO.N,VBAT*
X145644000Y-91194000D03*
G04 #@! TO.P,U1,2*
G04 #@! TO.N,VLOGIC*
X145644000Y-93494000D03*
D17*
G04 #@! TO.P,U1,4*
G04 #@! TO.N,N/C*
X139344000Y-93494000D03*
G04 #@! TD*
D18*
G04 #@! TO.P,U2,8*
G04 #@! TO.N,Net-(J3-Pad2)*
X165116000Y-91339000D03*
G04 #@! TO.P,U2,7*
X165116000Y-92609000D03*
G04 #@! TO.P,U2,6*
G04 #@! TO.N,Net-(J3-Pad1)*
X165116000Y-93879000D03*
G04 #@! TO.P,U2,5*
X165116000Y-95149000D03*
G04 #@! TO.P,U2,4*
G04 #@! TO.N,VWEAPON*
X159716000Y-95149000D03*
G04 #@! TO.P,U2,3*
G04 #@! TO.N,GND*
X159716000Y-93879000D03*
G04 #@! TO.P,U2,2*
G04 #@! TO.N,WEAPON_UP*
X159716000Y-92609000D03*
G04 #@! TO.P,U2,1*
G04 #@! TO.N,WEAPON_DOWN*
X159716000Y-91339000D03*
G04 #@! TD*
D19*
G04 #@! TO.N,GND*
X155448000Y-91186000D03*
X150114000Y-92964000D03*
X147066000Y-95504000D03*
X136906000Y-94234000D03*
X157752643Y-93997662D03*
X161290000Y-91440000D03*
X163576000Y-91440000D03*
X163576000Y-95250000D03*
X161290000Y-95250000D03*
G04 #@! TO.N,VLOGIC*
X141118000Y-96520000D03*
G04 #@! TO.N,WEAPON_DOWN*
X149606000Y-96520000D03*
X149606000Y-98386000D03*
G04 #@! TO.N,WEAPON_UP*
X154686000Y-96520000D03*
X154686000Y-98552000D03*
G04 #@! TD*
D20*
G04 #@! TO.N,GND*
X156210000Y-91144000D02*
X155490000Y-91144000D01*
X155490000Y-91144000D02*
X155448000Y-91186000D01*
X150876000Y-92964000D02*
X150114000Y-92964000D01*
X148082000Y-95504000D02*
X147066000Y-95504000D01*
X145934000Y-95504000D02*
X145644000Y-95794000D01*
X147066000Y-95504000D02*
X145934000Y-95504000D01*
X136906000Y-93432000D02*
X136906000Y-94234000D01*
X157871305Y-93879000D02*
X157752643Y-93997662D01*
X159716000Y-93879000D02*
X157871305Y-93879000D01*
X160991000Y-93879000D02*
X161092000Y-93980000D01*
X159716000Y-93879000D02*
X160991000Y-93879000D01*
X161092000Y-93980000D02*
X161798000Y-93980000D01*
X136906000Y-98044000D02*
X136906000Y-99060000D01*
X134366000Y-94234000D02*
X134366000Y-95504000D01*
X134366000Y-95504000D02*
X136906000Y-98044000D01*
G04 #@! TO.N,VBAT*
X136144000Y-91694000D02*
X136906000Y-90932000D01*
X134366000Y-91694000D02*
X136144000Y-91694000D01*
X145382000Y-90932000D02*
X145644000Y-91194000D01*
X136906000Y-90932000D02*
X145382000Y-90932000D01*
X135666001Y-92994001D02*
X134366000Y-91694000D01*
X135666001Y-94377003D02*
X135666001Y-92994001D01*
X138824998Y-97536000D02*
X135666001Y-94377003D01*
X161290000Y-99060000D02*
X159766000Y-97536000D01*
X159766000Y-97536000D02*
X138824998Y-97536000D01*
G04 #@! TO.N,VLOGIC*
X146092000Y-93494000D02*
X148082000Y-91504000D01*
X145644000Y-93494000D02*
X146092000Y-93494000D01*
X149948000Y-91504000D02*
X150708000Y-90744000D01*
X148082000Y-91504000D02*
X149948000Y-91504000D01*
X144144000Y-93494000D02*
X145644000Y-93494000D01*
X141118000Y-96520000D02*
X144144000Y-93494000D01*
G04 #@! TO.N,VWEAPON*
X156215000Y-95149000D02*
X156210000Y-95144000D01*
X163830000Y-99060000D02*
X163830000Y-97857919D01*
X163830000Y-97857919D02*
X162808071Y-96835990D01*
X162808071Y-96835990D02*
X159573990Y-96835990D01*
X159573990Y-96835990D02*
X158716000Y-95978000D01*
X158716000Y-95978000D02*
X159716000Y-95149000D01*
X159716000Y-95149000D02*
X156215000Y-95149000D01*
D21*
G04 #@! TO.N,Net-(D1-Pad1)*
X152908000Y-90744000D02*
X152908000Y-92964000D01*
G04 #@! TO.N,WEAPON_DOWN*
X148932000Y-99060000D02*
X149606000Y-98386000D01*
X144526000Y-99060000D02*
X148932000Y-99060000D01*
X149606000Y-94742000D02*
X149606000Y-96520000D01*
X158400002Y-91339000D02*
X157226000Y-92710000D01*
X159716000Y-91339000D02*
X158400002Y-91339000D01*
X157226000Y-92710000D02*
X155448000Y-92710000D01*
X155448000Y-92710000D02*
X153924000Y-94234000D01*
X153924000Y-94234000D02*
X150114000Y-94234000D01*
X150114000Y-94234000D02*
X149606000Y-94742000D01*
G04 #@! TO.N,WEAPON_UP*
X142835999Y-99909999D02*
X141986000Y-99060000D01*
X143161001Y-100235001D02*
X142835999Y-99909999D01*
X153416000Y-100235001D02*
X143161001Y-100235001D01*
X154686000Y-98552000D02*
X153416000Y-100235001D01*
X158343000Y-92609000D02*
X159716000Y-92609000D01*
X157698001Y-93253999D02*
X158343000Y-92609000D01*
X155714999Y-93253999D02*
X157698001Y-93253999D01*
X154686000Y-96520000D02*
X154686000Y-94282998D01*
X154686000Y-94282998D02*
X155714999Y-93253999D01*
D20*
G04 #@! TO.N,Net-(J3-Pad1)*
X167031000Y-93879000D02*
X167640000Y-94488000D01*
X165116000Y-93879000D02*
X167031000Y-93879000D01*
X166979000Y-95149000D02*
X167640000Y-94488000D01*
X165116000Y-95149000D02*
X166979000Y-95149000D01*
X166523000Y-93879000D02*
X167132000Y-94488000D01*
X165116000Y-93879000D02*
X166523000Y-93879000D01*
X166471000Y-95149000D02*
X167132000Y-94488000D01*
X165116000Y-95149000D02*
X166471000Y-95149000D01*
G04 #@! TO.N,Net-(J3-Pad2)*
X166523000Y-91339000D02*
X167132000Y-91948000D01*
X165116000Y-91339000D02*
X166523000Y-91339000D01*
X166471000Y-92609000D02*
X167132000Y-91948000D01*
X165116000Y-92609000D02*
X166471000Y-92609000D01*
D21*
G04 #@! TO.N,Net-(R1-Pad2)*
X152908000Y-95664000D02*
X150876000Y-95664000D01*
G04 #@! TD*
D22*
G04 #@! TO.N,VWEAPON*
G36*
X157166363Y-94875093D02*
X157546769Y-95032662D01*
X157958517Y-95032662D01*
X158338923Y-94875093D01*
X158345016Y-94869000D01*
X159385000Y-94869000D01*
X159385000Y-96651000D01*
X155721000Y-96651000D01*
X155721000Y-96314126D01*
X155575000Y-95961650D01*
X155575000Y-94869000D01*
X157160270Y-94869000D01*
X157166363Y-94875093D01*
X157166363Y-94875093D01*
G37*
X157166363Y-94875093D02*
X157546769Y-95032662D01*
X157958517Y-95032662D01*
X158338923Y-94875093D01*
X158345016Y-94869000D01*
X159385000Y-94869000D01*
X159385000Y-96651000D01*
X155721000Y-96651000D01*
X155721000Y-96314126D01*
X155575000Y-95961650D01*
X155575000Y-94869000D01*
X157160270Y-94869000D01*
X157166363Y-94875093D01*
G04 #@! TO.N,GND*
G36*
X163693560Y-91639000D02*
X163703000Y-91686459D01*
X163703000Y-92261541D01*
X163693560Y-92309000D01*
X163693560Y-92909000D01*
X163703000Y-92956459D01*
X163703000Y-93531541D01*
X163693560Y-93579000D01*
X163693560Y-94179000D01*
X163703000Y-94226459D01*
X163703000Y-94801541D01*
X163693560Y-94849000D01*
X163693560Y-95377000D01*
X161138440Y-95377000D01*
X161138440Y-94849000D01*
X161089157Y-94601235D01*
X161036232Y-94522028D01*
X161126000Y-94305310D01*
X161126000Y-94164750D01*
X160967250Y-94006000D01*
X160909000Y-94006000D01*
X160909000Y-93752000D01*
X160967250Y-93752000D01*
X161126000Y-93593250D01*
X161126000Y-93452690D01*
X161036232Y-93235972D01*
X161089157Y-93156765D01*
X161138440Y-92909000D01*
X161138440Y-92309000D01*
X161089157Y-92061235D01*
X161030868Y-91974000D01*
X161089157Y-91886765D01*
X161138440Y-91639000D01*
X161138440Y-91059000D01*
X163693560Y-91059000D01*
X163693560Y-91639000D01*
X163693560Y-91639000D01*
G37*
X163693560Y-91639000D02*
X163703000Y-91686459D01*
X163703000Y-92261541D01*
X163693560Y-92309000D01*
X163693560Y-92909000D01*
X163703000Y-92956459D01*
X163703000Y-93531541D01*
X163693560Y-93579000D01*
X163693560Y-94179000D01*
X163703000Y-94226459D01*
X163703000Y-94801541D01*
X163693560Y-94849000D01*
X163693560Y-95377000D01*
X161138440Y-95377000D01*
X161138440Y-94849000D01*
X161089157Y-94601235D01*
X161036232Y-94522028D01*
X161126000Y-94305310D01*
X161126000Y-94164750D01*
X160967250Y-94006000D01*
X160909000Y-94006000D01*
X160909000Y-93752000D01*
X160967250Y-93752000D01*
X161126000Y-93593250D01*
X161126000Y-93452690D01*
X161036232Y-93235972D01*
X161089157Y-93156765D01*
X161138440Y-92909000D01*
X161138440Y-92309000D01*
X161089157Y-92061235D01*
X161030868Y-91974000D01*
X161089157Y-91886765D01*
X161138440Y-91639000D01*
X161138440Y-91059000D01*
X163693560Y-91059000D01*
X163693560Y-91639000D01*
G04 #@! TD*
M02*
