G04 #@! TF.GenerationSoftware,KiCad,Pcbnew,(5.0.1)-3*
G04 #@! TF.CreationDate,2018-11-11T09:41:54+00:00*
G04 #@! TF.ProjectId,betsiepower2,626574736965706F776572322E6B6963,rev?*
G04 #@! TF.SameCoordinates,Original*
G04 #@! TF.FileFunction,Copper,L2,Bot,Signal*
G04 #@! TF.FilePolarity,Positive*
%FSLAX46Y46*%
G04 Gerber Fmt 4.6, Leading zero omitted, Abs format (unit mm)*
G04 Created by KiCad (PCBNEW (5.0.1)-3) date 11/11/2018 09:41:54*
%MOMM*%
%LPD*%
G01*
G04 APERTURE LIST*
G04 #@! TA.AperFunction,ComponentPad*
%ADD10O,1.700000X1.700000*%
G04 #@! TD*
G04 #@! TA.AperFunction,ComponentPad*
%ADD11R,1.700000X1.700000*%
G04 #@! TD*
G04 #@! TA.AperFunction,ViaPad*
%ADD12C,0.800000*%
G04 #@! TD*
G04 #@! TA.AperFunction,Conductor*
%ADD13C,0.500000*%
G04 #@! TD*
G04 #@! TA.AperFunction,Conductor*
%ADD14C,0.250000*%
G04 #@! TD*
G04 #@! TA.AperFunction,Conductor*
%ADD15C,0.254000*%
G04 #@! TD*
G04 APERTURE END LIST*
D10*
G04 #@! TO.P,J1,2*
G04 #@! TO.N,GND*
X134366000Y-94234000D03*
D11*
G04 #@! TO.P,J1,1*
G04 #@! TO.N,VBAT*
X134366000Y-91694000D03*
G04 #@! TD*
D10*
G04 #@! TO.P,J2,5*
G04 #@! TO.N,WEAPON_DOWN*
X144526000Y-99060000D03*
G04 #@! TO.P,J2,4*
G04 #@! TO.N,WEAPON_UP*
X141986000Y-99060000D03*
G04 #@! TO.P,J2,3*
G04 #@! TO.N,Net-(J2-Pad3)*
X139446000Y-99060000D03*
G04 #@! TO.P,J2,2*
G04 #@! TO.N,GND*
X136906000Y-99060000D03*
D11*
G04 #@! TO.P,J2,1*
G04 #@! TO.N,VLOGIC*
X134366000Y-99060000D03*
G04 #@! TD*
D10*
G04 #@! TO.P,J3,2*
G04 #@! TO.N,Net-(J3-Pad2)*
X167132000Y-91948000D03*
D11*
G04 #@! TO.P,J3,1*
G04 #@! TO.N,Net-(J3-Pad1)*
X167132000Y-94488000D03*
G04 #@! TD*
D10*
G04 #@! TO.P,J4,3*
G04 #@! TO.N,VWEAPON*
X163830000Y-99060000D03*
G04 #@! TO.P,J4,2*
G04 #@! TO.N,VBAT*
X161290000Y-99060000D03*
D11*
G04 #@! TO.P,J4,1*
G04 #@! TO.N,GND*
X158750000Y-99060000D03*
G04 #@! TD*
D12*
G04 #@! TO.N,GND*
X155448000Y-91186000D03*
X150114000Y-92964000D03*
X147066000Y-95504000D03*
X136906000Y-94234000D03*
X157752643Y-93997662D03*
X161290000Y-91440000D03*
X163576000Y-91440000D03*
X163576000Y-95250000D03*
X161290000Y-95250000D03*
G04 #@! TO.N,VLOGIC*
X141118000Y-96520000D03*
G04 #@! TO.N,WEAPON_DOWN*
X149606000Y-96520000D03*
X149606000Y-98386000D03*
G04 #@! TO.N,WEAPON_UP*
X154686000Y-96520000D03*
X154686000Y-98552000D03*
G04 #@! TD*
D13*
G04 #@! TO.N,VLOGIC*
X134366000Y-97710000D02*
X134366000Y-99060000D01*
X135592540Y-96483460D02*
X134366000Y-97710000D01*
X141118000Y-96520000D02*
X135592540Y-96483460D01*
D14*
G04 #@! TO.N,WEAPON_DOWN*
X149606000Y-96520000D02*
X149606000Y-98386000D01*
G04 #@! TO.N,WEAPON_UP*
X154686000Y-98552000D02*
X154686000Y-96520000D01*
G04 #@! TD*
D15*
G04 #@! TO.N,GND*
G36*
X167971000Y-90722608D02*
X167711418Y-90549161D01*
X167278256Y-90463000D01*
X166985744Y-90463000D01*
X166552582Y-90549161D01*
X166061375Y-90877375D01*
X165733161Y-91368582D01*
X165617908Y-91948000D01*
X165733161Y-92527418D01*
X166061375Y-93018625D01*
X166079619Y-93030816D01*
X166034235Y-93039843D01*
X165824191Y-93180191D01*
X165683843Y-93390235D01*
X165634560Y-93638000D01*
X165634560Y-95338000D01*
X165683843Y-95585765D01*
X165824191Y-95795809D01*
X166034235Y-95936157D01*
X166282000Y-95985440D01*
X167971001Y-95985440D01*
X167971001Y-100153000D01*
X164867138Y-100153000D01*
X164900625Y-100130625D01*
X165228839Y-99639418D01*
X165344092Y-99060000D01*
X165228839Y-98480582D01*
X164900625Y-97989375D01*
X164409418Y-97661161D01*
X163976256Y-97575000D01*
X163683744Y-97575000D01*
X163250582Y-97661161D01*
X162759375Y-97989375D01*
X162560000Y-98287761D01*
X162360625Y-97989375D01*
X161869418Y-97661161D01*
X161436256Y-97575000D01*
X161143744Y-97575000D01*
X160710582Y-97661161D01*
X160219375Y-97989375D01*
X160204904Y-98011033D01*
X160138327Y-97850302D01*
X159959699Y-97671673D01*
X159726310Y-97575000D01*
X159035750Y-97575000D01*
X158877000Y-97733750D01*
X158877000Y-98933000D01*
X158897000Y-98933000D01*
X158897000Y-99187000D01*
X158877000Y-99187000D01*
X158877000Y-99207000D01*
X158623000Y-99207000D01*
X158623000Y-99187000D01*
X157423750Y-99187000D01*
X157265000Y-99345750D01*
X157265000Y-100036309D01*
X157313335Y-100153000D01*
X145563138Y-100153000D01*
X145596625Y-100130625D01*
X145924839Y-99639418D01*
X146040092Y-99060000D01*
X145924839Y-98480582D01*
X145596625Y-97989375D01*
X145105418Y-97661161D01*
X144672256Y-97575000D01*
X144379744Y-97575000D01*
X143946582Y-97661161D01*
X143455375Y-97989375D01*
X143256000Y-98287761D01*
X143056625Y-97989375D01*
X142565418Y-97661161D01*
X142132256Y-97575000D01*
X141839744Y-97575000D01*
X141406582Y-97661161D01*
X140915375Y-97989375D01*
X140716000Y-98287761D01*
X140516625Y-97989375D01*
X140025418Y-97661161D01*
X139592256Y-97575000D01*
X139299744Y-97575000D01*
X138866582Y-97661161D01*
X138375375Y-97989375D01*
X138162157Y-98308478D01*
X138101183Y-98178642D01*
X137672924Y-97788355D01*
X137262890Y-97618524D01*
X137033000Y-97739845D01*
X137033000Y-98933000D01*
X137053000Y-98933000D01*
X137053000Y-99187000D01*
X137033000Y-99187000D01*
X137033000Y-99207000D01*
X136779000Y-99207000D01*
X136779000Y-99187000D01*
X136759000Y-99187000D01*
X136759000Y-98933000D01*
X136779000Y-98933000D01*
X136779000Y-97739845D01*
X136549110Y-97618524D01*
X136139076Y-97788355D01*
X135834739Y-98065708D01*
X135814157Y-97962235D01*
X135673809Y-97752191D01*
X135614810Y-97712769D01*
X135956691Y-97370887D01*
X140540825Y-97401202D01*
X140912126Y-97555000D01*
X141323874Y-97555000D01*
X141704280Y-97397431D01*
X141995431Y-97106280D01*
X142153000Y-96725874D01*
X142153000Y-96314126D01*
X148571000Y-96314126D01*
X148571000Y-96725874D01*
X148728569Y-97106280D01*
X148846000Y-97223711D01*
X148846001Y-97682288D01*
X148728569Y-97799720D01*
X148571000Y-98180126D01*
X148571000Y-98591874D01*
X148728569Y-98972280D01*
X149019720Y-99263431D01*
X149400126Y-99421000D01*
X149811874Y-99421000D01*
X150192280Y-99263431D01*
X150483431Y-98972280D01*
X150641000Y-98591874D01*
X150641000Y-98180126D01*
X150483431Y-97799720D01*
X150366000Y-97682289D01*
X150366000Y-97223711D01*
X150483431Y-97106280D01*
X150641000Y-96725874D01*
X150641000Y-96314126D01*
X153651000Y-96314126D01*
X153651000Y-96725874D01*
X153808569Y-97106280D01*
X153926001Y-97223712D01*
X153926000Y-97848289D01*
X153808569Y-97965720D01*
X153651000Y-98346126D01*
X153651000Y-98757874D01*
X153808569Y-99138280D01*
X154099720Y-99429431D01*
X154480126Y-99587000D01*
X154891874Y-99587000D01*
X155272280Y-99429431D01*
X155563431Y-99138280D01*
X155721000Y-98757874D01*
X155721000Y-98346126D01*
X155612297Y-98083691D01*
X157265000Y-98083691D01*
X157265000Y-98774250D01*
X157423750Y-98933000D01*
X158623000Y-98933000D01*
X158623000Y-97733750D01*
X158464250Y-97575000D01*
X157773690Y-97575000D01*
X157540301Y-97671673D01*
X157361673Y-97850302D01*
X157265000Y-98083691D01*
X155612297Y-98083691D01*
X155563431Y-97965720D01*
X155446000Y-97848289D01*
X155446000Y-97223711D01*
X155563431Y-97106280D01*
X155721000Y-96725874D01*
X155721000Y-96314126D01*
X155563431Y-95933720D01*
X155272280Y-95642569D01*
X154891874Y-95485000D01*
X154480126Y-95485000D01*
X154099720Y-95642569D01*
X153808569Y-95933720D01*
X153651000Y-96314126D01*
X150641000Y-96314126D01*
X150483431Y-95933720D01*
X150192280Y-95642569D01*
X149811874Y-95485000D01*
X149400126Y-95485000D01*
X149019720Y-95642569D01*
X148728569Y-95933720D01*
X148571000Y-96314126D01*
X142153000Y-96314126D01*
X141995431Y-95933720D01*
X141704280Y-95642569D01*
X141323874Y-95485000D01*
X140912126Y-95485000D01*
X140558965Y-95631284D01*
X135682598Y-95599036D01*
X135592540Y-95581123D01*
X135422801Y-95614886D01*
X135252751Y-95647543D01*
X135250213Y-95649215D01*
X135247230Y-95649808D01*
X135103188Y-95746054D01*
X134958725Y-95841206D01*
X134907208Y-95917213D01*
X133801847Y-97022575D01*
X133727951Y-97071951D01*
X133532348Y-97364691D01*
X133492042Y-97567326D01*
X133268235Y-97611843D01*
X133058191Y-97752191D01*
X133019000Y-97810844D01*
X133019000Y-94818990D01*
X133094355Y-95000924D01*
X133484642Y-95429183D01*
X134009108Y-95675486D01*
X134239000Y-95554819D01*
X134239000Y-94361000D01*
X134493000Y-94361000D01*
X134493000Y-95554819D01*
X134722892Y-95675486D01*
X135247358Y-95429183D01*
X135637645Y-95000924D01*
X135807476Y-94590890D01*
X135686155Y-94361000D01*
X134493000Y-94361000D01*
X134239000Y-94361000D01*
X134219000Y-94361000D01*
X134219000Y-94107000D01*
X134239000Y-94107000D01*
X134239000Y-94087000D01*
X134493000Y-94087000D01*
X134493000Y-94107000D01*
X135686155Y-94107000D01*
X135807476Y-93877110D01*
X135637645Y-93467076D01*
X135360292Y-93162739D01*
X135463765Y-93142157D01*
X135673809Y-93001809D01*
X135814157Y-92791765D01*
X135863440Y-92544000D01*
X135863440Y-90844000D01*
X135814157Y-90596235D01*
X135673809Y-90386191D01*
X135615156Y-90347000D01*
X167971000Y-90347000D01*
X167971000Y-90722608D01*
X167971000Y-90722608D01*
G37*
X167971000Y-90722608D02*
X167711418Y-90549161D01*
X167278256Y-90463000D01*
X166985744Y-90463000D01*
X166552582Y-90549161D01*
X166061375Y-90877375D01*
X165733161Y-91368582D01*
X165617908Y-91948000D01*
X165733161Y-92527418D01*
X166061375Y-93018625D01*
X166079619Y-93030816D01*
X166034235Y-93039843D01*
X165824191Y-93180191D01*
X165683843Y-93390235D01*
X165634560Y-93638000D01*
X165634560Y-95338000D01*
X165683843Y-95585765D01*
X165824191Y-95795809D01*
X166034235Y-95936157D01*
X166282000Y-95985440D01*
X167971001Y-95985440D01*
X167971001Y-100153000D01*
X164867138Y-100153000D01*
X164900625Y-100130625D01*
X165228839Y-99639418D01*
X165344092Y-99060000D01*
X165228839Y-98480582D01*
X164900625Y-97989375D01*
X164409418Y-97661161D01*
X163976256Y-97575000D01*
X163683744Y-97575000D01*
X163250582Y-97661161D01*
X162759375Y-97989375D01*
X162560000Y-98287761D01*
X162360625Y-97989375D01*
X161869418Y-97661161D01*
X161436256Y-97575000D01*
X161143744Y-97575000D01*
X160710582Y-97661161D01*
X160219375Y-97989375D01*
X160204904Y-98011033D01*
X160138327Y-97850302D01*
X159959699Y-97671673D01*
X159726310Y-97575000D01*
X159035750Y-97575000D01*
X158877000Y-97733750D01*
X158877000Y-98933000D01*
X158897000Y-98933000D01*
X158897000Y-99187000D01*
X158877000Y-99187000D01*
X158877000Y-99207000D01*
X158623000Y-99207000D01*
X158623000Y-99187000D01*
X157423750Y-99187000D01*
X157265000Y-99345750D01*
X157265000Y-100036309D01*
X157313335Y-100153000D01*
X145563138Y-100153000D01*
X145596625Y-100130625D01*
X145924839Y-99639418D01*
X146040092Y-99060000D01*
X145924839Y-98480582D01*
X145596625Y-97989375D01*
X145105418Y-97661161D01*
X144672256Y-97575000D01*
X144379744Y-97575000D01*
X143946582Y-97661161D01*
X143455375Y-97989375D01*
X143256000Y-98287761D01*
X143056625Y-97989375D01*
X142565418Y-97661161D01*
X142132256Y-97575000D01*
X141839744Y-97575000D01*
X141406582Y-97661161D01*
X140915375Y-97989375D01*
X140716000Y-98287761D01*
X140516625Y-97989375D01*
X140025418Y-97661161D01*
X139592256Y-97575000D01*
X139299744Y-97575000D01*
X138866582Y-97661161D01*
X138375375Y-97989375D01*
X138162157Y-98308478D01*
X138101183Y-98178642D01*
X137672924Y-97788355D01*
X137262890Y-97618524D01*
X137033000Y-97739845D01*
X137033000Y-98933000D01*
X137053000Y-98933000D01*
X137053000Y-99187000D01*
X137033000Y-99187000D01*
X137033000Y-99207000D01*
X136779000Y-99207000D01*
X136779000Y-99187000D01*
X136759000Y-99187000D01*
X136759000Y-98933000D01*
X136779000Y-98933000D01*
X136779000Y-97739845D01*
X136549110Y-97618524D01*
X136139076Y-97788355D01*
X135834739Y-98065708D01*
X135814157Y-97962235D01*
X135673809Y-97752191D01*
X135614810Y-97712769D01*
X135956691Y-97370887D01*
X140540825Y-97401202D01*
X140912126Y-97555000D01*
X141323874Y-97555000D01*
X141704280Y-97397431D01*
X141995431Y-97106280D01*
X142153000Y-96725874D01*
X142153000Y-96314126D01*
X148571000Y-96314126D01*
X148571000Y-96725874D01*
X148728569Y-97106280D01*
X148846000Y-97223711D01*
X148846001Y-97682288D01*
X148728569Y-97799720D01*
X148571000Y-98180126D01*
X148571000Y-98591874D01*
X148728569Y-98972280D01*
X149019720Y-99263431D01*
X149400126Y-99421000D01*
X149811874Y-99421000D01*
X150192280Y-99263431D01*
X150483431Y-98972280D01*
X150641000Y-98591874D01*
X150641000Y-98180126D01*
X150483431Y-97799720D01*
X150366000Y-97682289D01*
X150366000Y-97223711D01*
X150483431Y-97106280D01*
X150641000Y-96725874D01*
X150641000Y-96314126D01*
X153651000Y-96314126D01*
X153651000Y-96725874D01*
X153808569Y-97106280D01*
X153926001Y-97223712D01*
X153926000Y-97848289D01*
X153808569Y-97965720D01*
X153651000Y-98346126D01*
X153651000Y-98757874D01*
X153808569Y-99138280D01*
X154099720Y-99429431D01*
X154480126Y-99587000D01*
X154891874Y-99587000D01*
X155272280Y-99429431D01*
X155563431Y-99138280D01*
X155721000Y-98757874D01*
X155721000Y-98346126D01*
X155612297Y-98083691D01*
X157265000Y-98083691D01*
X157265000Y-98774250D01*
X157423750Y-98933000D01*
X158623000Y-98933000D01*
X158623000Y-97733750D01*
X158464250Y-97575000D01*
X157773690Y-97575000D01*
X157540301Y-97671673D01*
X157361673Y-97850302D01*
X157265000Y-98083691D01*
X155612297Y-98083691D01*
X155563431Y-97965720D01*
X155446000Y-97848289D01*
X155446000Y-97223711D01*
X155563431Y-97106280D01*
X155721000Y-96725874D01*
X155721000Y-96314126D01*
X155563431Y-95933720D01*
X155272280Y-95642569D01*
X154891874Y-95485000D01*
X154480126Y-95485000D01*
X154099720Y-95642569D01*
X153808569Y-95933720D01*
X153651000Y-96314126D01*
X150641000Y-96314126D01*
X150483431Y-95933720D01*
X150192280Y-95642569D01*
X149811874Y-95485000D01*
X149400126Y-95485000D01*
X149019720Y-95642569D01*
X148728569Y-95933720D01*
X148571000Y-96314126D01*
X142153000Y-96314126D01*
X141995431Y-95933720D01*
X141704280Y-95642569D01*
X141323874Y-95485000D01*
X140912126Y-95485000D01*
X140558965Y-95631284D01*
X135682598Y-95599036D01*
X135592540Y-95581123D01*
X135422801Y-95614886D01*
X135252751Y-95647543D01*
X135250213Y-95649215D01*
X135247230Y-95649808D01*
X135103188Y-95746054D01*
X134958725Y-95841206D01*
X134907208Y-95917213D01*
X133801847Y-97022575D01*
X133727951Y-97071951D01*
X133532348Y-97364691D01*
X133492042Y-97567326D01*
X133268235Y-97611843D01*
X133058191Y-97752191D01*
X133019000Y-97810844D01*
X133019000Y-94818990D01*
X133094355Y-95000924D01*
X133484642Y-95429183D01*
X134009108Y-95675486D01*
X134239000Y-95554819D01*
X134239000Y-94361000D01*
X134493000Y-94361000D01*
X134493000Y-95554819D01*
X134722892Y-95675486D01*
X135247358Y-95429183D01*
X135637645Y-95000924D01*
X135807476Y-94590890D01*
X135686155Y-94361000D01*
X134493000Y-94361000D01*
X134239000Y-94361000D01*
X134219000Y-94361000D01*
X134219000Y-94107000D01*
X134239000Y-94107000D01*
X134239000Y-94087000D01*
X134493000Y-94087000D01*
X134493000Y-94107000D01*
X135686155Y-94107000D01*
X135807476Y-93877110D01*
X135637645Y-93467076D01*
X135360292Y-93162739D01*
X135463765Y-93142157D01*
X135673809Y-93001809D01*
X135814157Y-92791765D01*
X135863440Y-92544000D01*
X135863440Y-90844000D01*
X135814157Y-90596235D01*
X135673809Y-90386191D01*
X135615156Y-90347000D01*
X167971000Y-90347000D01*
X167971000Y-90722608D01*
G04 #@! TD*
M02*
