<?xml version="1.0" standalone="no"?>
<!DOCTYPE svg PUBLIC "-//W3C//DTD SVG 1.1//EN" "http://www.w3.org/Graphics/SVG/1.1/DTD/svg11.dtd">
<svg width="80mm" height="105mm" viewBox="-40 -66 80 105" xmlns="http://www.w3.org/2000/svg" version="1.1">
<title>OpenSCAD Model</title>
<path d="
M 40,-65.1274 L -40,-65.1274 L -40,39 L 40,39 z
M 3.68642,-27.0164 L 3.07295,-27.1468 L 2.5,-27.4019 L 1.99261,-27.7706 L 1.57295,-28.2366 L 1.25937,-28.7798
 L 1.06557,-29.3763 L 1,-30 L 1,-38 L 1.06557,-38.6237 L 1.25937,-39.2202 L 1.57295,-39.7634
 L 1.99261,-40.2294 L 2.5,-40.5981 L 3.07295,-40.8532 L 3.68642,-40.9836 L 32.3136,-40.9836 L 32.927,-40.8532
 L 33.5,-40.5981 L 34.0074,-40.2294 L 34.427,-39.7634 L 34.7406,-39.2202 L 34.9344,-38.6237 L 35,-38
 L 35,-30 L 34.9344,-29.3763 L 34.7406,-28.7798 L 34.427,-28.2366 L 34.0074,-27.7706 L 33.5,-27.4019
 L 32.927,-27.1468 L 32.3136,-27.0164 z
M -32.3136,-27.0164 L -32.927,-27.1468 L -33.5,-27.4019 L -34.0074,-27.7706 L -34.427,-28.2366 L -34.7406,-28.7798
 L -34.9344,-29.3763 L -35,-30 L -35,-38 L -34.9344,-38.6237 L -34.7406,-39.2202 L -34.427,-39.7634
 L -34.0074,-40.2294 L -33.5,-40.5981 L -32.927,-40.8532 L -32.3136,-40.9836 L -3.68642,-40.9836 L -3.07295,-40.8532
 L -2.5,-40.5981 L -1.99261,-40.2294 L -1.57295,-39.7634 L -1.25937,-39.2202 L -1.06557,-38.6237 L -1,-38
 L -1,-30 L -1.06557,-29.3763 L -1.25937,-28.7798 L -1.57295,-28.2366 L -1.99261,-27.7706 L -2.5,-27.4019
 L -3.07295,-27.1468 L -3.68642,-27.0164 z
M 4.34514,-24.2442 L 4.0405,-24.7183 L 4.0405,-25.2817 L 4.34514,-25.7557 L 4.85768,-25.9898 L 5.41541,-25.9096
 L 5.84125,-25.5406 L 6,-25 L 5.84125,-24.4594 L 5.41541,-24.0904 L 4.85768,-24.0102 z
M -5.41541,-24.0904 L -5.84125,-24.4594 L -6,-25 L -5.84125,-25.5406 L -5.41541,-25.9096 L -4.85768,-25.9898
 L -4.34514,-25.7557 L -4.0405,-25.2817 L -4.0405,-24.7183 L -4.34514,-24.2442 L -4.85768,-24.0102 z
M -29.8136,34.9836 L -30.427,34.8532 L -31,34.5981 L -31.5074,34.2294 L -31.927,33.7634 L -32.2406,33.2202
 L -32.4344,32.6237 L -32.5,32 L -32.5,-20 L -32.4344,-20.6237 L -32.2406,-21.2202 L -31.927,-21.7634
 L -31.5074,-22.2294 L -31,-22.5981 L -30.427,-22.8532 L -29.8136,-22.9836 L 29.8136,-22.9836 L 30.427,-22.8532
 L 31,-22.5981 L 31.5074,-22.2294 L 31.927,-21.7634 L 32.2406,-21.2202 L 32.4344,-20.6237 L 32.5,-20
 L 32.5,32 L 32.4344,32.6237 L 32.2406,33.2202 L 31.927,33.7634 L 31.5074,34.2294 L 31,34.5981
 L 30.427,34.8532 L 29.8136,34.9836 z
M 34.3451,-7.24425 L 34.0405,-7.71826 L 34.0405,-8.28172 L 34.3451,-8.75574 L 34.8577,-8.98981 L 35.4154,-8.90962
 L 35.8412,-8.54063 L 36,-8 L 35.8412,-7.45935 L 35.4154,-7.09036 L 34.8577,-7.01018 z
M -35.4154,-7.09036 L -35.8412,-7.45935 L -36,-8 L -35.8412,-8.54063 L -35.4154,-8.90962 L -34.8577,-8.98981
 L -34.3451,-8.75574 L -34.0405,-8.28172 L -34.0405,-7.71826 L -34.3451,-7.24425 L -34.8577,-7.01018 z
M 34.3451,6.75574 L 34.0405,6.28172 L 34.0405,5.71826 L 34.3451,5.24425 L 34.8577,5.01018 L 35.4154,5.09036
 L 35.8412,5.45935 L 36,6 L 35.8412,6.54063 L 35.4154,6.90962 L 34.8577,6.98981 z
M -35.4154,6.90962 L -35.8412,6.54063 L -36,6 L -35.8412,5.45935 L -35.4154,5.09036 L -34.8577,5.01018
 L -34.3451,5.24425 L -34.0405,5.71826 L -34.0405,6.28172 L -34.3451,6.75574 L -34.8577,6.98981 z
M 7.34514,38.2557 L 7.0405,37.7817 L 7.0405,37.2183 L 7.34514,36.7442 L 7.85768,36.5102 L 8.41541,36.5904
 L 8.84125,36.9594 L 9,37.5 L 8.84125,38.0406 L 8.41541,38.4096 L 7.85768,38.4898 z
M -8.41541,38.4096 L -8.84125,38.0406 L -9,37.5 L -8.84125,36.9594 L -8.41541,36.5904 L -7.85768,36.5102
 L -7.34514,36.7442 L -7.0405,37.2183 L -7.0405,37.7817 L -7.34514,38.2557 L -7.85768,38.4898 z
" stroke="black" fill="lightgray" stroke-width="0.5"/></svg>
