  0
SECTION
  2
BLOCKS
  0
ENDSEC
  0
SECTION
  2
ENTITIES
  0
LINE
  8
0
 10
0
 20
-40
 11
16
 21
-40
  0
LINE
  8
0
 10
16
 20
-40
 11
16
 21
28
  0
LINE
  8
0
 10
16
 20
28
 11
0.0999998
 21
39.925
  0
LINE
  8
0
 10
0.0999998
 20
39.925
 11
0
 21
40
  0
LINE
  8
0
 10
0
 20
40
 11
0
 21
-40
  0
LINE
  8
0
 10
5.5
 20
23
 11
5.54886
 21
23.418
  0
LINE
  8
0
 10
5.54886
 20
23.418
 11
5.56739
 21
23.5765
  0
LINE
  8
0
 10
5.56739
 20
23.5765
 11
5.76592
 21
24.122
  0
LINE
  8
0
 10
5.76592
 20
24.122
 11
6.08489
 21
24.607
  0
LINE
  8
0
 10
6.08489
 20
24.607
 11
6.5071
 21
25.0053
  0
LINE
  8
0
 10
6.5071
 20
25.0053
 11
7.0098
 21
25.2955
  0
LINE
  8
0
 10
7.0098
 20
25.2955
 11
7.56588
 21
25.462
  0
LINE
  8
0
 10
7.56588
 20
25.462
 11
8.14536
 21
25.4958
  0
LINE
  8
0
 10
8.14536
 20
25.4958
 11
8.71701
 21
25.395
  0
LINE
  8
0
 10
8.71701
 20
25.395
 11
9.10343
 21
25.2283
  0
LINE
  8
0
 10
9.10343
 20
25.2283
 11
9.25
 21
25.1651
  0
LINE
  8
0
 10
9.25
 20
25.1651
 11
9.37804
 21
25.0697
  0
LINE
  8
0
 10
9.37804
 20
25.0697
 11
9.7156
 21
24.8184
  0
LINE
  8
0
 10
9.7156
 20
24.8184
 11
10.0887
 21
24.3738
  0
LINE
  8
0
 10
10.0887
 20
24.3738
 11
10.3492
 21
23.8551
  0
LINE
  8
0
 10
10.3492
 20
23.8551
 11
10.4831
 21
23.2902
  0
LINE
  8
0
 10
10.4831
 20
23.2902
 11
10.4831
 21
22.7098
  0
LINE
  8
0
 10
10.4831
 20
22.7098
 11
10.3492
 21
22.1449
  0
LINE
  8
0
 10
10.3492
 20
22.1449
 11
10.0887
 21
21.6262
  0
LINE
  8
0
 10
10.0887
 20
21.6262
 11
9.7156
 21
21.1816
  0
LINE
  8
0
 10
9.7156
 20
21.1816
 11
9.37804
 21
20.9303
  0
LINE
  8
0
 10
9.37804
 20
20.9303
 11
9.25
 21
20.8349
  0
LINE
  8
0
 10
9.25
 20
20.8349
 11
9.10343
 21
20.7717
  0
LINE
  8
0
 10
9.10343
 20
20.7717
 11
8.71701
 21
20.605
  0
LINE
  8
0
 10
8.71701
 20
20.605
 11
8.14536
 21
20.5042
  0
LINE
  8
0
 10
8.14536
 20
20.5042
 11
7.56588
 21
20.538
  0
LINE
  8
0
 10
7.56588
 20
20.538
 11
7.0098
 21
20.7045
  0
LINE
  8
0
 10
7.0098
 20
20.7045
 11
6.5071
 21
20.9947
  0
LINE
  8
0
 10
6.5071
 20
20.9947
 11
6.08489
 21
21.393
  0
LINE
  8
0
 10
6.08489
 20
21.393
 11
5.76592
 21
21.878
  0
LINE
  8
0
 10
5.76592
 20
21.878
 11
5.56739
 21
22.4235
  0
LINE
  8
0
 10
5.56739
 20
22.4235
 11
5.54886
 21
22.582
  0
LINE
  8
0
 10
5.54886
 20
22.582
 11
5.5
 21
23
  0
LINE
  8
0
 10
6.3
 20
-35
 11
6.40252
 21
-34.4186
  0
LINE
  8
0
 10
6.40252
 20
-34.4186
 11
6.69772
 21
-33.9073
  0
LINE
  8
0
 10
6.69772
 20
-33.9073
 11
7.15
 21
-33.5278
  0
LINE
  8
0
 10
7.15
 20
-33.5278
 11
7.7048
 21
-33.3258
  0
LINE
  8
0
 10
7.7048
 20
-33.3258
 11
8.2952
 21
-33.3258
  0
LINE
  8
0
 10
8.2952
 20
-33.3258
 11
8.85
 21
-33.5278
  0
LINE
  8
0
 10
8.85
 20
-33.5278
 11
9.30227
 21
-33.9073
  0
LINE
  8
0
 10
9.30227
 20
-33.9073
 11
9.59748
 21
-34.4186
  0
LINE
  8
0
 10
9.59748
 20
-34.4186
 11
9.7
 21
-35
  0
LINE
  8
0
 10
9.7
 20
-35
 11
9.59748
 21
-35.5814
  0
LINE
  8
0
 10
9.59748
 20
-35.5814
 11
9.30227
 21
-36.0927
  0
LINE
  8
0
 10
9.30227
 20
-36.0927
 11
8.85
 21
-36.4722
  0
LINE
  8
0
 10
8.85
 20
-36.4722
 11
8.2952
 21
-36.6742
  0
LINE
  8
0
 10
8.2952
 20
-36.6742
 11
7.7048
 21
-36.6742
  0
LINE
  8
0
 10
7.7048
 20
-36.6742
 11
7.15
 21
-36.4722
  0
LINE
  8
0
 10
7.15
 20
-36.4722
 11
6.69772
 21
-36.0927
  0
LINE
  8
0
 10
6.69772
 20
-36.0927
 11
6.40252
 21
-35.5814
  0
LINE
  8
0
 10
6.40252
 20
-35.5814
 11
6.3
 21
-35
  0
LINE
  8
0
 10
6.3
 20
-6
 11
6.40252
 21
-5.41857
  0
LINE
  8
0
 10
6.40252
 20
-5.41857
 11
6.69772
 21
-4.90726
  0
LINE
  8
0
 10
6.69772
 20
-4.90726
 11
7.15
 21
-4.52776
  0
LINE
  8
0
 10
7.15
 20
-4.52776
 11
7.7048
 21
-4.32583
  0
LINE
  8
0
 10
7.7048
 20
-4.32583
 11
8.2952
 21
-4.32583
  0
LINE
  8
0
 10
8.2952
 20
-4.32583
 11
8.85
 21
-4.52776
  0
LINE
  8
0
 10
8.85
 20
-4.52776
 11
9.30227
 21
-4.90726
  0
LINE
  8
0
 10
9.30227
 20
-4.90726
 11
9.59748
 21
-5.41857
  0
LINE
  8
0
 10
9.59748
 20
-5.41857
 11
9.7
 21
-6
  0
LINE
  8
0
 10
9.7
 20
-6
 11
9.59748
 21
-6.58143
  0
LINE
  8
0
 10
9.59748
 20
-6.58143
 11
9.30227
 21
-7.09274
  0
LINE
  8
0
 10
9.30227
 20
-7.09274
 11
8.85
 21
-7.47224
  0
LINE
  8
0
 10
8.85
 20
-7.47224
 11
8.2952
 21
-7.67417
  0
LINE
  8
0
 10
8.2952
 20
-7.67417
 11
7.7048
 21
-7.67417
  0
LINE
  8
0
 10
7.7048
 20
-7.67417
 11
7.15
 21
-7.47224
  0
LINE
  8
0
 10
7.15
 20
-7.47224
 11
6.69772
 21
-7.09274
  0
LINE
  8
0
 10
6.69772
 20
-7.09274
 11
6.40252
 21
-6.58143
  0
LINE
  8
0
 10
6.40252
 20
-6.58143
 11
6.3
 21
-6
  0
LINE
  8
0
 10
7.6
 20
-20
 11
7.87639
 21
-19.6196
  0
LINE
  8
0
 10
7.87639
 20
-19.6196
 11
8.32361
 21
-19.7649
  0
LINE
  8
0
 10
8.32361
 20
-19.7649
 11
8.32361
 21
-20.2351
  0
LINE
  8
0
 10
8.32361
 20
-20.2351
 11
7.87639
 21
-20.3804
  0
LINE
  8
0
 10
7.87639
 20
-20.3804
 11
7.6
 21
-20
  0
LINE
  8
0
 10
7.6
 20
8.5
 11
7.87639
 21
8.88042
  0
LINE
  8
0
 10
7.87639
 20
8.88042
 11
8.32361
 21
8.73511
  0
LINE
  8
0
 10
8.32361
 20
8.73511
 11
8.32361
 21
8.26488
  0
LINE
  8
0
 10
8.32361
 20
8.26488
 11
7.87639
 21
8.11958
  0
LINE
  8
0
 10
7.87639
 20
8.11958
 11
7.6
 21
8.5
  0
ENDSEC
  0
SECTION
  2
OBJECTS
  0
DICTIONARY
  0
ENDSEC
  0
EOF
